<?xml version="1.0" encoding="utf-8"?>
<!-- Generator: Adobe Illustrator 16.0.0, SVG Export Plug-In . SVG Version: 6.00 Build 0)  -->
<!DOCTYPE svg PUBLIC "-//W3C//DTD SVG 1.1//EN" "http://www.w3.org/Graphics/SVG/1.1/DTD/svg11.dtd">
<svg version="1.1" id="Layer_1" xmlns="http://www.w3.org/2000/svg" xmlns:xlink="http://www.w3.org/1999/xlink" x="0px" y="0px"
	 width="57.667px" height="57.667px" viewBox="0 0 57.667 57.667" enable-background="new 0 0 57.667 57.667" xml:space="preserve">
<g>
	<path fill="#FFFFFF" d="M28.834,57.667C12.959,57.667,0,44.75,0,28.834C0,12.917,12.917,0,28.834,0
		c15.875,0,28.833,12.917,28.833,28.834C57.667,44.75,44.709,57.667,28.834,57.667z M28.834,0.292
		c-15.75,0-28.584,12.833-28.584,28.583s12.834,28.584,28.584,28.584s28.583-12.834,28.583-28.584S44.584,0.292,28.834,0.292z"/>
	<circle fill="#FFFFFF" cx="28.834" cy="28.583" r="24.042"/>
	<path fill="#EC6D3A" d="M43.959,32.334h-2.25v-4.042c0-1.292-1.042-2.333-2.334-2.333H29.209v-6.667h2.541
		c1.167,0,2.125-0.958,2.125-2.125v-4.792c0-1.166-0.958-2.125-2.125-2.125h-5.916c-1.167,0-2.125,0.959-2.125,2.125v4.792
		c0,1.167,0.958,2.125,2.125,2.125h2.833v6.667H18.542c-1.292,0-2.333,1.041-2.333,2.333v4.042h-2.542
		c-1.167,0-2.125,0.958-2.125,2.125v4.791c0,1.167,0.958,2.125,2.125,2.125h5.917c1.166,0,2.125-0.958,2.125-2.125v-4.791
		c0-1.167-0.959-2.125-2.125-2.125H16.75v-4.042c0-0.958,0.792-1.75,1.75-1.75h10.167v5.792h-2.833
		c-1.167,0-2.125,0.958-2.125,2.125v4.791c0,1.167,0.958,2.125,2.125,2.125h5.916c1.167,0,2.125-0.958,2.125-2.125v-4.791
		c0-1.167-0.958-2.125-2.125-2.125h-2.541v-5.792h10.166c0.959,0,1.75,0.792,1.75,1.75v4.042H38c-1.166,0-2.125,0.958-2.125,2.125
		v4.791c0,1.167,0.959,2.125,2.125,2.125h5.917c1.167,0,2.125-0.958,2.125-2.125v-4.791C46.084,33.292,45.125,32.334,43.959,32.334z
		"/>
</g>
</svg>
