<?xml version="1.0" encoding="utf-8"?>
<!-- Generator: Adobe Illustrator 16.0.0, SVG Export Plug-In . SVG Version: 6.00 Build 0)  -->
<!DOCTYPE svg PUBLIC "-//W3C//DTD SVG 1.1//EN" "http://www.w3.org/Graphics/SVG/1.1/DTD/svg11.dtd">
<svg version="1.1" id="Layer_1" xmlns="http://www.w3.org/2000/svg" xmlns:xlink="http://www.w3.org/1999/xlink" x="0px" y="0px"
	 width="57.5px" height="57.5px" viewBox="0 0 57.5 57.5" enable-background="new 0 0 57.5 57.5" xml:space="preserve">
<g>
	<path fill="#FFFFFF" d="M28.75,57.5C12.917,57.5,0,44.625,0,28.75S12.875,0,28.75,0S57.5,12.875,57.5,28.75S44.583,57.5,28.75,57.5
		z M28.75,0.333c-15.667,0-28.417,12.75-28.417,28.417c0,15.666,12.75,28.416,28.417,28.416c15.666,0,28.416-12.75,28.416-28.416
		C57.167,13.083,44.417,0.333,28.75,0.333z"/>
	<circle fill="#FFFFFF" cx="28.75" cy="28.75" r="23.958"/>
	<path fill="#4F6485" d="M28.208,12.125l-9.667,11.25v22.5h20.375v-22.5L28.208,12.125z M35.167,43.25H28.75V18.041L35.167,25V43.25
		z"/>
</g>
</svg>
