<?xml version="1.0" encoding="utf-8"?>
<!-- Generator: Adobe Illustrator 16.0.0, SVG Export Plug-In . SVG Version: 6.00 Build 0)  -->
<!DOCTYPE svg PUBLIC "-//W3C//DTD SVG 1.1//EN" "http://www.w3.org/Graphics/SVG/1.1/DTD/svg11.dtd">
<svg version="1.1" id="Layer_1" xmlns="http://www.w3.org/2000/svg" xmlns:xlink="http://www.w3.org/1999/xlink" x="0px" y="0px"
	 width="57px" height="57px" viewBox="0 0 57 57" enable-background="new 0 0 57 57" xml:space="preserve">
<g>
	<path fill="#EDD331" d="M28.5,57C12.791,57,0,44.208,0,28.5S12.791,0,28.5,0C44.208,0,57,12.792,57,28.5S44.25,57,28.5,57z
		 M28.5,0.333C12.958,0.333,0.333,12.958,0.333,28.5S12.958,56.667,28.5,56.667c15.541,0,28.166-12.625,28.166-28.167
		C56.708,12.958,44.041,0.333,28.5,0.333z"/>
	<circle fill="#EDD331" cx="28.5" cy="28.5" r="23.75"/>
	<g>
		<g>
			<g>
				<path fill="#FFFFFF" d="M42.5,35.083c-0.292-1.083-0.959-2.291-1.917-3.625C39.875,30.5,39.041,29.5,38.041,28.5
					c0.417-0.417,0.792-0.833,1.125-1.208c0.209,0.083,0.459,0.125,0.667,0.125c1.25,0,2.25-1,2.25-2.25
					c0-0.5-0.167-0.959-0.417-1.334c1.417-2.625,1.084-4.125,0.5-4.958c-0.541-0.792-1.458-1.208-2.75-1.292
					c-1.125-0.083-2.5,0.125-4.041,0.584c-0.584,0.166-1.209,0.375-1.834,0.625c-0.083-0.292-0.166-0.584-0.25-0.875
					c0.584-0.417,1-1.084,1-1.875c0-1.25-1-2.25-2.25-2.25c-0.166,0-0.333,0-0.5,0.041c-1.125-1.708-2.291-2.083-3.083-2.083
					c-2.125,0-3.917,2.542-5.083,7c-0.625-0.25-1.209-0.458-1.834-0.625c-1.583-0.458-2.958-0.667-4.041-0.583
					c-1.292,0.083-2.209,0.541-2.75,1.291c-0.584,0.792-0.917,2.334,0.541,5c0.167,0.334,0.584,0.417,0.875,0.25
					c0.334-0.166,0.417-0.583,0.25-0.875c-0.916-1.625-1.125-2.916-0.625-3.625c0.834-1.208,3.792-1,7.75,0.584
					c0,0,0.042,0,0.084,0.041c1.125,0.459,2.291,1.042,3.541,1.709c-0.75,0.458-1.5,0.958-2.25,1.5c-3.583,2.5-6.625,5.375-8.541,8
					c-0.959,1.333-1.625,2.541-1.917,3.625c-0.333,1.25-0.25,2.25,0.292,3.041c0.458,0.625,1.375,1.334,3.291,1.334
					c0.084,0,0.167,0,0.209,0c0.375,0.666,1.125,1.125,1.958,1.125c1.167,0,2.083-0.875,2.208-2
					c0.334-0.125,0.625-0.209,0.959-0.334c0.166,0.625,0.333,1.25,0.541,1.834c0.542,1.541,1.167,2.791,1.875,3.666
					c0.792,1,1.709,1.5,2.667,1.5c0.792,0,1.917-0.375,3.042-2.041c0.083,0,0.125,0,0.208,0c1.25,0,2.25-1,2.25-2.25
					c0-0.667-0.292-1.25-0.708-1.625c0.125-0.334,0.208-0.709,0.291-1.084c0.625,0.25,1.209,0.459,1.834,0.625
					c1.333,0.375,2.541,0.584,3.541,0.584c0.167,0,0.334,0,0.5,0c1.292-0.084,2.209-0.542,2.75-1.292
					C42.791,37.333,42.875,36.333,42.5,35.083z M32.125,15.083c0.5,0,0.916,0.417,0.916,0.917s-0.416,0.917-0.916,0.917
					S31.208,16.5,31.208,16C31.166,15.5,31.583,15.083,32.125,15.083z M33.208,24.25c-0.375-0.292-0.75-0.542-1.125-0.833
					c-0.75-0.542-1.5-1.042-2.25-1.5c0.958-0.542,1.917-1,2.833-1.417C32.875,21.708,33.083,22.958,33.208,24.25z M24.666,19.25
					c0.959-3.792,2.417-6.167,3.834-6.167c0.791,0,1.458,0.709,1.958,1.417c-0.375,0.417-0.583,0.917-0.583,1.5
					c0,1.25,1,2.25,2.25,2.25c0.083,0.333,0.166,0.667,0.25,1c-1.25,0.542-2.542,1.208-3.834,1.958
					C27.208,20.417,25.916,19.792,24.666,19.25z M20.25,39.292c-0.5,0-0.917-0.417-0.917-0.917s0.417-0.917,0.917-0.917
					s0.916,0.417,0.916,0.917S20.75,39.292,20.25,39.292z M22.25,37.292c-0.375-0.709-1.125-1.209-2-1.209
					c-1.167,0-2.125,0.917-2.25,2.042c-0.834,0-1.709-0.167-2.125-0.792c-0.917-1.291,0.583-4.416,4-7.958
					c0.791,0.75,1.666,1.5,2.541,2.25c0.125,1.875,0.375,3.667,0.709,5.292C22.833,37.083,22.541,37.208,22.25,37.292z
					 M23.833,32.75c0.375,0.292,0.75,0.542,1.125,0.833c0.75,0.542,1.5,1.042,2.25,1.5c-0.958,0.542-1.917,1-2.833,1.417
					C24.166,35.333,23.958,34.083,23.833,32.75z M30.333,42.708c-0.458,0.625-1.083,1.25-1.792,1.25
					c-1.375,0-2.875-2.333-3.833-6.166c1.25-0.542,2.542-1.209,3.833-1.959c1.292,0.75,2.584,1.417,3.834,1.959
					c-0.084,0.333-0.167,0.666-0.292,1c-0.125,0-0.208-0.042-0.333-0.042c-1.25,0-2.25,1-2.25,2.25
					C29.5,41.667,29.833,42.292,30.333,42.708z M31.75,41.917c-0.5,0-0.917-0.417-0.917-0.917s0.417-0.917,0.917-0.917
					S32.666,40.5,32.666,41S32.291,41.917,31.75,41.917z M32.666,36.458c-0.916-0.416-1.875-0.875-2.833-1.416
					c0.75-0.459,1.5-0.959,2.25-1.5c0.375-0.25,0.75-0.542,1.125-0.834C33.083,34.042,32.875,35.292,32.666,36.458z M33.333,31
					c-0.625,0.5-1.333,1-2,1.5c-0.917,0.667-1.875,1.25-2.792,1.833c-0.916-0.541-1.875-1.166-2.791-1.833c-0.709-0.5-1.375-1-2-1.5
					c-0.042-0.792-0.084-1.625-0.084-2.5c0-0.375-0.291-0.667-0.666-0.667s-0.667,0.292-0.667,0.667c0,0.458,0,0.917,0,1.375
					c-0.542-0.458-1.042-0.917-1.542-1.375c1.375-1.333,3.042-2.667,4.917-4c0.917-0.667,1.875-1.25,2.792-1.833
					c0.916,0.541,1.833,1.166,2.791,1.833c0.709,0.5,1.375,1,2,1.5c0.042,0.833,0.084,1.667,0.084,2.5S33.375,30.167,33.333,31z
					 M39.916,26.083c-0.5,0-0.916-0.416-0.916-0.916s0.416-0.917,0.916-0.917s0.917,0.417,0.917,0.917S40.416,26.083,39.916,26.083z
					 M35.75,19.375c2.708-0.792,4.75-0.708,5.375,0.25c0.458,0.667,0.291,1.917-0.5,3.417c-0.25-0.084-0.5-0.125-0.75-0.125
					c-1.25,0-2.25,1-2.25,2.25c0,0.5,0.166,1,0.458,1.375c-0.292,0.333-0.625,0.708-1,1.041c-0.792-0.75-1.667-1.5-2.542-2.25
					c-0.125-1.875-0.375-3.666-0.708-5.291C34.541,19.792,35.166,19.583,35.75,19.375z M34.666,27.125
					c0.542,0.458,1.042,0.917,1.542,1.375c-0.5,0.458-1,0.917-1.542,1.375c0-0.458,0-0.917,0-1.375
					C34.708,28.042,34.708,27.583,34.666,27.125z M41.166,37.375c-0.666,0.917-2.666,1.042-5.375,0.25
					c-0.625-0.167-1.25-0.375-1.875-0.625c0.334-1.625,0.584-3.417,0.709-5.292c0.916-0.75,1.75-1.5,2.541-2.25
					C40.583,32.958,42.083,36.083,41.166,37.375z"/>
			</g>
		</g>
		<g>
			<g>
				<path fill="#FFFFFF" d="M18.458,26.167c0-0.042-0.042-0.084-0.042-0.125c0-0.042-0.041-0.084-0.041-0.125
					c-0.042-0.042-0.042-0.084-0.084-0.084c-0.041-0.041-0.083-0.041-0.083-0.083c-0.042-0.042-0.083-0.042-0.125-0.042
					S18,25.667,17.958,25.667c-0.083,0-0.167,0-0.25,0c-0.042,0-0.083,0.041-0.125,0.041S17.5,25.75,17.458,25.75
					c-0.042,0.042-0.083,0.042-0.083,0.083c-0.042,0.042-0.042,0.084-0.084,0.084C17.25,25.958,17.25,26,17.25,26.042
					c0,0.041-0.042,0.083-0.042,0.125c0,0.041,0,0.083,0,0.125c0,0.041,0,0.083,0,0.125c0,0.041,0.042,0.083,0.042,0.125
					c0,0.041,0.041,0.083,0.041,0.125c0.042,0.041,0.042,0.083,0.084,0.083c0.041,0.042,0.083,0.042,0.083,0.083
					c0.042,0.042,0.083,0.042,0.125,0.042s0.083,0.042,0.125,0.042s0.083,0,0.125,0s0.083,0,0.125,0s0.083-0.042,0.125-0.042
					s0.083-0.042,0.125-0.042c0.042-0.041,0.083-0.041,0.083-0.083c0.042-0.042,0.042-0.083,0.084-0.083
					c0.041-0.042,0.041-0.084,0.041-0.125c0-0.042,0.042-0.084,0.042-0.125c0-0.042,0-0.084,0-0.125
					C18.458,26.25,18.458,26.208,18.458,26.167z"/>
			</g>
		</g>
		<g>
			<g>
				<path fill="#FFFFFF" d="M28.5,24.625c-2.167,0-3.917,1.75-3.917,3.917c0,2.166,1.75,3.916,3.917,3.916
					c2.166,0,3.916-1.75,3.916-3.916C32.416,26.333,30.666,24.625,28.5,24.625z M28.5,31.083c-1.417,0-2.584-1.166-2.584-2.583
					s1.167-2.583,2.584-2.583c1.416,0,2.583,1.166,2.583,2.583S29.958,31.083,28.5,31.083z"/>
			</g>
		</g>
	</g>
</g>
</svg>
