<?xml version="1.0" encoding="utf-8"?>
<!-- Generator: Adobe Illustrator 16.0.0, SVG Export Plug-In . SVG Version: 6.00 Build 0)  -->
<!DOCTYPE svg PUBLIC "-//W3C//DTD SVG 1.1//EN" "http://www.w3.org/Graphics/SVG/1.1/DTD/svg11.dtd">
<svg version="1.1" id="Layer_1" xmlns="http://www.w3.org/2000/svg" xmlns:xlink="http://www.w3.org/1999/xlink" x="0px" y="0px"
	 width="57.667px" height="57.667px" viewBox="0 0 57.667 57.667" enable-background="new 0 0 57.667 57.667" xml:space="preserve">
<g>
	<path fill="#FFFFFF" d="M28.833,57.667C12.917,57.667,0,44.708,0,28.833C0,12.958,12.958,0,28.833,0
		c15.875,0,28.833,12.958,28.833,28.833C57.667,44.708,44.708,57.667,28.833,57.667z M28.833,0.333
		c-15.708,0-28.542,12.792-28.542,28.542c0,15.75,12.792,28.542,28.542,28.542c15.75,0,28.542-12.791,28.542-28.542
		C57.375,13.125,44.542,0.333,28.833,0.333z"/>
	<circle fill="#FFFFFF" cx="28.833" cy="28.833" r="24.042"/>
	<g>
		<path fill="#0B6497" d="M26.125,20.708c0.125-0.083,0.208-0.125,0.333-0.167c-0.25-0.083-0.458-0.042-0.667,0
			c-0.167,0.042-0.333,0-0.5-0.125c-0.292-0.25-0.625-0.417-1-0.583c0.292-0.125,0.583-0.208,0.833-0.333
			c-0.417-0.042-0.833,0-1.208,0.083c-0.292,0.042-0.542,0-0.75-0.167s-0.417-0.333-0.625-0.5c0.292-0.167,0.667-0.208,1-0.417
			c-0.333-0.083-0.583,0.042-0.833,0.083c-1.042,0.167-2.083,0.292-3.125-0.167c-0.25-0.125-0.5-0.25-0.625-0.458
			c-0.083-0.083-0.083-0.167,0.042-0.25c1.5-0.958,3.042-1.875,4.75-2.417c0.458-0.125,0.917-0.208,1.375-0.083
			c0.542,0.125,0.833,0.458,0.917,1.042c0.042,0.583-0.083,1.125,0,1.708c0.083,0.958,0.75,1.625,1.708,1.667
			c0.333,0,0.542,0.125,0.667,0.417c0.083,0.208,0.167,0.375,0.25,0.583c0.042,0.083,0.083,0.167-0.083,0.167
			c-0.542,0-1.083,0-1.583,0C26.708,20.792,26.458,20.75,26.125,20.708z"/>
		<path fill="#0B6497" d="M34.042,18.5c0.375,0.125,0.709,0.25,1.084,0.375c-0.168,0.125-0.293,0.167-0.375,0.292
			c-0.375,0.417-0.875,0.458-1.418,0.333c-0.25-0.083-0.541-0.083-0.791-0.083c0.209,0.208,0.541,0.208,0.791,0.375
			c-0.416,0.167-0.791,0.375-1.125,0.667C32.125,20.542,32,20.5,31.917,20.5c-0.25-0.042-0.5-0.042-0.75-0.042
			c0.125,0.125,0.25,0.083,0.375,0.208c-0.834,0.167-1.709,0.042-2.584,0.083c0.084-0.375,0.293-0.75,0.5-1.083
			c0.043-0.083,0.125-0.083,0.25-0.083c1.668,0,2.084-1.167,2-2.417c-0.041-0.375-0.082-0.792,0-1.167
			c0.125-0.542,0.5-0.833,1.125-0.833c0.793-0.042,1.5,0.25,2.209,0.542c1.25,0.542,2.459,1.25,3.584,1.958
			c0.207,0.125,0.125,0.25,0,0.375c-0.375,0.375-0.875,0.542-1.375,0.625c-0.875,0.167-1.75,0.042-2.625-0.167
			C34.458,18.458,34.25,18.417,34.042,18.5z"/>
		<path fill="#0B6497" d="M30.25,35.875c0.125-0.043,0.25-0.043,0.375-0.125c0.375-0.168,0.791-0.334,0.832-0.793
			c0.043-0.541-0.125-1-0.582-1.332C30.458,33.333,30,33.208,29.5,33.208c-0.959,0-1.917,0-2.834-0.25
			c-0.792-0.207-1.5-0.5-2.083-1.082c-1.083-1.084-0.75-2.792,0.125-3.709c0.042-0.042,0.083-0.083,0.167-0.042
			c0.583,0.292,1.25,0.458,2,0.583c-0.25,0.125-0.375,0.167-0.542,0.25c-0.292,0.167-0.583,0.375-0.708,0.667
			c-0.333,0.708-0.208,1.083,0.333,1.458C26.583,31.5,27.25,31.667,28,31.75c0.75,0.082,1.5,0,2.25,0.166
			c1.207,0.291,2.082,0.916,2.416,2.166c0.25,0.959,0,1.834-0.75,2.418c-0.166,0.125-0.25,0.125-0.459,0.041
			C31.083,36.292,30.667,36.083,30.25,35.875z"/>
		<path fill="#0B6497" d="M9.792,19.792c2.208-0.25,4.375-0.667,6.542-1.208c0.708-0.167,1.375-0.375,2.083-0.583
			c0.125-0.042,0.167-0.042,0.25,0.125c0.208,0.542,0.708,0.667,1.208,0.792C20.25,19,20.625,19,21.042,19.083
			c-0.75,0.333-1.5,0.625-2.25,0.875c-1.417,0.5-2.917,0.917-4.417,1.125c-1.083,0.167-2.208,0.208-3.292-0.167
			C10.542,20.625,10.042,20.375,9.792,19.792z"/>
		<path fill="#0B6497" d="M36.708,19c0.543-0.042,1.043-0.042,1.584-0.25C38.667,18.625,39,18.458,39.125,18
			c0.041-0.167,0.166-0.042,0.207-0.042c1.293,0.417,2.625,0.75,3.959,1.042c1.5,0.333,3.041,0.625,4.625,0.75
			c-0.291,0.375-0.625,0.667-1.041,0.875c-0.875,0.458-1.793,0.5-2.709,0.417c-2.541-0.292-5-1.083-7.375-2
			C36.708,19.042,36.708,19.042,36.708,19z"/>
		<path fill="#0B6497" d="M27.208,33.417c-0.542,0.25-0.833,0.666-0.917,1.25c-0.042,0.416,0.125,0.709,0.458,0.916
			c0.458,0.25,0.917,0.334,1.417,0.375c0.583,0.043,1.209,0,1.791,0.168c1.084,0.332,1.709,1.041,1.875,2.166
			c0.125,0.75-0.416,1.666-1.041,2c-0.125,0.084-0.209,0-0.291-0.041c-0.334-0.168-0.625-0.293-1.043-0.375
			c0.209-0.084,0.375-0.168,0.543-0.25c0.625-0.334,0.875-0.75,0.791-1.293c-0.084-0.625-0.541-1.041-1.209-1.166
			c-0.5-0.084-0.958-0.041-1.458-0.041s-1.042-0.084-1.5-0.25c-1.417-0.5-2-1.709-1.458-3.125c0.042-0.084,0.042-0.125,0.083-0.209
			c0.292-0.666,0.333-0.666,1-0.416C26.542,33.25,26.875,33.333,27.208,33.417z"/>
		<path fill="#0B6497" d="M23.167,19.75c-1.833,1.25-3.75,2.125-5.917,2.417c-1.125,0.125-2.292,0.083-3.417-0.292
			c-0.25-0.083-0.5-0.167-0.708-0.375c2.5-0.333,4.875-1,7.167-1.917c0.333-0.125,0.667-0.292,1-0.458
			C21.667,18.917,22,19,22.333,19.25C22.625,19.333,22.833,19.583,23.167,19.75z"/>
		<path fill="#0B6497" d="M44.542,21.458c-0.834,0.417-1.625,0.625-2.459,0.708c-2,0.167-3.791-0.458-5.541-1.25
			c-0.709-0.333-1.375-0.667-2-1.167c0.334-0.125,0.5-0.333,0.75-0.542c0.334-0.292,0.709-0.333,1.084-0.125
			c1.666,0.833,3.416,1.375,5.25,1.833C42.542,21.125,43.5,21.333,44.542,21.458z"/>
		<path fill="#0B6497" d="M25.208,20.708c-1.458,0.792-2.792,1.708-4.375,2.125c-0.875,0.25-1.792,0.25-2.667,0.042
			c-0.333-0.083-0.625-0.208-0.917-0.458c0.833-0.125,1.583-0.333,2.333-0.583c1.292-0.458,2.542-1.042,3.708-1.75
			c0.25-0.125,0.458-0.125,0.708-0.042C24.458,20.125,24.833,20.375,25.208,20.708z"/>
		<path fill="#0B6497" d="M32.458,20.708c0.459-0.333,0.918-0.708,1.5-0.75c0.168,0,0.334,0,0.459,0.125
			c1.709,1,3.5,1.833,5.459,2.25c0.166,0.042,0.332,0,0.541,0.125c-0.459,0.375-1.041,0.5-1.584,0.542
			c-1.207,0.083-2.332-0.167-3.416-0.708C34.417,21.792,33.417,21.292,32.458,20.708z"/>
		<path fill="#0B6497" d="M29.208,43.167c0.209-0.125,0.418-0.209,0.625-0.334c0.375-0.291,0.5-0.666,0.418-1.082
			c-0.043-0.418-0.334-0.625-0.709-0.793c-0.459-0.166-1-0.082-1.458-0.207c-0.792-0.209-1.5-0.543-1.917-1.293
			s-0.25-1.666,0.167-2.291c0.042-0.084,0.125-0.084,0.208-0.084c0.333,0.125,0.625,0.25,0.958,0.375
			c-0.208,0.168-0.375,0.375-0.5,0.668c-0.167,0.541-0.083,0.957,0.375,1.291c0.458,0.375,1,0.5,1.542,0.584
			c0.584,0.082,1.125,0.207,1.584,0.625c0.832,0.791,0.625,2.332-0.418,2.875c-0.082,0.041-0.166,0.041-0.291,0
			C29.625,43.375,29.417,43.292,29.208,43.167z"/>
		<path fill="#0B6497" d="M28.875,48.208c-0.125-0.291-0.125-0.5-0.125-0.707c-0.042-0.125,0-0.293,0-0.459
			c0-0.334,0-0.625-0.458-0.666c-0.208,0-0.417-0.209-0.5-0.418c-0.333-0.625-0.375-1.25,0-1.875
			c0.125-0.25,0.292-0.375,0.542-0.166c0.042,0.041,0.125,0.041,0.208,0.125c-0.583,0.416-0.708,1-0.5,1.625
			c0.083,0.334,0.292,0.541,0.667,0.625c0.042-0.5-0.042-0.959-0.042-1.459c0-0.166,0-0.332,0-0.457
			c-0.042-0.25,0.042-0.293,0.291-0.293c0.209,0,0.209,0.084,0.209,0.25c0,0.668,0,1.334,0,1.959
			c0.416-0.041,0.709-0.375,0.791-0.959c0.084-0.75-0.291-1.291-1.041-1.5c-0.417-0.125-0.833-0.207-1.208-0.416
			c-0.875-0.541-1.167-1.666-0.625-2.541c0.083-0.168,0.167-0.209,0.333-0.125c0.208,0.082,0.417,0.166,0.708,0.25
			c-0.458,0.291-0.625,0.666-0.5,1.166c0.083,0.459,0.417,0.666,0.833,0.875c0.208,0.125,0.458,0.166,0.708,0.25
			c1.084,0.416,1.541,1.459,1.041,2.5c-0.166,0.375-0.457,0.625-0.875,0.625c-0.25,0-0.25,0.125-0.25,0.291
			C28.958,47.208,28.917,47.667,28.875,48.208z"/>
		<path fill="#0B6497" d="M27.458,16c0-0.792,0.625-1.375,1.375-1.375c0.75,0,1.417,0.667,1.417,1.417s-0.625,1.375-1.417,1.375
			C28.042,17.375,27.458,16.792,27.458,16z"/>
		<path fill="#0B6497" d="M28.833,22.042c0.167,0.417,0.333,0.792,0.458,1.125c0.041,0.083,0.041,0.208,0.041,0.333
			c0,0.917,0,1.833,0,2.75c0,0.208-0.041,0.25-0.25,0.208c-0.25,0-0.625,0.083-0.791-0.042s-0.042-0.5-0.042-0.75
			c0-0.583,0.042-1.125,0-1.708C28.208,23.25,28.625,22.708,28.833,22.042z"/>
		<path fill="#0B6497" d="M28.333,30.083c0-0.375,0-0.792,0-1.167c0-0.208,0.042-0.25,0.25-0.208c0.25,0,0.542-0.083,0.708,0.042
			s0.041,0.458,0.041,0.667c0,0.583,0,1.209,0,1.791c0,0.168-0.041,0.25-0.25,0.25c-0.708,0-0.708,0-0.708-0.707
			C28.375,30.542,28.375,30.333,28.333,30.083C28.375,30.083,28.333,30.083,28.333,30.083z"/>
		<path fill="#0B6497" d="M21.208,22.958c1.083-0.458,2.083-0.958,3.083-1.5c0.167-0.083,0.375-0.167,0.542-0.292
			c0.375-0.292,0.75-0.333,1.208-0.25S27,21,27.5,21.042c-0.083,0.208-0.25,0.167-0.417,0.167c-1.375-0.167-2.542,0.208-3.625,1.042
			c-0.292,0.208-0.542,0.458-0.708,0.833c-0.083,0.125-0.125,0.167-0.292,0.125C22.042,23.167,21.667,23.083,21.208,22.958z"/>
		<path fill="#0B6497" d="M36.458,22.958c-0.457,0.125-0.916,0.208-1.332,0.25c-0.125,0-0.168-0.042-0.25-0.125
			c-0.875-1.417-2.25-1.833-3.834-1.917c-0.166,0-0.334,0-0.459,0.083c-0.207,0.083-0.332,0-0.457-0.167
			c0.541-0.042,1.041-0.042,1.541-0.167c0.459-0.083,0.791,0.042,1.166,0.25C34,21.792,35.208,22.417,36.458,22.958z"/>
		<path fill="#0B6497" d="M29.25,34.667c0,0.334,0,0.666,0,1c0,0.125,0,0.209-0.209,0.209c-0.625,0-0.625,0.041-0.625-0.625
			c0-0.543,0-1.084-0.042-1.625c0-0.168,0.042-0.209,0.208-0.209c0.667-0.041,0.667-0.041,0.667,0.625
			C29.25,34.292,29.25,34.458,29.25,34.667L29.25,34.667z"/>
		<path fill="#0B6497" d="M29.167,38.375c0,0.375,0,0.75,0,1.125c0,0.166-0.041,0.207-0.209,0.207c-0.083,0-0.208,0-0.291,0
			c-0.125,0-0.167-0.041-0.167-0.166c0-0.709,0-1.416-0.042-2.125c0-0.166,0.083-0.209,0.208-0.209c0.541,0,0.541,0,0.541,0.5
			C29.208,38,29.208,38.167,29.167,38.375L29.167,38.375z"/>
		<path fill="#0B6497" d="M28.833,20.375c-0.25-0.542-0.667-0.958-0.542-1.583c0.042-0.333,0.125-0.458,0.542-0.458
			c0.375,0,0.542,0.167,0.583,0.458c0.084,0.458-0.166,0.833-0.375,1.167C29,20.083,28.917,20.208,28.833,20.375z"/>
		<path fill="#0B6497" d="M28.917,18.208c-0.5,0-0.917-0.25-1.042-0.583c-0.083-0.208,0-0.292,0.208-0.25
			c0.167,0.042,0.333,0.083,0.5,0.125c0.333,0.042,0.625,0,0.958-0.083c0.125-0.042,0.25-0.083,0.334,0.042
			c0.082,0.125,0,0.208-0.084,0.333C29.542,18.042,29.208,18.208,28.917,18.208z"/>
		<path fill="#0B6497" d="M29.125,41.75c0,0.332-0.043,0.75-0.043,1.166c0,0.25-0.166,0.166-0.291,0.166s-0.25,0.043-0.25-0.166
			c0-0.584,0-1.125-0.042-1.709c0-0.125,0.042-0.166,0.167-0.166c0.083,0,0.167,0,0.25,0c0.209-0.041,0.291,0.084,0.25,0.25
			S29.125,41.542,29.125,41.75z"/>
		<path fill="#0B6497" d="M30.167,21.375c-0.375,0.208-0.75,0.458-1,0.875c-0.209-0.375-0.25-0.75-0.25-1.125
			c0-0.167,0.084-0.167,0.209-0.167C29.5,20.958,29.875,21.042,30.167,21.375z"/>
		<path fill="#0B6497" d="M27.542,21.333c0.292-0.333,0.667-0.375,1.042-0.375c0.125,0,0.208,0.042,0.208,0.208
			c0,0.333-0.042,0.625-0.208,0.958C28.292,21.792,27.958,21.5,27.542,21.333z"/>
		<path fill="#0B6497" d="M33.792,29.792c-0.209-1.208-0.959-1.958-2.041-2.458c-1.084-0.458-2.209-0.542-3.334-0.583
			c-1.083-0.042-2.125-0.167-3.125-0.708c-0.583-0.333-0.958-0.792-0.875-1.5c0.042-0.375,0.083-0.792,0.333-1.125
			c0.417-0.5,0.958-0.708,1.625-0.458c0.667,0.25,1.25,0.083,1.833-0.25c0.125-0.083,0.292-0.208,0.208-0.417
			c-0.292-0.542-1.208-1.042-1.792-0.958c-0.292,0.042-0.542,0.042-0.833,0.125c-1.5,0.25-3,1.083-3.125,3
			c-0.042,0.792,0.083,1.5,0.583,2.125c0.917,1.083,2.125,1.542,3.5,1.75c1.042,0.167,2.125,0.125,3.208,0.25
			c0.668,0.083,1.293,0.25,1.834,0.708c0.709,0.583,0.666,1.416-0.125,1.916c-0.375,0.25-0.75,0.334-1.209,0.5
			c0.668,0.168,1.168,0.418,1.668,0.793c0.082,0.041,0.125,0.125,0.207,0.082C33.417,31.917,34,31,33.792,29.792z"/>
		<path fill="#0B6497" d="M33.833,22.167c-0.707-0.458-1.457-0.667-2.291-0.792s-1.459,0.083-2.041,0.667
			c-0.334,0.333-0.293,0.542,0.125,0.75c0.582,0.292,1.207,0.417,1.832,0.167c0.75-0.292,1.375,0.083,1.584,0.667
			c0.5,1.25,0.334,1.917-0.791,2.5c-0.043,0.042-0.125,0.042-0.168,0.083c-0.457,0.208-0.916,0.333-1.416,0.417
			c0.75,0.25,1.459,0.542,2.125,0.958c0.166,0.083,0.25,0.083,0.375,0c0.416-0.25,0.791-0.542,1.125-0.917
			C35.542,25.417,35.25,23.167,33.833,22.167z M30.958,21.75l-0.041-0.042C30.917,21.708,30.958,21.708,30.958,21.75z
			 M30.875,21.667h-0.043l0,0H30.875z M30.708,21.708c0,0.042-0.041,0.042-0.041,0.083l0,0
			C30.667,21.792,30.667,21.75,30.708,21.708z M30.792,21.958c-0.041,0-0.084-0.042-0.125-0.083
			C30.708,21.917,30.75,21.958,30.792,21.958S30.833,21.958,30.792,21.958C30.833,21.958,30.833,21.958,30.792,21.958z
			 M30.875,21.958c0.041-0.042,0.082-0.083,0.082-0.125C30.958,21.875,30.917,21.917,30.875,21.958z"/>
	</g>
</g>
</svg>
