<?xml version="1.0" encoding="utf-8"?>
<!-- Generator: Adobe Illustrator 16.0.0, SVG Export Plug-In . SVG Version: 6.00 Build 0)  -->
<!DOCTYPE svg PUBLIC "-//W3C//DTD SVG 1.1//EN" "http://www.w3.org/Graphics/SVG/1.1/DTD/svg11.dtd">
<svg version="1.1" id="Layer_1" xmlns="http://www.w3.org/2000/svg" xmlns:xlink="http://www.w3.org/1999/xlink" x="0px" y="0px"
	 width="57.166px" height="57.167px" viewBox="0 0 57.166 57.167" enable-background="new 0 0 57.166 57.167" xml:space="preserve">
<g>
	<path fill="#98381A" d="M28.583,57.167C12.833,57.167,0,44.334,0,28.584S12.833,0,28.583,0s28.583,12.834,28.583,28.584
		C57.125,44.334,44.333,57.167,28.583,57.167z M28.583,0.375c-15.583,0-28.25,12.667-28.25,28.25c0,15.584,12.667,28.25,28.25,28.25
		s28.25-12.666,28.25-28.25C56.833,13.042,44.166,0.375,28.583,0.375z"/>
	<circle fill="#98381A" cx="28.583" cy="28.583" r="23.833"/>
	<g>
		<g>
			<g>
				<path fill="#FFFFFF" d="M18.291,17.292L18.291,17.292c-0.291,0-0.541,0.125-0.75,0.292c-0.208,0.208-0.291,0.458-0.291,0.75
					v15.875c0,0.583,0.458,1.041,1.041,1.041c2.459,0,6.584,0.5,9.459,3.5V22.167c0-0.208-0.042-0.375-0.125-0.542
					C25.25,17.875,20.75,17.292,18.291,17.292z"/>
				<path fill="#FFFFFF" d="M39.916,34.25V18.375c0-0.291-0.125-0.541-0.291-0.75c-0.209-0.208-0.459-0.291-0.75-0.291l0,0
					c-2.459,0-6.959,0.583-9.292,4.333C29.5,21.834,29.458,22,29.458,22.209v16.625c2.833-3,7-3.5,9.458-3.5
					C39.416,35.292,39.916,34.834,39.916,34.25z"/>
				<path fill="#FFFFFF" d="M42.333,20.959h-0.75V34.25c0,1.5-1.208,2.709-2.708,2.709c-2.084,0-5.542,0.416-8,2.708
					c4.208-1.042,8.666-0.375,11.208,0.208c0.333,0.084,0.625,0,0.917-0.208c0.25-0.208,0.416-0.5,0.416-0.833V22
					C43.375,21.417,42.916,20.959,42.333,20.959z"/>
				<path fill="#FFFFFF" d="M15.583,34.25V20.959h-0.75c-0.583,0-1.042,0.458-1.042,1.041v16.834c0,0.333,0.125,0.625,0.417,0.833
					c0.25,0.208,0.583,0.292,0.917,0.208c2.541-0.583,7-1.25,11.208-0.208c-2.458-2.292-5.875-2.708-8-2.708
					C16.791,36.959,15.583,35.709,15.583,34.25z"/>
			</g>
		</g>
	</g>
</g>
</svg>
