<?xml version="1.0" encoding="utf-8"?>
<!-- Generator: Adobe Illustrator 16.0.0, SVG Export Plug-In . SVG Version: 6.00 Build 0)  -->
<!DOCTYPE svg PUBLIC "-//W3C//DTD SVG 1.1//EN" "http://www.w3.org/Graphics/SVG/1.1/DTD/svg11.dtd">
<svg version="1.1" id="Layer_1" xmlns="http://www.w3.org/2000/svg" xmlns:xlink="http://www.w3.org/1999/xlink" x="0px" y="0px"
	 width="57.25px" height="57.25px" viewBox="0 0 57.25 57.25" enable-background="new 0 0 57.25 57.25" xml:space="preserve">
<g>
	<path fill="#FFFFFF" d="M28.625,57.25C12.833,57.25,0,44.417,0,28.625S12.833,0,28.625,0C44.417,0,57.25,12.833,57.25,28.625
		S44.417,57.25,28.625,57.25z M28.625,0.333C13,0.333,0.333,13.042,0.333,28.625s12.708,28.292,28.292,28.292
		c15.584,0,28.292-12.709,28.292-28.292S44.25,0.333,28.625,0.333z"/>
	<circle fill="#FFFFFF" cx="28.625" cy="28.625" r="23.875"/>
	<g>
		<g id="Globe_4_">
			<g>
				<path fill="#9C5D98" d="M28.625,13.833c-9.333,0-16.916,6.625-16.916,14.792s7.583,14.792,16.916,14.792
					c9.334,0,16.917-6.625,16.917-14.792S37.958,13.833,28.625,13.833z M22.667,17.042c-0.625,0.75-1.167,1.666-1.667,2.666
					c-0.625-0.291-1.166-0.583-1.708-0.916C20.333,18.083,21.458,17.5,22.667,17.042z M17.583,20.208
					c0.791,0.542,1.666,1.042,2.625,1.459c-0.584,1.75-0.959,3.75-1.042,5.875h-5.25C14.167,24.75,15.5,22.208,17.583,20.208z
					 M13.875,29.667h5.25c0.084,2.125,0.459,4.125,1.042,5.875c-0.958,0.416-1.833,0.916-2.583,1.458
					C15.5,35.042,14.167,32.5,13.875,29.667z M19.333,38.458c0.5-0.333,1.083-0.625,1.708-0.916c0.458,1,1.042,1.875,1.667,2.666
					C21.458,39.75,20.333,39.167,19.333,38.458z M27.583,41.167c-1.792-0.459-3.375-2.042-4.542-4.334
					c1.375-0.416,2.917-0.666,4.542-0.75V41.167z M27.583,33.958c-1.917,0.084-3.709,0.375-5.334,0.875
					c-0.541-1.541-0.875-3.291-0.958-5.166h6.292V33.958z M27.583,27.583h-6.292c0.083-1.833,0.417-3.583,0.958-5.166
					c1.625,0.5,3.417,0.791,5.334,0.875V27.583z M27.583,21.208c-1.625-0.083-3.125-0.333-4.542-0.75
					c1.167-2.291,2.75-3.875,4.542-4.333V21.208z M43.375,27.583h-5.25c-0.083-2.125-0.458-4.125-1.041-5.875
					c0.958-0.416,1.833-0.916,2.583-1.458C41.75,22.208,43.083,24.75,43.375,27.583z M37.917,18.792
					c-0.5,0.333-1.083,0.625-1.708,0.916c-0.459-1-1.042-1.875-1.667-2.666C35.792,17.5,36.917,18.083,37.917,18.792z
					 M29.667,16.083c1.792,0.459,3.375,2.042,4.542,4.334c-1.375,0.416-2.917,0.666-4.542,0.75V16.083z M29.667,23.292
					c1.917-0.084,3.708-0.375,5.333-0.875c0.542,1.541,0.875,3.291,0.959,5.166h-6.292V23.292L29.667,23.292z M29.667,29.667h6.292
					C35.875,31.5,35.542,33.25,35,34.833c-1.625-0.5-3.416-0.791-5.333-0.875V29.667L29.667,29.667z M29.667,41.167v-5.084
					c1.625,0.084,3.125,0.334,4.542,0.75C33.083,39.083,31.458,40.708,29.667,41.167z M34.583,40.208
					c0.625-0.75,1.166-1.666,1.666-2.666c0.584,0.291,1.167,0.583,1.709,0.916C36.917,39.167,35.792,39.75,34.583,40.208z
					 M39.667,37.042C38.875,36.5,38,36,37.042,35.583c0.583-1.75,0.958-3.75,1.042-5.875h5.25
					C43.083,32.5,41.75,35.042,39.667,37.042z"/>
			</g>
		</g>
	</g>
</g>
</svg>
