<?xml version="1.0" encoding="utf-8"?>
<!-- Generator: Adobe Illustrator 16.0.0, SVG Export Plug-In . SVG Version: 6.00 Build 0)  -->
<!DOCTYPE svg PUBLIC "-//W3C//DTD SVG 1.1//EN" "http://www.w3.org/Graphics/SVG/1.1/DTD/svg11.dtd">
<svg version="1.1" id="Layer_1" xmlns="http://www.w3.org/2000/svg" xmlns:xlink="http://www.w3.org/1999/xlink" x="0px" y="0px"
	 width="57.417px" height="57.417px" viewBox="0 0 57.417 57.417" enable-background="new 0 0 57.417 57.417" xml:space="preserve">
<g>
	<path fill="#FFFFFF" d="M28.708,57.417C12.875,57.417,0,44.542,0,28.708C0,12.875,12.875,0,28.708,0
		c15.834,0,28.709,12.875,28.709,28.708C57.417,44.542,44.542,57.417,28.708,57.417z M28.708,0.292
		c-15.666,0-28.416,12.75-28.416,28.416c0,15.667,12.75,28.417,28.416,28.417c15.668,0,28.418-12.75,28.418-28.417
		C57.125,13.042,44.375,0.292,28.708,0.292z"/>
	<circle fill="#FFFFFF" cx="28.708" cy="28.708" r="23.958"/>
	<path fill="#16A1B9" d="M22.708,34.667c-1.791-1.792-4.75-1.792-6.541,0c-1.791,1.791-1.791,4.75,0,6.541
		c1.791,1.792,4.75,1.792,6.541,0C24.542,39.417,24.542,36.5,22.708,34.667z M35.833,21.542C31,16.708,24.292,14.25,17.417,14.833
		c-1.291,0.125-2.209,1.25-2.125,2.5c0.041,0.584,0.291,1.084,0.666,1.459c0.459,0.458,1.125,0.75,1.834,0.666
		c5.5-0.458,10.875,1.459,14.75,5.334s5.834,9.25,5.334,14.75c-0.043,0.708,0.207,1.375,0.666,1.833
		C38.917,41.75,39.417,42,40,42.042c1.291,0.125,2.416-0.834,2.5-2.125C43.125,33.125,40.667,26.417,35.833,21.542z M29.292,28.125
		c-2.916-2.917-6.959-4.375-11.041-4c-1.293,0.125-2.209,1.25-2.125,2.5c0.041,0.583,0.291,1.083,0.666,1.458
		c0.459,0.459,1.125,0.75,1.834,0.667c2.75-0.25,5.416,0.75,7.375,2.667c1.916,1.916,2.916,4.625,2.666,7.375
		c-0.041,0.708,0.209,1.375,0.666,1.833c0.375,0.375,0.875,0.625,1.459,0.667c1.291,0.125,2.416-0.834,2.5-2.125
		C33.667,35.042,32.167,31.042,29.292,28.125z"/>
</g>
</svg>
