<?xml version="1.0" encoding="utf-8"?>
<!-- Generator: Adobe Illustrator 16.0.0, SVG Export Plug-In . SVG Version: 6.00 Build 0)  -->
<!DOCTYPE svg PUBLIC "-//W3C//DTD SVG 1.1//EN" "http://www.w3.org/Graphics/SVG/1.1/DTD/svg11.dtd">
<svg version="1.1" id="Layer_1" xmlns="http://www.w3.org/2000/svg" xmlns:xlink="http://www.w3.org/1999/xlink" x="0px" y="0px"
	 width="342.5px" height="342.5px" viewBox="0 0 342.5 342.5" enable-background="new 0 0 342.5 342.5" xml:space="preserve">
<g>
	<path fill="#44508D" d="M171.25,342.5C77,342.5,0,265.75,0,171.25S76.75,0,171.25,0S342.5,76.75,342.5,171.25
		S265.75,342.5,171.25,342.5z M171.25,2.25C78,2.25,2,78.25,2,171.5s76,169.25,169.25,169.25s169.25-76,169.25-169.25
		S264.75,2.25,171.25,2.25z"/>
	<circle fill="#44508D" cx="171.25" cy="171.5" r="142.75"/>
	<g>
		<g>
			<path fill="#FFFFFF" d="M108.75,129.5c1.25,0.25,2.5,0.25,6-2.5c1.5-1.25,4-3.25,6.25-6.25l1-1.25c8.25-11,27.5-36.5,55.25-35.25
				c23,1.75,39.25,19,47,50c0.25,1,0.5,1.75,0.5,2.25c1.25,5,3.25,11.5,6,13.5c0.75,0.5,1.5,0.75,2.25,0.75
				c1.25,0,2.5-0.5,3.25-1.75c1.25-1.75,1-4.25-0.75-5.5c-0.75-1-2.25-5.25-3.25-9.25c0-0.25-0.25-0.5-0.25-0.75
				s-0.25-0.75-0.25-1.25c-1.25-5-4.5-18-12.5-30.25C209,86,194.75,77.5,177.5,76.25l0,0c-32-1.75-53.25,26.5-62.25,38.25l-1,1.25
				c-2.5,3.25-5.5,5.25-6.5,5.75c-0.25,0.25-0.75,0.25-1,0.5c-1.25,1-2,2.5-1.5,4.25C106,128,107.25,129.25,108.75,129.5z"/>
			<path fill="#FFFFFF" d="M210,145c3-7.75,3.25-15.5,0.25-21.75c-2.5-5.5-7.5-9.5-14-11.5c-9.75-3-21.5,2.5-32.25,14.75
				c-0.25,0.25-15.5,16.25-31.5,26c0,0-12,7.25-24.25,10.5c-2.25,0.5-3.5,2.75-2.75,5c0.5,2.25,2.75,3.5,5,2.75
				c13.25-3.75,25.75-11,26.25-11.25c17.5-10.75,33.25-27.5,33.5-27.75c6.5-7.5,16.25-14.75,23.75-12.25
				c4.5,1.25,7.5,3.75,9.25,7.25c2,4,1.75,9.5-0.5,15.25c-4,10.25-17,22.75-36.25,35c-9.75,6.25-33.75,21.25-51,28.75
				c-2,1-3,3.25-2.25,5.25c0.75,1.5,2.25,2.5,3.75,2.5c0.5,0,1,0,1.5-0.25c17.75-7.5,42.5-23,52.25-29.25
				C185.25,174.5,204,160.25,210,145z"/>
			<path fill="#FFFFFF" d="M144.75,114.75c-1.75,2-3.5,4.25-5.25,6.25c-2.25,2.75-4.75,5.25-7.5,7.75s-5,4.25-8.25,6
				c-3.5,2-7,4-10.5,5.75c-1.25,0.5-2.25,1-3.75,1.5c-2,0.75-3.5,2.75-2.75,5c0.5,2,2.75,3.5,5,2.75c4.25-1.25,8-3.5,11.75-5.5
				c3.25-1.75,6.25-3.5,9.25-5.5c5.75-4.25,10.5-9.25,15-14.75c1.75-2.25,3.75-4.25,5.75-6.5c1-1,2.25-2.25,3.5-3.25
				c0.5-0.5,1.25-1,1.75-1.5c0.25-0.25,0.75-0.5,1-0.75c0,0,0.75-0.5,0.75-0.75c2.75-2.25,5.75-4,9-5.75c3-1.5,6-2.5,9.5-3.25
				c1.25-0.25,1.5-0.25,2.25-0.25c2.25-0.25,4-1.75,4-4c0-2-1.75-4.25-4-4C167,95,154.5,104.25,144.75,114.75z"/>
			<path fill="#FFFFFF" d="M113.25,192.25c8.75-3,54-20,79.25-55.25c1.25-1.75,1-4.25-1-5.75c-1.75-1.25-4.25-1-5.75,1
				c-23.75,33.5-67,49.5-75.25,52.5c-0.25,0-0.25,0-0.25,0c-2,0.75-3.25,3.25-2.25,5.25c0.5,1.5,2.25,2.5,3.75,2.5
				C112.25,192.75,112.75,192.5,113.25,192.25L113.25,192.25z"/>
			<path fill="#FFFFFF" d="M223.5,216.5c-5.5-1.75-12.5-6.75-19-11.5c-9.5-6.75-18-12.75-24.75-11.5c-5,1-14,6.5-28,15.75
				c-10,6.75-21.5,14.25-26.5,15.5c-2.25,0.5-3.5,2.75-2.75,5c0.5,1.75,2,3,4,3c0.25,0,0.75,0,1-0.25c6.25-1.75,17.25-9,29-16.5
				c9.5-6.25,21.25-14,25-14.5c3.5-0.5,11.75,5.5,18.5,10.25c7.25,5,14.5,10.25,21.25,12.5c2,0.75,4.5-0.5,5-2.5
				C226.75,219.5,225.75,217.25,223.5,216.5z"/>
			<path fill="#FFFFFF" d="M213.5,236.25c-3.25-1.25-8.5-4.5-13.75-7.75C189,221.75,182,217.75,177,218.5s-15.5,8-33.25,21
				c-2.25,1.5-4,3-5.25,3.75c-1.75,1.25-2.25,3.75-1,5.75c0.75,1,2,1.75,3.25,1.75c0.75,0,1.5-0.25,2.25-0.75
				c1.25-1,3.25-2.25,5.5-4c7-5.25,25.75-18.75,29.75-19.5c2.5-0.25,11.75,5.5,17,8.75c5.75,3.5,11.25,7,15.25,8.25
				c2,0.75,4.5-0.25,5.25-2.5C216.5,239.25,215.5,237,213.5,236.25z"/>
			<path fill="#FFFFFF" d="M199.75,256.5c-2.25-1.5-4.25-3-6.5-4.5c-6.75-4.75-12.5-8.75-18.75-7.75c-7,1.25-18.25,12.5-20.5,14.75
				c-1.5,1.5-1.5,4.25,0,5.75c0.75,0.75,1.75,1.25,2.75,1.25s2-0.5,3-1.25c5.5-5.5,13.25-12,16-12.5c3-0.5,7.5,2.75,12.5,6.25
				c2,1.5,4.25,3,6.75,4.5c1.75,1.25,4.5,0.75,5.5-1.25C202.25,260.25,201.5,257.75,199.75,256.5z"/>
			<path fill="#FFFFFF" d="M235.25,172.75c-3.5-1.5-7-3-9.75-5.25c-3.25-2.5-4.5-6-5.25-10c-0.75-5.25-8.75-3-7.75,2.25
				c1.75,10.5,9.5,16.25,18.75,20c2,0.75,4.25,0.75,5.5-1.5C237.75,176.75,237.5,173.75,235.25,172.75z"/>
			<path fill="#FFFFFF" d="M227.5,194c-3-1-5.25-2-8.5-4c-6-3.5-11.25-8.5-14-15c-0.75-2-2.75-3.5-5-2.75c-2,0.5-3.75,3-2.75,5
				c4.75,12,16,21,28,24.75C230.25,203.25,232.5,195.5,227.5,194z"/>
		</g>
	</g>
</g>
</svg>
