<?xml version="1.0" encoding="utf-8"?>
<!-- Generator: Adobe Illustrator 16.0.0, SVG Export Plug-In . SVG Version: 6.00 Build 0)  -->
<!DOCTYPE svg PUBLIC "-//W3C//DTD SVG 1.1//EN" "http://www.w3.org/Graphics/SVG/1.1/DTD/svg11.dtd">
<svg version="1.1" id="Layer_1" xmlns="http://www.w3.org/2000/svg" xmlns:xlink="http://www.w3.org/1999/xlink" x="0px" y="0px"
	 width="57.543px" height="57.544px" viewBox="0 0 57.543 57.544" enable-background="new 0 0 57.543 57.544" xml:space="preserve">
<g>
	<path fill="#FFFFFF" d="M28.501,57.542c-15.875-0.166-28.625-13.166-28.5-29.041s13.166-28.625,29.041-28.5
		s28.625,13.166,28.5,29.041C57.376,44.917,44.376,57.709,28.501,57.542z M29.042,0.376C13.376,0.209,0.501,12.876,0.334,28.542
		C0.167,44.209,12.835,57.084,28.501,57.251c15.666,0.166,28.541-12.5,28.709-28.167C57.376,13.376,44.71,0.501,29.042,0.376z"/>
	<ellipse fill="#FFFFFF" cx="28.783" cy="28.775" rx="23.959" ry="23.959"/>
	<g>
		<g>
			<g>
				<path fill="#98381A" d="M18.542,17.334L18.542,17.334c-0.291,0-0.541,0.125-0.75,0.292c-0.207,0.208-0.332,0.458-0.332,0.75
					l-0.168,16c0,0.583,0.459,1.083,1.043,1.083c2.5,0.042,6.625,0.583,9.5,3.625l0.166-16.75c0-0.208-0.041-0.375-0.125-0.542
					C25.542,17.959,21.042,17.334,18.542,17.334z"/>
				<path fill="#98381A" d="M40.126,34.584l0.166-16c0-0.292-0.125-0.542-0.291-0.75c-0.209-0.208-0.459-0.333-0.75-0.333l0,0
					c-2.5,0-7.041,0.5-9.416,4.291c-0.084,0.167-0.168,0.334-0.168,0.542l-0.166,16.75c2.916-2.958,7.084-3.458,9.541-3.417
					C39.626,35.667,40.126,35.167,40.126,34.584z"/>
				<path fill="#98381A" d="M42.71,21.251h-0.793l-0.125,13.375c0,1.5-1.25,2.708-2.75,2.708c-2.125,0-5.582,0.375-8.082,2.667
					c4.25-1,8.75-0.292,11.291,0.333c0.334,0.083,0.666,0,0.916-0.208c0.25-0.209,0.418-0.5,0.418-0.834l0.166-16.958
					C43.751,21.709,43.292,21.251,42.71,21.251z"/>
				<path fill="#98381A" d="M15.667,34.376l0.125-13.375h-0.791c-0.584,0-1.084,0.458-1.084,1.041l-0.166,16.959
					c0,0.333,0.125,0.625,0.375,0.833s0.584,0.292,0.916,0.208c2.543-0.541,7.043-1.208,11.293-0.125
					c-2.459-2.333-5.918-2.791-8-2.833C16.835,37.084,15.626,35.834,15.667,34.376z"/>
			</g>
		</g>
	</g>
</g>
</svg>
