<?xml version="1.0" encoding="utf-8"?>
<!-- Generator: Adobe Illustrator 16.0.0, SVG Export Plug-In . SVG Version: 6.00 Build 0)  -->
<!DOCTYPE svg PUBLIC "-//W3C//DTD SVG 1.1//EN" "http://www.w3.org/Graphics/SVG/1.1/DTD/svg11.dtd">
<svg version="1.1" id="Layer_1" xmlns="http://www.w3.org/2000/svg" xmlns:xlink="http://www.w3.org/1999/xlink" x="0px" y="0px"
	 width="57.084px" height="57.083px" viewBox="0 0 57.084 57.083" enable-background="new 0 0 57.084 57.083" xml:space="preserve">
<g>
	<path fill="#25B2A8" d="M28.542,57.083C12.792,57.083,0,44.291,0,28.541S12.792,0,28.542,0s28.542,12.791,28.542,28.541
		C57.125,44.291,44.292,57.083,28.542,57.083z M28.542,0.291c-15.583,0-28.25,12.667-28.25,28.25c0,15.584,12.667,28.25,28.25,28.25
		s28.25-12.666,28.25-28.25C56.792,12.958,44.125,0.291,28.542,0.291z"/>
	<circle fill="#25B2A8" cx="28.542" cy="28.542" r="23.792"/>
	<path fill="#FFFFFF" d="M24.209,35.5c0.125,2.541,0.25,4.416,0.333,6.333c0,0.5,0,1-0.125,1.458c-0.125,0.5-0.333,1.042-1,1.125
		c-0.625,0.084-0.958-0.291-1.292-0.75c-0.75-1.125-1-2.416-1.416-3.666c-0.5-1.584-0.959-3.167-1.334-4.792
		c-0.458-2.125-0.75-4.208,0.5-6.25c1-1.625,0.292-3.208-0.25-4.792c-0.833-2.333-1.666-4.666-1.541-7.208
		c0.125-3.208,3.041-5.125,5.916-3.75c3.042,1.458,6,1.625,8.959,0c3.166-1.75,6.25,1.125,6.041,4.375
		c-0.166,2.583-0.958,4.958-1.875,7.333c-0.458,1.25-0.75,2.667-0.125,3.709c1.542,2.5,1.042,5,0.375,7.5
		c-0.625,2.374-1.291,4.791-2.25,7.083c-0.291,0.667-0.625,1.25-1.458,1.167c-0.958-0.084-0.958-0.875-1.042-1.542
		c-0.333-2.292,0.25-4.583,0.125-6.875c-0.083-1.458-0.041-2.917-0.5-4.333c-0.75-2.292-2.208-3.792-3.958-3.709
		C26.542,28,24.875,29.791,24.5,32C24.334,33.375,24.125,34.75,24.209,35.5z M35,14.083c-1.208-0.375-1.958-0.333-2.75,0.208
		c-1.791,1.25-3.708,1.625-5.791,0.75c-0.917-0.375-1.834-0.708-2.709-1.041c-1.458-0.5-2.791-0.084-3.208,1.083
		c-0.5,1.25,0.042,2.917,1.25,3.833c0.125-1.041-0.708-2.375,0.5-3.083c1.167-0.667,2.208,0.25,3.25,0.708
		c0.042,0,0.083,0.042,0.125,0.084c1.958,0.916,3.833,0.958,5.667-0.292C32.417,15.625,33.417,14.708,35,14.083z"/>
</g>
</svg>
