<?xml version="1.0" encoding="utf-8"?>
<!-- Generator: Adobe Illustrator 16.0.0, SVG Export Plug-In . SVG Version: 6.00 Build 0)  -->
<!DOCTYPE svg PUBLIC "-//W3C//DTD SVG 1.1//EN" "http://www.w3.org/Graphics/SVG/1.1/DTD/svg11.dtd">
<svg version="1.1" id="Layer_1" xmlns="http://www.w3.org/2000/svg" xmlns:xlink="http://www.w3.org/1999/xlink" x="0px" y="0px"
	 width="57.5px" height="57.5px" viewBox="0 0 57.5 57.5" enable-background="new 0 0 57.5 57.5" xml:space="preserve">
<g>
	<path fill="#FFFFFF" d="M28.75,57.5C12.917,57.5,0,44.625,0,28.75S12.875,0,28.75,0C44.583,0,57.5,12.875,57.5,28.75
		S44.583,57.5,28.75,57.5z M28.75,0.333c-15.668,0-28.417,12.75-28.417,28.417c0,15.666,12.749,28.416,28.417,28.416
		c15.666,0,28.416-12.75,28.416-28.416C57.167,13.083,44.417,0.333,28.75,0.333z"/>
	<circle fill="#FFFFFF" cx="28.75" cy="28.75" r="23.958"/>
	<g>
		<path fill="#F39634" d="M44.917,23.125L34.75,12.958c-0.5-0.5-1.293-0.5-1.793,0l-3.75,3.75L15.125,30.791l0,0l0,0l-0.293,0.292
			c-0.207,0.208-0.332,0.417-0.375,0.708l-1.791,11.917c-0.041,0.375,0.084,0.792,0.375,1.083c0.25,0.25,0.584,0.375,0.875,0.375
			c0.084,0,0.125,0,0.209,0l11.957-1.791c0.25-0.042,0.5-0.167,0.709-0.375l14.334-14.334l3.75-3.75
			C45.375,24.416,45.375,23.625,44.917,23.125z M26.167,40.041L24.5,38.375l12.291-12.292l1.666,1.667L26.167,40.041z M16,38.791
			l0.707-4.666l7,7l-4.666,0.708L16,38.791z M35,24.291L22.708,36.583l-1.416-1.417l12.291-12.291l0.709,0.708L35,24.291z
			 M30.083,19.416l1.668,1.667L19.458,33.375l-1.666-1.667L30.083,19.416z M40.25,25.958l-2.584-2.583l0,0l0,0l-1.625-1.625
			l-4.166-4.167l1.957-1.958L42.208,24L40.25,25.958z"/>
	</g>
</g>
</svg>
