<?xml version="1.0" encoding="utf-8"?>
<!-- Generator: Adobe Illustrator 16.0.0, SVG Export Plug-In . SVG Version: 6.00 Build 0)  -->
<!DOCTYPE svg PUBLIC "-//W3C//DTD SVG 1.1//EN" "http://www.w3.org/Graphics/SVG/1.1/DTD/svg11.dtd">
<svg version="1.1" id="Layer_1" xmlns="http://www.w3.org/2000/svg" xmlns:xlink="http://www.w3.org/1999/xlink" x="0px" y="0px"
	 width="58.334px" height="58.334px" viewBox="0 0 58.334 58.334" enable-background="new 0 0 58.334 58.334" xml:space="preserve">
<g>
	<path fill="#FFFFFF" d="M28.667,58.334c-15.875,0-28.75-12.918-28.75-28.75c0-15.834,12.916-28.75,28.75-28.75
		c15.833,0,28.75,12.917,28.75,28.75C57.417,45.416,44.542,58.334,28.667,58.334z M28.667,1.125C13,1.125,0.208,13.875,0.208,29.584
		c0,15.707,12.75,28.457,28.459,28.457c15.666,0,28.458-12.75,28.458-28.457C57.125,13.875,44.375,1.125,28.667,1.125z"/>
	<circle fill="#FFFFFF" cx="28.667" cy="29.584" r="24"/>
	<path fill="#1281BC" d="M30.083,28.666v1.25H32.5c0.625,0,1.125,0.5,1.125,1.125v1.5l2.25,0.793
		c0.292,0.082,0.458,0.416,0.333,0.707c-0.083,0.25-0.291,0.375-0.541,0.375c-0.042,0-0.125,0-0.167-0.041l-1.875-0.666v0.832
		c0,0.584-0.458,1.084-1.042,1.125l-2.5,0.209v1.25H32.5c0.625,0,1.125,0.5,1.125,1.125v1.5l2.25,0.791
		c0.292,0.084,0.458,0.418,0.333,0.709c-0.083,0.25-0.291,0.375-0.541,0.375c-0.042,0-0.125,0-0.167-0.041l-1.875-0.668v0.834
		c0,0.584-0.458,1.084-1.042,1.125l-3.791,0.291c-0.042,0-0.042,0-0.084,0c-0.041,0-0.041,0-0.083,0l-3.792-0.291
		c-0.583-0.041-1.041-0.541-1.041-1.125v-0.834l-1.875,0.668c-0.042,0.041-0.125,0.041-0.167,0.041c-0.25,0-0.458-0.125-0.542-0.375
		c-0.083-0.291,0.042-0.625,0.334-0.709l2.25-0.791v-1.5c0-0.625,0.5-1.125,1.125-1.125h2.416v-1.25l-2.5-0.209
		c-0.583-0.041-1.041-0.541-1.041-1.125v-0.832l-1.875,0.666c-0.042,0.041-0.125,0.041-0.167,0.041c-0.25,0-0.458-0.125-0.542-0.375
		c-0.083-0.291,0.042-0.625,0.334-0.707l2.25-0.793v-1.5c0-0.625,0.5-1.125,1.125-1.125h2.416v-1.25l-2.5-0.207
		c-0.583-0.043-1.041-0.543-1.041-1.125V26.5l-1.875,0.666c-0.042,0.043-0.125,0.043-0.167,0.043c-0.25,0-0.458-0.125-0.542-0.375
		c-0.083-0.293,0.042-0.625,0.334-0.709l2.25-0.791v-1.5c0-0.625,0.5-1.125,1.125-1.125h2.416v-1.25l-2.5-0.209
		c-0.583-0.041-1.041-0.541-1.041-1.125v-0.834l-1.875,0.668C21.875,20,21.792,20,21.75,20c-0.25,0-0.458-0.125-0.542-0.375
		c-0.083-0.291,0.042-0.625,0.334-0.709l2.25-0.791v-1.5c0-0.625,0.5-1.125,1.125-1.125h7.625c0.625,0,1.125,0.5,1.125,1.125v1.5
		l2.25,0.791c0.291,0.084,0.458,0.418,0.333,0.709C36.167,19.875,35.958,20,35.708,20c-0.041,0-0.125,0-0.166-0.041l-1.875-0.668
		v0.834c0,0.584-0.459,1.084-1.042,1.125l-2.5,0.209v1.25h2.417c0.625,0,1.125,0.5,1.125,1.125v1.5l2.25,0.791
		c0.291,0.084,0.458,0.416,0.333,0.709c-0.083,0.25-0.292,0.375-0.542,0.375c-0.041,0-0.125,0-0.166-0.043L33.667,26.5v0.834
		c0,0.582-0.459,1.082-1.042,1.125L30.083,28.666z"/>
</g>
</svg>
