<?xml version="1.0" encoding="utf-8"?>
<!-- Generator: Adobe Illustrator 16.0.0, SVG Export Plug-In . SVG Version: 6.00 Build 0)  -->
<!DOCTYPE svg PUBLIC "-//W3C//DTD SVG 1.1//EN" "http://www.w3.org/Graphics/SVG/1.1/DTD/svg11.dtd">
<svg version="1.1" id="Layer_1" xmlns="http://www.w3.org/2000/svg" xmlns:xlink="http://www.w3.org/1999/xlink" x="0px" y="0px"
	 width="57.667px" height="57.667px" viewBox="0 0 57.667 57.667" enable-background="new 0 0 57.667 57.667" xml:space="preserve">
<g>
	<path fill="#FFFFFF" d="M28.833,57.667C12.917,57.667,0,44.709,0,28.834C0,12.958,12.958,0,28.833,0
		C44.75,0,57.667,12.958,57.667,28.834C57.667,44.709,44.75,57.667,28.833,57.667z M28.833,0.292
		c-15.75,0-28.541,12.792-28.541,28.542c0,15.75,12.791,28.541,28.541,28.541s28.542-12.791,28.542-28.541
		C57.375,13.083,44.542,0.292,28.833,0.292z"/>
	<circle fill="#FFFFFF" cx="28.833" cy="28.833" r="24.042"/>
	<g transform="translate(-1)">
		<g>
			<g>
				<path fill="#135D72" d="M46.417,19.125l-0.084-0.083c-0.791-0.792-2.083-0.792-2.875,0l-3.083,3.125
					c-0.166,0.167-0.417,0.167-0.583,0l-4.333-4c-0.417-0.375-0.959-0.583-1.542-0.583h-6.458c-0.167,0-0.292,0.041-0.417,0.166
					l-5.458,5.209c-0.792,0.791-0.875,2.083-0.125,2.875c0.374,0.416,0.916,0.666,1.5,0.666l0,0c0.583,0,1.125-0.25,1.5-0.666
					l3.875-4.084h1.375l-9,10.084h-5.542c-1.333,0-2.417,1-2.458,2.25c-0.042,0.666,0.208,1.291,0.666,1.75
					c0.459,0.458,1.084,0.75,1.709,0.75h8.291c0.167,0,0.334-0.084,0.417-0.209l4.25-4.541l3.583,3.75L30.542,42.5
					c-0.292,1.125,0.292,2.292,1.292,2.75c0.333,0.125,0.666,0.209,1,0.209c0.375,0,0.708-0.084,1.041-0.25
					c0.625-0.334,1.084-0.875,1.25-1.625l1.834-9.875c0.041-0.209-0.042-0.375-0.167-0.542l-4.917-4.917l3.917-3.916l2.708,2.708
					c0.75,0.75,2.083,0.75,2.834,0l5.125-5.125c0.374-0.375,0.583-0.875,0.583-1.417C47.042,20,46.833,19.5,46.417,19.125z"/>
				<path fill="#135D72" d="M39.917,19.334c1.958,0,3.541-1.584,3.541-3.542c0-1.958-1.583-3.542-3.541-3.542
					c-1.959,0-3.542,1.583-3.542,3.542C36.375,17.75,37.958,19.334,39.917,19.334z"/>
			</g>
		</g>
	</g>
</g>
</svg>
