<?xml version="1.0" encoding="utf-8"?>
<!-- Generator: Adobe Illustrator 16.0.0, SVG Export Plug-In . SVG Version: 6.00 Build 0)  -->
<!DOCTYPE svg PUBLIC "-//W3C//DTD SVG 1.1//EN" "http://www.w3.org/Graphics/SVG/1.1/DTD/svg11.dtd">
<svg version="1.1" id="Layer_1" xmlns="http://www.w3.org/2000/svg" xmlns:xlink="http://www.w3.org/1999/xlink" x="0px" y="0px"
	 width="57.75px" height="57.75px" viewBox="0 0 57.75 57.75" enable-background="new 0 0 57.75 57.75" xml:space="preserve">
<g>
	<path fill="#FFFFFF" d="M28.875,57.75C12.958,57.75,0,44.791,0,28.875C0,12.958,12.958,0,28.875,0
		C44.791,0,57.75,12.958,57.75,28.875C57.75,44.791,44.791,57.75,28.875,57.75z M28.875,0.333c-15.75,0-28.542,12.792-28.542,28.542
		s12.792,28.541,28.542,28.541s28.541-12.791,28.541-28.541C57.416,13.166,44.625,0.333,28.875,0.333z"/>
	<circle fill="#FFFFFF" cx="28.875" cy="28.875" r="24.042"/>
	<g>
		<path fill="#068269" d="M43,21.458c-4.584-7.542-11.5-2.292-11.5-2.292c-0.459,0.334-1.292,0.625-1.834,0.625h-1.833
			c-0.542,0-1.375-0.291-1.833-0.625c0,0-6.917-5.25-11.5,2.292c-4.584,7.542-2.75,15.75-2.75,15.75
			c0.333,2,1.375,3.333,3.416,3.167c2-0.167,6.375-5.417,6.375-5.417c0.375-0.417,1.125-0.792,1.667-0.792h11.083
			c0.542,0,1.334,0.334,1.667,0.792c0,0,4.375,5.25,6.375,5.417c2,0.166,3.083-1.167,3.417-3.167C45.708,37.208,47.583,29,43,21.458
			z M24.583,27.583h-2.375v2.292c0,0-0.5,0.375-1.292,0.375c-0.791,0-1.125-0.417-1.125-0.417v-2.25h-2.25
			c0,0-0.291-0.292-0.375-1.042c-0.083-0.75,0.292-1.375,0.292-1.375h2.375v-2.375c0,0,0.5-0.25,1.208-0.25
			c0.709,0.042,1.209,0.292,1.209,0.292v2.333h2.25c0,0,0.375,0.5,0.416,1.125C24.958,26.916,24.583,27.583,24.583,27.583z
			 M35.458,30.208c-1.042,0-1.875-0.833-1.875-1.875s0.833-1.875,1.875-1.875s1.875,0.833,1.875,1.875
			C37.375,29.375,36.5,30.208,35.458,30.208z M35.458,25.041c-1.042,0-1.875-0.833-1.875-1.875c0-1.041,0.833-1.875,1.875-1.875
			s1.875,0.834,1.875,1.875C37.375,24.166,36.5,25.041,35.458,25.041z M40.166,27.791c-1.041,0-1.875-0.833-1.875-1.875
			c0-1.041,0.834-1.875,1.875-1.875c1.042,0,1.875,0.834,1.875,1.875C42.041,26.958,41.208,27.791,40.166,27.791z"/>
	</g>
</g>
</svg>
