<?xml version="1.0" encoding="utf-8"?>
<!-- Generator: Adobe Illustrator 16.0.0, SVG Export Plug-In . SVG Version: 6.00 Build 0)  -->
<!DOCTYPE svg PUBLIC "-//W3C//DTD SVG 1.1//EN" "http://www.w3.org/Graphics/SVG/1.1/DTD/svg11.dtd">
<svg version="1.1" id="Layer_1" xmlns="http://www.w3.org/2000/svg" xmlns:xlink="http://www.w3.org/1999/xlink" x="0px" y="0px"
	 width="57.583px" height="57.584px" viewBox="0 0 57.583 57.584" enable-background="new 0 0 57.583 57.584" xml:space="preserve">
<g>
	<path fill="#FFFFFF" d="M28.791,57.584C12.916,57.584,0,44.666,0,28.791C0,12.917,12.916,0,28.791,0s28.792,12.917,28.792,28.791
		C57.583,44.666,44.666,57.584,28.791,57.584z M28.791,0.292c-15.708,0-28.5,12.792-28.5,28.5c0,15.709,12.792,28.5,28.5,28.5
		c15.709,0,28.5-12.791,28.5-28.5C57.291,13.083,44.5,0.292,28.791,0.292z"/>
	<circle fill="#FFFFFF" cx="28.791" cy="28.791" r="24"/>
	<path fill="#F0832B" d="M44.875,20.75l-0.125-0.125c-1.042-1.166-2.459-1.791-3.959-1.791s-2.916,0.625-3.958,1.791l-1,1.125
		l-1-1.125c-1.042-1.166-2.458-1.791-3.958-1.791s-2.917,0.625-3.959,1.791l-0.125,0.125c-0.666,0.75-1.125,1.625-1.375,2.625
		l-5.875-7.583l-6.625,8.583c-1.416,1.834-2,4.084-1.666,6.375c0.333,2.291,1.541,4.291,3.458,5.625
		c1.25,0.875,2.667,1.375,4.125,1.5v3.834h1.542v-3.834c1.458-0.125,2.875-0.625,4.125-1.5c1.875-1.334,3.125-3.334,3.458-5.625
		c0-0.084,0.042-0.166,0.042-0.291l7.458,8.041c0.125,0.166,0.333,0.25,0.542,0.25c0.208,0,0.375-0.084,0.541-0.25l8.542-9.209l0,0
		c1.042-1.166,1.625-2.666,1.625-4.291C46.458,23.416,45.916,21.916,44.875,20.75z M26.291,30.541
		C26,32.416,25,34.041,23.458,35.166c-0.958,0.709-2.083,1.084-3.25,1.25V33.5l5-2.834l-0.75-1.332l-4.25,2.416v-3.041l2.75-1.543
		l-0.75-1.332l-1.958,1.125V23h-1.542v3.959l-1.958-1.125L16,27.166l2.75,1.543v3.041l-4.25-2.416l-0.75,1.332l5,2.834v2.916
		c-1.125-0.125-2.25-0.541-3.25-1.25c-1.542-1.082-2.542-2.75-2.834-4.625c-0.291-1.875,0.209-3.75,1.375-5.207l5.459-7l5.458,7
		c0.083,0.125,0.167,0.207,0.25,0.332c0.125,1.168,0.5,2.25,1.167,3.125C26.416,29.375,26.375,29.959,26.291,30.541z M43.791,28.334
		l-8,8.625l-8-8.625l0,0c-0.166-1.168-0.583-2.293-1.208-3.293c0-1.207,0.417-2.375,1.25-3.291l0.125-0.125
		c0.792-0.875,1.792-1.334,2.875-1.334s2.125,0.459,2.875,1.334l1.542,1.709c0.125,0.166,0.333,0.25,0.541,0.25
		c0.209,0,0.417-0.084,0.542-0.25l1.542-1.709c0.791-0.875,1.791-1.334,2.875-1.334c1.083,0,2.125,0.459,2.875,1.334l0.125,0.125
		C45.458,23.541,45.458,26.541,43.791,28.334z"/>
</g>
</svg>
