<?xml version="1.0" encoding="utf-8"?>
<!-- Generator: Adobe Illustrator 16.0.0, SVG Export Plug-In . SVG Version: 6.00 Build 0)  -->
<!DOCTYPE svg PUBLIC "-//W3C//DTD SVG 1.1//EN" "http://www.w3.org/Graphics/SVG/1.1/DTD/svg11.dtd">
<svg version="1.1" id="Layer_1" xmlns="http://www.w3.org/2000/svg" xmlns:xlink="http://www.w3.org/1999/xlink" x="0px" y="0px"
	 width="58.334px" height="58.334px" viewBox="0 0 58.334 58.334" enable-background="new 0 0 58.334 58.334" xml:space="preserve">
<g>
	<path fill="#FFFFFF" d="M29.166,58.334C13.084,58.334,0,45.25,0,29.167C0,13.083,13.084,0,29.166,0
		C45.25,0,58.334,13.083,58.334,29.167C58.334,45.25,45.209,58.334,29.166,58.334z M29.166,0.375
		c-15.875,0-28.833,12.917-28.833,28.834c0,15.916,12.917,28.833,28.833,28.833C45.084,58.042,58,45.125,58,29.209
		C58,13.292,45.041,0.375,29.166,0.375z"/>
	<circle fill="#FFFFFF" cx="29.166" cy="29.167" r="24.292"/>
	<path fill="#25B2A8" d="M24.709,36.292c0.125,2.583,0.25,4.542,0.332,6.458c0,0.5,0,1-0.125,1.5s-0.332,1.084-1.041,1.125
		c-0.625,0.084-1-0.291-1.291-0.791c-0.75-1.167-1.043-2.459-1.459-3.75c-0.541-1.584-1-3.25-1.375-4.875
		c-0.459-2.167-0.75-4.292,0.5-6.375c1-1.625,0.291-3.292-0.25-4.875c-0.834-2.375-1.709-4.75-1.584-7.375
		c0.125-3.292,3.125-5.25,6.043-3.833c3.082,1.5,6.125,1.667,9.166,0c3.25-1.792,6.375,1.125,6.166,4.459
		c-0.166,2.625-1,5.041-1.916,7.5c-0.459,1.25-0.75,2.75-0.125,3.791c1.584,2.542,1.084,5.084,0.375,7.667
		c-0.666,2.458-1.291,4.917-2.291,7.25c-0.293,0.667-0.625,1.25-1.5,1.208c-1-0.083-0.959-0.875-1.043-1.541
		c-0.332-2.334,0.25-4.667,0.168-7c-0.084-1.5-0.043-2.959-0.5-4.417c-0.75-2.375-2.25-3.875-4.043-3.792
		c-1.791,0.084-3.5,1.917-3.875,4.167C24.875,34.125,24.625,35.542,24.709,36.292z M35.709,14.458c-1.209-0.375-2-0.333-2.793,0.208
		c-1.832,1.25-3.791,1.667-5.916,0.792c-0.916-0.375-1.834-0.708-2.791-1.042c-1.5-0.542-2.834-0.083-3.293,1.083
		c-0.5,1.292,0.043,2.959,1.293,3.875c0.125-1.083-0.75-2.417,0.5-3.167c1.207-0.708,2.25,0.25,3.332,0.75
		c0.043,0,0.084,0.042,0.125,0.083c2,0.917,3.875,1,5.793-0.292C33.084,16,34.084,15.042,35.709,14.458z"/>
</g>
</svg>
