<?xml version="1.0" encoding="utf-8"?>
<!-- Generator: Adobe Illustrator 16.0.0, SVG Export Plug-In . SVG Version: 6.00 Build 0)  -->
<!DOCTYPE svg PUBLIC "-//W3C//DTD SVG 1.1//EN" "http://www.w3.org/Graphics/SVG/1.1/DTD/svg11.dtd">
<svg version="1.1" id="Layer_1" xmlns="http://www.w3.org/2000/svg" xmlns:xlink="http://www.w3.org/1999/xlink" x="0px" y="0px"
	 width="57.583px" height="57.584px" viewBox="0 0 57.583 57.584" enable-background="new 0 0 57.583 57.584" xml:space="preserve">
<g>
	<path fill="#FFFFFF" d="M28.791,57.584C12.916,57.584,0,44.667,0,28.792S12.916,0,28.791,0s28.793,12.917,28.793,28.792
		S44.666,57.584,28.791,57.584z M28.791,0.334c-15.707,0-28.458,12.791-28.458,28.458c0,15.708,12.792,28.458,28.458,28.458
		c15.709,0,28.459-12.791,28.459-28.458C57.25,13.084,44.5,0.334,28.791,0.334z"/>
	<circle fill="#FFFFFF" cx="28.791" cy="28.792" r="24"/>
	<g>
		<g>
			<g>
				<path fill="#875430" d="M28.791,12.667c-3.082,0-5.625,2.583-5.625,5.667c0,3.083,2.5,5.625,5.625,5.625s5.625-2.5,5.625-5.625
					S31.916,12.667,28.791,12.667z"/>
			</g>
		</g>
		<g>
			<g>
				<path fill="#875430" d="M30.666,23.959h-1.875h-1.875c-1.332,0-2.582,0.333-3.75,0.916c1.959,0.542,3.834,1.292,5.625,2.334
					c1.793-1.042,3.668-1.792,5.625-2.334C33.25,24.292,32,23.959,30.666,23.959z"/>
			</g>
		</g>
		<g>
			<g>
				<path fill="#875430" d="M42.916,29.584c-1.041,0-1.875,0.833-1.875,1.875v3.75c0,1.041,0.834,1.875,1.875,1.875
					c1.043,0,1.875-0.834,1.875-1.875v-3.75C44.75,30.417,43.916,29.584,42.916,29.584z"/>
			</g>
		</g>
		<g>
			<g>
				<path fill="#875430" d="M14.708,29.584c-1.043,0-1.875,0.833-1.875,1.875v3.75c0,1.041,0.832,1.875,1.875,1.875
					c1.041,0,1.875-0.834,1.875-1.875v-3.75C16.583,30.417,15.75,29.584,14.708,29.584z"/>
			</g>
		</g>
		<g>
			<g>
				<path fill="#875430" d="M15.666,25.834c-0.5,0-0.916,0.416-0.916,0.916v0.917c2.084,0,3.75,1.667,3.75,3.75v3.75
					c0,2.083-1.666,3.75-3.75,3.75v0.917c0,0.5,0.416,0.916,0.916,0.916c4.793,0,8.625,1.5,12.209,3.792v-15.75
					C24.25,26.792,20.375,25.834,15.666,25.834z"/>
			</g>
		</g>
		<g>
			<g>
				<path fill="#875430" d="M42.916,27.709v-0.917c0-0.5-0.416-0.917-0.916-0.917c-4.75,0-8.625,0.959-12.209,3.042v15.75
					c3.584-2.292,7.418-3.792,12.209-3.792c0.5,0,0.916-0.416,0.916-0.916v-0.917c-2.082,0-3.75-1.667-3.75-3.75v-3.75
					C39.166,29.375,40.833,27.709,42.916,27.709z"/>
			</g>
		</g>
	</g>
</g>
</svg>
