<?xml version="1.0" encoding="utf-8"?>
<!-- Generator: Adobe Illustrator 16.0.0, SVG Export Plug-In . SVG Version: 6.00 Build 0)  -->
<!DOCTYPE svg PUBLIC "-//W3C//DTD SVG 1.1//EN" "http://www.w3.org/Graphics/SVG/1.1/DTD/svg11.dtd">
<svg version="1.1" id="Layer_1" xmlns="http://www.w3.org/2000/svg" xmlns:xlink="http://www.w3.org/1999/xlink" x="0px" y="0px"
	 width="57.5px" height="57.5px" viewBox="0 0 57.5 57.5" enable-background="new 0 0 57.5 57.5" xml:space="preserve">
<g>
	<path fill="#FFFFFF" d="M28.75,57.5C12.917,57.5,0,44.583,0,28.75C0,12.917,12.917,0,28.75,0S57.5,12.917,57.5,28.75
		C57.5,44.583,44.625,57.5,28.75,57.5z M28.75,0.333c-15.667,0-28.417,12.75-28.417,28.417c0,15.666,12.75,28.416,28.417,28.416
		s28.417-12.75,28.417-28.416C57.167,13.083,44.417,0.333,28.75,0.333z"/>
	<circle fill="#FFFFFF" cx="28.75" cy="28.75" r="23.958"/>
	<g>
		<g>
			<path fill="#889659" d="M32.292,34.958c-1.042,0.334-2.125,0.5-3.209,0.5c-2.75,0-5.333-1.082-7.291-3
				c-1.959-1.957-3-4.541-3-7.291s1.083-5.334,3-7.291c1.958-1.959,4.541-3,7.291-3c1.334,0,2.625,0.25,3.875,0.75
				c1.292,0.5,2.417,1.292,3.417,2.25c1.75,1.75,2.833,4.125,3,6.582c0.125,1.918-0.292,3.793-1.125,5.459l1.417,1.416
				c1.125-1.832,1.791-4.041,1.791-6.375c0-6.75-5.458-12.208-12.208-12.208c-1.875,0-3.625,0.417-5.208,1.167
				c-4.167,1.958-7.084,6.166-7.084,11.084l0,0v1.625V27l-2.5,4.75c-0.625,1.207-0.041,2.166,1.334,2.166h1.166v0.041v2.084v2.416
				c0,1.418,1.167,2.584,2.584,2.584l3.541-0.541v3.541v0.041l0,0c0,0.459,0.417,0.75,0.875,0.668l12.709-2.25
				c0.458-0.084,0.875-0.543,0.875-1.043v-0.541v-0.459V38l-3.625-3.625C33.333,34.583,32.833,34.792,32.292,34.958z"/>
			<path fill="#889659" d="M42.833,36.5l-5.958-5.959l-0.333,0.334l-0.334-0.334c2.625-3.5,2.334-8.459-0.833-11.666
				c-3.5-3.5-9.125-3.5-12.625,0c-3.5,3.5-3.5,9.125,0,12.625c3.167,3.166,8.167,3.457,11.667,0.832l0.333,0.334L34.417,33
				l5.958,5.957c0.667,0.668,1.75,0.668,2.458,0C43.5,38.25,43.5,37.167,42.833,36.5z M33.917,30.042c-2.667,2.666-7,2.666-9.709,0
				c-2.666-2.666-2.666-7,0-9.709c2.667-2.666,7-2.666,9.709,0C36.583,23,36.583,27.375,33.917,30.042z"/>
			<circle fill="#889659" cx="29.083" cy="25.167" r="1.125"/>
			<circle fill="#889659" cx="32.542" cy="25.167" r="1.125"/>
			<circle fill="#889659" cx="25.625" cy="25.167" r="1.125"/>
		</g>
	</g>
</g>
</svg>
