<?xml version="1.0" encoding="utf-8"?>
<!-- Generator: Adobe Illustrator 16.0.0, SVG Export Plug-In . SVG Version: 6.00 Build 0)  -->
<!DOCTYPE svg PUBLIC "-//W3C//DTD SVG 1.1//EN" "http://www.w3.org/Graphics/SVG/1.1/DTD/svg11.dtd">
<svg version="1.1" id="Layer_1" xmlns="http://www.w3.org/2000/svg" xmlns:xlink="http://www.w3.org/1999/xlink" x="0px" y="0px"
	 width="57.25px" height="57.25px" viewBox="0 0 57.25 57.25" enable-background="new 0 0 57.25 57.25" xml:space="preserve">
<g>
	<path fill="#FFFFFF" d="M28.625,57.25C12.834,57.25,0,44.417,0,28.625S12.834,0,28.625,0C44.417,0,57.25,12.833,57.25,28.625
		S44.417,57.25,28.625,57.25z M28.625,0.333C13,0.333,0.334,13.042,0.334,28.625c0,15.625,12.708,28.292,28.291,28.292
		c15.625,0,28.292-12.709,28.292-28.292C56.917,13,44.209,0.333,28.625,0.333z"/>
	<circle fill="#FFFFFF" cx="28.625" cy="28.625" r="23.875"/>
	<g>
		<g>
			<g>
				<path fill="#E62865" d="M18.584,40.042L18.584,40.042c-0.375-0.292-0.709-0.584-1-0.917c-0.209-0.208-0.5-0.208-0.709,0
					c-0.208,0.208-0.208,0.5,0,0.708c0.334,0.334,0.667,0.625,1.042,0.917c0.208,0.167,0.5,0.167,0.708-0.042
					C18.834,40.542,18.792,40.208,18.584,40.042z"/>
			</g>
		</g>
		<g>
			<g>
				<path fill="#E62865" d="M13.417,25.333c-0.25-0.083-0.542,0.042-0.625,0.292c0,0.042-0.042,0.083-0.042,0.125
					c-0.083,0.458-0.166,0.917-0.25,1.375c-0.041,0.25,0.167,0.5,0.417,0.542H13c0.25,0,0.459-0.167,0.5-0.417
					c0.042-0.417,0.125-0.875,0.209-1.292C13.792,25.708,13.667,25.417,13.417,25.333z"/>
			</g>
		</g>
		<g>
			<g>
				<path fill="#E62865" d="M16.125,37.417c-0.25-0.334-0.5-0.709-0.708-1.084c-0.125-0.25-0.458-0.333-0.667-0.166l0,0
					c-0.25,0.125-0.333,0.458-0.166,0.666l0,0c0.25,0.417,0.5,0.792,0.75,1.167c0.166,0.208,0.5,0.25,0.708,0.083
					C16.25,37.917,16.292,37.625,16.125,37.417z"/>
			</g>
		</g>
		<g>
			<g>
				<path fill="#E62865" d="M14.417,34.292c-0.167-0.417-0.292-0.834-0.417-1.25c-0.083-0.25-0.333-0.417-0.625-0.334l0,0
					c-0.25,0.084-0.416,0.334-0.333,0.625c0.125,0.459,0.292,0.875,0.458,1.334c0.084,0.25,0.375,0.375,0.667,0.291
					C14.375,34.833,14.5,34.542,14.417,34.292z"/>
			</g>
		</g>
		<g>
			<g>
				<path fill="#E62865" d="M14.709,21.958c-0.25-0.125-0.542-0.041-0.667,0.209c-0.208,0.416-0.417,0.833-0.583,1.291
					C13.375,23.708,13.5,24,13.75,24.083c0.25,0.084,0.542-0.041,0.625-0.291l0,0c0.167-0.417,0.334-0.792,0.542-1.167
					C15.042,22.375,14.959,22.083,14.709,21.958z"/>
			</g>
		</g>
		<g>
			<g>
				<path fill="#E62865" d="M13.5,30.833L13.5,30.833c-0.041-0.416-0.083-0.875-0.125-1.291c0-0.292-0.25-0.5-0.5-0.459
					c-0.291,0-0.5,0.25-0.458,0.5c0,0.459,0.042,0.917,0.125,1.375c0.042,0.25,0.25,0.417,0.458,0.417h0.084
					C13.334,31.375,13.542,31.125,13.5,30.833z"/>
			</g>
		</g>
		<g>
			<g>
				<path fill="#E62865" d="M26.667,14.292c-0.042-0.292-0.25-0.459-0.542-0.459c-0.458,0.042-0.916,0.125-1.375,0.209
					c-0.291,0.041-0.458,0.25-0.458,0.541c0.042,0.292,0.25,0.459,0.542,0.459l0,0h0.083c0.417-0.084,0.875-0.125,1.292-0.209
					C26.5,14.833,26.667,14.583,26.667,14.292z"/>
			</g>
		</g>
		<g>
			<g>
				<path fill="#E62865" d="M16.834,18.958c-0.209-0.166-0.542-0.166-0.709,0.042c-0.291,0.333-0.583,0.708-0.875,1.083
					c-0.166,0.209-0.125,0.542,0.125,0.709c0.084,0.041,0.167,0.083,0.292,0.083l0,0c0.167,0,0.292-0.083,0.417-0.208
					c0.25-0.334,0.541-0.709,0.791-1C17.084,19.458,17.042,19.125,16.834,18.958z"/>
			</g>
		</g>
		<g>
			<g>
				<path fill="#E62865" d="M29.917,13.958c-0.458-0.083-0.917-0.125-1.375-0.125c-0.292,0-0.5,0.209-0.542,0.459
					c0,0.291,0.209,0.5,0.459,0.541c0.416,0.042,0.875,0.084,1.291,0.125h0.084c0.291,0,0.499-0.166,0.541-0.458
					S30.209,13.958,29.917,13.958z"/>
			</g>
		</g>
		<g>
			<g>
				<path fill="#E62865" d="M19.667,16.583c-0.167-0.208-0.458-0.25-0.667-0.125c-0.375,0.25-0.75,0.542-1.125,0.834
					c-0.208,0.166-0.25,0.5-0.083,0.708s0.5,0.25,0.708,0.083c0.334-0.291,0.667-0.541,1.042-0.791
					C19.792,17.125,19.834,16.792,19.667,16.583z"/>
			</g>
		</g>
		<g>
			<g>
				<g>
					<path fill="#E62865" d="M21.334,16.208L21.334,16.208L21.334,16.208L21.334,16.208z"/>
					<path fill="#E62865" d="M23.084,15.042c-0.084-0.25-0.334-0.417-0.625-0.334c-0.042,0-0.042,0-0.084,0.042
						c-0.416,0.167-0.875,0.333-1.291,0.542c-0.25,0.125-0.375,0.416-0.25,0.666c0.083,0.167,0.25,0.292,0.458,0.292
						c0.083,0,0.125,0,0.208-0.042c0.375-0.166,0.792-0.333,1.209-0.5C23,15.583,23.167,15.292,23.084,15.042z"/>
				</g>
			</g>
		</g>
		<g>
			<g>
				<path fill="#E62865" d="M29.084,43.708c0-0.291-0.25-0.5-0.542-0.458c-0.417,0.042-0.875,0.042-1.292,0.042
					c-0.291,0-0.5,0.208-0.5,0.5c0,0.291,0.209,0.5,0.5,0.5h0.417c0.333,0,0.667,0,0.958-0.042
					C28.875,44.208,29.084,43.958,29.084,43.708z"/>
			</g>
		</g>
		<g>
			<g>
				<path fill="#E62865" d="M42.042,32.208c-0.25-0.083-0.542,0.084-0.583,0.375c-0.125,0.417-0.25,0.834-0.375,1.25
					c-0.084,0.25,0.041,0.542,0.291,0.625c0.25,0.084,0.542-0.041,0.625-0.291l0,0c0.167-0.417,0.292-0.875,0.417-1.334
					C42.459,32.542,42.292,32.292,42.042,32.208z"/>
			</g>
		</g>
		<g>
			<g>
				<path fill="#E62865" d="M42.667,26.542c-0.083-0.459-0.167-0.917-0.292-1.375c-0.083-0.25-0.375-0.417-0.625-0.334
					c-0.25,0.084-0.416,0.334-0.333,0.584c0.125,0.416,0.208,0.833,0.292,1.291c0.041,0.25,0.25,0.417,0.5,0.417h0.083
					C42.542,27.083,42.709,26.792,42.667,26.542z"/>
			</g>
		</g>
		<g>
			<g>
				<path fill="#E62865" d="M44.792,20.833c-0.042-0.041-0.042-0.083-0.083-0.125l-0.875-0.916
					c-0.125-0.125-0.292-0.167-0.459-0.125l-1.583,0.458l-1.833-1.958l4.166-2.334c0.25-0.125,0.334-0.416,0.25-0.625
					c-0.041-0.041-0.041-0.083-0.083-0.125l-1.167-1.166c-0.125-0.125-0.291-0.167-0.458-0.125l-5.25,1.583L35.625,13.5
					c-0.458-0.542-1.166-0.708-1.833-0.417H33.75c-0.5,0.209-0.875,0.584-1.041,1.042c-0.042,0.125-0.084,0.25-0.125,0.375
					l-0.209-0.083c-0.25-0.084-0.541,0.041-0.625,0.333c-0.083,0.25,0.042,0.542,0.334,0.625c0.25,0.083,0.5,0.167,0.75,0.292
					c0.083,0.125,0.166,0.25,0.25,0.333l1.875,1.792l-0.542,1.75c-5.25-3.75-12.5-2.5-16.25,2.708c-3.75,5.25-2.5,12.5,2.708,16.25
					c5.25,3.75,12.5,2.5,16.25-2.708C40.084,31.625,40,26,36.875,21.917l0.834-1.542l1.958,1.833l-0.458,1.584
					c-0.042,0.166,0,0.375,0.125,0.5c0,0,0.958,0.958,1,1c0.208,0.125,0.541,0.041,0.666-0.167l0,0l1.292-2.375l2.333-1.292
					C44.792,21.375,44.875,21.083,44.792,20.833z M20.125,21.5c2-2,4.709-3.125,7.5-3.125c0.209,0,0.459,0,0.667,0
					c1.875,1.708,1.333,3.292,0.083,4.708c-0.75,0.792-1.541,1.5-2.375,2.209c-1.208,1.041-2.375,2-2.791,2.958
					c-0.5,1.167-0.125,2.208,1.916,3.083c1.042,0.459,1.584,0.792,1.792,1.084l0,0c0,0,0,0-0.042,0
					c-0.5,0.208-1.041,0.291-1.541,0.25c-2.5,0.125-4.25-1.5-5.625-2.709c-1-0.875-1.834-1.625-2.667-1.625
					C17.167,25.833,18.25,23.333,20.125,21.5z M38.292,29.042L38.292,29.042c0,4.625-2.958,8.708-7.333,10.125
					c-0.125-0.792,0-1.584,0.416-2.25c0.542-0.834,1.209-1.584,2-2.167c3.042-2.542,3.209-3.958,3.334-5.042
					c0.083-0.708,0.125-1.208,1.5-1.958C38.25,28.167,38.292,28.583,38.292,29.042z M37.667,25.458
					c0.167,0.417,0.25,0.834,0.375,1.292c-2.083,1.042-2.167,1.792-2.292,2.833c-0.125,0.917-0.25,2.125-3,4.417
					c-0.875,0.667-1.625,1.5-2.208,2.458c-0.5,0.875-0.667,1.959-0.5,2.959c-5.75,1.291-11.458-2.292-12.75-8
					c-0.167-0.667-0.25-1.334-0.25-2c0.542,0,1.208,0.625,2.042,1.375c1.5,1.333,3.458,3.083,6.333,2.958
					c0.667,0,1.375-0.125,2-0.375c0.25-0.125,0.458-0.333,0.542-0.625c0.083-0.292,0-0.625-0.25-0.875
					c-0.292-0.375-1-0.833-2.167-1.333c-1.417-0.625-1.708-1.209-1.417-1.834c0.334-0.791,1.375-1.666,2.542-2.625
					c0.875-0.708,1.708-1.5,2.5-2.333c1.375-1.583,2.083-3.292,0.667-5.167c1.541,0.334,3.041,1,4.291,1.959l-0.75,2.5
					c-0.041,0.166,0,0.375,0.125,0.5c0,0,1.25,1.208,1.292,1.25c0.208,0.125,0.542,0.041,0.667-0.167l0,0l0.958-1.75
					C36.875,23.667,37.334,24.542,37.667,25.458z M42.084,21.75l-0.417,0.208C41.584,22,41.5,22.083,41.459,22.167l-0.209,0.416
					l-0.833,1.5l-0.25-0.25l0.458-1.583c0.042-0.167,0-0.375-0.166-0.5l-2.625-2.458c-0.209-0.167-0.5-0.167-0.667,0l0,0
					c-0.042,0.041-2.375,4.25-2.375,4.25l-0.5-0.5l1.583-5.25c0.042-0.167,0-0.375-0.166-0.5l-2.084-1.959
					c-0.25-0.208-0.291-0.5-0.208-0.791c0.125-0.25,0.292-0.417,0.542-0.542l0,0c0.291-0.125,0.583-0.042,0.791,0.208l2,2.084
					c0.125,0.125,0.334,0.166,0.5,0.125l5.292-1.584l0.5,0.5l-4.208,2.292c-0.25,0.125-0.334,0.417-0.209,0.667l0,0
					c0,0.041,2.542,2.708,2.542,2.708c0.125,0.125,0.333,0.167,0.5,0.125l1.583-0.458l0.25,0.25L42.084,21.75z"/>
			</g>
		</g>
		<g>
			<g>
				<path fill="#E62865" d="M40.834,35.708C40.792,35.708,40.792,35.708,40.834,35.708c-0.25-0.125-0.542-0.041-0.667,0.167
					C39.959,36.25,39.75,36.625,39.5,37c-0.166,0.208-0.083,0.542,0.125,0.708c0.209,0.167,0.542,0.084,0.709-0.125
					c0.25-0.375,0.5-0.791,0.708-1.166C41.125,36.125,41.042,35.833,40.834,35.708z"/>
			</g>
		</g>
		<g>
			<g>
				<path fill="#E62865" d="M42.375,28.458c-0.291,0-0.5,0.209-0.5,0.5l0,0V29c0,0.417,0,0.875-0.041,1.292
					c-0.042,0.291,0.166,0.5,0.458,0.541l0,0h0.042c0.25,0,0.5-0.208,0.5-0.458c0.041-0.458,0.083-0.917,0.083-1.375v-0.083
					C42.875,28.667,42.667,28.458,42.375,28.458z"/>
			</g>
		</g>
		<g>
			<g>
				<path fill="#E62865" d="M25,43c-0.416-0.083-0.875-0.167-1.25-0.292C23.5,42.625,23.209,42.75,23.125,43
					c-0.083,0.25,0.042,0.542,0.292,0.625h0.042c0.458,0.125,0.916,0.25,1.375,0.333h0.083c0.292,0.042,0.5-0.166,0.542-0.458
					C25.459,43.292,25.25,43.042,25,43z"/>
			</g>
		</g>
		<g>
			<g>
				<path fill="#E62865" d="M32.667,42.875c-0.083-0.25-0.333-0.375-0.583-0.292l0,0c-0.417,0.125-0.834,0.25-1.25,0.334
					c-0.25,0.041-0.417,0.333-0.375,0.583c0.041,0.25,0.333,0.417,0.583,0.375c0.458-0.083,0.917-0.208,1.333-0.375
					C32.625,43.417,32.75,43.125,32.667,42.875z"/>
			</g>
		</g>
		<g>
			<g>
				<path fill="#E62865" d="M21.584,41.917c-0.375-0.209-0.792-0.417-1.167-0.625c-0.25-0.125-0.542-0.042-0.667,0.166
					c-0.125,0.209-0.041,0.542,0.167,0.667c0.417,0.25,0.833,0.458,1.25,0.667c0.25,0.125,0.542,0,0.667-0.25
					C21.917,42.333,21.834,42.042,21.584,41.917z"/>
			</g>
		</g>
		<g>
			<g>
				<path fill="#E62865" d="M38.709,38.75c-0.209-0.167-0.5-0.167-0.709,0.042l0,0c-0.291,0.333-0.625,0.625-0.916,0.916
					c-0.209,0.167-0.209,0.5-0.042,0.709c0.167,0.208,0.5,0.208,0.708,0.041c0.334-0.291,0.667-0.625,1-0.958
					C38.917,39.25,38.917,38.917,38.709,38.75z"/>
			</g>
		</g>
		<g>
			<g>
				<path fill="#E62865" d="M35.959,41.208c-0.125-0.25-0.459-0.291-0.667-0.166c0,0,0,0-0.042,0l0,0
					c-0.375,0.25-0.75,0.458-1.125,0.666c-0.25,0.125-0.333,0.417-0.208,0.667s0.417,0.333,0.667,0.208
					c0.416-0.208,0.833-0.458,1.208-0.708C36.042,41.75,36.125,41.458,35.959,41.208z"/>
			</g>
		</g>
	</g>
</g>
</svg>
