<?xml version="1.0" encoding="utf-8"?>
<!-- Generator: Adobe Illustrator 21.0.2, SVG Export Plug-In . SVG Version: 6.00 Build 0)  -->
<svg version="1.1" id="Capa_1" xmlns="http://www.w3.org/2000/svg" xmlns:xlink="http://www.w3.org/1999/xlink" x="0px" y="0px"
	 viewBox="0 0 389.5 1000" style="enable-background:new 0 0 389.5 1000;" xml:space="preserve">
<style type="text/css">
	.st0{fill:#FFFFFF;}
	.st1{fill:#1C1C1B;}
	.st2{fill:#8F8F90;}
	.st3{fill:#F8B454;}
	.st4{fill:#DD9239;}
	.st5{fill:#0A567D;}
	.st6{fill:#293766;}
	.st7{fill:#282E55;}
	.st8{fill:#242740;}
	.st9{fill:#C8C6C5;}
	.st10{fill:#A4A4A4;}
	.st11{fill:none;stroke:#1C1C1B;stroke-miterlimit:10;}
</style>
<g>
	<g>
		<g>
			<path class="st0" d="M211.4,932.2c0,0-5.7,47.6,4.3,49.2c0,0,74.1,31.9,102,10.8c0,0,12.8-40.5-24.8-48c0,0-14.3-0.3-21.3-16.2
				L211.4,932.2z"/>
		</g>
		<g>
			<g>
				<g>
					<path class="st1" d="M211.4,935.9c0.1,6.4,0.2,12.8,0.1,19.2l-0.1,9.6l-0.1,4.8c-0.1,1.4,0.1,2.8,0.5,4.2
						c0.8,2.7,2.7,5,5.1,6.5c0.6,0.4,1.2,0.7,1.9,1l2.2,0.9l4.4,1.8c5.9,2.2,11.8,4.6,17.9,6.6c12,4.1,24.6,6.8,37.3,7.4
						c6.3,0.3,12.7-0.2,18.9-1.1c6.2-1.1,12.1-3,17.5-6l-0.8,1c1.2-4.7,1.8-9.9,1.7-14.8c-0.1-5-0.9-9.9-2.7-14.4
						c-1.7-4.6-5-8.3-8.9-11.2c-3.8-3-8.7-4.5-13.5-5.8l0.2,0c-2.6-0.3-4.9-1-7.1-2c-2.2-1-4.3-2.2-6.2-3.8
						c-1.9-1.5-3.5-3.3-4.8-5.3c-1.4-2-2.3-4.2-3.2-6.4l0.3-0.1c1.1,2.1,2.2,4.1,3.7,5.8c1.4,1.8,3.2,3.3,5,4.6
						c1.8,1.3,3.9,2.3,6,3.1c2.1,0.7,4.4,1.2,6.4,1.4l0.1,0l0.1,0c5.2,1.1,10.5,2.4,15,5.7c4.6,3,8.4,7.4,10.5,12.5
						c2.2,5.1,3,10.5,3,15.9c-0.1,5.4-0.7,10.6-2.2,15.9l-0.2,0.7l-0.6,0.3c-5.9,3.1-12.3,4.8-18.8,5.7c-6.5,0.6-13,0.6-19.4-0.1
						c-3.2-0.3-6.4-0.8-9.6-1.2c-3.2-0.5-6.3-1-9.5-1.7c-6.3-1.1-12.5-2.7-18.7-4.2c-6.2-1.6-12.4-3.4-18.4-5.6l-4.5-1.7l-2.2-0.9
						c-0.8-0.3-1.6-0.7-2.4-1.2c-3-1.9-5.3-5-6.2-8.4c-0.5-1.7-0.7-3.5-0.5-5.3l0.3-4.8l0.7-9.5c0.5-6.4,1-12.7,1.7-19.1
						L211.4,935.9z"/>
				</g>
			</g>
		</g>
		<g>
			<path class="st2" d="M273.3,927.1c0,0-11.4,11.1-44.6,14.5c0,0-11.9,15.3-6.5,31.3c6.1,18.2,72.3,28.7,94.5,18
				c0,0-17.6,14.3-59.2,3.8c-41.7-10.6-42.2-15.4-42.2-15.4s-4.9,0.2-4-13.7c0.9-13.9-2.2-14,1.2-32.5c0,0,50.1-4,60.4-8.2
				L273.3,927.1z"/>
		</g>
		<g>
			<path class="st1" d="M210,968.4c4.1,2.5,8.2,4.8,12.6,6.8c2.1,1.1,4.3,2,6.4,3l6.6,2.7c8.8,3.4,17.9,6,27.2,7.7
				c4.6,1,9.3,1.4,14,2c4.7,0.2,9.4,0.6,14.1,0.3c2.4-0.1,4.7-0.1,7.1-0.3l7-0.9c2.4-0.2,4.7-0.7,7-1.2c2.3-0.5,4.7-1,7-1.4
				c-8.9,3.3-18.3,6-28,6.6l-3.6,0.4c-1.2,0.1-2.4,0-3.6,0c-2.4,0-4.8,0-7.3-0.1c-4.8-0.5-9.7-0.8-14.4-1.8
				c-9.5-1.8-18.8-4.7-27.6-8.8C225.7,979.5,217.3,974.6,210,968.4z"/>
		</g>
		<g>
			<path class="st1" d="M304.8,949.6c-2.4,0.8-4.7,2-6.6,3.6c-1.9,1.6-3.3,3.7-4,6L294,960l-0.8-0.3c-3.3-1.5-6.5-3.2-9.7-5
				c-3.2-1.8-6.2-3.8-9.1-5.9c-2.9-2.1-5.8-4.3-8.4-7c-1.3-1.3-2.5-2.7-3.5-4.2c-0.9-1.5-1.9-3.3-1.4-5.1c-0.2,1.8,0.9,3.4,2,4.7
				c1.1,1.4,2.4,2.6,3.7,3.8c2.7,2.3,5.6,4.4,8.5,6.4c2.9,2,6,3.8,9.1,5.7c3.1,1.8,6.2,3.5,9.4,5.2l-1,0.4c1-2.5,2.7-4.7,4.8-6.3
				C299.8,951,302.3,950,304.8,949.6z"/>
		</g>
		<g>
			<path class="st1" d="M304.8,949.6c-4-0.4-7.8-0.7-11.6-0.4c-1.9,0.2-3.7,0.5-5.5,1c-1.8,0.6-3.4,1.6-5,2.8c1-1.7,2.6-3.1,4.5-4.1
				c1.9-1,3.9-1.4,5.9-1.6c2-0.2,4.1,0,6.1,0.4C301.1,948.2,303,948.7,304.8,949.6z"/>
		</g>
		<g>
			<path class="st1" d="M288.8,943.5c-3.3-0.5-6.4-0.6-9.5-0.1c-1.5,0.2-3.1,0.5-4.6,1c-1.5,0.4-3,1.1-4.6,1.6
				c2.3-2.4,5.5-4,8.9-4.4C282.4,941,286,941.6,288.8,943.5z"/>
		</g>
		<g>
			<path class="st1" d="M294.5,945.2c-1.5,2-2.1,4.1-2.2,6.3c-0.1,2.2,0.4,4.5,0.8,7c-0.4-0.5-0.7-1-1.1-1.5l-0.8-1.7
				c-0.4-1.2-0.7-2.5-0.7-3.8C290.5,948.9,292,946,294.5,945.2z"/>
		</g>
		<g>
			<path class="st1" d="M280.3,939.4c-0.1,1.2,0,2.2,0.2,3.3c0.2,1.1,0.4,2.1,0.7,3.2c0.5,2.1,1.2,4.3,1.5,6.6
				c-0.8-0.9-1.4-1.9-2-2.9c-0.6-1-1-2.1-1.3-3.3c-0.3-1.2-0.4-2.4-0.3-3.6C279.3,941.6,279.5,940.3,280.3,939.4z"/>
		</g>
		<g>
			<path class="st1" d="M276.5,936c-2.5-0.8-4.9-0.7-7.1-0.1c-1.1,0.3-2.1,0.9-3.2,1.5c-1.1,0.6-1.6,0.8-2.7,1.5
				c0.3-0.6,0.2-0.6,0.5-1.2c0.4-0.5,0.9-1,1.3-1.5c1-0.9,2.2-1.7,3.5-2.1C271.6,933.3,274.8,933.9,276.5,936z"/>
		</g>
		<g>
			<path class="st1" d="M273.5,931.7c-0.7,0.9-1.2,1.8-1.6,2.8c-0.4,1-0.9,1.9-1.2,2.9c-0.8,2-1.6,4-2.8,6c-0.1-1.2,0-2.3,0.1-3.4
				c0.2-1.1,0.5-2.2,0.9-3.3c0.5-1.1,1-2.1,1.8-3C271.4,932.8,272.3,931.9,273.5,931.7z"/>
		</g>
	</g>
	<g>
		<g>
			<path class="st0" d="M180.7,933.6c0,0,4.8,9.2,1.4,31.9c0,0,4.4,12.6-9.6,17.8c-14,5.2-68.4,26.6-98.2,9c0,0-9.3-38.2,20.9-47.1
				c0,0,18.5-3.8,26.8-20.7L180.7,933.6z"/>
		</g>
		<g>
			<g>
				<g>
					<path class="st1" d="M180.9,933.5c2.7,6,3.3,12.8,3.1,19.3l-0.3,9.7c-0.1,1.6-0.1,3.2,0,4.8c0.1,1.5,0.3,3.3,0,5.1
						c-0.4,3.6-2.3,7-5.1,9.4c-1.4,1.2-3.1,2-4.7,2.6l-4.6,1.7c-6.1,2.3-12.4,4.1-18.7,5.8c-12.6,3.2-25.3,6.1-38.4,7.5
						c-12.9,1.3-26.7,0.9-38.8-5.6l-0.6-0.3l-0.2-0.7c-1.5-5.2-2.2-10.5-2.3-15.9c0-5.4,0.8-10.8,3-15.9c2.1-5.1,5.9-9.5,10.4-12.5
						c4.6-3,9.8-4.7,15.1-5.6l-0.2,0c2.3-0.7,4.7-1.7,6.9-2.9c2.2-1.2,4.4-2.5,6.4-4.1c2-1.5,3.9-3.3,5.6-5.2c1.7-1.9,3-4.1,4.3-6.4
						l0.3,0.1c-1,2.4-2.2,4.8-3.7,6.9c-1.5,2.1-3.3,4.2-5.3,5.9c-2,1.7-4.1,3.3-6.4,4.7c-2.3,1.4-4.6,2.6-7.2,3.6l0,0l-0.1,0
						c-4.9,1.1-9.7,2.9-13.6,5.7c-3.9,2.9-7,6.7-8.8,11.3c-1.8,4.5-2.7,9.4-2.7,14.4c-0.1,4.9,0.5,10.1,1.7,14.8l-0.8-1
						c10.9,6.1,24.2,7.5,37,7c12.9-0.6,25.7-3.4,37.9-7.6c6.1-2,12.1-4.5,18.1-6.8l4.5-1.8c1.5-0.6,2.6-1.2,3.8-2.2
						c2.2-1.8,3.8-4.4,4.2-7.3c0.2-1.4,0.1-2.8,0.1-4.6c0-1.7,0.1-3.3,0.2-5c0.2-3.3,0.7-6.5,0.9-9.7c0.5-6.4,0.7-12.9-1.2-19.1
						L180.9,933.5z"/>
				</g>
			</g>
		</g>
		<g>
			<path class="st2" d="M120.7,927.6c0,0,11.1,11,44.3,14.6c0,0,11.8,15.3,6.3,31.3c-6.2,18.1-73.4,28.4-95.4,17.5
				c0,0,18.4,14,60,3.3c41.7-10.6,42.2-14.4,42.2-14.4s4.6,0.3,3.8-13.6c-0.8-13.9,3.3-13.8-0.5-32.4c0,0-50.3-4.5-60.5-8.7
				L120.7,927.6z"/>
		</g>
		<g>
			<path class="st1" d="M73.4,987.4c4.5,1.1,9.2,1.8,13.8,2.2c4.6,0.5,9.3,0.6,13.9,0.5c9.3-0.2,18.5-1.2,27.6-2.9l6.8-1.3
				c2.3-0.5,4.5-1.1,6.7-1.7c4.5-1,8.9-2.5,13.4-3.7c4.5-1.3,8.8-3,13.2-4.5c4.4-1.6,8.7-3.4,13.1-5c-4.1,2.3-8.2,4.5-12.4,6.7
				c-4.3,1.8-8.6,3.9-13,5.5c-8.8,3.4-17.9,6-27.2,7.7c-9.3,1.6-18.8,2.5-28.3,2.1C91.7,992.4,82.1,991.1,73.4,987.4z"/>
		</g>
		<g>
			<path class="st1" d="M97.4,944.5c2.5,0.4,5,1.4,7.2,2.9c2.1,1.5,3.9,3.7,4.8,6.3l-1-0.4c3.2-1.6,6.3-3.3,9.4-5.2
				c3-1.9,6.1-3.7,9.1-5.7c2.9-2,5.9-4.1,8.5-6.4c1.3-1.2,2.6-2.4,3.7-3.8c1-1.4,2.2-2.9,2-4.7c0.5,1.8-0.5,3.6-1.4,5.1
				c-1,1.6-2.2,2.9-3.5,4.2c-2.6,2.6-5.4,4.9-8.4,7c-3,2.1-6,4.1-9.1,5.9c-3.2,1.8-6.3,3.5-9.7,5l-0.8,0.3l-0.2-0.8
				c-0.7-2.3-2.1-4.4-4-6C102.2,946.5,99.9,945.3,97.4,944.5z"/>
		</g>
		<g>
			<path class="st1" d="M99.1,944.4c1.6-0.9,3.4-1.5,5.3-1.9c1.8-0.4,3.8-0.4,5.7-0.2c1.9,0.3,3.8,0.8,5.4,1.9c1.7,1,3,2.5,3.9,4.1
				c-1.5-1.1-2.9-2.2-4.5-2.8c-1.6-0.6-3.3-1.1-5-1.3C106.3,943.7,102.8,944,99.1,944.4z"/>
		</g>
		<g>
			<path class="st1" d="M107.4,940c2.5,1,4,3.9,4,6.6c0.1,1.4-0.2,2.7-0.7,3.9l-0.8,1.8c-0.4,0.5-0.7,1.1-1.1,1.6
				c0.4-2.6,0.8-5,0.8-7.3C109.5,944.3,109,942.1,107.4,940z"/>
		</g>
		<g>
			<path class="st1" d="M117.7,931.4c1.2,0.8,2.2,2.1,2.8,3.5c0.7,1.4,1.1,2.9,1.2,4.4c0,1.5-0.1,3.1-0.6,4.5c-0.4,1.4-1.1,2.8-2,4
				c0.5-2.9,0.9-5.6,0.7-8.3C119.7,936.6,119.1,934,117.7,931.4z"/>
		</g>
		<g>
			<path class="st1" d="M111.5,936.9c1.6-0.9,3.4-1.5,5.3-1.9c1.8-0.4,3.8-0.4,5.7-0.2c1.9,0.3,3.8,0.8,5.4,1.9c1.7,1,3,2.5,3.9,4.1
				c-1.5-1.1-2.9-2.2-4.5-2.8c-1.6-0.6-3.3-1.1-5-1.3C118.7,936.2,115.2,936.4,111.5,936.9z"/>
		</g>
		<g>
			<path class="st1" d="M118.6,930.1c1.6-0.9,3.4-1.5,5.3-1.9c1.8-0.4,3.8-0.4,5.7-0.2c1.9,0.3,3.8,0.8,5.4,1.9c1.7,1,3,2.5,3.9,4.1
				c-1.5-1.1-2.9-2.2-4.5-2.8c-1.6-0.6-3.3-1.1-5-1.3C125.9,929.4,122.3,929.7,118.6,930.1z"/>
		</g>
		<g>
			<path class="st1" d="M123.4,925.7c1.5,0,3,0.4,4.3,1.1c1.4,0.7,2.5,1.7,3.5,2.9c0.9,1.2,1.8,2.5,2.2,4c0.5,1.4,0.7,2.9,0.7,4.4
				c-1.3-2.7-2.6-5.1-4.3-7.2C128.1,928.8,126,927.1,123.4,925.7z"/>
		</g>
	</g>
	<g>
		<path class="st3" d="M79.8,276c0,0,16.9,30.5,113,62.8c0,0,66.6-26.9,104-66.4c0,0,10.7-71,9.3-74.3c-1.4-3.3-57.3-86.3-57.3-86.3
			L188,96.5l-64.3,37.7l-48.6,65.7C75.1,199.9,65.6,231.6,79.8,276z"/>
		<path class="st4" d="M89,269.7c0,0,57.7,48.1,100.4,52.3c0,0,86.6-37,93.8-56.8l15.8-3.1l-2.2,10.3c0,0-41.4,42.1-104,66.4
			c0,0-68.1-17.6-113-62.8L72,242.1L89,269.7z"/>
		<path class="st4" d="M184.5,116.3c0,0-1.3,35.4,35.9,59.7c0,0-5.5-9.8-3.9-15.9c0,0,32.8,33.7,84.3,39.8l5.4-1.8l-57.3-86.3
			L188,96.5l-64.3,37.7l-48.6,65.7c0,0,68-37.1,81.3-50.2c0,0,2.3,16.4-2.5,24.1C153.9,173.7,185,147.3,184.5,116.3z"/>
		<path class="st0" d="M83.7,195.1c0,0,5.3,22.5,32,37.2c0,0,27.9,13,50.6-4.6c0,0,9.8-16.6,2.4-33.3
			C161.3,177.8,106,145.8,83.7,195.1z"/>
		<path class="st0" d="M291.4,195.1c0,0-5.3,22.5-32,37.2c0,0-27.9,13-50.6-4.6c0,0-9.8-16.8-2.4-33.5
			C213.7,177.6,269,145.8,291.4,195.1z"/>
		<ellipse class="st5" cx="243.8" cy="199" rx="19.1" ry="27.1"/>
		<ellipse class="st5" cx="134.8" cy="199" rx="19.1" ry="27.1"/>
		<path class="st6" d="M247.4,171.9c0,0-28.3-3.8-21.9,34.6c0,0,3.8-2.6,9.7-4.2c0.1,0.3,7.4,18.5,17.4,0c3.1,0.8,6.3,2.1,9.5,4.2
			C262.2,206.5,268.5,181.6,247.4,171.9z"/>
		<path class="st6" d="M138.3,171.9c0,0-28.3-3.8-21.9,34.6c0,0,3.8-2.6,9.7-4.2c0.1,0.3,7.4,18.5,17.4,0c3.1,0.8,6.3,2.1,9.5,4.2
			C153.1,206.5,159.4,181.6,138.3,171.9z"/>
		<g>
			<g>
				<path class="st1" d="M206.4,193.6c4.9-7.2,11.1-13.5,18.3-18.7c7.2-5.1,15.6-9.2,24.9-10.3c4.6-0.5,9.5-0.4,14.1,1
					c4.6,1.3,8.9,3.4,12.7,6.1c7.4,5.6,12.9,13,16.9,20.9l0.5,1l-0.3,0.7c-0.6,1.8-1.3,3.3-2.2,4.8c-0.8,1.5-1.8,2.9-2.8,4.3
					c-1,1.4-2.1,2.7-3.3,3.9c-1.2,1.2-2.5,2.2-3.8,3.2c2-2.6,3.7-5.4,5-8.4c0.7-1.5,1.2-2.9,1.7-4.4c0.5-1.5,1-3.1,1.2-4.5l0.2,1.7
					c-4.9-6.8-10.5-13-17.1-17.4c-6.6-4.3-14.2-6.4-22.1-5.6c-7.8,0.7-15.6,3.6-22.9,7.6C220.1,183.3,213.1,188.2,206.4,193.6z"/>
			</g>
			<g>
				<path class="st1" d="M168.7,193.6c-6.7-5.4-13.7-10.4-21.1-14.3c-7.3-4-15.1-6.9-22.9-7.6c-7.8-0.8-15.5,1.3-22.1,5.6
					c-6.6,4.4-12.2,10.6-17.1,17.4l0.2-1.7c0.3,1.4,0.7,3,1.2,4.5c0.5,1.5,1.1,3,1.7,4.4c1.3,2.9,2.9,5.7,5,8.4
					c-1.3-1-2.7-2-3.8-3.2c-1.2-1.2-2.3-2.5-3.3-3.9c-1-1.4-1.9-2.8-2.8-4.3c-0.8-1.5-1.5-3-2.2-4.8l-0.3-0.7l0.5-1
					c3.9-7.9,9.4-15.3,16.9-20.9c3.8-2.7,8.1-4.8,12.7-6.1c4.6-1.3,9.4-1.5,14.1-1c9.3,1.1,17.7,5.2,24.9,10.3
					C157.6,180.2,163.8,186.4,168.7,193.6z"/>
			</g>
			<g>
				<path class="st1" d="M209.3,227.8c3.9,2.2,7.9,3.9,12.1,5.2c4.2,1.3,8.4,2.2,12.7,2.6c4.3,0.5,8.7,0.4,13-0.2
					c4.3-0.5,8.5-1.8,12.8-3.1c-3.9,2-8.1,3.7-12.5,4.5c-4.4,1-8.9,1.1-13.4,0.6C225,236.6,216.3,233.3,209.3,227.8z"/>
			</g>
			<g>
				<path class="st1" d="M166.3,227.8c-7,5.5-15.7,8.8-24.6,9.7c-4.5,0.4-9,0.3-13.4-0.6c-4.4-0.8-8.6-2.5-12.5-4.5
					c4.2,1.3,8.4,2.6,12.8,3.1c4.3,0.6,8.7,0.7,13,0.2c4.3-0.4,8.6-1.3,12.7-2.6C158.4,231.7,162.4,229.9,166.3,227.8z"/>
			</g>
			<g>
				<path class="st1" d="M134.8,226.1c-11,0-20-12.6-20-28s9-28,20-28c11,0,20,12.6,20,28S145.8,226.1,134.8,226.1z M134.8,172
					c-10,0-18.2,11.7-18.2,26.1s8.1,26.1,18.2,26.1c10,0,18.2-11.7,18.2-26.1S144.8,172,134.8,172z"/>
			</g>
			<g>
				<path class="st1" d="M243.8,226.1c-11,0-20-12.6-20-28s9-28,20-28s20,12.6,20,28S254.9,226.1,243.8,226.1z M243.8,172
					c-10,0-18.2,11.7-18.2,26.1s8.1,26.1,18.2,26.1s18.2-11.7,18.2-26.1S253.8,172,243.8,172z"/>
			</g>
			<g>
				<path class="st1" d="M186.5,236.9c1,0.4,1.8,1.2,2.5,2.1c0.7,0.9,1.2,2,1.3,3.2c0.1,1.2-0.3,2.5-1,3.4c-0.7,0.9-1.7,1.5-2.7,1.8
					c0.6-0.9,1.2-1.7,1.5-2.6c0.3-0.8,0.5-1.7,0.4-2.5C188.3,240.6,187.4,238.8,186.5,236.9z"/>
			</g>
			<g>
				<path class="st1" d="M109,156c0,0,37.5-8.1,50.6,4.1C159.5,160.1,172.4,136.2,109,156z"/>
			</g>
			<g>
				<path class="st1" d="M274.7,156c0,0-37.5-8.1-50.6,4.1C224.1,160.1,211.2,136.2,274.7,156z"/>
			</g>
			<g>
				<path class="st1" d="M160.6,278.5c4.6,0.7,9.2,1.3,13.7,1.7c4.6,0.3,9.1,0.6,13.7,0.5c4.6,0,9.1-0.5,13.6-1.2
					c4.5-0.7,8.9-2,13.3-3.6c-3.9,2.6-8.3,4.5-12.8,5.7c-4.6,1.2-9.3,1.7-14,1.8c-4.7,0-9.4-0.3-14-1.2
					C169.5,281.5,164.9,280.3,160.6,278.5z"/>
			</g>
			<g>
				<path class="st1" d="M70.6,205.4l-1.7-2.2c53-41.9,55.9-80,56-80.4l0.8-12.6l2,12.5c3,19.1-6.6,40.9-11.6,50.5
					c39.3-27.1,43.3-54.3,43.3-54.6l2.8,0.2c0.1,22.4-5.4,37.6-9,44.9c30.2-22.2,33.5-66.7,33.5-67.1l2.8,0.2
					c0,0.5-3.8,50.9-39.6,72.5l-5.4,3.3l3.5-5.2c0.1-0.2,9-13.5,10.9-38c-4.8,11.4-16.8,30.6-46.1,49.5l-5.1,3.3l3.1-5.1
					c0.2-0.2,13-21.6,14.4-42.7C120.7,148.7,107.8,176,70.6,205.4z"/>
			</g>
			<g>
				<path class="st1" d="M106.4,329.4l-6.9-3.9c-0.3-0.2-29.2-16.5-39.2-48.9l-3.2,20.7l-2-3.2c-0.3-0.5-28.5-46.3-21.3-94.5
					l2.7,0.4c-5.9,39.6,12.7,77.8,19,89.2l4.2-27.3l1.6,7.5c5.4,25.6,23.3,42,33.1,49.3c-14.2-22.8-20.4-64.4-20.6-66.4l-1.3-8.9
					l3.9,8.1c4.8,10,12.5,16.3,17.9,19.7c-16.6-22.9-20.4-69.2-20.6-71.3l2.8-0.2c0,0.6,4.6,56.2,24.6,75.2l5,4.7l-6.4-2.4
					c-0.6-0.2-13-5-21.9-17.8c2.8,15.1,10.3,48.9,23.4,64L106.4,329.4z"/>
			</g>
			<g>
				<path class="st1" d="M305.3,205.3c-37.2-29.4-50.2-56.7-54.7-71.3c1.5,21.1,14.3,42.4,14.4,42.7l3.1,5.1l-5.1-3.3
					c-29.4-18.9-41.3-38.1-46.1-49.5c2,24.5,10.8,37.8,10.9,38l3.5,5.2l-5.4-3.3c-35.8-21.5-39.5-71.9-39.6-72.5l2.8-0.2
					c0,0.5,3.4,45,33.5,67.1c-3.5-7.3-9.1-22.5-9-44.9l2.8-0.2c0,0.3,4,27.5,43.3,54.6c-5-9.7-14.7-31.4-11.6-50.5l2-12.3l0.8,12.5
					c0,0.4,3.1,38.6,56,80.4L305.3,205.3z"/>
			</g>
			<g>
				<path class="st1" d="M269.5,329.3l5.2-6c13.1-15,20.6-48.9,23.4-64c-8.9,12.8-21.3,17.6-21.9,17.8l-6.4,2.4l5-4.7
					c20-18.9,24.6-74.6,24.6-75.2l2.8,0.2c-0.2,2.1-4,48.4-20.6,71.3c5.4-3.4,13.1-9.7,17.9-19.7l3.9-8.1l-1.3,8.9
					c-0.3,1.9-6.4,43.6-20.6,66.4c9.7-7.3,27.7-23.8,33.1-49.3l1.6-7.5l4.2,27.3c6.2-11.4,24.9-49.5,19-89.2l2.7-0.4
					c7.2,48.1-21,94-21.3,94.5l-2,3.2l-3.2-20.7c-10,32.4-38.9,48.8-39.2,48.9L269.5,329.3z"/>
			</g>
			<g>
				<path class="st1" d="M193,340.2l-0.4-0.1c-71.7-16.9-113.4-62.8-113.8-63.2l2.1-1.9c0.4,0.5,41.3,45.5,111.9,62.3
					c5.6-2.3,66.7-28.4,103.1-65.9l2,1.9c-38.5,39.5-103.8,66.4-104.5,66.7L193,340.2z"/>
			</g>
			<g>
				<path class="st1" d="M153.1,360.3c-12.9-6.2-27-22.7-33.2-30.6c1.1,12.5,10.1,20.9,10.2,21l3.8,3.5l-5.2-0.3
					c-33-1.8-53.9-31.5-60.8-43.1c-2.4,16.9,3.4,32.4,3.5,32.6L77,358l-8.8-12.8c-62.3-90.2-56-154.4-50.8-177L0,189.2l1-6.5
					C15.3,83.9,68.6,39.4,110.7,19.4c45.6-21.6,80.5-19.8,89.1-18.9l-0.3,2.7c-0.4,0-42.5-1.7-87.3,19.6
					C71.9,42,21.2,84.1,5.7,176.5l22.7-27.5l-5,11.7c-0.3,0.7-27.3,67.4,41.7,173c-1.4-7.5-2.3-18,0.2-28.7l1.2-4.9l2.3,4.5
					c0.2,0.4,20.4,39.9,55.6,45.1c-3.8-4.8-9.2-14-8.1-25.7l0.5-4.8l2.9,3.9c0.2,0.3,19.1,26,35.1,33.7L153.1,360.3z"/>
			</g>
			<g>
				<path class="st1" d="M229.8,360.3l-1.6-3.3c16-7.7,34.9-33.5,35.1-33.7l2.9-3.9l0.5,4.8c1.1,11.7-4.3,20.9-8.1,25.7
					c35.2-5.1,55.4-44.7,55.6-45.1l2.3-4.5l1.2,4.9c2.6,10.7,1.7,21.2,0.2,28.7c69.1-105.8,41.9-172.4,41.7-173l-5.1-11.8l22.8,27.5
					C361.7,84.1,311,42,270.7,22.8C225.9,1.5,183.8,3.2,183.4,3.2l-0.2-3.1c0.4,0,43.3-2.3,89,19.3c42.2,20,95.4,64.5,109.8,163.3
					l1,6.5l-17.4-21c5.2,22.6,11.5,86.8-50.8,177l-8.8,12.8l5.6-14.5c0.1-0.2,5.9-15.6,3.5-32.6c-6.9,11.6-27.8,41.2-60.8,43.1
					l-5.1,0.3l3.8-3.5c0.1-0.1,9.1-8.5,10.2-21C256.7,337.7,242.7,354.1,229.8,360.3z"/>
			</g>
		</g>
		<ellipse class="st1" cx="134.8" cy="198.1" rx="5.9" ry="9.9"/>
		<ellipse class="st1" cx="243.8" cy="198.1" rx="5.9" ry="9.9"/>
		<circle class="st0" cx="129.1" cy="182.3" r="5.2"/>
		<circle class="st0" cx="143.7" cy="211.8" r="3.8"/>
		<circle class="st0" cx="253.4" cy="211.8" r="3.8"/>
		<circle class="st0" cx="238" cy="182.3" r="5.2"/>
		<path class="st1" d="M81.1,277.1c0,0,27.7,29.6,73.6,48.8c0,0,6.2,20.9-0.5,32.6c0,0-12.5-3.7-35.7-34.3c0,0-2.2,16.2,10.8,27.8
			c0,0-35.4,1.3-61.8-46.6c0,0-4,18.6,2.6,38.6c0,0-71.9-94-49.4-180.2l-17.6,19c0,0,13.2-120.1,106.2-160.6S239.1,9.8,282,26.2
			c0,0,82.8,34.7,96,153.7l-16.5-20c0,0,14,32.6-2.2,91.1s-46.9,94.8-46.9,94.8s8.8-14.2,3.6-40.4c0,0-22.6,42.5-61.8,46.6
			c0,0,12.2-13.5,10.8-27.8c0,0-25.8,30.5-34.6,33.7c0,0-8.2-12.6-2.6-36c0,0,48.8-30.1,69.4-49.6l3.9-20.3c0,0-4.6,15.2-22.7,20.3
			c0,0,17.4-17,22.7-72.6c0,0-33.7-19.2-51.5-74.1c0,0-1.9,23.2,14.6,51.7c0,0-34.9-21-48.6-54.7c0,0,0.3,24.9,9.4,43.9
			c0,0-26.9-12.1-37.1-66.6c0,0-5.2,49.5-37,65.4c0,0,10.3-18.9,9.1-42.7c0,0-10.9,32.5-47.8,54.9c0,0,16.4-22.6,14-52.9
			c0,0-6,39.4-50.9,75.4c0,0,4.1,53.4,21.8,72.5c0,0-4.8,2.7-21.8-17L81.1,277.1z"/>
	</g>
	<g>
		<g>
			<path class="st7" d="M122.4,656c0,0,71.3,13.7,151-2.8v85.6l-4.1,86.1c0,0-4.8,74.3,5.8,100.9c0,0-31.5,26.8-66.9,8.9
				c0,0-2.4-211.6-9.8-228.4c0,0-5.4,0.9-10,0c0,0-5.7,184.6,0,226.7c0,0-39.3,4-73.1-8.9c0,0,6.1-38.1,6.6-101.5
				c0.4-63.4,0.3-97.3,0.3-97.3L122.4,656z"/>
		</g>
		<g>
			<path class="st8" d="M182.7,704.7c0,0-4.5,199.7-12.7,209.1s-54.7,10.1-54.7,10.1s49.1,15.1,73.1,8.9c0,0-3.1-189.4,0-226.7
				c0,0,6.1,2.6,10,0c0,0,7.9,75.8,8.4,126.8c0.5,51,1.3,101.6,1.3,101.6s34.2,16.3,66.9-8.9c0,0-54.7,23.6-51.7-27.7
				c2.9-51.4-12.1-165.5-20.2-193.7C203.2,704.1,191.6,708.5,182.7,704.7z"/>
		</g>
		<g>
			<path class="st9" d="M121.2,642.1c0,0,108.9,11.6,151.7-5l0.5,16c0,0-85.7,18.8-151,2.8L121.2,642.1z"/>
		</g>
		<g>
			<path class="st8" d="M122.4,656c0,0,22.6,23,133.2,13.9c0,0,14.9,0,17.8,15.1v-33.3C273.4,651.8,210.7,671.7,122.4,656z"/>
		</g>
		<g>
			<path class="st1" d="M232.6,942.1c-8,0-16.6-1.6-25.2-5.9l-1-0.5l0-1.1c0-1.9-0.3-186.2-10-229.3l3.6-0.8
				c9.5,42.2,10.1,211.8,10.1,229c28.7,13.5,56.6-4.1,62.7-8.3c-8.5-19.1-5.9-90.8-5.8-94c7.4-83.6,4.8-175.2,4.2-191.4
				c-44.1,14.8-132.8,5.6-148,3.8c0.5,25.5,4.2,241.2-5.4,279c9,2.3,48.7,11.7,68.9,8.7c-0.7-19.5-6.6-186.6,0.1-225.4l3.6,0.6
				c-6.9,40,0,224.4,0,226.3l0.1,1.6l-1.6,0.3c-22.9,4.5-71.9-8.4-73.9-8.9l-1.9-0.5l0.6-1.9c10.6-32.3,5.8-279.3,5.8-281.8l0-2.1
				l2.1,0.3c1,0.1,105.4,12.6,150.8-4.2l2.4-0.9l0.1,2.5c0,1,4.1,102.5-4.1,194.3c0,0.7-2.8,77.8,6.1,93.4l0.8,1.4l-1.3,1
				C276,927.3,256.9,942.1,232.6,942.1z"/>
		</g>
		<g>
			<path class="st10" d="M123.3,644.5c46,4.5,87.4,13.4,128.7,0.5c0,0,3.5,6.5-3.4,12.4l23.2-3.9l0.5-15.9c0,0-50,17-149.2,5.1
				L123.3,644.5z"/>
		</g>
		<g>
			<path class="st1" d="M187.9,663.6c-41.8,0-66.8-6.5-67.2-6.6l1-3.6c0.6,0.2,60.7,15.8,151.3-2l0.7,3.6
				C240.7,661.5,211.6,663.6,187.9,663.6z"/>
		</g>
		<g>
			<rect x="177.2" y="645.8" class="st1" width="3.7" height="16.2"/>
		</g>
		<g>
			<rect x="206.6" y="646" class="st1" width="3.7" height="16"/>
		</g>
		<g>
			<path class="st1" d="M179.1,702.6c4.6,1.4,8.7,2.4,13,2.3c2.1,0,4.2-0.2,6.3-0.6c2.2-0.4,4.3-1.1,6.7-1.7
				c-1.5,1.9-3.5,3.4-5.7,4.4c-2.2,1.1-4.8,1.5-7.2,1.6c-2.5,0-5-0.5-7.2-1.6C182.6,706,180.5,704.6,179.1,702.6z"/>
		</g>
	</g>
	<g>
		<g>
			<g>
				<path class="st3" d="M154.3,326.1c0,0,14.1,49.1-31.9,56.5c0,0-2,51,1.4,52.8c3.5,1.8,63.1,50.3,153.6-3l-11.9-50.6
					c0,0-47.5-3.5-38-59.8L193,340.2L154.3,326.1z"/>
			</g>
			<g>
				<path class="st3" d="M263.2,381.9c0,0,48.8-2.1,60.1,25.7c11.3,27.7,11.7,13.8,17.4,98s9.5,127.5,18.1,155.1
					c0,0,14.8,20.4,29.9,27.5c0,0,5,30.5-42.3,6.6c0,0,8.9,26.3-14.8-6c0,0-13.3-34.9-26.5-109.6s-31.4-151.5-31.4-151.5
					S270.3,418.1,263.2,381.9z"/>
				<path class="st4" d="M275.1,433.9c0,0,14.2,3.3,26.8,64.1c0,0,20.9,111.7,28.9,145.4s34.2,56.6,57.4,51.6c0,0-3,22.3-40.3,0.3
					c0,0,9.6,22.2-11.9,0.4c0,0-12.6-25.1-18.9-56.7S276,438,275.1,433.9z"/>
				<g>
					<g>
						<path class="st1" d="M281.6,460.1c3.5,16.4,7.2,32.8,10.6,49.2l10.2,49.3l10,49.3l9.6,49.4l0-0.1l5,16.8
							c1.6,5.6,3.6,11,6.4,16c2.8,5,6.2,9.9,10.7,13.2c1.1,0.8,2.4,1.4,3.5,1.3c1.1-0.1,2.1-0.9,1.9-2.1c-0.3-2.5-2.1-5.1-3.8-7.3
							l-2.2-2.8l3,1.7c4.5,2.5,9.2,4.9,14,6.7c4.8,1.7,9.9,3.1,15,2.8c2.5-0.2,5-0.9,7.1-2.3c2.1-1.4,3.6-3.5,4.5-5.8
							c0.4-1.2,0.7-2.4,0.9-3.6c0.1-0.6,0.1-1.2,0.1-1.9c0-0.3,0-0.6-0.1-0.8c0-0.1-0.2-0.3-0.4-0.5c-1.8-1.6-4.2-2.9-6.3-4.4
							c-8.7-5.7-17.2-12.3-22.8-21.6c-2.4-4.9-3.5-10-4.8-15.1c-1.2-5.1-2.3-10.2-3.2-15.4c-3.6-20.6-6.2-41.3-7.6-62.2l-4.2-62.4
							l-2-31.2c-0.7-10.4-1-20.9-2.4-31c-1.5-10.2-4-20.2-8.4-29.4c-4.4-9.1-10.7-17.5-19.2-23.2c-8.4-5.7-18.3-9-28.8-8.4
							c-10.5-0.6-21.1-2.8-30.5-7.8c-4.7-2.5-9-5.8-12.5-9.8c-3.5-4-6.1-8.8-7.6-13.9c-3.1-10.2-2.3-21-0.2-31.1l0.4,0.1
							c-1.5,10.1-1.7,20.7,1,30.7c3.2,9.8,10.7,17.7,19.8,22.3c9.1,4.6,19.5,6.7,29.7,7.1c10.5-0.8,21.5,2.4,30.3,8.3
							c9,5.9,15.9,14.6,20.7,24.1c4.8,9.5,7.4,20,9,30.4c1.4,10.5,1.7,20.9,2.5,31.3l2,31.2l3.7,62.4c1.1,20.7,3.3,41.5,6.6,62
							c0.8,5.1,1.8,10.2,2.9,15.3c1.2,5,2.2,10.2,4.4,14.7c5.1,8.8,13.3,15.6,22,21.3c2.2,1.5,4.4,2.7,6.5,4.6
							c0.2,0.3,0.5,0.5,0.7,1.1c0.1,0.4,0.1,0.8,0.1,1.1c0,0.7,0,1.4-0.1,2c-0.2,1.3-0.5,2.7-1,3.9c-1,2.5-2.7,4.8-4.9,6.3
							c-2.3,1.6-5,2.3-7.6,2.4c-5.4,0.4-10.6-1-15.5-2.8c-4.9-1.8-9.7-4.1-14.3-6.6l0.9-1.1c1.8,2.4,3.8,4.7,4.2,8.1
							c0.1,0.8-0.2,1.9-0.8,2.6c-0.7,0.7-1.5,1.1-2.4,1.2c-1.8,0.1-3.3-0.7-4.6-1.5c-5.1-3.5-8.5-8.5-11.6-13.6
							c-3-5.1-5.3-10.7-7-16.3l-5.4-16.7l0-0.1l0-0.1l-10.1-49.3l-9.6-49.4l-9.4-49.4c-3.1-16.5-6-33-9-49.5L281.6,460.1z"/>
					</g>
				</g>
			</g>
			<g>
				<path class="st3" d="M135.7,381.9c0,0-48.8-2.1-60.1,25.7c-11.3,27.7-11.7,13.8-17.4,98S48.8,633,40.1,660.6
					c0,0-14.5,20.1-29.6,27.2c0,0-5.3,30.8,42.1,6.9c0,0-8.9,26.3,14.8-6c0,0,13.3-34.9,26.5-109.6s31.4-151.5,31.4-151.5
					S128.6,418.1,135.7,381.9z"/>
				<path class="st4" d="M123.8,433.9c0,0-14.2,3.3-26.8,64.1c0,0-20.9,111.7-28.9,145.4S34,699.9,10.8,694.9
					c0-0.6,4.4,20.4,41.7-0.2c0.5-2.5-13.5,23.1,10.5,0.9c0,0,12.6-25.1,18.9-56.7C88.3,607.3,122.9,438,123.8,433.9z"/>
				<g>
					<g>
						<path class="st1" d="M117.8,459.6c-3,16.5-5.9,33-9,49.5l-9.4,49.4L89.8,608c-3.4,16.4-6.6,32.9-10.1,49.3l0,0.1l0,0.1
							l-5.4,16.7c-1.7,5.6-4,11.2-7,16.3c-3.1,5.1-6.5,10-11.6,13.5c-1.3,0.8-2.7,1.6-4.6,1.5c-0.9-0.1-1.7-0.5-2.4-1.1
							c-0.7-0.7-0.9-1.7-0.8-2.6c0.4-3.3,2.4-5.7,4.2-8.1l0.8,1c-8.9,4.7-18.3,9.3-28.8,9.5c-2.6,0-5.2-0.6-7.6-1.8
							c-2.3-1.2-4.2-3.3-5.4-5.6c-1.2-2.4-1.8-4.9-1.8-7.6c0-0.4,0-0.6,0.2-1.2c0.2-0.4,0.5-0.7,0.7-0.9c0.5-0.5,1-0.9,1.5-1.2
							l3.2-2.1c8.4-5.5,16.4-11.8,22.1-20c2.8-3.9,3.9-8.9,5.1-13.8c1.2-4.9,2.1-9.8,3-14.8c3.4-19.8,5.5-39.9,6.9-60l3.6-60.4
							l4-60.5c0.8-10.2,2.4-20.4,5.9-30.1c3.3-9.7,8.4-19,15.6-26.5c7.2-7.5,16.5-12.9,26.6-15.1c2.5-0.5,5.1-0.9,7.7-0.9
							c2.4-0.1,4.9-0.4,7.3-0.8c4.9-0.9,9.6-2.4,14-4.7c8.8-4.5,15.5-12.8,17.8-22.5c2.4-9.7,1.3-19.6-0.9-29.3l0.6,0.5
							c2.5,9.7,3.7,19,1.5,29.1c-1.1,5-3.2,9.8-6.3,14c-3.1,4.2-7.2,7.5-11.7,9.9c-4.5,2.5-9.5,4.1-14.5,5.2c-2.5,0.5-5.1,0.9-7.7,1
							c-2.4,0.1-4.9,0.5-7.3,1c-9.6,2.3-18.4,7.5-25,14.8c-6.7,7.2-11.4,16.1-14.4,25.6c-3.1,9.4-4.7,19.3-5.4,29.2L59.7,515
							l-4.1,60.4c-1.6,20.2-4.2,40.3-7.9,60.2c-1,5-2,9.9-3.3,14.8c-1.3,4.8-2.5,10-5.6,14.3c-6,8.4-14.4,14.6-22.8,20.1l-3.1,2.1
							c-0.5,0.4-1,0.7-1.4,1.1c-0.5,0.5-0.5,0.5-0.5,1.2c0,2.4,0.5,4.9,1.6,7c1.1,2.2,2.8,4,4.9,5.1c2.1,1.1,4.6,1.7,7,1.7
							c4.9,0.1,9.8-1.3,14.5-3c4.7-1.8,9.2-4,13.6-6.5l2.9-1.6l-2.1,2.7c-1.7,2.2-3.5,4.7-3.8,7.3c-0.2,1.2,0.8,2.1,1.9,2.2
							c1.2,0.1,2.4-0.6,3.6-1.3c4.5-3.3,7.9-8.3,10.7-13.2c2.8-5.1,4.9-10.4,6.4-16l5-16.8l0,0.1c3-16.5,6.4-32.9,9.5-49.4l10-49.3
							l10.2-49.3c3.4-16.4,7.1-32.8,10.6-49.2L117.8,459.6z"/>
					</g>
				</g>
			</g>
			<path class="st0" d="M118.4,476.3l-3,37.4c0,0-43.9,2.8-71.8-18.3c0,0,13.6-115.2,78.8-112.8c0,0,40.9,58.2,152.7,0
				c0,0,63.4-8.4,78.9,112.8c0,0-12.2,15.5-71.7,19.4c0,0-4.2-42.2-3.5-55.3c0,0-9.2,26.9-6.5,79c0,0,5.2,89.2,6.5,96.3
				c0,0-69.8,21-163.4,4.8C115.4,639.7,137.3,592,118.4,476.3z"/>
			<path class="st2" d="M354,495.4c0,0-53.1,19.7-62.3-5.2c-9.3-24.9-12.1-43.7-12.1-43.7s-0.8,45.6,2.7,68.4
				C282.2,514.8,331.8,513,354,495.4z"/>
			<path class="st2" d="M118.1,446.5c0,0,3.7,47.2-2.7,67.2c0,0-46.8-0.7-71.8-18.3C43.6,495.4,124.5,534.7,118.1,446.5z"/>
			<path class="st2" d="M278.8,459c0,0-15.5,47.5,0.7,173.6c0,0-32.3,22.2-164.1,7.2c0,0,150.9,4.5,139.9-36.4
				C244.2,562.3,274.6,455.4,278.8,459z"/>
			<path class="st2" d="M150.4,526.2c0,0,1.2,12.1-24.7,18.6l-1.2-16.4C124.5,528.4,141.3,532.2,150.4,526.2z"/>
			<path class="st2" d="M243.1,526.2c0,0-1.2,12.1,24.7,18.6l1.2-16.4C269,528.4,252.2,532.2,243.1,526.2z"/>
			<g>
				<g>
					<path class="st1" d="M118.2,446.5c1.1,11.4,1.1,22.9,0.7,34.3c-0.4,11.4-1.3,22.8-2.4,34.2l-0.1,1.1l-1.1-0.1
						c-12.6-0.6-25.1-2.3-37.4-5.1c-12.2-2.9-24.5-6.9-35.2-14.1l-0.8-0.6l0.1-1c1.7-12.5,4.6-24.8,8-36.9
						c3.5-12.1,8-23.9,13.7-35.1c5.7-11.2,13-21.8,22.8-30c4.9-4,10.5-7.3,16.5-9.2c6.1-1.9,12.5-2.5,18.8-1.8l0.2,0l0.2,0.2
						c9.9,9.4,22,16.6,34.9,21.2c3.2,1.2,6.5,2,9.8,2.9c3.4,0.6,6.7,1.4,10.1,1.6c6.8,0.8,13.6,0.3,20.4-0.6
						c13.5-2.1,26.9-5.5,39.9-10c13-4.4,25.7-9.8,37.7-16.2l0.3-0.2l0.3,0c6.4-0.6,13.1-0.1,19.3,1.9c6.2,2,11.9,5.3,16.9,9.4
						c9.8,8.4,17.1,19.2,22.7,30.5c5.7,11.3,9.9,23.3,13.4,35.4c3.4,12.1,6.2,24.4,7.9,37l0.1,1.1l-0.9,0.6
						c-10.8,7.2-23.1,11.1-35.3,14c-6.2,1.4-12.4,2.5-18.6,3.3c-6.2,0.8-12.5,1.5-18.8,1.8l-1,0l-0.1-1c-1.2-11.4-2.1-22.8-2.5-34.2
						c-0.3-11.4-0.3-22.9,0.7-34.3l0.4,0c-0.7,11.4-0.3,22.8,0.5,34.2c0.8,11.4,1.7,22.7,3.2,34l-1.1-1c6.2-0.4,12.4-1.1,18.5-2.1
						c6.2-1,12.3-2.1,18.3-3.6c12-3,23.9-7.1,33.9-14.1l-0.7,1.7c-1.9-12.2-4.5-24.4-8-36.4c-3.5-11.9-7.7-23.6-13.3-34.7
						c-5.5-11-12.4-21.5-21.6-29.4c-4.6-3.9-9.9-7-15.6-8.9c-5.7-1.9-11.8-2.4-17.8-1.9l0.6-0.2c-12.4,6.4-25.3,11.5-38.5,15.8
						c-13.2,4.3-26.7,7.5-40.4,9.4c-6.9,0.8-13.9,1.2-20.8,0.2c-3.5-0.3-6.9-1.1-10.3-1.8c-3.3-1-6.7-1.8-9.9-3.1
						c-13.1-4.7-25-12.2-35.3-21.6l0.4,0.2c-6.2-0.6-12.4,0-18.3,2c-5.8,1.9-11.3,5.1-15.9,9.1c-9.3,8.2-16.2,18.8-21.6,29.9
						c-5.5,11.1-9.5,23-12.9,34.9c-3.4,12-6,24.2-7.8,36.4l-0.7-1.5c10,6.9,22,11,34,13.9c6,1.5,12.2,2.6,18.3,3.5
						c6.1,0.9,12.4,1.7,18.5,2.1l-1.2,1.1c1.4-11.3,2.5-22.7,3.2-34c0.7-11.4,1.1-22.8,0.5-34.2L118.2,446.5z"/>
				</g>
				<g>
					<path class="st1" d="M118.1,469.9c2.4,14.1,4.2,28.3,5.7,42.5c1.5,14.2,2.5,28.5,2.8,42.8c0.4,14.3,0.2,28.6-1,42.9
						c-1.3,14.3-3.5,28.6-8.7,42.2l-1.3-2.2c13.5,1.7,27.2,2.9,40.8,3.8c13.7,0.8,27.3,1.3,41,1.3c13.7,0,27.3-0.5,40.9-1.9
						c13.6-1.4,25.8-3.3,38.7-7.5l0.1,1.3c-3-29.3-4.9-58.6-5.7-88c-0.4-14.7-0.4-29.4,0.4-44.1c0.4-7.3,1-14.7,2-22
						c1-7.3,2.4-14.6,5-21.4c-2.4,6.9-3.5,14.2-4.3,21.5c-0.8,7.3-1.2,14.6-1.4,21.9c-0.3,14.7,0,29.3,0.6,44
						c0.6,14.7,1.6,29.3,2.7,43.9c1.2,14.6,2.5,29.2,4,43.8l0.1,1.3l-1.3,0.4c-13.2,4.4-26.9,6.8-40.6,8.3
						c-13.7,1.5-27.5,2.1-41.3,2.1c-13.8,0-27.5-0.6-41.2-1.5c-13.7-1-27.4-2.2-41.1-4.1l-2-0.3l0.7-1.9c5-13.1,7.3-27.2,8.9-41.3
						c1.4-14.1,1.8-28.4,1.7-42.6C124,526.7,121.8,498.2,118.1,469.9z"/>
				</g>
			</g>
			<path class="st7" d="M112.2,380.9c0,0,10.8,95.7,9.6,142.7c0,0,10.2,14,32.5,1.4c0,0,1.1-115.6-11.5-147.2
				C142.7,377.7,118.6,370.2,112.2,380.9z"/>
			<path class="st7" d="M283.3,380.6c0,0-9.3,95.9-7.5,142.8c0,0-10,14.2-32.4,1.9c0,0-2.9-115.6,9.3-147.4
				C252.7,377.9,276.8,370,283.3,380.6z"/>
			<path class="st8" d="M124,376.4c0,0,5.5,129.2,11.6,134c7.5,5.8,19.6,6.6,19.6,6.6s2.7,10.9-7.5,12c-10.3,1-19.5,3.8-25.1-6
				c0,0-4.8-93.5-10.3-140.6C112.3,382.4,118.4,376.9,124,376.4z"/>
			<path class="st11" d="M142.1,376.9c0,0-27.7-3.2-29.9,4c-2.2,7.2,14.4,118.9,9.6,142.7c0,0,9.9,14.5,32.5,1.4
				C154.3,524.9,154.9,390.8,142.1,376.9z"/>
			<path class="st8" d="M275.1,376.6c0,0-6.5,127.6-11.6,133.5c-5.5,6.3-19.6,7.1-19.6,7.1s-2.7,10.9,7.5,12c10.3,1,19.5,3.8,25.1-6
				c0,0,1.4-95.6,6.9-142.6C283.3,380.6,280.7,377,275.1,376.6z"/>
			<path class="st11" d="M252.2,377.2c0,0,27.6-3.9,30,3.2c2.4,7.1-11.1,119.3-5.7,142.9c0,0-9.5,14.8-32.4,2.3
				C244.1,525.5,239.8,391.4,252.2,377.2z"/>
		</g>
		<path class="st4" d="M154.9,326.4c0,0,2.2,14.3,37.2,27.3c0,0,27.7-6.7,35.4-31.6L193,340.2L154.9,326.4z"/>
	</g>
</g>
</svg>
