<?xml version="1.0" encoding="utf-8"?>
<!-- Generator: Adobe Illustrator 21.0.2, SVG Export Plug-In . SVG Version: 6.00 Build 0)  -->
<svg version="1.1" id="Capa_10" xmlns="http://www.w3.org/2000/svg" xmlns:xlink="http://www.w3.org/1999/xlink" x="0px" y="0px"
	 viewBox="0 0 419.5 883.8" style="enable-background:new 0 0 419.5 883.8;" xml:space="preserve">
<style type="text/css">
	.st0{fill:#F8B454;}
	.st1{fill:#DD9239;}
	.st2{fill:#1C1C1B;}
	.st3{fill:#BF8D36;}
	.st4{fill:#A16F2A;}
	.st5{fill:#EBE221;}
	.st6{fill:#EBC518;}
	.st7{fill:#FFFFFF;}
	.st8{fill:#8F8F90;}
	.st9{fill:#282E55;}
	.st10{fill:#242740;}
	.st11{fill:#293766;}
	.st12{fill:#AAC312;}
	.st13{fill:#9CAB21;}
	.st14{fill:#0A567D;}
</style>
<g>
	<g>
		<g>
			<path class="st0" d="M250.9,335.6c0,0,8.7,50.6-38.9,60.6c0,0-17.1,4.8-4.7,87.9c0,0,13.9,64.8,11.4,88.6c0,0,94,18.6,127.8-5.9
				c0,0-4.1-93.1,0-115.2c4.1-22.1-19.4-75.5-19.4-75.5s-25.4-3.3-23.2-41.8c0,0-23.7,4.2-52.9-13.3V335.6z"/>
			<path class="st1" d="M250.9,321c0,0-10.7,29.9,39.9,32c0,0,8.2,1.7,20.1,12.5c0,0-7.3-6-7.1-31.2
				C303.7,334.4,280.3,342.7,250.9,321z"/>
		</g>
		<g>
			<g>
				<path class="st2" d="M206.7,481c2.1,7.5,3.7,15,5.2,22.6c1.6,7.6,2.8,15.2,4,22.8c1.1,7.7,2.1,15.3,2.7,23.1
					c0.5,7.7,1.1,15.5,0,23.2c-0.1-3.9-0.4-7.7-1-11.5c-0.4-3.8-1-7.6-1.5-11.4l-3.4-22.9c-1.1-7.6-2.3-15.2-3.2-22.9
					C208.4,496.4,207.4,488.7,206.7,481z"/>
			</g>
			<g>
				<path class="st2" d="M346.3,566.8c-1.4-12.9-1.9-25.8-2.4-38.8c-0.4-12.9-0.4-25.9-0.4-38.8c0.2-12.9,0.3-25.9,0.8-38.8
					c0.5-12.9,1-25.9,2-38.8c0.2,6.5,0.2,12.9,0.4,19.4l0.1,19.4l0,38.8l-0.3,38.8l-0.1,19.4l-0.1,9.7L346.3,566.8z"/>
			</g>
		</g>
	</g>
	<g>
		<g>
			<path class="st0" d="M213,662.9l58.8-6.5l-3.6,83.6l-2.9,110.7c0,0-2.2,14.9-4.4,18.8c0,0-81.8,23.4-91.8,7.8
				c0,0-5.1-19.2,13.5-24.9s24.3-19.8,24.3-19.8l4.3-111.1L213,662.9z"/>
			<path class="st1" d="M212.3,662.9c0,0,0.9,13.5-0.2,21.7c0,0,38.8-12.5,41.7-4.8c2.9,7.7,2.9,46,2.9,46l-2.3,91.4
				c0,0,11.7,49.5-32.3,53.2v8.7l39.1-9.8c0,0,4.5-10.5,4.5-61.2c0-50.7,3.8-114.6,3.8-114.6l1.6-37.1L212.3,662.9z"/>
		</g>
		<path class="st3" d="M206.7,816.6c0,0,41.7,7.9,58.5-2.8L265,824c0,0-34.6,11.3-58.3,0.6V816.6z"/>
		<path class="st3" d="M200.5,840.9c0,0,20.6,9.7,19.6,29.8c0,0,26.7-2.7,43.1-9.5l-2.1,8.6c0,0-76.5,23.7-93,8.2l0-3.2l42.3-1.8
			C210.4,873.1,214.1,859.2,200.5,840.9z"/>
		<path class="st4" d="M254.4,817.2c0,0,1.2,6,1.3,10l8.9-3.3l0.6-10.2C265.2,813.8,258.4,818.2,254.4,817.2z"/>
		<path class="st4" d="M233.5,868.1c0,0-35.9,17.7-65.4,10c0,0,7.5,9.1,39.2,3.4s53.7-11.6,53.7-11.6l2.1-8.6L233.5,868.1z"/>
		<g>
			<g>
				<path class="st2" d="M212.8,673.8l-1.2,38.7l-1.1,38.7l-1.2,38.7l-1.3,38.7L208,828c0.6,2.6-0.2,4.3-1,6
					c-0.8,1.7-1.9,3.2-3.1,4.5c-2.3,2.7-5,5-7.8,7.1c-2.7,2.1-5.8,4-8.9,5.4c-3.1,1.5-6.4,2.6-9.5,4c-3.1,1.3-5.9,3.3-7.4,6.2
					c-1.5,2.9-1.9,6.3-2,9.7c0,1.7,0,3.4,0.2,5.1l0.1,1.3c0,0.2,0.2,0.6,0.5,0.9c0.5,0.6,1.1,1.1,1.8,1.5c2.8,1.7,6.3,2.2,9.6,2.6
					c6.7,0.6,13.6,0,20.3-0.8c6.8-0.9,13.5-2.1,20.1-3.5c13.3-2.8,26.5-6.5,39.6-10.2l-1.1,1c2.5-8,3.5-16.5,3.4-25l0.4-25.9
					c0.4-17.2,0.9-34.5,1.6-51.7l2.4-51.7c0.8-17.2,1.9-34.4,3.4-51.6l0.3,0c-0.8,17.2-1.2,34.5-1.8,51.7l-1.4,51.7l-1.2,51.7
					l-0.4,25.8c0,8.7-1.1,17.5-3.9,26l-0.3,0.8l-0.8,0.2c-13.2,3.6-26.6,6.9-40.1,9.3c-13.5,2.4-27.2,4.5-41,3.3
					c-3.4-0.4-6.9-1-10-2.9c-0.8-0.5-1.5-1.1-2-1.8c-0.3-0.4-0.5-0.8-0.6-1.4l-0.1-1.3c-0.1-1.7-0.2-3.4-0.3-5.2
					c0-3.4,0.3-7,1.9-10.2c1.6-3.3,4.8-5.4,7.8-6.9c3.1-1.5,6.3-2.8,9.3-4.3c3-1.6,5.8-3.4,8.4-5.5c2.6-2.1,5.1-4.4,7.1-7
					c1-1.3,1.9-2.6,2.6-4c0.3-0.7,0.6-1.4,0.7-2.1c0.2-0.6,0.1-1.5,0.1-1.8l-0.1-0.3l0-0.2c0.4-12.9,0.6-25.8,1.2-38.7L208,751
					c1.2-25.8,2.5-51.6,4.5-77.3L212.8,673.8z"/>
			</g>
			<g>
				<path class="st2" d="M232.3,820.9c-14.5,0-25-2.4-25.2-2.4l0.6-2.4c0.3,0.1,29.1,6.7,57.3-2.4l0.8,2.3
					C254,819.8,242.2,820.9,232.3,820.9z"/>
			</g>
			<g>
				<path class="st2" d="M234.1,829.9c-16,0-27.4-3.3-27.6-3.4l0.7-2.4c0.3,0.1,28.1,8.2,57.4-1.3l0.8,2.3
					C254.3,828.8,243.4,829.9,234.1,829.9z"/>
			</g>
			<g>
				<path class="st2" d="M179.3,876.1c-7,0-11.2-0.3-11.3-0.3l0.2-2.5c0.5,0,46.8,3.5,94.6-13.2l0.8,2.3
					C229.6,874.3,196.2,876.1,179.3,876.1z"/>
			</g>
			<g>
				<path class="st2" d="M211.5,873.5l-2.3-0.9c4.5-11.6-7.2-27-9.6-30c-0.4-0.6-0.4-1.3,0-1.9c0.4-0.6,1.2-0.7,1.8-0.5
					c4.7,2,20.1,10.3,20.7,31.3l-2.5,0.1c-0.4-15.6-9.6-23.7-15.5-27.3C208.6,851,215.5,863.2,211.5,873.5z M200.4,842.6
					C200.4,842.6,200.4,842.6,200.4,842.6C200.4,842.6,200.4,842.6,200.4,842.6z"/>
			</g>
		</g>
	</g>
	<g>
		<g>
			<path class="st0" d="M293.6,656.5l0.3,107.4l-1.7,77.9c0,0-5.9,28.3,3,28.9c8.9,0.6,86.1,0,86.1,0s10.9-26.2-23.1-36.1
				c0,0-16.7-3.2-13.3-16c3.4-12.8,6.4-123.5,6.4-123.5l1.3-42.8L293.6,656.5z"/>
			<path class="st1" d="M352.7,652.4c0,0-2.6,83.6-3.2,88.4s-5,82-5,82s-4,10,19.8,13.1c23.7,3.1,19.1,37.9,17.1,34.8l-28.4,0.8
				c0,0,39.7-13.8-6.9-33.7c0,0-11.2,4.1-11.6-59.6c-0.4-63.7,1-112.5,0-124.6L352.7,652.4z"/>
		</g>
		<path class="st3" d="M293.6,656.5l0.1,42.7c0,0,37.1-14.9,57.5-2.8l1.4-43.9L293.6,656.5z"/>
		<path class="st3" d="M292.8,815.4c0,0,34.1,6.7,52.2-1.2l-0.5,11.7c0,0-20.8,7.6-51.6,0V815.4z"/>
		<path class="st3" d="M349.9,831.3c0,0-13.9,12.9-9.3,32.8h42.3l-0.8,6.5c0,0-78,2.4-84.8,0.5s-6.3-8.8-6.3-8.8l37.3,2.1
			C328.2,864.4,322.3,845.8,349.9,831.3z"/>
		<path class="st4" d="M293.6,656.5v16.2c0,0,29,3.3,38.2-0.1c1.2-0.5,2.6,0.4,2.6,1.8v17.4c0,0,10.5-0.7,16.8,4.6l1.4-43.9
			L293.6,656.5z"/>
		<path class="st4" d="M336.7,816.3c0,0,1.1,9.8,2.3,11.6l5.5-1.9v-11.7L336.7,816.3z"/>
		<path class="st4" d="M365.8,864.1c0,0-12.3,9.7-73,4.8c0,0,0.5,3.1,10.9,2.7c10.4-0.4,59.6-0.5,59.6-0.5l18.1-0.3l1.5-6.7H365.8z"
			/>
		<g>
			<g>
				<path class="st2" d="M293.6,661.9c0.6,25,1.2,50.1,1.4,75.2c0.2,25.1,0.3,50.1-0.3,75.2c-0.1,6.3-0.4,12.5-0.7,18.8
					c-0.3,6.3-0.7,12.6-1.5,18.8c-0.5,3-0.8,6.1-0.9,9.2c0,3,0.1,6.2,1.4,8.8c1.1,2.9,4.5,2.5,7.4,2.8c3,0.2,6,0.3,9,0.3
					c24,0.2,48-0.8,72-1.7l-1.2,0.8c1.1-3,1.7-6.5,1.6-9.9c-0.1-3.4-1-6.7-2.5-9.6c-3.1-5.9-8.7-10.1-14.7-13l0.5,0.1
					c-3.9-0.6-7.7-1.4-11.5-2.7c-1.9-0.6-3.8-1.4-5.6-2.4c-0.9-0.5-1.8-1.1-2.7-2c-0.4-0.4-0.8-0.9-1.2-1.6c-0.3-0.6-0.6-1.5-0.6-2
					c-0.4-4.4-0.2-8.2,0-12.3c0.2-4,0.4-8,0.7-12c1.6-15.9,2.7-31.7,3.6-47.7c0.9-15.9,1.7-31.8,2.4-47.7c0.7-15.9,1.6-31.8,2-47.8
					l0.3,0c0,16-0.2,31.9-0.7,47.8c-0.5,15.9-1,31.9-1.7,47.8c-0.6,15.9-1.6,31.9-2.7,47.8c-0.3,4-0.5,7.9-0.7,11.9
					c-0.1,3.9-0.3,8,0.1,11.6c0,1,1.3,2.1,2.8,3c1.5,0.9,3.2,1.5,5,2.1c3.5,1.1,7.2,2,10.9,2.6l0.3,0l0.2,0.1
					c3.2,1.6,6.3,3.5,9.1,5.9c2.8,2.4,5.2,5.3,6.9,8.7c1.7,3.4,2.6,7.2,2.7,11c0.1,3.8-0.6,7.5-2.1,11.2l-0.3,0.8l-0.9,0
					c-24,0.2-48,0.1-72.1-0.1c-3,0-6-0.1-9-0.2c-1.5-0.1-3-0.1-4.6-0.4c-1.7-0.1-3.2-1.5-3.9-3c-1.5-3-1.7-6.3-1.8-9.5
					c0-3.2,0.2-6.4,0.6-9.5c1.2-12.3,1.1-24.9,1.4-37.4l0.6-75.1c0.2-25.1,0.3-50.1,0.8-75.2L293.6,661.9z"/>
			</g>
			<g>
				<path class="st2" d="M352.9,866.2c-32.3,0-61.9-2.7-62.2-2.7l0.2-2.6c0.5,0,51.1,4.6,92,1.8l0.2,2.6
					C373.3,866,363,866.2,352.9,866.2z"/>
			</g>
			<g>
				<path class="st2" d="M318.2,820c-14.4,0-24.4-3-24.6-3.1l0.7-2.5c0.2,0.1,23.8,7.2,50.5-0.8l0.7,2.5
					C335.6,819,326.2,820,318.2,820z"/>
			</g>
			<g>
				<path class="st2" d="M322.6,830c-14.9,0-28.5-2.8-29.4-2.9l0.5-2.5c0.3,0.1,31.4,6.3,50.9,0l0.7,2.5
					C338.4,829.3,330.3,830,322.6,830z"/>
			</g>
			<g>
				<path class="st2" d="M339,865c-2.4-13.6,1.8-23.3,5.4-28.8c-6.9,4.6-17.7,14.1-14.9,28l-2.4,0.5c-3.8-18.8,14.4-30.1,20.1-33.1
					c0.7-0.4,1.5-0.2,2,0.5c0.5,0.6,0.4,1.5-0.1,2.1c-3.3,3.7-10.6,13.9-7.7,30.3L339,865z"/>
			</g>
			<g>
				<path class="st2" d="M293.6,699.2c9-4.7,18.7-7.7,28.7-9c5-0.7,10.1-0.8,15.2,0c5,0.7,10.2,2.5,13.8,6.3
					c-4.4-2.6-9.3-3.3-14.1-3.6c-4.8-0.2-9.7,0.1-14.5,0.8c-4.9,0.6-9.7,1.5-14.5,2.5L293.6,699.2z"/>
			</g>
		</g>
	</g>
	<g>
		<g>
			<g>
				<path class="st0" d="M221.8,393.6c0,0-26.4,8.7-46.9,12.2c0,0-13.6,5.5-16.6,31.1c-3,25.7-4.5,62.7-2.5,88.4
					c0,0,1.5,27.3,0.7,43.1s-2.4,35.1-5.1,40.9c-2.8,5.8-9.4,19.4-25.5,32.1c0,0-3.2,13.8,17.8,10.5c0,0,22.7-9.9,29.7-17.9
					c0,0-4.8,9.1,2.5,8.9c7.3-0.2,15.5-22.5,16.4-28.8c0.9-6.2,9.1-82.7,9.1-82.7l7.2-67.2L221.8,393.6z"/>
				<path class="st1" d="M210.3,451.6c0,0-7,60.3-8.2,73.9s-9.8,88.7-9.8,88.7s-8.1,29.4-18.5,28.5c0,0-2.9,0.1-0.4-8.6
					c0,0-35,33.5-47.7,11.3c0,0,22.2,6.5,45.8-24.1c3.5-4.6,5.8-10,6.6-15.7C182.5,576.1,197.5,474.3,210.3,451.6z"/>
			</g>
			<path class="st3" d="M156.8,563.6c0,0,24.6-12.1,40.4,0v7c0,0-18-9.6-40.6,0.2L156.8,563.6z"/>
			<path class="st3" d="M155.3,589.3c0,0,24.4-8.1,39.7,1.1l-0.7,6.8c0,0-14.4-8.2-40.1,0.8L155.3,589.3z"/>
			<path class="st5" d="M156.6,570.8c0,0,19.6-9.7,40.6-0.2l-2.2,19.9c0,0-8.6-9.2-39.7-1.1C155.3,589.3,156.5,576.2,156.6,570.8z"
				/>
			<path class="st4" d="M185.6,558.5l-1.4,8.3c0,0,8.3,1.5,12.9,3.7v-7C197.2,563.6,192.1,559.5,185.6,558.5z"/>
			<path class="st4" d="M181.1,586l-1.3,8.4c0,0,4.4-0.8,14.4,2.9l0.3-5.7C194.6,591.6,194.2,587.7,181.1,586z"/>
			<path class="st6" d="M184.2,566.8l-3.1,19.2c0,0,11.5,2,13.7,5.3l2.4-20.8C197.2,570.6,192,567.8,184.2,566.8z"/>
		</g>
		<g>
			<g>
				<path class="st2" d="M226.8,391.7c-13.9,6.5-28.9,10.5-43.8,13.8l-5.6,1.2c-1.9,0.4-3.4,0.8-4.9,1.9c-3,1.9-5,5.1-6.7,8.4
					c-3.3,6.7-5,14.2-6.3,21.6c-1.3,7.5-2,15.1-2.5,22.7c-0.5,7.6-0.8,15.2-0.9,22.8c-0.2,15.3,0,30.5,0.9,45.8
					c0.6,7.6,0.5,15.4,0.5,23c0,7.7-0.3,15.3-0.6,23c-0.4,7.7-0.9,15.3-2.1,22.9c-0.7,3.8-1.4,7.6-2.8,11.3
					c-1.4,3.6-3.3,7.1-5.4,10.3c-4.3,6.5-9.7,12.1-15.2,17.4c-1.4,1.3-2.8,2.6-4,4c-0.6,0.6-1.3,1.6-1.1,1.5
					c0.1,0.7,0.4,1.6,0.8,2.3c1.6,3.1,4.6,5.3,8,5.9c3.5,0.6,7.1-0.1,10.6-1.3c3.5-1.2,6.8-2.9,10-4.8c6.5-3.8,12.4-8.6,18.2-13.5
					l7.1-6.1l-4.6,8.2c-0.9,1.6-1.8,3.5-2.3,5.3c-0.2,0.8-0.3,1.8-0.1,2.2c0.1,0.3,0.1,0.3,0.9,0.4c1.2,0.1,2.8-1,4.1-2.3
					c1.3-1.3,2.5-2.9,3.6-4.6c4.3-6.7,7.1-14.5,8.4-22.4c2-16.3,3.6-32.9,5.6-49.3l5.9-49.3c1.9-16.4,4-32.9,6.1-49.3l0.3,0
					c-1.4,16.5-2.9,33-4.5,49.5l-4.8,49.4c-1.6,16.5-3.3,32.9-5.2,49.5c-1.4,8.4-4.2,16.5-8.9,23.8c-1.2,1.8-2.5,3.5-4.1,5.1
					c-1.6,1.5-3.5,3.2-6.6,3.2c-0.7,0-1.5-0.2-2.3-0.6c-0.8-0.5-1.4-1.3-1.7-2.1c-0.4-1.6-0.1-2.8,0.1-4c0.6-2.3,1.6-4.2,2.7-6.1
					l2.4,2.1c-5.9,5-12,9.7-18.8,13.7c-3.4,2-6.9,3.7-10.7,4.9c-3.8,1.2-7.9,2-12,1.2c-4.1-0.7-7.9-3.6-9.7-7.4
					c-0.5-1-0.8-1.9-1-3.1c0-0.2-0.1-0.3,0-0.6c0-0.3,0.1-0.6,0.2-0.7c0.2-0.4,0.3-0.6,0.5-0.8c0.3-0.4,0.7-0.8,1-1.2
					c1.4-1.4,2.8-2.7,4.2-4c5.6-5.1,11-10.6,15.3-16.8c2.2-3.1,4-6.4,5.5-9.9c1.4-3.5,2.2-7.2,2.9-10.9c1.3-7.5,1.9-15.1,2.3-22.8
					c0.4-7.6,0.5-15.3,0.4-22.9c0-7.7-0.1-15.2-1-22.9c-1.2-15.3-2-30.6-2-45.9c0.1-15.3,0.7-30.7,3.5-46c1.4-7.6,3.2-15.2,6.7-22.3
					c1.8-3.5,4.2-6.9,7.7-9.2c1.7-1.1,3.9-1.8,5.8-2l5.6-1c7.5-1.4,14.9-3.2,22.3-5.1c7.4-2,14.7-4.1,21.7-7.1L226.8,391.7z"/>
			</g>
			<g>
				<path class="st2" d="M154.2,598.1c3.1-1.5,6.5-2.5,9.8-3.4c3.4-0.9,6.8-1.4,10.3-1.7c3.5-0.2,7-0.2,10.5,0.7
					c3.4,0.8,6.8,2.1,9.4,4.4c-6.1-3.4-13-3.9-19.8-3.4c-3.4,0.2-6.8,0.7-10.2,1.3C160.9,596.5,157.5,597.2,154.2,598.1z"/>
			</g>
			<g>
				<path class="st2" d="M155.3,589.3c3.1-1.3,6.3-2.2,9.6-3c3.3-0.7,6.7-1.2,10.1-1.3c3.4,0,6.8,0.1,10.1,1
					c3.3,0.8,6.5,2.2,9.1,4.4c-6-3.2-12.6-3.9-19.2-3.7c-3.3,0-6.6,0.4-9.9,0.9C161.9,588.1,158.6,588.7,155.3,589.3z"/>
			</g>
			<g>
				<path class="st2" d="M156.5,570.8c6.1-3.6,13.2-5.4,20.3-5.5c3.6-0.1,7.2,0.3,10.6,1.3c3.5,0.8,6.7,2.4,9.7,4.2
					c-3.3-1.2-6.6-2.4-10-3c-3.4-0.7-6.8-1-10.3-0.9C170,567,163.1,568.4,156.5,570.8z"/>
			</g>
			<g>
				<path class="st2" d="M156.8,563.5c3.1-1.7,6.4-2.9,9.8-3.9c3.4-1,6.9-1.6,10.5-1.8c3.6-0.2,7.2,0.1,10.6,1
					c3.5,1,6.7,2.5,9.5,4.8c-3.1-1.7-6.4-2.9-9.7-3.5c-3.4-0.5-6.8-0.7-10.3-0.6c-3.4,0.2-6.9,0.7-10.3,1.4
					C163.5,561.5,160.1,562.4,156.8,563.5z"/>
			</g>
		</g>
	</g>
	<g>
		<g>
			<g>
				<path class="st0" d="M345.1,473.3c0,0,12.2,93,12.3,93.8c0.1,0.9,6.1,45.6,23.9,45.7c0,0,2.9-1.9-2-7.4s32.8,25.7,38.6,1.2
					c0,0-20.9-11.7-25.7-25.5s-5.9-53.7-6-57.7c-0.1-4.1-4.9-126.9-25.6-142.6l-38.4-5.7L345.1,473.3z"/>
				<path class="st1" d="M346.3,409.8c0,0,14.5,129.7,18.4,139.1c3.9,9.4,1.9,67.1,52.1,61.3c0,0-4.6,14.8-36.3-3.8
					c0,0,6.9,10.7-5.7,5.4c0,0-15.7-20-17.5-43.6c-1.8-23.5-12.2-97.7-12.2-97.7L346.3,409.8z"/>
			</g>
			<path class="st3" d="M355.8,552.5c0,0,16.9-11.1,31.4-5.8v5.7c0,0-18.5-4.4-30.7,6.9L355.8,552.5z"/>
			<path class="st3" d="M358.4,573.2c0,0,18.5-10.9,30.7-5l0.8,5.5c0,0-8.2-5.6-30.2,6.2L358.4,573.2z"/>
			<path class="st5" d="M356.5,559.3l1.9,13.9c0,0,18.5-10.8,30.7-5l-1.9-15.8C387.2,552.4,371.1,548.5,356.5,559.3z"/>
			<path class="st4" d="M364.5,548.2l1.5,5.8c0,0-4.1,0.8-9.4,5.3l-0.7-6.8C355.8,552.5,362.8,547.8,364.5,548.2z"/>
			<path class="st4" d="M368.5,568.8c0,0,0.8,5.5,1.5,6.4l-10.3,4.7l-1.3-6.7C358.4,573.2,366,569.3,368.5,568.8z"/>
			<path class="st6" d="M365.9,554c0,0,2.8,10.7,2.6,14.8l-10,4.4c0,0-2.6-12.2-1.9-13.9S365.9,554,365.9,554z"/>
		</g>
		<g>
			<g>
				<path class="st2" d="M303.9,334.4c-0.3,3.9-0.1,7.8,0.5,11.6c0.5,3.8,1.5,7.6,2.8,11.2c1.4,3.6,3.3,6.9,5.7,9.8
					c2.4,3,5.5,5.1,8.8,7l-0.2-0.1c6.6,1.4,13.4,2.2,20.2,3c3.4,0.4,6.8,0.7,10.2,1l5.1,0.4c1.9,0,4,0.9,5.4,2.1
					c3,2.5,4.7,5.6,6.3,8.8c1.5,3.2,2.7,6.4,3.8,9.7c2.1,6.6,3.6,13.3,4.9,20.1c5,27,6.7,54.4,8.5,81.7l1.1,20.5
					c0.1,6.9,0.3,13.7,0.7,20.5c0.5,6.8,1.1,13.6,2,20.4c0.4,3.4,1,6.7,1.6,10.1c0.7,3.3,1.3,6.7,2.5,9.7c0.5,1.6,1.4,2.7,2.4,4.1
					c1,1.3,2.1,2.6,3.2,3.8c2.3,2.4,4.8,4.7,7.5,6.7c2.6,2.1,5.4,4,8.3,5.9l2.1,1.5l1.1,0.9l0.6,0.6c0.2,0.2,0.6,1,0.6,1.3
					c0.1,1.4-0.2,2.2-0.5,3.2c-0.3,0.9-0.8,1.8-1.3,2.7c-2.3,3.4-6.4,5-10.1,5.1c-3.7,0.1-7.3-0.6-10.6-1.7
					c-6.7-2.2-12.9-5.5-18.8-9l2.2-2.6c0.8,1,1.5,2,2.2,3.1c0.6,1.1,1.3,2.3,1.3,4.2c0,1-0.7,2.4-1.7,2.8c-0.9,0.5-1.7,0.6-2.6,0.5
					c-1.7-0.2-2.9-0.8-4-1.6c-4.3-2.9-7-6.9-9.5-11c-2.4-4.1-4.3-8.6-5.5-13.2l-3.7-13.3l0-0.1l0-0.1l-6-54.7l-3-27.4l-4.2-26.8
					l1.3,0.4l4.4,26.2l3.6,27.3l7.1,54.6l0-0.2l3.8,13.3c1.2,4.4,2.9,8.5,5.2,12.3c2.3,3.8,5.1,7.5,8.5,9.8c0.8,0.6,1.7,0.9,2.4,1
					c0.2,0,0.6,0,0.7-0.1c0.1,0-0.1,0.2,0,0c0-0.4-0.3-1.4-0.9-2.3c-0.5-0.9-1.2-1.8-1.8-2.6l-6.3-7.6l8.5,5
					c5.8,3.4,11.7,6.7,18,8.8c3.1,1.1,6.4,1.7,9.5,1.7c3.1,0,6-1.3,7.6-3.6c0.4-0.6,0.7-1.2,0.9-1.9c0.2-0.6,0.4-1.5,0.4-1.8
					c-0.1-0.1,0.1,0.3,0.1,0.2l-0.3-0.3l-0.9-0.7l-2-1.5c-2.8-2-5.6-4-8.3-6.2c-2.7-2.2-5.3-4.6-7.6-7.2c-1.2-1.3-2.3-2.7-3.3-4.1
					c-0.5-0.7-1-1.4-1.5-2.2c-0.5-0.8-0.8-1.7-1.1-2.5c-1.2-3.4-1.8-6.8-2.4-10.2c-0.6-3.4-1.1-6.8-1.4-10.2
					c-0.8-6.8-1.2-13.7-1.5-20.5c-0.3-6.8-0.5-13.7-0.5-20.5c-0.3-6.8-0.5-13.7-1-20.5c-1.8-27.3-4.9-54.5-10.1-81.2
					c-1.4-6.7-2.9-13.3-5-19.7c-1-3.2-2.1-6.4-3.5-9.4c-1.4-3-3.1-5.9-5.4-7.9c-1.2-1-2.4-1.5-3.9-1.6l-5.1-0.5
					c-3.4-0.3-6.8-0.7-10.2-1.1c-6.8-0.8-13.6-1.9-20.3-3.5l-0.1,0l-0.1-0.1c-3.5-2.1-6.7-4.5-9.2-7.7c-2.5-3.2-4.4-6.7-5.7-10.5
					c-1.2-3.8-2-7.6-2.4-11.6c-0.3-3.9-0.4-7.8,0.1-11.7L303.9,334.4z"/>
			</g>
			<g>
				<path class="st2" d="M360,579.6c2.2-1.6,4.6-2.9,7.1-4.1c2.5-1.2,5.1-2.1,7.8-2.7c2.7-0.6,5.4-1.1,8.2-0.9
					c2.8,0.2,5.6,0.8,7.9,2.3c-5.2-1.7-10.6-1-15.7,0.2C370.1,575.6,365,577.6,360,579.6z"/>
			</g>
			<g>
				<path class="st2" d="M359.7,572.7c2.2-1.5,4.6-2.7,7-3.7c2.4-1,5-1.8,7.6-2.4c2.6-0.5,5.3-0.9,8-0.6c2.7,0.2,5.4,0.9,7.6,2.3
					c-5.1-1.5-10.3-1.1-15.3-0.1C369.6,569.3,364.7,571,359.7,572.7z"/>
			</g>
			<g>
				<path class="st2" d="M356.5,559.3c1.9-2,4.2-3.7,6.7-5c2.5-1.4,5.1-2.4,7.9-3c2.8-0.7,5.6-0.9,8.4-0.7c2.8,0.1,5.6,0.9,8.1,2
					c-2.8-0.4-5.5-0.8-8.2-0.7c-2.7,0-5.4,0.3-8,1C366.2,554.1,361.2,556.3,356.5,559.3z"/>
			</g>
			<g>
				<path class="st2" d="M355.7,552.6c2.3-1.8,4.8-3.2,7.5-4.4c2.6-1.2,5.4-2.2,8.3-2.9c2.9-0.6,5.8-1,8.8-0.7
					c2.9,0.3,5.8,1.1,8.3,2.5c-2.8-0.8-5.6-1.3-8.4-1.3c-2.8,0.1-5.6,0.4-8.4,1.1C366.3,548.1,361,550.2,355.7,552.6z"/>
			</g>
		</g>
	</g>
	<g>
		<g>
			<path class="st7" d="M346.3,566.8c-60.4,19.5-127.8,5.9-127.8,5.9c-2.9,62-30.1,111-30.1,111s49.4-23.8,109.5-22.4
				c60.1,1.5,85.2-7,85.2-7c-10.5-5-18.4-14.2-23.5-43.8"/>
		</g>
		<g>
			<path class="st8" d="M218.6,572.7c0,0,56,9.8,103.9,6.1c0,0,21.2,0.5,25.4,46.5c0,0,1.7,19.3,8,21.4c0,0-47.8,10.1-55.8-5.5
				c0,0,0.6,6.5,2.3,7.4c0,0-37.3-2.3-56.5,4.3c0,0-10.5,2.6-10.5-18.2c0,0-2.7,16,0,18.3c0,0-35.6,7.6-38.3,16.6l-7,13.4
				c0,0,36.5-19.3,85.6-20.5s95.5-2.2,107.6-8.1c0,0-12.7-2.5-20.3-29.1l-5.7-26.2c0,0-8.2-31.6-12-32
				C341.3,566.8,275.3,588.4,218.6,572.7z"/>
		</g>
		<g>
			<path class="st2" d="M218.5,572.6c10.8,2,21.4,2.9,32.1,3.4c10.7,0.5,21.4,0.5,32.1-0.2c10.7-0.6,21.4-1.7,31.9-3.5
				c10.6-1.7,21-4.2,31.3-6.9l1.1-0.3l0.5,1c3.7,7.6,6,15.4,8.2,23.3c2.1,7.9,3.8,15.9,5.3,23.9c1.4,8,3.3,15.9,6.6,23.3
				c1.7,3.6,3.7,7.2,6.3,10.2c2.5,3,5.7,5.8,9.4,7l1.7,0.5l-1.6,0.5c-8,2.4-16.3,3.5-24.5,4.6c-8.2,1-16.5,1.7-24.8,2.2
				c-16.6,1-33.1,0.5-49.5,1.8c-16.4,1-32.8,2.9-48.9,6.3c-16.1,3.3-32,7.8-46.4,15.5l-5.3,2.9l3.2-5.2c4.9-8,8.9-16.9,12.5-25.8
				c3.5-8.9,6.4-18.1,9-27.4c2.4-9.3,4.5-18.7,6.1-28.2c0.9-4.7,1.5-9.5,2.2-14.3L218.5,572.6z M218.7,572.9
				c-0.4,4.9-0.6,9.6-1,14.4c-0.6,4.8-0.9,9.6-1.7,14.4c-1.4,9.6-3.2,19.1-5.5,28.5c-2.3,9.4-5.1,18.7-8.4,27.9
				c-3.4,9.1-7.1,18.1-12.3,26.6l-2.2-2.4c14.8-8,31-12.6,47.3-16c16.3-3.3,32.9-5,49.5-5.9c16.6-0.9,33.2-0.1,49.6-0.7
				c8.2-0.3,16.5-0.7,24.7-1.6c8.2-0.9,16.4-2,24.3-4.2l0.1,1c-4.1-1.4-7.2-4.3-9.9-7.4c-2.7-3.2-4.8-6.7-6.6-10.4
				c-3.5-7.4-5.4-15.5-7.1-23.4c-1.7-7.9-3.6-15.8-5.9-23.6c-2.3-7.7-5-15.5-8.4-22.6l1.6,0.7c-10.4,2.8-20.9,5.5-31.6,7
				c-10.7,1.8-21.5,2.7-32.2,3.2c-10.8,0.5-21.6,0.2-32.4-0.6C239.8,576.8,228.9,575.4,218.7,572.9z"/>
		</g>
	</g>
	<g>
		<g>
			<path class="st0" d="M262.9,326.1c0,0,34.7,26.3,107.8-9.5c0,0,36.7-64,19.3-82.7c-17.5-18.7-25.4-46.6-28.7-70.5
				c0,0-70.5-10.6-129.7,101.7C231.6,265,229.5,314.9,262.9,326.1z"/>
			<path class="st1" d="M329.2,178.1c0,0,12.8-5.7,23.4,11.9c7.4,12.3,22.6,35.9,28.8,47.8c2.9,5.5,4.2,12.8,3.2,19
				c-2.6,15.7-4.9,41.8-16.7,57c0,0-46.9,19.1-105,12.3c0,0,31.2,25,105.1-8.3c1.8-0.8,3.3-2.2,4.2-3.9c6.4-11.8,31-59.3,19.6-76.1
				c-13.1-19.2-28-42.1-30.5-74.5C361.3,163.3,328.2,160.9,329.2,178.1z"/>
		</g>
		<g>
			<path class="st9" d="M195.3,312.4c0,0,3,15.4-24.2,28.8s-26.2,22.5-26.2,22.5s-6.9-38,19.8-60.9c0,0-45.3,23.5-103.2,23
				c0,0,41.6-9.3,52.2-27.7c10.5-18.4,19.6-28.6,37.4-34.3c0,0-20,1.7-47.9-12.5s-61.3,3.5-61.3,3.5s20.1-35.5,74.7-41.4
				c0,0-29.6-10.9-40.8-21.5c-11.2-10.7-50.2,1.8-64.5,8.4c0,0,46.1-51.9,117.2-41.1c0,0-18.9-14.6-32.9-47.5
				c0,0-14.4-23.1-31.6-23.1c0,0,48.1-8.6,83,18.8c0,0-23.7-41.8,8.1-91.2c0,0-9.7,32.9,25.4,45.1c0,0,19.1,5.9,27.5,25.8
				c0,0-4.8-31.2,19.2-47.7c0,0-9,11.5,5,31.3S246,90.6,246,90.6s8.8-27,33.2-32.9c0,0-11.6,9.5-6.2,26.8s6.2,22.5,6.2,22.5
				s11.5-13.9,33.4-13.7c0,0-16.9,13.2-10.5,20.9c0,0-23.6,8.1-65.4,5.1S178.7,265.5,195.3,312.4z"/>
			<path class="st10" d="M207.6,85.9c0,0-5.8-29.3,19.8-47c0,0-8.4,7.2,3,29.1l14.8,21.4c0,0,5-21.6,34.6-32.2
				c0,0-11.9,8.6-6.4,27.9c5.4,19.3,5.8,20.9,5.8,20.9s14.9-13.3,33.6-12.6c0,0-15.2,12.9-10.5,20.9c0,0,3.6,19.4-40.5,9.5
				s-43.3-4.9-43.3-4.9S218.3,100.2,207.6,85.9z"/>
			<path class="st10" d="M154.5,13.7c0,0-32.6,43.7,36.7,92.8c0,0,15.3,12.9,10.8,24.5l16.3-12.3c0,0-5.6-51.4-41.8-58.6
				C176.6,60.1,148.8,54.7,154.5,13.7z"/>
			<path class="st10" d="M65.7,88.3c0,0,79.7,6.5,115.1,68.2l5.8-8.2c0,0-21-10.1-39.9-43.8C146.8,104.6,110.7,81.3,65.7,88.3z"/>
			<path class="st10" d="M99.8,158c0,0,59.1,4,54.7,54c0,0,12.5-35.8,15.7-37.8C170.2,174.3,141.3,155.3,99.8,158z"/>
			<path class="st10" d="M126.4,213c0,0,21.1-11.6,32.5,49.9c0,0,8.2,35.5,31.4,41.7l1-10.9c0,0-40-32.4-34.8-79.6
				C156.4,214.1,146.4,209,126.4,213z"/>
		</g>
		<path class="st5" d="M235.5,265.1c0,0,24.4-66.2,84-91.3c0,0,43.4-23.1,50.9-2.7c0,0,24.6-38.2-7.9-52.6c0,0-9.6-13.4-68.6-3.3
			c0,0-17.9,5.9-32.4-1.1c-14.5-6.9-31.1-7.7-59.4,16.9s-49.8,73-45.5,95.7s2.4,46.3,49.8,77.7L235.5,265.1z"/>
		<path class="st6" d="M253.4,117.5c4.6,2.1,9.6,5,15,9.2c0.6,0.4,1.2,0.7,1.9,0.8c6.6,0.7,42.6,4.1,81-4.5c0.6-0.1,1.2-0.1,1.8,0
			c3.6,1,15.4,5.5,18.6,22.3c0.9,4.7,7.6,4.1,7.6-0.6c0-11.9-6.5-25-30.7-32.4c-0.3-0.1-0.7-0.2-1.1-0.2c-4.8-0.2-41.4-1.1-67.8,5.2
			c-0.4,0.1-0.8,0.1-1.3,0.1c-2.9-0.4-15.2-2-19.9-5.8c-0.7-0.5-1.6-1-2.8-1.4C251.3,108.9,249,115.6,253.4,117.5z"/>
		<g>
			<path class="st7" d="M317.6,211.2c0,0,9,22.7,4.5,32.9c-4.8,10.7-33,21.4-48.3,6.7C273.8,250.8,270.8,212.8,317.6,211.2z"/>
			<path class="st8" d="M274.8,251.7c0,0,9.7-36.3,40.7-35l4,0l-1.9-5.5c0,0-22.2-0.4-36.3,15.5S274.8,251.7,274.8,251.7z"/>
		</g>
		<g>
			<path class="st7" d="M348.2,198.9c0,0,5.9,25,26.2,12.8l-8.5-22.9C365.9,188.8,354.6,177.4,348.2,198.9z"/>
			<path class="st8" d="M348.2,198.9c0,0,9.4-12.7,17.1-7.6c0,0,0.8-5-5.8-5.8C352.8,184.7,348.2,198.9,348.2,198.9z"/>
		</g>
		<g>
			<path class="st7" d="M223,183.6c0,0,22.3-43.2,34.1-43.1c0,0-5.9-19.5-17-18.6S215.7,152,223,183.6z"/>
			<path class="st8" d="M220.9,156.6c0,0,18.3-50.2,32.7-15.1l3.2-1.9c0,0-8.3-18.9-16.7-17.7S221,151,220.9,156.6z"/>
			<path class="st11" d="M225.9,139.4c0,0,7.3-16.5,14.7-16.1c0,0,12.1,13,7.4,21.8C243.2,153.8,226.9,143.2,225.9,139.4z"/>
			<path class="st7" d="M229.3,133.8c0,0,7,11.6,13.8,7.1c6.8-4.4-5.9-15.4-5.9-15.4S229.6,128.6,229.3,133.8z"/>
		</g>
		<path class="st2" d="M250.9,338l13.9,6.1l-3.2-7.6l29.2,8.4c0,0-13.7-10.4-18.7-45.7l9.1,3.2c0,0-11.8-13.5-18.2-31.9
			c0,0,16.3-26.2,16.3-55.4l8.9,10.2l7.3-26.3l1.5,19.8l15.8-36.7l8.9,25.1l11.9-38.4c0,0-65.4,11.4-98,96.4L250.9,338z"/>
		<path class="st2" d="M348.8,164.5l19.4,19.5l-3-19.5C365.3,164.5,358.9,159.9,348.8,164.5z"/>
		<path class="st12" d="M201.6,334.4c0,0-32.6-40.4,11.5-65.5c0,0,34-15.2,52.6,19.3c0,0,12.3,30.1-11.8,47.7c0,0-11.9,7.3-16,7
			c0,0,5.3,12.6,47.2,20.3c0,0,5.2,2.3,1.7,8.9c0,0-4.7,24.3-34,1.5l-15-11.7c0,0,19.8,27.7,30.1,34.3c0,0-8.7,16.2-33.3,6.5
			c0,0-15.9-15.8-20-61.6c0,0-10.8,18.5-1.9,55.1c0,0-30.3,0.8-33.1-24C179.6,372.2,179,354.4,201.6,334.4z"/>
		<path class="st13" d="M209.1,269c0,0,50.3-6.1,46.5,44.8c0,0-28.6,7.9-21.8,29.8c1.5,4.8,21.8,17.6,48,26.3c0,0,5.1-1.4,4.6-5.8
			c0,0-38.2-9.6-48.6-21.3c0,0,25.5-1.9,31.4-38.5C269.3,304.4,266.7,252.7,209.1,269z"/>
		<path class="st13" d="M222.5,343.6c-0.5-1.3,15.1,59.1,32,60.6c0,0,13-0.3,13.5-8C268,396.2,226.8,355.1,222.5,343.6z"/>
		<path class="st13" d="M209.1,338.2c0,0-19.2,26.1-6.7,58h10.3c0,0-9.1-38.3,1.9-55.1L209.1,338.2z"/>
		<g>
			<path class="st14" d="M359.5,184.9c0,0-4,1.1,0.1,12.1c4.1,11.1,11.5,15.9,10.9,6.8C370,194.7,365.3,185,359.5,184.9z"/>
			<path class="st11" d="M361.3,202.4c0,0,3.1-7.5,8.7-5.1c0,0-1.2-10-8.7-12.5c0,0-5.2-2.6-3.5,6.9
				C357.8,191.8,358.9,197.8,361.3,202.4z"/>
			<path class="st11" d="M363.7,197.9c0,0,5.7,6.6,6.1-1.5C369.8,196.4,366.8,192.6,363.7,197.9z"/>
			
				<ellipse transform="matrix(0.9186 -0.3951 0.3951 0.9186 -47.613 160.2636)" class="st2" cx="365.3" cy="195.7" rx="1.5" ry="4.4"/>
			<path class="st14" d="M304.7,213c0,0-6.6,6.2,0.7,19.9c7.3,13.7,15.4,6,14.5,3.2c0,0,1.6-9.5-4.2-17S304.7,213,304.7,213z"/>
			<path class="st11" d="M307,235.6c0,0,6.1-8.8,13-7.4c0,0-2.5-14.8-14.2-16c0,0-6.8-0.6-3.5,14.5
				C302.4,226.7,304.6,234.5,307,235.6z"/>
			<path class="st11" d="M311.7,230c0,0,5.9,6.3,6-2.5C317.7,227.5,313,224.9,311.7,230z"/>
			<circle class="st7" cx="319" cy="231.3" r="1.8"/>
			<circle class="st7" cx="370" cy="201.9" r="1.8"/>
			
				<ellipse transform="matrix(0.9186 -0.3951 0.3951 0.9186 -63.7216 142.3389)" class="st2" cx="313.7" cy="225.9" rx="1.9" ry="5.4"/>
			<g>
				<g>
					<path class="st2" d="M229.8,345.7c-22.7,0-41.1-18.4-41.1-41.1c0-22.7,18.4-41.1,41.1-41.1s41.1,18.4,41.1,41.1
						C270.9,327.3,252.4,345.7,229.8,345.7z M229.8,266.8c-20.9,0-37.8,17-37.8,37.8s17,37.8,37.8,37.8s37.8-17,37.8-37.8
						S250.6,266.8,229.8,266.8z"/>
				</g>
				<g>
					<path class="st2" d="M190.3,296c-52-48.7-30.6-104.4-30.3-105c45.4-99,96.2-81.8,98.3-81l0.5,0.3c12.3,10.4,34.4,3.4,34.6,3.3
						c51.3-6.6,62.6-0.1,63.1,0.2c12.6,5.1,20.6,12.7,23.4,22.6c5,17.3-7.6,35-8.1,35.7l-1.6,2.3l-1.2-2.5
						c-5.1-10.9-20-5.8-20.2-5.7c-86.8,19.4-111.4,98.7-111.6,99.5l-3.2-0.9c0.2-0.8,25.4-81.9,113.9-101.7c5.5-1.9,16.9-3.1,22.6,5
						c3.1-5.1,9.8-18.3,6.2-30.7c-2.6-8.8-9.9-15.7-21.7-20.5c-0.3-0.2-11.6-6.2-60.9,0.1c-0.7,0.2-23.5,7.5-37.2-3.8
						c-3.9-1.2-51.5-13.1-93.9,79.4c-0.2,0.5-21.9,53.1,28.4,100.1L190.3,296z"/>
				</g>
				<g>
					<path class="st2" d="M221.8,189.5l-0.9-4.8c-8.8-49.5,17.6-63.6,18.8-64.2l0.4-0.2l0.4,0c11.5,0,17.9,18.9,18.1,19.7l0.5,1.5
						l-1.5,0.5c-14.2,5.1-33.4,42.7-33.6,43L221.8,189.5z M240.9,123.5c-2.9,1.8-22.9,15.5-17.5,55.7c5.5-10,19.4-33.8,31.6-39.6
						C252.9,134.2,247.6,124,240.9,123.5z"/>
				</g>
				<g>
					<path class="st2" d="M298.3,336.7c-13,0-25.7-2.5-36.3-9.3l1.8-2.8c35.6,22.8,99.4-6.4,105.7-9.4c31-64.1,26.8-70.3,11-93.2
						l-2.4-3.6c-18.1-26.6-17.7-53.5-17.7-54.6l3.3,0.1c0,0.3-0.4,27,17.1,52.7l2.4,3.5c16.2,23.6,21.1,30.7-11,97.1l-0.2,0.5
						l-0.5,0.2C369.3,319.1,333,336.7,298.3,336.7z"/>
				</g>
				<g>
					<path class="st2" d="M147.5,380.8l-4-15.4c-0.1-0.4-9.9-39.8,24.6-65.6l2,2.6c-24.1,18-25.4,43.1-24.4,55.2
						c5.3-8.5,18.5-14.7,19.2-15c21.1-10.4,25.6-18.1,26.4-21.7c0.6-2.7-0.6-4.1-0.6-4.2l2.5-2.2c0.3,1.8,1.1,5.2,0.4,8.6
						c-1.5,7.6-10,14-27.2,22.5c-5.6,2.6-19.9,11-19.5,19.4L147.5,380.8z"/>
				</g>
				<g>
					<path class="st2" d="M52,329.1l-0.3-3.3c0.5-0.1,49.3-6.3,63.1-32.9c14.7-28.3,36.1-29.4,37-29.4l1,2.1
						c-0.2,0-21.3,2.4-35,28.9c-8.5,16.4-28.5,25.3-44.2,30c83.2-7.5,109.2-36.6,109.4-36.9l1.9,3C183.7,291.9,154.2,325.1,52,329.1
						z"/>
				</g>
				<g>
					<path class="st2" d="M152.8,265.6c-11.6,0-28.5-2.1-47-11.1c-32.1-15.8-62.9,1.7-63.2,1.8l-4.8,2.8l2.5-5
						c0.3-0.5,26.4-49.4,116.7-43.5l-0.2,3.3c-71.1-4.6-101.3,25.1-110.4,37c10.7-4.4,35.3-11.9,60.8,0.7
						c32.3,15.9,58.1,10.2,58.3,10.1l3.2,2.5C168.2,264.2,162.2,265.6,152.8,265.6z"/>
				</g>
				<g>
					<path class="st2" d="M119.7,214.6c-1-0.2-23.9-4.9-43.5-20.3c-18.4-14.5-67.5,8.9-68,9.1l-8.2,4l6.3-6.6
						c0.8-0.8,76.1-77.8,164.7-28l-1.6,2.9C98.8,136,36.6,179.1,16,196.4c15.7-6.3,47.2-16.6,62.3-4.8
						c18.9,14.9,41.9,19.6,42.1,19.7L119.7,214.6z"/>
				</g>
				<g>
					<path class="st2" d="M130.7,160.7c-1.2,0-12.3-1.4-30.8-38C82.1,87.4,59.7,90,58.8,90.1l-0.5-3.3c2.2-0.4,55.4-8.4,89.5,19.3
						l-2.1,2.6C122.7,90,89.7,88.3,71.7,89c8.9,3.4,20.8,11.8,31.1,32.2c17.6,34.8,27.9,36.2,28,36.2L130.7,160.7z"/>
				</g>
				<g>
					<path class="st2" d="M185.8,149.8c-0.4-0.2-36.3-21.4-46.2-60.1c-6.2-24.3-1-50.1,15.4-76.9L162.9,0L158,14.2
						c-0.1,0.2-5.3,15.9,1.3,29.2c3.7,7.4,10.4,12.8,20,15.9c35.3,11.6,40.7,58.8,40.7,59.3l-3.3,0.3c0-0.5-5.2-45.6-38.5-56.5
						c-10.5-3.4-17.8-9.3-21.9-17.6c-3.7-7.5-4.1-15.4-3.5-21.5c-11.9,22.8-15.3,44.9-10,65.6c9.5,37.4,44.3,57.8,44.6,58
						L185.8,149.8z"/>
				</g>
				<g>
					<path class="st2" d="M258.3,113.3c-0.4,0-0.9-0.1-1.3-0.4l1.6-2.9c-0.1-0.1-0.5-0.1-0.9,0.1c-0.5,0.3-0.6,0.7-0.6,0.9
						c0-0.6-1.1-4.9-19.4-29.1c-11.6-15.4-16.5-28-14.6-37.6c0-0.2,0.1-0.4,0.1-0.6c-17.7,17.5-13.4,42.7-13.3,43l-3.2,0.6
						c-0.1-0.3-5.9-33.9,22-52.2c0.2-0.1,0.3-0.2,0.3-0.2l1.7,2.8c-0.1,0.1-0.2,0.1-0.3,0.2c-0.7,0.5-3.2,2.6-4.1,7.2
						c-1.2,5.9,0.3,16.8,14,34.8c22.3,29.5,20.7,31.3,19.6,32.6C259.4,113.1,258.9,113.3,258.3,113.3z"/>
				</g>
				<g>
					<path class="st2" d="M281.3,117.8l-3.3-0.3c0-0.1,1.3-13.6-5.5-29.6c-4.9-11.6-0.9-21.6,2.5-27.2c-23,10-27.4,30-27.5,30.3
						l-3.2-0.7c0.2-1,5.5-25,34.8-34.7l6.1-2l-4.4,4.7c-0.5,0.5-11.8,12.9-5.3,28.3C282.7,103.3,281.4,117.2,281.3,117.8z"/>
				</g>
				<g>
					<path class="st2" d="M301.2,115.5c-1.7-1.2-2.6-2.9-2.7-5c-0.2-5.2,5.6-11.6,9.6-15.4c-17.9,1.6-27.6,12.1-27.7,12.2l-2.4-2.2
						c0.5-0.6,12.4-13.5,34.6-13.5h4.6l-3.6,2.9c-3.3,2.7-12,10.9-11.9,15.9c0,1,0.4,1.8,1.3,2.4L301.2,115.5z"/>
				</g>
				<g>
					<path class="st2" d="M240.9,149.8c-8.9,0-15.9-9.6-16-9.7l2-1.4c0.1,0.1,9.3,12.8,19,7.3c1.5-0.8,2.4-2,2.6-3.6
						c1-5.8-6.3-15.4-9.2-18.6l1.8-1.6c0.5,0.5,11.2,12.5,9.8,20.7c-0.4,2.3-1.7,4.1-3.8,5.4C245,149.3,242.9,149.8,240.9,149.8z"/>
				</g>
				<g>
					<path class="st2" d="M206.8,397.8c-11.4,0-20.6-9.3-24-12.7c-0.2-0.2-0.4-0.4-0.6-0.6l-0.3,0l-0.4-0.7
						c-14.1-23.4,17.7-49.6,19-50.7l2.1,2.6c-0.3,0.3-30.7,25.3-18.4,46.2c0.3,0.2,0.6,0.5,1,1c3.4,3.4,13.5,13.6,24.9,11.4
						c0-0.2-0.1-0.5-0.1-0.8c-3.2-28.6-2.4-45.7,2.6-52.1l2.6,2c-3,3.9-5.7,15.7-1.9,49.8c0.3,3,0.4,3.5-0.8,4
						C210.5,397.6,208.7,397.8,206.8,397.8z"/>
				</g>
				<g>
					<path class="st2" d="M243.9,407.5c-1.7,0-2.7-0.1-2.8-0.1c-21.5-2.5-27.9-61.9-28.1-64.4l3.3-0.3c1.7,16.5,9.6,59.6,25.3,61.4
						c2.6,0.3,20.2,0.4,24.7-7.4c-0.7-0.7-1.9-1.9-3.2-3.3c-17.5-17.6-37.7-39-38.7-47.8l3.3-0.4c1,8.8,28.7,36.7,37.8,45.9
						c4.7,4.8,4.7,4.8,4.4,5.8C265.8,406.4,250.3,407.5,243.9,407.5z"/>
				</g>
				<g>
					<path class="st2" d="M275.2,384.4c-1.1,0-4.6-0.1-5.4-1.1l1.3-1l0.6-1.5c0.1,0,7,1.9,10.3-3c1.7-2.3,5.4-8.7,3.6-12.4
						c-0.1,0-0.3-0.1-0.4-0.1c-18.6-5-42.2-12.6-48.6-20.5l2.6-2.1c4.5,5.6,21.6,12.7,46.9,19.4c1,0.3,2,0.5,2.3,1.3
						c3.7,6.3-3.3,15.9-3.6,16.3c-2,2.9-5.2,4.6-9.2,4.8C275.5,384.4,275.4,384.4,275.2,384.4z"/>
				</g>
				<g>
					<path class="st2" d="M270.7,383.8c-25.8-6-44.5-36.5-45.3-37.8l2.8-1.7c0.2,0.3,18.8,30.6,43.3,36.3L270.7,383.8z"/>
				</g>
				<g>
					<path class="st2" d="M354.9,224.5c2.6-0.7,4.6-0.6,7.3,1.1c1.1,0.7,2.1,1.5,2.8,2.8c0.7,1.2,0.9,2.8,0.2,4
						c-0.7-1.2-1.5-1.8-2.2-2.3c-0.8-0.5-1.6-1.1-2.5-1.6C358.7,227.3,356.8,226.3,354.9,224.5z"/>
				</g>
				<g>
					<path class="st2" d="M251.7,353.4l-1.6-2.9c1.7-1,1.3-6.6,0.3-10.4l-0.8-2.9l12.3,4.2l-4.4-10.9l5.3,4.8
						c3.1,2.8,15.4,5.2,23.5,6.4c-13.9-16-16.7-41.7-16.9-42.8l-0.3-2.9l7.4,3.5c-11.6-15-20.6-40.9-21-42.2l3.1-1.1
						c0.1,0.4,12.3,35.5,25.9,47.1l9.4,8l-20.8-9.8c1.3,7.9,5.9,29.4,18.8,41.3l3.8,3.5l-5.1-0.6c-2.1-0.3-17.3-2.2-25.6-5.5
						l2.7,6.6l-13.4-4.6C254.8,345.9,255,351.5,251.7,353.4z"/>
				</g>
				<g>
					<path class="st2" d="M264.2,271.4l-2.7-1.9c15.7-21.8,16-56.2,16-56.6l0-6.2l9.5,16.7l10.4-39.5v28.8l15.3-35.5l8,25.9
						l8.3-32.3l3.2,0.8l-11.2,43.6l-8.8-28.5l-18.1,42v-19.4l-6,22.8l-7.6-13.4C279.9,229.7,276.8,254.1,264.2,271.4z"/>
				</g>
				<g>
					<polygon class="st2" points="370.7,189.1 347.1,165.7 349.4,163.4 365.8,179.6 363.4,165.5 366.6,164.9 					"/>
				</g>
				<g>
					<g>
						<path class="st2" d="M206.8,307.9c0.1-0.1,0.1-0.1,0.2,0c0.2,0.2,0.4,0.5,0.3,0.6l-1.2,1.6c-0.2,0.3-0.2,0.5,0,0.8
							c2.5,3.1,5.5,6.2,9.2,9.8c5.7,5.6,9.9,6.8,12.3,4.4c2.7-2.7,1.5-5.9-4.9-12.2c-3.3-3.2-7.3-7.1-9.7-8.9
							c-0.3-0.3-0.6-0.2-0.8-0.1l-1.7,1.2c-0.1,0.1-0.4-0.1-0.6-0.2c-0.1-0.1-0.1-0.1,0-0.2l7.5-7.6c0.1-0.1,0.1-0.1,0.2,0
							c0.2,0.2,0.3,0.5,0.3,0.6l-0.7,1.1c-0.2,0.3-0.2,0.5,0.1,0.8c2.6,2.1,5.7,4.7,9.8,8.7c6.2,6.2,5.8,12.6,0.5,18
							c-4.6,4.7-9.7,6.4-17-0.8c-4.1-4.1-7.8-8.9-8.7-10c-0.3-0.4-0.5-0.4-0.9-0.2l-1.3,0.9c-0.1,0.1-0.4-0.1-0.6-0.2
							c-0.1-0.1-0.1-0.1,0-0.2L206.8,307.9z"/>
					</g>
					<g>
						<path class="st2" d="M230.7,305.8c-4.1-4.1-5.3-8.7-5-12.4c0.4-3.6,1.9-7.1,4.9-10.1c1.5-1.6,3-2.6,4-2.9
							c0.2-0.1,0.3,0,0.5,0.2l4.8,4c0.2,0.1,0.1,0.6-0.1,0.8c0,0-0.1,0.1-0.2,0c-1.9-0.7-4.2-1.5-5.7-2.1c-0.4-0.1-0.8-0.2-1.1-0.1
							c-0.4,0-1,0.2-1.6,0.8c-1.2,1.2-1.9,3.3-1.7,5.6c0.3,3.6,2.3,7.2,5.9,10.8c5.4,5.4,10.6,4.5,13.5,1.7c0.6-0.6,1.3-1.5,1.6-2
							c0.7-1,1.3-2.2,1.9-3.6c0.1-0.1,0.3-0.1,0.6,0.2c0.1,0.1,0.1,0.2,0.1,0.3c-0.3,1.1-1.2,3.5-2,5c-0.4,0.7-1.3,2-2.3,3.1
							C243.6,310.1,237.1,312.1,230.7,305.8L230.7,305.8z"/>
					</g>
				</g>
				<g>
					<path class="st2" d="M303.5,270.5c8-2.4,14.7-7.1,20.2-12.6c2.7-2.9,5.3-5.8,7.4-9.2l1.6-2.4l1.5-2.6c1-1.7,1.9-3.5,2.7-5.3
						c3.9-7.8,9.5-14.9,17.6-19.3c4.1-2.1,9-3.1,13.5-2.1c2.1,0.5,3.9,1.1,5.9,1.4c1,0.2,1.9,0.3,2.9,0.3c0.9-0.1,2.1-0.1,2.5-1.1
						c0,1.2-1.2,2-2.2,2.4c-1,0.4-2.2,0.7-3.2,0.9c-2.2,0.4-4.4,0.3-6.4,0.2c-3.6-0.2-7.2,0.8-10.3,2.8c-3.1,1.9-5.9,4.6-8.3,7.6
						c-2.4,3-4.6,6.2-6.2,9.8c-3.7,7.6-8.8,15-15.6,20.4C320.4,267.1,312,270.8,303.5,270.5z"/>
				</g>
				<g>
					<path class="st2" d="M317.3,267.3c0,0,5.2,13.3,18,12.4c0,0-11.9-3.9-11.5-16.8L317.3,267.3z"/>
				</g>
				<g>
					<path class="st2" d="M324.2,260c0,0,3.8,9.7,13.1,9c0,0-8.7-2.8-8.4-12.2L324.2,260z"/>
				</g>
				<g>
					<path class="st2" d="M365.9,259.7c-2.7,2.1-4.3,4.7-3.9,7.5c0,0.7,0.2,1.4,0.4,1.7c0.2,0.3,0.4,0.4,1.1,0.4
						c1.3-0.2,2.9-0.9,4.4-1.6c-0.9,1.4-2,2.8-4,3.5c-0.9,0.4-2.5,0.2-3.3-0.9c-0.8-1-0.9-2-1-2.9c-0.2-1.9,0.4-3.9,1.7-5.3
						C362.4,260.7,364.2,259.9,365.9,259.7z"/>
				</g>
				<g>
					<path class="st2" d="M318.5,211.1c-5.5,0.9-10.7,2.3-15.7,4.1c-4.9,1.8-9.6,4.2-13.5,7.2c-0.9,0.8-2,1.5-2.9,2.4l-2.6,2.6
						c-1.5,2-3.2,3.9-4.2,6.1c-2.7,4.3-4,9.3-5.4,14.4l-0.1-1c0.2,0.9,0.8,2.1,1.3,3c0.6,1,1.3,2,2.1,2.8c1.6,1.7,3.8,3,6.3,3.9
						c-1.3,0.1-2.7,0.1-4-0.2c-1.4-0.3-2.7-0.8-3.9-1.6c-1.2-0.7-2.4-1.6-3.3-2.7c-1-1.1-1.8-2.1-2.6-3.6l-0.2-0.4l0.1-0.7l0.4-4.3
						c0.2-1.4,0.2-2.9,0.7-4.3c0.8-2.8,1.5-5.7,3-8.3c1.1-2.8,3.1-5.1,4.9-7.5l3.2-3.2c1-1.1,2.4-1.8,3.5-2.7
						c4.9-3.3,10.5-5.4,16.1-6.5C307.3,209.9,313,209.8,318.5,211.1z"/>
				</g>
				<g>
					<path class="st2" d="M298.4,256.8c3.1-0.9,6.1-1.9,9-3c2.9-1.2,5.7-2.5,8.2-4.3c2.5-1.7,4.6-3.9,6-6.6c1.4-2.7,1.8-5.8,1.9-9
						c0.8,3.1,1.1,6.6-0.1,9.8c-1.2,3.2-3.6,5.9-6.3,7.8c-2.7,2-5.8,3.3-9,4.1C304.8,256.5,301.6,256.9,298.4,256.8z"/>
				</g>
				<g>
					<path class="st2" d="M315,241.3c-4.1,0-9-4.4-12-11.2c-1.6-3.7-2.3-7.6-2-10.8c0.3-3.4,1.7-5.9,3.9-6.8c2.2-1,4.9-0.3,7.6,1.9
						c2.6,2,4.8,5.2,6.4,8.9c1.6,3.7,2.3,7.6,2,10.8c-0.3,3.4-1.7,5.9-3.9,6.8C316.5,241.2,315.8,241.3,315,241.3z M307,213.7
						c-0.5,0-1,0.1-1.5,0.3c-1.6,0.7-2.7,2.6-2.9,5.4c-0.3,3,0.4,6.6,1.9,10c3,6.9,8.4,11.4,11.9,9.9c1.6-0.7,2.7-2.6,2.9-5.4
						c0.3-3-0.4-6.6-1.9-10l0,0c-1.5-3.5-3.6-6.4-6-8.3C309.9,214.3,308.4,213.7,307,213.7z"/>
				</g>
				<g>
					<path class="st2" d="M368.6,209.5c-3,0-6.7-5.1-9-10.4c-1.4-3.2-2.2-6.3-2.4-8.9c-0.3-3.7,0.9-5,1.8-5.4c1-0.4,2.7-0.4,5.2,2.4
						c1.7,1.9,3.5,4.7,4.8,7.9l0,0c2.6,5.9,3.6,13,0.6,14.3C369.2,209.4,368.9,209.5,368.6,209.5z M360,186.2c-0.1,0-0.2,0-0.3,0.1
						c-0.5,0.2-1,1.3-0.9,3.8c0.2,2.4,1,5.4,2.3,8.4c2.8,6.6,6.5,10,7.8,9.4c1.3-0.6,1.4-5.6-1.4-12.1l0,0c-1.3-3-2.9-5.6-4.5-7.4
						C361.6,186.7,360.6,186.2,360,186.2z"/>
				</g>
				<g>
					<path class="st2" d="M348.2,198.9c-0.1-2.2,0.4-4.3,1.2-6.3c0.8-2,1.9-3.9,3.5-5.5c1.6-1.6,3.8-2.8,6.2-3
						c2.4-0.2,4.6,0.9,6.1,2.3c-2.2-0.2-4.1-0.3-5.7,0.2c-1.6,0.6-3.1,1.5-4.3,2.8C352.6,192,350.6,195.4,348.2,198.9z"/>
				</g>
				<g>
					<path class="st2" d="M360.6,214.7c2.7-0.2,5.2-0.4,7.7-0.9c1.2-0.2,2.4-0.6,3.6-1c1.2-0.5,2.2-1.1,3.3-1.9
						c-0.6,1.2-1.6,2.2-2.7,3c-1.2,0.8-2.5,1.2-3.8,1.5c-1.4,0.3-2.7,0.3-4.1,0.2C363.2,215.5,361.8,215.3,360.6,214.7z"/>
				</g>
				<g>
					<path class="st2" d="M364.3,179.7c0,0-9.4-7.4-18.1,4.3C346.2,184,347.3,170.1,364.3,179.7z"/>
					<path class="st2" d="M345.2,186.8l0.2-2.9c0-0.2,0.4-5.3,4.6-7.5c2.8-1.5,6.5-1.2,11.1,0.7c2.2,0.7,3.7,1.8,3.8,1.9l-0.9,1.4
						c-1.2-0.7-2.3-1.2-3.3-1.7c-1.3-0.4-2.9-0.7-4.7-0.4c-3.3,0.5-6.3,2.5-9,6.2L345.2,186.8z M353.6,177.1c-1.1,0.1-2,0.3-2.9,0.8
						c-1.2,0.7-2,1.6-2.6,2.7C349.8,178.9,351.7,177.7,353.6,177.1z"/>
				</g>
				<g>
					<path class="st2" d="M274.8,217.6c0,0,12.7-23.5,35.3-18.7C310.1,198.9,300.5,178.2,274.8,217.6z"/>
					<path class="st2" d="M275.5,218l-1.4-0.8c0-0.1,1.1-1.9,3.1-4.5c9.7-13.8,18.3-20.5,25.3-20c5.9,0.4,8.4,5.7,8.5,5.9l0.7,1.5
						l-1.6-0.3c-15.5-3.3-26.4,7.3-31.4,13.8C277.6,214.9,276.5,216.4,275.5,218z M301.7,194.3c-3.3,0-8.2,1.9-14.9,9
						c5.6-3.9,12.8-6.8,21.7-5.5c-1.1-1.4-3.1-3.2-6.2-3.5C302.1,194.3,301.9,194.3,301.7,194.3z"/>
				</g>
			</g>
			<circle class="st7" cx="306.6" cy="220.1" r="3"/>
			<circle class="st7" cx="361.3" cy="192.8" r="2.3"/>
		</g>
	</g>
</g>
</svg>
