<?xml version="1.0" encoding="utf-8"?>
<!-- Generator: Adobe Illustrator 21.0.2, SVG Export Plug-In . SVG Version: 6.00 Build 0)  -->
<svg version="1.1" id="Capa_11" xmlns="http://www.w3.org/2000/svg" xmlns:xlink="http://www.w3.org/1999/xlink" x="0px" y="0px"
	 viewBox="0 0 475.6 891.4" style="enable-background:new 0 0 475.6 891.4;" xml:space="preserve">
<style type="text/css">
	.st0{fill:#282E55;}
	.st1{fill:#242740;}
	.st2{fill:none;stroke:#1C1C1B;stroke-miterlimit:10;}
	.st3{fill:#F8B454;}
	.st4{fill:#DD9239;}
	.st5{fill:#BF8D36;}
	.st6{fill:#A16F2A;}
	.st7{fill:#1C1C1B;}
	.st8{fill:#FFFFFF;}
	.st9{fill:#8F8F90;}
	.st10{fill:#0A567D;}
	.st11{fill:#293766;}
	.st12{fill:#EBE221;}
	.st13{fill:#EBC518;}
	.st14{fill:#AAC312;}
	.st15{fill:#9CAB21;}
</style>
<g>
	<g>
		<path class="st0" d="M149.8,408.5c0,0,17.4,48.1-17.5,118.4c0,0-23.2,44.7-50.7,70.4C54,622.8-12.7,690.9,3.8,765.8
			c0,0,25.4-63.4,127-43.4c0,0,42.1,9.7,66.5,19.8c24.4,10.1,88.3,9.4,144.2-8.2c56-17.7,124.7-23.6,114.1,16
			c0,0,28.2-22.5,17.4-71.6c-10.8-49.1-35-70.3-35-70.3s-41.2-52.7-57.3-119.4s-18.1-83.1-18.1-83.1L149.8,408.5z"/>
		<path class="st1" d="M293.3,432c0,0,34.6,16.6,28.7,99.6c-5.9,83,22.8,119.6,22.8,119.6s4.7,115.7-198.4,73
			c0,0,78.4,37.6,146.8,20.8s117.7-32.8,151.1-21.5c0,0,20,3.6,9.3,30.9c0,0,48.5-40.5,1.2-121.8c0,0-77.2-90.9-92.3-226.9
			L293.3,432z"/>
		<path class="st2" d="M361.8,405.7c0,0,18.7,131.5,75.1,201.1s39.6,127.2,16.8,147.6c0,0,33.6-60-112.3-20.4
			c-145.9,39.6-152.9-12-240.2-14.5S4.9,768.7,4.9,768.7s-31.2-62.4,72-166.8s72.8-193.5,72.8-193.5"/>
	</g>
	<g>
		<path class="st3" d="M200.1,692.5c0,0,31.2-4.2,49.9,3.7l-1.7,44.6l-2,77.4l2.3,47.9c0,0,0.5,10.4-11.7,12.9
			c-12.1,2.5-48.9,21.2-77.8,6.1c0,0-10.3-35.5,24.7-40.6c0,0,15.8-4.2,15.6-26.1S200.1,692.5,200.1,692.5z"/>
		<path class="st4" d="M200.1,692.5v7.7c0,0,8.6,3.1,30.2,6.5c4.5,0.7,7.7,4.8,7.4,9.3c-1.3,18.6-4.2,64-3.4,82.7
			c0.9,23.7,2.2,46.5,2.2,55.9S158,877.9,158,877.9l1.2,7.1c0,0,28.1,16.7,84.8-9.2c0,0,7.7-3.2,4-17.8l-0.5-81.9
			c0,0,0.9-72.2,2.4-79.9C250,696.2,224.2,687.2,200.1,692.5z"/>
		<path class="st5" d="M200.1,818.2c0,0,23.1,9.1,47.1,0l-0.4,9.2c0,0-30.9,6.2-48-1.3L200.1,818.2z"/>
		<path class="st5" d="M191.7,839.5c0,0,29.4-0.7,30.3,36.9c0,0,18.1-5.1,26.6-10.4c0,0,1.4,6.3-5.5,10.4
			c-6.9,4.1-64.6,22.9-83.9,8.5v-6c0,0,28.5,8.4,54,0.5C213.2,879.5,215.3,851.2,191.7,839.5z"/>
		<path class="st6" d="M235.3,821.3v8.4l11.5-2.4l0.5-10.3C247.3,817.1,247.6,820.1,235.3,821.3z"/>
		<path class="st6" d="M211.7,866c0,0,7-0.5,9.1-2.7c0,0,1.4,8.5,1.4,14.5l26.5-11.8c0,0,1.5,9.8-9.2,11.8c0,0-51.4,22.6-80.3,7.2
			v-6c0,0,27.5,8.3,54,0.5C213.2,879.5,213,871.1,211.7,866z"/>
		<g>
			<g>
				<path class="st7" d="M250.1,695.4l-1.1,67.5c-0.3,22.5-0.5,45-0.6,67.4c0.1,11.2,0.1,22.5,0.7,33.7c0,1.4,0.2,2.8,0,4.3
					c-0.2,1.5-0.7,2.9-1.4,4.2c-1.4,2.6-4,4.5-6.7,5.4c-5.3,2-10.6,3.9-15.9,5.7c-10.7,3.4-21.7,6.1-33,7.3
					c-11.2,1.1-23.1,0.7-33.6-4.8l-0.5-0.2l-0.1-0.5c-1.2-4.3-1.8-8.7-1.8-13.1c0-4.4,0.6-8.9,2.4-13.1c1.6-4.2,4.8-7.9,8.5-10.5
					c3.7-2.8,8.1-4,12.4-5.1l0,0l0.2,0c6.1-0.7,12-4.5,14.9-10c1.5-2.7,2.5-5.8,2.8-9c0.5-3.2,0.3-6.4,0.3-9.9
					c-0.2-13.6-0.1-27.2,0.1-40.7c0.4-27.1,1.1-54.3,2.1-81.4l0.3,0c0.4,27.1,0.5,54.3,0.6,81.4c0.1,13.6,0.1,27.1,0.3,40.7
					c0.2,6.6,0.2,14.3-3.5,20.7c-3.5,6.5-10.4,10.8-17.8,11.6l0.2,0c-4,0.9-8,2-11.2,4.4c-3.3,2.2-6,5.3-7.5,9.1
					c-1.6,3.7-2.3,7.8-2.4,12c-0.1,4.1,0.4,8.4,1.5,12.3l-0.6-0.7c4.8,2.6,10.1,4.2,15.5,5c5.5,0.8,11.1,0.7,16.6,0.4
					c5.6-0.4,11.1-1.3,16.6-2.4c5.5-1.2,10.9-2.6,16.3-4.3c5.4-1.7,10.6-3.6,15.8-5.7c2.6-0.9,4.8-2.6,6.1-5c0.6-1.2,1-2.5,1.2-3.8
					c0.2-1.3,0-2.7-0.1-4.1c-0.9-11.2-1.4-22.5-1.7-33.7c-0.7-22.5-0.4-45,0.3-67.5c0.6-22.5,1.7-45,3.4-67.4L250.1,695.4z"/>
			</g>
			<g>
				<path class="st7" d="M157.9,878.6c7.6,1.9,15.4,2.7,23.2,3c7.8,0.1,15.5-0.1,23.2-1.4c1.9-0.2,3.8-0.7,5.7-1
					c1.9-0.4,3.8-0.7,5.7-1.2l5.6-1.4l5.6-1.7c7.4-2.3,14.5-5.5,21.8-8.7c-3.3,2.1-6.6,4.3-10.1,6.2c-3.6,1.7-7.1,3.6-10.8,5
					c-7.3,3.1-15.1,4.9-23,6.2c-7.9,1.2-15.9,1.4-23.8,0.6c-4-0.4-7.9-1-11.8-1.8C165.4,881.2,161.5,880.2,157.9,878.6z"/>
			</g>
			<g>
				<path class="st7" d="M199,826c4,1,8,1.6,12,2c4,0.4,8,0.6,12,0.6c4,0,8-0.2,12.1-0.4l6.1-0.5c2-0.2,4.1-0.4,6.1-0.5
					c-3.8,1.6-7.8,2.7-11.9,3.5c-4.1,0.8-8.2,1.2-12.4,1.2c-4.2-0.1-8.3-0.4-12.4-1.3C206.5,829.7,202.5,828.3,199,826z"/>
			</g>
			<g>
				<path class="st7" d="M199.5,818.2c8.1,1.6,16,2.8,24,3c4,0.2,7.9-0.1,11.9-0.5c4-0.4,7.8-1.5,11.8-2.5
					c-3.4,2.3-7.3,4.1-11.4,5.1c-4.1,1-8.3,1.5-12.5,1.3c-4.2-0.2-8.3-0.7-12.4-1.8C207,821.7,203.1,820.3,199.5,818.2z"/>
			</g>
			<g>
				<path class="st7" d="M222.1,877.8c-0.2-2.2-0.3-4.3-0.5-6.4c-0.4-2.1-0.5-4.2-1.2-6.2c-0.9-4.1-2.7-8-5.1-11.3
					c-4.7-6.7-12.4-10.9-20.4-12.4c-0.5-0.1-1-0.2-1.5-0.2l-0.8-0.1c-0.1-0.1-0.5,0.1,0.4-0.1c0.7-0.3,0.9-0.9,0.8-1.6
					c-0.1-0.3-0.3-0.7-0.6-0.8c-0.1,0-0.1-0.1-0.2-0.1l0,0l0.1,0l0.4,0.2l0.8,0.4c0.5,0.3,1,0.5,1.5,0.8c2,1.1,3.8,2.5,5.4,4
					c3.3,3,6.1,6.6,8,10.7c1.9,4,3.1,8.3,3.8,12.6c0.6,4.3,0.6,8.7,0.2,13c-0.6-8.6-2.2-17.1-6.3-24.3c-2.1-3.6-4.7-6.9-7.8-9.5
					c-1.6-1.3-3.2-2.6-5-3.5c-0.4-0.3-0.9-0.5-1.3-0.7l-0.7-0.3l-0.3-0.2l-0.4-0.2c-0.4-0.2-0.7-0.7-0.8-1.1
					c-0.2-0.9,0.2-1.8,1.1-2.2c0.4-0.2,1.1-0.1,1-0.1l0.2,0l0.8,0.1c0.6,0.1,1.1,0.2,1.7,0.3c4.4,0.8,8.7,2.4,12.5,4.8
					c3.8,2.4,7.2,5.6,9.5,9.4C222.2,860.1,223.1,869.4,222.1,877.8z"/>
			</g>
		</g>
	</g>
	<g>
		<g>
			<path class="st3" d="M270.2,700.2c0,0,4.3,134.6,1.7,159.7c0,0-6,16,10.7,18.8c0,0,49.7,21.4,78.3,6.3c0,0,11.8-37.4-25.3-40.8
				c0,0-16.9-4.8-15-27.3c1.9-22.5-0.5-109.8-0.5-109.8S284.2,709.3,270.2,700.2z"/>
		</g>
		<g>
			<path class="st4" d="M270.3,702.7l0.5,12.8c0,0,12.8,5.5,25.3,7.3c5.8,0.9,10.3,5.6,10.6,11.5c0.4,7.6,0.8,20.1,1.1,40.1
				c0.7,42.9-5.3,69.6,14,78s23.4-2.1,39.6,28.5c0,0,9.2-32.5-25.7-36.9c0,0-18.8-4.9-15.1-39.1l-0.3-97.9
				C320.2,707.1,298.9,711.5,270.3,702.7z"/>
		</g>
		<g>
			<path class="st5" d="M320.3,826.7v-8.1c-24.9,10.1-47.3-0.4-47.3-0.4l0.6,9C273.5,827.2,297.4,834.3,320.3,826.7z"/>
		</g>
		<g>
			<path class="st5" d="M306.4,878.1c0,0,0.1-33.3,22.5-37.7c0,0-30.5-2.5-31.3,34.9c0,0-17.7-4.1-26-11.4c0,0-2.6,11.2,9.4,14.2
				c0,0,27.8,11.9,49.3,12.2c0,0,28.5,0.2,30.9-6.7l0.1-2.6C361.4,881,331.9,886.4,306.4,878.1z"/>
		</g>
		<g>
			<path class="st6" d="M307.5,820.6c0,0,0.2,6.6,0.7,9.7l12.1-3.5v-8.1C320.3,818.6,314.3,821.1,307.5,820.6z"/>
		</g>
		<g>
			<g>
				<path class="st5" d="M270.2,698.3l1.6,32c0,0,33.5-1.5,49,1.9l-0.5-25.7C320.3,706.5,282.6,708.2,270.2,698.3z"/>
			</g>
			<g>
				<path class="st6" d="M270.3,703.1c0,0,15.9,5.9,29.5,8.5c2.8,0.5,4.9,2.9,5,5.8l0.6,12.3c0,0,14.6,2.2,15.3,3l-0.5-26.2
					c0,0-35.2,2.2-50.1-8.2L270.3,703.1z"/>
			</g>
		</g>
		<g>
			<path class="st6" d="M311.9,843.4c0,0,1,5.4,4.6,5.8l8.5-7.9C325,841.3,320.3,839.1,311.9,843.4z"/>
		</g>
		<g>
			<path class="st7" d="M320.3,732.1c-8.2-0.9-16.4-1.4-24.6-1.6c-8.2-0.2-16.4-0.2-24.7-0.3c4.1-0.6,8.2-1,12.3-1.2
				c4.1-0.2,8.3-0.3,12.4-0.2C304,729.2,312.3,730,320.3,732.1z"/>
		</g>
		<g>
			<g>
				<path class="st7" d="M270.3,702.5c1.7,21.8,2.8,43.7,3.4,65.6c0.6,21.9,1,43.8,0.1,65.7c-0.3,10.9-1.1,21.9-1.8,32.8
					c-0.1,2.6,0.9,5.2,2.6,7.1c0.9,1,1.9,1.8,3.1,2.4c1.1,0.6,2.5,1,3.7,1.6c5.1,2,10.3,3.7,15.5,5.3c10.4,3.2,21.2,5.4,32,6.2
					c5.4,0.3,10.8,0.2,16.2-0.6c5.3-0.9,10.5-2.4,15.1-4.9l-0.6,0.8c1-3.9,1.5-8.2,1.5-12.3c-0.1-4.1-0.7-8.2-2.3-11.9
					c-1.5-3.8-4.2-6.8-7.5-9.1c-3.2-2.4-7.3-3.5-11.2-4.4l0.2,0c-6.8-0.7-13-4.3-16.8-9.9c-3.6-5.7-4.8-12.4-4.5-18.7
					c0.3-12.3,0.3-24.7,0.5-37c0.1-24.7,0.3-49.4,0.6-74.1l0.3,0c1,24.7,1.7,49.4,2,74.1c0.2,12.4,0.3,24.7,0,37.1
					c-0.2,5.9,1,11.9,4,16.7c3.1,4.7,8.6,7.8,14.1,8.5l0.2,0l0,0c4.3,1.1,8.8,2.3,12.5,5.1c3.7,2.6,6.9,6.3,8.5,10.5
					c1.7,4.2,2.4,8.7,2.4,13.1c0,4.4-0.6,8.8-1.8,13.1l-0.2,0.5l-0.5,0.2c-5.1,2.6-10.6,4.1-16.1,4.8c-5.6,0.6-11.1,0.5-16.6,0.1
					c-11-1.1-21.7-3.7-32.2-6.9c-5.2-1.6-10.4-3.5-15.5-5.4c-1.3-0.5-2.5-0.9-3.9-1.6c-1.3-0.6-2.4-1.5-3.4-2.6
					c-1.9-2.1-3.1-5-3-7.9c0.5-11,0.8-21.9,0.8-32.8c0-21.9-0.2-43.8-0.5-65.6l-1.1-65.7L270.3,702.5z"/>
			</g>
			<g>
				<path class="st7" d="M271.6,863.9c3.3,2.1,6.8,3.9,10.4,5.5c3.5,1.6,7.1,3.1,10.8,4.3c7.3,2.5,14.8,4.4,22.5,5.7
					c3.8,0.5,7.6,1.2,11.5,1.5c1.9,0.2,3.9,0.4,5.8,0.5c1.9,0,3.9,0.1,5.8,0.2c7.8,0.3,15.6-0.2,23.4-0.7c-3.8,0.8-7.7,1.6-11.6,2.2
					c-3.9,0.3-7.8,1-11.8,1c-7.9,0.5-15.9-0.3-23.7-1.5c-7.8-1.4-15.5-3.5-22.8-6.6C284.6,873,277.5,869.1,271.6,863.9z"/>
			</g>
			<g>
				<path class="st7" d="M321.8,826c-3.5,2.3-7.5,3.6-11.6,4.6c-4.1,0.9-8.3,1.3-12.4,1.3c-4.2,0-8.3-0.4-12.4-1.2
					c-4.1-0.8-8.1-1.9-11.9-3.5c2.1,0.1,4.1,0.3,6.1,0.5l6.1,0.5c4,0.2,8.1,0.5,12.1,0.4c4,0,8-0.2,12-0.6
					C313.8,827.6,317.8,827.1,321.8,826z"/>
			</g>
			<g>
				<path class="st7" d="M321.3,818.2c-3.6,2.1-7.5,3.5-11.5,4.6c-4,1.1-8.2,1.6-12.4,1.8c-4.2,0.1-8.4-0.3-12.5-1.3
					c-4.1-0.9-7.9-2.8-11.4-5.1c4,1.1,7.9,2.1,11.8,2.5c4,0.4,7.9,0.7,11.9,0.5C305.3,821,313.2,819.8,321.3,818.2z"/>
			</g>
			<g>
				<path class="st7" d="M297.7,877.8c-1-8.5-0.1-17.7,4.7-25.3c2.3-3.8,5.7-7.1,9.5-9.4c3.8-2.4,8.1-3.9,12.5-4.8
					c0.6-0.1,1.1-0.2,1.7-0.3l0.8-0.1l0.2,0c-0.1,0,0.6-0.1,1,0.1c0.9,0.4,1.3,1.3,1.1,2.2c-0.1,0.5-0.5,0.9-0.8,1.1l-0.4,0.2
					l-0.3,0.2l-0.7,0.3c-0.4,0.2-0.9,0.5-1.3,0.7c-1.8,1-3.4,2.2-5,3.5c-3.1,2.6-5.7,5.9-7.8,9.5c-4.1,7.3-5.7,15.8-6.3,24.3
					c-0.3-4.3-0.4-8.6,0.2-13c0.7-4.3,1.9-8.6,3.8-12.6c1.9-4,4.7-7.6,8-10.7c1.7-1.5,3.5-2.9,5.4-4c0.5-0.3,1-0.5,1.5-0.8l0.8-0.4
					l0.4-0.2l0.1,0l0,0c0,0-0.1,0.1-0.2,0.1c-0.3,0.2-0.5,0.5-0.6,0.8c-0.1,0.7,0.1,1.3,0.8,1.6c1,0.2,0.5,0.1,0.4,0.1l-0.8,0.1
					c-0.5,0-1,0.2-1.5,0.2c-8.1,1.4-15.7,5.6-20.4,12.4c-2.4,3.3-4.2,7.2-5.1,11.3c-0.7,2-0.8,4.1-1.2,6.2
					C298,873.5,297.9,875.7,297.7,877.8z"/>
			</g>
		</g>
	</g>
	<g>
		<path class="st3" d="M236.8,355c0,0,18.1,7.6,22.6,8l21.1-8c0,0-2.2,8.3,4.1,11.4c0,0-2.3,12.9-27.4,13.2c0,0-19.7,2.4-23.3-13.2
			C233.8,366.4,238.7,365.8,236.8,355z"/>
		<path class="st4" d="M236.9,355.9c0,0,8.2,10.3,26.6,10.1c0,0,9.6,8.5-3.2,13c0,0,16.3,1.8,24.8-12.4c0,0-7.9-2.3-4.7-11.6
			l-21.1,8L236.9,355.9z"/>
	</g>
	<path class="st2" d="M233.8,366.8c0,0,5.2,0.7,3-11.8"/>
	<g>
		<g>
			<path class="st3" d="M257.9,274.3c0,0-19.2-53.8-75.3-25.7c0,0-4.5,54.2,10.3,76.9c0,0,23,26.7,66.4,37.4
				c0,0,51.2-12.5,79.5-54.8c0,0,18-71.6-41-69C297.9,239.2,257.6,248.7,257.9,274.3z"/>
		</g>
		<g>
			<path class="st4" d="M324.1,272.6c0,0-12.9-7.6-14.3-16.2c0,0,0.6,12.8,3.1,16.2c0,0-13.8-4.4-18.3-14.5c0,0-1.3,7.3-1.9,10.8
				c0,0-9-2-12.6-7.5c0,0-10.6,14.9-19.2,20.7c0,0-9.7-7.6-16.5-21.6c0,0-5.6-14.9-33.7,4.7c0,0-2.3-2.8-4.4-13.8
				c0,0-7.8,12.2-19.3,14l-4.9-1.1l0.6-15.7c0,0,45.6-34.4,75.3,25.7c0,0,4.4-41.5,59.5-33c0,0,6.5,2.8,9.6,5.6L324.1,272.6z"/>
		</g>
		<g>
			<path class="st4" d="M317.4,262.2c0,0,3.6,28.7-4.6,47.4l6.3-4.8c0,0-7.9,33.6-58.2,54.2c0,0-22-2.4-37.3-11.2
				c0,0,21.4,11.5,35.7,15.1c0,0,45.1-9.5,76.3-50.2c0,0,17.4-37.3-6.7-64.1l-5.9-4.4L317.4,262.2z"/>
		</g>
	</g>
	<g>
		<path class="st7" d="M199.2,303.1c3.1,0,6.1,0.1,9.2-0.1c3-0.1,6-0.5,8.9-1c2.9-0.5,5.8-1.3,8.5-2.2c2.7-1,5.2-2.3,7.5-3.9
			l1.6-0.5c-0.4-0.1-1.2,0.2-1.3,0.3l0.3-0.2l0.6-0.4l1.2-0.8c0.8-0.5,1.7-1,2.5-1.4c1.7-0.9,3.5-1.7,5.3-2.4
			c3.6-1.3,7.5-2.3,11.4-2.7c3.9-0.4,7.9-0.2,11.8,0.6c3.9,0.6,7.6,2.3,11.1,4l-0.5-0.2c3.3,1.2,6,2.3,9.1,3.3c3,1,6,1.8,9,2.5
			c3.1,0.6,6.1,1.1,9.2,1.1c3.1,0,6.3-0.4,9.2-1.9c-2.4,2.2-5.7,3.5-9,4.1c-3.3,0.6-6.7,0.7-10,0.5c-3.3-0.2-6.6-0.8-9.8-1.5
			c-1.6-0.4-3.2-0.7-4.8-1.2c-1.6-0.4-3.2-1-4.5-1.3l-0.1,0l-0.4-0.2c-3.1-1.3-6.3-2.4-9.6-2.9c-1.6-0.4-3.3-0.4-5-0.6
			c-1.7,0-3.3,0-5,0.2c-3.3,0.3-6.7,1-9.9,2.1c-1.6,0.6-3.2,1.2-4.7,1.9c-0.8,0.3-1.5,0.7-2.3,1.1l-1.1,0.6l-0.6,0.3l-0.3,0.2
			c-0.2,0.2-1.2,0.6-1.8,0.6l1.6-0.5c-2.9,1.8-6,2.9-9.2,3.7c-3.2,0.8-6.4,1.2-9.5,1.3c-3.2,0.1-6.3-0.1-9.4-0.5
			c-1.5-0.2-3.1-0.5-4.6-0.9L199.2,303.1z"/>
	</g>
	<g>
		<path class="st7" d="M211.8,303.3c0,0,2.7,11.3,10.9,15.9c0,0-4.8-14.8-1.7-16.1C221.1,303,216.8,304,211.8,303.3z"/>
	</g>
	<g>
		<path class="st7" d="M221,303.5c0,0,1,10.7,8.2,11.8c0,0-4.7-10.6-1.2-13.4C228.1,302,224,303.6,221,303.5z"/>
	</g>
	<g>
		<path class="st7" d="M297.9,299.7c0,0-2.6,10.8-10.4,15.2c0,0,4.6-14.2,1.6-15.4C289,299.4,293.1,300.4,297.9,299.7z"/>
	</g>
	<g>
		<path class="st7" d="M289.1,299.9c0,0-0.9,10.2-7.8,11.3c0,0,4.5-10.1,1.2-12.8C282.3,298.4,286.3,300,289.1,299.9z"/>
	</g>
	<g>
		<path class="st7" d="M259.3,364.7l-0.4-0.1c-56.6-15.4-81.9-55.1-82.2-55.5l2.8-1.8c0.2,0.4,24.8,38.8,79.8,54
			c4.9-1.4,50.2-15.3,75.4-50.9l2.7,1.9c-27.2,38.5-77.1,52.2-77.6,52.3L259.3,364.7z"/>
	</g>
	<g>
		<path class="st7" d="M214.4,253.9c1.2-0.8,2.7-1.2,4.1-1.4c1.4-0.2,2.9,0,4.3,0.3c2.8,0.7,5.5,2.5,6.5,5.3
			c-1.5-0.4-2.6-0.8-3.8-1.1c-1.2-0.3-2.3-0.7-3.5-1C219.5,255.4,217.1,254.9,214.4,253.9z"/>
	</g>
	<g>
		<path class="st7" d="M287,258.2c0.7-1.3,1.8-2.3,3-3.1c1.2-0.8,2.5-1.3,3.9-1.7c2.8-0.6,6-0.3,8.2,1.7c-1.5,0.3-2.7,0.5-3.9,0.7
			c-1.2,0.3-2.4,0.4-3.6,0.8C292.2,257.2,289.9,257.8,287,258.2z"/>
	</g>
	<g>
		<path class="st7" d="M187.5,248c0,0,20.9-7.8,40.9,5.5C228.4,253.6,233.9,235.8,187.5,248z"/>
	</g>
	<g>
		<path class="st7" d="M326.8,248.5c0,0-20.7-8.3-41,4.7C285.8,253.2,280.7,235.3,326.8,248.5z"/>
	</g>
	<g>
		<g>
			<g>
				<path class="st7" d="M246.1,277.6c0,0-14.8-29.3-50.2-14.2c0,0-3.7,5.4,0.6,14.9c0,0-7.1-3.4-5.2-19.2
					C191.3,259.1,228.6,243.5,246.1,277.6z"/>
			</g>
			<g>
				<path class="st8" d="M246.1,277.7c0,0,2,7.3-7.7,10.9c0,0-19.4,12-35.5-0.8c0,0-11.8-11.1-9-24.8c0,0,19.9-9.1,34.6-1.6
					C228.6,261.4,238.7,264.1,246.1,277.7z"/>
			</g>
			<g>
				<path class="st9" d="M246.1,277.6c0,0-18.1-27.2-49.6-10.7c0,0-1.8,5-0.1,11.4c0,0-4.5-6-2.5-15.4c0.1-0.5-0.4-0.3-0.4-0.3
					S227.1,244.9,246.1,277.6z"/>
			</g>
		</g>
		<g>
			<g>
				<path class="st7" d="M270.3,277.6c0,0,14.8-29.3,50.2-14.2c0,0,3.7,5.4-0.6,14.9c0,0,7.1-3.4,5.2-19.2
					C325.1,259.1,287.9,243.5,270.3,277.6z"/>
			</g>
			<g>
				<path class="st8" d="M270.5,277.7c0,0-3.4,7.5,6.3,11.2c0,0,20.8,11.7,36.9-1.1c0,0,11.8-11.1,9-24.8c0,0-19.9-9.1-34.6-1.6
					C288,261.4,277.9,264,270.5,277.7z"/>
			</g>
			<g>
				<path class="st9" d="M270.1,277.4c0,0,18.3-27,50.3-10.6c0,0,1.8,4.9,0.1,11.3c0,0,4.5-6,2.5-15.2c-0.1-0.5,0.4-0.3,0.4-0.3
					S289.5,245.1,270.1,277.4z"/>
			</g>
		</g>
	</g>
	<g>
		<g>
			<ellipse class="st10" cx="221.8" cy="272.6" rx="9.9" ry="13.7"/>
		</g>
		<g>
			<path class="st11" d="M223.7,259.1c0,0-6.8-2.3-10.5,6.8c0,0-2.1,3-1.3,11.2c0,0,2.3-1.8,5.8-2.8c0.1,3.1,1.9,5.6,4.2,5.6
				c2.3,0,4.1-2.6,4.2-5.7c1.7,0.4,3.4,1.2,5.2,2.5C231.2,276.6,234.9,263.6,223.7,259.1z"/>
		</g>
		<g>
			<ellipse class="st7" cx="221.8" cy="272.6" rx="3.2" ry="6.1"/>
		</g>
		<g>
			<circle class="st8" cx="217.9" cy="264.2" r="2.9"/>
		</g>
		<g>
			<circle class="st8" cx="226.5" cy="280.8" r="2.1"/>
		</g>
		<g>
			<path class="st7" d="M221.7,287.1c-5.9,0-10.7-6.5-10.7-14.5c0-8,4.8-14.5,10.7-14.5s10.7,6.5,10.7,14.5
				C232.4,280.5,227.6,287.1,221.7,287.1z M221.7,259.7c-5,0-9,5.8-9,12.8s4.1,12.8,9,12.8c5,0,9-5.8,9-12.8
				S226.6,259.7,221.7,259.7z"/>
		</g>
	</g>
	<g>
		<g>
			<ellipse class="st10" cx="295" cy="272.6" rx="9.9" ry="13.7"/>
		</g>
		<g>
			<path class="st11" d="M293.1,259.2c0,0,6.8-2.3,10.5,6.8c0,0,2.1,3,1.3,11.2c0,0-2.3-1.8-5.8-2.8c-0.1,3.1-1.9,5.6-4.2,5.6
				c-2.3,0-4.1-2.6-4.2-5.7c-1.7,0.4-3.4,1.2-5.2,2.5C285.6,276.6,281.9,263.7,293.1,259.2z"/>
		</g>
		<g>
			<ellipse class="st7" cx="295.4" cy="272.6" rx="3.2" ry="6.1"/>
		</g>
		<g>
			<circle class="st8" cx="291.6" cy="264.2" r="2.9"/>
		</g>
		<g>
			<circle class="st8" cx="299.4" cy="280.8" r="2.1"/>
		</g>
		<g>
			<path class="st7" d="M295,287.1c-5.9,0-10.7-6.5-10.7-14.5c0-8,4.8-14.5,10.7-14.5c5.9,0,10.7,6.5,10.7,14.5
				C305.7,280.5,300.9,287.1,295,287.1z M295,259.7c-5,0-9,5.8-9,12.8s4.1,12.8,9,12.8c5,0,9-5.8,9-12.8S300,259.7,295,259.7z"/>
		</g>
	</g>
	<g>
		<g>
			<path class="st8" d="M244.3,324.8c0,0,19.3,5.9,35.2-1.5c0,0-5.5,17.2-19.7,15.1C259.9,338.5,250.3,338.6,244.3,324.8z"/>
		</g>
		<g>
			<path class="st9" d="M244.3,324.8c0,0,15.3,7.7,28.4,3.1c0,0,1.3,4.1-4.7,2.3l-2.1,2.8l-1.8-2.2l1.7,3.8c0,0,1.4-1,2.8-2.7
				c0,0,3.8,1.3,5.9-0.1c0,0,4.4-5,4.8-8.2C279.4,323.7,256.6,330.3,244.3,324.8z"/>
		</g>
		<g>
			<path class="st7" d="M244.3,324.8c5.9,1.3,12,1.3,17.9,0.9c2.9-0.3,5.9-0.7,8.8-1.4c2.9-0.7,5.7-1.5,8.5-2.5l3.5-1.2l-1.5,3.4
				c-1.5,3.4-3.4,6.4-5.8,9.2c-2.4,2.7-5.4,5.2-9.2,6.2c-3.8,1-7.6,0.3-10.9-1.2c-3.3-1.6-6-4.1-7.7-7.2c2.3,2.6,5.2,4.7,8.3,5.6
				c1.6,0.5,3.2,0.8,4.8,0.8c1.6,0,3.2-0.1,4.7-0.6c3-1,5.4-3.2,7.5-5.7c2.1-2.5,3.9-5.5,5.2-8.4l2,2.2c-3,0.9-5.9,1.9-9,2.3
				c-3,0.6-6.1,0.8-9.2,0.9c-3.1,0.1-6.2-0.2-9.2-0.7C250.1,326.9,247.1,326.2,244.3,324.8z"/>
		</g>
		<g>
			<path class="st7" d="M264.2,331c0.8,0.7,1.5,1.4,2.2,2.1l-0.9,0c0.6-1,1.3-2.1,2-3l0.3-0.5l0.6,0.2c0.5,0.2,1.2,0.3,1.8,0.3
				c0.7,0,1.4,0.1,2,0c1.4,0,2.8-0.3,4.3-0.6c-1.2,0.9-2.6,1.5-4.1,1.9c-0.8,0.1-1.5,0.3-2.3,0.2c-0.8,0-1.6-0.1-2.4-0.5l1-0.2
				c-0.7,0.9-1.6,1.8-2.4,2.7l-0.5,0.5l-0.3-0.5C265.1,332.9,264.6,332,264.2,331z"/>
		</g>
	</g>
	<g>
		<g>
			<path class="st7" d="M224,271.4l2.5-20.6l-15.9,16.5l-2.5-22.3l-9.7,17.1v-14.3c-2.5,5.5-7.5,15.4-12.5,18.8l-0.9-1.4
				c6.5-4.4,13.4-21.5,13.5-21.7l1.6-4v16.3l9.1-16l2.7,23.9l16.9-17.6l-2.5,20.3l12.4-14l1.2,1.1L224,271.4z"/>
		</g>
		<g>
			<path class="st7" d="M292.1,270.4l-15.9-18l1.2-1.1l12.4,14l-2.4-20.3l16.9,17.6l2.7-23.9l9.1,16v-16.3l1.6,4
				c0.1,0.2,7,17.3,13.5,21.7l-0.9,1.4c-5-3.4-10-13.3-12.5-18.8V261L308,244l-2.5,22.3l-15.9-16.5L292.1,270.4z"/>
		</g>
		<g>
			<polygon class="st7" points="226.7,368.5 208.9,351.6 208.9,361.7 190.1,338 191.4,337 207.3,357 207.3,347.8 226.7,366.2 
				236.8,357.6 237.8,358.9 			"/>
		</g>
		<g>
			<polygon class="st7" points="295.2,368.5 279.9,355.6 281,354.4 295.1,366.2 314.6,347.8 314.6,356.7 337.9,323.2 339.3,324.2 
				312.9,362 312.9,351.6 			"/>
		</g>
		<g>
			<g>
				<path class="st7" d="M241.4,250.9l-16.3,17.9l2.5-20.5l-16.4,17.1l-2.6-23.1l-9.4,16.6v-15.1c0,0-6.3,16.1-12.7,21.2
					c0,0,4.1,37.2,11.7,44.7c0,0-11.6-9.3-12.5-10.9c0,0,7.4,25.3,8.4,28.1c0,0,30.2,26.7,42.6,28.1l0.2,3.6l-10.2,8.8l-18.6-17.6
					v9.6l-17.3-21.8l2.9,10.4c0,0-14.9-9.3-19.7-29.9l-1.5,9.9c0,0-10.1-19.6-13.1-41.7c0,0-1.8-19.3,1-29.5c2.8-10.2,10-20,10-20
					S228.7,228.8,241.4,250.9z"/>
			</g>
			<g>
				<path class="st7" d="M352.2,268c0,0,16-41.6-36.2-36.6c0,0-34.9,3.6-42.2,17l17.1,19.5l-2.5-20.5l16.4,17.1l2.6-23.1l9.4,16.6
					v-15.1c0,0,3.1,9.3,8.8,16.7c0,0-2.6,35.3-11.7,49.5l12.4-10.5l-11.1,35.1c0,0-22.6,18.6-34.7,21.5l14.3,12l19-17.3v9.6
					c0,0,20.1-28.3,24.9-36.3l0.5,4.3c0,0,8.9-17,11-29.1c2.2-12.2,3.1-13.5,2.6-21.8"/>
			</g>
		</g>
	</g>
	<g>
		<g>
			<g>
				<path class="st0" d="M160.2,235.6c0,0-10,6.2-32.9,4.9c0,0-16.3-0.7-22.7,17.6c0,0,4.2-36,35.5-52.2c0,0-47.7-0.6-70.1-29.3
					c0,0,14.2,6.9,31.9-3.6c0,0,26.1-9.4,51-8.5c0,0-13.9-0.9-28.2-35.7c0,0-1-10.1-28.7-21.4c0,0,30.9-2.3,62.9,13.6
					c0,0-15.6-12.6-15.7-26.7c0,0-2.1-24.7-26.7-35.5c0,0,28.7,1.5,60,27.4c0,0,17.2,13.1,33.3,36.9c0,0-12.9-31.6-15.1-50.8
					c0,0-1.5-23.4-19.1-38.7c0,0,27.8,9.8,43.9,28.6c0,0,13.8,13.5,16.8,30.6c0,0,3.8-24.9,17.8-44.4c0,0,18.9-18.2,15.4-39.7
					c0,0,10.2,11.4,12.2,36.8c2,25.5-1.4,42.4-1.4,42.4S288,53.2,339,33.8c0,0-16.8,17.3-17.6,34.9s-13.3,49.1-18,57.5
					c0,0,27.4-39.8,57.8-54.8c0,0,16.5-9.6,38.1-12.5c0,0-22.9,7.6-26.7,35.5c0,0,0.3,13.9-15.9,26.2c0,0,24.5-13.1,64.4-13.8
					c0,0-24.4,9-28.5,18.7c-4.1,9.8-12.2,32-28.7,38.9c0,0,21.3-1.1,48.4,7.9c0,0,19.3,12.4,33.8,3.3c0,0-15,26.9-69.3,30.4
					c0,0,27.8,16,33.1,48.9c0,0-7-15.8-22.8-14.3s-28.7-3.5-28.7-3.5L160.2,235.6z"/>
			</g>
			<g>
				<g>
					<path class="st1" d="M266.9,4.9c0,0,19,26.1-4,65.8s-4.8,55.2-4.8,55.2l12.8,1.3C270.8,127.2,300.7,43.4,266.9,4.9z"/>
				</g>
				<g>
					<path class="st1" d="M270.8,127.2c0,0,17.5-63.9,70.2-94.3c0,0-16.1,13.6-18.8,31.2s0.3,33.5-27.6,75.2L270.8,127.2z"/>
				</g>
				<g>
					<path class="st1" d="M400.6,59c0,0-71.7,25.2-106,80.2l22.8,15.8c0,0,19-24.7,39.2-34.6c0,0,15.1-11.9,15.9-24.2
						C373.3,84.1,381.4,65,400.6,59z"/>
				</g>
				<g>
					<path class="st1" d="M347.6,236.9c0,0,25.5,5.2,42.4,3.5c0,0,17.6,0.6,22.2,21c0,0-7.1-42.9-36.5-55.5c0,0,52.6-1.7,71.6-31.6
						c0,0-8.3,11.2-34-1.6c-25.7-12.8-49.9-8-49.9-8s14.6-4.3,26.1-32.3c0,0,0.9-16,32.2-25.8c0,0-32.2-2.2-65.1,13.8
						s-39.2,34.6-39.2,34.6S351.3,181.5,347.6,236.9z"/>
				</g>
				<g>
					<path class="st1" d="M175.8,33.7c0,0,54.9,14.2,53.7,97.4l10.4-5.3c0,0-4.3-12.5-3.3-33C236.6,92.8,231.8,54.7,175.8,33.7z"/>
				</g>
				<g>
					<path class="st1" d="M104.6,258.1c0,0,1.3-30.9,54.5-33.8l-0.8,12.4c0,0-6,4.4-31.1,3.8C127.3,240.5,110.6,239.7,104.6,258.1z"
						/>
				</g>
				<g>
					<path class="st1" d="M70,176.6c0,0,17.8,28.6,70.1,29.3c0,0,11.2-5.3,23.9-4.3c0,0-4.4-15.9-45.4-4.9
						C118.6,196.7,88.1,195.5,70,176.6z"/>
				</g>
				<g>
					<path class="st1" d="M94.1,106.7c0,0,32.6-0.7,49.2,28.3s45.4,29.6,45.4,29.6l-10,9.9c0,0-15.6-10.5-27.8-10
						c0,0-15-4.2-26.9-37.9C123.9,126.6,122.3,117.5,94.1,106.7z"/>
				</g>
				<g>
					<path class="st1" d="M118,59c0,0,24.8,3.5,40,39.7s53.5,28.5,53.5,28.5L191,148c0,0-14.9-20-32-27c0,0-16.8-14.6-15.9-27.7
						C143.1,93.3,142.9,73,118,59z"/>
				</g>
			</g>
			<g>
				<g>
					<path class="st7" d="M410.6,261.7c-0.2-0.8-4.6-20.3-23.6-19.6c-20.8,1-29.9-3.8-30.3-4l1.6-2.9c0.1,0,8.9,4.5,28.6,3.6
						c9.6-0.4,15.8,3.7,19.9,8.4c-16.4-49.1-53-44.3-54.7-44.1l-0.5-3.3c0.5-0.1,48.2-6.4,62.3,61.1L410.6,261.7z"/>
				</g>
				<g>
					<path class="st7" d="M375.8,207.6l-0.2-3.3c37.3-1.8,56.8-16.1,65.2-24.6c-12.3,3.3-27.3-4.9-29.2-6
						c-53.4-16.3-67.2-0.6-67.3-0.5l-2.6-2.1c0.6-0.7,14.9-17.8,71.1-0.5l0.3,0.2c0.2,0.1,21.9,12.6,33.2,2.4l7.9-7.1l-5.4,9.2
						C448.1,176.4,430.7,205,375.8,207.6z"/>
				</g>
				<g>
					<path class="st7" d="M363.3,166.2l-0.8-3.2c12.6-3.1,24-25.8,27.6-36.3c2.6-7.5,14.2-14.1,22.5-18
						c-68.5,4.5-87.6,42.3-87.8,42.7l-3-1.4c0.9-1.8,21.9-43.3,99.9-44.9l10-0.2l-9.4,3.4c-7.1,2.6-26.2,11.1-29.1,19.5
						C390.2,136.5,378.3,162.4,363.3,166.2z"/>
				</g>
				<g>
					<path class="st7" d="M238.9,127.9c-0.2-0.4-15.5-37.4,14.1-80.4c0.4-0.4,21.5-22.1,13.8-39.9L263.4,0l6,5.8
						c1.3,1.2,30.8,31.2,3,121.9l-3.2-1c20-65.2,9.5-98.6,2.5-111.7c0.7,17.2-15.4,33.7-16.2,34.5c-28.3,41.2-13.7,76.6-13.6,77
						L238.9,127.9z"/>
				</g>
				<g>
					<path class="st7" d="M298.8,138.2l-2.9-1.7c0.2-0.4,20.7-35.5,23.2-63.2c1.5-17.4,8.6-28.8,14.1-35.2
						c-46.8,21.7-52.2,54.7-52.3,55l-3.3-0.5c0.2-1.6,6.2-39.1,62.8-61.2l13.6-5.3l-12,8.2c-0.2,0.1-17.1,12-19.5,39.3
						C319.9,102.1,299.7,136.7,298.8,138.2z"/>
				</g>
				<g>
					<path class="st7" d="M297.6,140l-3-1.5c0.4-0.8,38.3-75.9,109.9-81.9l0,0c0,0,0,0,0,0l0.2,3.3c-0.1,0-0.2,0-0.3,0
						c-2.6,0.3-23.8,3.3-30.3,34.6c0,2-0.7,15.9-19.4,29.5l-1.9-2.7c18.4-13.4,18.1-26.8,18.1-26.9l0-0.2l0-0.2
						c3.6-17.5,11.8-26.8,19.3-31.8C329.8,76,297.9,139.3,297.6,140z"/>
				</g>
				<g>
					<path class="st7" d="M105.2,261.7L102,261c14.1-67.5,61.8-61.2,62.3-61.1l-0.5,3.3c-1.7-0.2-38.3-5-54.7,44.1
						c4.1-4.8,10.4-8.9,19.9-8.4c19.7,0.9,28.5-3.6,28.6-3.6l1.6,2.9c-0.4,0.2-9.5,5-30.3,4C110,241.4,105.4,260.9,105.2,261.7z"/>
				</g>
				<g>
					<path class="st7" d="M140,207.6c-54.9-2.6-72.3-31.2-73-32.4l-5.4-9.2l7.9,7.1c11.3,10.1,33-2.3,33.2-2.4l0.3-0.2
						c56.1-17.2,70.5-0.2,71.1,0.5l-2.6,2.1l1.3-1l-1.3,1c-0.1-0.2-13.9-15.9-67.3,0.5c-1.9,1.1-16.9,9.3-29.2,6
						c8.4,8.5,27.9,22.8,65.2,24.6L140,207.6z"/>
				</g>
				<g>
					<path class="st7" d="M152.6,166.2c-15-3.7-26.9-29.6-30-38.4c-2.9-8.5-22-17-29.1-19.5l-9.4-3.4l10,0.2
						c78,1.6,99,43.1,99.9,44.9l-3,1.4c-0.2-0.4-19.5-38.2-87.8-42.7c8.3,3.9,19.9,10.5,22.5,18c3.6,10.5,15.1,33.1,27.6,36.3
						L152.6,166.2z"/>
				</g>
				<g>
					<path class="st7" d="M217,138.2c-0.9-1.5-21.1-36.1-23.6-64.6C191,46.3,174,34.4,173.9,34.3l-12-8.2l13.6,5.3
						C232,53.5,238,91,238.2,92.6l-3.3,0.5c-0.1-0.3-5.4-33.3-52.3-55c5.5,6.4,12.5,17.8,14.1,35.2c2.5,27.8,23,62.9,23.2,63.2
						L217,138.2z"/>
				</g>
				<g>
					<path class="st7" d="M218.2,140c-0.3-0.7-32.3-64-92.6-77.8c7.4,5,15.6,14.3,19.3,31.8l0,0.2l0,0.2c0,0.1-0.3,13.6,18.1,26.9
						l-1.9,2.7c-18.8-13.6-19.5-27.5-19.4-29.5c-6.5-31.2-27.7-34.3-30.3-34.6c-0.1,0-0.2,0-0.3,0l0.2-3.3c0,0,0,0,0,0l0,0
						c71.6,6,109.5,81.2,109.9,81.9L218.2,140z"/>
				</g>
			</g>
			<g>
				<g>
					<path class="st2" d="M200.8,151.4"/>
				</g>
				<g>
					<path class="st12" d="M195.6,134.5c0,0,47.4-23.4,63.1-20.6c0,0,47.2,9.5,62,21.2c0,0,5,18.6,14.9,27.9c0,0,42.4,25.4,29.6,76
						c0,0-82-15-107.3,35.3c0,0-15.3-49.1-107.1-35.6c0,0-16.7-39.8,26.2-72.7C177.1,166,192,153.9,195.6,134.5z"/>
				</g>
				<g>
					<path class="st13" d="M150.9,238.8c0,0,72-17,108.5,19.9c0,0,33.4-36.4,78.1-36c0,0,7.9-47.7-43.2-55.9
						c0,0,10.9-39.9-35.5-52.9c0,0,44.3,8.2,62,21.2l-2,0.4c0,0,12.8,29.6,23.6,33.7c0,0,34.4,22.1,22.9,69.8
						c0,0-83.3-15.3-107.3,35.3C257.9,274.3,240.8,226.8,150.9,238.8z"/>
				</g>
				<g>
					<path class="st8" d="M195.6,134.5c0,0,25.7-0.8,38.4,44.6c0,0-27.7-20.2-51-19.3C183,159.8,191.4,148.4,195.6,134.5z"/>
				</g>
				<g>
					<path class="st8" d="M320.2,134.5c0,0,9.5,21.6,12.6,25.3c0,0-31.7,2.3-51.9,20.3C280.9,180.1,290.1,140.1,320.2,134.5z"/>
				</g>
				<g>
					<path class="st9" d="M233,179.1c0,0-10.3-39.8-39.6-39.9l2.3-4.7C195.6,134.5,226.1,139.4,233,179.1z"/>
				</g>
				<g>
					<path class="st11" d="M194.9,134.9c0,0-5.5,21.5,5.1,22.5c0,0,9.4-3.6,5.2-19.4l6.9,3.8c0,0,2.2,22.5-12.5,20.2
						C199.7,162.1,185.5,153.7,194.9,134.9z"/>
				</g>
				<g>
					<path class="st9" d="M320.7,135.1c0,0-32,4.9-39.1,44.6c0,0,10.8-39.8,41.5-39.9"/>
				</g>
				<g>
					<path class="st11" d="M303.7,142c0,0-1.7,25.3,14.1,18.6c0,0,8.2-4.1,6-17l-1.9-4.9c0,0,3.4,17.9-5.1,18.5
						c0,0-7.1,0.5-6.9-11.9l0.2-7.3L303.7,142z"/>
				</g>
				<g>
					<g>
						<path class="st7" d="M258,275.9l-1.3-2.5c24.3-47.3,95.8-38.3,107.1-36.6c6.5-24.8-0.9-47.9-21-65.2c-0.5-0.5-0.9-0.8-1.1-1
							c-10.6-7.7-17.9-19.1-21.5-33.8c-0.1-0.2-0.1-0.4-0.1-0.6c-18.1-10.5-40.2-17.9-62.3-20.9l0.4-3.3
							c22.8,3.1,45.5,10.8,64.1,21.6l0.4,0.3c0.4,0.4,0.5,0.7,0.8,2.1c3.4,14,10.3,24.8,20.4,32.1l0.4,0.4c0.2,0.1,0.4,0.3,0.7,0.6
							c21.5,18.5,29.2,43.3,21.7,70l-0.4,1.5l-1.5-0.3C363.9,240.2,283.1,227,258,275.9z"/>
					</g>
					<g>
						<path class="st7" d="M279.2,184.2l0.8-4.4c0.1-0.4,7.8-39.9,39.9-46.9l1.4-0.3l0.5,1.3c0.1,0.2,6.9,18.3,12.3,24.8l0.4,0.5
							l0,0.6c0,1.6-1.5,1.7-2.9,1.8c-21.4,1-38.4,11.3-48.9,19.8L279.2,184.2z M319.2,136.4c-22.6,5.8-31.8,29.4-34.8,39.4
							c10.7-7.8,26.3-16.2,45.3-17.5C325.3,151.7,320.7,140.3,319.2,136.4z"/>
					</g>
					<g>
						<path class="st7" d="M313.8,163.7c-0.3,0-0.6,0-0.8-0.1c-3.1-0.4-5.5-1.8-7.4-4.1c-5-6.4-3.4-17.9-3.3-18.4l3.3,0.5
							c0,0.1-1.5,10.6,2.6,15.9c1.3,1.7,3.1,2.7,5.5,2.9l0.4,0c1-0.2,3.6-1.3,5.6-3.7c2.5-3.1,3.3-7.3,2.3-12.6l3.3-0.6
							c2,10.5-2.7,15.7-5.6,17.9C317.9,162.6,315.4,163.7,313.8,163.7z"/>
					</g>
					<g>
						<path class="st7" d="M316.1,159c-0.4,0-0.9-0.1-1.2-0.2l0,0c-8.8-2.6-6.5-19-6.2-20.8l3.3,0.5c-0.6,3.9-1.3,15.5,3.8,17.1
							c0.2,0,1.5,0.1,2.6-1c1.4-1.3,3.4-5.3,1.6-16.7l3.3-0.5c1.8,11.3,0.5,18.3-4,20.7C318.3,158.7,317.1,159,316.1,159z"/>
					</g>
					<g>
						<path class="st7" d="M258,275.9c-25.2-49-106-35.7-106.8-35.6l-1.5,0.3l-0.4-1.5c-7.6-26.7,0.1-51.5,21.7-70
							c0.3-0.3,0.6-0.5,0.7-0.6l0.1-0.2l0.3-0.2c10.1-7.3,16.9-18.1,20.4-32.1c0.3-1.3,0.4-1.6,0.8-2l0.4-0.3
							c18.6-10.9,41.3-18.6,64.1-21.6l0.4,3.3c-12.9,1.7-38,6.8-62.3,20.9c0,0.2-0.1,0.4-0.1,0.6c-3.6,14.7-10.8,26.1-21.5,33.8
							c-0.2,0.2-0.5,0.5-1.1,1c-20.1,17.3-27.6,40.4-21,65.2c11.3-1.7,82.7-10.9,107,36.4L258,275.9z"/>
					</g>
					<g>
						<path class="st7" d="M236.7,184.2l-3.5-2.8c-10.5-8.5-27.6-18.8-48.9-19.8c-1.3-0.1-2.9-0.1-2.9-1.7l0-0.6l0.4-0.5
							c5.4-6.5,12.3-24.7,12.3-24.8l0.5-1.3l1.4,0.3c32,7,39.8,46.5,39.9,46.9L236.7,184.2z M186.1,158.4c19,1.3,34.6,9.7,45.3,17.5
							c-3-10-12.2-33.7-34.8-39.4C195.1,140.3,190.5,151.6,186.1,158.4z"/>
					</g>
					<g>
						<path class="st7" d="M202,163.7c-1.6,0-4.1-1.1-5.8-2.4c-2.9-2.2-7.6-7.4-5.6-17.9l3.3,0.6c-1,5.3-0.2,9.5,2.3,12.6
							c2,2.5,4.6,3.5,5.6,3.7l0.4,0c2.3-0.2,4.1-1.2,5.5-2.9c4.1-5.3,2.6-15.8,2.6-15.9l3.3-0.5c0.1,0.5,1.7,12-3.3,18.4
							c-1.8,2.3-4.3,3.7-7.4,4.1C202.6,163.7,202.3,163.7,202,163.7z"/>
					</g>
					<g>
						<path class="st7" d="M199.7,159c-1,0-2.2-0.3-3.2-0.8c-4.5-2.5-5.8-9.5-4-20.7l3.3,0.5c-1.8,11.4,0.2,15.4,1.6,16.7
							c1.1,1.1,2.4,1,2.6,1c5.1-1.6,4.4-13.2,3.8-17.1l3.3-0.5c0.3,1.9,2.7,18.2-6.2,20.8l0,0C200.5,158.9,200.1,159,199.7,159z"/>
					</g>
				</g>
			</g>
		</g>
		<g>
			<g>
				<path class="st14" d="M155.1,233c0,0,12.3,0.3,16.5,7.8l7.1,10.3c0,0,5.9,14.6,5.8,20.6c0,0,3.9,50.1-24.2,43.8
					c0,0,3.6,19.8,24.6,46c0,0,2.1,10.9-16.4,10.3c0,0-9-1.7-16.6-28c0,0-3.3-25.8-0.9-33.5l-1.1-1c0,0-5,21.5,0.5,66
					c0,0-9.2,8.6-28.8-11.8c0,0-5.3-13.2,2.5-27.3s15.8-35.9,18.7-36.1l-0.4-0.9c0,0-12.5,3.1-35.4,40.3c0,0-13.4-1.3-14.4-29.4
					c0,0,2.1-22.1,45-24.9C137.5,285.2,126.1,239.6,155.1,233z"/>
			</g>
			<g>
				<path class="st15" d="M141.5,296.6c0,0-26.5,11-40.3,38.2c0,0,3.4,4.1,5.6,4.6c0,0,26.4-40.4,35.4-40.3L141.5,296.6z"/>
			</g>
			<g>
				<path class="st15" d="M147.3,306.6c0,0-22.5,62-7.3,69.7c0,0,6.8,2.7,9.3-0.4l1,0.1c0,0-6.7-61.2-0.5-66.7L147.3,306.6z"/>
			</g>
			<g>
				<path class="st15" d="M160.2,316.4l-8-5c0,0-2.2,51.6,30.7,55.5l2.5-4.6C185.4,362.3,162.2,328.8,160.2,316.4z"/>
			</g>
			<g>
				<path class="st15" d="M153.6,233.4c0,0,19.5,28.8,18.3,49.8c0,0,0,44.9-29.6,15.1c0,0,5.5,18.3,23.3,18c0,0,14.7,3.5,19.8-29.1
					c0,0,0.5-47.2-25.8-54.2L153.6,233.4z"/>
			</g>
			<g>
				<g>
					<path class="st7" d="M107.1,341.1c-0.2,0-0.4,0-0.6-0.1c-13.4-5.9-15.1-22.6-15.6-28.1c0-0.3-0.1-0.6-0.1-0.8l-0.2-0.2l0.1-0.8
						c3.8-27.1,45-27.5,47.1-27.5c0,0,0,0,0,0l0,3.3l0,0c-0.4,0-40,0.3-43.8,24.3c0.1,0.3,0.1,0.8,0.2,1.4
						c0.5,4.8,1.9,19.2,12.2,24.7c0.1-0.2,0.3-0.4,0.5-0.7c15.7-24.4,27.2-37.1,35.2-39.1l0.8,3.2c-4.8,1.2-14.5,8.6-33.1,37.6
						C108.2,340.5,107.8,341.1,107.1,341.1z"/>
				</g>
				<g>
					<path class="st7" d="M145.3,378.8c-10.8,0-22.9-11.3-23.1-11.5c-15.2-15.7,17.6-66,19-68.1l2.8,1.8
						c-9.1,13.9-30.5,52.6-19.4,64c1.8,1.9,15.5,13.2,24,10c-0.1-1-0.2-2.7-0.4-4.6c-2.4-24.9-4.6-54.4,0.2-61.9l2.8,1.8
						c-4.8,7.5-1,46.9,0.3,59.8c0.7,6.7,0.7,6.7-0.2,7.3C149.3,378.4,147.3,378.8,145.3,378.8z"/>
				</g>
				<g>
					<path class="st7" d="M170.8,373.8c-2.4,0-4.9-0.9-7.2-2.6c0,0-2.5-1.9-3.4-3.5l0,0c-16.3-21.1-11.6-56.8-11.3-58.3l3.3,0.5
						c0,0.4-4.8,35.8,10.7,55.9l0.3,0.5c0.9,1.1,4.8,5.4,9.8,3.9c2.8-0.7,9.8-3.4,10.7-7.4c-0.1-0.1-0.2-0.2-0.3-0.4
						c-11.4-15.7-24.9-36.7-24.9-47l3.3,0c-0.1,7.2,8.8,23.6,24.2,45c0.6,0.9,1.2,1.7,0.9,2.5c-1.1,7.3-12.7,10.3-13.2,10.4
						C172.8,373.6,171.8,373.8,170.8,373.8z"/>
				</g>
			</g>
			<g>
				<g>
					<path class="st7" d="M149.4,269.1C149.5,269.1,149.5,269.1,149.4,269.1c0.1,0.3,0,0.5,0,0.5l-1.3,0.2c-0.2,0-0.4,0.1-0.4,0.4
						c-0.2,2.7-0.2,5.6-0.1,9c0.1,5.3,1.6,7.9,3.9,7.8c2.6-0.1,3.4-2.2,3.3-8.2c-0.1-3.1-0.2-6.8-0.5-8.8c0-0.3-0.2-0.4-0.4-0.4
						l-1.4-0.2c-0.1,0-0.2-0.2-0.2-0.4c0-0.1,0-0.1,0.1-0.1l7.1-0.2c0.1,0,0.1,0,0.1,0.1c0,0.2-0.1,0.4-0.2,0.4l-0.9,0.2
						c-0.2,0.1-0.3,0.2-0.3,0.4c0.2,2.2,0.6,4.9,0.7,8.8c0.1,5.9-3,8.8-8.1,9c-4.4,0.1-7.7-1.4-7.9-8.3c-0.1-3.8,0.4-7.9,0.4-8.9
						c0.1-0.3-0.1-0.4-0.4-0.5l-1-0.2c-0.1,0-0.2-0.2-0.2-0.4c0-0.1,0-0.1,0.1-0.1L149.4,269.1z"/>
				</g>
				<g>
					<path class="st7" d="M161.9,279.2c-0.1-3.9,1.5-6.7,3.3-8.3c1.8-1.6,4.2-2.5,7.1-2.6c1.5,0,2.6,0.1,3.3,0.5
						c0.1,0.1,0.2,0.1,0.2,0.3l0.4,4.2c0,0.1-0.3,0.3-0.4,0.3c0,0-0.1,0-0.1-0.1c-0.6-1.2-1.3-2.7-1.8-3.6c-0.1-0.2-0.3-0.4-0.5-0.6
						c-0.2-0.2-0.6-0.4-1.2-0.4c-1.2,0-2.4,0.7-3.4,1.9c-1.5,1.9-2.3,4.6-2.2,7.9c0.1,5.1,3,7.1,5.7,7.1c0.6,0,1.3-0.1,1.7-0.2
						c0.8-0.2,1.7-0.5,2.6-0.9c0.1,0,0.2,0.1,0.2,0.4c0,0.1,0,0.1-0.1,0.2c-0.7,0.4-2.2,1.1-3.3,1.5c-0.5,0.2-1.6,0.4-2.6,0.4
						C166.1,287.3,162.1,285.2,161.9,279.2L161.9,279.2z"/>
				</g>
			</g>
			<g>
				<path class="st7" d="M164.3,319c-6.3,0-12.7-3.8-18.1-10.8c-5.8-7.6-9.9-18.1-11.5-29.7c-1.6-11.6-0.5-22.8,3-31.7
					c3.7-9.2,9.6-14.8,16.6-15.8c7-1,14.2,2.8,20.2,10.6c5.8,7.6,9.9,18.1,11.5,29.7l0,0c3.4,24.2-5.4,45.5-19.6,47.4
					C165.7,319,165,319,164.3,319z M156.5,234.3c-0.6,0-1.1,0-1.7,0.1c-5.8,0.8-10.8,5.7-14,13.7c-3.3,8.3-4.3,19-2.8,30
					c1.5,11,5.4,21,10.9,28.1c5.3,6.9,11.3,10.2,17.2,9.4c12.3-1.7,19.9-21.3,16.8-43.7l0,0c-1.5-11-5.4-21-10.9-28.1
					C167.1,237.6,161.7,234.3,156.5,234.3z"/>
			</g>
			<g>
				<path class="st14" d="M357.4,233c0,0-12.3,0.3-16.5,7.8l-7.1,10.3c0,0-5.9,14.6-5.8,20.6c0,0-3.9,50.1,24.2,43.8
					c0,0-3.6,19.8-24.6,46c0,0-2.1,10.9,16.4,10.3c0,0,9-1.7,16.6-28c0,0,3.3-25.8,0.9-33.5l1.1-1c0,0,5,21.5-0.5,66
					c0,0,9.2,8.6,28.8-11.8c0,0,5.3-13.2-2.5-27.3c-7.8-14.1-15.8-35.9-18.7-36.1l0.4-0.9c0,0,12.5,3.1,35.4,40.3
					c0,0,13.4-1.3,14.4-29.4c0,0-2.1-22.1-45-24.9C374.9,285.2,386.4,239.6,357.4,233z"/>
			</g>
			<g>
				<path class="st15" d="M375.4,285.2c0,0,39,0,44.7,26.1c0,0-0.2,22.5-14.6,28.2c0,0,14.6-33.3-31-51.7L375.4,285.2z"/>
			</g>
			<g>
				<path class="st15" d="M369.7,300.1c0,0,33.2,56.2,19.5,66.2c0,0-5.1,8.5-8,5.8l-2.4,1.4c0,0-2.8-67.5-9.7-71.9L369.7,300.1z"/>
			</g>
			<g>
				<path class="st15" d="M355,318.1l7.5-5.8c0,0,1.1,63.3-23.5,59.4l-3.4-1.2C335.6,370.6,354.4,330.6,355,318.1z"/>
			</g>
			<g>
				<path class="st15" d="M356.4,234c0,0,11.4,32.8,4.9,52.8c0,0-11.5,43.4-32.5,7c0,0,0.6,19,17.9,23.3c0,0,13.3,7.2,26.6-23.1
					c0,0,12.6-45.5-11.1-59L356.4,234z"/>
			</g>
			<g>
				<g>
					<path class="st7" d="M405.4,341.1c-0.8,0-1.3-0.7-2.5-2.7c-18.7-29-28.4-36.5-33.2-37.7l0.8-3.2c8,1.9,19.5,14.7,35.2,39.1
						c0.2,0.3,0.3,0.5,0.5,0.7c10.3-5.4,11.7-19.9,12.2-24.8c0.1-0.6,0.1-1.1,0.2-1.4c-3.8-24.1-43.3-24.3-43.8-24.3l0,0l0-3.3
						c0,0,0,0,0,0c2.1,0,43.3,0.4,47.1,27.5l0.1,0.8l-0.2,0.2c0,0.2,0,0.5-0.1,0.8c-1.4,14.8-6.6,24.2-15.4,28.1
						C405.9,341,405.6,341.1,405.4,341.1z"/>
				</g>
				<g>
					<path class="st7" d="M367.2,378.9c-2,0-4-0.4-5.8-1.4c-1.1-0.7-1.1-0.7-0.4-7.4c1.3-12.9,5.1-52.3,0.3-59.8l2.8-1.8
						c4.8,7.5,2.6,37.1,0.2,61.9c-0.2,1.9-0.4,3.6-0.4,4.6c8.4,3.3,22.1-8.1,24-10c11.1-11.4-10.2-50.1-19.4-64l2.8-1.8
						c1.4,2.1,34.2,52.5,19,68.1C390.1,367.5,377.8,378.9,367.2,378.9z"/>
				</g>
				<g>
					<path class="st7" d="M341.6,373.8c-1,0-2.1-0.2-3.1-0.5c-0.4-0.1-12-3.1-13.1-10.4c-0.3-0.8,0.3-1.6,0.9-2.5
						c15.5-21.4,24.3-37.8,24.2-45l3.3,0c0.1,10.3-13.5,31.2-24.9,47c-0.1,0.1-0.2,0.3-0.3,0.4c1,4.1,7.9,6.7,10.7,7.4
						c5.1,1.5,8.9-2.8,9.8-3.9v0l0.3-0.4c15.5-20,10.7-55.5,10.7-55.9l3.3-0.5c0.2,1.5,5,37.2-11.3,58.3l0,0
						c-0.9,1.6-3.4,3.5-3.4,3.5C346.5,372.9,344.1,373.8,341.6,373.8z"/>
				</g>
			</g>
			<g>
				<g>
					<path class="st7" d="M343.1,269.1C343.2,269.1,343.2,269.1,343.1,269.1c0.1,0.3,0,0.5,0,0.5l-1.3,0.2c-0.2,0-0.4,0.1-0.4,0.4
						c-0.2,2.7-0.2,5.6-0.1,9c0.1,5.3,1.6,7.9,3.9,7.8c2.6-0.1,3.4-2.2,3.3-8.2c-0.1-3.1-0.2-6.8-0.5-8.8c0-0.3-0.2-0.4-0.4-0.4
						l-1.4-0.2c-0.1,0-0.2-0.2-0.2-0.4c0-0.1,0-0.1,0.1-0.1l7.1-0.2c0.1,0,0.1,0,0.1,0.1c0,0.2-0.1,0.4-0.2,0.4l-0.9,0.2
						c-0.2,0.1-0.3,0.2-0.3,0.4c0.2,2.2,0.6,4.9,0.7,8.8c0.1,5.9-3,8.8-8.1,9c-4.4,0.1-7.7-1.4-7.9-8.3c-0.1-3.8,0.4-7.9,0.4-8.9
						c0.1-0.3-0.1-0.4-0.4-0.5l-1-0.2c-0.1,0-0.2-0.2-0.2-0.4c0-0.1,0-0.1,0.1-0.1L343.1,269.1z"/>
				</g>
				<g>
					<path class="st7" d="M355.7,279.2c-0.1-3.9,1.5-6.7,3.3-8.3c1.8-1.6,4.2-2.5,7.1-2.6c1.5,0,2.6,0.1,3.3,0.5
						c0.1,0.1,0.2,0.1,0.2,0.3l0.4,4.2c0,0.1-0.3,0.3-0.4,0.3c0,0-0.1,0-0.1-0.1c-0.6-1.2-1.3-2.7-1.8-3.6c-0.1-0.2-0.3-0.4-0.5-0.6
						c-0.2-0.2-0.6-0.4-1.2-0.4c-1.2,0-2.4,0.7-3.4,1.9c-1.5,1.9-2.3,4.6-2.2,7.9c0.1,5.1,3,7.1,5.7,7.1c0.6,0,1.3-0.1,1.7-0.2
						c0.8-0.2,1.7-0.5,2.6-0.9c0.1,0,0.2,0.1,0.2,0.4c0,0.1,0,0.1-0.1,0.2c-0.7,0.4-2.2,1.1-3.3,1.5c-0.5,0.2-1.6,0.4-2.6,0.4
						C359.9,287.3,355.8,285.2,355.7,279.2L355.7,279.2z"/>
				</g>
			</g>
			<g>
				<path class="st7" d="M348.2,319c-0.7,0-1.5-0.1-2.2-0.2c-7-1-12.9-6.6-16.6-15.8c-3.5-8.9-4.6-20.1-3-31.7
					c1.6-11.6,5.7-22.1,11.5-29.7c6-7.8,13.2-11.6,20.2-10.6c7,1,12.9,6.6,16.6,15.8c3.5,8.9,4.6,20.1,3,31.7
					c-1.6,11.6-5.7,22.1-11.5,29.7C360.8,315.3,354.5,319,348.2,319z M356,234.3c-5.3,0-10.7,3.3-15.4,9.5
					c-5.5,7.1-9.3,17.1-10.8,28.1l0,0c-1.5,11-0.5,21.7,2.8,30c3.2,8,8.2,12.9,14,13.7c5.8,0.8,11.9-2.5,17.2-9.4
					c5.5-7.1,9.3-17.1,10.8-28.1c1.5-11,0.5-21.7-2.8-30c-3.2-8-8.2-12.9-14-13.7C357.1,234.3,356.5,234.3,356,234.3z"/>
			</g>
		</g>
	</g>
	<path class="st2" d="M285.1,366.5c0,0-6.8-1.4-4.7-11.6"/>
	<g>
		<path class="st3" d="M193.2,419.2c0,0,51.5,39,134.3,1.9c0,0-7.9,65.5-5.6,113.1c0,0-0.9,42.3,1.8,56.5c0,0-39.3,13.5-125.7,3.6
			C198.1,594.3,207.2,515.6,193.2,419.2z"/>
		<path class="st4" d="M192.9,419.2c0,0,2.2,21.4,37.6,32.5c28.2,8.9,54.1,4.8,63.3,2.8c1.7-0.4,4.1-1.6,3.8,0.1
			c-3,18.3-9.2,86.4-8.6,143.3c0,0,30.3-3,35.1-7.9c0,0-5.9-139.2,3-169.1C327.2,421.1,248.7,458.6,192.9,419.2z"/>
		<g>
			<g>
				<path class="st7" d="M198.1,594.3c0.5-7.5,0.9-14.9,1.1-22.4c0.3-7.5,0.5-14.9,0.5-22.4c0.1-14.9,0.1-29.9-0.5-44.8
					c-0.4-14.9-1.2-29.9-2.3-44.8c-0.9-14.9-2.4-29.8-3.7-44.7c1.3,7.4,2.5,14.8,3.6,22.2c0.9,7.4,1.9,14.9,2.6,22.3
					c1.6,14.9,2.3,29.9,3,44.9c0.3,15,0.4,30-0.3,45C201.5,564.5,200.4,579.5,198.1,594.3z"/>
			</g>
			<g>
				<path class="st7" d="M322,531.6c-0.7-10.5-1-21.1-1.1-31.6c-0.1-10.5,0.1-21.1,0.7-31.6c0.6-10.5,1.4-21.1,2.8-31.5
					c0.7-5.2,1.4-10.5,2.2-15.7c0.9-5.2,1.7-10.4,2.8-15.6l-2.4,31.5c-0.7,10.5-1.5,21-2,31.4c-0.6,10.5-1,21-1.4,31.5
					C323,510.6,322.7,521.1,322,531.6z"/>
			</g>
		</g>
	</g>
	<g>
		<g>
			<path class="st3" d="M326.7,428l0.3-5.4l46.8-18.6c0,0,18.1,27.8,25.9,43.9c7.8,16.1,20.9,46.2,20.9,46.2s9.2,17.5-22.9,47.9
				l-31,31.4c0,0-18.3,7.4-24.6,13.6s-19.7,12.3-18.3-6.1c0,0-13,3.8-7.8-12.2c0,0-11.6,1.6-9.4-9.8c0,0,1.3-6.9,9.4-10.1
				c0,0-17.6,6.6-15.1-8.5c0,0,13.7-17.4,30.2-3.8c0,0,14-0.6,34.5-24.9l9.1-11.2c0,0-4.3-19.6-22.8-41.5
				C333.3,437.2,331,431.2,326.7,428z"/>
		</g>
		<g>
			<path class="st4" d="M326.7,428c0,0,10.5-0.5,31.9-5.7c0,0,11.2-3.5,46.3,61.9c0,0,24.8,26.5-43.1,85.2c0,0-34.4,28.7-38.3,13.7
				c0,0-1.1,14.6,10.3,9.6S344,585,344,585s15.3-8.9,19.9-9.5c4.6-0.6,31-29.6,31.8-32.3c0,0,30.4-24,25.4-47.3
				c-5-23.4-47.4-93.1-47.4-93.1s-35.5,19.1-46.8,19.9L326.7,428z"/>
		</g>
		<g>
			<path class="st7" d="M327.6,428.6c5.2,5,10.1,10.4,14.8,15.9c4.7,5.5,9.1,11.3,13.4,17.1c4.2,5.9,8.1,12,11.5,18.5
				c3.4,6.4,6.5,13.2,7.4,20.5c-0.7-1.7-1.2-3.4-1.9-5.1c-0.8-1.6-1.5-3.3-2.4-4.8l-2.6-4.7l-2.8-4.6c-3.9-6-7.8-12-12-17.8
				c-4.1-5.9-8.4-11.6-12.6-17.5C336.1,440.3,331.8,434.5,327.6,428.6z"/>
		</g>
		<g>
			<path class="st12" d="M359.9,518.2c0,0,27.8,13.1,31.4,30.8l-21.6,21.5c0,0-4.7-20.8-23.7-40.1L359.9,518.2z"/>
		</g>
		<g>
			<path class="st5" d="M340.7,534.8c0,0,16.6,17.2,22.4,39.3l6.6-3.6c0,0-7.9-24.2-23-39.4L340.7,534.8z"/>
		</g>
		<g>
			<path class="st5" d="M360.4,518.5c0,0,29,14.3,30.9,30.5l5.5-6.8c0,0-3.6-18.5-32.2-29.3L360.4,518.5z"/>
		</g>
		<g>
			<path class="st6" d="M361.8,569.3c0,0,28.1-26.3,32.5-34l2.6,6.9c0,0-26.5,29.7-33.3,32.2L361.8,569.3z"/>
		</g>
		<g>
			<path class="st13" d="M388.8,542.3l2.5,5.6l-21.6,22.7l-2.1-6.7C367.6,563.8,381.6,550.4,388.8,542.3z"/>
		</g>
		<g>
			<g>
				<path class="st7" d="M325.3,550.1c-2.7-0.9-5.6-0.8-8.4-0.7c-2.8,0.2-5.6,0.7-8.4,1.3c-1.5,0.2-3,0.4-4.6-0.2
					c-1.6-0.5-3-1.9-3.5-3.5c-1-3.2-0.5-6.2,0.4-9.1l0.1-0.3l0.3-0.2c2.2-1.9,4.5-3.4,7-4.7c1.2-0.6,2.5-1.2,3.8-1.7
					c1.3-0.5,2.6-1,4.2-1.3c3.1-0.5,6.1,0.1,8.8,1.3c2.7,1.1,5.1,2.6,7.3,4.6l-0.8-0.4c0.9,0,2.5-0.2,3.8-0.7c1.4-0.5,2.8-1,4.1-1.7
					c2.7-1.3,5.2-3.1,7.7-4.9c4.9-3.7,9.4-8.1,13.8-12.6c4.3-4.5,8.5-9.2,12.4-14.1c4.1-4.8,7.8-9.9,11.7-14.8
					c-3.3,5.4-6.7,10.7-10.4,15.8c-3.7,5.1-7.6,10.1-11.8,14.9c-4.3,4.7-8.7,9.3-13.8,13.3c-2.6,1.9-5.2,3.8-8.1,5.3
					c-1.4,0.8-3,1.4-4.6,2c-0.8,0.2-1.6,0.5-2.5,0.6c-0.9,0.2-1.7,0.3-2.9,0.1l-0.4,0l-0.4-0.4c-3.7-3.2-8.8-5.8-13.4-5.2
					c-1.1,0.2-2.3,0.6-3.6,1c-1.2,0.4-2.4,1-3.6,1.5c-2.3,1.1-4.7,2.4-6.7,4l0.3-0.5c-0.8,2.4-1.4,5.3-0.8,7.7
					c0.3,1.2,1.1,2,2.2,2.5c1.1,0.5,2.5,0.4,3.8,0.3c2.8-0.3,5.7-0.7,8.6-0.6C319.7,548.6,322.7,548.9,325.3,550.1z"/>
			</g>
			<g>
				<path class="st7" d="M316,549c-2.2,1.4-4.1,3-5.7,4.8c-1.5,1.9-2.4,3.9-2.2,6c0.2,2,1,4.5,2.4,6c1.2,1.6,3.2,2.2,4.9,1.7
					l-0.6,0.5c0.9-1.1,1.9-1.9,3-2.8c1.1-0.8,2.2-1.6,3.4-2.1c1.2-0.6,2.5-1,3.9-1.1c1.4-0.1,2.7,0.2,3.9,0.7
					c-2.6-0.2-4.9,0.8-6.8,2.1c-1,0.7-1.9,1.5-2.7,2.3c-0.8,0.8-1.7,1.8-2.3,2.7l-0.2,0.3l-0.4,0.1c-1.6,0.6-3.2,0.8-4.8,0.3
					c-1.6-0.4-2.9-1.5-3.9-2.6c-1-1.2-1.6-2.5-2-3.8c-0.4-1.3-0.8-2.8-0.7-4.3c0-3,1.8-5.7,3.8-7.5C311,550.7,313.5,549.6,316,549z"
					/>
			</g>
			<g>
				<path class="st7" d="M320.1,565c-2,2.7-3.7,5.6-4.2,8.6c-0.2,1.4-0.1,2.8,0.5,4c0.6,1.2,1.5,2.4,2.5,2.7c1.9,0.8,5.1-1,8-2.4
					c2.9-1.5,6.4-3.2,9.9-2.5c-3.3,0.7-5.8,2.8-8.6,4.7c-1.4,1-2.8,1.9-4.5,2.7c-1.6,0.7-3.8,1.4-6.1,0.5c-2.2-1-3.3-2.7-4.1-4.5
					c-0.7-1.9-0.8-4-0.2-5.8C314.6,569.4,317.2,566.8,320.1,565z"/>
			</g>
			<g>
				<path class="st7" d="M354.6,387.9c2.7,0.2,5.2,1.5,7.4,3c2.2,1.5,4.3,3.2,6.1,5.1c3.7,3.8,7.1,8,10.2,12.2
					c6.1,8.7,11.6,17.7,16.5,27.1c5,9.3,9.3,19,13.5,28.6c4.2,9.7,8.5,19.2,12.6,29c1.7,5.1,2.1,10.6,1,15.9
					c-0.6,2.7-1.5,5.2-2.7,7.7c-1.2,2.5-2.9,4.6-4.4,6.7c-6.3,8.5-13,16.7-19.9,24.6c-6.9,8-14.1,15.7-22,22.9c-2,1.8-4.1,3.5-6.5,5
					c-0.7,0.3-1.6,0.8-2.2,0.9c-0.6,0.2-1.2,0.3-1.8,0.6c-1.2,0.4-2.4,0.9-3.6,1.4c-4.7,2-9.3,4.6-13.6,7.4l0.2-0.2
					c-2.1,2.1-4.4,4-6.9,5.6c-2.5,1.6-5.2,3.2-8.5,3.2c-1.7,0-3.3-1.2-4.1-2.5c-0.8-1.2-1.5-2.6-1.9-4.1c-0.4-1.4-0.6-3-0.3-4.5
					c0.1-0.7,0.4-1.5,0.7-2.1c0.2-0.3,0.4-0.7,0.6-1c0.1-0.2,0.2-0.3,0.4-0.4c0.1-0.1,0.1-0.1,0.2-0.2c0,0,0.1-0.1,0.2-0.1
					c0.1,0,0.2,0,0.2,0.2c0,0.1,0,0.1,0,0.1l-0.3-0.1c0.3,0.2,0,0.1-0.1,0.3c-0.1,0.1-0.2,0.3-0.3,0.4c-0.2,0.3-0.3,0.6-0.5,0.9
					c-0.3,0.6-0.4,1.3-0.5,2c-0.1,1.4,0.1,2.8,0.6,4.1c0.5,1.3,1.2,2.5,2.1,3.6c0.9,1,1.8,1.7,3.1,1.7c2.5-0.1,5-1.7,7.3-3.3
					c2.2-1.7,4.3-3.7,6.3-5.7l0.1-0.1l0.1-0.1c4.4-3.1,9-5.8,13.8-8.1c1.2-0.6,2.5-1.1,3.7-1.6c0.6-0.3,1.3-0.5,1.9-0.7
					c0.7-0.2,0.9-0.5,1.5-0.7c2-1.3,4-2.9,5.9-4.7c7.7-7,14.7-14.8,21.8-22.5c7-7.8,13.8-15.8,20.4-24c1.6-2.1,3.3-4,4.5-6.2
					c1.3-2.2,2.2-4.6,2.9-7c1.2-4.9,1.2-10.3-0.4-15.2c-7.6-19.5-17.6-38.2-27.5-56.6c-5-9.2-10.1-18.4-15.9-27.1
					c-2.9-4.4-5.9-8.6-9.4-12.5c-1.7-1.9-3.5-3.8-5.6-5.4c-2-1.6-4.3-3-6.8-3.5L354.6,387.9z"/>
			</g>
			<g>
				<path class="st7" d="M339.9,534.2c3.3,2.3,6,5.4,8.5,8.5c2.5,3.2,4.6,6.6,6.6,10.1c2,3.5,3.6,7.2,5.1,10.9l2.1,5.6
					c0.6,1.9,1.2,3.8,1.7,5.8l-4.9-10.9c-1.8-3.6-3.5-7.2-5.4-10.6c-1.9-3.5-4-6.9-6.2-10.1C345.1,540.3,342.8,537.1,339.9,534.2z"
					/>
			</g>
			<g>
				<path class="st7" d="M346,530.5c3,2.6,5.7,5.6,8.2,8.7c2.5,3.1,4.8,6.4,6.9,9.8c4.1,6.8,7.3,14.4,8.5,22.3
					c-1.3-3.8-2.6-7.5-4.4-11c-1.7-3.5-3.5-7.1-5.6-10.4C355.7,543,351.1,536.6,346,530.5z"/>
			</g>
			<g>
				<path class="st7" d="M359.8,518.2c3.6,1.3,6.9,3.1,10.2,5.1c3.3,2,6.4,4.2,9.3,6.7c2.8,2.6,5.6,5.3,7.7,8.5
					c2.2,3.2,3.9,6.7,4.6,10.5c-2.7-7.2-7.8-12.9-13.4-17.8c-2.8-2.5-5.8-4.7-8.9-6.9C366.3,522.2,363.1,520.1,359.8,518.2z"/>
			</g>
			<g>
				<path class="st7" d="M364.6,512.9c3.7,0.9,7.3,2.5,10.8,4.2c3.4,1.8,6.7,3.9,9.7,6.4c2.9,2.6,5.6,5.5,7.7,8.8
					c2.1,3.3,3.4,7,4,10.8c-1.3-3.6-2.9-7.1-5.1-10.1c-2.3-3-4.9-5.8-7.7-8.2c-2.9-2.4-6-4.6-9.2-6.6
					C371.5,516.3,368.1,514.5,364.6,512.9z"/>
			</g>
		</g>
	</g>
	<g>
		<g>
			<path class="st3" d="M199.2,423.2l-0.3-5.4l-46.8-18.6c0,0-18.1,27.8-25.9,43.9c-7.8,16.1-20.9,46.2-20.9,46.2
				s-9.2,17.5,22.9,47.9l31,31.4c0,0,18.3,7.4,24.6,13.6c6.3,6.2,19.7,12.3,18.3-6.1c0,0,13,3.8,7.8-12.2c0,0,11.6,1.6,9.4-9.8
				c0,0-1.3-6.9-9.4-10.1c0,0,17.6,6.6,15.1-8.5c0,0-13.7-17.4-30.2-3.8c0,0-14-0.6-34.5-24.9l-9.1-11.2c0,0,4.3-19.6,22.8-41.5
				S194.9,426.4,199.2,423.2z"/>
		</g>
		<g>
			<path class="st4" d="M199.2,423.2c0,0-10.5-0.5-31.9-5.7c0,0-11.2-3.5-46.3,61.9c0,0-24.8,26.5,43.1,85.2
				c0,0,34.4,28.7,38.3,13.7c0,0,1.1,14.6-10.3,9.6c-11.4-5-10.2-7.6-10.2-7.6s-15.3-8.9-19.9-9.5c-4.6-0.6-31-29.6-31.8-32.3
				c0,0-30.4-24-25.4-47.3c5-23.4,47.4-93.1,47.4-93.1s43.7-48.2,46.8,19.9L199.2,423.2z"/>
		</g>
		<g>
			<path class="st7" d="M198.3,423.8c-4.2,5.9-8.5,11.7-12.8,17.5c-4.2,5.8-8.5,11.6-12.6,17.5c-4.2,5.8-8.2,11.8-12,17.8l-2.8,4.6
				l-2.6,4.7c-0.8,1.6-1.6,3.2-2.4,4.8c-0.7,1.6-1.2,3.4-1.9,5.1c0.9-7.3,4-14.1,7.4-20.5c3.4-6.4,7.4-12.5,11.5-18.5
				c4.2-5.9,8.6-11.7,13.4-17.1C188.3,434.2,193.1,428.8,198.3,423.8z"/>
		</g>
		<g>
			<path class="st12" d="M166,513.4c0,0-27.8,13.1-31.4,30.8l21.6,21.5c0,0,4.7-20.8,23.7-40.1L166,513.4z"/>
		</g>
		<g>
			<path class="st5" d="M185.2,530c0,0-16.6,17.2-22.4,39.3l-6.6-3.6c0,0,7.9-24.2,23-39.4L185.2,530z"/>
		</g>
		<g>
			<path class="st5" d="M165.5,513.7c0,0-29,14.3-30.9,30.5l-5.5-6.8c0,0,3.6-18.5,32.2-29.3L165.5,513.7z"/>
		</g>
		<g>
			<path class="st6" d="M164.1,564.5c0,0-28.1-26.3-32.5-34l-2.6,6.9c0,0,26.5,29.7,33.3,32.2L164.1,564.5z"/>
		</g>
		<g>
			<path class="st13" d="M137.1,537.5l-2.5,5.6l21.6,22.7l2.1-6.7C158.3,559,144.3,545.6,137.1,537.5z"/>
		</g>
		<g>
			<g>
				<path class="st7" d="M200.6,545.3c2.6-1.2,5.6-1.5,8.4-1.5c2.9-0.1,5.8,0.3,8.6,0.6c1.3,0.1,2.7,0.2,3.8-0.3
					c1.1-0.4,1.8-1.3,2.2-2.5c0.7-2.3,0.1-5.2-0.8-7.7l0.3,0.5c-2-1.5-4.3-2.9-6.7-4c-1.2-0.6-2.4-1.1-3.6-1.5
					c-1.3-0.5-2.5-0.9-3.6-1c-4.7-0.6-9.7,2-13.4,5.2l-0.4,0.4l-0.4,0c-1.3,0.1-2,0-2.9-0.1c-0.9-0.1-1.7-0.4-2.5-0.6
					c-1.6-0.5-3.1-1.2-4.6-2c-2.9-1.5-5.6-3.4-8.1-5.3c-5.1-4-9.5-8.6-13.8-13.3c-4.1-4.8-8.1-9.8-11.8-14.9
					c-3.7-5.2-7.1-10.5-10.4-15.8c3.9,4.9,7.7,10,11.7,14.8c3.9,4.9,8.1,9.6,12.4,14.1c4.4,4.4,8.8,8.8,13.8,12.6
					c2.5,1.8,5,3.6,7.7,4.9c1.3,0.7,2.7,1.3,4.1,1.7c1.3,0.5,3,0.7,3.8,0.7l-0.8,0.4c2.3-1.9,4.6-3.4,7.3-4.6
					c2.7-1.1,5.7-1.8,8.8-1.3c1.6,0.3,2.9,0.8,4.2,1.3c1.3,0.5,2.6,1.1,3.8,1.7c2.5,1.3,4.8,2.8,7,4.7l0.3,0.2l0.1,0.3
					c0.8,2.9,1.4,5.9,0.4,9.1c-0.5,1.6-1.9,3-3.5,3.5c-1.6,0.6-3.2,0.4-4.6,0.2c-2.8-0.6-5.6-1.1-8.4-1.3
					C206.2,544.5,203.3,544.4,200.6,545.3z"/>
			</g>
			<g>
				<path class="st7" d="M209.9,544.3c2.5,0.5,5,1.7,7.1,3.4c2,1.7,3.8,4.4,3.8,7.5c0.1,1.5-0.3,3-0.7,4.3c-0.5,1.3-1.1,2.6-2,3.8
					c-1,1.2-2.3,2.2-3.9,2.6c-1.6,0.5-3.2,0.3-4.8-0.3l-0.4-0.1l-0.2-0.3c-0.7-0.9-1.5-1.8-2.3-2.7c-0.8-0.8-1.8-1.6-2.7-2.3
					c-1.9-1.4-4.2-2.3-6.8-2.1c1.2-0.5,2.5-0.8,3.9-0.7c1.4,0.1,2.7,0.5,3.9,1.1c1.2,0.5,2.4,1.3,3.4,2.1c1.1,0.8,2,1.7,3,2.8
					l-0.6-0.5c1.8,0.5,3.8,0,4.9-1.7c1.3-1.5,2.2-4,2.4-6c0.2-2.1-0.8-4.2-2.2-6C214,547.2,212.1,545.6,209.9,544.3z"/>
			</g>
			<g>
				<path class="st7" d="M205.7,560.3c2.9,1.8,5.5,4.3,6.7,7.9c0.6,1.8,0.6,3.9-0.2,5.8c-0.8,1.8-1.9,3.6-4.1,4.5
					c-2.3,0.9-4.5,0.2-6.1-0.5c-1.7-0.8-3.1-1.7-4.5-2.7c-2.8-1.9-5.2-4-8.6-4.7c3.5-0.7,7,1,9.9,2.5c2.9,1.5,6.1,3.3,8,2.4
					c1-0.3,1.9-1.5,2.5-2.7c0.6-1.2,0.7-2.6,0.5-4C209.5,565.9,207.7,563,205.7,560.3z"/>
			</g>
			<g>
				<path class="st7" d="M171.4,383.5c-2.6,0.5-4.8,1.9-6.8,3.5c-2,1.6-3.8,3.5-5.6,5.4c-3.5,3.9-6.5,8.1-9.4,12.5
					c-5.8,8.7-10.9,17.9-15.9,27.1c-9.9,18.4-19.9,37.1-27.5,56.6c-1.6,4.9-1.7,10.3-0.4,15.2c0.6,2.5,1.6,4.8,2.9,7
					c1.2,2.2,2.9,4.1,4.5,6.2c6.5,8.2,13.4,16.2,20.4,24c7.1,7.7,14.1,15.5,21.8,22.5c1.9,1.7,3.9,3.4,5.9,4.7
					c0.5,0.2,0.8,0.4,1.5,0.7c0.6,0.2,1.3,0.4,1.9,0.7c1.3,0.5,2.5,1,3.7,1.6c4.9,2.3,9.4,5,13.8,8.1l0.1,0.1l0.1,0.1
					c1.9,2,4,4,6.3,5.7c2.2,1.7,4.7,3.2,7.3,3.3c1.3,0.1,2.2-0.6,3.1-1.7c0.9-1.1,1.6-2.3,2.1-3.6c0.5-1.3,0.7-2.7,0.6-4.1
					c-0.1-0.7-0.2-1.4-0.5-2c-0.1-0.3-0.3-0.6-0.5-0.9c-0.1-0.1-0.2-0.3-0.3-0.4c0-0.2-0.4-0.1-0.1-0.3l-0.3,0.1c0,0,0-0.1,0-0.1
					c0-0.2,0.2-0.2,0.2-0.2c0.1,0,0.1,0.1,0.2,0.1c0.1,0.1,0.2,0.1,0.2,0.2c0.1,0.1,0.3,0.3,0.4,0.4c0.2,0.3,0.4,0.6,0.6,1
					c0.3,0.7,0.6,1.4,0.7,2.1c0.3,1.5,0.1,3-0.3,4.5c-0.4,1.5-1.1,2.8-1.9,4.1c-0.8,1.3-2.4,2.6-4.1,2.5c-3.3,0-6.1-1.6-8.5-3.2
					c-2.5-1.7-4.8-3.5-6.9-5.6l0.2,0.2c-4.3-2.8-8.9-5.3-13.6-7.4c-1.2-0.5-2.4-1-3.6-1.4c-0.6-0.2-1.2-0.4-1.8-0.6
					c-0.6-0.2-1.5-0.6-2.2-0.9c-2.5-1.5-4.5-3.2-6.5-5c-7.9-7.1-15.1-14.9-22-22.9c-6.9-8-13.6-16.1-19.9-24.6
					c-1.5-2.1-3.2-4.3-4.4-6.7c-1.2-2.4-2.1-5-2.7-7.7c-1.1-5.3-0.7-10.9,1-15.9c4-9.8,8.4-19.3,12.6-29c4.2-9.6,8.5-19.3,13.5-28.6
					c4.9-9.4,10.4-18.4,16.5-27.1c3.1-4.3,6.4-8.4,10.2-12.2c1.9-1.9,3.9-3.6,6.1-5.1c2.2-1.5,4.7-2.8,7.4-3L171.4,383.5z"/>
			</g>
			<g>
				<path class="st7" d="M186,529.4c-2.8,2.8-5.2,6-7.4,9.3c-2.2,3.3-4.3,6.7-6.2,10.1c-2,3.4-3.7,7-5.4,10.6l-4.9,10.9
					c0.5-1.9,1.1-3.8,1.7-5.8l2.1-5.6c1.5-3.7,3.2-7.4,5.1-10.9c2-3.5,4.1-6.9,6.6-10.1C180,534.8,182.7,531.8,186,529.4z"/>
			</g>
			<g>
				<path class="st7" d="M179.9,525.7c-5,6.2-9.7,12.6-13.7,19.3c-2.1,3.3-3.9,6.9-5.6,10.4c-1.7,3.6-3,7.3-4.4,11
					c1.2-7.9,4.4-15.5,8.5-22.3c2.1-3.4,4.4-6.7,6.9-9.8C174.2,531.3,176.8,528.3,179.9,525.7z"/>
			</g>
			<g>
				<path class="st7" d="M166.1,513.4c-3.3,2-6.4,4-9.5,6.2c-3.1,2.2-6.1,4.4-8.9,6.9c-5.6,4.9-10.7,10.6-13.4,17.8
					c0.7-3.8,2.4-7.3,4.6-10.5c2.2-3.2,4.9-6,7.7-8.5c2.9-2.5,6-4.8,9.3-6.7C159.1,516.5,162.5,514.8,166.1,513.4z"/>
			</g>
			<g>
				<path class="st7" d="M161.3,508.1c-3.5,1.6-6.9,3.4-10.1,5.3c-3.2,2-6.4,4.1-9.2,6.6c-2.9,2.4-5.5,5.2-7.7,8.2
					c-2.2,3.1-3.8,6.5-5.1,10.1c0.6-3.8,2-7.5,4-10.8c2.1-3.3,4.8-6.2,7.7-8.8c3-2.5,6.3-4.6,9.7-6.4
					C154,510.6,157.5,509.1,161.3,508.1z"/>
			</g>
		</g>
	</g>
	<g>
		<g>
			<path class="st8" d="M198,593.6c0,0,90.8,9.4,126.1-4.1c0,0,19.9,42.3,21.4,62.7c1.6,23.7,31.4,38.3,31.4,38.3
				s-54.4,31.3-117.5,8.1c-63.2-23.2-104.5,17.8-104.5,17.8s20.3-25.8,22.2-56.5C178.8,629.1,198,593.6,198,593.6z"/>
		</g>
		<g>
			<path class="st9" d="M289.5,598c0,0,38.5,26.5,38.2,65.5c0,0,8.2,24.5,30.1,26.5c0,0-19.9,15.5-65,3.6c0,0-12-5.4-10.5-26.3
				c0,0-4.3,16.3-0.1,23.2c0,0-17.5-11-54.9-7.9c0,0-2.8-9.2,0-23.2c0,0-5.1,19.6-4.8,22.2c0,0-39.1,1.4-66.7,33.8
				c0,0,28.7-29,72.3-24.1c0,0,26.7,4.7,39.2,10.5c12.5,5.8,61.5,14.4,109.7-10.7c0,0-24.6-9.6-30.9-34.4c0,0-10.2-50.7-22.9-66
				C323.1,590.7,300.4,597.5,289.5,598z"/>
		</g>
		<g>
			<path class="st7" d="M151.8,719.5c6.5-7.9,14.6-13.6,23.4-18.5c8.8-4.7,18.4-7.9,28.2-9.7c9.9-1.7,20-1.4,29.9-0.3l7.4,1.4
				c2.5,0.5,4.9,0.9,7.3,1.7l14.3,4.3c18.6,6,38.4,8.8,58,7.4c19.5-1.2,39.2-6,56.5-15.2l0.1,1c-9-4.3-17-10.5-23-18.4
				c-3-3.9-5.4-8.4-7-13.1c-1.7-4.7-2.2-9.7-3.3-14.4c-2.2-9.5-5.3-18.8-8.8-28c-3.5-9.1-7.4-18.2-11.6-27l1.8,0.6
				c-5,2.3-10.3,3.8-15.6,4.7c-5.3,1-10.6,1.5-15.9,2c-10.6,0.8-21.3,1-31.9,1c-21.2-0.1-42.4-1.3-63.6-3.2l1.6-0.9
				c-5,9.8-9.3,20.2-12.8,30.8c-3.6,10.6-6.3,21.4-8.2,32.4l-1.6,8.3c-0.6,2.8-1.3,5.5-2,8.2c-1.5,5.4-3.3,10.8-5.5,16
				c-2.2,5.2-4.8,10.2-7.6,15.1c-1.4,2.4-3,4.8-4.6,7.1c-0.8,1.1-1.7,2.3-2.5,3.4l-1.3,1.6l-0.7,0.8
				C152.4,719,152.4,719.3,151.8,719.5z M152,719.3c-0.2-0.3,0.3-0.5,0.4-0.8l0.7-0.8l1.3-1.7c0.8-1.1,1.6-2.3,2.4-3.4
				c1.5-2.3,3-4.7,4.3-7.2c2.7-4.9,5-10,7-15.2c2-5.2,3.7-10.5,5.1-15.9c0.6-2.7,1.3-5.4,1.8-8.2l1.4-8.3
				c1.7-11.1,4.3-22.2,7.7-32.9c3.4-10.8,7.3-21.3,12.6-31.5l0.5-1l1.1,0.1c21,1.8,42.2,2.7,63.3,3.1c10.6,0.1,21.1,0,31.6-0.8
				c5.2-0.5,10.5-0.9,15.6-1.8c5.2-0.8,10.2-2.1,14.8-4.2l1.3-0.6l0.5,1.2c4.1,9,7.8,18.1,11.2,27.4c3.3,9.3,6.3,18.7,8.3,28.4
				c1.1,4.9,1.5,9.8,3,14.3c1.5,4.6,3.7,9,6.7,12.9c5.8,7.7,13.7,14.1,22.5,18.1l1,0.5l-0.9,0.5c-8.7,4.9-18.1,8.3-27.6,11.1
				c-9.5,2.8-19.4,4.5-29.3,5.4c-19.9,1.9-40.1-0.7-59-6.8l-14.1-4.4c-2.3-0.8-4.7-1.3-7.1-1.7l-7.2-1.5c-9.7-1.1-19.5-1.5-29.2-0.1
				c-9.7,1.5-19.1,4.4-27.9,8.8c-4.4,2.1-8.6,4.7-12.7,7.5c-2,1.5-4,2.9-5.8,4.6C155.5,715.9,153.7,718,152,719.3z"/>
		</g>
	</g>
	<g>
		<path class="st8" d="M232.2,435c0,0-4.7,12.8,4.9,24.8c0,0-3.9-16.1,9-23.1L232.2,435z"/>
		<polygon class="st8" points="251.7,436.6 260.1,458.3 268,435.9 		"/>
		<path class="st8" d="M278,435c0,0,11.4,10.5,8.2,24.1c0,0,12.7-15.8,4.2-26.4L278,435z"/>
		<polyline class="st2" points="251.7,436.6 260.6,459.8 268,435.9 		"/>
		<path class="st2" d="M246.2,436.7c0,0-13.2,7.7-8.8,24c0,0-10.7-11.6-4.7-25.6"/>
		<path class="st2" d="M276.4,435.2c0,0,14,8.2,9.3,25.5c0,0,11.4-12.4,5-27.3"/>
		<path class="st0" d="M144.9,401.6c0,0,47.3,27.7,111.7,33.6c0,0,58.7-1.8,117.2-33.6c0,0,4.1-16.6-88.6-36.2c0,0-23.8,33.2-51.6,0
			C233.5,365.4,154.6,378.2,144.9,401.6z"/>
		<g>
			<path class="st1" d="M264.2,378c0,0,82.4,71.7-53.6,49.6c0,0,14.5,10.7,51.5,8.1c16.5-1.2,37.4-5,63.5-13.6l48.1-20.4
				c0,0-6.5-19.8-87.6-35.7C286.1,366.1,271.5,378.1,264.2,378z"/>
			<path class="st2" d="M259.2,380.1c7.5-0.1,16.4-3.5,26-13.6c0,0,79.1,15.5,88.6,36.2c0,0-58,31.6-114.6,33.7"/>
			<path class="st2" d="M259.5,380.1c-7.5-0.1-16.4-3.5-26-13.6c0,0-79.1,15.5-88.6,36.2c0,0,58,31.6,114.6,33.7"/>
		</g>
	</g>
	<path class="st7" d="M199.8,284.9c5.6,5.5,13.3,8,20.9,7.8c3.8,0,7.5-1,11.2-2c1.8-0.6,3.6-1.3,5.4-2c1.8-0.8,3.5-1.6,5.3-2.4
		c-1.6,1.1-3.3,2.1-5,3.1c-1.8,0.8-3.5,1.7-5.4,2.5c-3.7,1.3-7.6,2.4-11.6,2.4c-4,0.1-8-0.6-11.7-2.2
		C205.4,290.5,202.1,288.1,199.8,284.9z"/>
	<path class="st7" d="M316.3,285c-2.2,3.3-5.5,5.8-9.1,7.6c-3.6,1.8-7.7,2.6-11.7,2.7c-4,0-8-0.9-11.7-2.2c-1.9-0.7-3.6-1.6-5.4-2.4
		c-1.7-1.1-3.4-2.1-5-3.1c1.8,0.8,3.6,1.6,5.4,2.4c1.8,0.6,3.6,1.4,5.5,2c3.7,1,7.5,1.8,11.3,1.8C303.1,293.6,310.8,290.7,316.3,285
		z"/>
	<path class="st7" d="M259.3,293.7c0.8,0,1.5,0.3,2.2,0.6c0.7,0.4,1.3,0.9,1.7,1.7c0.4,0.8,0.6,1.8,0.2,2.6c-0.3,0.8-1,1.4-1.7,1.7
		c0.2-0.8,0.5-1.4,0.5-2c0-0.6-0.1-1-0.4-1.5C261.3,295.9,260.3,295,259.3,293.7z"/>
</g>
</svg>
