<?xml version="1.0" encoding="utf-8"?>
<!-- Generator: Adobe Illustrator 21.0.2, SVG Export Plug-In . SVG Version: 6.00 Build 0)  -->
<svg version="1.1" id="Capa_12" xmlns="http://www.w3.org/2000/svg" xmlns:xlink="http://www.w3.org/1999/xlink" x="0px" y="0px"
	 viewBox="0 0 512.8 887.9" style="enable-background:new 0 0 512.8 887.9;" xml:space="preserve">
<style type="text/css">
	.st0{fill:#282E55;}
	.st1{fill:#242740;}
	.st2{fill:none;stroke:#1C1C1B;stroke-miterlimit:10;}
	.st3{fill:#F8B454;}
	.st4{fill:#DD9239;}
	.st5{fill:#BF8D36;}
	.st6{fill:#A16F2A;}
	.st7{fill:#1C1C1B;}
	.st8{fill:#FFFFFF;}
	.st9{fill:#8F8F90;}
	.st10{fill:#0A567D;}
	.st11{fill:#293766;}
	.st12{fill:#EBE221;}
	.st13{fill:#EBC518;}
	.st14{fill:#AAC312;}
	.st15{fill:#9CAB21;}
	.st16{fill:#C1BFBE;}
	.st17{fill:#A7A7A7;}
</style>
<g>
	<g>
		<g>
			<path class="st0" d="M201.1,436c0,0,16.3,45-16.4,110.8c0,0-21.7,41.9-47.5,65.8S49,700.3,64.4,770.4c0,0,23.7-59.3,118.8-40.6
				c0,0,39.4,9,62.2,18.5c22.9,9.5,82.6,8.8,135-7.7c52.4-16.5,116.7-22.1,106.8,15c0,0,26.4-21.1,16.3-67
				c-10.1-46-32.7-65.8-32.7-65.8s-38.5-49.3-53.6-111.7c-15.1-62.4-16.9-77.7-16.9-77.7L201.1,436z"/>
			<path class="st1" d="M335.4,458c0,0,32.4,15.6,26.9,93.2s21.4,111.9,21.4,111.9s4.4,108.3-185.7,68.3c0,0,73.4,35.1,137.4,19.5
				s110.2-30.7,141.4-20.1c0,0,18.7,3.4,8.7,28.9c0,0,45.4-37.9,1.1-114c0,0-72.2-85.1-86.4-212.3L335.4,458z"/>
			<path class="st2" d="M399.5,433.3c0,0,17.5,123.1,70.3,188.2s37.1,119,15.7,138.1c0,0,31.4-56.2-105.1-19.1
				c-136.5,37.1-143.1-11.2-224.8-13.6c-81.7-2.4-90.2,46.2-90.2,46.2S36.3,714.8,132.9,617S201.1,436,201.1,436"/>
		</g>
		<g>
			<path class="st3" d="M248.2,701.8c0,0,29.2-4,46.7,3.5l-1.5,41.7l-1.9,72.4l2.2,44.8c0,0,0.4,9.7-10.9,12
				c-11.4,2.3-45.8,19.9-72.8,5.7c0,0-9.7-33.2,23.1-38c0,0,14.8-4,14.6-24.5C247.4,798.9,248.2,701.8,248.2,701.8z"/>
			<path class="st4" d="M248.2,701.8v7.2c0,0,8.1,2.9,28.3,6.1c4.2,0.7,7.2,4.4,6.9,8.7c-1.2,17.4-3.9,59.9-3.2,77.4
				c0.9,22.2,2.1,43.6,2.1,52.3c0,8.8-73.5,21.8-73.5,21.8l1.1,6.6c0,0,26.3,15.6,79.3-8.6c0,0,7.2-3,3.8-16.7l-0.4-76.7
				c0,0,0.9-67.6,2.3-74.8C294.8,705.2,270.7,696.9,248.2,701.8z"/>
			<path class="st5" d="M248.2,819.4c0,0,21.6,8.5,44,0l-0.4,8.6c0,0-28.9,5.8-44.9-1.2L248.2,819.4z"/>
			<path class="st5" d="M240.3,839.4c0,0,27.5-0.7,28.4,34.6c0,0,17-4.7,24.9-9.7c0,0,1.3,5.9-5.2,9.7c-6.5,3.8-60.5,21.5-78.5,8
				v-5.6c0,0,26.7,7.9,50.5,0.5C260.4,876.8,262.4,850.3,240.3,839.4z"/>
			<path class="st6" d="M281.1,822.4v7.9l10.8-2.3l0.4-9.6C292.3,818.4,292.6,821.2,281.1,822.4z"/>
			<path class="st6" d="M259,864.2c0,0,6.5-0.5,8.5-2.6c0,0,1.4,7.9,1.3,13.6l24.8-11c0,0,1.4,9.1-8.6,11c0,0-48.1,21.2-75.1,6.7
				v-5.6c0,0,25.7,7.8,50.5,0.5C260.4,876.8,260.2,868.9,259,864.2z"/>
			<g>
				<g>
					<path class="st7" d="M295,704.5l-1,63.1c-0.3,21-0.5,42.1-0.5,63.1c0,10.5,0.1,21,0.6,31.5c0,1.3,0.2,2.6,0,4.1
						c-0.2,1.4-0.6,2.7-1.3,3.9c-1.3,2.4-3.7,4.3-6.3,5.1c-4.9,1.9-9.9,3.7-14.9,5.3c-10.1,3.2-20.4,5.7-30.9,6.8
						c-10.5,1-21.6,0.6-31.4-4.5l-0.4-0.2l-0.1-0.5c-1.2-4-1.7-8.1-1.7-12.3c0-4.1,0.6-8.3,2.2-12.3c1.5-4,4.5-7.4,7.9-9.8
						c3.5-2.6,7.6-3.8,11.6-4.7l0,0l0.2,0c5.7-0.6,11.2-4.2,13.9-9.3c1.4-2.6,2.3-5.4,2.7-8.4c0.5-3,0.3-6,0.3-9.3
						c-0.2-12.7-0.1-25.4,0.1-38.1c0.3-25.4,1-50.8,2-76.2l0.3,0c0.3,25.4,0.4,50.8,0.5,76.2c0.1,12.7,0,25.4,0.3,38.1
						c0.2,6.2,0.2,13.3-3.3,19.4c-3.3,6.1-9.7,10.2-16.6,10.9l0.2,0c-3.7,0.9-7.5,1.9-10.5,4.1c-3.1,2.1-5.6,5-7,8.5
						c-1.5,3.5-2.1,7.3-2.2,11.2c-0.1,3.9,0.4,7.8,1.4,11.5l-0.6-0.7c4.5,2.4,9.4,3.9,14.5,4.7c5.1,0.8,10.4,0.7,15.6,0.4
						c5.2-0.4,10.4-1.2,15.5-2.2c5.1-1.1,10.2-2.5,15.2-4c5-1.6,10-3.3,14.8-5.3c2.4-0.8,4.5-2.5,5.7-4.7c0.6-1.1,1-2.3,1.1-3.5
						c0.2-1.2,0-2.5-0.1-3.8c-0.8-10.5-1.3-21-1.6-31.6c-0.7-21.1-0.3-42.1,0.3-63.2c0.6-21.1,1.6-42.1,3.1-63.1L295,704.5z"/>
				</g>
				<g>
					<path class="st7" d="M208.7,875.9c7.2,1.7,14.4,2.6,21.7,2.8c7.3,0.1,14.5-0.1,21.7-1.3c1.8-0.2,3.6-0.6,5.4-0.9
						c1.8-0.3,3.6-0.7,5.3-1.1l5.3-1.3l5.2-1.6c7-2.1,13.6-5.2,20.4-8.2c-3.1,2-6.2,4-9.4,5.8c-3.3,1.6-6.6,3.4-10.1,4.6
						c-6.8,2.9-14.2,4.6-21.5,5.8c-7.4,1.1-14.9,1.3-22.3,0.6c-3.7-0.3-7.4-1-11-1.7C215.7,878.4,212.1,877.5,208.7,875.9z"/>
				</g>
				<g>
					<path class="st7" d="M247.1,826.8c3.7,1,7.5,1.5,11.2,1.9c3.7,0.4,7.5,0.5,11.2,0.5c3.8,0,7.5-0.2,11.3-0.4l5.7-0.4
						c1.9-0.2,3.8-0.4,5.8-0.4c-3.6,1.5-7.3,2.6-11.1,3.3c-3.8,0.7-7.7,1.1-11.6,1.1c-3.9-0.1-7.8-0.4-11.6-1.2
						C254.2,830.2,250.4,828.9,247.1,826.8z"/>
				</g>
				<g>
					<path class="st7" d="M247.6,819.4c7.6,1.5,15,2.7,22.4,2.9c3.7,0.2,7.4-0.1,11.1-0.5c3.7-0.4,7.3-1.4,11.1-2.4
						c-3.2,2.1-6.8,3.8-10.6,4.7c-3.8,0.9-7.8,1.4-11.7,1.2c-3.9-0.2-7.8-0.7-11.6-1.7C254.6,822.7,250.9,821.4,247.6,819.4z"/>
				</g>
				<g>
					<path class="st7" d="M268.8,875.2c-0.2-2-0.3-4-0.5-6c-0.4-2-0.5-4-1.2-5.8c-0.8-3.9-2.5-7.4-4.7-10.6
						c-4.4-6.3-11.6-10.2-19.1-11.6c-0.5-0.1-0.9-0.2-1.4-0.2l-0.7-0.1c-0.1-0.1-0.5,0.1,0.4-0.1c0.6-0.3,0.9-0.9,0.7-1.5
						c-0.1-0.3-0.3-0.6-0.6-0.8c0,0-0.1-0.1-0.2-0.1l0,0l0.1,0l0.4,0.2l0.7,0.4c0.5,0.3,0.9,0.5,1.4,0.8c1.8,1.1,3.5,2.3,5.1,3.7
						c3.1,2.8,5.7,6.2,7.5,10c1.8,3.7,2.9,7.7,3.6,11.8c0.6,4,0.5,8.1,0.2,12.1c-0.5-8-2-16-5.9-22.8c-2-3.4-4.4-6.4-7.3-8.9
						c-1.5-1.2-3-2.4-4.7-3.3c-0.4-0.2-0.8-0.4-1.3-0.7l-0.6-0.3l-0.3-0.1l-0.4-0.2c-0.3-0.2-0.7-0.6-0.8-1.1
						c-0.2-0.9,0.2-1.7,1-2.1c0.3-0.2,1-0.1,0.9-0.1l0.2,0l0.8,0.1c0.5,0,1,0.2,1.6,0.2c4.1,0.8,8.1,2.2,11.7,4.5
						c3.6,2.2,6.7,5.2,8.9,8.8C268.8,858.7,269.7,867.3,268.8,875.2z"/>
				</g>
			</g>
		</g>
		<g>
			<g>
				<path class="st3" d="M313.8,709c0,0,4,126,1.6,149.5c0,0-5.6,15,10.1,17.6c0,0,46.6,20.1,73.3,5.9c0,0,11-35-23.7-38.2
					c0,0-15.8-4.5-14-25.5c1.8-21.1-0.4-102.7-0.4-102.7S326.9,717.5,313.8,709z"/>
			</g>
			<g>
				<path class="st4" d="M313.8,711.3l0.5,11.9c0,0,11.9,5.1,23.7,6.9c5.5,0.8,9.6,5.3,9.9,10.8c0.3,7.1,0.7,18.8,1,37.6
					c0.6,40.1-4.9,65.1,13.1,73c18.1,7.9,21.9-2,37.1,26.7c0,0,8.6-30.4-24.1-34.5c0,0-17.6-4.5-14.1-36.6l-0.3-91.7
					C360.6,715.4,340.6,719.5,313.8,711.3z"/>
			</g>
			<g>
				<path class="st5" d="M360.6,827.4v-7.6c-23.3,9.5-44.3-0.4-44.3-0.4l0.5,8.5C316.9,827.9,339.3,834.5,360.6,827.4z"/>
			</g>
			<g>
				<path class="st5" d="M347.7,875.5c0,0,0.1-31.1,21.1-35.3c0,0-28.5-2.3-29.3,32.7c0,0-16.6-3.9-24.3-10.7c0,0-2.4,10.5,8.8,13.3
					c0,0,26,11.1,46.2,11.4c0,0,26.7,0.2,28.9-6.3l0.1-2.4C399.1,878.2,371.6,883.2,347.7,875.5z"/>
			</g>
			<g>
				<path class="st6" d="M348.7,821.6c0,0,0.2,6.2,0.6,9l11.3-3.3v-7.6C360.6,819.8,355,822.2,348.7,821.6z"/>
			</g>
			<g>
				<g>
					<path class="st5" d="M313.8,707.2l1.5,29.9c0,0,31.3-1.4,45.8,1.8l-0.5-24C360.7,714.9,325.4,716.5,313.8,707.2z"/>
				</g>
				<g>
					<path class="st6" d="M313.9,711.7c0,0,14.9,5.5,27.6,8c2.6,0.5,4.6,2.7,4.7,5.4l0.6,11.5c0,0,13.7,2.1,14.3,2.8l-0.5-24.5
						c0,0-32.9,2-46.9-7.7L313.9,711.7z"/>
				</g>
			</g>
			<g>
				<path class="st6" d="M352.8,843c0,0,0.9,5.1,4.3,5.4l8-7.4C365,841,360.6,839,352.8,843z"/>
			</g>
			<g>
				<path class="st7" d="M360.7,738.9c-7.7-0.8-15.3-1.3-23-1.5c-7.7-0.2-15.4-0.2-23.1-0.3c3.8-0.6,7.7-0.9,11.5-1.1
					c3.9-0.2,7.7-0.2,11.6-0.2C345.4,736.1,353.2,736.9,360.7,738.9z"/>
			</g>
			<g>
				<g>
					<path class="st7" d="M313.9,711.1c1.6,20.4,2.6,40.9,3.2,61.4c0.6,20.5,0.9,41,0.1,61.5c-0.3,10.2-1,20.5-1.7,30.7
						c-0.1,2.4,0.8,4.8,2.4,6.7c0.8,0.9,1.8,1.7,2.9,2.2c1.1,0.5,2.3,1,3.5,1.5c4.7,1.9,9.6,3.5,14.5,5c9.8,3,19.8,5.1,30,5.8
						c5.1,0.3,10.2,0.2,15.1-0.5c5-0.8,9.8-2.2,14.1-4.6l-0.6,0.7c1-3.7,1.4-7.7,1.4-11.5c-0.1-3.9-0.7-7.7-2.2-11.2
						c-1.4-3.5-4-6.4-7-8.5c-3-2.3-6.8-3.2-10.5-4.1l0.2,0c-6.4-0.6-12.1-4-15.7-9.3c-3.4-5.3-4.5-11.6-4.3-17.5
						c0.3-11.5,0.3-23.1,0.4-34.6c0.1-23.1,0.3-46.2,0.6-69.4l0.3,0c0.9,23.1,1.6,46.2,1.8,69.3c0.2,11.6,0.3,23.1,0,34.7
						c-0.2,5.6,0.9,11.2,3.8,15.6c2.9,4.4,8,7.3,13.2,7.9l0.2,0l0,0c4,1,8.2,2.1,11.7,4.8c3.5,2.4,6.4,5.9,8,9.9
						c1.6,3.9,2.3,8.2,2.3,12.3c0,4.2-0.6,8.2-1.7,12.3l-0.1,0.5l-0.4,0.2c-4.7,2.5-9.9,3.9-15.1,4.5c-5.2,0.6-10.4,0.5-15.6,0.1
						c-10.3-1-20.3-3.4-30.1-6.5c-4.9-1.5-9.7-3.3-14.5-5.1c-1.2-0.5-2.4-0.9-3.6-1.5c-1.2-0.6-2.3-1.4-3.2-2.4
						c-1.8-2-2.9-4.7-2.8-7.4c0.5-10.3,0.7-20.5,0.7-30.7c0-20.5-0.2-41-0.5-61.4l-1-61.5L313.9,711.1z"/>
				</g>
				<g>
					<path class="st7" d="M315.1,862.2c3.1,1.9,6.4,3.6,9.7,5.1c3.3,1.5,6.7,2.9,10.1,4.1c6.9,2.3,13.9,4.2,21,5.4
						c3.6,0.5,7.2,1.2,10.8,1.4c1.8,0.2,3.6,0.4,5.4,0.5c1.8,0,3.6,0.1,5.4,0.2c7.3,0.3,14.6-0.2,21.9-0.6
						c-3.6,0.8-7.2,1.5-10.9,2.1c-3.7,0.3-7.3,0.9-11,0.9c-7.4,0.4-14.8-0.3-22.2-1.4c-7.3-1.3-14.5-3.3-21.4-6.2
						C327.3,870.7,320.6,867.1,315.1,862.2z"/>
				</g>
				<g>
					<path class="st7" d="M362.1,826.8c-3.3,2.2-7,3.4-10.8,4.3c-3.8,0.9-7.7,1.2-11.6,1.2c-3.9,0-7.8-0.4-11.6-1.1
						c-3.8-0.7-7.5-1.8-11.1-3.3c2,0.1,3.9,0.3,5.8,0.4l5.7,0.4c3.8,0.2,7.5,0.4,11.3,0.4c3.8,0,7.5-0.2,11.2-0.5
						C354.6,828.2,358.3,827.7,362.1,826.8z"/>
				</g>
				<g>
					<path class="st7" d="M361.6,819.4c-3.3,2-7,3.3-10.8,4.3c-3.8,1-7.6,1.5-11.6,1.7c-3.9,0.1-7.9-0.3-11.7-1.2
						c-3.8-0.9-7.4-2.6-10.6-4.7c3.8,1,7.4,1.9,11.1,2.4c3.7,0.4,7.4,0.7,11.1,0.5C346.6,822.1,354,820.9,361.6,819.4z"/>
				</g>
				<g>
					<path class="st7" d="M339.5,875.2c-0.9-7.9-0.1-16.5,4.4-23.7c2.2-3.6,5.3-6.6,8.9-8.8c3.6-2.2,7.6-3.7,11.7-4.5
						c0.5-0.1,1-0.2,1.6-0.2l0.8-0.1l0.2,0c-0.1,0,0.6-0.1,0.9,0.1c0.8,0.4,1.2,1.2,1,2.1c-0.1,0.4-0.4,0.9-0.8,1.1l-0.4,0.2
						l-0.3,0.1l-0.6,0.3c-0.4,0.2-0.8,0.4-1.3,0.7c-1.7,0.9-3.2,2.1-4.7,3.3c-2.9,2.5-5.3,5.5-7.3,8.9c-3.8,6.8-5.4,14.8-5.9,22.8
						c-0.3-4-0.4-8.1,0.2-12.1c0.6-4,1.8-8,3.6-11.8c1.8-3.8,4.4-7.1,7.5-10c1.6-1.4,3.3-2.7,5.1-3.7c0.4-0.3,0.9-0.5,1.4-0.8
						l0.7-0.4l0.4-0.2l0.1,0l0,0c0,0-0.1,0.1-0.2,0.1c-0.2,0.1-0.5,0.5-0.6,0.8c-0.1,0.6,0.1,1.2,0.7,1.5c0.9,0.2,0.5,0.1,0.4,0.1
						l-0.7,0.1c-0.5,0-0.9,0.2-1.4,0.2c-7.5,1.3-14.7,5.3-19.1,11.6c-2.2,3.1-3.9,6.7-4.7,10.6c-0.7,1.9-0.8,3.9-1.2,5.8
						C339.8,871.2,339.7,873.2,339.5,875.2z"/>
				</g>
			</g>
		</g>
		<g>
			<g>
				<path class="st3" d="M282.5,385.9c0,0,16.9,7.1,21.1,7.5l19.7-7.5c0,0-2,7.8,3.8,10.6c0,0-2.1,12.1-25.7,12.4
					c0,0-18.4,2.2-21.8-12.4C279.7,396.5,284.3,396,282.5,385.9z"/>
				<path class="st4" d="M282.6,386.8c0,0,7.7,9.6,24.9,9.4c0,0,8.9,8-3,12.2c0,0,15.2,1.7,23.2-11.6c0,0-7.4-2.1-4.4-10.8
					l-19.7,7.5L282.6,386.8z"/>
			</g>
			<path class="st2" d="M279.7,396.9c0,0,4.8,0.6,2.8-11"/>
			<g>
				<g>
					<g>
						<path class="st3" d="M302.3,310.4c0,0-18-50.3-70.4-24c0,0-4.2,50.7,9.7,72c0,0,21.5,25,62.1,35c0,0,47.9-11.7,74.4-51.3
							c0,0,16.8-67.1-38.4-64.6C339.7,277.5,302,286.5,302.3,310.4z"/>
					</g>
					<g>
						<path class="st4" d="M364.2,308.8c0,0-12-7.1-13.4-15.1c0,0,0.5,12,2.9,15.1c0,0-12.9-4.2-17.1-13.5c0,0-1.2,6.8-1.8,10.1
							c0,0-8.5-1.9-11.8-7c0,0-9.9,14-18,19.4c0,0-9.1-7.1-15.4-20.2c0,0-5.3-14-31.5,4.4c0,0-2.1-2.7-4.2-12.9
							c0,0-7.3,11.4-18.1,13.1l-4.6-1l0.6-14.7c0,0,42.7-32.2,70.4,24c0,0,4.1-38.8,55.7-30.9c0,0,6.1,2.6,9,5.3L364.2,308.8z"/>
					</g>
					<g>
						<path class="st4" d="M358,299.1c0,0,3.4,26.9-4.3,44.4l5.9-4.5c0,0-7.4,31.4-54.4,50.8c0,0-20.6-2.3-34.9-10.5
							c0,0,20.1,10.8,33.4,14.1c0,0,42.2-8.9,71.4-47c0,0,16.3-34.9-6.2-60l-5.5-4.1L358,299.1z"/>
					</g>
				</g>
				<g>
					<path class="st7" d="M247.4,337.3c2.9,0,5.7,0.1,8.6-0.1c2.8-0.1,5.6-0.5,8.4-0.9c2.7-0.5,5.4-1.2,7.9-2.1
						c2.5-0.9,4.9-2.2,7-3.6l1.5-0.4c-0.4-0.1-1.1,0.2-1.2,0.2l0.3-0.2l0.6-0.4l1.2-0.7c0.8-0.5,1.6-0.9,2.4-1.3
						c1.6-0.9,3.3-1.6,5-2.3c3.4-1.3,7-2.1,10.7-2.5c3.7-0.4,7.4-0.2,11,0.6c3.7,0.6,7.1,2.1,10.3,3.7l-0.5-0.2
						c3.1,1.1,5.6,2.1,8.5,3.1c2.8,0.9,5.6,1.7,8.5,2.4c2.9,0.6,5.7,1,8.7,1c2.9,0,5.9-0.4,8.6-1.7c-2.3,2.1-5.3,3.3-8.4,3.9
						c-3.1,0.6-6.3,0.7-9.4,0.5c-3.1-0.2-6.2-0.7-9.2-1.4c-1.5-0.3-3-0.7-4.5-1.1c-1.5-0.4-3-0.9-4.3-1.3l0,0l-0.4-0.2
						c-2.9-1.2-5.9-2.3-9-2.7c-1.5-0.4-3.1-0.4-4.6-0.5c-1.6,0-3.1,0-4.7,0.2c-3.1,0.3-6.2,0.9-9.2,2c-1.5,0.6-3,1.1-4.4,1.8
						c-0.7,0.3-1.4,0.7-2.1,1l-1,0.6l-0.5,0.3l-0.3,0.2c-0.2,0.2-1.2,0.6-1.7,0.6l1.5-0.4c-2.7,1.7-5.7,2.7-8.6,3.5
						c-3,0.8-6,1.1-8.9,1.2c-3,0.1-5.9-0.1-8.8-0.5c-1.4-0.2-2.9-0.5-4.3-0.8L247.4,337.3z"/>
				</g>
				<g>
					<path class="st7" d="M259.1,337.5c0,0,2.6,10.6,10.2,14.8c0,0-4.5-13.9-1.6-15.1C267.8,337.3,263.8,338.2,259.1,337.5z"/>
				</g>
				<g>
					<path class="st7" d="M267.8,337.8c0,0,0.9,10,7.7,11c0,0-4.4-9.9-1.1-12.5C274.4,336.3,270.5,337.8,267.8,337.8z"/>
				</g>
				<g>
					<path class="st7" d="M339.7,334.1c0,0-2.4,10.1-9.8,14.2c0,0,4.3-13.3,1.5-14.4C331.4,333.9,335.2,334.8,339.7,334.1z"/>
				</g>
				<g>
					<path class="st7" d="M331.4,334.4c0,0-0.9,9.6-7.3,10.5c0,0,4.2-9.4,1.1-12C325.1,333,328.8,334.4,331.4,334.4z"/>
				</g>
				<g>
					<path class="st7" d="M303.6,395l-0.4-0.1c-53-14.4-76.7-51.6-76.9-52l2.6-1.6c0.2,0.4,23.2,36.4,74.7,50.5
						c4.5-1.3,47-14.3,70.5-47.7l2.5,1.8c-25.5,36-72.2,48.9-72.7,49L303.6,395z"/>
				</g>
				<g>
					<path class="st7" d="M261.5,291.3c1.2-0.8,2.5-1.1,3.8-1.3c1.3-0.2,2.7,0,4,0.3c2.6,0.7,5.1,2.3,6.1,5
						c-1.4-0.3-2.5-0.8-3.6-1.1c-1.1-0.3-2.2-0.7-3.3-0.9C266.3,292.7,264.1,292.2,261.5,291.3z"/>
				</g>
				<g>
					<path class="st7" d="M329.5,295.3c0.7-1.2,1.7-2.1,2.8-2.9c1.1-0.7,2.4-1.2,3.7-1.6c2.6-0.6,5.6-0.3,7.7,1.6
						c-1.4,0.3-2.5,0.4-3.7,0.7c-1.1,0.3-2.2,0.4-3.3,0.7C334.4,294.4,332.2,295,329.5,295.3z"/>
				</g>
				<g>
					<path class="st7" d="M236.4,285.8c0,0,19.5-7.3,38.3,5.2C274.7,291,279.8,274.4,236.4,285.8z"/>
				</g>
				<g>
					<path class="st7" d="M366.8,286.2c0,0-19.4-7.7-38.4,4.4C328.4,290.6,323.6,273.9,366.8,286.2z"/>
				</g>
				<g>
					<g>
						<g>
							<g>
								<path class="st7" d="M291.3,313.5c0,0-13.9-27.4-47-13.3c0,0-3.5,5.1,0.5,13.9c0,0-6.6-3.2-4.8-17.9
									C239.9,296.2,274.8,281.6,291.3,313.5z"/>
							</g>
							<g>
								<path class="st8" d="M291.3,313.6c0,0,1.9,6.8-7.2,10.2c0,0-18.2,11.2-33.2-0.8c0,0-11-10.4-8.4-23.2c0,0,18.7-8.6,32.4-1.5
									C274.9,298.4,284.3,300.8,291.3,313.6z"/>
							</g>
							<g>
								<path class="st9" d="M291.3,313.5c0,0-16.9-25.5-46.4-10c0,0-1.6,4.7-0.1,10.6c0,0-4.2-5.6-2.3-14.4
									c0.1-0.5-0.4-0.3-0.4-0.3S273.4,282.9,291.3,313.5z"/>
							</g>
						</g>
						<g>
							<g>
								<path class="st7" d="M313.9,313.5c0,0,13.9-27.4,47-13.3c0,0,3.5,5.1-0.5,13.9c0,0,6.6-3.2,4.8-17.9
									C365.2,296.2,330.3,281.6,313.9,313.5z"/>
							</g>
							<g>
								<path class="st8" d="M314,313.5c0,0-3.2,7.1,5.9,10.5c0,0,19.4,10.9,34.5-1c0,0,11-10.4,8.4-23.2c0,0-18.7-8.6-32.4-1.5
									C330.4,298.3,321,300.8,314,313.5z"/>
							</g>
							<g>
								<path class="st9" d="M313.7,313.3c0,0,17.2-25.2,47-9.9c0,0,1.7,4.6,0.1,10.5c0,0,4.3-5.6,2.4-14.2
									c-0.1-0.5,0.4-0.3,0.4-0.3S331.8,283,313.7,313.3z"/>
							</g>
						</g>
					</g>
					<g>
						<g>
							<ellipse class="st10" cx="268.5" cy="308.8" rx="9.2" ry="12.8"/>
						</g>
						<g>
							<path class="st11" d="M270.2,296.2c0,0-6.3-2.2-9.8,6.3c0,0-2,2.8-1.2,10.5c0,0,2.1-1.7,5.4-2.6c0.1,2.9,1.8,5.2,3.9,5.2
								c2.1,0,3.9-2.4,3.9-5.4c1.6,0.4,3.2,1.1,4.8,2.3C277.3,312.5,280.7,300.4,270.2,296.2z"/>
						</g>
						<g>
							<ellipse class="st7" cx="268.5" cy="308.8" rx="3" ry="5.7"/>
						</g>
						<g>
							<circle class="st8" cx="264.9" cy="301" r="2.7"/>
						</g>
						<g>
							<circle class="st8" cx="272.9" cy="316.5" r="2"/>
						</g>
						<g>
							<path class="st7" d="M268.4,322.3c-5.5,0-10-6.1-10-13.6s4.5-13.6,10-13.6s10,6.1,10,13.6S273.9,322.3,268.4,322.3z
								 M268.4,296.7c-4.7,0-8.5,5.4-8.5,12s3.8,12,8.5,12c4.7,0,8.4-5.4,8.4-12S273,296.7,268.4,296.7z"/>
						</g>
					</g>
					<g>
						<g>
							<ellipse class="st10" cx="337" cy="308.8" rx="9.2" ry="12.8"/>
						</g>
						<g>
							<path class="st11" d="M335.2,296.2c0,0,6.3-2.2,9.8,6.3c0,0,2,2.8,1.2,10.5c0,0-2.1-1.7-5.4-2.6c-0.1,2.9-1.8,5.2-3.9,5.2
								c-2.1,0-3.9-2.4-3.9-5.4c-1.6,0.4-3.2,1.1-4.8,2.3C328.2,312.6,324.7,300.4,335.2,296.2z"/>
						</g>
						<g>
							<ellipse class="st7" cx="337.3" cy="308.8" rx="3" ry="5.7"/>
						</g>
						<g>
							<circle class="st8" cx="333.8" cy="301" r="2.7"/>
						</g>
						<g>
							<circle class="st8" cx="341.1" cy="316.5" r="2"/>
						</g>
						<g>
							<path class="st7" d="M337,322.3c-5.5,0-10-6.1-10-13.6s4.5-13.6,10-13.6c5.5,0,10,6.1,10,13.6S342.5,322.3,337,322.3z
								 M337,296.7c-4.7,0-8.4,5.4-8.4,12s3.8,12,8.4,12c4.7,0,8.5-5.4,8.5-12S341.7,296.7,337,296.7z"/>
						</g>
					</g>
				</g>
				<g>
					<g>
						<path class="st8" d="M289.6,357.7c0,0,18.1,5.6,33-1.4c0,0-5.2,16.1-18.4,14.2C304.1,370.5,295.2,370.6,289.6,357.7z"/>
					</g>
					<g>
						<path class="st9" d="M289.6,357.7c0,0,14.4,7.2,26.6,2.9c0,0,1.2,3.9-4.4,2.1l-2,2.6l-1.6-2l1.6,3.6c0,0,1.3-0.9,2.6-2.5
							c0,0,3.6,1.2,5.5-0.1c0,0,4.1-4.6,4.5-7.6C322.4,356.6,301,362.8,289.6,357.7z"/>
					</g>
					<g>
						<path class="st7" d="M289.6,357.7c5.6,1.2,11.2,1.3,16.7,0.8c2.8-0.3,5.5-0.7,8.2-1.3c2.7-0.6,5.4-1.4,8-2.3l3.3-1.1l-1.4,3.2
							c-1.4,3.2-3.2,6-5.4,8.6c-2.3,2.5-5.1,4.9-8.6,5.8c-3.6,0.9-7.1,0.3-10.2-1.1c-3.1-1.5-5.7-3.9-7.2-6.8
							c2.1,2.5,4.8,4.4,7.8,5.3c1.5,0.5,3,0.8,4.5,0.8c1.5,0,3-0.1,4.4-0.6c2.8-0.9,5.1-3,7.1-5.3c2-2.4,3.6-5.1,4.9-7.9l1.9,2
							c-2.8,0.9-5.5,1.7-8.4,2.2c-2.8,0.6-5.8,0.8-8.6,0.9c-2.9,0.1-5.8-0.2-8.6-0.7C295,359.6,292.2,358.9,289.6,357.7z"/>
					</g>
					<g>
						<path class="st7" d="M308.2,363.5c0.7,0.6,1.4,1.3,2.1,2l-0.8,0c0.6-1,1.2-1.9,1.9-2.8l0.3-0.4l0.6,0.2
							c0.4,0.1,1.1,0.3,1.7,0.3c0.6,0,1.3,0.1,1.9,0c1.3,0,2.6-0.3,4-0.5c-1.1,0.9-2.4,1.4-3.8,1.8c-0.7,0.1-1.4,0.3-2.2,0.2
							c-0.8,0-1.5-0.1-2.3-0.5l0.9-0.2c-0.7,0.9-1.5,1.7-2.3,2.5l-0.5,0.5l-0.3-0.5C309,365.2,308.6,364.4,308.2,363.5z"/>
					</g>
				</g>
				<g>
					<g>
						<path class="st7" d="M270.5,307.7l2.3-19.3L258,303.8l-2.3-20.9l-9,16v-13.4c-2.3,5.1-7,14.4-11.7,17.6l-0.9-1.3
							c6.1-4.1,12.6-20.2,12.6-20.3l1.5-3.7V293l8.5-15l2.5,22.4l15.8-16.4l-2.3,19l11.6-13.1l1.2,1L270.5,307.7z"/>
					</g>
					<g>
						<path class="st7" d="M334.2,306.7l-14.9-16.8l1.2-1l11.6,13.1l-2.3-19l15.8,16.4l2.5-22.4l8.5,15v-15.2l1.5,3.7
							c0.1,0.2,6.6,16.2,12.6,20.3l-0.9,1.3c-4.7-3.2-9.4-12.5-11.7-17.6V298l-9-16l-2.3,20.9l-14.9-15.5L334.2,306.7z"/>
					</g>
					<g>
						<polygon class="st7" points="273,398.5 256.4,382.8 256.4,392.2 238.8,370 240,369.1 254.9,387.8 254.9,379.2 273.1,396.4 
							282.5,388.4 283.5,389.5 						"/>
					</g>
					<g>
						<polygon class="st7" points="337.2,398.5 322.9,386.5 323.9,385.3 337.1,396.4 355.3,379.2 355.3,387.5 377.2,356.2 
							378.4,357.1 353.8,392.4 353.8,382.8 						"/>
					</g>
					<g>
						<g>
							<path class="st7" d="M286.8,288.5l-15.2,16.8l2.3-19.2l-15.3,16l-2.4-21.6l-8.8,15.5v-14.2c0,0-5.9,15.1-11.8,19.8
								c0,0,3.9,34.9,11,41.8c0,0-10.9-8.7-11.7-10.2c0,0,6.9,23.7,7.8,26.3c0,0,28.3,25,39.9,26.3l0.1,3.4l-9.6,8.2L255.6,381v9
								l-16.2-20.4l2.7,9.7c0,0-13.9-8.7-18.5-28l-1.4,9.3c0,0-9.4-18.4-12.3-39c0,0-1.7-18.1,1-27.6s9.4-18.7,9.4-18.7
								S275,267.8,286.8,288.5z"/>
						</g>
						<g>
							<path class="st7" d="M390.5,304.5c0,0,15-38.9-33.8-34.3c0,0-32.6,3.3-39.5,15.9l16,18.2l-2.3-19.2l15.3,16l2.4-21.6
								l8.8,15.5v-14.2c0,0,2.9,8.7,8.2,15.6c0,0-2.4,33-11,46.3l11.6-9.9l-10.4,32.9c0,0-21.1,17.4-32.5,20.1l13.4,11.3l17.8-16.2
								v9c0,0,18.8-26.5,23.3-34l0.5,4.1c0,0,8.3-15.9,10.3-27.3s2.9-12.6,2.4-20.4"/>
						</g>
					</g>
				</g>
				<g>
					<g>
						<g>
							<path class="st0" d="M210.8,274.1c0,0-9.4,5.8-30.8,4.6c0,0-15.3-0.7-21.2,16.5c0,0,3.9-33.7,33.2-48.8
								c0,0-44.7-0.6-65.6-27.5c0,0,13.3,6.4,29.9-3.3c0,0,24.4-8.8,47.7-7.9c0,0-13-0.9-26.4-33.4c0,0-0.9-9.5-26.8-20.1
								c0,0,28.9-2.2,58.9,12.8c0,0-14.6-11.8-14.7-25c0,0-1.9-23.1-25-33.2c0,0,26.8,1.4,56.2,25.7c0,0,16.1,12.3,31.2,34.6
								c0,0-12.1-29.6-14.1-47.5c0,0-1.4-21.9-17.9-36.2c0,0,26,9.2,41.1,26.7c0,0,12.9,12.7,15.8,28.6c0,0,3.6-23.3,16.6-41.6
								c0,0,17.7-17,14.4-37.2c0,0,9.5,10.6,11.4,34.5c1.8,23.8-1.3,39.7-1.3,39.7s7-32.6,54.7-50.7c0,0-15.7,16.2-16.5,32.7
								c-0.8,16.5-12.5,45.9-16.9,53.8c0,0,25.6-37.3,54.1-51.3c0,0,15.4-9,35.6-11.7c0,0-21.4,7.1-25,33.2c0,0,0.3,13-14.9,24.5
								c0,0,22.9-12.3,60.2-12.9c0,0-22.8,8.4-26.7,17.5c-3.8,9.1-11.4,30-26.8,36.4c0,0,20-1,45.3,7.4c0,0,18.1,11.6,31.6,3.1
								c0,0-14.1,25.1-64.9,28.5c0,0,26,15,30.9,45.7c0,0-6.6-14.8-21.4-13.3s-26.9-3.2-26.9-3.2L210.8,274.1z"/>
						</g>
						<g>
							<g>
								<path class="st1" d="M310.7,58.2c0,0,17.8,24.4-3.7,61.6s-4.5,51.7-4.5,51.7l11.9,1.2C314.3,172.7,342.3,94.3,310.7,58.2z"
									/>
							</g>
							<g>
								<path class="st1" d="M314.3,172.7c0,0,16.4-59.8,65.7-88.2c0,0-15.1,12.7-17.6,29.2c-2.5,16.4,0.3,31.4-25.9,70.3
									L314.3,172.7z"/>
							</g>
							<g>
								<path class="st1" d="M435.8,108.9c0,0-67.1,23.5-99.2,75.1l21.3,14.8c0,0,17.7-23.2,36.7-32.4c0,0,14.1-11.2,14.9-22.6
									C410.3,132.4,417.8,114.5,435.8,108.9z"/>
							</g>
							<g>
								<path class="st1" d="M386.2,275.4c0,0,23.8,4.9,39.7,3.3c0,0,16.5,0.6,20.8,19.6c0,0-6.6-40.1-34.2-51.9
									c0,0,49.2-1.6,67-29.5c0,0-7.8,10.5-31.8-1.5s-46.7-7.5-46.7-7.5s13.7-4.1,24.5-30.2c0,0,0.8-14.9,30.1-24.2
									c0,0-30.2-2.1-60.9,12.9S358,198.8,358,198.8S389.6,223.5,386.2,275.4z"/>
							</g>
							<g>
								<path class="st1" d="M225.4,85.2c0,0,51.4,13.3,50.3,91.1l9.7-4.9c0,0-4-11.7-3.1-30.9C282.3,140.6,277.9,104.9,225.4,85.2z
									"/>
							</g>
							<g>
								<path class="st1" d="M158.8,295.2c0,0,1.2-28.9,51-31.7l-0.7,11.6c0,0-5.7,4.1-29.1,3.5C180,278.7,164.4,278,158.8,295.2z"
									/>
							</g>
							<g>
								<path class="st1" d="M126.4,218.9c0,0,16.7,26.7,65.6,27.5c0,0,10.4-5,22.4-4.1c0,0-4.1-14.9-42.5-4.6
									C171.9,237.7,143.4,236.7,126.4,218.9z"/>
							</g>
							<g>
								<path class="st1" d="M149,153.5c0,0,30.5-0.7,46,26.5s42.5,27.7,42.5,27.7l-9.4,9.3c0,0-14.6-9.8-26-9.3
									c0,0-14.1-4-25.2-35.5C176.9,172.1,175.4,163.6,149,153.5z"/>
							</g>
							<g>
								<path class="st1" d="M171.3,108.9c0,0,23.2,3.3,37.4,37.2s50.1,26.7,50.1,26.7l-19.1,19.5c0,0-13.9-18.7-29.9-25.3
									c0,0-15.7-13.7-14.9-25.9C194.8,141,194.7,122,171.3,108.9z"/>
							</g>
						</g>
						<g>
							<g>
								<path class="st7" d="M445.2,298.6c-0.2-0.8-4.2-18.4-21-18.4c-0.4,0-0.8,0-1.1,0c-19.5,0.9-28-3.6-28.4-3.7l1.5-2.7
									c0.1,0,8.3,4.2,26.8,3.4c8.8-0.5,14.8,3.4,18.6,7.9c-15.3-45.9-49.6-41.5-51.2-41.3l-0.5-3.1c0.4-0.1,45.1-6,58.3,57.2
									L445.2,298.6z"/>
							</g>
							<g>
								<path class="st7" d="M412.6,247.9l-0.1-3.1c34.9-1.7,53.1-15.1,61-23c-11.5,3.1-25.6-4.6-27.4-5.6c-50-15.3-62.9-0.6-63-0.5
									l-2.4-1.9c0.6-0.7,14-16.6,66.5-0.5l0.3,0.1c0.2,0.1,20.5,11.7,31.1,2.3l7.4-6.7l-5,8.6C480.2,218.8,464,245.5,412.6,247.9z
									"/>
							</g>
							<g>
								<path class="st7" d="M400.9,209.2l-0.8-3c11.8-2.9,22.5-24.1,25.9-33.9c2.4-7,13.3-13.2,21-16.8
									c-64.1,4.2-82,39.5-82.1,39.9l-2.8-1.4c0.8-1.7,20.5-40.6,93.5-42l9.4-0.2l-8.8,3.2c-6.6,2.4-24.5,10.4-27.2,18.3
									C426.1,181.4,414.9,205.7,400.9,209.2z"/>
							</g>
							<g>
								<path class="st7" d="M284.5,173.3c-0.1-0.3-14.5-35,13.2-75.2c0.4-0.4,20.1-20.7,12.9-37.3l-3.1-7.2l5.6,5.4
									c1.2,1.2,28.8,29.2,2.8,114.1l-3-0.9c18.7-61,8.9-92.2,2.4-104.5c0.6,16.1-14.4,31.6-15.2,32.3
									c-26.6,38.6-12.8,71.7-12.7,72L284.5,173.3z"/>
							</g>
							<g>
								<path class="st7" d="M340.5,183l-2.7-1.6c0.2-0.3,19.4-33.2,21.7-59.2c1.5-16.3,8-27,13.2-33
									c-43.8,20.3-48.9,51.2-48.9,51.5l-3.1-0.4c0.2-1.5,5.8-36.6,58.8-57.3l12.7-5l-11.3,7.7c-0.2,0.1-16,11.2-18.3,36.8
									C360.3,149.2,341.3,181.6,340.5,183z"/>
							</g>
							<g>
								<path class="st7" d="M339.4,184.7l-2.8-1.4c0.4-0.7,35.8-71,102.8-76.7l0,0c0,0,0,0,0,0l0.2,3.1c-0.1,0-0.2,0-0.2,0
									c-2.4,0.2-22.3,3.1-28.4,32.3c0,1.9-0.6,14.9-18.2,27.6l-1.8-2.5c17.3-12.5,16.9-25.1,16.9-25.2l0-0.2l0-0.2
									c3.4-16.4,11.1-25.1,18-29.8C369.6,124.8,339.7,184,339.4,184.7z"/>
							</g>
							<g>
								<path class="st7" d="M159.4,298.6l-3-0.6c13.2-63.2,57.8-57.3,58.3-57.2l-0.5,3.1c-1.6-0.2-35.8-4.7-51.2,41.3
									c3.9-4.5,9.8-8.3,18.6-7.9c18.4,0.8,26.7-3.3,26.8-3.4l1.5,2.7c-0.4,0.2-8.9,4.7-28.4,3.7c-0.4,0-0.7,0-1.1,0
									C163.6,280.3,159.4,298.4,159.4,298.6z"/>
							</g>
							<g>
								<path class="st7" d="M191.9,247.9c-51.4-2.5-67.6-29.2-68.3-30.3l-5-8.6l7.4,6.7c10.6,9.5,30.8-2.1,31.1-2.3l0.3-0.1
									c52.5-16.1,66-0.2,66.5,0.5l-2.4,1.9c-0.1-0.2-13-14.8-63,0.5c-1.8,1-15.9,8.7-27.4,5.6c7.8,7.9,26.1,21.3,61,23
									L191.9,247.9z"/>
							</g>
							<g>
								<path class="st7" d="M203.7,209.2c-14-3.5-25.2-27.7-28-35.9c-2.7-7.9-20.6-15.9-27.2-18.3l-8.8-3.2l9.4,0.2
									c73,1.5,92.7,40.4,93.5,42l-2.8,1.4c-0.2-0.4-18.2-35.7-82.1-39.9c7.8,3.6,18.6,9.8,21,16.8c3.4,9.8,14.1,31,25.9,33.9
									L203.7,209.2z"/>
							</g>
							<g>
								<path class="st7" d="M264,183c-0.8-1.4-19.7-33.8-22.1-60.5c-2.3-25.5-18.1-36.7-18.3-36.8l-11.3-7.7l12.7,5
									c52.9,20.7,58.6,55.8,58.8,57.3l-3.1,0.4c0-0.3-5.1-31.2-48.9-51.5c5.1,6,11.7,16.7,13.2,33c2.3,26,21.5,58.8,21.7,59.2
									L264,183z"/>
							</g>
							<g>
								<path class="st7" d="M265.1,184.7c-0.3-0.6-30.2-59.9-86.6-72.8c6.9,4.6,14.6,13.4,18,29.8l0,0.2l0,0.2
									c0,0.1-0.2,12.8,16.9,25.2l-1.8,2.5c-17.6-12.7-18.2-25.8-18.2-27.6c-6.1-29.2-25.9-32.1-28.4-32.3c-0.1,0-0.2,0-0.2,0
									l0.2-3.1c0,0,0,0,0,0l0,0c67,5.6,102.5,76,102.8,76.7L265.1,184.7z"/>
							</g>
						</g>
						<g>
							<g>
								<path class="st2" d="M248.8,195.4"/>
							</g>
							<g>
								<path class="st12" d="M244,179.5c0,0,44.3-21.9,59.1-19.3c0,0,44.2,8.9,58,19.9c0,0,4.6,17.5,13.9,26.1
									c0,0,39.7,23.7,27.7,71.2c0,0-76.8-14-100.4,33c0,0-14.3-46-100.2-33.3c0,0-15.6-37.3,24.5-68.1
									C226.6,209,240.6,197.7,244,179.5z"/>
							</g>
							<g>
								<path class="st13" d="M202.1,277.1c0,0,67.4-15.9,101.5,18.6c0,0,31.3-34.1,73.1-33.7c0,0,7.4-44.6-40.5-52.3
									c0,0,10.2-37.3-33.2-49.5c0,0,41.5,7.7,58,19.9l-1.9,0.4c0,0,12,27.7,22.1,31.6c0,0,32.2,20.6,21.4,65.3
									c0,0-78-14.4-100.4,33C302.3,310.4,286.2,265.9,202.1,277.1z"/>
							</g>
							<g>
								<path class="st8" d="M244,179.5c0,0,24-0.8,35.9,41.8c0,0-25.9-18.9-47.7-18.1C232.2,203.2,240.1,192.5,244,179.5z"/>
							</g>
							<g>
								<path class="st8" d="M360.6,179.5c0,0,8.9,20.2,11.8,23.7c0,0-29.6,2.2-48.6,19C323.8,222.2,332.4,184.8,360.6,179.5z"/>
							</g>
							<g>
								<path class="st9" d="M278.9,221.3c0,0-9.6-37.3-37.1-37.4l2.1-4.4C244,179.5,272.5,184.1,278.9,221.3z"/>
							</g>
							<g>
								<path class="st11" d="M243.3,180c0,0-5.1,20.1,4.8,21c0,0,8.8-3.4,4.9-18.2l6.5,3.6c0,0,2.1,21.1-11.7,18.9
									C247.8,205.3,234.5,197.5,243.3,180z"/>
							</g>
							<g>
								<path class="st9" d="M361.1,180.1c0,0-29.9,4.6-36.6,41.8c0,0,10.1-37.3,38.9-37.4"/>
							</g>
							<g>
								<path class="st11" d="M345.1,186.6c0,0-1.6,23.7,13.2,17.4c0,0,7.7-3.8,5.6-15.9l-1.8-4.6c0,0,3.2,16.8-4.8,17.3
									c0,0-6.7,0.5-6.5-11.2l0.2-6.8L345.1,186.6z"/>
							</g>
							<g>
								<g>
									<path class="st7" d="M303.7,311.1l-2.8-1.4c22.7-44.3,89.9-35.9,100.4-34.3c6.1-23.2-0.9-44.8-19.7-61
										c-0.5-0.4-0.8-0.7-1-0.9c-10-7.2-16.7-17.9-20.1-31.7c-0.1-0.2-0.1-0.4-0.1-0.5c-16.9-9.8-37.6-16.8-58.3-19.6l0.4-3.1
										c21.3,2.9,42.6,10.1,60,20.2l0.3,0.3c0.4,0.4,0.4,0.7,0.7,1.9c3.2,13.1,9.6,23.2,19.1,30l0.4,0.4c0.1,0.1,0.4,0.3,0.7,0.6
										c20.2,17.3,27.4,40.6,20.3,65.5l-0.4,1.4l-1.4-0.3C401.4,278.5,327.2,265.3,303.7,311.1z"/>
								</g>
								<g>
									<path class="st7" d="M322.2,226l0.8-4.1c0.1-0.4,7.3-37.4,37.3-43.9l1.3-0.3l0.5,1.3c0.1,0.2,6.5,17.1,11.6,23.2l0.4,0.4
										l0,0.6c0,1.5-1.5,1.6-2.7,1.6c-20,1-35.9,10.6-45.8,18.5L322.2,226z M359.6,181.3c-21.1,5.4-29.8,27.5-32.5,36.9
										c10-7.3,24.6-15.1,42.4-16.4C365.3,195.6,361,185,359.6,181.3z"/>
								</g>
								<g>
									<path class="st7" d="M354.6,206.9c-0.3,0-0.5,0-0.8-0.1c-2.9-0.4-5.2-1.6-6.9-3.8c-4.7-6-3.2-16.8-3.1-17.2l3.1,0.5
										c0,0.1-1.4,9.9,2.5,14.9c1.3,1.6,2.9,2.5,5.1,2.7l0.4,0c1-0.2,3.4-1.2,5.3-3.5c2.3-2.9,3-6.9,2.1-11.8l3-0.6
										c1.8,9.8-2.5,14.7-5.3,16.7C358.4,205.8,356.1,206.9,354.6,206.9z"/>
								</g>
								<g>
									<path class="st7" d="M356.8,202.5c-0.4,0-0.8-0.1-1.1-0.1l0,0c-8.3-2.5-6.1-17.7-5.8-19.5l3.1,0.5
										c-0.6,3.7-1.2,14.5,3.6,16c0.2,0,1.4,0.1,2.5-0.9c1.3-1.3,3.2-5,1.5-15.7l3.1-0.5c1.7,10.6,0.4,17.1-3.7,19.4
										C358.8,202.2,357.7,202.5,356.8,202.5z"/>
								</g>
								<g>
									<path class="st7" d="M300.9,311.1c-23.6-45.9-97.8-32.6-98.5-32.5l-1.4,0.3l-0.4-1.4c-7.1-24.9,0.1-48.2,20.3-65.5
										c0.3-0.3,0.5-0.4,0.7-0.6l0.1-0.2l0.3-0.2c9.4-6.8,15.9-16.9,19.1-30c0.3-1.2,0.4-1.5,0.7-1.9l0.3-0.3
										c17.4-10.2,38.7-17.4,60-20.2l0.4,3.1c-20.7,2.8-41.4,9.7-58.3,19.6c0,0.2-0.1,0.3-0.1,0.5c-3.4,13.8-10.2,24.4-20.1,31.7
										c-0.2,0.2-0.5,0.5-1,0.9c-18.8,16.2-25.8,37.8-19.7,61c10.6-1.6,77.7-9.9,100.4,34.3L300.9,311.1z"/>
								</g>
								<g>
									<path class="st7" d="M282.4,226l-3.3-2.6c-9.9-7.9-25.8-17.6-45.8-18.5c-1.3-0.1-2.7-0.1-2.7-1.6l0-0.6l0.4-0.4
										c5.1-6.1,11.5-23.1,11.6-23.2l0.5-1.3l1.3,0.3c30,6.5,37.2,43.5,37.3,43.9L282.4,226z M235.1,201.9
										c17.8,1.3,32.4,9,42.4,16.4c-2.8-9.4-11.4-31.5-32.5-36.9C243.5,185,239.2,195.6,235.1,201.9z"/>
								</g>
								<g>
									<path class="st7" d="M249.9,206.9c-1.5,0-3.8-1-5.5-2.3c-2.8-2-7.1-6.9-5.3-16.7l3,0.6c-0.9,4.9-0.2,8.9,2.1,11.8
										c1.9,2.3,4.3,3.3,5.3,3.5l0.4,0c2.2-0.2,3.8-1.1,5.1-2.7c3.9-4.9,2.5-14.8,2.5-14.9l3.1-0.5c0.1,0.5,1.6,11.2-3.1,17.2
										c-1.7,2.2-4,3.5-6.9,3.8C250.5,206.8,250.2,206.9,249.9,206.9z"/>
								</g>
								<g>
									<path class="st7" d="M247.8,202.5c-0.9,0-2-0.2-3-0.8c-4.2-2.3-5.4-8.9-3.7-19.4l3.1,0.5c-1.7,10.7,0.2,14.4,1.5,15.7
										c1.1,1,2.2,1,2.5,0.9c4.8-1.5,4.2-12,3.6-16l3.1-0.5c0.3,1.7,2.5,17-5.8,19.5l0,0C248.6,202.4,248.2,202.5,247.8,202.5z"/>
								</g>
							</g>
						</g>
					</g>
					<g>
						<g>
							<path class="st14" d="M206,271.7c0,0,11.5,0.3,15.4,7.3l6.6,9.7c0,0,5.6,13.6,5.4,19.3c0,0,3.6,46.9-22.6,41
								c0,0,3.4,18.6,23,43c0,0,2,10.2-15.3,9.7c0,0-8.4-1.6-15.5-26.2c0,0-3.1-24.2-0.9-31.4l-1-0.9c0,0-4.7,20.1,0.5,61.7
								c0,0-8.6,8-26.9-11c0,0-5-12.4,2.4-25.5s14.8-33.6,17.5-33.8l-0.3-0.9c0,0-11.7,2.9-33.2,37.7c0,0-12.5-1.2-13.5-27.5
								c0,0,1.9-20.7,42.1-23.3C189.6,320.5,178.9,277.9,206,271.7z"/>
						</g>
						<g>
							<path class="st15" d="M193.3,331.2c0,0-24.8,10.3-37.7,35.8c0,0,3.2,3.8,5.3,4.3c0,0,24.7-37.8,33.2-37.7L193.3,331.2z"/>
						</g>
						<g>
							<path class="st15" d="M198.8,340.6c0,0-21,58-6.9,65.3c0,0,6.4,2.5,8.7-0.4l0.9,0.1c0,0-6.3-57.3-0.5-62.4L198.8,340.6z"/>
						</g>
						<g>
							<path class="st15" d="M210.9,349.8l-7.5-4.7c0,0-2.1,48.3,28.7,51.9l2.4-4.3C234.4,392.8,212.7,361.4,210.9,349.8z"/>
						</g>
						<g>
							<path class="st15" d="M204.7,272.1c0,0,18.2,27,17.1,46.6c0,0,0,42-27.7,14.2c0,0,5.1,17.1,21.8,16.8c0,0,13.8,3.3,18.5-27.3
								c0,0,0.4-44.2-24.2-50.7L204.7,272.1z"/>
						</g>
						<g>
							<g>
								<path class="st7" d="M161.1,372.9c-0.2,0-0.4,0-0.6-0.1c-12.6-5.5-14.1-21.2-14.6-26.3c0-0.3-0.1-0.6-0.1-0.8l-0.2-0.2
									l0.1-0.8c3.6-25.4,42.2-25.7,44.1-25.7c0,0,0,0,0,0l0,3.1l0,0c-0.4,0-37.5,0.2-41,22.8c0.1,0.3,0.1,0.8,0.2,1.4
									c0.4,4.5,1.7,18,11.4,23.1c0.1-0.2,0.3-0.4,0.4-0.7c14.7-22.8,25.5-34.8,32.9-36.6l0.7,3c-4.5,1.1-13.5,8.1-31,35.2
									C162.2,372.3,161.8,372.9,161.1,372.9z"/>
							</g>
							<g>
								<path class="st7" d="M196.9,408.2c-10.1,0-21.5-10.6-21.6-10.7c-14.2-14.7,16.5-61.8,17.8-63.8l2.6,1.7
									c-8.6,13-28.5,49.2-18.1,59.9c1.7,1.8,14.5,12.3,22.5,9.3c-0.1-1-0.2-2.6-0.4-4.3c-2.3-23.3-4.3-50.9,0.2-58l2.6,1.7
									c-4.5,7-0.9,43.9,0.3,56c0.6,6.3,0.6,6.3-0.2,6.9C200.7,407.8,198.8,408.2,196.9,408.2z"/>
							</g>
							<g>
								<path class="st7" d="M220.8,403.5c-2.3,0-4.6-0.8-6.7-2.4c0,0-2.3-1.8-3.2-3.3l0,0c-15.3-19.8-10.8-53.2-10.6-54.6l3.1,0.4
									c0,0.3-4.5,33.5,10,52.3l0.3,0.5c0.9,1.1,4.4,5.1,9.1,3.7c2.6-0.7,9.1-3.1,10-6.9c-0.1-0.1-0.1-0.2-0.2-0.3
									c-10.7-14.7-23.4-34.3-23.3-44l3.1,0c-0.1,6.8,8.2,22.1,22.7,42.1c0.6,0.8,1.1,1.6,0.8,2.3c-1.1,6.8-11.9,9.6-12.3,9.7
									C222.7,403.4,221.7,403.5,220.8,403.5z"/>
							</g>
						</g>
						<g>
							<g>
								<path class="st7" d="M200.7,305.6C200.8,305.6,200.8,305.6,200.7,305.6c0.1,0.2,0,0.4,0,0.4l-1.2,0.2
									c-0.2,0-0.3,0.1-0.4,0.4c-0.2,2.5-0.2,5.2-0.1,8.5c0.1,5,1.5,7.4,3.7,7.3c2.4-0.1,3.2-2,3.1-7.7c-0.1-2.9-0.2-6.4-0.5-8.3
									c0-0.3-0.1-0.4-0.3-0.4l-1.3-0.2c-0.1,0-0.1-0.2-0.1-0.4c0-0.1,0-0.1,0.1-0.1l6.7-0.2c0.1,0,0.1,0,0.1,0.1
									c0,0.2-0.1,0.4-0.2,0.4l-0.8,0.2c-0.2,0.1-0.3,0.1-0.3,0.4c0.2,2.1,0.5,4.6,0.6,8.2c0.1,5.5-2.8,8.3-7.6,8.4
									c-4.1,0.1-7.2-1.3-7.4-7.8c-0.1-3.6,0.4-7.4,0.4-8.3c0-0.3-0.1-0.4-0.3-0.5l-1-0.2c-0.1,0-0.1-0.2-0.1-0.4
									c0-0.1,0-0.1,0.1-0.1L200.7,305.6z"/>
							</g>
							<g>
								<path class="st7" d="M212.4,315c-0.1-3.6,1.4-6.3,3.1-7.8c1.7-1.5,4-2.4,6.6-2.4c1.4,0,2.5,0.1,3.1,0.4
									c0.1,0.1,0.1,0.1,0.1,0.3l0.4,3.9c0,0.1-0.2,0.3-0.4,0.3c0,0-0.1,0-0.1-0.1c-0.6-1.2-1.2-2.5-1.7-3.4
									c-0.1-0.2-0.3-0.4-0.4-0.5c-0.2-0.2-0.5-0.3-1.1-0.3c-1.1,0-2.3,0.7-3.2,1.8c-1.4,1.8-2.1,4.3-2,7.4
									c0.1,4.8,2.8,6.7,5.4,6.6c0.5,0,1.2-0.1,1.6-0.2c0.8-0.2,1.6-0.5,2.4-0.8c0.1,0,0.1,0.1,0.1,0.4c0,0.1,0,0.1-0.1,0.2
									c-0.6,0.4-2.1,1.1-3.1,1.4c-0.5,0.2-1.5,0.3-2.4,0.4C216.4,322.5,212.6,320.6,212.4,315L212.4,315z"/>
							</g>
						</g>
						<g>
							<path class="st7" d="M214.6,352.3c-5.9,0-11.8-3.5-16.9-10.1c-5.4-7.1-9.3-17-10.8-27.8c-3.1-22.6,5.1-42.6,18.3-44.4
								c13.2-1.8,26.6,15.1,29.7,37.7l0,0c3.1,22.6-5.1,42.6-18.3,44.4C216,352.2,215.3,352.3,214.6,352.3z M207.3,272.9
								c-0.5,0-1.1,0-1.6,0.1c-11.6,1.6-18.6,20-15.7,40.9c1.4,10.3,5,19.6,10.2,26.3c4.9,6.4,10.6,9.5,16.1,8.8
								c11.6-1.6,18.6-20,15.7-40.9l0,0C229.2,288.2,218.3,272.9,207.3,272.9z"/>
						</g>
						<g>
							<path class="st14" d="M395.3,271.7c0,0-11.5,0.3-15.4,7.3l-6.6,9.7c0,0-5.6,13.6-5.4,19.3c0,0-3.6,46.9,22.6,41
								c0,0-3.4,18.6-23,43c0,0-2,10.2,15.3,9.7c0,0,8.4-1.6,15.5-26.2c0,0,3.1-24.2,0.9-31.4l1-0.9c0,0,4.7,20.1-0.5,61.7
								c0,0,8.6,8,26.9-11c0,0,5-12.4-2.4-25.5s-14.8-33.6-17.5-33.8l0.3-0.9c0,0,11.7,2.9,33.2,37.7c0,0,12.5-1.2,13.5-27.5
								c0,0-1.9-20.7-42.1-23.3C411.8,320.5,422.5,277.9,395.3,271.7z"/>
						</g>
						<g>
							<path class="st15" d="M412.2,320.5c0,0,36.5,0,41.9,24.4c0,0-0.2,21.1-13.7,26.4c0,0,13.7-31.2-29-48.4L412.2,320.5z"/>
						</g>
						<g>
							<path class="st15" d="M406.9,334.5c0,0,31.1,52.6,18.2,62c0,0-4.8,7.9-7.5,5.4l-2.3,1.4c0,0-2.6-63.1-9.1-67.3L406.9,334.5z"
								/>
						</g>
						<g>
							<path class="st15" d="M393.2,351.4l7-5.4c0,0,1,59.3-22,55.6l-3.2-1.1C375,400.5,392.5,363.1,393.2,351.4z"/>
						</g>
						<g>
							<path class="st15" d="M394.4,272.7c0,0,10.7,30.7,4.6,49.5c0,0-10.8,40.6-30.4,6.6c0,0,0.5,17.8,16.8,21.9
								c0,0,12.5,6.7,24.9-21.6c0,0,11.8-42.6-10.3-55.2L394.4,272.7z"/>
						</g>
						<g>
							<g>
								<path class="st7" d="M440.3,372.9c-0.8,0-1.2-0.7-2.4-2.5c-17.5-27.2-26.5-34.1-31-35.2l0.7-3c7.4,1.8,18.2,13.8,32.9,36.6
									c0.2,0.2,0.3,0.5,0.4,0.7c9.6-5.1,11-18.6,11.4-23.2c0.1-0.6,0.1-1,0.2-1.3c-3.5-22.5-40.6-22.8-41-22.8l0,0l0-3.1
									c0,0,0,0,0,0c1.9,0,40.5,0.3,44.1,25.7l0.1,0.8l-0.2,0.2c0,0.2,0,0.5-0.1,0.8c-1.3,13.8-6.2,22.7-14.4,26.3
									C440.8,372.8,440.5,372.9,440.3,372.9z"/>
							</g>
							<g>
								<path class="st7" d="M404.5,408.2c-1.9,0-3.7-0.4-5.4-1.3c-1-0.7-1-0.7-0.4-7c1.2-12.1,4.8-49,0.3-56l2.6-1.7
									c4.5,7,2.5,34.7,0.2,58c-0.2,1.8-0.3,3.4-0.4,4.3c7.9,3.1,20.7-7.5,22.5-9.3c10.4-10.7-9.6-46.9-18.1-59.9l2.6-1.7
									c1.3,2,32,49.1,17.8,63.8C426,397.6,414.5,408.2,404.5,408.2z"/>
							</g>
							<g>
								<path class="st7" d="M380.6,403.5c-1,0-1.9-0.1-2.9-0.4c-0.4-0.1-11.2-2.9-12.3-9.7c-0.3-0.7,0.3-1.5,0.9-2.3
									c14.5-20,22.7-35.3,22.7-42.1l3.1,0c0.1,9.6-12.6,29.2-23.3,43.9c-0.1,0.1-0.2,0.2-0.2,0.3c0.9,3.8,7.4,6.3,10,6.9
									c4.8,1.4,8.3-2.6,9.2-3.7v0l0.3-0.4c14.5-18.8,10-51.9,10-52.3l3.1-0.4c0.2,1.4,4.7,34.8-10.6,54.6l0,0
									c-0.9,1.5-3.2,3.2-3.2,3.3C385.2,402.7,382.9,403.5,380.6,403.5z"/>
							</g>
						</g>
						<g>
							<g>
								<path class="st7" d="M382,305.6C382.1,305.6,382.1,305.6,382,305.6c0.1,0.2,0,0.4,0,0.4l-1.2,0.2c-0.2,0-0.3,0.1-0.4,0.4
									c-0.2,2.5-0.2,5.2-0.1,8.5c0.1,5,1.5,7.4,3.7,7.3c2.4-0.1,3.2-2,3.1-7.7c-0.1-2.9-0.2-6.4-0.5-8.3c0-0.3-0.1-0.4-0.3-0.4
									l-1.3-0.2c-0.1,0-0.1-0.2-0.1-0.4c0-0.1,0-0.1,0.1-0.1l6.7-0.2c0.1,0,0.1,0,0.1,0.1c0,0.2-0.1,0.4-0.2,0.4l-0.8,0.2
									c-0.2,0.1-0.3,0.1-0.3,0.4c0.2,2.1,0.5,4.6,0.6,8.2c0.1,5.5-2.8,8.3-7.6,8.4c-4.1,0.1-7.2-1.3-7.4-7.8
									c-0.1-3.6,0.4-7.4,0.4-8.3c0-0.3-0.1-0.4-0.3-0.5l-1-0.2c-0.1,0-0.1-0.2-0.1-0.4c0-0.1,0-0.1,0.1-0.1L382,305.6z"/>
							</g>
							<g>
								<path class="st7" d="M393.8,315c-0.1-3.6,1.4-6.3,3.1-7.8c1.7-1.5,4-2.4,6.6-2.4c1.4,0,2.5,0.1,3.1,0.4
									c0.1,0.1,0.1,0.1,0.1,0.3l0.4,3.9c0,0.1-0.2,0.3-0.4,0.3c0,0-0.1,0-0.1-0.1c-0.6-1.2-1.2-2.5-1.7-3.4
									c-0.1-0.2-0.3-0.4-0.4-0.5c-0.2-0.2-0.5-0.3-1.1-0.3c-1.1,0-2.3,0.7-3.2,1.8c-1.4,1.8-2.1,4.3-2,7.4
									c0.1,4.8,2.8,6.7,5.4,6.6c0.5,0,1.2-0.1,1.6-0.2c0.8-0.2,1.6-0.5,2.4-0.8c0.1,0,0.1,0.1,0.1,0.4c0,0.1,0,0.1-0.1,0.2
									c-0.6,0.4-2.1,1.1-3.1,1.4c-0.5,0.2-1.5,0.3-2.4,0.4C397.7,322.5,393.9,320.6,393.8,315L393.8,315z"/>
							</g>
						</g>
						<g>
							<path class="st7" d="M386.7,352.3c-0.7,0-1.3,0-2-0.1c-13.2-1.8-21.5-21.8-18.3-44.4l0,0c3.1-22.6,16.5-39.6,29.7-37.7
								c13.2,1.8,21.5,21.8,18.3,44.4C411.4,335.9,399.2,352.3,386.7,352.3z M369.4,308.1c-2.9,21,4.1,39.3,15.7,40.9
								c11.5,1.6,23.3-14.1,26.2-35.1c2.9-21-4.1-39.3-15.7-40.9C384.1,271.4,372.3,287.2,369.4,308.1L369.4,308.1z"/>
						</g>
					</g>
				</g>
			</g>
		</g>
		<g>
			<path class="st3" d="M241.7,446c0,0,48.2,36.5,125.7,1.7c0,0-7.4,61.3-5.2,105.9c0,0-0.8,39.6,1.7,52.9c0,0-36.8,12.6-117.6,3.4
				C246.3,609.9,254.8,536.3,241.7,446z"/>
			<path class="st4" d="M241.7,446c0,0,2.1,20,35.2,30.4c26.4,8.3,50.6,4.5,59.3,2.7c1.6-0.3,3.9-1.5,3.6,0.1
				c-2.8,17.1-8.6,80.9-8,134.2c0,0,27.7-2.3,32.1-6.9c0,0-4.8-130.8,3.6-158.7C367.5,447.8,294,482.9,241.7,446z"/>
			<g>
				<g>
					<path class="st7" d="M246.3,609.9c0.5-7,0.8-14,1-21c0.3-7,0.5-14,0.5-21c0.1-14,0.1-28-0.5-42c-0.4-14-1.1-28-2.1-41.9
						c-0.9-14-2.2-27.9-3.4-41.9c1.2,6.9,2.3,13.8,3.3,20.8c0.9,7,1.8,13.9,2.5,20.9c1.5,14,2.2,28,2.8,42c0.3,14,0.4,28.1-0.2,42.1
						C249.5,582,248.5,596,246.3,609.9z"/>
				</g>
				<g>
					<path class="st7" d="M362.3,551.2c-0.6-9.9-0.9-19.7-1-29.6c-0.1-9.9,0.1-19.7,0.6-29.6c0.6-9.9,1.3-19.7,2.6-29.5
						c0.6-4.9,1.3-9.8,2-14.7c0.8-4.9,1.6-9.7,2.6-14.6l-2.3,29.5c-0.7,9.8-1.4,19.6-1.9,29.4c-0.6,9.8-0.9,19.6-1.3,29.5
						C363.2,531.5,362.9,541.4,362.3,551.2z"/>
				</g>
			</g>
		</g>
		<g>
			<g>
				<path class="st3" d="M366.6,454.3l0.3-5l43.8-17.4c0,0,16.9,26.1,24.2,41.1s19.6,43.3,19.6,43.3s8.6,16.4-21.4,44.9l-29,29.4
					c0,0-17.1,6.9-23,12.7c-5.9,5.8-18.5,11.6-17.1-5.7c0,0-12.1,3.5-7.3-11.4c0,0-10.9,1.5-8.8-9.1c0,0,1.2-6.5,8.8-9.5
					c0,0-16.5,6.2-14.1-8c0,0,12.8-16.3,28.2-3.5c0,0,13.1-0.6,32.3-23.3l8.5-10.5c0,0-4-18.4-21.4-38.9S370.7,457.2,366.6,454.3z"
					/>
			</g>
			<g>
				<path class="st4" d="M366.6,454.3c0,0,9.9-0.4,29.9-5.4c0,0,10.5-3.3,43.3,57.9c0,0,23.2,24.8-40.3,79.7
					c0,0-32.2,26.9-35.8,12.8c0,0-1,13.6,9.7,9s9.5-7.1,9.5-7.1s14.3-8.4,18.6-8.9s29-27.7,29.8-30.3c0,0,28.4-22.4,23.8-44.3
					c-4.6-21.9-44.4-87.1-44.4-87.1s-33.2,17.8-43.8,18.6L366.6,454.3z"/>
			</g>
			<g>
				<path class="st7" d="M367.5,454.8c4.9,4.7,9.4,9.7,13.8,14.9c4.4,5.1,8.5,10.5,12.5,16.1c3.9,5.5,7.6,11.3,10.8,17.3
					c3.2,6,6.1,12.4,6.9,19.1c-0.6-1.6-1.1-3.2-1.8-4.7c-0.7-1.5-1.4-3-2.2-4.5l-2.4-4.4l-2.6-4.3c-3.6-5.6-7.3-11.2-11.3-16.7
					c-3.9-5.5-7.9-10.9-11.8-16.4C375.4,465.7,371.4,460.3,367.5,454.8z"/>
			</g>
			<g>
				<path class="st12" d="M397.7,538.6c0,0,26,12.3,29.4,28.9l-20.2,20.1c0,0-4.4-19.4-22.2-37.5L397.7,538.6z"/>
			</g>
			<g>
				<path class="st5" d="M379.7,554.2c0,0,15.6,16.1,21,36.8l6.2-3.3c0,0-7.4-22.7-21.5-36.8L379.7,554.2z"/>
			</g>
			<g>
				<path class="st5" d="M398.2,539c0,0,27.1,13.4,28.9,28.6l5.2-6.3c0,0-3.4-17.3-30.1-27.4L398.2,539z"/>
			</g>
			<g>
				<path class="st6" d="M399.5,586.5c0,0,26.3-24.7,30.4-31.8l2.4,6.5c0,0-24.8,27.8-31.2,30.2L399.5,586.5z"/>
			</g>
			<g>
				<path class="st13" d="M424.8,561.2l2.3,5.2l-20.2,21.3l-2-6.3C404.9,581.3,418.1,568.8,424.8,561.2z"/>
			</g>
			<g>
				<g>
					<path class="st7" d="M365.3,568.5c-2.5-0.8-5.2-0.8-7.9-0.6c-2.7,0.2-5.2,0.7-7.8,1.2c-1.4,0.2-2.8,0.4-4.3-0.1
						c-1.5-0.5-2.8-1.8-3.2-3.3c-0.9-3-0.4-5.8,0.3-8.5l0.1-0.3l0.3-0.2c2.1-1.8,4.2-3.2,6.6-4.4c1.2-0.6,2.3-1.1,3.6-1.6
						c1.2-0.5,2.4-1,3.9-1.2c2.9-0.5,5.7,0.1,8.2,1.2c2.5,1.1,4.7,2.5,6.9,4.3l-0.7-0.4c0.8,0,2.4-0.2,3.6-0.7
						c1.3-0.4,2.6-1,3.8-1.6c2.5-1.3,4.9-2.9,7.2-4.6c4.6-3.5,8.8-7.6,12.9-11.7c4-4.2,7.9-8.6,11.6-13.2c3.8-4.5,7.3-9.2,11-13.9
						c-3.1,5-6.3,10-9.7,14.8c-3.5,4.8-7.1,9.4-11,13.9c-4,4.4-8.1,8.7-12.9,12.4c-2.4,1.8-4.9,3.6-7.6,5c-1.4,0.7-2.8,1.3-4.3,1.9
						c-0.8,0.2-1.5,0.5-2.3,0.6c-0.8,0.1-1.6,0.2-2.7,0.1l-0.4,0l-0.4-0.3c-3.5-3-8.2-5.4-12.6-4.9c-1,0.1-2.2,0.5-3.3,1
						c-1.2,0.4-2.3,0.9-3.4,1.4c-2.2,1.1-4.4,2.3-6.2,3.7l0.3-0.5c-0.8,2.3-1.3,5-0.7,7.2c0.3,1.1,1,1.9,2,2.3
						c1,0.5,2.3,0.4,3.5,0.3c2.6-0.3,5.3-0.6,8-0.5C360.1,567.1,362.9,567.4,365.3,568.5z"/>
				</g>
				<g>
					<path class="st7" d="M356.6,567.5c-2,1.3-3.9,2.8-5.3,4.5c-1.4,1.7-2.3,3.7-2.1,5.7c0.2,1.9,1,4.2,2.2,5.6c1.1,1.5,3,2,4.6,1.6
						l-0.6,0.4c0.9-1,1.8-1.8,2.8-2.6c1-0.8,2-1.5,3.2-2c1.2-0.5,2.4-0.9,3.6-1c1.3-0.1,2.5,0.1,3.6,0.6c-2.4-0.2-4.5,0.7-6.4,2
						c-0.9,0.6-1.8,1.4-2.5,2.2c-0.8,0.8-1.6,1.7-2.2,2.5l-0.2,0.3l-0.3,0.1c-1.5,0.6-3,0.7-4.5,0.3c-1.5-0.4-2.8-1.4-3.6-2.5
						c-0.9-1.1-1.5-2.3-1.9-3.6c-0.4-1.2-0.8-2.6-0.7-4c0-2.9,1.6-5.4,3.6-7C352,569.1,354.3,568,356.6,567.5z"/>
				</g>
				<g>
					<path class="st7" d="M360.5,582.5c-1.8,2.6-3.5,5.3-3.9,8c-0.2,1.4-0.1,2.6,0.5,3.7c0.6,1.1,1.4,2.2,2.3,2.5
						c1.8,0.8,4.8-0.9,7.5-2.3c2.7-1.4,6-3,9.3-2.3c-3.1,0.7-5.4,2.6-8,4.4c-1.3,0.9-2.6,1.8-4.2,2.6c-1.5,0.7-3.6,1.3-5.7,0.5
						c-2-0.9-3.1-2.6-3.8-4.2c-0.7-1.8-0.7-3.8-0.1-5.5C355.4,586.6,357.8,584.1,360.5,582.5z"/>
				</g>
				<g>
					<path class="st7" d="M392.7,416.7c2.5,0.2,4.9,1.4,6.9,2.8c2.1,1.4,4,3,5.8,4.8c3.5,3.6,6.6,7.5,9.5,11.5
						c5.7,8.1,10.8,16.6,15.4,25.4c4.7,8.7,8.7,17.7,12.6,26.8c3.9,9.1,8,18,11.7,27.2c1.6,4.8,2,10,0.9,14.9
						c-0.5,2.5-1.4,4.9-2.5,7.2c-1.2,2.3-2.7,4.3-4.1,6.3c-5.9,8-12.1,15.6-18.6,23.1c-6.5,7.5-13.2,14.7-20.6,21.4
						c-1.9,1.7-3.8,3.3-6.1,4.7c-0.7,0.3-1.5,0.7-2,0.9c-0.6,0.2-1.1,0.3-1.7,0.5c-1.1,0.4-2.2,0.8-3.3,1.3
						c-4.4,1.9-8.7,4.3-12.8,6.9l0.2-0.2c-2,2-4.1,3.7-6.5,5.3c-2.3,1.5-4.9,3-8,3c-1.6,0-3.1-1.2-3.9-2.4c-0.8-1.2-1.4-2.4-1.8-3.8
						c-0.4-1.4-0.5-2.8-0.3-4.2c0.1-0.7,0.3-1.4,0.7-2c0.2-0.3,0.3-0.6,0.5-0.9c0.1-0.1,0.2-0.3,0.3-0.4c0.1-0.1,0.1-0.1,0.2-0.2
						c0,0,0.1-0.1,0.2-0.1c0.1,0,0.2,0,0.2,0.2c0,0.1,0,0.1,0,0.1l-0.3-0.1c0.3,0.2,0,0.1-0.1,0.3c-0.1,0.1-0.2,0.3-0.3,0.4
						c-0.2,0.3-0.3,0.6-0.4,0.9c-0.2,0.6-0.4,1.3-0.5,1.9c-0.1,1.3,0.1,2.6,0.5,3.8c0.5,1.2,1.1,2.3,1.9,3.4c0.8,1,1.7,1.6,2.9,1.6
						c2.4-0.1,4.7-1.6,6.8-3.1c2.1-1.6,4.1-3.4,5.9-5.3l0.1-0.1l0.1-0.1c4.1-2.9,8.4-5.4,13-7.6c1.1-0.5,2.3-1,3.5-1.5
						c0.6-0.2,1.2-0.4,1.8-0.6c0.6-0.2,0.9-0.4,1.4-0.6c1.9-1.2,3.8-2.7,5.5-4.4c7.2-6.5,13.8-13.9,20.4-21.1
						c6.6-7.3,13-14.8,19.1-22.4c1.5-2,3.1-3.8,4.3-5.8c1.2-2.1,2.1-4.3,2.7-6.6c1.2-4.6,1.1-9.6-0.4-14.2
						c-7.1-18.3-16.4-35.8-25.7-53c-4.7-8.6-9.4-17.2-14.9-25.3c-2.7-4.1-5.5-8.1-8.8-11.7c-1.6-1.8-3.3-3.6-5.2-5.1
						c-1.9-1.5-4-2.8-6.4-3.3L392.7,416.7z"/>
				</g>
				<g>
					<path class="st7" d="M379,553.7c3.1,2.2,5.6,5,7.9,8c2.3,3,4.3,6.2,6.2,9.4c1.8,3.3,3.4,6.7,4.8,10.2l1.9,5.3
						c0.5,1.8,1.1,3.6,1.6,5.4l-4.6-10.2c-1.6-3.3-3.2-6.7-5.1-9.9c-1.8-3.2-3.7-6.4-5.8-9.5C383.9,559.3,381.7,556.3,379,553.7z"/>
				</g>
				<g>
					<path class="st7" d="M384.8,550.1c2.8,2.5,5.3,5.2,7.7,8.1c2.4,2.9,4.5,6,6.5,9.2c3.9,6.4,6.8,13.5,8,20.9
						c-1.2-3.5-2.5-7-4.1-10.3c-1.6-3.3-3.3-6.6-5.2-9.7C393.8,561.9,389.5,555.9,384.8,550.1z"/>
				</g>
				<g>
					<path class="st7" d="M397.6,538.6c3.3,1.3,6.5,2.9,9.6,4.8c3.1,1.8,6,3.9,8.7,6.3c2.7,2.4,5.2,5,7.2,8c2,3,3.6,6.3,4.3,9.8
						c-2.5-6.7-7.3-12-12.5-16.6c-2.6-2.3-5.5-4.4-8.3-6.5C403.7,542.4,400.7,540.5,397.6,538.6z"/>
				</g>
				<g>
					<path class="st7" d="M402.1,533.7c3.5,0.9,6.8,2.3,10.1,4c3.2,1.7,6.3,3.7,9.1,6c2.8,2.4,5.2,5.1,7.2,8.2
						c1.9,3.1,3.2,6.6,3.8,10.2c-1.2-3.4-2.7-6.6-4.8-9.5c-2.1-2.8-4.5-5.4-7.2-7.7c-2.7-2.3-5.6-4.3-8.7-6.1
						C408.6,536.9,405.4,535.2,402.1,533.7z"/>
				</g>
			</g>
		</g>
		<path class="st16" d="M37.9,330.5c0,0-11.5-1.7-15.4,8.6l-14.9,4L0.7,359l18.8,0.9l8.6-12.2c0,0,12.3,2.9,13.7-11.5l147.6-103
			l82.4-57.8l116.4-82l2.5,3.5L427.3,70l28.9,1.6l55.2-70.5l-85.6,31.2L419,58.1l-37.3,26.1l2.3,3.2l-97.6,68.4l-108.3,75.9
			L37.9,330.5z"/>
		<path class="st17" d="M508.3,2.4l-56.2,57.5c-1,1-2.3,1.6-3.8,1.7l-25.5,1l-37.4,26.8l1.2,2.2l-80.9,56.2l-83.9,58.2l-63.9,45
			l-116,82.4c0,0-4.9,13.4-17.6,11.3c0,0-9,14.9-22.3,13.6l17.7,1.4l8.6-12.2c0,0,9.5,2.5,14.1-10.5l61.2-44l105.6-73.7l105.1-74.4
			L389,93.5l1.8,3.3L427.3,70l28.9,1.6l55.2-70.5L508.3,2.4z"/>
		<g>
			<polygon class="st2" points="511.3,1.1 425.8,32.3 419,58.1 427.3,70 456.2,71.5 			"/>
			<polyline class="st2" points="419,58.1 381.7,84.2 390.8,96.8 427.3,70 			"/>
			<polyline class="st2" points="197,227.9 42.9,335.8 38.5,329.7 192.8,221.8 			"/>
			<polyline class="st2" points="221.6,201.3 384,87.4 388.4,93.6 223.5,209.2 			"/>
			
				<ellipse transform="matrix(0.8188 -0.574 0.574 0.8188 -188.6486 79.8153)" class="st2" cx="32.1" cy="338.8" rx="10.5" ry="8.2"/>
			<polyline class="st2" points="22.7,338.3 7.6,343.1 0.7,359 19.6,359.9 28.2,347.6 			"/>
		</g>
		<g>
			<g>
				<path class="st3" d="M197.1,230.9c0,0-14.2-25.1-12.1-29.6c0,0-9-15.2,3.7-17.1c0,0,9.7-4.4,12.9,7.5c0,0,1,0.6,0-8.2
					c0,0-1.9-4.7,6.2-6.4c8.1-1.8,11.4,1.4,12.4,6.1c0,0,0.9-6.8,1.2-6.9c0.3-0.1,0.6-6.4,10.2-5.3c9.6,1.1,8.5,13.9,8.5,13.9
					s7.1-2.9,8.6,5.9c0,0,3,8.5-9.6,20.1c0,0-12.1,22.3-12.6,29.4s-3.4,43.2-3.4,43.2l-8.4,62.1l-6.7,32.6c0,0,16.7,22.6,23.7,26.1
					c0,0,82.9,78.3,13.8,68.2c0,0-31.9-16-55.1-42.9c-23.3-26.9-21.9-43.4-22-66.5c-0.1-23,15.1-84.7,15.1-84.7L197.1,230.9z"/>
			</g>
			<g>
				<path class="st4" d="M222.7,195.4c0,0,7.1,7.9-5.8,43c0,0-12,65.6-13.6,84.6c-1.6,18.9-5.7,58.5,0.3,70.7
					c6.1,12.2,1.1,54.3,62.7,78.6c0,0,9.3-2.9,5.7-13.2c-2.9-8.1-39-51-64.3-81.1c0,0,8.1-33.9,10.4-55.6
					c2.3-21.7,7.9-81.8,7.9-81.8s5.2-17.6,11.8-28c0,0,12.9-10.6,10.6-22.9c0,0-1.6-7.1-9-5.2C239.5,184.6,237.2,221.2,222.7,195.4z
					"/>
			</g>
			<g>
				<path class="st7" d="M246.3,473.3c-19.7-10.8-40.4-24.3-56.5-41.9c-7.9-8.6-15-18.2-19.1-29.4c-4.1-11.3-4.4-23.3-4.1-34.9
					c0.4-11.7,1.7-23.3,3.6-34.8c1.9-11.5,4.2-22.9,6.8-34.2c2.6-11.3,5.6-22.6,8.7-33.7c3.2-11.2,6.5-22.3,10.3-33.3l0,0.5
					c-2.7-5.1-5.1-10.3-7.2-15.6c-2.1-5.3-4-10.7-4.9-16.4c1.2,5.6,3.3,10.9,5.6,16.1c2.3,5.2,4.9,10.3,7.7,15.2l0.1,0.2l-0.1,0.3
					c-6.7,22.2-12.6,44.6-17.6,67.2c-5,22.6-9,45.5-10.1,68.5c-0.3,11.4-0.1,23.2,3.7,33.8c3.9,10.7,10.6,20.2,18.2,28.8
					c7.6,8.6,16.3,16.4,25.3,23.6C225.8,460.8,236.6,467,246.3,473.3z"/>
			</g>
			<g>
				<path class="st7" d="M279.7,396.9c-5.8,4.5-12.2,8.2-19.2,10.7c-6.9,2.5-14.6,4.1-22.3,2.1c-7.5-2.4-13.3-7.6-18.1-13.1
					c-4.8-5.7-8.8-11.9-11.9-18.6c4.3,5.9,8.8,11.6,13.8,16.8c5,5.1,10.5,9.9,17,12.1c3.2,1,6.8,1.2,10.3,0.9c3.5-0.2,7-1,10.5-2
					C266.8,403.7,273.4,400.7,279.7,396.9z"/>
			</g>
			<g>
				<g>
					<path class="st12" d="M194.4,239.8c0,0,10.8,10.1,31.3,7.5l-1.8,19.2c0,0-19.1,4.4-35.4-6.8L194.4,239.8z"/>
				</g>
				<g>
					<path class="st5" d="M196.8,231.5c0,0,13,9.1,29.8,6.7l-0.9,9.1c0,0-19.2,3.2-31.5-6.8L196.8,231.5z"/>
				</g>
				<g>
					<path class="st5" d="M188.5,259.6c0,0,17.3,10.2,35.4,6.8l-0.4,5.8c0,0-24.9,3.1-36.4-6.2L188.5,259.6z"/>
				</g>
				<g>
					<path class="st13" d="M215.2,247.6c0,0-3.4,17-3.4,19.3c0,0,8.6,1,11.4-0.3l1.9-18.9C225.1,247.7,218.1,248.9,215.2,247.6z"/>
				</g>
				<g>
					<path class="st6" d="M215.2,247.6c0,0,0.4-5.7,1.7-9.3c0,0,5.9,0.7,9.4,0.2l-1.2,9.1C225.1,247.7,218.6,250.1,215.2,247.6z"/>
				</g>
				<g>
					<path class="st6" d="M210.8,273l1-6.1c0,0,7.6,0.9,11.4-0.3l-0.7,5.9C222.5,272.5,214.3,274.2,210.8,273z"/>
				</g>
			</g>
			<g>
				<path class="st7" d="M203.7,393.2c3.3-12.5,5.6-25.1,8-37.8c2.2-12.7,4-25.4,5.8-38.1c1.7-12.7,3-25.5,4.3-38.3
					c0.7-6.4,1.1-12.8,1.7-19.2l1.3-19.2l0-0.2l0-0.1c1.8-5.4,3.7-10.7,6.1-15.9c2.4-5.1,5-10.4,9.2-14.4c3.7-4,6.6-9,7.9-14.4
					c0.6-2.6,0.9-5.6-0.5-8c-1.4-2.5-4.3-3.5-7.1-3.7c2.7,0,5.9,0.9,7.5,3.4c1.6,2.5,1.4,5.7,0.9,8.4c-1.2,5.6-3.9,10.8-7.6,15.2
					c-3.9,3.9-6.3,9-8.4,14.2c-2.1,5.1-3.9,10.5-5.5,15.8l0.1-0.3l-1.1,19.3c-0.5,6.4-0.9,12.9-1.5,19.3
					c-1.1,12.8-2.7,25.7-4.5,38.4c-1.8,12.8-4,25.5-6.7,38.1c-1.3,6.3-2.7,12.6-4.4,18.8C207.5,380.9,205.8,387.1,203.7,393.2z"/>
			</g>
			<g>
				<path class="st2" d="M234.4,406.1"/>
			</g>
			<g>
				<g>
					<path class="st7" d="M196.5,215.6c-2.2-1.2-4-2.9-5.8-4.6c-1.7-1.8-3.3-3.7-4.7-5.7c-1.3-2.1-2.6-4.3-3.5-6.7
						c-0.9-2.3-1.6-4.8-2.1-7.2l0.1,0.3c-0.8-1.5-0.2-2.9,0.5-3.9c0.7-0.9,1.6-1.6,2.5-2.2c1.8-1.1,3.8-1.8,5.7-2.4
						c1-0.3,1.9-0.6,3.1-0.8c1.2-0.1,2.4,0,3.6,0.5c2.3,1,3.8,2.9,4.8,4.7c2.1,3.8,3,7.8,3.5,11.8c0.5,4,0.4,8.1,0.1,12.1l0,0.1
						c-0.2,0.9-0.5,1.7-1,2.4c-0.5,0.7-1.1,1.4-1.9,1.8c-0.8,0.4-1.7,0.5-2.5,0.4C198.1,216.1,197.3,215.9,196.5,215.6z
						 M196.7,215.3c0.7,0.2,1.5,0.4,2.3,0.5c0.8,0.1,1.5-0.2,2.1-0.6c1.2-0.8,1.8-2.4,1.9-3.8l0,0.1c-0.4-3.9-1.1-7.8-1.7-11.6
						c-0.7-3.8-1.5-7.6-3.1-10.8c-0.8-1.6-1.9-3-3.3-3.7c-0.7-0.3-1.4-0.4-2.3-0.4c-0.8,0.1-1.7,0.3-2.7,0.5c-1.8,0.5-3.7,1.1-5.3,2
						c-0.8,0.4-1.5,1-2,1.6c-0.5,0.6-0.6,1.3-0.5,1.6l0.1,0.2l0,0.1c0.4,2.4,1,4.7,1.8,7c0.7,2.3,1.7,4.5,2.9,6.7
						C189.2,208.9,192.5,212.8,196.7,215.3z"/>
				</g>
			</g>
			<g>
				<g>
					<path class="st7" d="M213.3,208.8c-2-1.5-3.7-3.3-5.2-5.2c-1.5-1.9-2.9-4-4.1-6.2c-1.1-2.2-2.1-4.6-2.7-7
						c-0.7-2.4-1-4.9-1.3-7.4l0.1,0.3c-0.6-1.6,0.1-2.9,0.9-3.8c0.8-0.9,1.8-1.5,2.8-1.9c1.9-0.9,3.9-1.4,5.9-1.8
						c1-0.2,2-0.4,3.2-0.4c1.2,0,2.4,0.3,3.5,0.9c2.1,1.2,3.4,3.3,4.3,5.2c1.7,4,2.1,8.1,2.2,12.1c0.1,4.1-0.5,8-1.2,12l0,0.1
						c-0.3,0.9-0.7,1.6-1.3,2.3c-0.6,0.7-1.3,1.2-2.1,1.5c-0.8,0.3-1.7,0.3-2.5,0.1C214.8,209.6,214.1,209.2,213.3,208.8z
						 M213.5,208.6c0.7,0.3,1.5,0.6,2.2,0.7c0.8,0.1,1.5,0,2.2-0.3c1.3-0.6,2-2.2,2.3-3.5l0,0.1c0.1-3.9-0.2-7.9-0.4-11.7
						c-0.3-3.8-0.7-7.7-1.9-11.1c-0.6-1.7-1.6-3.2-2.8-4c-0.7-0.4-1.4-0.6-2.2-0.7c-0.8,0-1.7,0.1-2.7,0.3c-1.9,0.3-3.8,0.7-5.5,1.4
						c-0.9,0.3-1.6,0.8-2.2,1.3c-0.6,0.5-0.8,1.3-0.7,1.6l0.1,0.2l0,0.1c0.2,2.4,0.4,4.8,1,7.2c0.5,2.4,1.2,4.7,2.1,6.9
						C206.7,201.4,209.6,205.7,213.5,208.6z"/>
				</g>
			</g>
			<g>
				<g>
					<path class="st7" d="M228.1,203.2c-1.7-1.9-2.9-4-4-6.2c-1.1-2.2-2-4.5-2.7-6.9c-0.6-2.4-1.1-4.9-1.2-7.4c-0.2-2.5,0-5,0.3-7.5
						l0,0.4c-0.3-1.7,0.7-2.8,1.7-3.5c1-0.7,2.1-1,3.1-1.3c2.1-0.5,4.1-0.5,6.2-0.5c1,0,2,0,3.2,0.3c1.1,0.3,2.3,0.8,3.2,1.6
						c1.8,1.7,2.7,3.9,3.1,6c0.8,4.2,0.3,8.4-0.4,12.3c-0.8,4-2.2,7.8-3.7,11.5l0,0.1c-0.5,0.8-1.1,1.4-1.7,2
						c-0.7,0.5-1.5,0.9-2.4,1.1c-0.9,0.1-1.8-0.1-2.5-0.4C229.4,204.2,228.7,203.7,228.1,203.2z M228.3,203c0.6,0.5,1.3,0.9,2,1.2
						c0.7,0.3,1.5,0.3,2.2,0.1c1.4-0.3,2.4-1.7,3-3l0,0.1c0.9-3.8,1.5-7.7,2.1-11.5c0.6-3.8,1-7.7,0.5-11.3
						c-0.2-1.8-0.9-3.4-1.9-4.5c-0.6-0.5-1.2-0.9-2-1.1c-0.7-0.2-1.7-0.3-2.7-0.3c-1.9-0.1-3.8-0.1-5.6,0.2
						c-0.9,0.1-1.7,0.4-2.4,0.8c-0.7,0.4-1,1.1-1,1.4l0,0.2l0,0.1c-0.3,2.4-0.6,4.8-0.6,7.2c-0.1,2.4,0.2,4.8,0.6,7.2
						C223.2,194.5,225.1,199.3,228.3,203z"/>
				</g>
			</g>
			<g>
				<path class="st7" d="M196.6,231.4c4.7,2.3,9.4,4.3,14.4,5.6c2.5,0.7,5,1.1,7.5,1.4c2.6,0.3,5.1,0.3,7.7,0.2
					c-5.1,1.4-10.6,1.2-15.7-0.1c-2.6-0.7-5.1-1.6-7.4-2.8C200.9,234.5,198.6,233.1,196.6,231.4z"/>
			</g>
			<g>
				<path class="st7" d="M194.2,240.7c2.3,1.5,4.8,2.6,7.3,3.5c2.5,0.9,5.1,1.6,7.7,2.1c2.6,0.5,5.3,0.8,8,1.1
					c2.7,0.2,5.4,0.2,8.2,0.3c-1.3,0.3-2.7,0.5-4.1,0.7c-1.4,0.1-2.7,0.2-4.1,0.2c-2.8,0.1-5.5-0.2-8.3-0.7
					c-2.7-0.6-5.4-1.4-7.9-2.6C198.6,244.1,196.2,242.6,194.2,240.7z"/>
			</g>
			<g>
				<path class="st7" d="M188.5,259.6c5.6,2.4,11.5,4.3,17.3,5.6c2.9,0.7,5.9,1.1,8.8,1.4c3,0.3,6,0.2,9,0.2
					c-5.9,1.4-12.2,1.2-18.2-0.1c-3-0.7-5.9-1.6-8.7-2.8C193.9,262.8,191,261.4,188.5,259.6z"/>
			</g>
			<g>
				<path class="st7" d="M186.5,265.7c2.8,1.5,5.7,2.6,8.7,3.6c3,0.9,6.1,1.6,9.1,2.1c3.1,0.5,6.2,0.8,9.4,1
					c3.1,0.2,6.3,0.2,9.5,0.3c-1.6,0.3-3.1,0.5-4.7,0.7c-1.6,0.1-3.2,0.2-4.8,0.2c-3.2,0.1-6.4-0.2-9.6-0.7
					c-3.2-0.6-6.3-1.3-9.3-2.5C191.8,269.2,188.9,267.7,186.5,265.7z"/>
			</g>
		</g>
		<g>
			<path class="st8" d="M278.2,460.8c0,0-4.4,12,4.6,23.2c0,0-3.6-15,8.4-21.6L278.2,460.8z"/>
			<polygon class="st8" points="296.5,462.3 304.3,482.6 311.7,461.6 			"/>
			<path class="st8" d="M321,460.8c0,0,10.6,9.8,7.7,22.5c0,0,11.9-14.8,3.9-24.7L321,460.8z"/>
			<path class="st2" d="M327.7,396.7c0,0-6.3-1.3-4.4-10.8"/>
			<g>
				<path class="st0" d="M279.7,396.5c0,0-25.2,8.4-53.2,3.9c0,0-6.5,42.8,28.7,53.4c35.1,10.6,43,10.5,80.2,4.1
					s75.3-27.4,75.3-27.4s-8.9-19.6-82-33.4C328.7,397.2,301.5,424.5,279.7,396.5z"/>
				<path class="st1" d="M308.2,408.3c0,0,77.2,67.1-50.1,46.4c0,0,28.4,20.9,107.6-5.1l45-19.1c0,0-6.1-18.5-82-33.4
					C328.7,397.2,315,408.4,308.2,408.3z"/>
				<path class="st2" d="M279.7,396.5c0,0,20.6,28.8,48,0.2c0,0,74,14.5,83,33.9c0,0-118.6,64.6-176.3,9.3c0,0-8.9-11.7-8-39.4
					C226.5,400.5,246.9,406.7,279.7,396.5z"/>
			</g>
			<polyline class="st2" points="296.5,462.3 304.8,484 311.7,461.6 			"/>
			<path class="st2" d="M291.3,462.4c0,0-12.4,7.2-8.2,22.5c0,0-10-10.9-4.4-24"/>
			<path class="st2" d="M319.6,461c0,0,13.1,7.7,8.7,23.9c0,0,10.7-11.6,4.7-25.5"/>
		</g>
		<g>
			<g>
				<path class="st8" d="M246.3,609.9c0,0,85,8.8,118-3.9c0,0,18.4,39.6,20,58.7c2,23,29.4,35.8,29.4,35.8s-50.9,29.2-110,7.6
					c-61.4-22.5-98.9,16.9-98.9,16.9s20.1-24.4,21.9-53.1C228.4,643.1,246.3,609.9,246.3,609.9z"/>
			</g>
			<g>
				<path class="st9" d="M331.8,613.4c0,0,36,24.8,35.8,61.3c0,0,7.6,22.9,28.1,24.8c0,0-18.6,14.6-60.8,3.3c0,0-11.2-5-9.8-24.6
					c0,0-4.1,15.3-0.1,21.7c0,0-16.3-10.3-51.4-7.4c0,0-2.6-8.6,0-21.7c0,0-4.8,18.4-4.5,20.8c0,0-36.6,1.3-62.4,31.7
					c0,0,26.9-27.1,67.7-22.6c0,0,25,4.4,36.7,9.8c11.7,5.4,57.6,13.4,102.6-10c0,0-23-9-28.9-32.2c0,0-9.5-47.4-21.4-61.8
					C363.3,606.5,342.1,612.9,331.8,613.4z"/>
			</g>
			<g>
				<path class="st7" d="M203,727.1c6.1-7.4,13.7-12.8,21.9-17.3c8.2-4.4,17.2-7.4,26.4-9c9.3-1.6,18.7-1.3,28-0.3l6.9,1.3
					c2.3,0.4,4.6,0.8,6.8,1.6l13.3,4c17.4,5.6,35.9,8.2,54.2,7c18.3-1.1,36.7-5.6,52.9-14.2l0.1,0.9c-8.4-4-15.9-9.8-21.6-17.2
					c-2.8-3.7-5-7.9-6.5-12.3c-1.6-4.4-2-9.1-3.1-13.5c-2.1-8.9-5-17.6-8.2-26.2c-3.3-8.6-6.9-17-10.8-25.2l1.7,0.6
					c-4.7,2.2-9.6,3.6-14.6,4.4c-4.9,0.9-9.9,1.4-14.9,1.9c-9.9,0.8-19.9,1-29.8,1c-19.9-0.1-39.7-1.2-59.5-2.9l1.5-0.8
					c-4.7,9.2-8.7,18.9-12,28.8c-3.3,9.9-5.9,20-7.7,30.3l-1.5,7.8c-0.5,2.6-1.2,5.2-1.8,7.7c-1.4,5.1-3.1,10.1-5.1,15
					c-2.1,4.9-4.5,9.6-7.2,14.1c-1.4,2.3-2.8,4.5-4.3,6.6c-0.8,1.1-1.6,2.1-2.4,3.2l-1.3,1.5l-0.6,0.7
					C203.6,726.6,203.6,726.9,203,727.1z M203.2,726.9c-0.2-0.3,0.3-0.5,0.4-0.7l0.6-0.8l1.2-1.6c0.8-1.1,1.5-2.1,2.2-3.2
					c1.4-2.2,2.8-4.4,4-6.7c2.5-4.6,4.7-9.3,6.6-14.2c1.9-4.9,3.5-9.8,4.8-14.9c0.6-2.5,1.2-5.1,1.7-7.6l1.3-7.7
					c1.6-10.4,4-20.7,7.2-30.8c3.2-10.1,6.9-20,11.8-29.5l0.5-0.9l1.1,0.1c19.7,1.7,39.5,2.6,59.2,2.9c9.9,0.1,19.8,0,29.6-0.7
					c4.9-0.4,9.8-0.9,14.6-1.7c4.8-0.7,9.5-2,13.9-3.9l1.2-0.5l0.5,1.1c3.9,8.4,7.3,17,10.4,25.6c3.1,8.7,5.9,17.5,7.8,26.6
					c1,4.5,1.4,9.2,2.8,13.4c1.4,4.3,3.5,8.4,6.2,12c5.5,7.2,12.8,13.2,21.1,16.9l0.9,0.4l-0.9,0.5c-8.2,4.6-16.9,7.8-25.8,10.4
					c-8.9,2.6-18.1,4.2-27.4,5c-18.6,1.8-37.5-0.7-55.2-6.4l-13.2-4.1c-2.2-0.8-4.4-1.2-6.7-1.6l-6.7-1.4
					c-9.1-1.1-18.3-1.4-27.3-0.1c-9,1.4-17.9,4.1-26.1,8.2c-4.2,2-8.1,4.4-11.8,7c-1.8,1.4-3.7,2.7-5.4,4.3
					C206.4,723.7,204.8,725.6,203.2,726.9z"/>
			</g>
		</g>
	</g>
	<path class="st7" d="M248.2,320c5.3,5.1,12.5,7.5,19.6,7.3c3.6,0,7.1-0.9,10.5-1.9c1.7-0.5,3.4-1.2,5.1-1.9c1.7-0.7,3.3-1.5,5-2.2
		c-1.5,1-3.1,1.9-4.7,2.9c-1.7,0.8-3.3,1.6-5,2.3c-3.5,1.3-7.1,2.2-10.9,2.3c-3.7,0.1-7.5-0.5-10.9-2.1
		C253.5,325.3,250.4,323,248.2,320z"/>
	<path class="st7" d="M357.2,320.2c-2.1,3.1-5.1,5.5-8.5,7.1c-3.4,1.7-7.2,2.4-10.9,2.5c-3.8,0-7.5-0.8-11-2.1
		c-1.7-0.7-3.4-1.5-5.1-2.3c-1.6-1-3.2-1.9-4.7-2.9c1.7,0.7,3.4,1.5,5,2.3c1.7,0.6,3.4,1.3,5.1,1.8c3.5,1,7,1.7,10.6,1.7
		C344.9,328.2,352.1,325.5,357.2,320.2z"/>
	<path class="st7" d="M303.9,328.3c0.7,0,1.4,0.2,2.1,0.6c0.6,0.3,1.2,0.9,1.6,1.6c0.4,0.7,0.5,1.7,0.2,2.4
		c-0.3,0.8-0.9,1.3-1.6,1.6c0.2-0.7,0.5-1.3,0.4-1.8c0-0.5-0.1-1-0.4-1.4C305.8,330.3,304.8,329.4,303.9,328.3z"/>
</g>
</svg>
