<?xml version="1.0" encoding="utf-8"?>
<!-- Generator: Adobe Illustrator 21.0.2, SVG Export Plug-In . SVG Version: 6.00 Build 0)  -->
<svg version="1.1" id="Capa_2" xmlns="http://www.w3.org/2000/svg" xmlns:xlink="http://www.w3.org/1999/xlink" x="0px" y="0px"
	 viewBox="0 0 364.9 864.9" style="enable-background:new 0 0 364.9 864.9;" xml:space="preserve">
<style type="text/css">
	.st0{fill:#FFFFFF;}
	.st1{fill:#1C1C1B;}
	.st2{fill:#8F8F90;}
	.st3{fill:#282E55;}
	.st4{fill:#242740;}
	.st5{fill:#F8B454;}
	.st6{fill:#DD9239;}
	.st7{fill:#0A567D;}
	.st8{fill:#293766;}
	.st9{fill:#C8C6C5;}
	.st10{fill:none;stroke:#1C1C1B;stroke-miterlimit:10;}
	.st11{fill:#A4A4A4;}
</style>
<g>
	<g>
		<g>
			<path class="st0" d="M171.7,796.9c0,0-5.6,46.7,4.2,48.2c0,0,72.8,31.3,100.1,10.6c0,0,12.6-39.6-24.4-47.1
				c0,0-14.1-0.3-20.9-15.8L171.7,796.9z"/>
		</g>
		<g>
			<g>
				<g>
					<path class="st1" d="M171.7,800.2c0.1,6.3,0.1,12.5,0,18.8l-0.1,9.4l-0.1,4.7c-0.1,1.4,0.1,2.8,0.5,4.2c0.8,2.7,2.7,5,5.1,6.4
						c0.6,0.4,1.2,0.7,1.9,1l2.2,0.9l4.3,1.7c5.8,2.2,11.6,4.5,17.6,6.4c11.8,3.9,24.2,6.7,36.6,7.2c6.2,0.3,12.4-0.1,18.5-1
						c6.1-1.1,11.9-3,17.2-5.8l-0.7,0.9c1.2-4.7,1.8-9.7,1.7-14.6c-0.1-4.9-0.9-9.7-2.7-14.2c-1.7-4.5-4.9-8.2-8.8-11
						c-1-0.6-1.9-1.5-3-2l-3.3-1.5c-2.2-1-4.7-1.4-7-2.2l0.2,0c-2.5-0.3-4.8-1-7-1.9c-2.2-0.9-4.3-2.2-6.1-3.7
						c-1.9-1.5-3.5-3.2-4.8-5.2c-1.4-1.9-2.7-4.8-3.5-7l0.3-0.1c1,2,2.5,4.8,4,6.5c1.4,1.8,3.1,3.2,4.9,4.5c1.8,1.3,3.8,2.3,5.9,3
						c2.1,0.7,4.3,1.2,6.4,1.4l0.1,0l0,0c2.5,0.7,5.1,1,7.6,2l3.7,1.5c1.3,0.4,2.3,1.4,3.4,2c4.5,2.9,8.2,7.2,10.2,12.2
						c2.1,4.9,2.9,10.3,2.9,15.5c-0.1,5.3-0.7,10.4-2.2,15.5l-0.2,0.6l-0.6,0.3c-5.8,3-12.1,4.7-18.4,5.6c-6.3,0.6-12.7,0.6-19,0
						c-3.1-0.3-6.3-0.7-9.4-1.1c-3.1-0.5-6.2-1-9.3-1.6c-6.2-1.1-12.3-2.6-18.4-4.1c-6.1-1.6-12.1-3.3-18-5.5l-4.4-1.6l-2.2-0.8
						c-0.8-0.3-1.6-0.7-2.3-1.2c-2.9-1.9-5.2-4.8-6.1-8.1c-0.5-1.7-0.7-3.4-0.5-5.1l0.3-4.7l0.7-9.4c0.4-6.2,1-12.5,1.6-18.7
						L171.7,800.2z"/>
				</g>
			</g>
		</g>
		<g>
			<path class="st2" d="M230.4,792.7c0,0-9.5,9.6-42.1,12.9c0,0-11.7,15-6.4,30.6c6,17.8,71.1,28.7,92.9,18.2c0,0-17.9,13.7-58.8,3
				c-40.8-10.7-41-14.7-41-14.7s-3.9-1.3-3.5-13.6c0.4-13.6-0.8-11.9,0.7-29.9c0,0,47.6-3.7,57.7-7.7L230.4,792.7z"/>
		</g>
		<g>
			<path class="st1" d="M170.3,832.1c4,2.4,8.1,4.7,12.3,6.7c2.1,1.1,4.2,2,6.3,3l6.4,2.7c8.7,3.3,17.6,6,26.7,7.6
				c4.5,1,9.1,1.4,13.7,1.9c4.6,0.1,9.2,0.6,13.9,0.3c2.3-0.1,4.6-0.1,6.9-0.3l6.9-0.9c2.3-0.2,4.6-0.7,6.9-1.2
				c2.3-0.5,4.6-1,6.9-1.4c-8.8,3.2-18,5.8-27.5,6.4l-3.5,0.4c-1.2,0.1-2.4,0-3.6,0c-2.4,0-4.7,0-7.1-0.1c-4.7-0.5-9.5-0.8-14.1-1.8
				c-9.3-1.8-18.4-4.6-27-8.5C185.8,842.8,177.6,838.1,170.3,832.1z"/>
		</g>
		<g>
			<path class="st1" d="M263.5,813.6c-2.4,0.8-4.6,1.9-6.5,3.5c-1,0.8-1.8,1.7-2.4,2.7c-0.7,1-1.1,2.1-1.5,3.2l-0.2,0.7l-0.7-0.3
				c-3.3-1.4-6.4-3.1-9.5-4.9c-3.1-1.7-6.1-3.7-9-5.7c-2.9-2.1-5.7-4.2-8.2-6.8c-1.3-1.3-2.5-2.6-3.4-4.1c-0.9-1.5-2-3.9-1.5-5.6
				c-0.2,1.8,1,3.9,2,5.3c1.1,1.3,2.3,2.6,3.6,3.7c2.6,2.3,5.5,4.3,8.4,6.3c2.9,2,5.9,3.8,8.9,5.6c3,1.8,6.1,3.5,9.2,5l-0.9,0.4
				c0.5-1.2,1.1-2.4,1.9-3.4c0.8-1,1.7-2,2.8-2.7C258.6,815,261,814,263.5,813.6z"/>
		</g>
		<g>
			<path class="st1" d="M263.5,813.6c-3.9-0.4-7.7-0.8-11.4-0.4c-1.9,0.2-3.7,0.5-5.5,1.1c-1.8,0.6-3.4,1.6-4.9,2.8
				c1-1.7,2.6-3,4.4-4c1.8-0.9,3.8-1.3,5.8-1.5c2-0.2,4,0,5.9,0.3C259.8,812.2,261.7,812.8,263.5,813.6z"/>
		</g>
		<g>
			<path class="st1" d="M247.7,807.6c-3.2-0.5-6.3-0.7-9.3-0.2c-1.5,0.2-3,0.5-4.5,1c-1.5,0.4-2.5,0.8-4,1.4c2.3-2.3,5-3.6,8.3-4
				C241.5,805.3,245,805.9,247.7,807.6z"/>
		</g>
		<g>
			<path class="st1" d="M253.3,809.3c-1.5,1.9-2.2,4-2.2,6.2c-0.1,1.1,0.1,2.2,0.2,3.3c0.2,1.1,0.4,2.3,0.6,3.5
				c-0.4-0.5-0.7-1-1.1-1.5l-0.8-1.7c-0.4-1.2-0.7-2.4-0.6-3.7C249.5,812.9,251,810.2,253.3,809.3z"/>
		</g>
		<g>
			<path class="st1" d="M239.4,803.6c-0.2,1.1,0,2.2,0.2,3.3c0.2,1.1,0.4,2.1,0.7,3.1c0.5,2.1,1.2,4.2,1.5,6.5
				c-0.8-0.9-1.4-1.8-1.9-2.9c-0.5-1-0.9-2.1-1.2-3.2c-0.3-1.1-0.4-2.3-0.3-3.5C238.4,805.8,238.6,804.5,239.4,803.6z"/>
		</g>
		<g>
			<path class="st1" d="M235.7,800.3c-2.5-0.8-4.8-0.8-7-0.1c-1.1,0.3-2.1,0.9-3.2,1.5c-1,0.6-1.5,0.8-2.6,1.6
				c0.3-0.6,0.2-0.6,0.5-1.1c0.4-0.5,0.8-1,1.3-1.4c1-0.9,2.1-1.6,3.4-2c1.3-0.4,2.7-0.5,4-0.2C233.6,798.7,234.8,799.3,235.7,800.3
				z"/>
		</g>
		<g>
			<path class="st1" d="M232.7,796.1c-0.7,0.8-1.2,1.8-1.7,2.7c-0.4,1-0.9,1.9-1.2,2.9c-0.8,1.9-1.5,4-2.6,5.9
				c-0.1-1.1,0-2.2,0.2-3.3c0.2-1.1,0.5-2.2,0.9-3.2c0.4-1,1-2.1,1.7-2.9C230.7,797.2,231.5,796.3,232.7,796.1z"/>
		</g>
	</g>
	<g>
		<g>
			<path class="st0" d="M133.4,799.8c0,0,4.7,9,1.4,31.2c0,0,4.3,12.4-9.4,17.4c-13.8,5-67.2,26.1-96.4,8.8c0,0-9.2-37.5,20.5-46.2
				c0,0,18.1-3.8,26.3-20.3L133.4,799.8z"/>
		</g>
		<g>
			<g>
				<g>
					<path class="st1" d="M134.1,799.8c2.6,5.9,3.1,12.6,2.9,19l-0.4,9.5c-0.1,1.6-0.1,3.1,0,4.7c0.1,1.5,0.3,3.2,0,5
						c-0.5,3.5-2.3,6.8-5,9.1c-1.3,1.1-3,2-4.5,2.5l-4.5,1.7c-6,2.2-12.2,4-18.3,5.7c-12.4,3.2-24.9,6-37.6,7.3
						c-12.6,1.2-26.2,0.8-38-5.6l-0.6-0.3l-0.2-0.6c-1.5-5.1-2.2-10.2-2.2-15.5c0-5.2,0.8-10.6,3-15.5c2.1-5,5.7-9.3,10.2-12.2
						c4.5-2.9,9.6-4.6,14.7-5.5l-0.1,0c2.3-0.7,4.6-1.7,6.8-2.9c2.2-1.2,4.3-2.5,6.3-4c2-1.5,3.8-3.2,5.4-5.1c1.7-1.9,3-4,4.2-6.3
						l0.3,0.1c-1,2.3-2.1,4.7-3.7,6.7c-1.5,2.1-3.2,4-5.2,5.7c-2,1.7-4.1,3.2-6.3,4.6c-2.2,1.3-4.5,2.5-7,3.5l0,0l-0.1,0
						c-4.8,1-9.5,2.8-13.4,5.6c-3.9,2.8-6.9,6.6-8.7,11.1c-1.8,4.4-2.6,9.3-2.7,14.2c-0.1,4.9,0.5,9.9,1.7,14.6l-0.4-0.2
						c10.8,6,23.5,6.7,36,6.1c12.7-0.6,25.2-3.4,37.2-7.5c6-2,11.9-4.3,17.8-6.6l4.4-1.8c1.5-0.6,2.6-1.2,3.7-2.1
						c2.2-1.8,3.7-4.4,4.2-7.2c-0.6-12.4,3.7-25.4-0.1-37.7L134.1,799.8z"/>
				</g>
			</g>
		</g>
		<g>
			<path class="st2" d="M74.2,793.8c0,0,11.2,11,43.7,14.5c0,0,11.5,15,6.2,30.7c-6.1,17.8-71.5,28.6-93.2,17.9
				c0,0,17.3,13.4,58.2,3s41.6-14.6,41.6-14.6s4.5,0.3,3.7-13.3c-0.8-13.6,3.2-13.6-0.5-31.8c0,0-49.3-4.4-59.4-8.5L74.2,793.8z"/>
		</g>
		<g>
			<path class="st1" d="M28,852.6c4.5,1.1,9,1.8,13.5,2.2c4.5,0.5,9.1,0.6,13.6,0.5c9.1-0.2,18.1-1.2,27.1-2.8l6.7-1.3
				c2.2-0.4,4.4-1.1,6.6-1.6c4.5-0.9,8.8-2.5,13.2-3.7c4.4-1.3,8.6-3,13-4.4c4.3-1.6,8.5-3.4,12.8-5c-4,2.2-8.1,4.3-12.2,6.5
				c-4.2,1.8-8.4,3.8-12.8,5.4c-8.7,3.3-17.6,5.8-26.7,7.5c-9.1,1.6-18.4,2.5-27.7,2.1C45.9,857.4,36.6,856.1,28,852.6z"/>
		</g>
		<g>
			<path class="st1" d="M51.6,810.5c2.5,0.4,4.9,1.4,7,2.9c1.1,0.7,2,1.7,2.8,2.7c0.8,1,1.4,2.2,1.9,3.4l-0.9-0.4
				c3.1-1.6,6.2-3.2,9.2-5c3-1.8,6-3.6,8.9-5.6c2.9-2,5.7-4,8.4-6.3c1.3-1.1,2.5-2.4,3.6-3.7c1-1.3,2.1-2.9,1.9-4.7
				c0.5,1.8-0.5,3.6-1.4,5c-1,1.5-2.2,2.9-3.4,4.1c-2.5,2.5-5.3,4.7-8.2,6.8c-2.9,2-5.9,4-9,5.7c-3.1,1.7-6.2,3.4-9.5,4.9l-0.7,0.3
				l-0.2-0.7c-0.4-1.1-0.8-2.2-1.5-3.2c-0.7-1-1.5-1.9-2.4-2.7C56.2,812.5,54,811.3,51.6,810.5z"/>
		</g>
		<g>
			<path class="st1" d="M53.2,810.5c1.6-0.9,3.4-1.4,5.2-1.8c1.8-0.4,3.7-0.4,5.5-0.2c1.9,0.3,3.7,0.8,5.3,1.8
				c1.6,1,2.9,2.4,3.8,3.9c-1.4-1.1-2.8-2.2-4.4-2.8c-1.6-0.6-3.2-1.1-4.9-1.3C60.3,809.7,56.8,810,53.2,810.5z"/>
		</g>
		<g>
			<path class="st1" d="M61.4,806.1c2.4,1,3.8,3.9,3.9,6.5c0.1,1.3-0.2,2.6-0.6,3.9l-0.8,1.8c-0.4,0.5-0.7,1.1-1.1,1.6
				c0.2-1.3,0.4-2.5,0.6-3.6c0.1-1.2,0.3-2.3,0.2-3.5C63.6,810.3,63,808.1,61.4,806.1z"/>
		</g>
		<g>
			<path class="st1" d="M71.5,797.7c1.2,0.8,2.1,2.1,2.7,3.4c0.7,1.3,1,2.8,1.1,4.3c0,1.5-0.1,3-0.5,4.4c-0.2,0.7-0.5,1.4-0.8,2
				c-0.4,0.6-0.7,1.3-1.1,1.8c0.2-1.4,0.6-2.8,0.7-4.1c0.2-1.4,0.2-2.7,0.1-4C73.6,802.8,72.9,800.2,71.5,797.7z"/>
		</g>
		<g>
			<path class="st1" d="M65.4,803.1c1.6-0.9,3.4-1.4,5.2-1.8c1.8-0.4,3.7-0.4,5.5-0.2c1.9,0.3,3.7,0.8,5.3,1.8
				c1.6,1,2.9,2.4,3.8,3.9c-1.4-1.1-2.8-2.2-4.4-2.8c-1.6-0.6-3.2-1.1-4.9-1.3C72.5,802.3,69,802.6,65.4,803.1z"/>
		</g>
		<g>
			<path class="st1" d="M72.4,796.5c1.6-0.9,3.4-1.4,5.2-1.8c1.8-0.4,3.7-0.4,5.5-0.2c1.9,0.3,3.7,0.8,5.3,1.8
				c1.6,1,2.9,2.4,3.8,3.9c-1.4-1.1-2.8-2.2-4.4-2.8c-1.6-0.6-3.2-1.1-4.9-1.3C79.5,795.7,76,796,72.4,796.5z"/>
		</g>
		<g>
			<path class="st1" d="M77.1,792.2c1.5,0,2.9,0.5,4.2,1.2c1.3,0.7,2.5,1.7,3.4,2.8c0.9,1.2,1.7,2.5,2.2,3.9
				c0.3,0.7,0.4,1.4,0.6,2.1c0.1,0.7,0.2,1.4,0.2,2.2c-0.7-1.3-1.2-2.6-1.9-3.8c-0.7-1.2-1.4-2.3-2.3-3.3
				C81.7,795.1,79.6,793.4,77.1,792.2z"/>
		</g>
	</g>
	<g>
		<g>
			<g>
				<path class="st3" d="M87,525.8c0,0,95.8,25.5,141.8-1.9l3.5,84.6l5.3,130.9l2.8,45.2c0,0-41.8,28.6-77.1,13.3l1.4-88.8
					c0,0,1.7-113.8-6.6-130.4l-10.4-0.3c0,0,0.6,82-1.5,97.5s-7.2,120.5-7.2,120.5s-21.8,13.8-71-3.7L77,687.1l6.3-99.1L87,525.8z"
					/>
			</g>
			<g>
				<path class="st4" d="M87,525.8c0,0,55.6,21,119.6,19c0,0,12.8,18.6,4.1,80.1s16.9,149.5,16.9,149.5s19,17.3-64.2,23.5
					c0,0,16.8,19.2,77.1-13.3l-5.4-103.2l-6.3-157.6C228.8,523.9,183.9,545.2,87,525.8z"/>
			</g>
			<g>
				<path class="st4" d="M142.2,574.8c0,0-13.2,198.8-23.5,205.4s-23.6,11.6-50.4,9.7v2.9c0,0,51.8,17.9,71,3.7
					c0,0,10.6-189.4,8.7-218.1L142.2,574.8z"/>
			</g>
		</g>
		<g>
			<g>
				<path class="st1" d="M183.2,805.4c-7.8,0-15-1.7-20.8-6.1l-0.7-0.5l0-0.8c0.1-1.9,5.2-191.5-4.2-217.5l3.1-1.1
					c9.4,26,4.8,202.1,4.4,217.8c21.5,15.3,66.7-9.4,73.6-13.4c-3.5-33.5-10.5-245.3-11.4-271.1c-45.6,21.4-124.3,3.8-138,0.5
					c-1.5,25.5-14.7,252.6-19.3,278.5c8.1,2.6,49.8,15.3,67.5,3.9c0.9-12.1,11.4-157.4,8.6-217.1l3.3-0.2
					c2.9,62.2-8.6,216.7-8.7,218.3l-0.1,0.8l-0.6,0.4c-20.4,14.4-70.3-2.7-72.4-3.5l-1.4-0.5l0.4-1.5
					c4.3-16.9,19.5-278.8,19.6-281.4l0.1-2l1.9,0.5c0.9,0.2,92.5,23.4,139.9-0.9l2.3-1.2l0.1,2.6c0.1,2.4,7.9,243.1,11.5,274.4
					l0.1,1.1l-0.9,0.5C239.6,787.1,208.7,805.4,183.2,805.4z"/>
			</g>
		</g>
		<g>
			<path class="st1" d="M139.4,574.8c4.7,1.3,9,2.4,13.4,2.7c2.2,0.2,4.3,0,6.5-0.4c2.2-0.3,4.2-1.2,6.6-2c-1.5,1.9-3.4,3.6-5.8,4.5
				c-2.3,1-4.9,1.4-7.4,1.2c-2.5-0.2-5-0.8-7.2-1.8C143.2,578,141.1,576.6,139.4,574.8z"/>
		</g>
	</g>
	<g>
		<g>
			<path class="st5" d="M141.2,251.9c2.7-1.6,59,2.5,87.7-9.9c0,0,26.4-37.7,34.2-62.9c7.9-25.2-13.8-48.5-13.8-48.5
				s-11.3-34.9-7.5-51.4L176.3,68l-89.8,75.4L105,218L141.2,251.9z"/>
			<path class="st6" d="M173.7,82.6c4.1,1.7,18.8,16.2,54.8,15.9c0,0,15.4,37.4,26,51.8c10.6,14.4-6,49.6-19.8,65.7
				c-13.7,16.2-23.5,22.8-23.5,22.8s-61.1,3.2-81.5-4.9l12.8,18.2c0,0,68.6,1.5,85.9-11.1c17.3-12.7,35.8-67.5,35.8-67.5
				s1.1-12.5-7.9-30.9s-15.5-57-15.5-57l-59.4-14.2L173.7,82.6z"/>
			<g>
				<path class="st5" d="M134,237.2c0,0,11.9,61-31.2,72c0,0,24.4,28,55.4,28c0,0,37.2,7.8,59.6-41.1c0,0-30.8-2.4-26-43.6
					C191.7,252.5,166.3,258.9,134,237.2z"/>
				<g>
					<g>
						<path class="st6" d="M134.4,235.4c0,0-6.3,32,42.6,36.7c0,0,9,2.2,21.6,14.7c0,0-8.1-8.1-6.7-35.9
							C191.8,250.8,166,260.5,134.4,235.4z"/>
					</g>
				</g>
			</g>
		</g>
		<g>
			<g>
				<g>
					<path class="st0" d="M186.4,118.5c0,0,6.3,26.2-0.3,36.6c-6.9,10.9-39.4,18.2-53.8-0.2C132.3,154.8,135.1,112.9,186.4,118.5z"
						/>
				</g>
				<g>
					<path class="st2" d="M133.3,156c0,0,16.3-38.1,50-31.8l4.4,0.6l-1.2-6.3c0,0-24.1-4-42.1,11.2S133.3,156,133.3,156z"/>
				</g>
			</g>
			<g>
				<g>
					<path class="st0" d="M221.7,109.9c0,0,2.5,28.2,26.6,18.1l-5.6-26.3C242.6,101.6,232.1,87.4,221.7,109.9z"/>
				</g>
				<g>
					<path class="st2" d="M221.7,109.9c0,0,12.3-12.3,19.8-5.6c0,0,1.7-5.4-5.4-7.2S221.7,109.9,221.7,109.9z"/>
				</g>
			</g>
			<g>
				<path class="st7" d="M236.3,96.4c0,0-4.5,0.5-1.8,13.3s10,19.2,10.9,9.2S242.5,97.4,236.3,96.4z"/>
			</g>
			<g>
				<path class="st8" d="M235.5,115.8c0,0,4.6-7.7,10.3-4.2c0,0,0.3-11.1-7.5-15c0,0-5.3-3.7-4.9,7
					C233.3,103.6,233.5,110.3,235.5,115.8z"/>
			</g>
			<g>
				<path class="st8" d="M238.8,111.2c0,0,5.2,8.1,6.9-0.7C245.7,110.5,243,106,238.8,111.2z"/>
			</g>
			<g>
				
					<ellipse transform="matrix(0.9656 -0.2602 0.2602 0.9656 -20.0958 66.4352)" class="st1" cx="240.9" cy="109.1" rx="1.7" ry="4.9"/>
			</g>
			<g>
				<path class="st7" d="M172,118.4c0,0-8.2,5.7-2.4,21.8c5.8,16.1,15.9,9,15.3,5.8c0,0,3.2-10.2-1.9-19.2
					C178,117.7,172,118.4,172,118.4z"/>
			</g>
			<g>
				<path class="st8" d="M171,143.4c0,0,8.1-8.6,15.4-6.1c0,0-0.4-16.6-13-19.7c0,0-7.4-1.7-6.1,15.3
					C167.3,133,168.6,141.9,171,143.4z"/>
			</g>
			<g>
				<path class="st8" d="M177,138.1c0,0,5.5,7.8,6.9-1.7C184,136.3,179.2,132.8,177,138.1z"/>
			</g>
			<g>
				<ellipse transform="matrix(0.1425 -0.9898 0.9898 0.1425 19.2742 303.5301)" class="st0" cx="184.8" cy="140.6" rx="2" ry="2"/>
			</g>
			<g>
				<ellipse transform="matrix(0.1425 -0.9898 0.9898 0.1425 94.7064 342.5397)" class="st0" cx="245" cy="116.6" rx="2" ry="2"/>
			</g>
			<g>
				
					<ellipse transform="matrix(0.9656 -0.2602 0.2602 0.9656 -28.6514 51.4096)" class="st1" cx="179.9" cy="133.9" rx="2" ry="5.9"/>
			</g>
			<g>
				<path class="st1" d="M164.7,253.6c-20.6,0-42-4-57.1-17.1l2.1-2.5c35.4,30.6,110,8.6,117,6.4c44-65.3,40.4-72.7,26.7-100.3
					l-2.1-4.3c-15.6-31.9-10.9-61.1-10.7-62.3l3.2,0.5c0,0.3-4.7,29.5,10.4,60.3l2.1,4.3c14,28.2,18.2,36.8-27.3,104l-0.3,0.5
					l-0.5,0.2C226.3,244.1,196.4,253.6,164.7,253.6z"/>
			</g>
			<g>
				<path class="st1" d="M221.2,144.4c2.9-0.3,5.4,0.8,7.6,2.5c1.1,0.9,2.1,2,2.6,3.4c0.6,1.4,0.6,3.1-0.2,4.3c-0.5-1.4-1.2-2.2-2-3
					c-0.8-0.8-1.6-1.5-2.5-2.2C225,148,223.1,146.6,221.2,144.4z"/>
			</g>
			<g>
				<path class="st1" d="M231.5,179.1c-1.7,0.9-3,2-4,3.2c-1,1.3-1.5,2.7-1.5,4.3c-0.1,0.8,0,1.6,0.2,2c0.2,0.4,0.5,0.6,1.2,0.7
					c1.5,0,3.3-0.6,5-1.2c-1.3,1.4-2.7,2.7-4.9,3.1c-1,0.3-2.7-0.2-3.4-1.4c-0.7-1.2-0.7-2.3-0.7-3.3c0.1-2.1,1-4.2,2.6-5.5
					C227.6,179.6,229.6,179,231.5,179.1z"/>
			</g>
			<g>
				<path class="st1" d="M187.4,118.6c-6.1,0.1-12.1,0.6-17.8,1.8c-5.7,1.1-11.2,3-16,5.7c-4.9,2.6-9.2,6.3-12.5,10.8
					c-3.6,4.3-5.8,9.6-8.1,15l0-1c0.1,1,0.6,2.4,1,3.6c0.5,1.2,1.1,2.3,1.9,3.4c1.5,2.1,3.7,3.9,6.4,5.1c-1.4-0.2-2.9-0.3-4.3-1
					c-1.4-0.5-2.8-1.3-3.9-2.3c-1.2-1-2.3-2.1-3.2-3.4c-0.9-1.3-1.6-2.6-2.2-4.3l-0.1-0.4l0.2-0.6l1.2-4.6c0.5-1.5,0.7-3.1,1.4-4.5
					c1.3-2.9,2.6-5.9,4.6-8.5c1.7-2.8,4.2-5,6.4-7.3l4-2.9c1.3-1,2.8-1.6,4.2-2.4c5.8-2.9,12.2-4.3,18.5-4.6
					C175.3,115.7,181.6,116.4,187.4,118.6z"/>
			</g>
			<g>
				<path class="st1" d="M158.2,165.3c3.5-0.4,7-1,10.3-1.8c3.4-0.8,6.7-1.8,9.6-3.4c3-1.5,5.6-3.6,7.6-6.3c1.9-2.7,2.8-6.1,3.4-9.6
					c0.4,3.5,0.1,7.3-1.8,10.6c-1.9,3.3-4.8,5.8-8.1,7.5c-3.3,1.7-6.8,2.7-10.4,3.1C165.3,165.8,161.7,165.8,158.2,165.3z"/>
			</g>
			<g>
				<path class="st1" d="M179.7,150.9c-4.7,0-9.8-5.8-12.1-14.1c-2.5-9.2-0.4-17.5,4.7-18.9c5.1-1.4,11.1,4.7,13.6,13.9l0,0
					c2.5,9.2,0.4,17.5-4.7,18.9C180.7,150.9,180.2,150.9,179.7,150.9z M173.8,119.4c-0.3,0-0.7,0-1,0.1c-4.1,1.1-5.7,8.8-3.6,16.8
					c2.2,8,7.4,13.9,11.5,12.8c4.1-1.1,5.7-8.8,3.6-16.8C182.3,124.9,177.7,119.4,173.8,119.4z"/>
			</g>
			<g>
				<path class="st1" d="M242.7,124.6c-3.3,0-6.8-6.3-8.5-12.8c-1.8-6.8-1.9-14.6,1.6-15.6c3.5-0.9,7.3,5.8,9.2,12.7l0,0
					c1.8,6.8,1.9,14.6-1.6,15.6C243.2,124.6,242.9,124.6,242.7,124.6z M236.4,97.8c-0.1,0-0.2,0-0.2,0c-1.6,0.4-2.5,5.8-0.4,13.6
					c2.1,7.8,5.6,11.9,7.2,11.5c1.6-0.4,2.5-5.8,0.4-13.6C241.4,101.9,238.1,97.8,236.4,97.8z"/>
			</g>
			<g>
				<path class="st1" d="M221.7,109.9c0.3-2.3,1.2-4.5,2.4-6.6c1.2-2.1,2.7-3.9,4.7-5.4c2-1.4,4.6-2.5,7.2-2.3
					c2.6,0.2,4.8,1.7,6.3,3.4c-2.3-0.6-4.3-1.1-6.3-0.8c-1.9,0.3-3.7,1.1-5.3,2.3C227.5,102.9,224.8,106.4,221.7,109.9z"/>
			</g>
			<g>
				<path class="st1" d="M232.8,129.1c2.9,0.2,5.7,0.5,8.5,0.3c1.4-0.1,2.7-0.3,4.1-0.6c1.3-0.4,2.6-0.9,3.9-1.6
					c-0.9,1.2-2.1,2.2-3.5,2.8c-1.4,0.6-2.9,0.9-4.4,1c-1.5,0.1-3,0-4.5-0.4C235.5,130.3,234,129.9,232.8,129.1z"/>
			</g>
			<g>
				<path class="st1" d="M242.3,91.4c0,0-9.1-9.6-20.4,1.9C221.9,93.3,225.2,78.3,242.3,91.4z"/>
				<path class="st1" d="M220.5,95.9l0.6-2.8c0.1-0.2,1.3-5.7,6.1-7.4c3.2-1.2,7.2-0.3,11.9,2.5c2.3,1.1,3.7,2.6,3.8,2.7l-1.1,1.2
					c-1.2-0.9-2.3-1.7-3.4-2.4c-1.4-0.7-3.1-1.2-5.1-1.2c0,0-0.1,0-0.1,0c-3.7,0-7.3,1.8-10.8,5.4L220.5,95.9z M230.3,86.8
					c-0.9,0-1.7,0.1-2.5,0.4c-1.7,0.6-2.8,1.8-3.6,2.9c2.4-1.8,5-2.9,7.5-3.3C231.2,86.9,230.7,86.8,230.3,86.8z"/>
			</g>
			<g>
				<path class="st1" d="M138.7,118.8c0,0,17.6-23.7,41.5-14.9C180.2,103.9,172.9,79.8,138.7,118.8z"/>
				<path class="st1" d="M139.3,119.3l-1.3-1c0-0.1,1.5-2,4-4.5c12.7-13.5,23-19.5,30.7-17.9c6.3,1.4,8.2,7.4,8.2,7.7l0.5,1.6
					l-1.5-0.6c-16.5-6.1-30.1,3.9-36.5,10.2C142,116.2,140.7,117.7,139.3,119.3z M170.2,97.3c-3.8,0-9.2,1.9-16.9,8.1
					c6.8-3.7,15.6-6,25.4-2.9c-0.9-1.7-2.8-4.2-6.3-5C171.7,97.4,171,97.3,170.2,97.3z"/>
			</g>
			<g>
				
					<ellipse transform="matrix(0.1425 -0.9898 0.9898 0.1425 23.1152 279.6667)" class="st0" cx="173" cy="126.5" rx="3.4" ry="3.4"/>
			</g>
			<g>
				
					<ellipse transform="matrix(0.1425 -0.9898 0.9898 0.1425 98.9602 324.8719)" class="st0" cx="237" cy="105.3" rx="2.5" ry="2.5"/>
			</g>
		</g>
		<path class="st1" d="M249.8,220.9c0,0,10.1,15.2,10.3,26.7c0,0,31.1-33.7,15.1-83.2l12.3,25.5c0,0,8.1-78-43.2-128.4l13.5,2.6
			c0,0-61.6-89.9-161-56.7S-6.8,138.1,4.2,181.7L15.4,163c0,0-8.7,80.1,82.1,120.4l-11.9-16.8c0,0,39.4,30.7,72.9,19.2
			c0,0-10.7-2.7-14.4-15.2l34.3,14.7L157,251.9l-11-1.2c0,0-7.3-5.4-33.7-40.5L132,215c0,0-30.1-31.9-30.1-47.7
			c0,0,21.1-16.6,18.1-45.5l9.1,29.4l19.6-46.2l-3.3,30.9c0,0,16.1-7.4,32.1-56.1c0,0,24.6,18.6,42.1,13.7L207.5,81l32.3,21.2
			l-8-15.1l7.2,4.2c0,0,9.3,37.2,21.3,56.1c0,0,22.3,27.7-32.5,94.5"/>
	</g>
	<g>
		<g>
			<g>
				<path class="st5" d="M105,308.8c0,0-24.5,8.6-43.3,11.7c0,0-12.7,5.5-16.5,33.7c-3.8,28.2-6.8,68.9-6.2,97.4
					c0,0,0.2,30.1-1.2,47.5c-1.4,17.4-3.7,38.5-6.5,44.9c-2.8,6.3-9.4,21.1-24.7,34.5c0,0-3.5,15.1,15.8,12.3
					c0,0,21.2-10.1,27.9-18.7c0,0-4.8,9.9,1.9,9.9c6.7,0,15.2-24.3,16.2-31.1c1.1-6.8,11.9-90.8,11.9-90.8l9.5-73.8L105,308.8z"/>
				<path class="st6" d="M92.9,370.9c0,0-10,67.7-11.7,82.6c-1.7,14.9-12.8,97.4-12.8,97.4s-8.7,32.1-18.1,30.7c0,0-2.6,0,0-9.5
					c0,0-33.4,35.6-44,10.8c0,0,20,8,42.8-24.9c3.4-4.9,5.7-10.8,6.7-17.1C61.2,508.6,80.3,395.4,92.9,370.9z"/>
			</g>
		</g>
		<g>
			<g>
				<path class="st1" d="M90,386.3c-3.9,35.8-8.1,71.7-12.7,107.4c-2.2,17.9-4.5,35.7-6.9,53.7c-1.4,9.1-4.3,17.9-8.8,25.9
					c-1.1,2-2.4,3.9-3.9,5.7c-0.8,0.9-1.6,1.8-2.6,2.5c-1,0.7-2.1,1.5-3.6,1.6c-0.7,0-1.5-0.1-2.2-0.6c-0.7-0.5-1.2-1.3-1.3-2
					c-0.3-1.4,0-2.6,0.3-3.8c0.6-2.3,1.6-4.4,2.7-6.4l1.3,1c-5.9,5.5-12,10.7-18.8,15c-3.4,2.1-7,4-11,5c-3.9,1.1-8.5,1.1-11.9-1.5
					c-1.7-1.2-3-2.9-3.9-4.8c-0.5-0.9-0.8-1.9-1.1-2.9c-0.1-0.5-0.2-1-0.3-1.5c-0.1-0.5,0.1-1.4,0.4-1.7c2.5-3.3,5.4-5.9,8.1-9
					c5.3-5.9,10.3-12.2,13.9-19.2c3.8-7,5.3-14.8,6.4-22.7c1.1-7.9,1.8-15.8,2.4-23.7c0.5-7.9,0.9-15.9,1.1-23.9l0.3-11.9
					c0.1-4-0.2-7.9-0.2-11.9c-0.3-16-0.2-32,0.4-47.9c0.6-16,1.8-32,4.3-47.8c1.3-7.9,2.9-15.8,5.5-23.5c1.3-3.8,2.9-7.7,5.3-11.2
					c1.2-1.7,2.6-3.4,4.4-4.8c0.9-0.7,1.9-1.3,3-1.7c1.1-0.4,2.3-0.6,3.2-0.8c7.8-1.4,15.6-3.1,23.2-5.2c7.6-2.1,15.3-4.6,22.2-8
					l0.1-0.1l0.2,0c5.7-1.6,10.9-5.9,14.6-10.8c3.8-5,6.3-10.9,8-17c3.4-12.3,3.6-25.2,2.6-38l0.3,0c1.4,12.7,1.7,25.8-1.4,38.4
					c-1.6,6.3-4.1,12.4-7.9,17.7c-3.9,5.3-9,9.9-15.6,11.9l0.3-0.1c-7.3,3.7-14.9,6.3-22.6,8.6c-7.7,2.3-15.5,4.1-23.4,5.7
					c-3.7,0.4-6.3,2.9-8.4,6.1c-2.1,3.1-3.6,6.8-4.8,10.4c-2.5,7.4-4,15.2-5.3,23c-2.4,15.7-3.5,31.5-4.3,47.4
					c-0.7,15.9-0.9,31.8-0.8,47.7c0,3.9,0.2,8,0,12l-0.5,12c-0.4,8-0.9,16-1.5,23.9c-0.7,8-1.5,15.9-2.8,23.8
					c-0.6,4-1.4,7.9-2.5,11.8c-1.1,3.9-2.6,7.7-4.5,11.2c-3.8,7.1-8.8,13.5-14.2,19.4c-2.6,3-5.7,5.7-8,8.8
					c-0.3,0.4-0.3,0.6-0.3,1.1c0,0.5,0.1,0.9,0.3,1.4c0.2,0.9,0.6,1.8,1,2.7c0.9,1.7,2.1,3.3,3.6,4.4c3.1,2.3,7.3,2.3,11,1.2
					c3.8-1,7.3-2.9,10.6-5c6.7-4.2,12.6-9.6,18.3-15.1l3.7-3.6l-2.3,4.6c-1,1.9-1.9,4-2.4,6.1c-0.2,1-0.4,2.1-0.2,2.9
					c0.2,0.8,0.6,1,1.5,1c1.6-0.1,3.3-1.9,4.6-3.5c1.4-1.7,2.5-3.6,3.6-5.5c4.2-7.8,6.7-16.5,8.1-25.2l3.4-26.8l3.6-26.8
					c4.7-35.7,9.7-71.4,15-107.1L90,386.3z"/>
			</g>
		</g>
	</g>
	<g>
		<path class="st9" d="M88.6,508.6c0,0,62.9,26.9,140.4,0v14.7c0,0-20.4,16.6-66.6,12.1c-46.2-4.5-67.9-7.9-75.2-10.9L88.6,508.6z"
			/>
		<path class="st10" d="M86.5,525.7c0,0,104.7,25.7,142.3-1.8"/>
		<path class="st11" d="M88.3,511.6c0,0,49.7,19.2,109.3,11.4c0,0,11.8,13.3-49.5,10.6c0,0,58.1,8.6,81.3-10.6v-15.3
			c0,0-49,29.9-140.9,1.3L88.3,511.6z"/>
		<line class="st10" x1="154.3" y1="521.7" x2="154.3" y2="536"/>
		<line class="st10" x1="175.7" y1="521.3" x2="175.7" y2="536"/>
	</g>
	<g>
		<path class="st5" d="M201.6,289.2c0,0,4.8,9.7,39.8,9.1c0,0,18.8,2,36.7,35c17.9,33,23.3,53,23.3,53s-1-14.5,10.7-34.4
			c11.7-20,12.5-67.1,12.5-67.1s-39.8-34.1-18.1-35.4c0,0-9.5-14,1.3-12.5c0,0-4-9.6,6.3-8.7c0,0-19.1-21.9-11.2-25.7
			c0,0,1.9-7.1,35.4,28.9s23.7,44.9,22.6,59l-2.1,38.4c0,0-1.9,65.7-18.6,100.2s-40.1,15.6-58.8-3.5c-18.7-19.1-46.7-71.7-46.7-71.7
			l-1.8,7.6C233,361.5,176.7,334.2,201.6,289.2z"/>
		<path class="st6" d="M302.9,202.5c0,0,38.9,39.6,42.9,67.8s-13.8,84-11.6,117.3c2.2,33.3-26.4,36.9-26.4,36.9s-12.4,4.6-73-70.7
			c0,0,52.3,105.2,88.6,93.4s35.6-146.3,36.8-153c0,0,18-28.7-23-64.2C337.1,230.1,308.9,201.3,302.9,202.5z"/>
		<g>
			<g>
				<path class="st1" d="M192,251.2c-0.8,7.8,0,16.7,2.8,24c2.7,7.3,7.8,13.5,14.6,17.1c3.3,1.8,6.9,3.2,10.7,4.1
					c3.7,0.9,7.6,1.2,11.5,1.4c3.9,0.2,8,0.4,12,1.3c4,0.9,8,2.5,11.4,4.9c6.8,4.7,11.9,11.1,16.5,17.7c4.5,6.6,8.4,13.5,11.9,20.7
					c7.1,14.2,13,28.9,18.4,43.7c-3.3-7.2-6.5-14.4-10-21.5c-3.3-7.1-6.9-14.2-10.6-21.1c-3.8-6.9-7.7-13.7-12.1-20.1
					c-4.5-6.3-9.5-12.4-15.8-16.6c-3.2-2.1-6.6-3.6-10.3-4.5c-3.7-0.8-7.5-1.1-11.5-1.4c-7.9-0.4-16.2-1.9-23.3-6.2
					c-7.1-4.2-12.4-11.1-14.8-18.8C190.8,268,190.4,259,192,251.2z"/>
			</g>
			<g>
				<path class="st1" d="M324.7,284.9c-0.1,10.5-1,21-2.5,31.4c-1.4,10.4-3.6,20.8-7.1,30.9c-0.9,2.5-1.9,5-3,7.4l-3.5,7
					c-2.2,4.6-3.7,9.5-4.7,14.6c-1,5-1.4,10.2-1.2,15.4c0.2,5.2,0.8,10.4,2.1,15.5c-4-9.8-5.2-20.7-3.7-31.3
					c0.8-5.3,2.2-10.6,4.5-15.4c0.5-1.2,1.2-2.4,1.8-3.6l1.7-3.4c1.1-2.3,2-4.7,2.9-7.1c3.4-9.8,5.9-19.9,7.9-30.2
					C321.8,305.7,323.4,295.3,324.7,284.9z"/>
			</g>
			<g>
				<path class="st1" d="M314.1,228.2c-2.4,0.5-5.1,1.7-5.2,3.7c-0.1,0.4,0,1,0.1,1.5c0.2,0.5,0.3,1,0.6,1.5l0.8,1.5
					c0.3,0.5,0.7,1,1,1.5c1.4,2,3,3.9,4.7,5.7c1.6,1.9,3.4,3.8,4.9,5.8c-2.2-1.4-4.4-2.7-6.3-4.5c-2-1.7-3.8-3.5-5.3-5.7
					c-0.4-0.6-0.8-1.1-1.1-1.7l-0.9-1.9c-0.3-0.6-0.4-1.4-0.6-2.1c-0.1-0.7-0.1-1.5,0.2-2.3c0.4-1.6,1.9-2.6,3.2-3
					C311.5,228,312.9,227.9,314.1,228.2z"/>
			</g>
			<g>
				<path class="st1" d="M307.8,236.9c-1.2,0.2-2.5,0.5-3.3,1.2c-0.8,0.7-0.8,1.6-0.5,2.6c0.7,2.1,2.2,4.1,3.7,6c1.5,2,3,4,4.5,6
					c1.5,2,2.8,4.2,4.6,5.9c-2.4-1-4.3-2.9-6.1-4.7c-1.8-1.8-3.4-3.8-5-5.7c-1.5-2-3.2-4.2-3.7-7.1c-0.1-0.7-0.1-1.5,0.2-2.3
					c0.3-0.8,0.9-1.4,1.6-1.8C305.2,236.5,306.6,236.5,307.8,236.9z"/>
			</g>
			<g>
				<path class="st1" d="M306.5,249.4c-1.7,0.3-3.4,0.8-4.5,1.9c-1.1,1-1.4,2.3-1,3.8c0.4,1.4,1.2,2.8,2.1,4.2c0.9,1.4,2,2.6,3,3.9
					l0.1,0.1l0,0c1.3,1.8,2.9,3.7,4.3,5.5c1.5,1.8,3,3.6,4.6,5.4l4.7,5.3c1.6,1.8,3.2,3.5,4.8,5.4c-4.2-2.5-8-5.4-11.6-8.7
					c-3.5-3.4-6.8-6.9-9.6-11l0.1,0.1c-2.1-2.8-4.3-5.8-4.9-9.8c-0.4-1.9,0.7-4.4,2.5-5.3C303,249.3,304.8,249.2,306.5,249.4z"/>
			</g>
			<g>
				<path class="st1" d="M234.9,353.8c12.2,21.7,25.3,43,40.6,62.5c3.9,4.8,7.9,9.5,12.2,13.9c4.3,4.4,8.9,8.6,14,11.8
					c5.1,3.2,10.8,5.8,16.7,5.1c5.9-0.5,11.2-4.2,15-8.9c3.9-4.7,6.8-10.3,9.1-16c2.3-5.7,4.2-11.7,5.7-17.7
					c3-12.1,4.9-24.4,6.2-36.8c2.6-24.7,3.5-49.6,3.9-74.5l0-0.2l0.1-0.3c2.5-8.5,3.7-17.9,2.1-26.4c-0.9-4.1-3.2-8.1-5.6-11.9
					c-2.4-3.8-5.2-7.4-8.1-10.9c-5.9-7-12.2-13.6-18.7-20.1c-6.5-6.4-13.3-12.6-20.3-18.6l-0.2-0.2c0,0,0.1,0.1,0.1,0.1l-0.1-0.1
					l-0.3-0.1c-0.2-0.1-0.4-0.2-0.6-0.3c-0.4-0.2-0.9-0.3-1.4-0.5c-0.9-0.2-1.9-0.3-2.5-0.1c-1.2,0.2-1.1,2.4-0.5,4.2
					c1.3,3.8,3.5,7.5,5.7,11c4.5,7.1,9.6,13.8,14.9,20.4l-0.3,0.2c-5.5-6.4-11-12.8-15.9-19.7c-2.4-3.5-4.7-7.1-6.3-11.2
					c-0.4-1-0.7-2.2-0.7-3.4c0-0.6,0.1-1.3,0.5-2c0.4-0.7,1.1-1.2,1.8-1.4c1.4-0.4,2.6-0.2,3.7,0c0.6,0.1,1.1,0.3,1.7,0.5
					c0.3,0.1,0.5,0.2,0.8,0.3l0.4,0.2l0.2,0.1c0.1,0.1,0.3,0.2,0.4,0.4l-0.2-0.2c7.2,5.8,14.1,12,20.8,18.3
					c6.7,6.3,13.3,12.9,19.2,20.1c3,3.6,5.9,7.3,8.4,11.2c2.5,4,4.9,8.1,6.1,13c1.1,4.8,0.9,9.6,0.4,14.3c-0.5,4.7-1.5,9.3-2.9,13.9
					l0.1-0.5c-0.6,24.9-2.1,49.9-5.5,74.7c-1.8,12.4-3.8,24.7-6.9,36.8c-3.2,12-6.9,24.2-14.6,34.5c-3.8,5-9.4,9.3-16,10.1
					c-6.6,0.9-13.1-1.6-18.5-5c-10.8-6.9-19.2-16.5-26.9-26.4c-7.7-9.9-14.6-20.3-21-31.1c-6.4-10.7-12.4-21.7-17.7-33L234.9,353.8z
					"/>
			</g>
		</g>
	</g>
	<g>
		<path class="st0" d="M105,308.8c0,0,70.2,67.7,109.8-12.6c0,0,45.6-10.7,66.4,42.5c0,0,4.1,19.6-38.3,47.2l-9.8-27.3
			c0,0-5.9,42,1.8,148.3c0,0-56.5,31.2-150.8-0.8c0,0,2.2-28.2,0.8-79.8c0,0-29.9,12.8-57.8-4c0,0,3.3-101.2,38.7-103.2
			C65.6,319,95.7,314.2,105,308.8z"/>
		<path class="st2" d="M233.7,348.8c0,0-5,90.6,1,158.1c0-0.6-45.6,33.3-152.8,0c0,0,134.1,33,131.2-28.1
			C210.2,417.8,219.1,347.6,233.7,348.8z"/>
		<path class="st2" d="M233.7,348.8c0,0,18,35.8,45.5-2.8c0,0,5.6,12.9-36.5,40C242.7,385.9,228.7,354.7,233.7,348.8z"/>
		<path class="st2" d="M85.9,365.4c0,0,10.4,28.9,7,56.8c0,0-26.9,19.8-66,0c0,0,45.3,16.4,56.7-17.9
			C83.5,404.4,91.3,391.2,85.9,365.4z"/>
		<g>
			<g>
				<path class="st1" d="M233.3,356.8c2,10.1,5.8,19.7,10.2,28.8l-1.2-0.3l6.5-4.4c2.2-1.5,4.2-3.1,6.3-4.7c2.1-1.6,4-3.4,6-5
					c1.9-1.8,3.8-3.6,5.6-5.5c3.6-3.8,6.8-7.9,9.3-12.4c1.3-2.2,2.2-4.6,3-7c0.6-2.4,1-5.1,0.6-7.1l0.1,0.2
					c-2.7-6.5-6.1-12.6-10.3-18.2c-4.1-5.6-9.2-10.5-14.9-14.3c-5.8-3.9-12.2-6.6-19-8.3c-6.7-1.6-13.9-2.2-20.7-1.3l0.7-0.6
					c-4.8,10.3-11.7,19.4-20.2,26.7c-8.6,7.3-19.4,12-30.7,12.5c-11.3,0.6-22.4-2.7-32.5-7.5c-10.1-4.9-19.3-11.4-27.9-18.6l1.1,0.2
					c-12.5,4.3-25.1,7.7-38.1,10.3c-3.2,0.6-6.1,1.4-8.8,2.9c-2.7,1.5-5.1,3.5-7.1,5.9c-4.1,4.7-6.8,10.6-9,16.6
					c-4.3,12.1-6.8,25-8.9,37.8c-2.1,12.9-3.5,25.9-4.9,38.9l-0.8-1.5c4.8,2.7,10.2,4.7,15.6,6.2c5.4,1.5,11.1,2.3,16.7,2.5
					c5.6,0.1,11.3-0.4,16.8-1.8c5.5-1.4,10.8-3.5,15.7-6.3l-0.4,0.7c0.5-7.3,0.5-14.6,0.3-22c-0.3-7.3-0.9-14.7-2.7-21.8l0.3-0.1
					c2,7.1,3,14.5,3.6,21.8c0.6,7.4,0.6,14.7,0.3,22.1l0,0.5l-0.4,0.2c-5,3-10.4,5.3-16.1,6.8c-5.6,1.5-11.5,2.3-17.4,2.2
					c-5.9-0.1-11.7-0.8-17.4-2.2c-5.7-1.5-11.2-3.4-16.5-6.2l-0.9-0.5l0.1-1.1C26.5,409,28,396,30,383c2.1-13,4.5-26,9.1-38.5
					c2.4-6.2,5.3-12.4,9.8-17.6c2.3-2.6,4.9-4.8,8-6.5c3-1.7,6.5-2.6,9.7-3.2c12.8-2.4,25.5-5.5,37.9-9.5l0.6-0.2l0.5,0.4
					c8.4,7.2,17.3,13.9,27.2,18.9c9.8,5,20.7,8.3,31.8,7.8c5.5-0.3,11-1.4,16-3.6c5.1-2.1,9.8-5.2,14-8.7
					c8.4-7.2,14.9-16.5,19.3-26.5l0.2-0.5l0.5-0.1c7.2-1.1,14.5-0.7,21.6,0.8c7.1,1.5,13.9,4.3,20,8.3c6.1,4,11.4,9.1,15.8,14.9
					c4.3,5.8,7.8,12.2,10.4,18.9l0.1,0.1l0,0c0.8,6.1-1.4,11.3-4,16.1c-2.7,4.7-6.1,9-9.9,12.8c-1.9,1.9-3.9,3.7-5.9,5.5
					c-2.1,1.7-4.1,3.4-6.3,5c-2.2,1.5-4.3,3.2-6.5,4.6l-6.7,4.3l-0.8,0.5l-0.4-0.8c-2.1-4.7-3.9-9.6-5.5-14.5
					c-1.6-4.9-2.8-9.9-3.6-15L233.3,356.8z"/>
			</g>
			<g>
				<path class="st1" d="M84.9,426.2c0.8,13.5,1.3,27,1.4,40.5c0.1,6.8,0,13.5-0.3,20.3c-0.1,3.4-0.3,6.8-0.6,10.2
					c-0.2,1.7-0.3,3.4-0.6,5.1c-0.1,0.9-0.3,1.7-0.5,2.6c-0.3,0.9,0.2,0-0.4,1.1l0,0c6,2.3,10.7,3.7,17,5.4
					c6.2,1.8,12.5,3.4,18.9,4.7c12.7,2.7,25.7,4.3,38.7,4.6c13,0.3,26.1-0.7,38.8-3.3c12.7-2.5,25.1-6.5,36.8-12l-0.9,1.4
					c-0.8-13-1.4-26.1-1.8-39.1c-0.4-13-0.6-26.1-0.7-39.1c0-13,0.1-26.1,0.5-39.1c0.3-13,1.1-26.1,2-39.1l0.3,0
					c-0.1,13-0.2,26.1-0.1,39.1c0.1,13,0.2,26,0.5,39.1c0.2,13,0.5,26,0.9,39c0.4,13,0.7,26,1.4,39l0,1l-0.9,0.4
					c-12,5.4-24.8,9.2-37.7,11.2c-6.5,1.1-13,1.8-19.5,2.1c-6.5,0.4-13.1,0.5-19.6,0.3c-13.1-0.3-26.1-1.7-39-3.8
					c-12.9-2.2-25.7-5.2-38.1-9.8l0,0l-0.4-1.7c0.1-0.2,0.3-1.6,0.5-2.3c0.2-0.8,0.4-1.5,0.5-2.3c0.3-1.6,0.5-3.3,0.6-4.9
					c0.3-3.3,0.6-6.7,0.7-10c0.4-6.7,0.5-13.5,0.7-20.2c0.3-13.5,0.4-27,0.6-40.5L84.9,426.2z"/>
			</g>
		</g>
	</g>
</g>
</svg>
