<?xml version="1.0" encoding="utf-8"?>
<!-- Generator: Adobe Illustrator 21.0.2, SVG Export Plug-In . SVG Version: 6.00 Build 0)  -->
<svg version="1.1" id="Capa_3" xmlns="http://www.w3.org/2000/svg" xmlns:xlink="http://www.w3.org/1999/xlink" x="0px" y="0px"
	 viewBox="0 0 330.5 868" style="enable-background:new 0 0 330.5 868;" xml:space="preserve">
<style type="text/css">
	.st0{fill:#FFFFFF;}
	.st1{fill:#1C1C1B;}
	.st2{fill:#8F8F90;}
	.st3{fill:#282E55;}
	.st4{fill:#242740;}
	.st5{fill:#C8C6C5;}
	.st6{fill:none;stroke:#1C1C1B;stroke-miterlimit:10;}
	.st7{fill:#A4A4A4;}
	.st8{fill:#F8B454;}
	.st9{fill:#DD9239;}
	.st10{fill:#0A567D;}
	.st11{fill:#293766;}
</style>
<g>
	<g>
		<g>
			<path class="st0" d="M180.5,805.5c0,0-5.1,42.7,3.9,44.1c0,0,66.6,28.6,91.6,9.7c0,0,11.5-36.3-22.3-43c0,0-12.9-0.2-19.1-14.5
				L180.5,805.5z"/>
		</g>
		<g>
			<g>
				<g>
					<path class="st1" d="M180.4,809.3c0.1,5.7,0.1,11.5,0,17.2l-0.1,8.6l0.1,3.9c-0.1,1.3,0.4,3.4,0.8,4.6c0.8,2.4,1.9,4.1,4.1,5.4
						c0.5,0.3,1.1,0.6,1.7,0.9l2,0.8l4,1.6c5.3,2,10.6,4.1,16.1,5.9c10.8,3.6,22.1,6.1,33.5,6.6c5.7,0.3,11.4-0.1,16.9-0.9
						c5.5-1,10.9-2.7,15.7-5.3l-0.7,0.9c1.1-4.3,1.6-8.9,1.5-13.3c-0.1-4.5-0.8-8.9-2.5-12.9c-1.6-4.1-4.5-7.5-8-10
						c-3.5-2.7-7.9-4-12.2-5.2l0.1,0c-2.3-0.3-4.4-0.9-6.4-1.8c-2-0.9-3.9-2-5.6-3.4c-1.7-1.4-3.2-3-4.3-4.8
						c-1.2-1.8-2.4-4.6-3.2-6.5l0.3,0c0.9,1.9,2.3,4.4,3.7,5.9c1.3,1.6,2.9,2.9,4.5,4.1c1.7,1.2,3.5,2.1,5.4,2.8
						c1.9,0.7,3.9,1.1,5.8,1.2l0.1,0l0,0c2.3,0.6,4.7,1,6.9,1.8l3.4,1.4c1.2,0.4,2.1,1.2,3.2,1.9c4.1,2.6,7.5,6.6,9.4,11.2
						c1.9,4.5,2.7,9.4,2.7,14.2c-0.1,4.8-0.7,9.5-2,14.2l-0.2,0.6l-0.5,0.3c-5.3,2.8-11.1,4.3-16.8,5.1c-5.8,0.5-11.6,0.6-17.4,0
						c-2.9-0.3-5.7-0.7-8.6-1c-2.8-0.5-5.7-0.9-8.5-1.5c-5.7-1-11.2-2.4-16.8-3.8c-5.6-1.4-11.1-3-16.5-5l-4.1-1.5l-2-0.8
						c-0.7-0.3-1.5-0.6-2.1-1.1c-2.7-1.7-4.8-4.4-5.6-7.5c-0.4-1.5-0.6-3.1-0.5-4.7l0.2-4.3l0.6-8.6c0.4-5.7,0.9-11.4,1.5-17.1
						L180.4,809.3z"/>
				</g>
			</g>
		</g>
		<g>
			<path class="st2" d="M234.5,802.2c0,0-8.6,8.7-38.5,11.7c0,0-10.7,13.7-5.9,28c5.5,16.3,64.5,26.6,84.4,17
				c0,0-15.3,12.7-52.7,2.9c-37.4-9.8-38.1-13.9-38.1-13.9s-3.8-2.2-3.5-12.6c0.4-13-1.2-12.4,0.9-28.1c0,0,43.6-2.5,52.9-6.2
				L234.5,802.2z"/>
		</g>
		<g>
			<path class="st1" d="M179.2,838c3.7,2.2,7.4,4.3,11.3,6.1c1.9,1,3.9,1.8,5.8,2.7l5.9,2.4c7.9,3,16.1,5.4,24.4,7
				c4.1,0.9,8.3,1.3,12.5,1.8c4.2,0.1,8.4,0.5,12.7,0.3c2.1-0.1,4.2-0.1,6.4-0.3l6.3-0.8c2.1-0.1,4.2-0.6,6.3-1.1
				c2.1-0.5,4.2-0.9,6.3-1.3c-8,3-16.5,5.4-25.1,5.9l-3.2,0.3c-1.1,0.1-2.2,0-3.3,0c-2.2,0-4.3,0-6.5-0.1c-4.3-0.4-8.7-0.7-12.9-1.6
				c-8.5-1.6-16.9-4.2-24.8-7.8C193.4,847.9,185.8,843.5,179.2,838z"/>
		</g>
		<g>
			<path class="st1" d="M264.4,821.1c-2.2,0.7-4.2,1.8-5.9,3.2c-0.9,0.7-1.6,1.5-2.2,2.4c-0.7,0.9-1,1.9-1.4,2.9l-0.2,0.7l-0.6-0.3
				c-3-1.3-5.8-2.9-8.7-4.4c-2.8-1.6-5.5-3.4-8.2-5.3c-2.6-1.9-5.2-3.9-7.5-6.2c-1.2-1.1-2.2-2.4-3.1-3.8c-0.8-1.3-1.8-3-1.3-4.6
				c-0.2,1.6,0.8,3,1.8,4.3c1,1.2,2.1,2.4,3.3,3.4c2.4,2.1,5,3.9,7.7,5.8c2.6,1.8,5.4,3.5,8.1,5.1c2.7,1.6,5.6,3.2,8.4,4.6l-0.9,0.4
				c0.5-1.1,1-2.2,1.8-3.2c0.7-0.9,1.6-1.8,2.6-2.5C259.9,822.4,262.1,821.5,264.4,821.1z"/>
		</g>
		<g>
			<path class="st1" d="M264.4,821.1c-3.6-0.3-7-0.7-10.5-0.4c-1.7,0.1-3.4,0.4-5,1c-1.6,0.6-3.1,1.4-4.5,2.5c0.9-1.5,2.4-2.8,4-3.6
				c1.7-0.8,3.5-1.2,5.3-1.4c1.8-0.1,3.7,0,5.4,0.3C261.1,819.8,262.8,820.3,264.4,821.1z"/>
		</g>
		<g>
			<path class="st1" d="M250,815.6c-2.9-0.4-5.8-0.6-8.5-0.2c-1.4,0.2-2.8,0.5-4.1,0.9c-1.4,0.4-2.7,1-4.1,1.5c2.1-2.2,5-3.6,8-3.9
				C244.3,813.5,247.5,814,250,815.6z"/>
		</g>
		<g>
			<path class="st1" d="M255.2,817.2c-1.4,1.8-1.9,3.7-2,5.6c-0.1,1,0.1,2,0.2,3c0.2,1,0.4,2.1,0.5,3.2c-0.4-0.4-0.7-0.9-1-1.4
				l-0.7-1.5c-0.4-1.1-0.6-2.2-0.6-3.4C251.6,820.5,253,817.9,255.2,817.2z"/>
		</g>
		<g>
			<path class="st1" d="M242.4,812c-0.1,1,0,2,0.2,3c0.2,1,0.4,1.9,0.6,2.9c0.4,1.9,1,3.8,1.3,5.9c-0.7-0.8-1.3-1.7-1.8-2.6
				c-0.5-0.9-0.8-1.9-1.1-2.9c-0.2-1-0.4-2.1-0.3-3.2C241.5,813.9,241.7,812.8,242.4,812z"/>
		</g>
		<g>
			<path class="st1" d="M239,808.9c-2.3-0.7-4.4-0.7-6.4-0.1c-1,0.3-1.9,0.8-2.9,1.3c-1,0.6-1.8,1.2-2.8,1.9c0.3-0.5,0.6-1,0.9-1.5
				c0.4-0.4,0.8-0.9,1.2-1.3c0.9-0.8,2-1.5,3.2-1.9C234.5,806.6,237.4,807.1,239,808.9z"/>
		</g>
		<g>
			<path class="st1" d="M236.3,805c-0.7,0.8-1.1,1.6-1.5,2.5c-0.4,0.9-0.8,1.7-1.1,2.6c-0.8,1.8-1.4,3.6-2.5,5.4
				c-0.1-1,0-2.1,0.2-3.1c0.2-1,0.5-2,0.8-3c0.4-0.9,0.9-1.9,1.6-2.7C234.4,806.1,235.2,805.3,236.3,805z"/>
		</g>
	</g>
	<g>
		<g>
			<path class="st0" d="M145.4,808.5c0,0,4.3,8.2,1.3,28.6c0,0,4,11.3-8.6,15.9c-12.6,4.6-61.5,23.8-88.2,8.1
				c0,0-8.4-34.3,18.8-42.2c0,0,16.6-3.4,24.1-18.6L145.4,808.5z"/>
		</g>
		<g>
			<g>
				<g>
					<path class="st1" d="M145.8,808.5c2.4,5.4,2.7,11.5,2.5,17.3l-0.3,8.7c-0.1,1.4-0.1,2.9,0,4.3c0.1,1.3,0.3,2.9,0,4.6
						c-0.4,3.2-2.1,6.2-4.6,8.3c-1.2,1-2.8,1.8-4.2,2.3l-4.1,1.6c-5.5,2-11.1,3.7-16.8,5.2c-11.3,2.9-22.7,5.5-34.4,6.7
						c-11.6,1.1-24,0.8-34.8-5.1l-0.5-0.3l-0.2-0.6c-1.3-4.7-2-9.4-2-14.2c0-4.8,0.7-9.7,2.7-14.2c1.9-4.5,5.2-8.5,9.3-11.2
						c4.1-2.7,8.8-4.2,13.5-5l-0.1,0c2.1-0.6,4.2-1.6,6.2-2.6c2-1.1,3.9-2.3,5.7-3.7c1.8-1.4,3.5-2.9,5-4.7c1.5-1.7,2.7-3.7,3.8-5.7
						l0.3,0.1c-0.9,2.1-1.9,4.3-3.4,6.2c-1.4,1.9-2.9,3.7-4.8,5.3c-1.8,1.6-3.7,3-5.7,4.2c-2.1,1.2-4.1,2.3-6.5,3.2l0,0l-0.1,0
						c-4.4,0.9-8.7,2.6-12.2,5.1c-3.5,2.6-6.3,6.1-8,10.1c-1.6,4-2.4,8.5-2.4,12.9c-0.1,4.4,0.3,8.5,1.5,12.8l-0.6-0.3
						c9.8,5.5,21.7,6.7,33.2,6.3c11.6-0.5,23.1-3.1,34-6.8c5.5-1.8,10.9-4,16.3-6.1l4-1.6c1.3-0.5,2.4-1.1,3.4-1.9
						c2-1.6,3.4-4,3.8-6.5c0.2-1.3,0.1-2.6,0.1-4.1c0-1.5,0.1-3,0.2-4.5c0.2-2.9,0.6-5.8,0.8-8.7c0.5-5.7,0.6-11.6-1.1-17.1
						L145.8,808.5z"/>
				</g>
			</g>
		</g>
		<g>
			<path class="st2" d="M91.2,803c0,0,10.2,10.1,40,13.3c0,0,10.6,13.8,5.7,28.1c-5.6,16.3-65.9,25.6-85.7,15.9
				c0,0,16.3,12.8,53.8,3.3s38.1-13.4,38.1-13.4s4.1,0.3,3.4-12.2c-0.7-12.4,2.5-12.3-0.9-29c0,0-44.7-4.1-53.9-7.9L91.2,803z"/>
		</g>
		<g>
			<path class="st1" d="M49,856.8c4.1,1,8.2,1.7,12.4,2c4.1,0.4,8.3,0.5,12.5,0.5c8.3-0.2,16.6-1.1,24.8-2.6l6.1-1.2
				c2-0.4,4-1,6.1-1.5c4.1-0.9,8-2.3,12-3.4c4-1.2,7.9-2.7,11.9-4c3.9-1.4,7.8-3.1,11.8-4.5c-3.7,2.1-7.4,4-11.2,5.9
				c-3.9,1.6-7.7,3.5-11.7,4.9c-7.9,3-16.1,5.3-24.4,6.9c-8.4,1.4-16.9,2.3-25.4,1.9C65.4,861.2,56.8,860,49,856.8z"/>
		</g>
		<g>
			<path class="st1" d="M70.6,818.3c2.3,0.4,4.5,1.3,6.4,2.6c1,0.7,1.8,1.5,2.6,2.5c0.8,0.9,1.3,2,1.8,3.2l-0.9-0.4
				c2.8-1.4,5.7-3,8.4-4.6c2.7-1.7,5.5-3.3,8.1-5.1c2.6-1.8,5.3-3.7,7.7-5.8c1.2-1,2.3-2.2,3.3-3.4c0.9-1.2,2-2.6,1.8-4.3
				c0.5,1.6-0.5,3.3-1.3,4.6c-0.9,1.4-2,2.6-3.1,3.8c-2.3,2.3-4.9,4.3-7.5,6.2c-2.7,1.9-5.4,3.7-8.2,5.3c-2.8,1.6-5.7,3.1-8.7,4.4
				l-0.6,0.3l-0.2-0.7c-0.4-1-0.7-2-1.4-2.9c-0.6-0.9-1.4-1.7-2.2-2.4C74.8,820.1,72.8,819,70.6,818.3z"/>
		</g>
		<g>
			<path class="st1" d="M72,818.2c1.5-0.8,3.1-1.3,4.7-1.7c1.7-0.3,3.4-0.4,5.1-0.2c1.7,0.2,3.4,0.8,4.9,1.7
				c1.5,0.9,2.7,2.2,3.5,3.6c-1.3-1-2.6-2-4.1-2.5c-1.5-0.6-2.9-1-4.5-1.2C78.5,817.6,75.3,817.8,72,818.2z"/>
		</g>
		<g>
			<path class="st1" d="M79.5,814.2c2.3,0.9,3.5,3.5,3.6,5.9c0,1.2-0.2,2.4-0.6,3.5l-0.7,1.6c-0.3,0.5-0.6,1-1,1.4
				c0.1-1.2,0.4-2.3,0.5-3.3c0.1-1.1,0.3-2.1,0.2-3.2C81.5,818.1,80.9,816.1,79.5,814.2z"/>
		</g>
		<g>
			<path class="st1" d="M88.8,806.5c1.1,0.8,1.9,1.9,2.5,3.1c0.6,1.2,0.9,2.6,1,3.9c0,1.4,0,2.7-0.5,4c-0.2,0.7-0.5,1.3-0.7,1.9
				c-0.3,0.6-0.7,1.2-1.1,1.7c0.2-1.3,0.5-2.6,0.6-3.8c0.1-1.2,0.2-2.5,0.1-3.7C90.6,811.2,90,808.9,88.8,806.5z"/>
		</g>
		<g>
			<path class="st1" d="M83.2,811.5c1.5-0.8,3.1-1.3,4.7-1.7c1.7-0.3,3.4-0.4,5.1-0.2c1.7,0.2,3.4,0.8,4.9,1.7
				c1.5,0.9,2.7,2.2,3.5,3.6c-1.3-1-2.6-2-4.1-2.5c-1.5-0.6-2.9-1-4.5-1.2C89.7,810.8,86.5,811.1,83.2,811.5z"/>
		</g>
		<g>
			<path class="st1" d="M89.6,805.4c1.5-0.8,3.1-1.3,4.7-1.7c1.7-0.3,3.4-0.4,5.1-0.2c1.7,0.2,3.4,0.8,4.9,1.7
				c1.5,0.9,2.7,2.2,3.5,3.6c-1.3-1-2.6-2-4.1-2.5c-1.5-0.6-2.9-1-4.5-1.2C96.1,804.8,92.9,805,89.6,805.4z"/>
		</g>
		<g>
			<path class="st1" d="M93.9,801.5c1.3,0,2.7,0.4,3.9,1c1.2,0.6,2.3,1.5,3.2,2.6c0.8,1.1,1.6,2.3,2,3.5c0.2,0.6,0.3,1.3,0.5,1.9
				c0.1,0.7,0.1,1.3,0.1,2c-0.6-1.2-1.1-2.4-1.7-3.4c-0.6-1.1-1.3-2.1-2.1-3C98.1,804.2,96.2,802.7,93.9,801.5z"/>
		</g>
	</g>
	<g>
		<g>
			<g>
				<path class="st3" d="M103,557.8c0,0,87.7,23.3,129.8-1.7l3.2,77.4l4.9,119.8l2.6,41.3c0,0-38.2,26.2-70.5,12.2l1.3-81.3
					c0,0,1.6-104.1-6.1-119.3l-9.5-0.3c0,0,0.5,75-1.4,89.2c-1.9,14.2-6.6,110.3-6.6,110.3S130.8,818,85.8,802l8-96.7l5.8-90.6
					L103,557.8z"/>
			</g>
			<g>
				<path class="st4" d="M103,557.8c0,0,50.8,19.2,109.4,17.4c0,0,11.7,17,3.8,73.3s15.5,136.8,15.5,136.8s17.3,15.9-58.8,21.5
					c0,0,15.4,17.6,70.5-12.2l-4.9-94.4L232.7,556C232.7,556,191.6,575.6,103,557.8z"/>
			</g>
			<g>
				<path class="st4" d="M153.5,604c0,0-12.2,180.5-21.6,186.5c-9.4,6-21.6,10.6-46.1,8.9v2.6c0,0,47.4,16.4,64.9,3.4
					c0,0,9.7-173.3,7.9-199.5L153.5,604z"/>
			</g>
		</g>
		<g>
			<path class="st1" d="M150.9,602.6c4.3,1.1,8.3,2.2,12.2,2.4c2,0.2,3.9,0,5.9-0.3c2-0.3,3.9-1.1,6-1.8c-1.3,1.8-3.1,3.4-5.3,4.2
				c-2.1,0.9-4.5,1.3-6.8,1.1c-2.3-0.2-4.6-0.7-6.6-1.7C154.3,605.6,152.4,604.3,150.9,602.6z"/>
		</g>
	</g>
	<g>
		<path class="st5" d="M104.3,542.6c0,0,56.9,27.1,127.7,2.5l0.7,11c0,0-18.7,15.2-60.9,11.1s-62.2-7.3-68.8-10L104.3,542.6z"/>
		<path class="st6" d="M103,557.8c0,0,95.3,23.4,129.8-1.7"/>
		<path class="st7" d="M103,544.5c0,0,46.6,17.9,101.2,10.7c0,0,10.8,12.2-45.3,9.7c0,0,53.2,7.9,74.4-9.7l-1.2-10.8
			c0,0-44.1,23.4-128.2-2.7L103,544.5z"/>
		<line class="st6" x1="164.6" y1="554" x2="164.6" y2="567.1"/>
		<line class="st6" x1="184.1" y1="553.6" x2="184.1" y2="567.1"/>
		<g>
			<path class="st6" d="M169,607.2c8.8,24.4,3.9,199.5,3.9,199.5c22,16.9,70.5-12.2,70.5-12.2c-3.4-29.1-10.6-251.2-10.6-251.2
				c-44.4,22.7-129.1,0.9-129.1,0.9s-14,242-18,257.8c0,0,46.6,16.2,64.9,3.4c0,0,10.6-142,7.9-199.5"/>
		</g>
	</g>
	<g>
		<g>
			<g>
				<g>
					<path class="st8" d="M99.5,367.5c0,0,53.1,40.2,138.6,1.9c0,0-8.1,67.6-5.7,116.7c0,0-0.9,43.7,1.8,58.3
						c0,0-40.6,13.9-129.7,3.7C104.5,548.1,113.9,466.9,99.5,367.5z"/>
					<path class="st9" d="M237.3,366.6c0,0-7.5,122.4-3.2,178.9c0,0-49.1,10.6-73,5.5c0,0,52.7,3.1,45.3-28.1s-1.2-129.5-1.2-129.5
						S207.9,378.3,237.3,366.6z"/>
					<g>
						<g>
							<path class="st1" d="M103.6,547.2c0.9-6.9,1.6-13.8,2-20.8c0.5-6.9,0.8-13.9,1-20.8c0.4-13.9,0.4-27.8-0.1-41.7
								c-0.2-13.9-1.2-27.8-2.1-41.7c-0.9-13.9-2.3-27.8-3.5-41.7c1.2,6.9,2.3,13.8,3.4,20.7c0.8,6.9,1.8,13.8,2.5,20.8
								c0.7,6.9,1.3,13.9,1.7,20.9c0.5,7,0.8,13.9,1.1,20.9c0.2,14,0.3,28-0.6,41.9C108.1,519.6,106.7,533.6,103.6,547.2z"/>
						</g>
						<g>
							<path class="st1" d="M233.3,543.5c-1.4-14-2-28.1-2.4-42.1c-0.4-14.1-0.3-28.1-0.1-42.2c0.5-14.1,1-28.1,2.2-42.2
								c1.2-14,2.7-28,5.3-41.9c-0.3,3.5-0.6,7-0.9,10.5l-0.7,10.5c-0.5,7-0.9,14-1.2,21c-0.7,14-1.3,28-1.5,42.1
								c-0.5,14-0.5,28.1-0.7,42.1c-0.1,7-0.1,14-0.1,21.1C233.2,529.5,233.3,536.5,233.3,543.5z"/>
						</g>
					</g>
				</g>
			</g>
			<path class="st8" d="M131.9,277.6c0,0,12,42-27.3,48.3c0,0-1.7,43.6,1.2,45.1c3,1.5,54,43,131.4-2.5l-10.2-43.2
				c0,0-40.6-3-32.5-51.1l-29.6,14.3L131.9,277.6z"/>
		</g>
		<path class="st9" d="M131.9,277.6c0,0,2.5,12.4,32.4,23.6c0,0,23.7-5.7,30.3-27l-29.6,14.3L131.9,277.6z"/>
	</g>
	<g>
		<g>
			<path class="st8" d="M68.2,234.8c0,0,14.4,26,96.6,53.7c0,0,56.9-23,88.9-56.7c0,0,9.2-60.7,7.9-63.5s-49-73.8-49-73.8
				l-52.1-13.1l-55,32.2l-41.5,56.2C64.2,169.7,56.1,196.9,68.2,234.8z"/>
		</g>
		<g>
			<path class="st9" d="M76.1,229.4c0,0,49.4,41.1,85.9,44.7c0,0,74.1-31.7,80.2-48.5l14.2-6.2l-2.5,12.3c0,0-35.4,36-88.9,56.7
				c0,0-58.2-15-96.6-53.7l-6.7-28.9L76.1,229.4z"/>
		</g>
		<g>
			<path class="st9" d="M157.8,98.3c0,0-1.2,30.3,30.7,51c0,0-4.7-8.4-3.3-13.6c0,0,28,28.8,72.1,34l4.6-1.5l-49-73.8l-52.1-13.1
				l-55,32.2l-41.5,56.2c0,0,58.2-31.7,69.5-42.9c0,0,1.9,14.1-2.2,20.6C131.6,147.4,158.1,124.7,157.8,98.3z"/>
		</g>
		<g>
			<path class="st0" d="M71.6,165.7c0,0,4.5,19.2,27.4,31.8c0,0,23.9,11.1,43.2-3.9c0,0,8.4-14.2,2.1-28.4
				C137.9,150.9,90.6,123.5,71.6,165.7z"/>
		</g>
		<g>
			<path class="st0" d="M249.1,165.7c0,0-4.5,19.2-27.4,31.8c0,0-23.9,11.1-43.2-3.9c0,0-8.4-14.3-2.1-28.6
				C182.7,150.7,230,123.5,249.1,165.7z"/>
		</g>
		<g>
			<ellipse class="st10" cx="208.4" cy="169" rx="16.3" ry="23.1"/>
		</g>
		<g>
			<ellipse class="st10" cx="115.2" cy="169" rx="16.3" ry="23.1"/>
		</g>
		<g>
			<path class="st11" d="M211.5,145.8c0,0-24.2-3.2-18.7,29.5c0,0,3.2-2.2,8.3-3.6c0.1,0.3,6.3,15.8,14.9,0c2.6,0.7,5.3,1.8,8.1,3.6
				C224.2,175.4,229.5,154.1,211.5,145.8z"/>
		</g>
		<g>
			<path class="st11" d="M118.2,145.8c0,0-24.2-3.2-18.7,29.5c0,0,3.2-2.2,8.3-3.6c0.1,0.3,6.3,15.8,14.9,0c2.6,0.7,5.3,1.8,8.1,3.6
				C130.9,175.4,136.3,154.1,118.2,145.8z"/>
		</g>
		<g>
			<path class="st1" d="M176.4,164.4c4.2-6.2,9.5-11.5,15.6-16c6.2-4.4,13.3-7.9,21.3-8.8c4-0.4,8.1-0.3,12,0.8
				c3.9,1.1,7.6,2.9,10.8,5.2c6.4,4.8,11.1,11.1,14.4,17.9l0.4,0.8l-0.2,0.6c-0.6,1.5-1.1,2.8-1.9,4.1c-0.7,1.3-1.5,2.5-2.4,3.7
				c-0.8,1.2-1.8,2.3-2.8,3.3c-1,1-2.2,1.9-3.3,2.8c1.7-2.3,3.1-4.6,4.2-7.2c0.6-1.2,1.1-2.5,1.5-3.8c0.4-1.3,0.8-2.6,1-3.8l0.2,1.4
				c-4.2-5.8-9-11.1-14.6-14.9c-5.6-3.7-12.2-5.5-18.9-4.8c-6.7,0.6-13.3,3.1-19.6,6.5C188.2,155.5,182.2,159.7,176.4,164.4z"/>
		</g>
		<g>
			<path class="st1" d="M144.2,164.4c-5.8-4.6-11.7-8.9-18-12.2c-6.2-3.4-12.9-5.9-19.6-6.5c-6.7-0.7-13.2,1.2-18.9,4.8
				c-5.6,3.7-10.4,9-14.6,14.9l0.2-1.4c0.2,1.2,0.6,2.5,1,3.8c0.4,1.3,0.9,2.6,1.5,3.8c1.1,2.5,2.5,4.9,4.2,7.2
				c-1.1-0.8-2.3-1.7-3.3-2.8c-1-1-2-2.1-2.8-3.3c-0.9-1.2-1.6-2.4-2.4-3.7c-0.7-1.3-1.3-2.6-1.9-4.1l-0.2-0.6l0.4-0.8
				c3.4-6.7,8.1-13,14.4-17.9c3.2-2.3,6.9-4.1,10.8-5.2c3.9-1.1,8.1-1.2,12-0.8c8,0.9,15.2,4.5,21.3,8.8
				C134.7,152.9,140.1,158.2,144.2,164.4z"/>
		</g>
		<g>
			<path class="st1" d="M179,193.6c3.3,1.8,6.8,3.3,10.3,4.5c3.6,1.1,7.2,1.9,10.9,2.3c3.7,0.4,7.4,0.3,11.1-0.2
				c3.7-0.4,7.3-1.5,10.9-2.7c-3.4,1.7-6.9,3.2-10.7,3.9c-3.7,0.8-7.6,0.9-11.5,0.5C192.4,201.1,184.9,198.3,179,193.6z"/>
		</g>
		<g>
			<path class="st1" d="M142.1,193.6c-6,4.7-13.4,7.5-21,8.3c-3.8,0.4-7.7,0.3-11.5-0.5c-3.8-0.7-7.4-2.1-10.7-3.9
				c3.6,1.1,7.2,2.3,10.9,2.7c3.7,0.5,7.4,0.6,11.1,0.2c3.7-0.3,7.3-1.1,10.9-2.3C135.4,196.9,138.8,195.4,142.1,193.6z"/>
		</g>
		<g>
			<path class="st1" d="M115.2,192.1c-9.4,0-17.1-10.7-17.1-23.9s7.7-23.9,17.1-23.9s17.1,10.7,17.1,23.9S124.7,192.1,115.2,192.1z
				 M115.2,145.8c-8.6,0-15.5,10-15.5,22.4s7,22.4,15.5,22.4s15.5-10,15.5-22.4S123.8,145.8,115.2,145.8z"/>
		</g>
		<g>
			<path class="st1" d="M208.4,192.1c-9.4,0-17.1-10.7-17.1-23.9s7.7-23.9,17.1-23.9s17.1,10.7,17.1,23.9S217.9,192.1,208.4,192.1z
				 M208.4,145.8c-8.6,0-15.5,10-15.5,22.4s7,22.4,15.5,22.4c8.6,0,15.5-10,15.5-22.4S217,145.8,208.4,145.8z"/>
		</g>
		<g>
			<path class="st1" d="M159.4,201.4c0.9,0.4,1.6,1,2.2,1.8c0.6,0.7,1,1.7,1.1,2.7c0.1,1-0.2,2.1-0.9,2.9c-0.6,0.8-1.5,1.3-2.3,1.6
				c0.5-0.8,1-1.5,1.3-2.2c0.3-0.7,0.4-1.4,0.4-2.1C161,204.5,160.3,203,159.4,201.4z"/>
		</g>
		<g>
			<path class="st1" d="M93.2,132.2c0,0,32.1-7,43.2,3.5C136.4,135.7,147.4,115.3,93.2,132.2z"/>
		</g>
		<g>
			<path class="st1" d="M234.8,132.2c0,0-32.1-7-43.2,3.5C191.6,135.7,180.6,115.3,234.8,132.2z"/>
		</g>
		<g>
			<g>
				<path class="st0" d="M183.7,234.8c-19.6,10.4-46.4,2.2-46.4,2.2s8.2,14.7,21.3,14C171.7,250.3,183.7,234.8,183.7,234.8z"/>
			</g>
			<g>
				<path class="st1" d="M183.7,234.8c-3.6,1.9-7.2,3.4-11.1,4.3c-3.9,0.9-7.9,1.4-11.9,1.5c-4,0.1-8-0.1-11.9-0.6
					c-4-0.5-7.9-1.2-11.8-2.3l0.9-1.1c2.4,3.9,5.6,7.6,9.4,10.2c3.8,2.7,8.5,4,13.1,3.3c4.6-0.7,8.9-2.9,12.7-5.7
					C177.1,241.6,180.6,238.4,183.7,234.8z M183.7,234.8c-2.9,3.8-6.3,7.3-10.1,10.3c-3.8,2.9-8.1,5.4-13,6.3
					c-4.9,0.9-10.1-0.5-14.1-3.3c-4.1-2.8-7.4-6.5-9.9-10.7l-1-1.6l1.9,0.5c7.5,2.2,15.4,3.1,23.2,3.2c3.9,0,7.8-0.4,11.7-1.1
					C176.3,237.7,180.2,236.4,183.7,234.8z"/>
			</g>
		</g>
		<g>
			<path class="st1" d="M60.3,174.4l-1.5-1.9c45.2-35.8,47.8-68.4,47.8-68.8l0.7-10.6l1.7,10.5c2.6,16.4-5.7,34.9-9.9,43.2
				c33.6-23.2,37-46.4,37-46.7l2.4,0.1c0.1,19.1-4.6,32.1-7.7,38.4c25.8-19,28.6-57,28.7-57.4l2.4,0.2c0,0.4-3.2,43.5-33.8,61.9
				l-4.6,2.8l3-4.5c0.1-0.1,7.7-11.6,9.3-32.5c-4.1,9.7-14.3,26.1-39.4,42.3l-4.3,2.8l2.7-4.4c0.1-0.2,11.1-18.5,12.3-36.5
				C103.2,126,92.1,149.3,60.3,174.4z"/>
		</g>
		<g>
			<path class="st1" d="M90.9,280.5l-5.9-3.3c-0.3-0.1-25-14.1-33.5-41.8L48.8,253l-1.7-2.7c-0.2-0.4-24.4-39.6-18.2-80.8l2.3,0.4
				c-5.1,33.9,10.9,66.5,16.2,76.2l3.6-23.4l1.4,6.4c4.6,21.9,19.9,36,28.3,42.2c-12.2-19.5-17.4-55.1-17.6-56.8l-1.1-7.6l3.3,6.9
				c4.2,8.6,10.7,13.9,15.3,16.9c-14.2-19.6-17.4-59.1-17.6-61l2.4-0.2c0,0.5,3.9,48.1,21,64.3l4.3,4l-5.5-2.1
				c-0.5-0.2-11.1-4.3-18.7-15.2c2.4,12.9,8.8,41.8,20,54.7L90.9,280.5z"/>
		</g>
		<g>
			<path class="st1" d="M261,174.3c-31.8-25.1-42.9-48.4-46.7-61c1.3,18,12.2,36.3,12.3,36.5l2.7,4.4l-4.3-2.8
				c-25.1-16.2-35.3-32.6-39.4-42.3c1.7,20.9,9.3,32.3,9.3,32.5l3,4.5l-4.6-2.8c-30.6-18.4-33.8-61.5-33.8-61.9l2.4-0.2
				c0,0.4,2.9,38.5,28.7,57.4c-3-6.3-7.8-19.3-7.7-38.4l2.4-0.1c0,0.2,3.5,23.5,37,46.7c-4.3-8.3-12.5-26.8-9.9-43.2l1.7-10.5
				l0.7,10.7c0,0.3,2.6,33,47.8,68.8L261,174.3z"/>
		</g>
		<g>
			<path class="st1" d="M256,169.5l2.4,0.2c-0.1,1.8-3.4,41.4-17.6,61c4.6-2.9,11.2-8.3,15.3-16.8l3.3-6.9l-1.1,7.6
				c-0.2,1.7-5.5,37.2-17.6,56.8c8.3-6.2,23.7-20.3,28.3-42.2l1.4-6.4l3.6,23.4c5.3-9.7,21.3-42.4,16.2-76.2l2.3-0.4
				c6.2,41.2-18,80.4-18.2,80.8l-1.7,2.7l-2.7-17.7c-8.5,27.7-33.2,41.7-33.5,41.8l-5.9,3.3l4.5-5.1c11.2-12.9,17.6-41.8,20-54.7
				c-7.6,10.9-18.2,15-18.7,15.2l-5.5,2.1l5-4.2"/>
		</g>
		<g>
			<path class="st1" d="M165,289.7l-0.4-0.1c-61.3-14.5-96.9-53.7-97.3-54.1l1.8-1.6c0.3,0.4,35.3,38.9,95.7,53.2
				c4.8-2,57-24.3,88.2-56.3l1.7,1.7c-32.9,33.8-88.8,56.8-89.3,57L165,289.7z"/>
		</g>
		<g>
			<path class="st1" d="M130.9,306.9c-11-5.3-23-19.4-28.4-26.1c0.9,10.7,8.6,17.9,8.7,18l3.3,3l-4.4-0.2
				c-28.2-1.6-46.1-26.9-52-36.8c-2.1,14.5,2.9,27.7,3,27.8l4.8,12.4L58.3,294C5,216.9,10.4,161.9,14.8,142.6L0,160.6l0.8-5.6
				C13.1,70.6,58.6,32.5,94.7,15.4c39-18.5,75.2-15.2,75.6-15.2l0.3,1.3c-0.3,0-36.3-1.5-74.6,16.7C61.4,34.7,18.1,70.8,4.8,149.8
				l19.4-23.5l-4.3,10c-0.2,0.6-23.3,57.6,35.6,147.9c-1.2-6.4-2-15.4,0.2-24.5l1-4.2l1.9,3.9c0.2,0.4,17.5,34.1,47.5,38.5
				c-3.2-4.1-7.9-11.9-6.9-21.9l0.4-4.1l2.4,3.4c0.2,0.2,16.3,22.2,30,28.8L130.9,306.9z"/>
		</g>
		<g>
			<ellipse class="st1" cx="115.2" cy="168.2" rx="5" ry="8.5"/>
		</g>
		<g>
			<ellipse class="st1" cx="208.4" cy="168.2" rx="5" ry="8.5"/>
		</g>
		<g>
			<circle class="st0" cx="110.3" cy="154.7" r="4.4"/>
		</g>
		<g>
			<circle class="st0" cx="122.8" cy="179.9" r="3.2"/>
		</g>
		<g>
			<circle class="st0" cx="216.7" cy="179.9" r="3.2"/>
		</g>
		<g>
			<circle class="st0" cx="203.4" cy="154.7" r="4.4"/>
		</g>
		<g>
			<path class="st1" d="M192.1,141.2c0,0-23-10.3-31.7-56.9c0,0-4.5,42.3-31.6,55.9c0,0,8.8-16.2,7.8-36.5c0,0-9.3,27.8-40.8,47
				c0,0,14-19.4,12-45.3c0,0-5.1,33.7-43.5,64.4c0,0,3.5,45.7,18.6,62c0,0-4.1,2.3-18.6-14.5l4.8,18.7c0,0,23.7,25.3,62.9,41.7
				c0,0,5.3,17.9-0.4,27.8c0,0-10.7-3.2-30.5-29.3c0,0-1.9,13.8,9.2,23.8c0,0-30.3,1.2-52.8-39.8c0,0-3.4,15.9,2.3,33
				c0,0-61.5-80.4-42.2-154.1l-15,16.3c0,0,11.3-102.7,90.8-137.3s110.9-10.5,147.6,3.5c0,0,70.8,29.7,82.1,131.4l-14.1-17.1
				c0,0,12,27.9-1.9,77.9s-40.1,81.1-40.1,81.1s7.5-12.1,3.1-34.5c0,0-19.3,36.3-52.8,39.8c0,0,10.5-11.5,9.2-23.8
				c0,0-22,26.1-29.6,28.8c0,0-7-10.8-2.3-30.8c0,0,41.7-25.7,59.3-42.4l3.4-17.4c0,0-3.9,13-19.4,17.4c0,0,14.9-14.6,19.4-62.1
				c0,0-28.8-16.4-44-63.4c0,0-1.6,19.8,12.5,44.2"/>
		</g>
		<g>
			<g>
				<path class="st0" d="M163.4,243.8l1.8,1.3l2.1-2.3c0,0,3.8,1.5,10.4-1.8"/>
			</g>
			<g>
				<path class="st1" d="M163.4,243.8l1.9,1.2l-0.3,0c0.7-0.8,1.3-1.6,2-2.4l0.1-0.2l0.2,0.1c0.8,0.2,1.7,0.3,2.5,0.3
					c0.9,0,1.7-0.1,2.6-0.3c0.9-0.2,1.7-0.4,2.6-0.6c0.8-0.3,1.7-0.5,2.6-0.8c-1.5,1-3.2,1.7-5,2.1c-1.8,0.4-3.7,0.6-5.5-0.1
					l0.4-0.1c-0.7,0.8-1.5,1.5-2.2,2.2l-0.1,0.1l-0.1-0.1L163.4,243.8z"/>
			</g>
		</g>
	</g>
	<g>
		<g>
			<path class="st8" d="M120.7,372.4l-2.5-36.3l-51.2,9c0,0-20.6,31.7-29.5,50.1c-8.9,18.3-23.8,52.7-23.8,52.7S3.4,467.2,40,502
				l35.1,36.4c0,0,20.9,8.4,28.1,15.5c7.2,7.1,22.5,14.1,20.9-7c0,0,14.8,4.3,8.9-13.9c0,0,13.2,1.8,10.7-11.1
				c0,0-1.5-7.9-10.7-11.6c0,0,20.1,7.5,17.2-9.7c0,0-15.6-19.8-34.4-4.3c0,0-16-0.7-39.3-28.4L66,455.1c0,0,4.9-22.4,26-47.4
				S115.7,376,120.7,372.4z"/>
		</g>
		<g>
			<path class="st9" d="M106.8,335.9c0,0-4.3,8.5-22.3,29.3c0,0-12.6,0.6-52.8,70.5c0,0-28.2,30.2,49.1,97.1
				c0,0,39.3,32.7,43.6,15.6c0,0,1.2,16.6-11.8,11s-11.6-8.7-11.6-8.7s-17.4-10.2-22.7-10.9s-36.2-33.4-37.2-36.5
				c0,0-33.7-27.7-28.1-54.3c5.6-26.6,54-106.1,54-106.1s6.1-15.1,44.3-19.4L106.8,335.9z"/>
		</g>
		<g>
			<path class="st1" d="M119.7,373l-14.8,19.8c-4.9,6.6-9.8,13.2-14.5,19.9c-4.8,6.7-9.3,13.5-13.7,20.4l-3.2,5.2l-2.9,5.4
				c-0.9,1.8-1.7,3.7-2.6,5.5c-0.8,1.9-1.3,3.9-2.1,5.8c1.1-8.2,4.8-15.9,8.7-23.2c3.9-7.3,8.4-14.3,13.2-21
				c4.8-6.7,9.8-13.3,15.2-19.6C108.4,385,113.8,378.8,119.7,373z"/>
		</g>
		<g>
			<g>
				<path class="st1" d="M122.3,511.6c3-1.4,6.3-1.6,9.6-1.7c3.3-0.1,6.6,0.4,9.8,0.7c0.8,0,1.6,0.2,2.3,0.1l1.1-0.1l1-0.3
					c1.3-0.5,2.2-1.5,2.6-2.9c0.8-2.7,0.1-6-0.8-8.9l0.3,0.5c-2.3-1.8-4.9-3.3-7.6-4.6c-1.3-0.7-2.7-1.3-4.1-1.8
					c-1.4-0.6-2.8-1-4.1-1.2c-5.5-0.8-11.3,2.4-15.6,6l-0.4,0.3l-0.4,0c-1.3,0.1-2.2,0-3.2-0.1c-1-0.1-1.9-0.4-2.8-0.7
					c-1.8-0.6-3.5-1.4-5.2-2.3c-1.7-0.8-3.2-1.9-4.8-2.8l-4.5-3.2c-5.8-4.5-10.9-9.7-15.7-15c-4.7-5.5-9.3-11.1-13.5-16.9
					c-4.2-5.8-8.2-11.9-12-18c2.2,2.8,4.4,5.7,6.6,8.6c2.1,2.9,4.5,5.6,6.7,8.4c4.5,5.6,9.2,11,14.1,16.2c5,5.1,10,10.2,15.7,14.4
					l4.3,3c1.5,0.9,3,1.9,4.5,2.6c1.5,0.8,3.1,1.5,4.7,2c1.5,0.5,3.4,0.9,4.5,0.8l-0.8,0.4c2.5-2.2,5.2-3.8,8.3-5.1
					c3-1.3,6.4-2,9.8-1.4c1.7,0.3,3.3,0.9,4.7,1.4c1.5,0.6,2.9,1.2,4.3,1.9c2.8,1.4,5.5,3.1,8,5.3l0.3,0.2l0.1,0.3
					c0.9,3.3,1.6,6.7,0.4,10.3c-0.6,1.8-2,3.3-3.8,3.9l-1.3,0.4l-1.3,0.1c-0.9,0.1-1.7-0.1-2.6-0.2c-3.2-0.6-6.3-1.2-9.6-1.4
					C128.7,510.6,125.4,510.5,122.3,511.6z"/>
			</g>
			<g>
				<path class="st1" d="M132.9,510.4c2.8,0.7,5.6,2,7.9,4c2.3,2,4.2,5,4.2,8.4c0,0.8,0,1.7-0.2,2.5c-0.1,0.8-0.4,1.6-0.6,2.3
					c-0.5,1.5-1.2,2.9-2.3,4.3c-1.1,1.3-2.6,2.4-4.3,2.9c-1.8,0.5-3.5,0.4-5.3-0.3l-0.3-0.1l-0.2-0.3c-0.8-1-1.8-2.1-2.7-3
					c-1-1-2-1.9-3.2-2.6c-1.1-0.7-2.3-1.4-3.7-1.9c-1.3-0.4-2.7-0.5-4.2-0.4c2.7-1.2,6.1-0.7,8.8,0.6c1.4,0.6,2.7,1.5,3.9,2.4
					c1.2,0.9,2.3,1.9,3.3,3.1l-0.6-0.4c2.1,0.6,4.6,0,6-2c1.5-1.8,2.5-4.7,2.7-7c0.2-2.5-0.9-4.9-2.7-7
					C137.7,513.7,135.4,511.8,132.9,510.4z"/>
			</g>
			<g>
				<path class="st1" d="M128.2,528.6c3.2,2.1,6.1,5.1,7.4,9.1c0.7,2,0.6,4.4-0.2,6.5c-0.9,2-2.2,4-4.5,5c-2.4,0.9-4.9,0.2-6.7-0.6
					c-1.9-0.9-3.5-2-5.1-3c-3.2-2.1-6.1-4.5-9.9-5.2c4-0.7,7.9,1.3,11.2,3c1.7,0.8,3.3,1.8,5,2.4c1.6,0.6,3.2,0.9,4.4,0.4
					c1.2-0.4,2.3-1.8,3-3.2c0.7-1.4,0.8-3,0.6-4.7C132.6,534.9,130.5,531.7,128.2,528.6z"/>
			</g>
			<g>
				<path class="st1" d="M121.8,545.9c0,0,0-0.1,0-0.1c0-0.2,0.2-0.2,0.2-0.2c0.1,0,0.2,0.1,0.2,0.1c0.1,0.1,0.2,0.1,0.3,0.2
					c0.2,0.2,0.3,0.3,0.4,0.5c0.3,0.3,0.5,0.7,0.7,1.1c0.4,0.8,0.6,1.6,0.8,2.4c0.3,1.7,0.1,3.4-0.4,5.1c-0.5,1.6-1.3,3.2-2.2,4.6
					c-0.8,1.5-2.7,2.8-4.6,2.8c-3.7,0-6.8-1.9-9.6-3.7c-2.8-1.9-5.3-4.1-7.8-6.5l0.2,0.1c-5-3.2-10.2-6.2-15.6-8.5
					c-1.3-0.6-2.7-1.1-4.1-1.6c-0.7-0.3-1.4-0.4-2.1-0.7c-0.3-0.1-0.8-0.3-1.2-0.4c-0.4-0.2-0.8-0.4-1.1-0.6
					c-2.8-1.7-5.1-3.6-7.4-5.6c-9-8.2-17.1-17.1-24.9-26.2c-7.8-9.1-15.3-18.5-22.6-28.1c-3.7-4.6-7.1-10-8.4-16
					c-1.4-5.9-1.1-12.2,0.7-18.1c8.8-22.5,18.6-44.4,29.8-65.7c5.6-10.7,11.6-21.2,18.5-31.1c3.5-5,7.1-9.8,11.3-14.3
					c2.1-2.2,4.4-4.3,6.9-6.2c2.6-1.8,5.4-3.4,8.8-3.9l0.1,0l0.1,0c6.3,0.1,12.9-0.7,19.1-2.5c6.2-1.8,12.1-4.6,16.7-9
					c2.3-2.2,4.2-4.8,5.6-7.7c1.4-2.9,2.2-6,2.8-9.2c0.9-6.4,0.2-13-1.4-19.4l0.3-0.1c1.8,6.3,2.9,13,2.3,19.6
					c-0.6,6.7-3.4,13.2-8.2,18.1c-4.8,4.9-10.9,8.1-17.3,10.1c-6.5,1.9-13.1,2.9-19.9,3l0.2,0c-2.6,0.4-5.1,1.8-7.4,3.5
					c-2.3,1.7-4.4,3.7-6.4,5.9c-4,4.3-7.6,9-11,13.9c-6.7,9.8-12.7,20.2-18.4,30.7c-5.7,10.5-11.1,21.2-16.3,32
					c-5.1,10.8-10.4,21.6-15,32.6c-2,5.6-2.2,11.7-0.9,17.4c0.6,2.9,1.7,5.7,3.1,8.3c1.4,2.6,3.3,4.9,5.1,7.3
					c7.3,9.5,15.3,18.5,23.3,27.3c8.2,8.7,16.3,17.6,25.1,25.6c2.2,2,4.5,3.9,6.8,5.4c0.6,0.4,1,0.6,1.8,0.8
					c0.7,0.3,1.5,0.5,2.2,0.7c1.4,0.5,2.9,1.1,4.2,1.8c5.5,2.6,10.8,5.6,15.8,9.1l0.1,0.1l0.1,0.1c2.2,2.3,4.6,4.5,7.2,6.5
					c2.6,1.8,5.5,3.7,8.5,3.7c1.5,0,2.7-0.7,3.6-2c1-1.3,1.8-2.7,2.3-4.2c0.5-1.5,0.8-3.1,0.6-4.7c-0.1-0.8-0.3-1.6-0.6-2.3
					c-0.1-0.4-0.3-0.7-0.5-1.1c-0.1-0.2-0.2-0.3-0.3-0.5c-0.1-0.2-0.4-0.2-0.1-0.4L121.8,545.9z"/>
			</g>
		</g>
	</g>
	<g>
		<g>
			<path class="st8" d="M214.4,372.2l-0.8-36.4l51.8,4.4c0,0,23.4,29.8,33.9,47.3c10.5,17.5,28.4,50.4,28.4,50.4
				s12.3,18.9-21.1,56.8l-32,38.9c0,0-20,10.3-26.6,17.9c-6.5,7.7-21.2,16-21.4-5.1c0,0-14.4,5.6-10.1-13c0,0-13,3-11.7-10.1
				c0,0,0.7-8,9.6-12.5c0,0-19.4,9.3-18-8.2c0,0,13.7-21.1,33.9-7.3c0,0,15.9-2.1,36.6-31.8l9.2-13.7c0,0-6.9-21.8-30.2-44.8
				C222.8,381.9,219.7,375.4,214.4,372.2z"/>
		</g>
		<g>
			<path class="st9" d="M225.2,335.3c0,0,6.3,4.8,26.1,23.9c0,0,12.3,3.7,57.6,68.8c0,0,30.8,27.5-40.3,101.1
				c0,0-36.2,36.1-42.1,19.4c0,0,0.2,16.7,12.7,9.9c12.4-6.8,10.8-9.7,10.8-9.7s16.5-11.7,21.6-12.8s32.2-36.7,32.8-39.9
				c0,0,32.1-30.3,24.1-56.3c-8-26-63.3-100.9-63.3-100.9s-7.6-15.5-46-16.4L225.2,335.3z"/>
		</g>
		<g>
			<path class="st1" d="M215.5,372.8c6.4,5.3,12.4,10.9,18.2,16.7c5.9,5.8,11.4,11.9,16.8,18.2c5.3,6.3,10.5,12.8,15,19.8
				c4.5,6.9,8.8,14.2,10.7,22.3c-0.9-1.9-1.6-3.8-2.6-5.6c-1-1.8-2-3.6-3.1-5.3l-3.4-5.1l-3.6-4.9c-5-6.5-10.1-12.9-15.4-19.1
				c-5.3-6.3-10.8-12.4-16.2-18.5L215.5,372.8z"/>
		</g>
		<g>
			<g>
				<path class="st1" d="M225.2,511c-3.2-0.8-6.4-0.4-9.6,0c-3.2,0.5-6.3,1.4-9.4,2.2c-0.8,0.2-1.6,0.5-2.5,0.5l-1.3,0.1l-1.4-0.2
					c-1.8-0.4-3.4-1.8-4.2-3.5c-1.4-3.4-1.1-6.9-0.5-10.3l0.1-0.3l0.2-0.2c2.3-2.3,4.8-4.3,7.5-5.9c1.3-0.8,2.7-1.6,4.1-2.3
					c1.4-0.7,2.9-1.4,4.6-1.9c3.3-0.8,6.8-0.4,9.9,0.6c3.1,1,6,2.4,8.7,4.4l-0.8-0.3c1.1,0,3-0.5,4.4-1.2c1.5-0.7,3.1-1.5,4.5-2.4
					c1.5-0.8,2.9-2,4.3-3l4-3.4c5.3-4.7,9.8-10.2,14.3-15.8c4.4-5.6,8.6-11.4,12.6-17.4c2-3,4.1-5.9,5.9-9c1.9-3.1,3.8-6.1,5.8-9.1
					c-3.3,6.4-6.7,12.8-10.3,19c-3.7,6.2-7.7,12.2-11.9,18.1c-4.4,5.8-9,11.4-14.3,16.4l-4.1,3.6c-1.5,1.1-2.9,2.3-4.5,3.2
					c-1.5,1-3.2,1.9-4.9,2.7c-0.9,0.4-1.8,0.7-2.7,0.9c-1,0.3-1.8,0.5-3.2,0.4l-0.4,0l-0.4-0.3c-4.6-3.3-10.6-5.9-16-4.6
					c-1.3,0.3-2.6,0.9-4,1.6c-1.4,0.6-2.7,1.4-4,2.1c-2.5,1.5-5.1,3.3-7.2,5.3l0.3-0.5c-0.7,2.9-1.1,6.3,0,8.9
					c0.5,1.3,1.5,2.3,2.8,2.7l1,0.2l1.1,0c0.7,0.1,1.5-0.2,2.3-0.3c3.1-0.7,6.4-1.4,9.7-1.6C218.7,510,222.1,509.9,225.2,511z"/>
			</g>
			<g>
				<path class="st1" d="M214.6,510.8c-2.4,1.7-4.5,3.7-6.1,5.9c-1.5,2.2-2.5,4.8-2.1,7.2c0.4,2.3,1.6,5.1,3.3,6.8
					c1.6,1.8,4.1,2.3,6.1,1.5l-0.5,0.5c0.9-1.3,1.9-2.4,3-3.4c1.1-1,2.3-2,3.6-2.7c2.6-1.6,5.9-2.3,8.7-1.4c-1.5,0-2.9,0.3-4.1,0.8
					c-1.3,0.6-2.4,1.3-3.5,2.2c-1.1,0.9-2,1.9-2.9,2.9c-0.9,1-1.8,2.2-2.4,3.3l-0.2,0.3l-0.3,0.2c-1.7,0.8-3.4,1.1-5.2,0.8
					c-1.8-0.3-3.4-1.3-4.5-2.5c-1.2-1.2-2-2.6-2.6-4c-0.3-0.7-0.7-1.4-0.8-2.2c-0.3-0.8-0.4-1.6-0.4-2.4c-0.3-3.4,1.3-6.6,3.4-8.7
					C209.2,513.3,211.8,511.7,214.6,510.8z"/>
			</g>
			<g>
				<path class="st1" d="M220.9,528.5c-2.1,3.2-3.8,6.7-4.2,10.1c-0.1,1.7,0.2,3.3,1,4.7c0.8,1.3,2,2.6,3.2,3c1.2,0.4,2.8,0,4.3-0.8
					c1.6-0.7,3.1-1.9,4.7-2.8c3.1-2,6.8-4.3,10.8-4c-3.8,1-6.4,3.6-9.4,6c-1.5,1.2-3,2.4-4.8,3.5c-1.7,1-4.1,1.9-6.6,1.2
					c-2.4-0.8-3.9-2.7-5-4.6c-1-2-1.3-4.4-0.8-6.4C215.2,534.1,217.9,530.9,220.9,528.5z"/>
			</g>
			<g>
				<path class="st1" d="M228.5,545.1c0.3,0.1,0,0.2-0.1,0.4c-0.1,0.2-0.2,0.3-0.3,0.5c-0.2,0.4-0.3,0.7-0.4,1.1
					c-0.2,0.8-0.3,1.6-0.4,2.4c0,1.6,0.4,3.2,1,4.6c0.7,1.4,1.6,2.8,2.7,3.9c1,1.2,2.3,1.8,3.8,1.7c3-0.3,5.7-2.4,8.1-4.5
					c2.4-2.1,4.6-4.6,6.6-7.1l0.1-0.1l0.1-0.1c4.7-3.9,9.6-7.4,14.9-10.4c1.3-0.8,2.7-1.5,4.1-2.1c0.7-0.3,1.4-0.6,2.1-0.9
					c0.7-0.3,1.1-0.5,1.7-0.9c2.2-1.7,4.3-3.8,6.3-6c8.1-8.7,15.4-18.2,22.7-27.7c7.3-9.5,14.4-19.2,20.8-29.3
					c1.6-2.5,3.3-5,4.5-7.7c1.2-2.7,1.9-5.6,2.3-8.5c0.8-5.8,0-11.9-2.5-17.3c-5.5-10.5-11.7-20.9-17.8-31.2
					c-6.2-10.3-12.5-20.5-19.1-30.4c-6.7-9.9-13.5-19.7-21.1-28.9c-3.8-4.6-7.8-9-12.2-12.9c-2.2-1.9-4.5-3.8-6.9-5.3
					c-2.4-1.5-5.1-2.7-7.7-2.8l0.2,0c-6.8,0.6-13.5,0.2-20.1-1.2c-6.5-1.4-13-4-18.2-8.5c-5.2-4.4-8.7-10.7-9.8-17.3
					c-1.2-6.6-0.7-13.3,0.5-19.8l0.3,0.1c-1,6.5-1.1,13.1,0.4,19.4c0.8,3.1,1.9,6.2,3.6,8.9c1.7,2.7,3.8,5.1,6.3,7.1
					c5,4,11.2,6.3,17.4,7.5c6.3,1.2,12.9,1.4,19.2,0.8l0.1,0l0.1,0c3.4,0.1,6.4,1.5,9.1,3.1c2.7,1.6,5.2,3.5,7.5,5.5
					c4.6,4.1,8.7,8.6,12.6,13.2c7.8,9.3,14.6,19.2,21.2,29.3c13.1,20.2,24.7,41.2,35.5,62.8c2.3,5.7,3.2,11.9,2.3,17.9
					c-0.8,6.1-3.6,11.7-6.9,16.7c-6.4,10.2-13,20.2-20,30c-7,9.8-14.2,19.4-22.4,28.3c-2.1,2.2-4.2,4.4-6.8,6.3
					c-0.4,0.2-0.7,0.5-1.1,0.7c-0.4,0.2-0.9,0.4-1.2,0.5c-0.7,0.3-1.4,0.5-2,0.9c-1.3,0.6-2.6,1.3-3.9,2c-5.2,2.8-10.1,6.3-14.7,9.9
					l0.2-0.2c-2.2,2.6-4.5,5-7.2,7.1c-2.6,2-5.5,4.2-9.2,4.6c-1.9,0.2-3.8-0.9-4.8-2.4c-1.1-1.3-2-2.8-2.6-4.4c-0.6-1.6-1-3.3-0.8-5
					c0.1-0.9,0.3-1.7,0.6-2.5c0.2-0.4,0.3-0.8,0.6-1.2c0.1-0.2,0.2-0.4,0.4-0.5c0.1-0.1,0.1-0.2,0.2-0.2c0,0,0.1-0.1,0.2-0.1
					c0.1,0,0.2,0,0.3,0.1c0,0.1,0,0.1,0,0.1L228.5,545.1z"/>
			</g>
		</g>
	</g>
</g>
</svg>
