<?xml version="1.0" encoding="utf-8"?>
<!-- Generator: Adobe Illustrator 21.0.2, SVG Export Plug-In . SVG Version: 6.00 Build 0)  -->
<svg version="1.1" id="Capa_5" xmlns="http://www.w3.org/2000/svg" xmlns:xlink="http://www.w3.org/1999/xlink" x="0px" y="0px"
	 viewBox="0 0 422.3 872.4" style="enable-background:new 0 0 422.3 872.4;" xml:space="preserve">
<style type="text/css">
	.st0{fill:#F8B454;}
	.st1{fill:#DD9239;}
	.st2{fill:#BF8D36;}
	.st3{fill:#A16F2A;}
	.st4{fill:#1C1C1B;}
	.st5{fill:#FFFFFF;}
	.st6{fill:#8F8F90;}
	.st7{fill:#0A567D;}
	.st8{fill:#293766;}
</style>
<g>
	<g>
		<path class="st0" d="M107.9,663c0,0,32.9-4.4,52.5,3.9l-1.7,47l-2.1,81.5l2.5,50.4c0,0,0.5,11-12.3,13.5
			c-12.8,2.6-51.5,22.4-81.9,6.4c0,0-10.9-37.4,26-42.8c0,0,16.7-4.5,16.5-27.5C107,772.4,107.9,663,107.9,663z"/>
		<path class="st1" d="M107.9,663v8.1c0,0,9.1,3.2,31.8,6.8c4.7,0.8,8.1,5,7.8,9.8c-1.3,19.6-4.4,67.4-3.6,87.1
			c1,25,2.3,49,2.3,58.9c0,9.8-82.7,24.6-82.7,24.6l1.3,7.5c0,0,29.5,17.6,89.3-9.6c0,0,8.1-3.4,4.2-18.8l-0.5-86.2
			c0,0,1-76,2.5-84.1C160.4,667,133.3,657.5,107.9,663z"/>
		<path class="st2" d="M107.9,795.4c0,0,24.3,9.5,49.5,0l-0.4,9.6c0,0-32.5,6.6-50.5-1.4L107.9,795.4z"/>
		<path class="st2" d="M99,817.9c0,0,30.9-0.8,32,38.9c0,0,19.1-5.3,28-11c0,0,1.5,6.7-5.8,11c-7.3,4.3-68,24.1-88.3,9v-6.3
			c0,0,30,8.8,56.8,0.6C121.6,860,123.8,830.2,99,817.9z"/>
		<path class="st3" d="M144.9,798.7v8.9l12.1-2.6l0.5-10.8C157.5,794.2,157.8,797.5,144.9,798.7z"/>
		<path class="st3" d="M120,845.8c0,0,7.3-0.5,9.6-2.9c0,0,1.5,8.9,1.4,15.2l27.9-12.4c0,0,1.5,10.3-9.6,12.4
			c0,0-54.2,23.8-84.5,7.5v-6.3c0,0,28.9,8.8,56.8,0.6C121.6,860,121.5,851.1,120,845.8z"/>
		<g>
			<g>
				<path class="st4" d="M160.5,666.1l-1.2,71c-0.3,23.7-0.5,47.3-0.6,71c0.1,11.8,0.1,23.7,0.8,35.5c0,1.4,0.2,3,0,4.5
					c-0.2,1.5-0.7,3.1-1.5,4.4c-1.5,2.7-4.2,4.8-7,5.7c-5.5,2.1-11.1,4.1-16.8,6c-11.3,3.6-22.9,6.4-34.8,7.7
					c-5.9,0.5-11.9,0.8-17.9,0c-6-0.8-11.9-2.3-17.3-5.1l-0.4-0.2l-0.1-0.5c-1.3-4.5-1.9-9.1-1.9-13.7c0-4.6,0.7-9.4,2.5-13.8
					c1.7-4.5,5-8.3,8.9-11c3.9-2.9,8.5-4.2,13.1-5.3l0,0l0.2,0c6.4-0.7,12.7-4.7,15.8-10.6c1.6-2.9,2.6-6.2,3-9.5
					c0.3-1.7,0.3-3.4,0.3-5.1c0.1-1.7,0-3.5,0-5.3c-0.2-14.3-0.1-28.6,0.1-42.9l0.8-42.9c0.3-14.3,0.8-28.6,1.3-42.9l0.3,0
					c0.1,14.3,0.3,28.6,0.3,42.9l0.2,42.9c0.2,14.3,0.1,28.6,0.3,42.8c0.2,7,0.2,15-3.7,21.7c-3.7,6.8-10.8,11.4-18.6,12.1l0.2,0
					c-4.2,1-8.5,2.1-11.9,4.7c-3.5,2.4-6.4,5.7-8,9.6c-1.7,3.9-2.4,8.3-2.5,12.6c-0.1,4.3,0.4,8.8,1.5,13l-0.6-0.7
					c5,2.8,10.7,4.4,16.4,5.2c5.8,0.9,11.7,0.7,17.5,0.4c5.9-0.5,11.7-1.4,17.5-2.5c5.8-1.3,11.5-2.8,17.1-4.5
					c5.6-1.8,11.2-3.7,16.7-6c2.8-0.9,5.1-2.8,6.4-5.3c0.7-1.2,1.1-2.6,1.3-4c0.2-1.4,0-2.8-0.1-4.3c-0.9-11.8-1.4-23.7-1.8-35.5
					c-0.7-23.7-0.3-47.4,0.3-71.1c0.6-23.7,1.8-47.4,3.5-71L160.5,666.1z"/>
			</g>
			<g>
				<path class="st4" d="M63.5,859c8,2,16.2,3,24.4,3.2c8.2,0.2,16.4-0.1,24.4-1.4c2-0.2,4-0.7,6-1c2-0.4,4-0.7,6-1.3l5.9-1.5
					l5.9-1.8c7.8-2.4,15.3-5.9,22.9-9.3c-3.5,2.2-7,4.5-10.7,6.5c-3.8,1.8-7.4,3.8-11.4,5.2c-7.7,3.3-15.9,5.1-24.2,6.5
					c-8.3,1.3-16.7,1.5-25,0.7c-4.2-0.4-8.3-1.1-12.4-1.9C71.3,861.8,67.3,860.7,63.5,859z"/>
			</g>
			<g>
				<path class="st4" d="M106.7,803.7c4.2,1.2,8.4,1.7,12.6,2.2c4.2,0.4,8.4,0.6,12.7,0.6c4.2,0,8.5-0.2,12.7-0.5l12.9-1.1
					c-2,0.8-4.1,1.4-6.2,2.1c-2.1,0.5-4.2,1.1-6.4,1.5c-4.3,0.8-8.7,1.2-13,1.2c-4.4-0.1-8.8-0.4-13.1-1.4
					C114.6,807.5,110.4,806,106.7,803.7z"/>
			</g>
			<g>
				<path class="st4" d="M107.2,795.4c4.2,0.9,8.4,1.6,12.6,2.3c4.2,0.6,8.4,1,12.6,1.1c4.2,0.2,8.4-0.1,12.5-0.6
					c4.2-0.5,8.3-1.5,12.5-2.7c-3.6,2.3-7.7,4.3-12,5.2c-4.3,1-8.7,1.5-13.1,1.3C123.6,801.7,114.8,799.6,107.2,795.4z"/>
			</g>
			<g>
				<path class="st4" d="M131,858.2c-0.2-2.3-0.3-4.5-0.5-6.7c-0.4-2.2-0.6-4.5-1.3-6.6c-0.9-4.3-2.8-8.4-5.3-11.9
					c-5-7.1-13.1-11.6-21.6-13.1c-0.5-0.1-1.1-0.2-1.6-0.3l-0.8-0.1c-0.1-0.1-0.5,0.1,0.4-0.1c0.6-0.3,0.9-0.9,0.7-1.5
					c-0.1-0.3-0.3-0.6-0.6-0.8c0,0-0.1-0.1-0.2-0.1l0.1,0l0.1,0l0.4,0.2l0.8,0.4c0.5,0.3,1.1,0.6,1.6,0.9c2,1.2,4,2.6,5.7,4.2
					c3.5,3.2,6.4,7,8.4,11.2c2,4.2,3.3,8.7,4,13.2c0.7,4.5,0.6,9.1,0.3,13.6c-0.5-9-2.2-18-6.5-25.7c-2.2-3.8-4.9-7.2-8.2-10
					c-1.6-1.4-3.4-2.7-5.3-3.7c-0.5-0.3-0.9-0.5-1.4-0.8l-0.7-0.3l-0.4-0.2l-0.4-0.2c-0.4-0.2-0.7-0.7-0.8-1.1
					c-0.2-0.9,0.2-1.8,1.1-2.2c0.4-0.2,1.1-0.1,1-0.1l0.2,0l0.9,0.1c0.6,0.1,1.2,0.2,1.7,0.3c4.6,0.9,9.1,2.5,13.1,5
					c4,2.5,7.5,5.9,9.9,9.9C131,839.6,132,849.3,131,858.2z"/>
			</g>
		</g>
	</g>
	<g>
		<path class="st0" d="M181.7,671.2c0,0,4.5,141.8,1.8,168.1c0,0-6.3,16.9,11.3,19.8c0,0,52.4,22.6,82.4,6.6c0,0,12.4-39.3-26.6-43
			c0,0-17.8-5-15.8-28.7c2-23.7-0.5-115.6-0.5-115.6S196.4,680.8,181.7,671.2z"/>
		<path class="st1" d="M181.7,673.8l0.5,13.4c0,0,13.4,5.8,26.7,7.7c6.1,0.9,10.9,5.9,11.1,12.1c0.4,8,0.8,21.1,1.2,42.3
			c0.7,45.2-5.5,73.3,14.8,82.2s24.7-2.2,41.7,30c0,0,9.7-34.2-27.1-38.8c0,0-19.8-5.1-15.9-41.1l-0.3-103.1
			C234.3,678.5,211.9,683.1,181.7,673.8z"/>
		<path class="st2" d="M234.4,804.4v-8.5c-26.2,10.6-49.8-0.4-49.8-0.4l0.6,9.5C185.2,804.9,210.4,812.4,234.4,804.4z"/>
		<path class="st2" d="M219.8,858.5c0,0,0.1-35,23.7-39.7c0,0-32.1-2.6-32.9,36.8c0,0-18.6-4.3-27.4-12c0,0-2.7,11.8,9.9,15
			c0,0,29.2,12.5,51.9,12.8c0,0,30,0.2,32.6-7l0.1-2.7C277.7,861.6,246.7,867.2,219.8,858.5z"/>
		<path class="st3" d="M220.9,797.9c0,0,0.2,7,0.7,10.2l12.7-3.7v-8.5C234.4,795.8,228.1,798.5,220.9,797.9z"/>
		<path class="st3" d="M225.6,822c0,0,1,5.7,4.8,6.1l9-8.3C239.3,819.7,234.4,817.4,225.6,822z"/>
		<g>
			<g>
				<path class="st4" d="M181.8,673.6c1.7,23,2.9,46.1,3.5,69.1c0.7,23.1,1,46.1,0.2,69.2c-0.3,11.5-1.1,23.1-1.8,34.5
					c-0.1,2.7,0.9,5.5,2.7,7.5c0.9,1,2,1.9,3.2,2.5c1.2,0.6,2.6,1.1,3.9,1.6c5.3,2.1,10.8,3.9,16.3,5.6c11,3.4,22.3,5.7,33.7,6.6
					c5.7,0.3,11.4,0.3,17-0.5c5.6-0.9,11-2.5,15.9-5.2l-0.6,0.7c1.1-4.2,1.6-8.7,1.5-13c-0.1-4.4-0.8-8.7-2.5-12.6
					c-1.6-4-4.5-7.3-7.9-9.6c-3.4-2.5-7.7-3.7-11.9-4.7l0.2,0c-7.1-0.7-13.6-4.5-17.5-10.4c-3.8-5.9-5-13-4.8-19.7
					c0.2-6.5,0.2-13,0.3-19.5l0.2-19.5l0.2-39c0-13,0.2-26,0.3-39l0.3,0c0.5,13,1,26,1.2,39l0.7,39c0.2,13,0.3,26,0,39.1
					c-0.2,6.3,1,12.6,4.3,17.7c3.3,5,9.1,8.3,14.9,9l0.2,0l0,0c4.5,1.1,9.2,2.4,13.1,5.3c3.9,2.7,7.2,6.6,8.9,11
					c1.8,4.4,2.5,9.1,2.5,13.8c0,4.7-0.6,9.2-1.9,13.8l-0.1,0.5l-0.5,0.2c-5.3,2.8-11.1,4.3-16.9,5.1c-5.8,0.7-11.7,0.6-17.5,0.1
					c-11.6-1.2-22.9-3.8-33.9-7.3c-5.5-1.7-11-3.7-16.4-5.7c-1.4-0.6-2.7-1-4.1-1.6c-1.3-0.7-2.6-1.6-3.6-2.7
					c-2-2.2-3.2-5.3-3.1-8.3c0.6-11.6,0.9-23,0.9-34.6c0-23-0.2-46.1-0.5-69.1l-1.3-69.2L181.8,673.6z"/>
			</g>
			<g>
				<path class="st4" d="M183.2,843.6c3.5,2.2,7.1,4.1,10.9,5.8c3.7,1.7,7.5,3.3,11.4,4.6c7.7,2.6,15.6,4.7,23.7,6.1
					c4,0.5,8.1,1.3,12.1,1.5c2,0.2,4.1,0.4,6.1,0.5c2,0,4.1,0.1,6.1,0.2c8.2,0.3,16.4-0.3,24.7-0.8c-4,0.9-8.1,1.6-12.2,2.3
					l-6.2,0.6l-3.1,0.3l-3.1,0.1c-8.3,0.5-16.7-0.4-24.9-1.6c-8.2-1.5-16.3-3.7-24-7C196.9,853,189.4,849,183.2,843.6z"/>
			</g>
			<g>
				<path class="st4" d="M236,803.7c-3.7,2.3-7.9,3.8-12.2,4.7c-4.3,1-8.7,1.3-13.1,1.4c-4.4,0-8.8-0.4-13-1.2
					c-2.2-0.4-4.3-1-6.4-1.5c-2.1-0.7-4.1-1.3-6.2-2.1L198,806c4.3,0.3,8.5,0.5,12.7,0.5c4.2,0,8.4-0.2,12.7-0.6
					C227.6,805.4,231.8,804.9,236,803.7z"/>
			</g>
			<g>
				<path class="st4" d="M235.5,795.4c-7.6,4.2-16.4,6.2-25.1,6.6c-4.4,0.2-8.8-0.3-13.1-1.3c-4.3-1-8.3-2.9-12-5.2
					c4.2,1.2,8.3,2.2,12.5,2.7c4.2,0.5,8.3,0.8,12.5,0.6c4.2-0.1,8.4-0.5,12.6-1.1C227,797.1,231.2,796.4,235.5,795.4z"/>
			</g>
			<g>
				<path class="st4" d="M210.6,858.2c-1-8.9,0-18.6,5-26.6c2.4-4,6-7.4,9.9-9.9c4-2.5,8.5-4.1,13.1-5c0.6-0.1,1.2-0.2,1.7-0.3
					l0.9-0.1l0.2,0c-0.1,0,0.6-0.1,1,0.1c0.9,0.4,1.3,1.3,1.1,2.2c-0.1,0.5-0.4,0.9-0.8,1.1l-0.4,0.2l-0.4,0.2l-0.7,0.3
					c-0.5,0.3-1,0.5-1.4,0.8c-1.9,1.1-3.6,2.3-5.3,3.7c-3.3,2.8-6,6.3-8.2,10c-4.3,7.7-6,16.7-6.5,25.7c-0.3-4.5-0.4-9.1,0.3-13.6
					c0.7-4.5,2-9,4-13.2c2-4.2,4.9-8,8.4-11.2c1.7-1.6,3.6-3,5.7-4.2c0.5-0.3,1-0.6,1.6-0.9l0.8-0.4l0.4-0.2l0.1,0l0.1,0
					c0,0-0.1,0.1-0.2,0.1c-0.2,0.1-0.5,0.5-0.6,0.8c-0.1,0.6,0.1,1.2,0.7,1.5c0.9,0.2,0.5,0.1,0.4,0.1l-0.8,0.1
					c-0.5,0.1-1.1,0.2-1.6,0.3c-8.5,1.5-16.6,5.9-21.6,13.1c-2.5,3.5-4.4,7.6-5.3,11.9c-0.7,2.1-0.9,4.4-1.3,6.6
					C210.9,853.7,210.9,856,210.6,858.2z"/>
			</g>
		</g>
	</g>
	<g>
		<g>
			<g>
				<g>
					<path class="st0" d="M100.6,375.4c0,0,54.2,41,141.4,2c0,0-8.3,69-5.9,119.1c0,0-0.9,44.6,1.9,59.5c0,0-41.4,14.2-132.3,3.8
						C105.7,559.7,115.3,476.9,100.6,375.4z"/>
					<path class="st1" d="M242.2,375.4c0,0-7.6,124.9-3.3,182.5c0,0-50.3,9-74.5,5.6c0,0,53.8,3.1,46.3-28.6s-1.2-132.2-1.2-132.2
						S212.1,387.3,242.2,375.4z"/>
					<g>
						<g>
							<path class="st4" d="M105.7,559.7c0.9-7.1,1.6-14.1,2-21.2c0.5-7.1,0.8-14.2,1-21.3c0.4-14.2,0.4-28.4-0.1-42.6
								c-0.3-14.2-1.2-28.4-2.1-42.5c-1-14.2-2.3-28.3-3.5-42.5c1.2,7,2.3,14,3.4,21.1c0.9,7.1,1.8,14.1,2.6,21.2
								c0.7,7.1,1.4,14.2,1.8,21.3c0.5,7.1,0.8,14.2,1.1,21.4c0.2,14.3,0.3,28.5-0.6,42.8C110.3,531.5,108.9,545.8,105.7,559.7z"/>
						</g>
						<g>
							<path class="st4" d="M238.1,555.9c-1.4-14.3-2-28.7-2.4-43c-0.4-14.4-0.3-28.7-0.1-43.1c0.5-14.4,1-28.7,2.2-43
								c1.2-14.3,2.8-28.6,5.4-42.7c-0.3,3.6-0.6,7.2-0.9,10.7l-0.8,10.7c-0.5,7.2-0.9,14.3-1.3,21.5c-0.7,14.3-1.3,28.6-1.5,43
								c-0.5,14.3-0.6,28.7-0.7,43c-0.1,7.2-0.1,14.3-0.1,21.5C238,541.6,238.1,548.7,238.1,555.9z"/>
						</g>
					</g>
				</g>
			</g>
			<path class="st0" d="M134.6,284.5c0,0,12.3,42.9-27.8,49.3c0,0-1.8,44.5,1.3,46c3,1.6,55.1,43.8,134-2.6l-10.4-44.1
				c0,0-41.5-3.1-33.2-52.2l-30.2,14.6L134.6,284.5z"/>
		</g>
		<path class="st1" d="M134.6,284.5c0,0,2.5,12.7,33,24c0,0,24.2-5.8,30.9-27.6l-30.2,14.6L134.6,284.5z"/>
	</g>
	<g>
		<g>
			<path class="st5" d="M105.7,559.7c0,0,95.6,9.9,132.8-4.4c0,0,22,44.5,22.5,66c0.5,21.5,33,40.3,33,40.3s-57.2,32.9-123.8,8.5
				S59,689.2,59,689.2s22.6-27.4,24.6-59.8C85.6,597,105.7,559.7,105.7,559.7z"/>
		</g>
		<g>
			<path class="st6" d="M202,563.6c0,0,40.5,27.9,40.3,69c0,0,8.6,25.8,31.7,27.9c0,0-20.9,16.4-68.4,3.8c0,0-12.6-5.6-11-27.6
				c0,0-4.6,17.2-0.1,24.4c0,0-18.4-11.5-57.8-8.3c0,0-3-9.7,0-24.4c0,0-5.4,20.7-5.1,23.3c0,0-41.2,1.4-70.2,35.6
				c0,0,30.2-30.5,76.1-25.4c0,0,28.1,5,41.3,11.1c13.2,6.1,64.8,15.1,115.5-11.3c0,0-25.9-10.1-32.6-36.2c0,0-10.7-53.4-24.1-69.5
				C237.4,555.9,213.5,563.1,202,563.6z"/>
		</g>
		<g>
			<path class="st4" d="M57,691.5c6.9-8.3,15.4-14.3,24.6-19.4c9.2-5,19.3-8.3,29.7-10.1c10.4-1.8,21-1.5,31.5-0.3l7.7,1.5
				c2.6,0.5,5.2,0.9,7.7,1.8l15,4.5c19.6,6.3,40.4,9.2,61.1,7.8c20.6-1.3,41.3-6.3,59.5-16.1l0.1,0.9c-9.4-4.5-17.9-11-24.2-19.4
				c-3.2-4.1-5.7-8.9-7.3-13.8c-1.8-5-2.3-10.2-3.5-15.2c-2.3-10-5.6-19.8-9.3-29.5c-3.7-9.6-7.7-19.2-12.2-28.4l1.8,0.6
				c-5.2,2.6-10.8,3.9-16.3,5c-5.6,1-11.1,1.6-16.7,2.1c-11.2,0.9-22.4,1.1-33.6,1.1c-11.2,0-22.4-0.4-33.5-1
				c-11.2-0.6-22.3-1.3-33.4-2.3l1.6-0.8c-5.3,10.3-9.8,21.3-13.4,32.4C90,604,87.1,615.5,85.1,627l-1.6,8.7
				c-0.6,2.9-1.3,5.8-2.1,8.7c-1.6,5.7-3.5,11.4-5.8,16.9c-2.3,5.5-5,10.8-8,15.9c-1.5,2.5-3.1,5-4.9,7.4c-0.9,1.2-1.7,2.4-2.7,3.6
				l-1.4,1.7l-0.7,0.8C57.7,691,57.7,691.3,57,691.5z M57.2,691.3c7.1-9.1,12.8-19.7,17-30.6c2.2-5.5,3.9-11.1,5.4-16.8
				c0.7-2.9,1.3-5.7,1.9-8.6l1.5-8.7c1.8-11.7,4.5-23.3,8.1-34.6c3.6-11.3,7.7-22.4,13.2-33.1l0.5-0.9l1.1,0.1
				c22.2,1.9,44.4,2.9,66.7,3.3c11.1,0.1,22.2,0,33.3-0.8c5.5-0.4,11-1,16.5-1.9c5.4-0.9,10.8-2.1,15.6-4.4l1.3-0.6l0.5,1.2
				c4.3,9.5,8.2,19.1,11.8,28.8c3.5,9.8,6.6,19.7,8.8,29.9c1.1,5.1,1.6,10.3,3.2,15.1c1.5,4.9,3.9,9.5,7,13.5
				c6.2,8.2,14.5,14.8,23.8,19l1,0.4l-0.9,0.5c-9.2,5.1-19,8.8-29.1,11.7c-10,2.9-20.4,4.7-30.8,5.6c-20.9,2-42.1-0.8-62.1-7.2
				l-14.8-4.6c-2.4-0.9-5-1.3-7.5-1.8l-7.6-1.5c-10.2-1.2-20.6-1.6-30.8-0.1c-10.2,1.6-20.1,4.7-29.4,9.3c-4.7,2.2-9.1,5-13.3,7.9
				c-2.1,1.6-4.2,3.1-6.1,4.8C60.9,687.7,59,689.9,57.2,691.3z"/>
		</g>
	</g>
	<g>
		<g>
			<path class="st0" d="M69.6,240.8c0,0,14.7,26.6,98.6,54.8c0,0,58.1-23.5,90.8-57.9c0,0,9.4-62,8.1-64.8c-1.3-2.9-50-75.3-50-75.3
				L164,84.2l-56.1,32.9l-42.4,57.3C65.5,174.5,57.3,202.1,69.6,240.8z"/>
		</g>
		<g>
			<path class="st1" d="M77.6,235.4c0,0,50.4,41.9,87.6,45.6c0,0,75.6-32.3,81.9-49.5l14.3-6.1l-2.4,12.3c0,0-36.1,36.7-90.8,57.9
				c0,0-59.4-15.3-98.6-54.8l-6.8-29.5L77.6,235.4z"/>
		</g>
		<g>
			<path class="st1" d="M161,101.5c0,0-1.2,30.9,31.3,52.1c0,0-4.8-8.6-3.4-13.9c0,0,28.6,29.4,73.5,34.7l4.7-1.6l-50-75.3L164,84.2
				l-56.1,32.9l-42.4,57.3c0,0,59.4-32.3,71-43.8c0,0,2,14.3-2.2,21C134.3,151.6,161.4,128.5,161,101.5z"/>
		</g>
		<g>
			<path class="st5" d="M73,170.3c0,0,4.6,19.6,27.9,32.5c0,0,24.4,11.3,44.1-4c0,0,8.6-14.5,2.1-29S92.5,127.3,73,170.3z"/>
		</g>
		<g>
			<path class="st5" d="M254.2,170.3c0,0-4.6,19.6-27.9,32.5c0,0-24.4,11.3-44.1-4c0,0-8.6-14.6-2.1-29.2S234.7,127.3,254.2,170.3z"
				/>
		</g>
		<g>
			<ellipse class="st7" cx="212.7" cy="173.7" rx="16.7" ry="23.6"/>
		</g>
		<g>
			<ellipse class="st7" cx="117.6" cy="173.7" rx="16.7" ry="23.6"/>
		</g>
		<g>
			<path class="st8" d="M215.8,150.1c0,0-24.7-3.3-19.1,30.1c0,0,3.3-2.3,8.5-3.7c0.1,0.3,6.4,16.2,15.2,0c2.7,0.7,5.5,1.9,8.3,3.7
				C228.8,180.2,234.2,158.5,215.8,150.1z"/>
		</g>
		<g>
			<path class="st8" d="M120.7,150.1c0,0-24.7-3.3-19.1,30.1c0,0,3.3-2.3,8.5-3.7c0.1,0.3,6.4,16.2,15.2,0c2.7,0.7,5.5,1.9,8.3,3.7
				C133.6,180.2,139.1,158.5,120.7,150.1z"/>
		</g>
		<g>
			<path class="st4" d="M180,169c4.2-6.3,9.7-11.8,16-16.3c6.3-4.5,13.6-8.1,21.8-9c4-0.4,8.3-0.3,12.3,0.8c4,1.1,7.7,3,11.1,5.3
				c6.5,4.9,11.3,11.4,14.7,18.2l0.4,0.9l-0.2,0.6c-0.6,1.5-1.2,2.8-1.9,4.2c-0.7,1.3-1.5,2.6-2.4,3.8c-0.9,1.2-1.9,2.3-2.9,3.4
				c-1,1.1-2.2,2-3.4,2.8c1.8-2.3,3.2-4.7,4.3-7.3c0.6-1.3,1.1-2.6,1.5-3.9c0.4-1.3,0.8-2.7,1.1-3.9l0.2,1.5
				c-4.3-5.9-9.2-11.3-14.9-15.2c-5.8-3.7-12.4-5.6-19.2-4.9c-6.8,0.6-13.6,3.2-20,6.6C192,160,185.9,164.2,180,169z"/>
		</g>
		<g>
			<path class="st4" d="M147.2,169c-5.9-4.7-12-9-18.4-12.5c-6.4-3.5-13.2-6-20-6.6c-6.8-0.7-13.5,1.2-19.2,4.9
				c-5.7,3.8-10.6,9.2-14.9,15.2l0.2-1.5c0.2,1.2,0.6,2.6,1.1,3.9c0.4,1.3,0.9,2.6,1.5,3.9c1.1,2.6,2.6,5,4.3,7.3
				c-1.2-0.9-2.3-1.7-3.4-2.8c-1-1-2-2.2-2.9-3.4c-0.9-1.2-1.7-2.5-2.4-3.8c-0.7-1.3-1.3-2.6-1.9-4.2l-0.2-0.6l0.4-0.9
				c3.4-6.9,8.2-13.3,14.7-18.2c3.3-2.4,7.1-4.2,11.1-5.3c4-1.2,8.2-1.3,12.3-0.8c8.2,1,15.5,4.5,21.8,9
				C137.5,157.2,142.9,162.7,147.2,169z"/>
		</g>
		<g>
			<path class="st4" d="M182.6,198.8c3.4,1.9,6.9,3.4,10.5,4.6c3.6,1.2,7.4,2,11.1,2.3c3.8,0.4,7.6,0.4,11.3-0.2
				c3.8-0.4,7.4-1.6,11.1-2.7c-3.4,1.8-7.1,3.3-10.9,3.9c-3.8,0.8-7.8,0.9-11.7,0.6C196.3,206.5,188.7,203.6,182.6,198.8z"/>
		</g>
		<g>
			<path class="st4" d="M145.1,198.8c-6.1,4.8-13.7,7.7-21.5,8.5c-3.9,0.4-7.9,0.3-11.7-0.6c-3.9-0.7-7.5-2.2-10.9-3.9
				c3.7,1.1,7.3,2.3,11.1,2.7c3.8,0.5,7.6,0.6,11.3,0.2c3.8-0.4,7.5-1.2,11.1-2.3C138.2,202.2,141.7,200.7,145.1,198.8z"/>
		</g>
		<g>
			<path class="st4" d="M117.6,197.3c-9.6,0-17.5-11-17.5-24.4c0-13.5,7.8-24.4,17.5-24.4s17.5,11,17.5,24.4
				C135.1,186.4,127.2,197.3,117.6,197.3z M117.6,150.1c-8.7,0-15.8,10.2-15.8,22.8c0,12.6,7.1,22.8,15.8,22.8s15.8-10.2,15.8-22.8
				C133.5,160.3,126.3,150.1,117.6,150.1z"/>
		</g>
		<g>
			<path class="st4" d="M212.7,197.3c-9.6,0-17.5-11-17.5-24.4c0-13.5,7.8-24.4,17.5-24.4s17.5,11,17.5,24.4
				C230.2,186.4,222.3,197.3,212.7,197.3z M212.7,150.1c-8.7,0-15.8,10.2-15.8,22.8c0,12.6,7.1,22.8,15.8,22.8
				c8.7,0,15.8-10.2,15.8-22.8C228.6,160.3,221.5,150.1,212.7,150.1z"/>
		</g>
		<g>
			<path class="st4" d="M162.7,206.7c0.9,0.4,1.6,1,2.2,1.8c0.6,0.8,1,1.7,1.1,2.8c0.1,1.1-0.2,2.2-0.9,3c-0.6,0.8-1.5,1.3-2.4,1.6
				c0.5-0.8,1.1-1.5,1.3-2.2c0.3-0.7,0.5-1.4,0.4-2.2C164.3,209.9,163.5,208.4,162.7,206.7z"/>
		</g>
		<g>
			<path class="st4" d="M95.1,136.2c0,0,32.7-7.1,44.1,3.5C139.2,139.7,150.4,118.9,95.1,136.2z"/>
		</g>
		<g>
			<path class="st4" d="M239.6,136.2c0,0-32.7-7.1-44.1,3.5C195.5,139.7,184.3,118.9,239.6,136.2z"/>
		</g>
		<g>
			<g>
				<path class="st5" d="M187.5,240.8c-20,10.6-47.4,2.2-47.4,2.2s8.4,15,21.7,14.3C175.2,256.6,187.5,240.8,187.5,240.8z"/>
			</g>
			<g>
				<path class="st4" d="M187.5,240.8c-3.6,1.9-7.3,3.4-11.3,4.4c-4,0.9-8,1.4-12.1,1.5c-4.1,0.1-8.1-0.1-12.2-0.6
					c-4-0.5-8-1.3-12-2.4l0.9-1.1c2.5,4,5.7,7.7,9.6,10.4c3.9,2.8,8.7,4.1,13.3,3.4c4.7-0.7,9.1-3,13-5.8
					C180.7,247.8,184.3,244.5,187.5,240.8z M187.5,240.8c-3,3.9-6.4,7.4-10.3,10.5c-3.9,3-8.3,5.5-13.3,6.4
					c-5,0.9-10.3-0.6-14.4-3.4c-4.2-2.8-7.5-6.6-10.1-10.9l-1-1.7l1.9,0.5c7.7,2.2,15.7,3.2,23.7,3.3c4,0,8-0.4,12-1.1
					C180,243.8,183.9,242.5,187.5,240.8z"/>
			</g>
		</g>
		<g>
			<path class="st4" d="M61.6,179.2l-1.5-1.9c46.2-36.6,48.8-69.8,48.8-70.2l0.7-11l1.7,10.9c2.7,16.7-5.8,35.7-10.1,44.1
				c34.2-23.6,37.7-47.4,37.8-47.6l2.4,0.1c0.1,19.5-4.7,32.8-7.8,39.2c26.3-19.3,29.2-58.2,29.3-58.6l2.4,0.2
				c0,0.4-3.3,44.4-34.5,63.2l-4.7,2.8l3.1-4.6c0.1-0.1,7.8-11.8,9.5-33.1c-4.2,9.9-14.6,26.7-40.2,43.2l-4.4,2.8l2.7-4.5
				c0.1-0.2,11.3-18.8,12.6-37.2C105.3,129.8,94,153.6,61.6,179.2z"/>
		</g>
		<g>
			<path class="st4" d="M92.8,287.4l-6-3.4c-0.3-0.2-25.5-14.4-34.2-42.7l-2.8,18.1l-1.7-2.8c-0.3-0.4-24.9-40.4-18.6-82.4l2.4,0.4
				c-5.2,34.6,11.1,67.9,16.6,77.8l3.6-23.9l1.4,6.5c4.7,22.3,20.4,36.7,28.9,43.1c-12.4-19.9-17.8-56.2-18-57.9l-1.1-7.8l3.4,7.1
				c4.2,8.7,10.9,14.2,15.6,17.2c-14.5-20-17.8-60.3-17.9-62.2l2.4-0.2c0,0.5,4,49.1,21.5,65.6l4.4,4.1l-5.6-2.1
				c-0.5-0.2-11.3-4.4-19.1-15.5c2.4,13.1,9,42.7,20.4,55.8L92.8,287.4z"/>
		</g>
		<g>
			<path class="st4" d="M266.4,179.1c-32.5-25.7-43.8-49.4-47.7-62.2c1.3,18.4,12.5,37,12.6,37.2l2.7,4.5l-4.4-2.8
				c-25.6-16.5-36.1-33.2-40.2-43.2c1.7,21.3,9.4,33,9.5,33.1l3.1,4.6l-4.7-2.8c-31.2-18.8-34.5-62.8-34.5-63.2l2.4-0.2
				c0,0.4,2.9,39.2,29.3,58.6c-3.1-6.4-8-19.6-7.8-39.2l2.4-0.1c0,0.2,3.5,24,37.8,47.6c-4.4-8.4-12.8-27.4-10.1-44.1l1.7-10.8
				l0.7,10.9c0,0.3,2.7,33.7,48.8,70.2L266.4,179.1z"/>
		</g>
		<g>
			<path class="st4" d="M235.2,287.4l4.5-5.2c11.4-13.1,18-42.7,20.4-55.8c-7.8,11.1-18.6,15.3-19.1,15.5l-5.6,2.1l4.4-4.1
				c17.4-16.5,21.4-65.1,21.5-65.6l2.4,0.2c-0.1,1.9-3.5,42.2-17.9,62.2c4.7-3,11.4-8.4,15.6-17.2l3.4-7.1l-1.1,7.8
				c-0.2,1.7-5.6,38-18,57.9c8.5-6.4,24.1-20.8,28.9-43.1l1.4-6.5l3.6,23.8c5.4-9.9,21.7-43.2,16.6-77.8l2.4-0.4
				c6.3,42-18.4,82-18.6,82.4l-1.7,2.8l-2.8-18.1c-8.7,28.3-33.9,42.5-34.2,42.7L235.2,287.4z"/>
		</g>
		<g>
			<path class="st4" d="M168.4,296.9l-0.4-0.1C105.4,282,69.1,242,68.7,241.6l1.8-1.6c0.4,0.4,36,39.7,97.6,54.3
				c4.9-2,58.2-24.8,90-57.5l1.7,1.7c-33.6,34.5-90.6,58-91.2,58.2L168.4,296.9z"/>
		</g>
		<g>
			<path class="st4" d="M133.6,314.4c-11.3-5.4-23.5-19.8-29-26.7c1,10.9,8.8,18.3,8.9,18.3l3.3,3l-4.5-0.2
				c-28.8-1.6-47-27.5-53-37.6c-2.1,14.8,3,28.3,3.1,28.4l4.9,12.7l-7.7-11.2C5.1,222.6,10.6,166.5,15.1,146.8L0,165.1l0.8-5.7
				c12.5-86.1,59-125,95.8-142.4c39.8-18.9,77.3-16.9,77.6-16.8l-0.2,2.7c-0.4,0-37.1-1.5-76.2,17.1C62.7,36.7,18.5,73.5,4.9,154.1
				l19.8-24l-4.3,10.2c-0.3,0.6-23.8,58.8,36.3,151c-1.3-6.5-2-15.7,0.2-25l1-4.3l2,3.9c0.2,0.4,17.8,34.9,48.5,39.3
				c-3.3-4.2-8-12.2-7-22.4l0.4-4.2l2.5,3.4c0.2,0.2,16.7,22.7,30.7,29.4L133.6,314.4z"/>
		</g>
		<g>
			<path class="st4" d="M200.5,314.4l-1.4-2.9c14-6.7,30.5-29.2,30.7-29.4l2.5-3.4l0.4,4.2c1,10.2-3.8,18.2-7,22.4
				c30.7-4.5,48.3-39,48.5-39.3l2-4l1,4.3c2.3,9.4,1.5,18.5,0.2,25c60.2-92.3,36.6-150.4,36.3-151l-4.4-10.3l19.9,24
				c-13.5-80.6-57.8-117.4-92.9-134.1C197.1,1.4,160.3,2.8,160,2.9l-0.1-2.4c0.4,0,36.1-4.6,77.6,16.5
				c36.3,18.5,83.3,56.3,95.8,142.4l0.8,5.7l-15.1-18.3c4.5,19.7,10,75.8-44.3,154.4l-7.7,11.2l4.9-12.7c0.1-0.1,5.2-13.6,3.1-28.4
				c-6,10.1-24.3,36-53,37.6l-4.5,0.2l3.3-3.1c0.1-0.1,7.9-7.5,8.9-18.3C224,294.7,211.7,309,200.5,314.4z"/>
		</g>
		<g>
			<ellipse class="st4" cx="117.6" cy="172.9" rx="5.1" ry="8.7"/>
		</g>
		<g>
			<ellipse class="st4" cx="212.7" cy="172.9" rx="5.1" ry="8.7"/>
		</g>
		<g>
			<circle class="st5" cx="112.6" cy="159.1" r="4.5"/>
		</g>
		<g>
			<circle class="st5" cx="125.3" cy="184.8" r="3.3"/>
		</g>
		<g>
			<circle class="st5" cx="221.1" cy="184.8" r="3.3"/>
		</g>
		<g>
			<circle class="st5" cx="207.6" cy="159.1" r="4.5"/>
		</g>
		<g>
			<path class="st4" d="M70.4,242c0,0,24.2,25.8,64.2,42.6c0,0,5.4,18.3-0.4,28.4c0,0-10.9-3.2-31.2-29.9c0,0-1.9,14.1,9.4,24.3
				c0,0-30.9,1.2-53.9-40.6c0,0-3.5,16.2,2.3,33.6c0,0-62.7-82-43.1-157.3L2.4,159.6c0,0,11.5-104.8,92.7-140.1
				s113.2-10.8,150.7,3.5c0,0,72.3,30.3,83.8,134.1l-14.4-17.4c0,0,12.2,28.4-1.9,79.5c-14.1,51-40.9,82.7-40.9,82.7
				s7.7-12.4,3.2-35.3c0,0-19.7,37.1-53.9,40.6c0,0,10.7-11.8,9.4-24.3c0,0-22.5,26.7-30.2,29.4c0,0-7.1-11-2.3-31.4
				c0,0,42.5-26.3,60.5-43.3l3.4-17.7c0,0-4,13.3-19.8,17.7c0,0,15.2-14.9,19.8-63.3c0,0-29.4-16.8-44.9-64.7
				c0,0-1.6,20.2,12.7,45.1c0,0-30.5-18.4-42.4-47.8c0,0,0.2,21.7,8.2,38.3c0,0-23.5-10.5-32.4-58.1c0,0-4.6,43.2-32.3,57
				c0,0,9-16.5,7.9-37.3c0,0-9.5,28.4-41.7,47.9c0,0,14.3-19.8,12.2-46.2c0,0-5.2,34.4-44.4,65.8c0,0,3.6,46.6,19,63.3
				c0,0-4.2,2.3-19-14.8L70.4,242z"/>
		</g>
		<g>
			<g>
				<path class="st5" d="M166.8,250l1.8,1.4l2.2-2.3c0,0,3.8,1.6,10.6-1.8"/>
			</g>
			<g>
				<path class="st4" d="M166.8,250l1.9,1.2l-0.3,0c0.7-0.8,1.3-1.6,2.1-2.4l0.2-0.2l0.2,0.1c0.8,0.2,1.7,0.3,2.6,0.3
					c0.9,0,1.8-0.1,2.7-0.3c0.9-0.2,1.8-0.4,2.6-0.6c0.9-0.3,1.8-0.5,2.6-0.9c-1.6,1-3.3,1.8-5.1,2.2c-1.8,0.4-3.8,0.6-5.7-0.1
					l0.4-0.1c-0.7,0.8-1.5,1.5-2.3,2.2l-0.1,0.1l-0.1-0.1L166.8,250z"/>
			</g>
		</g>
	</g>
	<path class="st0" d="M400.7,363.2c0,0-14-9.7-18.9-21.8c-4.9-12.1-14,7.7-7.5,20.6c0,0-13.2,2.8-7.5,13.7c0,0-8.2,6,1.2,12.8
		c0,0-10.4,6.8,6.3,16.5c0,0,30.6,15,37.8,3.6c0,0,3.6-6.7,3-12.1c-0.6-5.3,5.6-20.8,5.6-20.8S419.1,360,407,364L400.7,363.2z"/>
	<path class="st0" d="M325.4,448.1c0,0,36-37,41.4-49.4c0,0,10.9,13.3,22.6,11.1c0,0-18.7,60.7-44.5,80.1c-25.8,19.4-38,1.7-38,1.7
		s-23.8-21.2-38.2-43.5c-14.4-22.4-24.5-40.2-27.2-45.7c-2.8-5.5-10.5-69.6-10.5-69.6s34.9-2.9,49.7,19.2l8,21.6
		C288.7,373.6,316.2,437.8,325.4,448.1z"/>
	<path class="st1" d="M236.8,380.3c0,0,48.4,104.3,89.8,101.2c41.4-3.1,53.3-72.6,53.3-72.6s7.2,3.1,10.5,1.9
		c-1.7-0.6-27.5,94.6-72.8,88.1c0,0-18.3-6.7-38.4-35.6c-20.1-28.9-30.7-45.7-39.6-62.7L236.8,380.3z"/>
	<path class="st1" d="M377.6,338.7c0,0,2.6,18.9,12.8,23.7c0,0,18.5,6.6,4.7,20.1c0,0-2.6,4.7,1.4,9.9s6.6,20.3-9.4,17.6
		c0,0,26.7,11.3,27.8-9.3s4.9-22.7,4.9-22.7S421,358.5,407,364l-6.3-0.8c0,0-12.3-7.8-18.9-21.8
		C381.8,341.3,379.9,337.9,377.6,338.7z"/>
	<g>
		<g>
			<g>
				<path class="st4" d="M199.5,281c-1.7,5.7-2.4,11.6-2,17.5c0.4,5.8,2.2,11.6,5.3,16.4c3.1,4.9,7.7,8.7,12.8,11.4
					c5.1,2.7,10.7,4.4,16.4,5.6l-0.4,0c7.3-0.5,14.5-0.1,21.6,1.4c7.1,1.5,14.1,4.1,20,8.7c5.9,4.5,10.2,11.1,12.1,18.3
					c1.9,6.7,4.3,13.4,7,19.9c5.4,13,11.5,25.9,17.8,38.6c6.3,12.7,12.8,25.3,19.5,37.9c-7.4-12.1-14.5-24.4-21.2-37
					c-6.7-12.6-13.2-25.2-18.7-38.4c-2.7-6.6-5.3-13.3-7.3-20.2c-1.8-6.6-5.7-12.4-11-16.6c-5.3-4.2-11.9-6.8-18.7-8.3
					c-6.8-1.5-13.9-2-20.7-1.6l-0.2,0l-0.2,0c-5.9-1.3-11.7-3.3-17-6.3c-5.3-3-10-7.2-13.1-12.4c-3.2-5.2-4.7-11.3-4.8-17.3
					C196.4,292.6,197.4,286.6,199.5,281z"/>
			</g>
			<g>
				<path class="st4" d="M241,402.7c4.9,8.9,10,17.6,15.4,26.1c5.4,8.5,11,16.9,17.1,25c6.1,8,12.4,15.9,19.3,23.2
					c6.9,7.3,14.4,14,22.6,19.7l-0.4-0.2c4.5,1.2,9.8,0.8,14.6-0.5c2.4-0.9,4.8-1.5,7-2.8c1.1-0.6,2.3-1.1,3.4-1.8l3.1-2.2
					c8.4-6,14.8-14.3,20.7-22.8l4-6.7c1.3-2.2,2.7-4.5,3.8-6.8c2.2-4.7,4.8-9.3,6.6-14.2l3-7.3c1-2.4,2-4.8,2.8-7.3l6.3-13.3
					l-5.5,13.6c-0.7,2.5-1.6,5-2.5,7.5l-2.7,7.4c-1.7,5-4.2,9.7-6.3,14.5c-1,2.4-2.3,4.7-3.6,7l-3.9,6.9
					c-5.7,8.9-12.5,17.4-21.1,23.8l-3.3,2.3c-1.2,0.7-2.4,1.3-3.6,1.9c-2.3,1.4-5,2.2-7.5,3.1c-5.3,1.4-10.8,2.1-16.5,0.5l-0.2,0
					l-0.2-0.1c-8.4-5.9-15.9-12.9-22.9-20.4c-6.9-7.5-13.2-15.5-19.1-23.8c-5.9-8.3-11.3-16.9-16.5-25.6
					C250.1,420.8,245.3,411.9,241,402.7z"/>
			</g>
			<g>
				<path class="st4" d="M324.9,448.4c3.8-3.9,7.4-7.9,11-11.9c3.6-4,7.2-8,10.6-12.2c3.5-4.1,6.9-8.3,10.2-12.5l10-12.8
					c-2.3,4.9-4.9,9.7-8,14.3c-2.9,4.6-6.3,8.9-9.8,13.1C341.9,434.7,334.1,442.5,324.9,448.4z"/>
			</g>
			<g>
				<path class="st4" d="M403.6,364c-5.3-1.5-10-4.6-14-8.5c-2-1.9-3.7-4.2-5.3-6.4c-1.6-2.2-2.8-5.1-4-7c-0.6-1-1.5-1.8-2-2
					c-0.2,0-0.4,0-0.7,0.1c-0.3,0.2-0.7,0.5-1,1c-1.4,1.8-2.1,4.4-2.7,6.9c-0.5,2.5-0.8,5.2-0.7,7.8c0.1,2.6,0.5,5.3,2.2,7.5
					c-2.3-1.7-3.2-4.6-3.8-7.3c-0.5-2.8-0.6-5.6-0.2-8.4c0.4-2.8,1-5.6,2.7-8.3c0.4-0.7,1.1-1.3,1.8-1.9c0.8-0.5,2-0.8,3.1-0.6
					c2.1,0.6,3.1,2.1,3.9,3.3c1.6,2.7,2.5,4.9,3.9,7.1c1.4,2.2,2.9,4.4,4.6,6.4C394.9,357.7,398.9,361.3,403.6,364z"/>
			</g>
			<g>
				<path class="st4" d="M412.1,365.1c-4.9-0.5-9.8-0.9-14.7-1.3c-4.9-0.3-9.8-0.5-14.6-0.4c-4.8,0.2-9.8,0.6-13.6,2.6
					c-0.9,0.5-1.6,1.2-2.1,1.9c-0.4,0.6-0.5,1.8-0.6,2.9c-0.1,1.1,0,2.2,0.4,2.9c0.4,0.7,0.8,1,1.8,1.1l0.5,0l0.4,0.3
					c1.1,1,2.9,1.9,4.5,2.6c1.7,0.7,3.5,1.2,5.4,1.6c3.7,0.8,7.6,1.2,11.4,1.3c-1.9,0.3-3.9,0.5-5.8,0.5c-1.9,0-3.9,0.1-5.9-0.2
					c-2-0.2-3.9-0.6-5.9-1.2c-2-0.6-3.8-1.2-5.7-2.7l0.9,0.4c-1.5,0.1-3.5-0.9-4.2-2.5c-0.8-1.5-0.9-3-0.9-4.3
					c0.1-1.3,0.1-2.7,1-4.3c0.8-1.4,2-2.4,3.2-3.2c2.5-1.4,5.1-2,7.6-2.4c2.5-0.4,5.1-0.5,7.6-0.5c5,0,10,0.6,14.9,1.4
					C402.6,362.6,407.4,363.7,412.1,365.1z"/>
			</g>
			<g>
				<path class="st4" d="M366.8,375.7c-2,2.5-3.3,5.7-1.9,7.8c0.6,1,1.7,1.9,3,2.9c1.2,0.9,2.4,1.7,3.8,2.4c2.6,1.4,5.6,2.2,8.6,3
					c3,0.8,6.1,1.5,9.2,2.5c-3.2,0.3-6.5,0.3-9.7-0.1c-3.2-0.3-6.5-1.1-9.6-2.6c-1.5-0.8-2.9-1.8-4.2-2.9c-1.2-1.1-2.6-2.3-3.3-4.2
					c-0.8-1.9-0.4-4,0.6-5.5C364,377.6,365.3,376.5,366.8,375.7z"/>
			</g>
			<g>
				<path class="st4" d="M368.7,389.1c-2.7,1.5-3.7,4.8-2.3,7.1c1.3,2.5,3.6,4.4,6,6c5,3.1,10.6,5.3,16.4,7.3c2.9,1,5.9,1.8,8.9,2.3
					c1.5,0.3,3,0.4,4.5,0.7c1.4,0.1,2.9-0.1,4.3-0.7c2.7-1,4.9-3.1,5.9-5.8c1.1-2.6,1.2-5.5,1.2-8.4l0-0.1l0-0.1
					c0.4-3.9,1.1-7.6,2.1-11.4c1-3.7,2.2-7.3,3.7-10.9l-0.1,0.7c-0.1-1.6-0.4-3.5-1-5.1c-0.6-1.6-1.4-3.2-2.5-4.4
					c-1.1-1.3-2.7-2.1-4.4-2.3c-1.7-0.4-3.6-0.1-5.5,0.2l-0.1-0.3c1.8-0.7,3.7-1.3,5.7-1.3c2,0,4.1,0.7,5.7,2.1
					c1.6,1.3,2.8,3.2,3.6,5c0.8,1.9,1.3,3.8,1.6,5.9l0,0.3l-0.1,0.4c-1.2,3.5-2.3,7.1-3.3,10.6c-1,3.6-1.9,7.2-2.4,10.8l0-0.2
					c0,3.2-0.5,6.5-2.1,9.5c-1.5,3-4.5,5.3-7.6,6c-1.6,0.4-3.1,0.6-4.8,0.5c-1.5-0.3-3-0.5-4.6-0.7c-3-0.5-6.1-0.9-9.2-1.5
					c-3.1-0.6-6.1-1.3-9.1-2.4c-2.9-1.1-5.8-2.6-8.4-4.5c-2.6-1.9-5-4.3-6.2-7.5c-0.3-0.8-0.5-1.7-0.5-2.6c0-0.9,0.3-1.7,0.7-2.5
					c0.8-1.5,2.2-2.6,3.7-3.1L368.7,389.1z"/>
			</g>
		</g>
	</g>
	<g>
		<g>
			<path class="st0" d="M123.2,381.3l-2.5-37.1l-52.3,9.2c0,0-21.1,32.4-30.1,51.1s-24.3,53.8-24.3,53.8s-10.7,20.4,26.6,55.8
				l36.1,36.6c0,0,21.3,8.6,28.6,15.8c7.3,7.2,23,14.4,21.3-7.1c0,0,15.1,4.4,9-14.2c0,0,13.5,1.8,10.9-11.4c0,0-1.5-8.1-10.9-11.8
				c0,0,20.5,7.7,17.5-9.9c0,0-15.9-20.2-35.1-4.4c0,0-16.3-0.7-40.1-29l-10.6-13.1c0,0,5-22.8,26.6-48.3
				C115.5,391.9,118.1,385,123.2,381.3z"/>
		</g>
		<g>
			<path class="st1" d="M108.8,344.7c0,0-4.4,8.6-22.8,29.9c0,0-13.1-4.1-53.8,72c0,0-28.8,30.8,50.1,99.1c0,0,40.1,33.4,44.5,15.9
				c0,0,1.3,17-12,11.2S103,564,103,564s-17.8-10.4-23.2-11.1s-36.1-34.4-37-37.6c0,0-35.3-27.9-29.6-55.1s55.1-108.3,55.1-108.3
				s6.3-16.5,45.3-20.9L108.8,344.7z"/>
		</g>
		<g>
			<path class="st4" d="M122.1,381.9l-15.1,20.2c-5,6.8-10,13.5-14.8,20.3c-4.9,6.8-9.5,13.8-14,20.8l-3.2,5.4l-2.9,5.5
				c-1,1.8-1.8,3.8-2.7,5.7c-0.8,1.9-1.4,3.9-2.1,5.9c1.2-8.4,4.9-16.3,8.8-23.7c4-7.4,8.6-14.6,13.5-21.4c4.9-6.8,10-13.6,15.5-20
				C110.6,394.2,116.1,387.8,122.1,381.9z"/>
		</g>
		<g>
			<g>
				<path class="st4" d="M124.8,523.3c3-1.4,6.5-1.6,9.8-1.7c3.3-0.1,6.7,0.4,10,0.7c0.8,0,1.6,0.2,2.3,0.1l1.1-0.1l1-0.3
					c1.3-0.5,2.2-1.6,2.6-3c0.8-2.8,0.1-6.2-0.8-9l0.3,0.5c-2.3-1.8-5.1-3.4-7.8-4.7c-1.4-0.7-2.8-1.3-4.2-1.8
					c-1.5-0.6-2.9-1-4.2-1.2c-5.6-0.8-11.5,2.4-15.9,6.2l-0.4,0.3l-0.4,0c-1.4,0.1-2.3,0-3.3-0.2c-1-0.1-1.9-0.4-2.9-0.7
					c-1.8-0.6-3.6-1.4-5.3-2.3c-1.7-0.8-3.2-1.9-4.9-2.9l-4.5-3.3c-5.9-4.6-11.1-9.9-16.1-15.3c-4.8-5.6-9.4-11.3-13.8-17.3
					c-4.3-6-8.3-12.1-12.2-18.3c2.3,2.9,4.5,5.8,6.7,8.7c2.2,2.9,4.6,5.7,6.8,8.6c4.6,5.7,9.4,11.2,14.4,16.5
					c5.1,5.2,10.2,10.4,16,14.7l4.4,3.1c1.5,0.9,3,1.9,4.6,2.7c1.6,0.8,3.2,1.5,4.8,2c1.5,0.6,3.5,0.9,4.6,0.8l-0.8,0.4
					c2.6-2.2,5.3-3.9,8.4-5.2c3.1-1.3,6.5-2,10-1.5c1.8,0.3,3.3,0.9,4.8,1.5c1.5,0.6,3,1.3,4.4,2c2.9,1.5,5.6,3.2,8.1,5.4l0.3,0.2
					l0.1,0.3c0.9,3.4,1.6,6.9,0.5,10.5c-0.6,1.8-2.1,3.4-3.9,4l-1.4,0.4l-1.3,0.1c-0.9,0.1-1.7-0.1-2.6-0.2
					c-3.3-0.6-6.5-1.3-9.8-1.4C131.3,522.3,128,522.3,124.8,523.3z"/>
			</g>
			<g>
				<path class="st4" d="M135.6,522.1c2.9,0.7,5.7,2.1,8.1,4.1c2.3,2,4.3,5.1,4.3,8.6c0,0.9,0,1.7-0.2,2.5c-0.1,0.9-0.4,1.6-0.6,2.3
					c-0.5,1.5-1.2,3-2.3,4.4c-1.1,1.3-2.6,2.5-4.4,3c-1.8,0.5-3.6,0.4-5.4-0.3l-0.3-0.1l-0.2-0.3c-0.8-1-1.8-2.1-2.8-3.1
					c-1-1-2.1-1.9-3.2-2.7c-1.2-0.8-2.4-1.4-3.7-1.9c-1.3-0.4-2.8-0.5-4.3-0.4c2.8-1.2,6.2-0.8,9,0.6c1.4,0.6,2.7,1.5,3.9,2.5
					c1.2,1,2.3,2,3.4,3.2l-0.6-0.4c2.2,0.6,4.7,0,6.1-2c1.6-1.9,2.6-4.8,2.8-7.2c0.2-2.5-1-5-2.7-7.2
					C140.5,525.4,138.2,523.6,135.6,522.1z"/>
			</g>
			<g>
				<path class="st4" d="M130.8,540.7c3.3,2.1,6.3,5.2,7.6,9.3c0.7,2.1,0.6,4.5-0.2,6.6c-0.9,2-2.2,4-4.6,5.1c-2.5,1-5,0.2-6.9-0.6
					c-1.9-0.9-3.6-2-5.2-3.1c-3.2-2.2-6.2-4.6-10.1-5.3c4-0.7,8,1.4,11.4,3.1c1.7,0.9,3.4,1.9,5.1,2.5c1.7,0.7,3.3,1,4.5,0.4
					c1.2-0.4,2.3-1.9,3-3.3c0.7-1.4,0.9-3.1,0.6-4.8C135.3,547.1,133.2,543.8,130.8,540.7z"/>
			</g>
			<g>
				<path class="st4" d="M124.3,558.3c0,0,0-0.1,0-0.2c0-0.2,0.2-0.2,0.3-0.2c0.1,0,0.2,0.1,0.2,0.1c0.1,0.1,0.2,0.2,0.3,0.2
					c0.2,0.2,0.3,0.3,0.4,0.5c0.3,0.4,0.5,0.7,0.7,1.1c0.4,0.8,0.6,1.6,0.8,2.5c0.3,1.7,0.1,3.5-0.4,5.2c-0.5,1.7-1.3,3.2-2.3,4.7
					c-0.9,1.5-2.7,2.8-4.7,2.8c-3.8,0-6.9-2-9.8-3.8c-2.8-2-5.4-4.2-7.9-6.6l0.2,0.1c-5.1-3.2-10.4-6.3-15.9-8.7
					c-1.4-0.6-2.8-1.2-4.2-1.7c-0.7-0.3-1.4-0.5-2.1-0.7c-0.3-0.1-0.8-0.3-1.2-0.4c-0.4-0.2-0.8-0.4-1.2-0.6
					c-2.8-1.7-5.2-3.7-7.5-5.7c-9.1-8.3-17.4-17.4-25.4-26.7c-8-9.3-15.6-18.9-23-28.7c-3.8-4.7-7.2-10.2-8.5-16.3
					c-1.4-6.1-1.1-12.5,0.7-18.5c9-22.9,19-45.3,30.4-67c5.7-10.9,11.8-21.6,18.9-31.7c3.5-5.1,7.3-10,11.6-14.6
					c2.1-2.3,4.5-4.4,7.1-6.3c2.6-1.8,5.5-3.5,9-3.9l0.1,0l0.1,0c6.5,0.1,13.2-0.7,19.5-2.5c6.3-1.8,12.4-4.7,17-9.2
					c2.3-2.3,4.3-4.9,5.7-7.8c1.5-2.9,2.3-6.1,2.8-9.4c0.9-6.5,0.2-13.3-1.4-19.8l0.3-0.1c1.9,6.4,3,13.2,2.3,20
					c-0.6,6.8-3.5,13.5-8.4,18.4c-4.8,5-11.2,8.3-17.7,10.3c-6.6,2-13.3,3-20.3,3l0.2,0c-2.7,0.4-5.2,1.9-7.5,3.6
					c-2.3,1.8-4.5,3.8-6.5,6c-4.1,4.4-7.7,9.2-11.2,14.2c-6.8,10-12.9,20.6-18.8,31.3C41.1,402.1,35.6,413,30.3,424
					C25,435,19.6,446.1,15,457.3c-2,5.7-2.3,11.9-1,17.8c0.7,2.9,1.7,5.8,3.1,8.4c1.4,2.7,3.4,5,5.2,7.4
					c7.5,9.7,15.6,18.9,23.8,27.9c8.3,8.9,16.6,17.9,25.6,26.1c2.2,2,4.6,4,7,5.5c0.7,0.4,1.1,0.6,1.8,0.8c0.7,0.3,1.5,0.5,2.2,0.8
					c1.5,0.5,2.9,1.1,4.3,1.8c5.7,2.6,11,5.7,16.1,9.3l0.1,0.1l0.1,0.1c2.2,2.4,4.7,4.6,7.4,6.6c2.6,1.9,5.6,3.8,8.6,3.8
					c1.5,0,2.8-0.7,3.7-2c1-1.3,1.8-2.7,2.4-4.3c0.6-1.5,0.8-3.2,0.6-4.8c-0.1-0.8-0.3-1.6-0.6-2.4c-0.2-0.4-0.3-0.7-0.5-1.1
					c-0.1-0.2-0.2-0.3-0.4-0.5c-0.1-0.2-0.4-0.2-0.1-0.4L124.3,558.3z"/>
			</g>
		</g>
	</g>
</g>
</svg>
