<?xml version="1.0" encoding="utf-8"?>
<!-- Generator: Adobe Illustrator 21.0.2, SVG Export Plug-In . SVG Version: 6.00 Build 0)  -->
<svg version="1.1" id="Capa_6" xmlns="http://www.w3.org/2000/svg" xmlns:xlink="http://www.w3.org/1999/xlink" x="0px" y="0px"
	 viewBox="0 0 342.5 877.9" style="enable-background:new 0 0 342.5 877.9;" xml:space="preserve">
<style type="text/css">
	.st0{fill:#F8B454;}
	.st1{fill:#DD9239;}
	.st2{fill:#BF8D36;}
	.st3{fill:#A16F2A;}
	.st4{fill:#1C1C1B;}
	.st5{fill:#FFFFFF;}
	.st6{fill:#8F8F90;}
	.st7{fill:#EBE221;}
	.st8{fill:#EBC518;}
	.st9{fill:#0A567D;}
	.st10{fill:#293766;}
</style>
<g>
	<g>
		<path class="st0" d="M108.7,666.9c0,0,33.1-4.5,52.9,3.9l-1.8,47.3l-2.1,82.1l2.5,50.8c0,0,0.5,11-12.4,13.6s-51.9,22.5-82.5,6.4
			c0,0-11-37.6,26.2-43.1c0,0,16.8-4.5,16.6-27.7S108.7,666.9,108.7,666.9z"/>
		<path class="st1" d="M108.7,666.9v8.2c0,0,9.2,3.3,32.1,6.9c4.8,0.8,8.2,5,7.9,9.9c-1.3,19.7-4.4,67.9-3.6,87.7
			c1,25.2,2.4,49.4,2.4,59.3S64,863.7,64,863.7l1.3,7.5c0,0,29.8,17.7,90-9.7c0,0,8.1-3.4,4.3-18.9l-0.5-86.9c0,0,1-76.6,2.6-84.8
			C161.6,670.8,134.3,661.4,108.7,666.9z"/>
		<path class="st2" d="M108.7,800.3c0,0,24.5,9.6,49.9,0l-0.4,9.7c0,0-32.7,6.6-50.9-1.4L108.7,800.3z"/>
		<path class="st2" d="M99.8,823c0,0,31.2-0.8,32.2,39.2c0,0,19.2-5.4,28.2-11c0,0,1.5,6.7-5.9,11s-68.6,24.3-89,9v-6.3
			c0,0,30.2,8.9,57.3,0.6C122.6,865.4,124.8,835.4,99.8,823z"/>
		<path class="st3" d="M146,803.7v8.9l12.2-2.6l0.5-10.9C158.7,799.1,159.1,802.4,146,803.7z"/>
		<path class="st3" d="M121,851.1c0,0,7.4-0.5,9.7-2.9c0,0,1.5,9,1.4,15.4l28.1-12.5c0,0,1.5,10.4-9.7,12.5c0,0-54.6,24-85.2,7.6
			v-6.3c0,0,29.1,8.9,57.3,0.6C122.6,865.4,122.4,856.5,121,851.1z"/>
		<g>
			<g>
				<path class="st4" d="M161.8,670l-1.2,71.6c-0.3,23.9-0.5,47.7-0.6,71.5c0.1,11.9,0.1,23.8,0.8,35.7c0,1.5,0.2,3,0,4.6
					c-0.2,1.6-0.7,3.1-1.5,4.4c-1.5,2.8-4.2,4.8-7.1,5.7c-5.6,2.2-11.2,4.2-16.9,6c-11.4,3.6-23.1,6.5-35,7.7c-6,0.5-12,0.8-18.1,0
					c-6-0.8-12-2.3-17.5-5.2l-0.4-0.2l-0.1-0.5c-1.3-4.6-1.9-9.2-1.9-13.8c0-4.7,0.7-9.4,2.5-13.9c1.7-4.5,5-8.4,9-11.1
					c3.9-2.9,8.6-4.2,13.2-5.4l0,0l0.2,0c6.5-0.7,12.8-4.8,15.9-10.7c1.6-2.9,2.7-6.2,3-9.6c0.3-1.7,0.3-3.4,0.3-5.2
					c0.1-1.7,0-3.6,0-5.4c-0.2-14.4-0.1-28.8,0.1-43.2l0.8-43.2c0.3-14.4,0.8-28.8,1.3-43.2l0.3,0c0.1,14.4,0.3,28.8,0.3,43.2
					l0.2,43.2c0.2,14.4,0.1,28.8,0.3,43.2c0.2,7.1,0.2,15.1-3.7,21.9c-3.7,6.9-10.9,11.5-18.7,12.2l0.2,0c-4.2,1-8.5,2.1-12,4.7
					c-3.5,2.4-6.4,5.7-8,9.7c-1.7,4-2.4,8.3-2.5,12.7c-0.1,4.4,0.4,8.9,1.5,13.1l-0.6-0.7c5.1,2.8,10.7,4.4,16.5,5.3
					c5.8,0.9,11.8,0.7,17.7,0.4c5.9-0.5,11.8-1.4,17.6-2.5c5.8-1.3,11.6-2.8,17.2-4.6c5.7-1.8,11.3-3.8,16.8-6
					c2.8-1,5.1-2.8,6.5-5.3c0.7-1.2,1.1-2.6,1.3-4c0.2-1.4,0-2.8-0.1-4.3c-0.9-11.9-1.4-23.9-1.8-35.8c-0.7-23.9-0.3-47.8,0.3-71.6
					c0.6-23.9,1.8-47.7,3.5-71.5L161.8,670z"/>
			</g>
			<g>
				<path class="st4" d="M64,864.4c8.1,2,16.4,3,24.6,3.3c8.2,0.2,16.5-0.1,24.6-1.4c2.1-0.2,4-0.7,6.1-1.1c2-0.4,4-0.7,6-1.3l6-1.5
					l5.9-1.9c7.9-2.4,15.4-5.9,23-9.4c-3.5,2.2-7.1,4.5-10.7,6.5c-3.8,1.8-7.5,3.8-11.5,5.2c-7.8,3.3-16.1,5.2-24.4,6.6
					c-8.3,1.3-16.9,1.5-25.2,0.7c-4.2-0.4-8.4-1.1-12.5-1.9C71.9,867.2,67.8,866.1,64,864.4z"/>
			</g>
			<g>
				<path class="st4" d="M107.5,808.6c4.2,1.2,8.5,1.7,12.7,2.2c4.2,0.4,8.5,0.6,12.8,0.6c4.3,0,8.5-0.2,12.8-0.5l13-1.1
					c-2,0.8-4.1,1.4-6.2,2.1c-2.1,0.5-4.2,1.1-6.4,1.5c-4.3,0.8-8.7,1.2-13.1,1.2c-4.4-0.1-8.8-0.4-13.2-1.4
					C115.5,812.4,111.2,811,107.5,808.6z"/>
			</g>
			<g>
				<path class="st4" d="M108,800.3c4.3,1,8.5,1.7,12.7,2.3c4.2,0.6,8.5,1,12.7,1.1c4.2,0.2,8.4-0.1,12.6-0.6
					c4.2-0.5,8.3-1.6,12.5-2.8c-3.7,2.3-7.7,4.3-12.1,5.3c-4.3,1-8.8,1.5-13.2,1.4C124.5,806.6,115.7,804.5,108,800.3z"/>
			</g>
			<g>
				<path class="st4" d="M132,863.6c-0.2-2.3-0.3-4.6-0.5-6.8c-0.4-2.2-0.6-4.5-1.3-6.6c-0.9-4.4-2.9-8.5-5.4-12
					c-5-7.2-13.2-11.7-21.7-13.2c-0.5-0.1-1.1-0.2-1.6-0.3l-0.8-0.1c-0.1-0.1-0.5,0.1,0.4-0.1c0.6-0.3,0.9-0.9,0.8-1.5
					c-0.1-0.3-0.3-0.6-0.6-0.8c0,0-0.1-0.1-0.2-0.1l0.1,0l0.1,0l0.4,0.2l0.8,0.4c0.5,0.3,1.1,0.6,1.6,0.9c2.1,1.2,4,2.6,5.7,4.2
					c3.5,3.2,6.4,7,8.5,11.3c2.1,4.2,3.3,8.7,4.1,13.3c0.7,4.6,0.6,9.2,0.3,13.7c-0.5-9.1-2.2-18.1-6.6-25.9
					c-2.2-3.8-4.9-7.3-8.3-10.1c-1.7-1.4-3.4-2.7-5.3-3.8c-0.5-0.3-1-0.5-1.4-0.8l-0.7-0.3l-0.4-0.2l-0.4-0.2
					c-0.4-0.2-0.7-0.7-0.8-1.1c-0.2-0.9,0.2-1.8,1.1-2.2c0.4-0.2,1.1-0.1,1-0.1l0.2,0l0.9,0.1c0.6,0.1,1.2,0.2,1.8,0.3
					c4.7,0.9,9.2,2.5,13.2,5c4,2.5,7.6,5.9,10,10C132.1,844.9,133,854.6,132,863.6z"/>
			</g>
		</g>
	</g>
	<g>
		<g>
			<path class="st0" d="M183.1,675.1c0,0,4.5,142.9,1.8,169.4c0,0-6.3,17,11.4,20c0,0,52.8,22.7,83.1,6.6c0,0,12.5-39.6-26.8-43.3
				c0,0-17.9-5-15.9-28.9s-0.5-116.5-0.5-116.5S197.9,684.8,183.1,675.1z"/>
		</g>
		<g>
			<path class="st1" d="M183.1,677.8l0.5,13.5c0,0,13.5,5.8,26.9,7.8c6.2,0.9,10.9,6,11.2,12.2c0.4,8.1,0.8,21.3,1.2,42.6
				c0.7,45.5-5.6,73.8,14.9,82.8c20.5,9,24.9-2.2,42,30.3c0,0,9.8-34.5-27.3-39.1c0,0-19.9-5.2-16-41.5l-0.3-103.9
				C236.2,682.4,213.5,687.1,183.1,677.8z"/>
		</g>
		<g>
			<path class="st2" d="M236.2,809.3v-8.6c-26.4,10.7-50.2-0.4-50.2-0.4l0.6,9.6C186.6,809.9,212,817.4,236.2,809.3z"/>
		</g>
		<g>
			<path class="st2" d="M221.5,863.9c0,0,0.1-35.3,23.9-40c0,0-32.4-2.6-33.2,37.1c0,0-18.8-4.4-27.6-12.1c0,0-2.7,11.8,10,15.1
				c0,0,29.5,12.6,52.3,12.9c0,0,30.3,0.2,32.8-7.1l0.1-2.7C279.8,867,248.6,872.7,221.5,863.9z"/>
		</g>
		<g>
			<path class="st3" d="M222.7,802.8c0,0,0.2,7,0.7,10.3l12.8-3.8v-8.6C236.2,800.7,229.8,803.4,222.7,802.8z"/>
		</g>
		<g>
			<g>
				<path class="st2" d="M183.1,673.1l1.7,33.9c0,0,35.5-1.5,52,2l-0.5-27.2C236.2,681.8,196.2,683.7,183.1,673.1z"/>
			</g>
			<g>
				<path class="st3" d="M183.2,678.2c0,0,16.9,6.2,31.3,9c3,0.6,5.2,3.1,5.3,6.1l0.7,13c0,0,15.5,2.3,16.3,3.2l-0.5-27.8
					c0,0-37.3,2.3-53.2-8.7L183.2,678.2z"/>
			</g>
		</g>
		<g>
			<path class="st3" d="M227.3,827.1c0,0,1.1,5.7,4.8,6.1l9-8.4C241.2,824.8,236.2,822.5,227.3,827.1z"/>
		</g>
		<g>
			<path class="st4" d="M236.2,709c-4.4-0.5-8.7-0.9-13-1.2c-4.3-0.2-8.7-0.5-13.1-0.6c-8.7-0.3-17.4-0.2-26.2-0.2
				c4.3-0.7,8.7-1,13.1-1.2c4.4-0.2,8.8-0.2,13.1-0.2C218.9,706,227.8,706.7,236.2,709z"/>
		</g>
		<g>
			<g>
				<path class="st4" d="M183.2,677.5c1.7,23.2,2.9,46.4,3.5,69.6c0.7,23.2,1,46.5,0.2,69.8c-0.3,11.6-1.1,23.3-1.9,34.8
					c-0.1,2.8,0.9,5.5,2.8,7.6c0.9,1,2,1.9,3.3,2.5c1.2,0.6,2.7,1.1,4,1.7c5.4,2.2,10.9,4,16.4,5.7c11.1,3.4,22.5,5.8,34,6.6
					c5.8,0.3,11.5,0.3,17.2-0.5c5.6-0.9,11.1-2.5,16.1-5.2l-0.6,0.7c1.1-4.2,1.6-8.7,1.5-13.1c-0.1-4.4-0.8-8.8-2.5-12.7
					c-1.6-4-4.5-7.3-8-9.7c-3.4-2.6-7.7-3.7-11.9-4.7l0.2,0c-7.2-0.7-13.7-4.6-17.7-10.5c-3.8-6-5-13.1-4.8-19.8
					c0.2-6.5,0.2-13.1,0.3-19.6l0.2-19.6l0.2-39.3c0-13.1,0.2-26.2,0.3-39.3l0.3,0c0.5,13.1,1,26.2,1.2,39.3l0.7,39.3
					c0.2,13.1,0.3,26.2,0,39.4c-0.2,6.3,1,12.7,4.3,17.8c3.4,5,9.2,8.4,15,9l0.2,0l0,0c4.6,1.1,9.3,2.4,13.2,5.4
					c3.9,2.7,7.2,6.6,9,11.1c1.8,4.4,2.6,9.2,2.6,13.9c0,4.7-0.6,9.3-2,13.9l-0.1,0.5l-0.5,0.2c-5.4,2.8-11.2,4.3-17,5.1
					c-5.9,0.7-11.8,0.6-17.6,0.1c-11.7-1.2-23.1-3.9-34.2-7.3c-5.6-1.7-11-3.7-16.5-5.8c-1.4-0.6-2.7-1-4.1-1.6
					c-1.4-0.7-2.6-1.6-3.6-2.7c-2-2.3-3.2-5.3-3.2-8.4c0.6-11.7,0.9-23.2,0.9-34.8c0-23.2-0.2-46.4-0.5-69.7l-1.3-69.7L183.2,677.5z
					"/>
			</g>
			<g>
				<path class="st4" d="M184.6,848.8c3.5,2.2,7.2,4.2,11,5.9c3.8,1.7,7.5,3.4,11.5,4.6c7.8,2.7,15.8,4.7,23.9,6.1
					c4.1,0.6,8.1,1.3,12.2,1.5c2,0.2,4.1,0.4,6.2,0.5c2.1,0,4.1,0.1,6.2,0.2c8.3,0.3,16.5-0.3,24.9-0.8c-4.1,0.9-8.2,1.7-12.3,2.3
					l-6.2,0.6l-3.1,0.3l-3.1,0.1c-8.4,0.5-16.8-0.4-25.1-1.6c-8.3-1.5-16.5-3.7-24.2-7C198.4,858.4,190.9,854.3,184.6,848.8z"/>
			</g>
			<g>
				<path class="st4" d="M237.8,808.6c-3.7,2.4-8,3.8-12.3,4.7c-4.3,1-8.7,1.3-13.2,1.4c-4.4,0-8.8-0.4-13.1-1.2
					c-2.2-0.4-4.3-1-6.4-1.5c-2.1-0.7-4.2-1.3-6.2-2.1l13,1.1c4.3,0.3,8.5,0.5,12.8,0.5c4.3,0,8.5-0.2,12.8-0.6
					C229.3,810.4,233.6,809.8,237.8,808.6z"/>
			</g>
			<g>
				<path class="st4" d="M237.3,800.3c-7.7,4.2-16.5,6.3-25.3,6.6c-4.4,0.2-8.9-0.3-13.2-1.4c-4.3-1-8.4-2.9-12.1-5.3
					c4.2,1.2,8.3,2.3,12.5,2.8c4.2,0.5,8.4,0.8,12.6,0.6c4.2-0.1,8.5-0.5,12.7-1.1C228.8,802,233,801.3,237.3,800.3z"/>
			</g>
			<g>
				<path class="st4" d="M212.3,863.6c-1-9,0-18.7,5.1-26.8c2.5-4.1,6-7.4,10-10c4.1-2.5,8.6-4.2,13.2-5c0.6-0.1,1.2-0.2,1.8-0.3
					l0.9-0.1l0.2,0c-0.1,0,0.6-0.1,1,0.1c0.9,0.4,1.3,1.3,1.1,2.2c-0.1,0.5-0.4,0.9-0.8,1.1l-0.4,0.2l-0.4,0.2l-0.7,0.3
					c-0.5,0.3-1,0.5-1.4,0.8c-1.9,1.1-3.6,2.4-5.3,3.8c-3.3,2.8-6.1,6.3-8.3,10.1c-4.4,7.7-6.1,16.8-6.6,25.9
					c-0.3-4.5-0.4-9.2,0.3-13.7c0.7-4.6,2-9.1,4.1-13.3c2-4.2,5-8.1,8.5-11.3c1.8-1.6,3.7-3,5.7-4.2c0.5-0.3,1-0.6,1.6-0.9l0.8-0.4
					l0.4-0.2l0.1,0l0.1,0c0,0-0.1,0.1-0.2,0.1c-0.3,0.1-0.5,0.5-0.6,0.8c-0.1,0.6,0.1,1.2,0.8,1.5c0.9,0.2,0.5,0.1,0.4,0.1l-0.8,0.1
					c-0.5,0.1-1.1,0.2-1.6,0.3c-8.6,1.5-16.7,6-21.7,13.2c-2.5,3.6-4.4,7.7-5.4,12c-0.7,2.1-0.9,4.4-1.3,6.6
					C212.5,859,212.5,861.3,212.3,863.6z"/>
			</g>
		</g>
	</g>
	<g>
		<g>
			<g>
				<path class="st0" d="M102.1,376.7c0,0,54.6,41.3,142.5,2c0,0-8.4,69.5-5.9,120c0,0-1.2,45,1.5,60c0,0-41.4,14.2-133,3.7
					C107.2,562.5,116.9,479,102.1,376.7z"/>
				<path class="st1" d="M245.2,377.4c0,0-9.6,124.1-5.2,182.2c0,0-49.9,10.4-74.3,7c0,0,54.2,3.1,46.6-28.9s-1.2-133.2-1.2-133.2
					S214.9,389.5,245.2,377.4z"/>
				<g>
					<g>
						<path class="st4" d="M107,562.5c0.9-7.1,1.1-14,1.5-21.1c0.5-7.1,0.8-14.3,1-21.4c0.4-14.3,0.4-28.6-0.1-42.9
							c-0.3-14.3-1.2-28.6-2.1-42.9c-1-14.3-2.3-28.5-3.6-42.8c1.3,7.1,2.3,14.2,3.5,21.2c0.9,7.1,1.9,14.2,2.6,21.4
							c0.8,7.1,1.4,14.3,1.8,21.5c0.5,7.2,0.8,14.3,1.1,21.5c0.2,14.4,0.3,28.8-0.6,43.1C111.1,534.4,110.2,548.5,107,562.5z"/>
					</g>
					<g>
						<path class="st4" d="M239.9,559c-1.4-14.4-2.1-28.9-2.5-43.3c-0.4-14.5-0.3-28.9-0.1-43.4c0.5-14.5,1.1-28.9,2.3-43.4
							c1.2-14.4,2.8-29.7,5.4-43.9c-0.3,3.6-0.6,8-0.9,11.6l-0.8,10.8c-0.5,7.2-0.9,14.4-1.3,21.6c-0.7,14.4-1.3,28.8-1.5,43.3
							c-0.5,14.4-0.6,28.9-0.7,43.3c-0.1,7.2-0.1,14.4-0.1,21.7C239.8,544.5,239.9,551.7,239.9,559z"/>
					</g>
				</g>
			</g>
		</g>
		<path class="st0" d="M136.5,285.5c0,0,11.5,43.1-28.9,49.6c0,0-1.8,44.8,1.3,46.4s55.5,44.2,135.1-2.6l-10.4-44.5
			c0,0-41.8-3.1-33.4-52.6l-30.5,14.7L136.5,285.5z"/>
	</g>
	<g>
		<g>
			<path class="st5" d="M106.6,562.8c0,0,96.3,9.9,133.8-4.4c0,0,22.2,44.9,22.7,66.6c0.5,21.7,33.3,40.6,33.3,40.6
				s-57.7,33.2-124.7,8.6S59.5,693.2,59.5,693.2s22.8-27.6,24.8-60.3S106.6,562.8,106.6,562.8z"/>
		</g>
		<g>
			<path class="st6" d="M203.5,566.7c0,0,40.8,28.1,40.6,69.5c0,0,8.7,26,31.9,28.1c0,0-21.1,16.5-69,3.8c0,0-12.7-5.7-11.1-27.9
				c0,0-4.6,17.3-0.1,24.6c0,0-18.5-11.6-58.3-8.4c0,0-3-9.7,0-24.6c0,0-5.4,20.8-5.1,23.5c0,0-41.5,1.5-70.8,35.9
				c0,0,30.5-30.7,76.7-25.6c0,0,28.4,5,41.6,11.2c13.3,6.2,65.3,15.2,116.4-11.3c0,0-26.1-10.2-32.8-36.5c0,0-10.8-53.8-24.3-70.1
				C239.2,559,215.2,566.2,203.5,566.7z"/>
		</g>
		<g>
			<path class="st4" d="M57.4,695.6c6.9-8.4,15.5-14.4,24.8-19.6c9.3-5,19.5-8.4,29.9-10.2c10.5-1.8,21.2-1.5,31.7-0.3l7.8,1.5
				c2.6,0.5,5.2,1,7.7,1.8l15.1,4.6c19.8,6.4,40.7,9.3,61.5,7.9c20.7-1.3,41.6-6.4,60-16.2l0.1,1c-9.5-4.5-18-11.1-24.4-19.5
				c-3.2-4.2-5.7-8.9-7.4-13.9c-1.8-5-2.3-10.3-3.5-15.3c-2.3-10.1-5.7-20-9.3-29.7c-3.7-9.7-7.8-19.3-12.3-28.6l1.8,0.6
				c-5.3,2.7-10.9,4-16.5,5c-5.6,1-11.2,1.6-16.9,2.1c-11.3,0.9-22.5,1.1-33.8,1.1c-11.3,0-22.5-0.4-33.8-1
				c-11.2-0.6-22.5-1.3-33.7-2.3l1.6-0.9c-5.3,10.4-9.8,21.5-13.5,32.7c-3.8,11.2-6.7,22.7-8.7,34.4l-1.6,8.8
				c-0.6,2.9-1.3,5.8-2.1,8.7c-1.6,5.8-3.5,11.5-5.8,17c-2.3,5.5-5,10.9-8.1,16c-1.5,2.6-3.2,5.1-4.9,7.5c-0.9,1.2-1.8,2.4-2.7,3.6
				l-1.4,1.7l-0.7,0.9C58.1,695,58.1,695.4,57.4,695.6z M57.7,695.4c7.1-9.1,12.9-19.9,17.2-30.8c2.2-5.5,3.9-11.2,5.4-16.9
				c0.7-2.9,1.4-5.8,1.9-8.7l1.5-8.8c1.9-11.8,4.6-23.5,8.2-34.9c3.6-11.4,8.2-22.2,13.5-33.1l1.4-1.2l0,0c22.3,1.9,44.8,3,67.2,3.3
				c11.2,0.1,22.4,0,33.6-0.8c5.6-0.4,11.1-1,16.6-1.9c5.4-0.9,10.9-2.1,15.7-4.5l0,0l1.8,0.6c4.4,9.5,8.3,19.2,11.9,29.1
				c3.5,9.8,6.7,19.8,8.9,30.1c1.2,5.1,1.6,10.4,3.2,15.2c1.6,4.9,4,9.5,7.1,13.6c6.2,8.2,14.6,14.9,23.9,19.2l1,0.4l-0.9,0.5
				c-9.3,5.2-19.2,8.8-29.3,11.8c-10.1,3-20.6,4.8-31.1,5.7c-21.1,2-42.5-0.8-62.6-7.3l-15-4.7c-2.5-0.9-5-1.4-7.6-1.8l-7.6-1.5
				c-10.3-1.2-20.7-1.6-31-0.1c-10.3,1.6-20.3,4.7-29.6,9.4c-4.7,2.2-9.1,5-13.4,8c-2.1,1.6-4.2,3.1-6.2,4.8
				C61.3,691.8,59.5,693.9,57.7,695.4z"/>
		</g>
	</g>
	<g>
		<path class="st0" d="M231.4,334.5c0,0,42.9-1.8,52.8,22.6s10.3,12.2,15.3,86.1c5,74,8.3,112.1,15.9,136.4c0,0,9.6,13.7,26.4,24.9
			c0,0,4.3,26-37.3,5c0,0,7.8,23.1-13-5.3c0,0-11.7-30.7-23.3-96.3c-11.6-65.6-27.6-133.2-27.6-133.2S237.6,366.4,231.4,334.5z"/>
		<path class="st1" d="M241.2,380.1c0,0,13.1,2.8,24.2,56.3c0,0,18.4,98.2,25.4,127.8s30.1,49.8,50.5,45.4c0,0-1.3,18.9-34.7,1.1
			c0,0,6.6,19.2-11.2-0.5c0,0-11.1-22.1-16.6-49.9S242,383.8,241.2,380.1z"/>
		<path class="st7" d="M278.3,557.1l3.5,16.9c0,0,15.9-14.7,29.1-11.3l-3.2-18.5C307.7,544.3,294,540.6,278.3,557.1z"/>
		<path class="st2" d="M278.3,557.1c0,0,14-16.3,29.4-12.8l-1-7.5c0,0-11.9-3-30.2,12.9L278.3,557.1z"/>
		<path class="st2" d="M281.8,574l1.9,7.7c0,0,15-14.9,28.1-12.5l-0.9-6.5C310.9,562.8,299.5,558.8,281.8,574z"/>
		<path class="st8" d="M287.4,549.1c0,0,0.5,8.6,4.2,18.7c0,0-3.1,0.4-9.8,6.2l-2.9-16.8C278.9,557.2,285.8,548.8,287.4,549.1z"/>
		<path class="st3" d="M287.4,549.1l-1.6-7.6l-8.7,8.1l1.8,7.4C278.9,557.2,284.1,550.4,287.4,549.1z"/>
		<path class="st3" d="M281.8,574c0,0,4.3-4,9.8-6.2l2.3,6.9c0,0-7.8,3.6-9.9,7L281.8,574z"/>
		<g>
			<g>
				<path class="st4" d="M247.5,403.3c3.1,14.4,6.3,28.8,9.3,43.3l9,43.3l8.8,43.4l8.4,43.4l0-0.1l4.4,14.8
					c1.4,4.9,3.2,9.6,5.7,14.1c2.5,4.4,5.4,8.7,9.4,11.6c1,0.7,2.1,1.2,3.1,1.2c1-0.1,1.8-0.8,1.7-1.9c-0.2-2.2-1.8-4.5-3.3-6.4
					l-1.9-2.4l2.7,1.5c4,2.2,8.1,4.3,12.3,5.9c4.2,1.5,8.7,2.8,13.2,2.5c2.2-0.2,4.4-0.8,6.2-2c1.8-1.2,3.2-3.1,3.9-5.1
					c0.4-1,0.7-2.1,0.8-3.2c0.1-0.5,0.1-1.1,0.1-1.6c0-0.3,0-0.5-0.1-0.7c0-0.1-0.2-0.3-0.3-0.4c-1.6-1.4-3.7-2.6-5.5-3.9
					c-7.6-5-15.1-10.8-20.1-19c-2.1-4.3-3.1-8.8-4.2-13.3c-1.1-4.5-2-9-2.8-13.5c-3.2-18.1-5.5-36.3-6.7-54.7l-3.7-54.8l-1.7-27.4
					c-0.7-9.1-0.9-18.3-2.1-27.3c-1.3-8.9-3.5-17.7-7.4-25.8c-3.8-8-9.4-15.4-16.8-20.4c-7.4-5-16.1-7.9-25.3-7.4
					c-9.2-0.5-18.5-2.5-26.8-6.8c-4.1-2.2-7.9-5.1-11-8.6c-3.1-3.5-5.3-7.7-6.7-12.2c-2.7-9-2-18.4-0.2-27.4l0.3,0.1
					c-1.6,8.9-2,18.4,0.9,27c2.8,8.6,9.4,15.6,17.4,19.6c8,4.1,17.1,5.9,26.1,6.2c9.2-0.7,18.9,2.1,26.7,7.3
					c7.9,5.2,14,12.8,18.2,21.2c4.2,8.4,6.5,17.6,7.9,26.7c1.3,9.2,1.5,18.4,2.2,27.5l1.8,27.4l3.3,54.9c1,18.2,2.9,36.5,5.8,54.5
					c0.7,4.5,1.6,9,2.6,13.4c1.1,4.4,1.9,9,3.9,12.9c4.5,7.7,11.7,13.7,19.3,18.7c1.9,1.3,3.8,2.4,5.7,4.1c0.2,0.2,0.5,0.5,0.6,1
					c0.1,0.4,0.1,0.7,0.1,1c0,0.6,0,1.2-0.1,1.8c-0.2,1.2-0.5,2.3-0.9,3.4c-0.9,2.2-2.3,4.2-4.4,5.6c-2,1.4-4.4,2-6.7,2.1
					c-4.7,0.3-9.3-0.9-13.6-2.4c-4.3-1.6-8.5-3.6-12.5-5.8l0.8-0.9c1.6,2.1,3.3,4.2,3.7,7.1c0.1,0.7-0.1,1.6-0.7,2.3
					c-0.6,0.6-1.3,0.9-2.1,1c-1.6,0.1-2.9-0.6-4-1.3c-4.4-3.1-7.5-7.5-10.2-11.9c-2.6-4.5-4.7-9.4-6.2-14.3l-4.8-14.7l0-0.1l0-0.1
					l-8.8-43.4l-8.4-43.4l-8.2-43.5c-2.8-14.5-8.8-40.6-11.4-55.1L247.5,403.3z"/>
			</g>
			<g>
				<path class="st4" d="M283.8,581.7c1.8-2.1,3.8-4,6-5.7c2.1-1.8,4.5-3.3,7-4.6c2.5-1.3,5.1-2.3,8-2.7c2.8-0.4,5.8-0.2,8.2,1.1
					c-2.7-0.7-5.4-0.5-8,0.1c-2.6,0.6-5.1,1.7-7.5,2.9C292.7,575.3,288.2,578.4,283.8,581.7z"/>
			</g>
			<g>
				<path class="st4" d="M282.8,573.4c1.8-2,3.8-3.7,6-5.3c2.1-1.6,4.5-3,6.9-4.1c2.5-1.1,5-2,7.8-2.3c2.7-0.3,5.5,0,7.9,1.2
					c-5.2-1.2-10.3,0.3-15,2.5C291.6,567.6,287.2,570.5,282.8,573.4z"/>
			</g>
			<g>
				<path class="st4" d="M278.5,557.7c1.4-2.5,3.3-4.7,5.4-6.6c2.1-2,4.4-3.7,7-5c2.6-1.4,5.4-2.2,8.3-2.6c2.9-0.4,5.8,0,8.5,0.8
					c-2.8-0.1-5.6-0.2-8.3,0.4c-2.7,0.6-5.3,1.5-7.7,2.8C286.8,550.1,282.4,553.6,278.5,557.7z"/>
			</g>
			<g>
				<path class="st4" d="M277.1,549.7c1.8-2.3,4-4.3,6.3-6.2c2.3-1.9,4.8-3.5,7.4-4.8c2.7-1.3,5.5-2.4,8.5-2.6
					c3-0.3,6.1,0.1,8.7,1.4c-2.9-0.7-5.7-0.7-8.5-0.2c-2.8,0.5-5.4,1.6-8,2.9c-2.6,1.2-5,2.8-7.4,4.4
					C281.7,546.2,279.4,547.9,277.1,549.7z"/>
			</g>
		</g>
	</g>
	<g>
		<path class="st0" d="M119.3,334.5c0,0-42.9-1.8-52.8,22.6s-10.3,12.2-15.3,86.1s-8.3,112.1-15.9,136.4c0,0-12.2,17.8-25.4,24
			c0.6-0.2-4.2,26.7,36.4,5.9c0,0-7.8,23.1,13-5.3c0,0,11.7-30.7,23.3-96.3s27.6-133.2,27.6-133.2S113.1,366.4,119.3,334.5z"/>
		<path class="st1" d="M109.7,381.8c0.2-0.6-0.5-1.1-1.1-0.7c-3.5,2.4-13.3,12.8-22.2,55.6c0,0-18.4,98.2-25.4,127.8
			c-6.9,29.1-29.3,49-49.4,45.6c-0.5-0.1-1,0.4-0.8,0.9c1.4,3.7,8.2,13.1,34,0c0.6-0.3,0.4,0.6,0.1,1.3c-1.4,4.3-4,12.1,10.7-0.6
			c0,0,11.9-23.3,17.4-51.1C78.4,534.1,104.7,397.9,109.7,381.8z"/>
		<path class="st7" d="M72.4,557.1L68.9,574c0,0-15.9-14.7-29.1-11.3l3.2-18.5C43,544.3,56.7,540.6,72.4,557.1z"/>
		<path class="st2" d="M72.4,557.1c0,0-14-16.3-29.4-12.8l1-7.5c0,0,11.9-3,30.2,12.9L72.4,557.1z"/>
		<path class="st2" d="M68.9,574l-1.9,7.7c0,0-15-14.9-28.1-12.5l0.9-6.5C39.8,562.8,51.2,558.8,68.9,574z"/>
		<path class="st8" d="M63.3,549.1c0,0-0.5,8.6-4.2,18.7c0,0,3.1,0.4,9.8,6.2l3.2-16.5C72,557.5,64.9,548.8,63.3,549.1z"/>
		<path class="st3" d="M63.3,549.1l1.6-7.6l8.7,8.1l-1.5,7.7C72.1,557.4,66.6,550.4,63.3,549.1z"/>
		<path class="st3" d="M69.2,574.4c0,0-4.3-4-9.8-6.2l-2.3,6.9c0,0,8,3.5,10,7L69.2,574.4z"/>
		<g>
			<g>
				<path class="st4" d="M105.6,398.6c-2.6,14.5-6.6,33.5-9.4,48L88,490.1l-8.5,43.4c-3,14.4-5.8,28.3-8.9,42.7l-0.1,0.6l0,0.4
					l-4.8,14.7c-1.3,4.8-3.3,9.7-6,14.2c-2.7,4.4-5.7,8.8-10.2,11.9c-1.1,0.7-2.4,1.4-4,1.3c-0.8-0.1-1.5-0.4-2.1-1
					c-0.6-0.6-0.8-1.5-0.7-2.3c0.4-2.9,2.1-5,3.7-7.1l0.7,0.9c-7.8,4.1-16.1,8.2-25.3,8.3c-2.3,0-4.6-0.5-6.6-1.6
					c-2.1-1.1-3.7-2.9-4.8-4.9c-1-2.1-1.6-4.3-1.6-6.7c0-0.3,0-0.6,0.2-1c0.2-0.4,0.4-0.6,0.6-0.8c0.4-0.4,0.9-0.8,1.4-1.1l2.8-1.9
					c7.4-4.8,14.4-10.4,19.4-17.6c2.5-3.5,3.4-7.8,4.5-12.1c1-4.3,1.9-8.6,2.7-13c3-17.4,4.8-35.1,6.1-52.7l3.2-53.1l3.5-53.1
					c0.7-8.9,2.1-17.9,5.1-26.4c2.9-8.5,7.4-16.7,13.7-23.3c6.3-6.6,14.5-11.3,23.4-13.3c2.2-0.5,4.5-0.8,6.8-0.8
					c2.1-0.1,4.3-0.3,6.5-0.7c4.3-0.8,8.5-2.1,12.3-4.2c7.7-4,13.6-11.2,15.6-19.8c2.2-8.5,1.2-17.6-0.8-26.2l0.3-0.1
					c2.2,8.6,3.5,17.7,1.5,26.5c-0.9,4.4-2.8,8.7-5.6,12.3c-2.7,3.6-6.4,6.6-10.3,8.7c-4,2.2-8.3,3.6-12.7,4.5
					c-2.2,0.4-4.5,0.8-6.8,0.9c-2.1,0-4.3,0.4-6.4,0.9c-8.4,2-16.2,6.6-22,13c-5.9,6.3-10,14.2-12.7,22.5c-2.7,8.3-4.1,17-4.8,25.7
					l-3.4,53.1l-3.6,53.1c-1.4,17.8-3.7,35.4-7,52.9c-0.9,4.4-1.8,8.7-2.9,13c-1.1,4.2-2.2,8.8-5,12.6c-5.3,7.4-12.6,12.9-20.1,17.6
					l-2.7,1.8c-0.4,0.3-0.9,0.6-1.2,1c-0.4,0.4-0.5,0.5-0.5,1.1c0,2.1,0.5,4.3,1.4,6.2c1,1.9,2.4,3.5,4.3,4.5c1.9,1,4,1.5,6.2,1.5
					c4.3,0.1,8.7-1.1,12.8-2.7c4.1-1.6,8.1-3.6,11.9-5.7l2.6-1.4l-1.9,2.4c-1.5,1.9-2.8,4.2-3.1,6.4c-0.1,1.1,0.4,1.8,1.4,1.9
					c1,0.1,2.2-0.5,3.1-1.2c4-2.9,6.9-7.3,9.4-11.6c2.5-4.4,4.3-9.2,5.7-14.1l4.4-14.8l0,0.1c2.7-14.5,5.6-29,8.4-43.4l8.8-43.4
					l9-43.3c3-14.4,6.2-28.8,9.3-43.3L105.6,398.6z"/>
			</g>
			<g>
				<path class="st4" d="M66.9,581.7c-4.4-3.3-8.9-6.4-13.7-8.8c-2.4-1.3-4.9-2.3-7.5-2.9c-2.6-0.6-5.3-0.8-8-0.1
					c2.5-1.4,5.4-1.6,8.2-1.1c2.8,0.4,5.5,1.4,8,2.7c2.5,1.3,4.8,2.8,7,4.6C63.1,577.7,65.2,579.5,66.9,581.7z"/>
			</g>
			<g>
				<path class="st4" d="M68.9,574.1c-4.4-3-9.8-6.5-14.5-8.6c-4.7-2.2-9.8-3.7-15-2.5c2.4-1.3,5.2-1.5,7.9-1.2
					c2.7,0.2,5.3,1.2,7.8,2.3c2.4,1.1,4.8,2.5,6.9,4.1C64.1,569.7,67.1,572.1,68.9,574.1z"/>
			</g>
			<g>
				<path class="st4" d="M72.2,557.7c-3.9-4.1-8.2-7.7-13.1-10.2c-2.4-1.3-5.1-2.2-7.7-2.8c-2.7-0.6-5.5-0.5-8.3-0.4
					c2.7-0.8,5.6-1.2,8.5-0.8c2.9,0.3,5.7,1.2,8.3,2.6c2.6,1.4,4.9,3,7,5C68.9,553.1,70.8,555.3,72.2,557.7z"/>
			</g>
			<g>
				<path class="st4" d="M73.6,549.7c-2.3-1.8-4.6-3.6-7-5.2c-2.4-1.6-4.8-3.1-7.4-4.4c-2.6-1.2-5.2-2.3-8-2.9
					c-2.8-0.5-5.6-0.5-8.5,0.2c2.6-1.3,5.7-1.7,8.7-1.4c3,0.3,5.9,1.4,8.5,2.6c2.7,1.3,5.2,2.9,7.4,4.8
					C69.6,545.4,71.8,547.4,73.6,549.7z"/>
			</g>
		</g>
	</g>
	<path class="st1" d="M135.7,285.5c0,0,2.5,12.8,33.3,24.2c0,0,24.4-5.9,31.1-27.8l-30.5,14.7L135.7,285.5z"/>
	<g>
		<path class="st0" d="M70.2,241.4c0,0,14.8,26.8,99.4,55.2c0,0,58.5-23.7,91.5-58.4c0,0,9.4-62.4,8.2-65.3s-50.4-75.8-50.4-75.8
			l-53.6-13.5l-56.5,33.2L66,174.5C66,174.5,57.7,202.4,70.2,241.4z"/>
		<path class="st1" d="M78.2,236c0,0,50.8,42.2,88.3,46c0,0,76.2-32.6,82.5-49.9l14.3-6.1l-2.3,12.4c0,0-36.4,37-91.5,58.4
			c0,0-59.9-15.4-99.4-55.2l-6.9-29.8L78.2,236z"/>
		<path class="st1" d="M162.2,101.1c0,0-1.2,31.2,31.6,52.5c0,0-4.9-8.7-3.4-14c0,0,28.8,29.6,74.1,35l4.7-1.6l-50.4-75.8
			l-53.6-13.5l-56.5,33.2L66,174.5c0,0,59.8-32.6,71.5-44.2c0,0,2,14.5-2.2,21.2C135.3,151.5,162.6,128.3,162.2,101.1z"/>
		<path class="st5" d="M73.6,170.4c0,0,4.6,19.8,28.1,32.7c0,0,24.5,11.4,44.4-4c0,0,8.6-14.6,2.1-29.3
			C141.8,155.1,93.2,127,73.6,170.4z"/>
		<path class="st5" d="M256.2,170.4c0,0-4.6,19.8-28.1,32.7c0,0-24.5,11.4-44.4-4c0,0-8.6-14.8-2.1-29.4
			C187.9,155,236.5,127,256.2,170.4z"/>
		<ellipse class="st9" cx="214.4" cy="173.7" rx="16.8" ry="23.8"/>
		<ellipse class="st9" cx="118.5" cy="173.7" rx="16.8" ry="23.8"/>
		<path class="st10" d="M217.5,150c0,0-24.9-3.3-19.2,30.4c0,0,3.3-2.3,8.6-3.7c0.1,0.3,6.5,16.3,15.3,0c2.7,0.7,5.5,1.9,8.4,3.7
			C230.5,180.3,236,158.5,217.5,150z"/>
		<path class="st10" d="M121.6,150c0,0-24.9-3.3-19.2,30.4c0,0,3.3-2.3,8.6-3.7c0.1,0.3,6.5,16.3,15.3,0c2.7,0.7,5.5,1.9,8.4,3.7
			C134.6,180.3,140.1,158.5,121.6,150z"/>
		<g>
			<g>
				<path class="st4" d="M181.4,169c4.3-6.4,9.8-11.8,16.1-16.5c6.3-4.5,13.7-8.1,21.9-9.1c4.1-0.4,8.3-0.3,12.4,0.8
					c4,1.1,7.8,3,11.1,5.4c6.5,4.9,11.4,11.4,14.8,18.4l0.4,0.9l-0.2,0.6c-0.6,1.5-1.2,2.9-1.9,4.2c-0.7,1.3-1.5,2.6-2.4,3.8
					c-0.9,1.2-1.9,2.3-2.9,3.4c-1,1.1-2.2,2-3.4,2.8c1.8-2.3,3.2-4.8,4.4-7.4c0.6-1.3,1.1-2.6,1.5-3.9c0.4-1.3,0.8-2.7,1.1-3.9
					l0.2,1.5c-4.3-6-9.3-11.4-15-15.3c-5.8-3.8-12.5-5.6-19.4-5c-6.9,0.6-13.7,3.2-20.1,6.7C193.5,159.9,187.4,164.2,181.4,169z"/>
			</g>
			<g>
				<path class="st4" d="M148.3,169c-5.9-4.8-12.1-9.1-18.5-12.6c-6.4-3.5-13.3-6.1-20.1-6.7c-6.9-0.7-13.6,1.2-19.4,5
					c-5.8,3.8-10.7,9.3-15,15.3l0.2-1.5c0.2,1.2,0.7,2.6,1.1,3.9c0.4,1.3,0.9,2.6,1.5,3.9c1.1,2.6,2.6,5,4.4,7.4
					c-1.2-0.9-2.4-1.8-3.4-2.8c-1-1.1-2-2.2-2.9-3.4c-0.9-1.2-1.7-2.5-2.4-3.8c-0.7-1.3-1.3-2.7-1.9-4.2l-0.2-0.6L72,168
					c3.5-6.9,8.3-13.4,14.8-18.4c3.3-2.4,7.1-4.2,11.1-5.4c4-1.2,8.3-1.3,12.4-0.8c8.2,1,15.6,4.6,21.9,9.1
					C138.5,157.2,144.1,162.7,148.3,169z"/>
			</g>
			<g>
				<path class="st4" d="M184,199.1c3.4,1.9,7,3.4,10.6,4.6c3.7,1.2,7.4,2,11.2,2.3c3.8,0.4,7.6,0.4,11.4-0.2
					c3.8-0.4,7.5-1.6,11.2-2.7c-3.5,1.8-7.1,3.3-11,4c-3.9,0.8-7.9,1-11.8,0.6C197.8,206.8,190.2,203.9,184,199.1z"/>
			</g>
			<g>
				<path class="st4" d="M146.2,199.1c-6.1,4.8-13.8,7.7-21.6,8.5c-3.9,0.4-7.9,0.3-11.8-0.6c-3.9-0.7-7.6-2.2-11-4
					c3.7,1.2,7.4,2.3,11.2,2.7c3.8,0.5,7.6,0.6,11.4,0.2c3.8-0.4,7.6-1.2,11.2-2.3C139.2,202.5,142.8,200.9,146.2,199.1z"/>
			</g>
			<g>
				<path class="st4" d="M118.5,197.6c-9.7,0-17.6-11-17.6-24.6c0-13.6,7.9-24.6,17.6-24.6s17.6,11,17.6,24.6
					C136.1,186.5,128.2,197.6,118.5,197.6z M118.5,150c-8.8,0-16,10.3-16,23c0,12.7,7.2,23,16,23s16-10.3,16-23
					C134.5,160.3,127.3,150,118.5,150z"/>
			</g>
			<g>
				<path class="st4" d="M214.4,197.6c-9.7,0-17.6-11-17.6-24.6c0-13.6,7.9-24.6,17.6-24.6c9.7,0,17.6,11,17.6,24.6
					C232,186.5,224.1,197.6,214.4,197.6z M214.4,150c-8.8,0-16,10.3-16,23c0,12.7,7.2,23,16,23c8.8,0,16-10.3,16-23
					C230.3,160.3,223.2,150,214.4,150z"/>
			</g>
			<g>
				<path class="st4" d="M164,207.1c0.9,0.4,1.6,1,2.2,1.8c0.6,0.8,1,1.7,1.1,2.8c0.1,1.1-0.2,2.2-0.9,3c-0.6,0.8-1.5,1.3-2.4,1.6
					c0.5-0.8,1.1-1.5,1.3-2.3c0.3-0.7,0.5-1.5,0.4-2.2C165.6,210.3,164.8,208.8,164,207.1z"/>
			</g>
			<g>
				<path class="st4" d="M95.8,136c0,0,33-7.1,44.4,3.6C140.3,139.5,151.6,118.5,95.8,136z"/>
			</g>
			<g>
				<path class="st4" d="M241.5,136c0,0-33-7.1-44.4,3.6C197.1,139.5,185.7,118.5,241.5,136z"/>
			</g>
			<g>
				<path class="st4" d="M141.2,243.6c4,0.6,8.1,1.1,12.1,1.5c4,0.3,8,0.5,12,0.5c4,0,8-0.4,11.9-1c4-0.7,7.8-1.8,11.7-3.2
					c-3.4,2.3-7.3,3.9-11.3,5c-4,1-8.2,1.5-12.3,1.6c-4.1,0-8.3-0.3-12.3-1C149,246.3,145,245.2,141.2,243.6z"/>
			</g>
			<g>
				<path class="st4" d="M62,179.3l-1.5-1.9c46.6-36.8,49.2-70.4,49.2-70.7l0.7-11.1l1.7,11c2.7,16.8-5.8,35.9-10.2,44.4
					c34.5-23.8,38-47.8,38.1-48l2.4,0.1c0.1,19.7-4.8,33-7.9,39.5c26.5-19.5,29.5-58.6,29.5-59l2.4,0.2c0,0.4-3.3,44.8-34.8,63.7
					l-4.8,2.9l3.1-4.6c0.1-0.1,7.9-11.9,9.6-33.4c-4.2,10-14.8,26.9-40.6,43.5l-4.5,2.9l2.7-4.5c0.1-0.2,11.4-19,12.7-37.5
					C106.1,129.5,94.8,153.5,62,179.3z"/>
			</g>
			<g>
				<path class="st4" d="M93.5,288.4l-6.1-3.4c-0.3-0.2-25.7-14.5-34.4-43l-2.8,18.2l-1.7-2.8c-0.3-0.4-25.1-40.7-18.7-83.1l2.4,0.4
					c-5.2,34.9,11.2,68.4,16.7,78.4l3.7-24l1.4,6.6c4.8,22.5,20.5,37,29.1,43.4c-12.5-20.1-17.9-56.7-18.2-58.4l-1.1-7.8l3.4,7.1
					c4.3,8.8,11,14.3,15.8,17.3c-14.6-20.1-17.9-60.8-18.1-62.7l2.4-0.2c0,0.5,4.1,49.4,21.6,66.1l4.4,4.2l-5.7-2.1
					c-0.5-0.2-11.4-4.4-19.2-15.6c2.5,13.2,9.1,43,20.6,56.2L93.5,288.4z"/>
			</g>
			<g>
				<path class="st4" d="M268.5,179.3c-32.7-25.9-44.1-49.8-48.1-62.7c1.3,18.6,12.6,37.3,12.7,37.5l2.7,4.5l-4.5-2.9
					c-25.8-16.6-36.3-33.5-40.6-43.5c1.7,21.5,9.5,33.3,9.6,33.4l3.1,4.6l-4.8-2.9c-31.4-18.9-34.7-63.3-34.8-63.7l2.4-0.2
					c0,0.4,3,39.6,29.5,59c-3.1-6.5-8-19.8-7.9-39.5l2.4-0.1c0,0.2,3.6,24.2,38.1,48c-4.4-8.5-12.9-27.6-10.2-44.4l1.7-10.8
					l0.7,10.9c0,0.3,2.7,33.9,49.2,70.7L268.5,179.3z"/>
			</g>
			<g>
				<path class="st4" d="M237,288.3l4.6-5.3c11.5-13.2,18.1-43,20.6-56.2c-7.8,11.2-18.7,15.4-19.2,15.6l-5.7,2.1l4.4-4.2
					c17.6-16.7,21.6-65.6,21.6-66.1l2.4,0.2c-0.1,1.9-3.5,42.6-18.1,62.7c4.8-3,11.5-8.5,15.8-17.3l3.4-7.1l-1.1,7.8
					c-0.2,1.7-5.6,38.3-18.1,58.4c8.6-6.4,24.3-20.9,29.1-43.4l1.4-6.6l3.7,24c5.5-10,21.9-43.6,16.7-78.4l2.4-0.4
					c6.3,42.3-18.5,82.7-18.7,83.1l-1.7,2.8l-2.8-18.2c-8.8,28.5-34.2,42.9-34.4,43L237,288.3z"/>
			</g>
			<g>
				<path class="st4" d="M169.7,297.9l-0.4-0.1c-63.1-14.9-99.7-55.2-100-55.6l1.8-1.6c0.4,0.4,36.3,40,98.4,54.8
					c4.9-2.1,58.6-25,90.7-57.9l1.7,1.7c-33.8,34.8-91.3,58.4-91.9,58.6L169.7,297.9z"/>
			</g>
			<g>
				<path class="st4" d="M134.6,315.6c-11.3-5.5-23.7-19.9-29.2-26.9c1,11,8.9,18.4,9,18.5l3.4,3.1l-4.5-0.3
					c-29-1.6-47.4-27.7-53.5-37.9c-2.1,14.9,3,28.5,3.1,28.6l4.9,12.8L60,302.3C5.2,223,10.7,166.5,15.3,146.7L0,165.1l0.8-5.8
					c12.6-86.8,59.5-126,96.5-143.5c40.1-19,77.9-15.6,78.2-15.6l-0.2,1.4c-0.4,0-37.4-1.5-76.8,17.2C63.2,35.7,18.6,72.8,5,154
					l20-24.1l-4.4,10.3c-0.3,0.6-24,59.2,36.6,152.1c-1.3-6.6-2.1-15.8,0.2-25.2l1-4.3l2,4c0.2,0.4,18,35.1,48.8,39.6
					c-3.3-4.2-8.1-12.3-7.1-22.6l0.4-4.3l2.5,3.5c0.2,0.2,16.8,22.9,30.9,29.7L134.6,315.6z"/>
			</g>
		</g>
		<ellipse class="st4" cx="118.5" cy="173" rx="5.1" ry="8.7"/>
		<ellipse class="st4" cx="214.4" cy="173" rx="5.1" ry="8.7"/>
		<circle class="st5" cx="113.5" cy="159.1" r="4.6"/>
		<circle class="st5" cx="126.3" cy="185" r="3.3"/>
		<circle class="st5" cx="222.8" cy="185" r="3.3"/>
		<circle class="st5" cx="209.2" cy="159.1" r="4.6"/>
		<path class="st4" d="M71,242.6c0,0,25.5,26.2,65.8,43c0,0,4.4,18.3-1.5,28.5c0,0-11-3.3-31.4-30.2c0,0-1.9,14.2,9.5,24.4
			c0,0-31.1,1.2-54.3-40.9c0,0-3.5,16.3,2.3,33.9c0,0-63.2-82.6-43.4-158.5L2.4,159.6c0,0,11.6-105.6,93.4-141.2s114-10.8,151.8,3.6
			c0,0,72.8,30.5,84.4,135.1l-14.5-17.6c0,0,12.3,28.7-1.9,80.1C301.4,271,274.5,303,274.5,303s7.7-12.5,3.2-35.5
			c0,0-19.9,37.3-54.3,40.9c0,0,10.8-11.9,9.5-24.4c0,0-22.7,26.9-30.5,29.6c0,0-7.2-11.1-2.3-31.6c0,0,42.9-26.5,61-43.6l3.5-17.9
			c0,0-4,13.4-20,17.9c0,0,15.3-15,20-63.8c0,0-29.6-16.9-45.3-65.2c0,0-1.6,20.4,12.8,45.5c0,0-30.7-18.5-42.7-48.1
			c0,0,0.2,21.9,8.3,38.6c0,0-23.7-10.6-32.6-58.5c0,0-4.6,43.5-32.5,57.5c0,0,9.1-16.6,8-37.5c0,0-9.6,28.6-42,48.3
			c0,0,14.4-19.9,12.3-46.5c0,0-5.3,34.7-44.8,66.3c0,0,3.6,47,19.1,63.7c0,0-4.3,2.4-19.1-14.9L71,242.6z"/>
	</g>
</g>
</svg>
