<?xml version="1.0" encoding="utf-8"?>
<!-- Generator: Adobe Illustrator 21.0.2, SVG Export Plug-In . SVG Version: 6.00 Build 0)  -->
<svg version="1.1" id="Capa_7" xmlns="http://www.w3.org/2000/svg" xmlns:xlink="http://www.w3.org/1999/xlink" x="0px" y="0px"
	 viewBox="0 0 500.1 875.1" style="enable-background:new 0 0 500.1 875.1;" xml:space="preserve">
<style type="text/css">
	.st0{fill:#F8B454;}
	.st1{fill:#DD9239;}
	.st2{fill:#BF8D36;}
	.st3{fill:#A16F2A;}
	.st4{fill:#1C1C1B;}
	.st5{fill:#FFFFFF;}
	.st6{fill:#8F8F90;}
	.st7{fill:#0A567D;}
	.st8{fill:#293766;}
	.st9{fill:#EBE221;}
	.st10{fill:#EBC518;}
</style>
<g>
	<g>
		<path class="st0" d="M184.5,665c0,0,33-4.5,52.7,3.9l-1.7,47.1l-2.1,81.8l2.5,50.6c0,0,0.5,11-12.3,13.6s-51.7,22.4-82.2,6.4
			c0,0-10.9-37.5,26-43c0,0,16.7-4.5,16.5-27.6C183.7,774.7,184.5,665,184.5,665z"/>
		<path class="st1" d="M184.5,665v8.1c0,0,9.1,3.2,32,6.9c4.8,0.8,8.2,5,7.8,9.8c-1.3,19.6-4.4,67.7-3.6,87.4
			c1,25.1,2.4,49.2,2.4,59.1c0,9.9-83,24.7-83,24.7l1.3,7.5c0,0,29.6,17.6,89.6-9.7c0,0,8.1-3.4,4.2-18.9l-0.5-86.5
			c0,0,1-76.3,2.6-84.4C237.2,668.9,210,659.5,184.5,665z"/>
		<path class="st2" d="M184.6,797.8c0,0,24.4,9.6,49.7,0l-0.4,9.7c0,0-32.6,6.6-50.7-1.4L184.6,797.8z"/>
		<path class="st2" d="M175.7,820.4c0,0,31-0.8,32.1,39c0,0,19.1-5.3,28.1-11c0,0,1.5,6.7-5.8,11c-7.3,4.3-68.3,24.2-88.7,9v-6.3
			c0,0,30.1,8.9,57,0.6C198.4,862.7,200.6,832.7,175.7,820.4z"/>
		<path class="st3" d="M221.7,801.2v8.9l12.2-2.6l0.5-10.9C234.4,796.6,234.7,799.9,221.7,801.2z"/>
		<path class="st3" d="M196.8,848.4c0,0,7.4-0.5,9.7-2.9c0,0,1.5,9,1.4,15.3l28-12.4c0,0,1.5,10.3-9.7,12.4c0,0-54.4,23.9-84.8,7.6
			v-6.3c0,0,29,8.8,57,0.6C198.4,862.7,198.2,853.7,196.8,848.4z"/>
		<g>
			<g>
				<path class="st4" d="M237.4,668l-1.2,71.3c-0.3,23.8-0.5,47.5-0.6,71.3c0.1,11.9,0.1,23.7,0.8,35.6c0,1.5,0.2,3,0,4.6
					c-0.2,1.5-0.7,3.1-1.5,4.4c-1.5,2.7-4.2,4.8-7.1,5.7c-5.6,2.2-11.2,4.2-16.8,6c-11.4,3.6-23,6.4-34.9,7.7c-6,0.5-12,0.8-18,0
					c-6-0.8-11.9-2.3-17.4-5.1l-0.4-0.2l-0.1-0.5c-1.3-4.5-1.9-9.1-1.9-13.8c0-4.7,0.7-9.4,2.5-13.8c1.7-4.5,5-8.3,8.9-11.1
					c3.9-2.9,8.6-4.2,13.1-5.3l0,0l0.2,0c6.5-0.7,12.8-4.8,15.8-10.6c1.6-2.9,2.6-6.2,3-9.6c0.3-1.7,0.3-3.4,0.3-5.1
					c0.1-1.7,0-3.6,0-5.3c-0.2-14.4-0.1-28.7,0.1-43.1l0.8-43c0.3-14.3,0.8-28.7,1.3-43l0.3,0c0.1,14.3,0.3,28.7,0.3,43l0.2,43
					c0.2,14.3,0.1,28.7,0.3,43c0.2,7,0.2,15-3.7,21.8c-3.7,6.9-10.9,11.4-18.7,12.2l0.2,0c-4.2,1-8.5,2.1-11.9,4.7
					c-3.5,2.4-6.4,5.7-8,9.7c-1.7,3.9-2.4,8.3-2.5,12.7c-0.1,4.4,0.4,8.9,1.5,13.1l-0.6-0.7c5,2.8,10.7,4.4,16.5,5.3
					c5.8,0.9,11.7,0.7,17.6,0.4c5.9-0.5,11.7-1.4,17.5-2.5c5.8-1.3,11.5-2.8,17.2-4.5c5.7-1.8,11.3-3.8,16.7-6
					c2.8-1,5.1-2.8,6.4-5.3c0.7-1.2,1.1-2.6,1.3-4c0.2-1.4,0-2.8-0.1-4.3c-0.9-11.9-1.4-23.8-1.8-35.6c-0.7-23.8-0.3-47.6,0.3-71.3
					c0.6-23.8,1.8-47.5,3.5-71.2L237.4,668z"/>
			</g>
			<g>
				<path class="st4" d="M140,861.6c8.1,2,16.3,3,24.5,3.2c8.2,0.2,16.4-0.1,24.5-1.4c2-0.2,4-0.7,6-1.1c2-0.4,4-0.7,6-1.3l6-1.5
					l5.9-1.9c7.9-2.4,15.4-5.9,23-9.3c-3.5,2.2-7,4.5-10.7,6.5c-3.8,1.8-7.5,3.8-11.4,5.2c-7.7,3.3-16,5.2-24.3,6.6
					c-8.3,1.3-16.8,1.5-25.1,0.7c-4.2-0.4-8.3-1.1-12.4-1.9C147.9,864.4,143.8,863.4,140,861.6z"/>
			</g>
			<g>
				<path class="st4" d="M183.4,806.1c4.2,1.2,8.4,1.7,12.7,2.2c4.2,0.4,8.5,0.6,12.7,0.6c4.2,0,8.5-0.2,12.8-0.5l12.9-1.1
					c-2,0.8-4.1,1.4-6.2,2.1c-2.1,0.5-4.2,1.1-6.4,1.5c-4.3,0.8-8.7,1.2-13.1,1.2c-4.4-0.1-8.8-0.4-13.1-1.4
					C191.3,809.9,187.1,808.5,183.4,806.1z"/>
			</g>
			<g>
				<path class="st4" d="M183.9,797.8c4.2,1,8.5,1.6,12.7,2.3c4.2,0.6,8.4,1,12.6,1.1c4.2,0.2,8.4-0.1,12.6-0.6
					c4.2-0.5,8.3-1.6,12.5-2.8c-3.6,2.3-7.7,4.3-12,5.2c-4.3,1-8.7,1.5-13.1,1.3C200.3,804.1,191.6,802,183.9,797.8z"/>
			</g>
			<g>
				<path class="st4" d="M207.8,860.8c-0.2-2.3-0.3-4.5-0.5-6.8c-0.4-2.2-0.6-4.5-1.3-6.6c-0.9-4.4-2.8-8.4-5.3-12
					c-5-7.2-13.1-11.6-21.7-13.1c-0.5-0.1-1.1-0.2-1.6-0.3l-0.8-0.1c-0.1-0.1-0.5,0.1,0.4-0.1c0.6-0.3,0.9-0.9,0.7-1.5
					c-0.1-0.3-0.3-0.6-0.6-0.8c0,0-0.1-0.1-0.2-0.1l0.1,0l0.1,0l0.4,0.2l0.8,0.4c0.5,0.3,1.1,0.6,1.6,0.9c2.1,1.2,4,2.6,5.7,4.2
					c3.5,3.2,6.4,7,8.4,11.2c2,4.2,3.3,8.7,4.1,13.2c0.7,4.6,0.6,9.2,0.3,13.7c-0.5-9-2.2-18.1-6.6-25.8c-2.2-3.8-4.9-7.3-8.2-10.1
					c-1.6-1.4-3.4-2.7-5.3-3.8c-0.5-0.3-0.9-0.5-1.4-0.8l-0.7-0.3l-0.4-0.2l-0.4-0.2c-0.4-0.2-0.7-0.7-0.8-1.1
					c-0.2-0.9,0.2-1.8,1.1-2.2c0.4-0.2,1.1-0.1,1-0.1l0.2,0l0.9,0.1c0.6,0.1,1.2,0.2,1.8,0.3c4.6,0.9,9.1,2.5,13.2,5
					c4,2.5,7.5,5.9,10,9.9C207.8,842.2,208.8,851.9,207.8,860.8z"/>
			</g>
		</g>
	</g>
	<g>
		<g>
			<path class="st0" d="M258.6,673.1c0,0,4.5,142.3,1.8,168.8c0,0-6.3,16.9,11.4,19.9c0,0,52.6,22.6,82.7,6.6
				c0,0,12.5-39.5-26.7-43.2c0,0-17.8-5-15.8-28.8c2-23.8-0.5-116-0.5-116S273.4,682.8,258.6,673.1z"/>
		</g>
		<g>
			<path class="st1" d="M258.7,675.8l0.5,13.5c0,0,13.5,5.8,26.8,7.8c6.2,0.9,10.9,6,11.2,12.2c0.4,8,0.8,21.2,1.2,42.4
				c0.7,45.3-5.6,73.5,14.8,82.5c20.4,8.9,24.8-2.2,41.8,30.1c0,0,9.8-34.3-27.2-39c0,0-19.8-5.1-16-41.3l-0.3-103.5
				C311.5,680.4,289,685.1,258.7,675.8z"/>
		</g>
		<g>
			<path class="st2" d="M311.6,806.8v-8.6c-26.3,10.7-50-0.4-50-0.4l0.6,9.6C262.1,807.4,287.4,814.9,311.6,806.8z"/>
		</g>
		<g>
			<path class="st2" d="M296.9,861.1c0,0,0.1-35.2,23.8-39.8c0,0-32.2-2.6-33,36.9c0,0-18.7-4.3-27.5-12.1c0,0-2.7,11.8,9.9,15
				c0,0,29.3,12.6,52.1,12.8c0,0,30.2,0.2,32.7-7.1l0.1-2.7C355,864.2,323.9,869.9,296.9,861.1z"/>
		</g>
		<g>
			<path class="st3" d="M298,800.3c0,0,0.2,7,0.7,10.2l12.8-3.7v-8.6C311.6,798.2,305.2,800.9,298,800.3z"/>
		</g>
		<g>
			<g>
				<path class="st2" d="M258.6,671.1l1.7,33.8c0,0,35.4-1.5,51.8,2l-0.5-27.1C311.6,679.8,271.7,681.6,258.6,671.1z"/>
			</g>
			<g>
				<path class="st3" d="M258.7,676.2c0,0,16.8,6.2,31.2,9c3,0.6,5.2,3.1,5.3,6.1l0.7,13c0,0,15.5,2.3,16.2,3.2l-0.5-27.6
					c0,0-37.2,2.3-53-8.7L258.7,676.2z"/>
			</g>
		</g>
		<g>
			<path class="st3" d="M302.7,824.5c0,0,1.1,5.7,4.8,6.1l9-8.3C316.5,822.2,311.6,819.9,302.7,824.5z"/>
		</g>
		<g>
			<path class="st4" d="M311.6,706.9c-4.3-0.5-8.7-0.9-13-1.2c-4.3-0.2-8.7-0.5-13-0.6c-8.7-0.3-17.4-0.2-26.1-0.2
				c4.3-0.7,8.7-1,13-1.2c4.4-0.2,8.7-0.2,13.1-0.2C294.4,703.9,303.1,704.6,311.6,706.9z"/>
		</g>
		<g>
			<g>
				<path class="st4" d="M258.8,675.5c1.7,23.1,2.9,46.2,3.5,69.4c0.7,23.1,1,46.3,0.2,69.5c-0.3,11.6-1.1,23.2-1.9,34.7
					c-0.1,2.7,0.9,5.5,2.8,7.6c0.9,1,2,1.9,3.2,2.5c1.2,0.6,2.6,1.1,4,1.6c5.4,2.2,10.8,4,16.4,5.7c11,3.4,22.4,5.7,33.9,6.6
					c5.7,0.3,11.5,0.3,17.1-0.5c5.6-0.9,11.1-2.5,16-5.2l-0.6,0.7c1.1-4.2,1.6-8.7,1.5-13c-0.1-4.4-0.8-8.7-2.5-12.7
					c-1.6-4-4.5-7.3-8-9.6c-3.4-2.6-7.7-3.7-11.9-4.7l0.2,0c-7.1-0.7-13.6-4.6-17.6-10.4c-3.8-6-5-13-4.8-19.7
					c0.2-6.5,0.2-13,0.3-19.5l0.2-19.6l0.2-39.1c0-13.1,0.2-26.1,0.3-39.2l0.3,0c0.5,13,1,26.1,1.2,39.1l0.7,39.2
					c0.2,13.1,0.3,26.1,0,39.2c-0.2,6.3,1,12.6,4.3,17.7c3.3,5,9.1,8.3,15,9l0.2,0l0,0c4.6,1.1,9.2,2.4,13.1,5.3
					c3.9,2.7,7.2,6.6,8.9,11.1c1.8,4.4,2.5,9.2,2.5,13.8c0,4.7-0.6,9.3-1.9,13.8l-0.1,0.5l-0.5,0.2c-5.3,2.8-11.1,4.3-17,5.1
					c-5.9,0.7-11.7,0.6-17.5,0.1c-11.6-1.2-23-3.9-34-7.3c-5.5-1.7-11-3.7-16.4-5.7c-1.4-0.6-2.7-1-4.1-1.6
					c-1.4-0.7-2.6-1.6-3.6-2.7c-2-2.2-3.2-5.3-3.2-8.3c0.6-11.6,0.9-23.1,0.9-34.7c0-23.1-0.2-46.2-0.5-69.4l-1.3-69.4L258.8,675.5z
					"/>
			</g>
			<g>
				<path class="st4" d="M260.2,846.1c3.5,2.2,7.2,4.1,10.9,5.8c3.7,1.7,7.5,3.3,11.4,4.6c7.8,2.6,15.7,4.7,23.8,6.1
					c4.1,0.6,8.1,1.3,12.2,1.5c2,0.2,4.1,0.4,6.1,0.5c2.1,0,4.1,0.1,6.2,0.2c8.2,0.3,16.4-0.3,24.8-0.8c-4.1,0.9-8.1,1.7-12.3,2.3
					l-6.2,0.6l-3.1,0.3l-3.1,0.1c-8.4,0.5-16.7-0.4-25-1.6c-8.2-1.5-16.4-3.7-24.1-7C273.9,855.7,266.4,851.6,260.2,846.1z"/>
			</g>
			<g>
				<path class="st4" d="M313.1,806.1c-3.7,2.3-8,3.8-12.2,4.7c-4.3,1-8.7,1.3-13.1,1.4c-4.4,0-8.8-0.4-13.1-1.2
					c-2.2-0.4-4.3-1-6.4-1.5c-2.1-0.7-4.2-1.3-6.2-2.1l12.9,1.1c4.3,0.3,8.5,0.5,12.8,0.5c4.2,0,8.5-0.2,12.7-0.6
					C304.7,807.8,309,807.3,313.1,806.1z"/>
			</g>
			<g>
				<path class="st4" d="M312.6,797.8c-7.7,4.2-16.4,6.3-25.2,6.6c-4.4,0.2-8.9-0.3-13.1-1.3c-4.3-1-8.4-2.9-12-5.2
					c4.2,1.2,8.3,2.2,12.5,2.8c4.2,0.5,8.4,0.8,12.6,0.6c4.2-0.1,8.4-0.5,12.6-1.1C304.1,799.5,308.4,798.8,312.6,797.8z"/>
			</g>
			<g>
				<path class="st4" d="M287.7,860.8c-1-8.9,0-18.7,5.1-26.7c2.4-4,6-7.4,10-9.9c4-2.5,8.5-4.1,13.2-5c0.6-0.1,1.2-0.2,1.8-0.3
					l0.9-0.1l0.2,0c-0.1,0,0.6-0.1,1,0.1c0.9,0.4,1.3,1.3,1.1,2.2c-0.1,0.5-0.4,0.9-0.8,1.1l-0.4,0.2l-0.4,0.2l-0.7,0.3
					c-0.5,0.3-1,0.5-1.4,0.8c-1.9,1.1-3.6,2.4-5.3,3.8c-3.3,2.8-6,6.3-8.2,10.1c-4.3,7.7-6,16.7-6.6,25.8c-0.3-4.5-0.4-9.1,0.3-13.7
					c0.7-4.5,2-9,4.1-13.2c2-4.2,4.9-8,8.4-11.2c1.7-1.6,3.7-3,5.7-4.2c0.5-0.3,1-0.6,1.6-0.9l0.8-0.4l0.4-0.2l0.1,0l0.1,0
					c0,0-0.1,0.1-0.2,0.1c-0.2,0.1-0.5,0.5-0.6,0.8c-0.1,0.6,0.1,1.2,0.7,1.5c0.9,0.2,0.5,0.1,0.4,0.1l-0.8,0.1
					c-0.5,0.1-1.1,0.2-1.6,0.3c-8.5,1.5-16.7,6-21.7,13.1c-2.5,3.5-4.4,7.6-5.3,12c-0.7,2.1-0.9,4.4-1.3,6.6
					C288,856.3,287.9,858.6,287.7,860.8z"/>
			</g>
		</g>
	</g>
	<g>
		<g>
			<g>
				<g>
					<path class="st0" d="M178.5,376.3c0,0,54.4,41.2,142,2c0,0-8.3,69.3-5.9,119.5c0,0-1.8,44.9,1,59.8c0,0-41.6,13.2-132.9,2.8
						C182.7,560.5,193.2,478.2,178.5,376.3z"/>
					<path class="st1" d="M319.4,376.2c0,0-8.3,125.3-3.9,183.2c0,0-49.8,9-74.1,5.6c0,0,54,3.1,46.4-28.7
						c-7.6-31.9-1.2-132.6-1.2-132.6S289.2,388.3,319.4,376.2z"/>
					<g>
						<g>
							<path class="st4" d="M182.4,561.3c0.9-7.1,1.6-14.2,2-21.3c0.5-7.1,0.8-14.2,1-21.3c0.4-14.2,0.4-28.5-0.1-42.7
								c-0.3-14.2-1.2-28.5-2.1-42.7c-1-14.2-2.3-28.4-3.5-42.7c1.2,7,2.3,14.1,3.5,21.2c0.9,7.1,1.8,14.2,2.6,21.3
								c0.8,7.1,1.4,14.2,1.8,21.4c0.5,7.1,0.8,14.3,1.1,21.4c0.2,14.3,0.3,28.6-0.6,42.9C187,533,185.6,547.3,182.4,561.3z"/>
						</g>
						<g>
							<path class="st4" d="M315.2,557.5c-1.4-14.3-2.1-28.8-2.4-43.2c-0.4-14.4-0.3-28.8-0.1-43.2c0.5-14.4,1.1-28.8,2.3-43.2
								c1.2-14.4,2.8-28.7,5.4-42.9c-0.3,3.6-0.6,7.2-0.9,10.8l-0.8,10.8c-0.5,7.2-0.9,14.4-1.3,21.5c-0.7,14.4-1.3,28.7-1.5,43.1
								c-0.5,14.4-0.6,28.8-0.7,43.1c-0.1,7.2-0.1,14.4-0.1,21.6C315.1,543.1,315.3,550.2,315.2,557.5z"/>
						</g>
					</g>
				</g>
			</g>
			<path class="st0" d="M211.4,285.1c0,0,12.3,43-27.9,49.5c0,0-1.8,44.7,1.3,46.2c3,1.6,55.3,44,134.5-2.6l-10.4-44.3
				c0,0-41.6-3.1-33.3-52.4l-30.4,14.7L211.4,285.1z"/>
		</g>
		<path class="st1" d="M211.4,285.1c0,0,2.5,12.7,33.1,24.1c0,0,24.3-5.8,31-27.7l-30.4,14.7L211.4,285.1z"/>
	</g>
	<g>
		<g>
			<path class="st5" d="M182.4,561.3c0,0,95.9,9.9,133.3-4.4c0,0,22.1,44.7,22.6,66.3s33.1,40.4,33.1,40.4s-57.5,33.1-124.2,8.5
				c-66.7-24.5-111.7,19.1-111.7,19.1s22.7-27.5,24.7-60C162.2,598.7,182.4,561.3,182.4,561.3z"/>
		</g>
		<g>
			<path class="st6" d="M279,565.2c0,0,40.7,28,40.4,69.2c0,0,8.6,25.9,31.8,28c0,0-21,16.4-68.7,3.8c0,0-12.7-5.7-11-27.7
				c0,0-4.6,17.2-0.1,24.5c0,0-18.4-11.6-58-8.3c0,0-3-9.7,0-24.5c0,0-5.4,20.7-5.1,23.4c0,0-41.3,1.4-70.5,35.7
				c0,0,30.3-30.6,76.4-25.5c0,0,28.2,5,41.5,11.1c13.2,6.1,65,15.2,115.9-11.3c0,0-26-10.1-32.7-36.3c0,0-10.7-53.6-24.2-69.8
				C314.6,557.5,290.6,564.7,279,565.2z"/>
		</g>
		<g>
			<path class="st4" d="M133.5,693.8c6.9-8.3,15.5-14.4,24.7-19.5c9.3-5,19.4-8.3,29.8-10.2c10.4-1.8,21.1-1.5,31.6-0.3l7.8,1.5
				c2.6,0.5,5.2,1,7.7,1.8l15.1,4.5c19.7,6.3,40.6,9.3,61.3,7.8c20.7-1.3,41.4-6.4,59.7-16.1l0.1,0.9c-9.5-4.5-18-11.1-24.3-19.4
				c-3.2-4.2-5.7-8.9-7.3-13.9c-1.8-5-2.3-10.3-3.5-15.2c-2.3-10.1-5.6-19.9-9.3-29.6c-3.7-9.7-7.8-19.2-12.2-28.5l1.8,0.6
				c-5.3,2.7-10.8,4-16.4,5c-5.6,1-11.2,1.6-16.8,2.1c-11.2,0.9-22.5,1.1-33.7,1.1c-11.2,0-22.4-0.4-33.6-1
				c-11.2-0.6-22.4-1.3-33.6-2.3l1.6-0.8c-5.3,10.4-9.8,21.4-13.5,32.5c-3.7,11.2-6.6,22.6-8.7,34.3l-1.6,8.8
				c-0.6,2.9-1.3,5.8-2.1,8.7c-1.6,5.7-3.5,11.4-5.8,16.9c-2.3,5.5-5,10.8-8.1,15.9c-1.5,2.6-3.1,5.1-4.9,7.5
				c-0.9,1.2-1.8,2.4-2.7,3.6l-1.4,1.7l-0.7,0.8C134.2,693.2,134.2,693.5,133.5,693.8z M133.7,693.5c7.1-9.1,12.9-19.8,17.1-30.7
				c2.2-5.5,3.9-11.1,5.4-16.8c0.7-2.9,1.3-5.7,1.9-8.6l1.5-8.7c1.9-11.8,4.5-23.4,8.1-34.8c3.6-11.4,7.8-22.5,13.3-33.2l1.3-0.8
				l0.2,0c22.2,1.9,44.6,2.9,66.9,3.3c11.2,0.1,22.3,0,33.4-0.8c5.5-0.4,11.1-1,16.5-1.9c5.4-0.9,10.9-2.1,15.7-4.5l0.1,0l1.3,0.9
				c4.4,9.5,8.7,18.8,12.2,28.6c3.5,9.8,6.7,19.8,8.8,30c1.1,5.1,1.6,10.3,3.2,15.2c1.5,4.9,3.9,9.5,7.1,13.6
				c6.2,8.2,14.5,14.9,23.8,19.1l1,0.4l-0.9,0.5c-9.2,5.1-19.1,8.8-29.2,11.7c-10.1,3-20.5,4.8-31,5.7c-21,2-42.3-0.8-62.3-7.3
				l-14.9-4.6c-2.4-0.9-5-1.3-7.5-1.8l-7.6-1.5c-10.2-1.2-20.6-1.6-30.9-0.1c-10.2,1.6-20.2,4.7-29.5,9.3c-4.7,2.2-9.1,5-13.4,8
				c-2.1,1.6-4.2,3.1-6.1,4.8C137.4,689.9,135.6,692.1,133.7,693.5z"/>
		</g>
	</g>
	<g>
		<g>
			<path class="st0" d="M146.2,241.2c0,0,14.8,26.7,99,55c0,0,58.3-23.6,91.1-58.1c0,0,9.4-62.2,8.1-65.1
				c-1.3-2.9-50.2-75.5-50.2-75.5l-53.3-13.5l-56.3,33L142,174.6C142,174.6,133.8,202.4,146.2,241.2z"/>
		</g>
		<g>
			<path class="st1" d="M154.2,235.8c0,0,50.6,42.1,87.9,45.8c0,0,75.9-32.4,82.1-49.7l14.6-6.4l-2.6,12.6c0,0-36.3,36.9-91.1,58.1
				c0,0-59.6-15.4-99-55l-6.9-29.6L154.2,235.8z"/>
		</g>
		<g>
			<path class="st1" d="M237.9,101.4c0,0-1.2,31,31.4,52.2c0,0-4.8-8.6-3.4-13.9c0,0,28.7,29.5,73.8,34.9l4.7-1.6l-50.2-75.5
				l-53.3-13.5l-56.3,33L142,174.6c0,0,59.6-32.4,71.2-44c0,0,2,14.4-2.2,21.1C211,151.7,238.3,128.5,237.9,101.4z"/>
		</g>
		<g>
			<path class="st5" d="M149.6,170.5c0,0,4.6,19.7,28,32.6c0,0,24.4,11.3,44.3-4c0,0,8.6-14.5,2.1-29.1
				C217.6,155.3,169.1,127.3,149.6,170.5z"/>
		</g>
		<g>
			<path class="st5" d="M331.4,170.5c0,0-4.6,19.7-28,32.6c0,0-24.4,11.3-44.3-4c0,0-8.6-14.7-2.1-29.3S311.9,127.3,331.4,170.5z"/>
		</g>
		<g>
			<ellipse class="st7" cx="289.8" cy="173.8" rx="16.7" ry="23.7"/>
		</g>
		<g>
			<ellipse class="st7" cx="194.3" cy="173.8" rx="16.7" ry="23.7"/>
		</g>
		<g>
			<path class="st8" d="M292.9,150.1c0,0-24.8-3.3-19.1,30.3c0,0,3.3-2.3,8.5-3.7c0.1,0.3,6.5,16.2,15.3,0c2.7,0.7,5.5,1.9,8.3,3.7
				C305.9,180.4,311.4,158.6,292.9,150.1z"/>
		</g>
		<g>
			<path class="st8" d="M197.4,150.1c0,0-24.8-3.3-19.1,30.3c0,0,3.3-2.3,8.5-3.7c0.1,0.3,6.5,16.2,15.3,0c2.7,0.7,5.5,1.9,8.3,3.7
				C210.4,180.4,215.9,158.6,197.4,150.1z"/>
		</g>
		<g>
			<path class="st4" d="M257,169.1c4.3-6.3,9.8-11.8,16-16.4c6.3-4.5,13.7-8.1,21.8-9c4.1-0.4,8.3-0.3,12.3,0.8
				c4,1.1,7.8,3,11.1,5.3c6.5,4.9,11.3,11.4,14.8,18.3l0.4,0.9l-0.2,0.6c-0.6,1.5-1.2,2.9-1.9,4.2c-0.7,1.3-1.5,2.6-2.4,3.8
				c-0.9,1.2-1.9,2.3-2.9,3.4c-1,1.1-2.2,2-3.4,2.8c1.8-2.3,3.2-4.8,4.3-7.3c0.6-1.3,1.1-2.6,1.5-3.9c0.4-1.3,0.8-2.7,1.1-3.9
				l0.2,1.5c-4.3-6-9.2-11.4-15-15.2c-5.8-3.8-12.5-5.6-19.3-4.9c-6.8,0.6-13.6,3.2-20,6.6C269,160.1,262.9,164.4,257,169.1z"/>
		</g>
		<g>
			<path class="st4" d="M224,169.1c-5.9-4.8-12-9.1-18.4-12.5c-6.4-3.5-13.2-6-20-6.6c-6.8-0.7-13.5,1.2-19.3,4.9
				c-5.8,3.8-10.7,9.3-15,15.2l0.2-1.5c0.2,1.2,0.6,2.6,1.1,3.9c0.4,1.3,0.9,2.6,1.5,3.9c1.1,2.6,2.6,5,4.3,7.3
				c-1.2-0.9-2.4-1.8-3.4-2.8c-1-1.1-2-2.2-2.9-3.4c-0.9-1.2-1.7-2.5-2.4-3.8c-0.7-1.3-1.3-2.6-1.9-4.2l-0.2-0.6l0.4-0.9
				c3.4-6.9,8.2-13.4,14.8-18.3c3.3-2.4,7.1-4.2,11.1-5.3c4-1.2,8.3-1.3,12.3-0.8c8.2,1,15.5,4.6,21.8,9
				C214.3,157.3,219.8,162.8,224,169.1z"/>
		</g>
		<g>
			<path class="st4" d="M259.6,199c3.4,1.9,6.9,3.4,10.6,4.6c3.6,1.2,7.4,2,11.2,2.3c3.8,0.4,7.6,0.4,11.4-0.2
				c3.8-0.4,7.5-1.6,11.2-2.7c-3.4,1.8-7.1,3.3-11,3.9c-3.8,0.8-7.8,1-11.7,0.6C273.3,206.7,265.7,203.8,259.6,199z"/>
		</g>
		<g>
			<path class="st4" d="M221.9,199c-6.1,4.8-13.7,7.7-21.6,8.5c-3.9,0.4-7.9,0.3-11.7-0.6c-3.9-0.7-7.5-2.2-11-3.9
				c3.7,1.1,7.4,2.3,11.2,2.7c3.8,0.5,7.6,0.6,11.4,0.2c3.8-0.4,7.5-1.2,11.2-2.3C215,202.4,218.5,200.9,221.9,199z"/>
		</g>
		<g>
			<path class="st4" d="M194.3,197.6c-9.7,0-17.5-11-17.5-24.5c0-13.5,7.9-24.5,17.5-24.5s17.5,11,17.5,24.5
				C211.9,186.6,204,197.6,194.3,197.6z M194.3,150.2c-8.8,0-15.9,10.3-15.9,22.9c0,12.6,7.1,22.9,15.9,22.9
				c8.8,0,15.9-10.3,15.9-22.9C210.2,160.4,203.1,150.2,194.3,150.2z"/>
		</g>
		<g>
			<path class="st4" d="M289.8,197.6c-9.7,0-17.5-11-17.5-24.5c0-13.5,7.9-24.5,17.5-24.5s17.5,11,17.5,24.5
				C307.3,186.6,299.4,197.6,289.8,197.6z M289.8,150.2c-8.8,0-15.9,10.3-15.9,22.9c0,12.6,7.1,22.9,15.9,22.9
				c8.8,0,15.9-10.3,15.9-22.9C305.7,160.4,298.6,150.2,289.8,150.2z"/>
		</g>
		<g>
			<path class="st4" d="M239.6,207c0.9,0.4,1.6,1,2.2,1.8c0.6,0.8,1,1.7,1.1,2.8c0.1,1.1-0.2,2.2-0.9,3c-0.6,0.8-1.5,1.3-2.4,1.6
				c0.5-0.8,1.1-1.5,1.3-2.2c0.3-0.7,0.5-1.4,0.4-2.2C241.2,210.2,240.4,208.7,239.6,207z"/>
		</g>
		<g>
			<path class="st4" d="M171.7,136.2c0,0,32.8-7.1,44.3,3.6C216,139.7,227.3,118.8,171.7,136.2z"/>
		</g>
		<g>
			<path class="st4" d="M316.8,136.2c0,0-32.8-7.1-44.3,3.6C272.5,139.7,261.3,118.8,316.8,136.2z"/>
		</g>
		<g>
			<g>
				<path class="st5" d="M264.5,241.2c-20,10.7-47.5,2.2-47.5,2.2s8.4,15,21.8,14.3C252.2,257.1,264.5,241.2,264.5,241.2z"/>
			</g>
			<g>
				<path class="st4" d="M264.5,241.2c-3.6,1.9-7.3,3.4-11.3,4.4c-4,0.9-8.1,1.4-12.1,1.5c-4.1,0.1-8.2-0.1-12.2-0.6
					c-4.1-0.5-8.1-1.3-12-2.4l0.9-1.1c2.5,4,5.7,7.8,9.6,10.5c3.9,2.8,8.7,4.1,13.4,3.4c4.7-0.7,9.1-3,13-5.8
					C257.6,248.2,261.3,244.9,264.5,241.2z M264.5,241.2c-3,3.9-6.4,7.5-10.3,10.5c-3.9,3-8.3,5.5-13.3,6.5
					c-5,0.9-10.3-0.6-14.4-3.4c-4.2-2.8-7.6-6.6-10.2-11l-1-1.7l1.9,0.5c7.7,2.2,15.8,3.2,23.8,3.3c4,0,8-0.4,12-1.1
					C256.9,244.2,260.9,242.9,264.5,241.2z"/>
			</g>
		</g>
		<g>
			<path class="st4" d="M138.1,179.4l-1.5-1.9c46.4-36.7,49-70.1,49-70.4l0.7-11L188,107c2.7,16.8-5.8,35.8-10.2,44.2
				c34.4-23.7,37.9-47.6,37.9-47.8l2.4,0.1c0.1,19.6-4.8,32.9-7.9,39.3c26.4-19.4,29.3-58.4,29.4-58.8l2.4,0.2
				c0,0.4-3.3,44.6-34.6,63.4l-4.7,2.8l3.1-4.6c0.1-0.1,7.9-11.8,9.6-33.3c-4.2,10-14.7,26.8-40.4,43.3l-4.4,2.9l2.7-4.5
				c0.1-0.2,11.3-18.9,12.6-37.4C182,129.8,170.7,153.7,138.1,179.4z"/>
		</g>
		<g>
			<path class="st4" d="M169.4,288l-6.1-3.4c-0.3-0.2-25.6-14.5-34.3-42.9l-2.8,18.1l-1.7-2.8c-0.3-0.4-25-40.6-18.7-82.7l2.4,0.4
				c-5.2,34.7,11.2,68.1,16.6,78.1l3.6-23.9l1.4,6.6c4.7,22.4,20.4,36.8,29,43.2c-12.4-20-17.8-56.4-18.1-58.1l-1.1-7.8l3.4,7.1
				c4.2,8.8,10.9,14.3,15.7,17.3c-14.5-20-17.9-60.6-18-62.4l2.4-0.2c0,0.5,4,49.2,21.5,65.8l4.4,4.1l-5.6-2.1
				c-0.5-0.2-11.4-4.4-19.2-15.6c2.5,13.2,9,42.8,20.5,56L169.4,288z"/>
		</g>
		<g>
			<path class="st4" d="M343.7,179.3c-32.6-25.7-43.9-49.6-47.9-62.4c1.3,18.5,12.5,37.2,12.6,37.4l2.7,4.5l-4.4-2.9
				c-25.7-16.5-36.2-33.4-40.4-43.3c1.7,21.4,9.5,33.1,9.6,33.3l3.1,4.6l-4.7-2.8c-31.3-18.8-34.6-63-34.6-63.4l2.4-0.2
				c0,0.4,2.9,39.4,29.4,58.8c-3.1-6.4-8-19.7-7.9-39.3l2.4-0.1c0,0.2,3.5,24.1,37.9,47.8c-4.4-8.5-12.8-27.5-10.2-44.2l1.7-10.8
				l0.7,10.9c0,0.3,2.7,33.8,49,70.4L343.7,179.3z"/>
		</g>
		<g>
			<path class="st4" d="M312.3,287.9l4.6-5.2c11.5-13.2,18.1-42.8,20.5-56c-7.8,11.2-18.6,15.4-19.2,15.6l-5.6,2.1l4.4-4.1
				c17.5-16.6,21.5-65.3,21.5-65.8l2.4,0.2c-0.1,1.9-3.5,42.4-18,62.4c4.7-3,11.4-8.5,15.7-17.3l3.4-7.1l-1.1,7.8
				c-0.2,1.7-5.6,38.1-18.1,58.1c8.5-6.4,24.2-20.8,29-43.2l1.4-6.6l3.6,23.9c5.5-10,21.8-43.4,16.6-78.1l2.4-0.4
				c6.3,42.1-18.4,82.3-18.7,82.7l-1.7,2.8l-2.8-18.1c-8.7,28.4-34,42.7-34.3,42.9L312.3,287.9z"/>
		</g>
		<g>
			<path class="st4" d="M245.3,297.5l-0.4-0.1c-62.8-14.8-99.3-55-99.6-55.4l1.8-1.6c0.4,0.4,36.2,39.8,98,54.5
				c4.9-2,58.4-24.9,90.3-57.7l1.7,1.7c-33.7,34.6-90.9,58.2-91.5,58.4L245.3,297.5z"/>
		</g>
		<g>
			<path class="st4" d="M210.3,315.1c-11.3-5.4-23.6-19.8-29.1-26.8c1,10.9,8.9,18.3,8.9,18.4l3.3,3.1l-4.5-0.2
				c-28.9-1.6-47.2-27.6-53.2-37.7c-2.1,14.8,3,28.4,3.1,28.5l4.9,12.7l-7.7-11.2c-54.6-78.9-49.1-135.2-44.5-155l-15.2,18.4
				l0.8-5.7c12.6-86.4,59.2-125.5,96.1-143c40-18.9,77.4-16.5,77.8-16.4L251,2.4c-0.4,0-37.2-1.5-76.5,17.2
				c-35.3,16.8-79.7,53.7-93.3,134.6l19.9-24l-4.4,10.3c-0.3,0.6-23.9,59,36.5,151.5c-1.3-6.6-2.1-15.7,0.2-25.1l1-4.3l2,4
				c0.2,0.4,17.9,35,48.6,39.5c-3.3-4.2-8.1-12.2-7.1-22.5l0.4-4.2l2.5,3.4c0.2,0.2,16.7,22.8,30.8,29.5L210.3,315.1z"/>
		</g>
		<g>
			<path class="st4" d="M278.2,315.6l-1.4-2.9c14.1-6.8,30.6-29.3,30.8-29.5l2.5-3.4l0.4,4.2c1,10.2-3.8,18.3-7.1,22.5
				c30.8-4.5,48.5-39.1,48.6-39.5l2-4l1,4.3c2.3,9.4,1.5,18.6,0.2,25.1c60.4-92.5,36.7-150.9,36.5-151.5l-4.4-10.3l19.9,24
				c-13.6-80.9-58-117.8-93.3-134.6C274.7,1.4,237.9,2.9,237.5,2.9l-0.1-2.5c0.4,0,36.3-4.3,77.8,16.7c36.5,18.4,83.6,56.5,96.1,143
				l0.8,5.7L397,147.4c4.6,19.8,10.1,76-44.5,155l-7.7,11.2l4.9-12.7c0.1-0.1,5.2-13.7,3.1-28.5c-6.1,10.1-24.4,36.1-53.2,37.7
				l-4.5,0.3l3.3-3.1c0.1-0.1,8-7.5,8.9-18.4C301.8,295.8,289.5,310.2,278.2,315.6z"/>
		</g>
		<g>
			<ellipse class="st4" cx="194.3" cy="173" rx="5.1" ry="8.7"/>
		</g>
		<g>
			<ellipse class="st4" cx="289.8" cy="173" rx="5.1" ry="8.7"/>
		</g>
		<g>
			<circle class="st5" cx="189.3" cy="159.2" r="4.5"/>
		</g>
		<g>
			<circle class="st5" cx="202.1" cy="185" r="3.3"/>
		</g>
		<g>
			<circle class="st5" cx="298.2" cy="185" r="3.3"/>
		</g>
		<g>
			<circle class="st5" cx="284.7" cy="159.2" r="4.5"/>
		</g>
		<g>
			<path class="st4" d="M147,242.4c0,0,24.3,25.9,64.4,42.7c0,0,5.4,18.3-0.4,28.5c0,0-11-3.3-31.3-30c0,0-1.9,14.1,9.4,24.3
				c0,0-31,1.2-54.1-40.8c0,0-3.5,16.2,2.3,33.8c0,0-63-82.3-43.2-157.8l-15.4,16.6c0,0,11.5-105.2,93-140.6S285.3,8.3,323,22.7
				c0,0,72.5,30.4,84.1,134.6l-14.5-17.5c0,0,12.3,28.5-1.9,79.8s-41,83-41,83s7.7-12.4,3.2-35.4c0,0-19.8,37.2-54.1,40.8
				c0,0,10.7-11.8,9.4-24.3c0,0-22.6,26.7-30.3,29.5c0,0-7.1-11-2.3-31.5c0,0,42.7-26.4,60.7-43.5l3.4-17.8c0,0-4,13.3-19.9,17.8
				c0,0,15.3-14.9,19.9-63.6c0,0-29.5-16.8-45.1-64.9c0,0-1.6,20.3,12.8,45.3c0,0-30.6-18.4-42.6-47.9c0,0,0.2,21.8,8.2,38.4
				c0,0-23.6-10.6-32.5-58.3c0,0-4.6,43.3-32.4,57.2c0,0,9-16.6,8-37.4c0,0-9.5,28.5-41.8,48.1c0,0,14.3-19.8,12.3-46.4
				c0,0-5.2,34.5-44.6,66c0,0,3.6,46.8,19.1,63.5c0,0-4.2,2.3-19.1-14.8L147,242.4z"/>
		</g>
		<g>
			<g>
				<path class="st5" d="M243.7,250.5l1.8,1.4l2.2-2.3c0,0,3.9,1.6,10.7-1.8"/>
			</g>
			<g>
				<path class="st4" d="M243.7,250.5l1.9,1.2l-0.3,0c0.7-0.8,1.3-1.7,2.1-2.4l0.2-0.2l0.2,0.1c0.8,0.2,1.7,0.3,2.6,0.3
					c0.9,0,1.8-0.1,2.7-0.3c0.9-0.2,1.8-0.4,2.7-0.6c0.9-0.3,1.8-0.5,2.6-0.9c-1.6,1-3.3,1.8-5.1,2.2c-1.8,0.4-3.8,0.6-5.7-0.1
					l0.4-0.1c-0.7,0.8-1.5,1.5-2.3,2.2l-0.1,0.1l-0.1-0.1L243.7,250.5z"/>
			</g>
		</g>
	</g>
	<g>
		<path class="st0" d="M19.9,366.4c0,0,11.2-4.7,18.6-18.2c7.4-13.5,10.3-1.7,10.3-1.7s3.7,11.7-0.6,19.6c0,0,12.2,2.3,7.5,12.6
			c0,0,8,5-0.7,12.4c0,0,6.7,7.7-1.3,13c-8,5.3-42.2,22.1-46,1.7s-6.1-26-6.1-26s-0.3-16.2,13.8-13.2
			C15.4,366.5,17.4,367.7,19.9,366.4z"/>
		<path class="st0" d="M64.6,415.3c0,0,19.8,26.7,33.2,36.2c0,0,37.5-70,41.2-88c3.8-18,26.5-30.3,47.2-28.9l-2.8,68.9
			c0,0-19.1,37.4-35.4,57.2c-16.3,19.8-40.2,54.2-62.9,37.1c0,0-23.4-5.6-46.6-68.5C38.5,429.4,56.8,426.4,64.6,415.3z"/>
		<path class="st0" d="M478.5,364c0,0-14-9.7-19-21.9s-14.1,7.7-7.6,20.7c0,0-13.2,2.8-7.5,13.8c0,0-8.2,6,1.2,12.8
			c0,0-10.5,6.8,6.3,16.6c0,0,30.7,15,37.9,3.6c0,0,3.6-6.8,3-12.1c-0.6-5.3,5.6-20.9,5.6-20.9s-1.6-15.8-13.8-11.8L478.5,364z"/>
		<path class="st0" d="M402.7,449.4c0,0,27-22.8,32.4-35.2c0,0,15.8,13,27.5,10.9c0,0-14.4,46.9-40.4,66.3s-38.1,1.7-38.1,1.7
			s-23.9-21.2-38.3-43.7c-14.4-22.4-24.5-40.3-27.3-45.9c-2.8-5.5-10.5-69.9-10.5-69.9s35-2.9,49.9,19.2l8,21.7
			C365.9,374.6,393.5,439.1,402.7,449.4z"/>
		<path class="st1" d="M314,381.2c0,0,48.6,104.6,90.2,101.5s50.7-58,50.7-58s4,1.9,7.3,0.7c0,0-28.6,82.5-66.9,74.8
			c0,0-18.4-6.7-38.6-35.7c-20.2-29-30.8-45.8-39.7-63L314,381.2z"/>
		<path class="st1" d="M455.2,339.4c0,0,2.6,19,12.8,23.8c0,0,18.5,6.7,4.8,20.2c0,0-2.6,4.8,1.4,10c4,5.2,6.6,20.4-9.4,17.7
			c0,0,26.8,11.4,27.9-9.3c1-20.7,4.9-22.8,4.9-22.8s1.2-19.6-12.9-14.1l-6.3-0.8c0,0-12.3-7.8-19-21.9
			C459.5,342.1,457.5,338.6,455.2,339.4z"/>
		<path class="st1" d="M39.1,429.4c-0.4-1.4,41.1,78.8,68.4,57.5c27.3-21.3,79.2-92.8,79.2-92.8s-8.9,30.1-38.7,66.7
			s-40.3,45.6-53.4,39.9S55.7,487.5,39.1,429.4z"/>
		<path class="st1" d="M42.9,341.7c0,0,8.3,15.1-3,23.2c0,0,26.8,10.5-3,18.9c0,0,8.6,0.5,15.4-3.4c0,0,8.6,10-10.9,15.6l8.8-2.1
			c0,0,1.2,11-17.1,19.6c0,0,33.7-8.6,21.9-21.3c0,0,9-7.4,0.8-13.6c0,0,6.5-12.3-7.5-12.6C48.3,366,55.5,342.9,42.9,341.7z"/>
		<path class="st9" d="M33.4,413.5l2.7,8.8c0,0,19.3-4.3,24.2-13.2l-4.6-7.4C55.8,401.8,46.6,411.4,33.4,413.5z"/>
		<path class="st9" d="M444.4,400.5c0,0,13.4,11.4,22.4,10.8l-1.9,6.7c0,0-7.5,3.4-25.7-10L444.4,400.5z"/>
		<path class="st2" d="M36.2,422.4c0,0,19.4-3.3,24.2-13.2l3.7,6.8c0,0-6.4,9.9-25.6,13.4L36.2,422.4z"/>
		<path class="st2" d="M435.3,414.7l4.1-6.3c0,0,14.8,10.8,25.4,9.6l-2.7,7.4C462.1,425.4,451.1,426.6,435.3,414.7z"/>
		<path class="st10" d="M56.3,403c0,0-1.2,5.1-17.4,14.1c0,0-2.5,1.8-2.1,6.4l-4.1-10.1C32.6,413.4,51.6,407.1,56.3,403z"/>
		<path class="st10" d="M452.4,406.2c0,0,5.7,5.3,3.5,11.1c0,0,6.2,2.1,10,0.6l2.9-5.7L452.4,406.2z"/>
		<polygon class="st3" points="36.8,422.2 40,429.1 38.7,429.4 36.2,422.4 		"/>
		<path class="st3" d="M455.9,417.3l-1.1,7.4c0,0,4,0.9,7.3,0.7l3.8-7.6C465.9,417.9,460.1,418.8,455.9,417.3z"/>
	</g>
	<g>
		<g>
			<g>
				<path class="st4" d="M276.5,281.6c-1.7,5.7-2.4,11.7-2,17.5c0.4,5.9,2.2,11.6,5.3,16.5c3.1,4.9,7.7,8.7,12.8,11.4
					c5.1,2.7,10.8,4.5,16.5,5.6l-0.4,0c7.3-0.5,14.6-0.1,21.7,1.4c7.1,1.5,14.2,4.1,20.1,8.7c6,4.5,10.2,11.2,12.1,18.3
					c1.9,6.8,4.4,13.4,7,20c5.5,13.1,11.5,26,17.8,38.7c6.4,12.7,12.9,25.4,19.5,38c-7.5-12.2-14.6-24.5-21.3-37.1
					c-6.7-12.6-13.2-25.3-18.8-38.5c-2.8-6.6-5.3-13.3-7.4-20.3c-1.8-6.6-5.7-12.5-11.1-16.7c-5.4-4.2-12-6.8-18.7-8.3
					c-6.8-1.5-13.9-2-20.8-1.6l-0.2,0l-0.2,0c-5.9-1.3-11.7-3.3-17-6.3c-5.3-3-10-7.2-13.2-12.5c-3.2-5.2-4.7-11.4-4.8-17.3
					C273.4,293.1,274.4,287.1,276.5,281.6z"/>
			</g>
			<g>
				<path class="st4" d="M317.5,402.7c5,8.3,10.7,18.7,16.2,27.2c5.4,8.6,11.1,17,17.2,25.1c6.2,8,12.4,16,19.4,23.3
					c7,7.3,14.4,14.1,22.6,19.8l-0.4-0.2c4.5,1.2,9.9,0.8,14.7-0.5c2.4-0.9,4.8-1.5,7-2.9c1.1-0.6,2.3-1.2,3.4-1.8l3.1-2.2
					c8.4-6,14.9-14.3,20.8-22.8l4-6.7c1.4-2.2,2.7-4.5,3.8-6.9c2.2-4.7,4.8-9.3,6.7-14.3l3-7.3c1-2.4,2-4.9,2.8-7.4l6.9-12.9
					l-6.1,13.2c-0.7,2.6-1.6,5-2.5,7.5l-2.7,7.5c-1.7,5-4.2,9.7-6.3,14.6c-1,2.5-2.3,4.8-3.6,7.1l-3.9,7
					c-5.8,8.9-12.5,17.4-21.2,23.9l-3.3,2.4c-1.2,0.7-2.4,1.3-3.6,1.9c-2.3,1.4-5,2.2-7.6,3.1c-5.3,1.5-10.8,2.1-16.6,0.6l-0.2,0
					l-0.2-0.1c-8.4-6-16-13-23-20.4c-7-7.5-13.3-15.5-19.2-23.9c-5.9-8.3-11.4-16.9-16.5-25.7C327.3,421.9,321.7,411.9,317.5,402.7z
					"/>
			</g>
			<g>
				<path class="st4" d="M402.4,449.6c3.8-3.9,7.4-7.9,11.1-11.9c3.6-4,7.2-8.1,10.6-12.2c3.5-4.1,6.9-8.3,10.2-12.6l10.1-12.8
					c-2.3,4.9-5,9.8-8,14.3c-3,4.6-6.3,8.9-9.8,13.2C419.5,435.8,411.6,443.6,402.4,449.6z"/>
			</g>
			<g>
				<path class="st4" d="M481.4,364.8c-5.3-1.5-10.1-4.6-14-8.6c-2-1.9-3.7-4.2-5.3-6.5c-1.6-2.2-2.8-5.1-4-7c-0.6-1-1.5-1.8-2-2
					c-0.2,0-0.4,0-0.8,0.1c-0.3,0.2-0.7,0.5-1,1c-1.4,1.8-2.1,4.4-2.7,6.9c-0.5,2.5-0.8,5.2-0.7,7.8c0.1,2.6,0.5,5.3,2.2,7.5
					c-2.3-1.7-3.2-4.6-3.8-7.3c-0.5-2.8-0.6-5.6-0.2-8.4c0.4-2.8,1-5.6,2.7-8.3c0.4-0.7,1.1-1.3,1.8-1.9c0.8-0.5,2.1-0.8,3.1-0.6
					c2.1,0.6,3.1,2.1,4,3.3c1.6,2.7,2.5,4.9,3.9,7.2c1.4,2.2,2.9,4.4,4.6,6.4C472.6,358.5,476.6,362.2,481.4,364.8z"/>
			</g>
			<g>
				<path class="st4" d="M489.9,366c-4.9-0.5-9.9-0.9-14.8-1.3c-4.9-0.3-9.8-0.5-14.7-0.4c-4.8,0.2-9.8,0.6-13.6,2.6
					c-0.9,0.5-1.6,1.2-2.1,1.9c-0.4,0.6-0.5,1.8-0.7,2.9c-0.1,1.1,0,2.2,0.4,2.9c0.4,0.7,0.8,1,1.8,1.1l0.5,0l0.4,0.3
					c1.1,1,2.9,1.9,4.6,2.6c1.7,0.7,3.6,1.2,5.4,1.6c3.7,0.8,7.6,1.2,11.5,1.3c-1.9,0.3-3.9,0.5-5.8,0.5c-2,0-3.9,0.1-5.9-0.2
					c-2-0.2-3.9-0.6-5.9-1.2c-2-0.6-3.8-1.2-5.7-2.7l0.9,0.4c-1.5,0.1-3.5-0.9-4.3-2.5c-0.8-1.5-0.9-3-0.9-4.4
					c0.1-1.4,0.1-2.7,1-4.3c0.8-1.4,2-2.4,3.2-3.2c2.5-1.4,5.1-2,7.6-2.4c2.6-0.4,5.1-0.5,7.6-0.5c5,0,10,0.6,14.9,1.4
					C480.3,363.5,485.2,364.6,489.9,366z"/>
			</g>
			<g>
				<path class="st4" d="M444.4,376.6c-2,2.5-3.3,5.7-1.9,7.9c0.6,1,1.7,1.9,3,2.9c1.2,0.9,2.4,1.7,3.8,2.4c2.6,1.4,5.6,2.2,8.6,3
					c3,0.8,6.2,1.5,9.3,2.5c-3.3,0.3-6.5,0.3-9.7-0.1c-3.2-0.3-6.6-1.1-9.6-2.6c-1.5-0.8-2.9-1.8-4.2-2.9c-1.2-1.1-2.6-2.3-3.3-4.2
					c-0.8-1.9-0.4-4,0.6-5.5C441.7,378.5,442.9,377.4,444.4,376.6z"/>
			</g>
			<g>
				<path class="st4" d="M446.3,390c-2.7,1.5-3.7,4.9-2.3,7.2c1.3,2.5,3.6,4.4,6,6c5,3.1,10.7,5.4,16.4,7.3c2.9,1,5.9,1.8,8.9,2.3
					c1.5,0.3,3,0.5,4.6,0.7c1.4,0.1,2.9-0.1,4.3-0.7c2.8-1,4.9-3.1,5.9-5.8c1.1-2.6,1.2-5.6,1.2-8.5l0-0.1l0-0.1
					c0.4-3.9,1.1-7.7,2.1-11.4c1-3.7,2.2-7.4,3.7-10.9l-0.1,0.7c-0.1-1.7-0.4-3.5-1-5.1c-0.6-1.7-1.4-3.2-2.5-4.4
					c-1.1-1.3-2.7-2.1-4.4-2.3c-1.7-0.4-3.6-0.1-5.5,0.2l-0.1-0.3c1.8-0.7,3.7-1.3,5.7-1.3c2,0,4.2,0.7,5.8,2.1
					c1.6,1.4,2.8,3.2,3.6,5c0.8,1.9,1.3,3.8,1.6,5.9l0,0.3l-0.1,0.4c-1.2,3.5-2.3,7.1-3.3,10.7c-1,3.6-1.9,7.2-2.4,10.8l0-0.2
					c0,3.2-0.5,6.6-2.1,9.6c-1.5,3-4.5,5.3-7.6,6c-1.6,0.4-3.2,0.6-4.8,0.5c-1.5-0.3-3.1-0.6-4.6-0.7c-3.1-0.5-6.1-0.9-9.2-1.5
					c-3.1-0.6-6.1-1.3-9.1-2.4c-3-1.1-5.8-2.6-8.4-4.5c-2.6-1.9-5-4.3-6.2-7.5c-0.3-0.8-0.5-1.7-0.5-2.6c0-0.9,0.3-1.7,0.7-2.5
					c0.8-1.5,2.2-2.6,3.7-3.1L446.3,390z"/>
			</g>
		</g>
		<g>
			<g>
				<path class="st4" d="M211.4,285.1c2,4.9,3,10.1,3.1,15.4c0,5.3-1,10.7-3.4,15.5c-2.4,4.9-6,9-10.3,12.3
					c-4.3,3.3-9.1,5.8-14.1,7.6l-0.2,0.1l-0.3,0c-13.3-0.4-27.8,3.1-37.1,12.8c-2.3,2.4-4.2,5.1-5.7,8.1c-1.6,3-2.4,6.1-3.5,9.5
					c-2,6.8-4.7,13.2-7.4,19.7c-5.5,12.8-11.9,25.2-18.4,37.5c-6.6,12.3-13.5,24.3-20.8,36.2c6.5-12.3,12.8-24.7,19.1-37.1
					c6.2-12.4,12.1-25,17.5-37.8c2.6-6.4,5.2-12.8,7.1-19.4c1.7-6.7,4.7-13.8,9.9-18.9c5.1-5.3,11.7-8.7,18.5-10.8
					c6.9-2,13.9-2.9,21.1-2.5l-0.6,0.1c4.9-1.7,9.5-3.9,13.7-6.8c4.2-2.9,7.7-6.8,10.1-11.3c2.4-4.5,3.8-9.6,4-14.8
					C213.7,295.4,213,290.1,211.4,285.1z"/>
			</g>
			<g>
				<path class="st4" d="M182.3,405.6c-4.2,9.2-9.1,18.2-14.2,27c-5.2,8.8-10.6,17.4-16.5,25.7c-5.9,8.3-12.2,16.3-19.2,23.9
					c-7,7.5-14.5,14.5-23,20.4l-0.2,0.1l-0.2,0c-5.7,1.6-11.3,0.9-16.6-0.6c-2.6-1-5.2-1.7-7.6-3.1c-1.2-0.7-2.4-1.3-3.6-1.9
					l-3.3-2.4c-8.7-6.4-15.5-15-21.2-23.9l-3.9-7c-1.3-2.3-2.6-4.6-3.6-7.1c-2.1-4.9-4.6-9.5-6.3-14.6l-2.7-7.5
					c-0.9-2.5-1.8-5-2.5-7.5l-4.7-13.7l5.5,13.4c0.8,2.5,1.8,4.9,2.8,7.4l3,7.3c1.8,4.9,4.4,9.5,6.7,14.3c1.1,2.4,2.4,4.6,3.8,6.9
					l4,6.7c5.9,8.5,12.4,16.8,20.8,22.8l3.1,2.2c1.1,0.6,2.3,1.2,3.4,1.8c2.2,1.3,4.7,2,7,2.9c4.8,1.3,10.2,1.7,14.7,0.5l-0.4,0.2
					c8.2-5.7,15.7-12.5,22.6-19.8c6.9-7.3,13.2-15.3,19.4-23.3c6.1-8.1,11.7-16.5,17.2-25.1C172.3,423.3,177.5,414.5,182.3,405.6z"
					/>
			</g>
			<g>
				<path class="st4" d="M97.7,451.6c-9.2-6-17.1-13.8-24.2-22.1c-3.5-4.2-6.8-8.6-9.8-13.2c-3.1-4.5-5.7-9.4-8-14.3l10.1,12.8
					c3.3,4.3,6.8,8.4,10.2,12.6c3.4,4.2,7,8.2,10.6,12.2C90.3,443.6,93.9,447.7,97.7,451.6z"/>
			</g>
			<g>
				<path class="st4" d="M18.7,366.9c4.8-2.7,8.8-6.3,12.2-10.3c1.7-2,3.2-4.2,4.6-6.4c1.5-2.3,2.3-4.5,3.9-7.2
					c0.9-1.2,1.8-2.6,4-3.3c1.1-0.3,2.3,0,3.1,0.6c0.8,0.6,1.4,1.2,1.8,1.9c1.7,2.7,2.4,5.5,2.7,8.3c0.4,2.8,0.3,5.6-0.2,8.4
					c-0.6,2.7-1.5,5.6-3.8,7.3c1.7-2.2,2.1-4.9,2.2-7.5c0.1-2.6-0.2-5.3-0.7-7.8c-0.6-2.5-1.4-5.1-2.7-6.9c-0.3-0.5-0.7-0.8-1-1
					c-0.3-0.2-0.5-0.2-0.8-0.1c-0.5,0.1-1.4,1-2,2c-1.2,1.9-2.5,4.8-4,7c-1.6,2.3-3.3,4.5-5.3,6.5C28.8,362.2,24,365.3,18.7,366.9z"
					/>
			</g>
			<g>
				<path class="st4" d="M10.2,368c4.8-1.4,9.6-2.5,14.5-3.2c4.9-0.8,9.9-1.4,14.9-1.4c2.5,0,5.1,0.1,7.6,0.5c2.5,0.4,5.2,1,7.6,2.4
					c1.2,0.8,2.4,1.8,3.2,3.2c0.8,1.6,0.9,2.9,1,4.3c0,1.4-0.1,2.9-0.9,4.4c-0.8,1.6-2.7,2.6-4.3,2.5l0.9-0.4
					c-1.9,1.5-3.8,2.1-5.7,2.7c-1.9,0.6-3.9,0.9-5.9,1.2c-2,0.3-3.9,0.2-5.9,0.2c-2-0.1-3.9-0.2-5.8-0.5c3.9-0.2,7.8-0.5,11.5-1.3
					c1.9-0.4,3.7-0.9,5.4-1.6c1.7-0.7,3.5-1.6,4.6-2.6l0.4-0.3l0.5,0c1-0.1,1.4-0.4,1.8-1.1c0.4-0.7,0.4-1.8,0.4-2.9
					c-0.1-1.1-0.2-2.3-0.7-2.9c-0.5-0.7-1.2-1.4-2.1-1.9c-3.8-2-8.9-2.4-13.6-2.6c-4.8-0.1-9.8,0-14.7,0.4
					C20.1,367.1,15.2,367.5,10.2,368z"/>
			</g>
			<g>
				<path class="st4" d="M55.8,378.6c1.4,0.8,2.7,1.9,3.7,3.4c0.9,1.5,1.3,3.6,0.6,5.5c-0.7,1.9-2.2,3.1-3.3,4.2
					c-1.3,1.1-2.7,2.1-4.2,2.9c-3.1,1.5-6.4,2.3-9.6,2.6c-3.2,0.4-6.5,0.4-9.7,0.1c3.1-1,6.2-1.7,9.3-2.5c3-0.8,6-1.6,8.6-3
					c1.3-0.6,2.6-1.5,3.8-2.4c1.3-0.9,2.4-1.8,3-2.9C59.1,384.4,57.7,381.1,55.8,378.6z"/>
			</g>
			<g>
				<path class="st4" d="M54,391.7c1.5,0.4,2.9,1.5,3.7,3.1c0.4,0.8,0.6,1.6,0.7,2.5c0,0.9-0.1,1.8-0.5,2.6
					c-1.2,3.3-3.7,5.6-6.2,7.5c-2.6,1.9-5.5,3.3-8.4,4.5c-3,1.1-6,1.8-9.1,2.4c-3.1,0.6-6.1,1-9.2,1.5c-1.5,0.2-3.1,0.5-4.6,0.7
					c-1.7,0.2-3.2-0.1-4.8-0.5c-3.1-0.8-6.1-3-7.6-6c-1.5-3-2-6.4-2.1-9.6l0,0.2c-0.5-3.6-1.4-7.2-2.4-10.8c-1-3.6-2.1-7.1-3.3-10.7
					L0,378.8l0-0.3c0.3-2.1,0.8-4,1.6-5.9c0.8-1.9,1.9-3.7,3.6-5c1.6-1.4,3.7-2.1,5.8-2.1c2-0.1,3.9,0.6,5.7,1.3l-0.1,0.3
					c-1.9-0.3-3.7-0.6-5.5-0.2c-1.7,0.3-3.3,1.1-4.4,2.3c-1.1,1.3-1.9,2.8-2.5,4.4c-0.6,1.6-0.9,3.5-1,5.1l-0.1-0.7
					c1.5,3.5,2.7,7.2,3.7,10.9c1,3.7,1.7,7.5,2.1,11.4l0,0.1l0,0.1c-0.1,2.9,0.1,5.9,1.2,8.5c1,2.6,3.1,4.8,5.9,5.8
					c1.3,0.5,2.9,0.7,4.3,0.7c1.5-0.2,3-0.4,4.6-0.7c3-0.5,6-1.3,8.9-2.3c5.8-2,11.5-4.2,16.4-7.3c2.4-1.6,4.7-3.5,6-6
					c1.4-2.3,0.4-5.7-2.3-7.2L54,391.7z"/>
			</g>
		</g>
		<g>
			<path class="st4" d="M38.5,429.4c4.8-1.6,9.6-3.2,14.1-5.3c4.5-2.1,8.7-4.8,12-8.7c-1.1,2.3-2.8,4.3-4.8,6c-2,1.7-4.2,3-6.5,4.1
				c-2.3,1.1-4.8,2-7.2,2.6C43.6,428.8,41.1,429.3,38.5,429.4z"/>
		</g>
		<g>
			<path class="st4" d="M36.2,422.4c4.5-1.6,8.9-3.1,13.1-5.1c2.1-1,4.1-2.1,6-3.3c1.9-1.3,3.7-2.8,5.1-4.7
				c-0.8,2.3-2.5,4.1-4.3,5.7c-1.8,1.6-4,2.8-6.1,3.8c-2.2,1-4.4,1.8-6.7,2.4C40.9,421.7,38.5,422.2,36.2,422.4z"/>
		</g>
		<g>
			<path class="st4" d="M435.3,414.3c4.3,2.7,8.6,5.3,13.2,7.3c4.5,2.1,9.3,3.6,14.4,3.5c-2.5,0.7-5.1,0.7-7.7,0.3
				c-2.6-0.4-5-1.3-7.4-2.3c-2.3-1.1-4.6-2.4-6.7-3.9C439,417.8,437,416.2,435.3,414.3z"/>
		</g>
		<g>
			<path class="st4" d="M439.2,408c4.1,2.4,8.1,4.8,12.3,6.7c2.1,1,4.2,1.8,6.5,2.5c2.2,0.6,5.6,0.9,8,0.7c-2.3,0.8-5.9,0.9-8.2,0.5
				c-2.4-0.4-4.7-1.2-6.9-2.2c-2.2-1-4.3-2.2-6.2-3.6C442.7,411.2,440.8,409.7,439.2,408z"/>
		</g>
	</g>
</g>
</svg>
