<?xml version="1.0" encoding="utf-8"?>
<!-- Generator: Adobe Illustrator 21.0.2, SVG Export Plug-In . SVG Version: 6.00 Build 0)  -->
<svg version="1.1" id="Capa_9" xmlns="http://www.w3.org/2000/svg" xmlns:xlink="http://www.w3.org/1999/xlink" x="0px" y="0px"
	 viewBox="0 0 390.6 887" style="enable-background:new 0 0 390.6 887;" xml:space="preserve">
<style type="text/css">
	.st0{fill:#F8B454;}
	.st1{fill:#DD9239;}
	.st2{fill:#BF8D36;}
	.st3{fill:#A16F2A;}
	.st4{fill:#1C1C1B;}
	.st5{fill:#FFFFFF;}
	.st6{fill:#8F8F90;}
	.st7{fill:#0A567D;}
	.st8{fill:#293766;}
	.st9{fill:#282E55;}
	.st10{fill:#242740;}
	.st11{fill:none;stroke:#1C1C1B;stroke-miterlimit:10;}
	.st12{fill:#EBE221;}
	.st13{fill:#EBC518;}
	.st14{fill:#AAC312;}
	.st15{fill:#9CAB21;}
	.st16{fill:none;}
</style>
<g>
	<g>
		<path class="st0" d="M137.7,689c0,0,31.1-4.2,49.6,3.7l-1.6,44.4l-2,77l2.3,47.6c0,0,0.5,10.4-11.6,12.8
			c-12.1,2.4-48.7,21.1-77.4,6c0,0-10.3-35.3,24.5-40.4c0,0,15.8-4.2,15.5-26C136.9,792.3,137.7,689,137.7,689z"/>
		<path class="st1" d="M137.7,689v7.7c0,0,8.6,3,30.1,6.5c4.5,0.7,7.7,4.7,7.4,9.3c-1.3,18.5-4.1,63.7-3.4,82.3
			c0.9,23.6,2.2,46.3,2.2,55.6s-78.2,23.2-78.2,23.2l1.2,7c0,0,27.9,16.6,84.4-9.1c0,0,7.6-3.2,4-17.7l-0.5-81.5
			c0,0,0.9-71.8,2.4-79.5C187.4,692.7,161.8,683.8,137.7,689z"/>
		<path class="st2" d="M137.8,814.1c0,0,23,9,46.8,0l-0.4,9.1c0,0-30.7,6.2-47.7-1.3L137.8,814.1z"/>
		<path class="st2" d="M129.4,835.4c0,0,29.2-0.7,30.2,36.7c0,0,18-5,26.5-10.4c0,0,1.4,6.3-5.5,10.4c-6.9,4-64.3,22.8-83.5,8.5
			v-5.9c0,0,28.3,8.4,53.7,0.5C150.8,875.2,152.8,847,129.4,835.4z"/>
		<path class="st3" d="M172.8,817.3v8.4l11.4-2.4l0.5-10.2C184.7,813,185,816.1,172.8,817.3z"/>
		<path class="st3" d="M149.2,861.6c0,0,6.9-0.5,9.1-2.7c0,0,1.4,8.4,1.3,14.4l26.3-11.7c0,0,1.4,9.7-9.1,11.7
			c0,0-51.2,22.5-79.9,7.1v-5.9c0,0,27.3,8.3,53.7,0.5C150.7,875,150.5,866.7,149.2,861.6z"/>
		<g>
			<g>
				<path class="st4" d="M187.5,691.9l-1.1,67.1c-0.3,22.4-0.5,44.7-0.6,67.1c0.1,11.2,0.1,22.4,0.7,33.5c0,1.4,0.2,2.8,0,4.3
					c-0.2,1.5-0.7,2.9-1.4,4.2c-1.4,2.6-4,4.5-6.7,5.4c-5.2,2-10.5,3.9-15.8,5.7c-10.7,3.4-21.6,6.1-32.9,7.3
					c-11.1,1-23,0.7-33.4-4.8l-0.5-0.2l-0.1-0.5c-1.2-4.3-1.8-8.6-1.8-13c0-4.4,0.6-8.9,2.4-13.1c1.6-4.2,4.7-7.9,8.4-10.5
					c3.7-2.8,8.1-4,12.4-5l0,0l0.2,0c6-0.7,11.9-4.5,14.8-9.9c1.5-2.7,2.5-5.8,2.8-9c0.5-3.2,0.3-6.4,0.3-9.8
					c-0.2-13.5-0.1-27,0.1-40.5c0.4-27,1.1-54,2.1-81l0.3,0c0.4,27,0.5,54,0.6,81c0.1,13.5,0.1,27,0.3,40.5
					c0.2,6.6,0.2,14.2-3.5,20.6c-3.5,6.5-10.3,10.8-17.7,11.5l0.2,0c-3.9,0.9-8,2-11.2,4.4c-3.3,2.2-6,5.3-7.5,9
					c-1.6,3.7-2.3,7.8-2.3,11.9c-0.1,4.1,0.4,8.3,1.5,12.3l-0.6-0.7c4.7,2.6,10,4.1,15.5,5c5.4,0.8,11,0.7,16.5,0.4
					c5.5-0.4,11-1.3,16.5-2.4c5.4-1.2,10.8-2.6,16.2-4.3c5.3-1.7,10.6-3.5,15.8-5.7c2.6-0.9,4.8-2.6,6-5c0.6-1.2,1-2.4,1.2-3.7
					c0.2-1.3,0-2.6-0.1-4.1c-0.9-11.2-1.3-22.4-1.7-33.6c-0.7-22.4-0.3-44.8,0.3-67.2c0.6-22.4,1.7-44.7,3.3-67.1L187.5,691.9z"/>
			</g>
			<g>
				<path class="st4" d="M95.8,874.2c7.6,1.9,15.3,2.7,23.1,3c7.7,0.1,15.4-0.1,23.1-1.4c1.9-0.2,3.8-0.7,5.7-1
					c1.9-0.3,3.8-0.7,5.6-1.2l5.6-1.4l5.5-1.7c7.4-2.3,14.5-5.5,21.6-8.7c-3.3,2.1-6.6,4.3-10,6.2c-3.6,1.7-7,3.6-10.7,4.9
					c-7.3,3.1-15.1,4.9-22.9,6.2c-7.8,1.2-15.8,1.4-23.7,0.6c-3.9-0.4-7.8-1-11.7-1.8C103.2,876.9,99.4,875.9,95.8,874.2z"/>
			</g>
			<g>
				<path class="st4" d="M136.6,821.9c4,1,8,1.6,11.9,2c4,0.4,8,0.6,12,0.6c4,0,8-0.2,12-0.4l6-0.5c2-0.2,4-0.4,6.1-0.5
					c-3.8,1.6-7.8,2.7-11.8,3.5c-4.1,0.8-8.2,1.2-12.3,1.2c-4.1-0.1-8.3-0.4-12.4-1.3C144.1,825.6,140.1,824.2,136.6,821.9z"/>
			</g>
			<g>
				<path class="st4" d="M137.1,814.1c8,1.6,15.9,2.8,23.8,3c4,0.2,7.9-0.1,11.8-0.5c4-0.4,7.8-1.5,11.8-2.5
					c-3.4,2.3-7.2,4.1-11.3,5c-4,1-8.2,1.4-12.4,1.3c-4.2-0.2-8.3-0.7-12.3-1.8C144.6,817.6,140.7,816.2,137.1,814.1z"/>
			</g>
			<g>
				<path class="st4" d="M159.6,873.5c-0.2-2.1-0.3-4.3-0.5-6.4c-0.4-2.1-0.5-4.2-1.2-6.2c-0.9-4.1-2.7-7.9-5-11.2
					c-4.7-6.7-12.3-10.9-20.3-12.3c-0.5-0.1-1-0.2-1.5-0.2l-0.8-0.1c-0.1-0.1-0.5,0.1,0.4-0.1c0.7-0.3,0.9-0.9,0.8-1.6
					c-0.1-0.3-0.3-0.7-0.6-0.8c-0.1,0-0.1-0.1-0.2-0.1l0,0l0.1,0l0.4,0.2l0.8,0.4c0.5,0.3,1,0.5,1.5,0.8c1.9,1.1,3.7,2.5,5.4,4
					c3.3,3,6,6.6,7.9,10.6c1.9,4,3.1,8.2,3.8,12.5c0.6,4.3,0.6,8.6,0.2,12.9c-0.6-8.5-2.2-17-6.3-24.2c-2.1-3.6-4.6-6.8-7.8-9.4
					c-1.5-1.3-3.2-2.5-4.9-3.5c-0.4-0.3-0.9-0.5-1.3-0.7l-0.7-0.3l-0.3-0.2l-0.4-0.2c-0.4-0.2-0.7-0.7-0.8-1.1
					c-0.2-0.9,0.2-1.8,1.1-2.2c0.4-0.2,1.1-0.1,1-0.1l0.2,0l0.8,0.1c0.6,0.1,1.1,0.2,1.7,0.3c4.4,0.8,8.6,2.4,12.4,4.7
					c3.8,2.4,7.1,5.6,9.4,9.4C159.7,855.9,160.6,865.1,159.6,873.5z"/>
			</g>
		</g>
	</g>
	<g>
		<g>
			<path class="st0" d="M207.5,696.7c0,0,4.3,134,1.7,158.9c0,0-5.9,15.9,10.7,18.8c0,0,49.5,21.3,77.9,6.2c0,0,11.7-37.2-25.1-40.6
				c0,0-16.8-4.7-14.9-27.1c1.9-22.4-0.5-109.2-0.5-109.2S221.4,705.8,207.5,696.7z"/>
		</g>
		<g>
			<path class="st1" d="M207.6,699.2l0.5,12.7c0,0,12.7,5.4,25.2,7.3c5.8,0.9,10.3,5.6,10.5,11.5c0.4,7.6,0.8,20,1.1,39.9
				c0.7,42.7-5.2,69.2,13.9,77.6s23.3-2.1,39.4,28.4c0,0,9.2-32.3-25.6-36.7c0,0-18.7-4.8-15-38.9l-0.3-97.5
				C257.3,703.6,236.1,708,207.6,699.2z"/>
		</g>
		<g>
			<path class="st2" d="M257.3,822.6v-8.1c-24.8,10.1-47.1-0.4-47.1-0.4l0.5,9C210.8,823.1,234.6,830.2,257.3,822.6z"/>
		</g>
		<g>
			<path class="st2" d="M243.5,873.8c0,0,0.1-33.1,22.4-37.5c0,0-30.3-2.5-31.1,34.7c0,0-17.6-4.1-25.9-11.4c0,0-2.5,11.1,9.4,14.1
				c0,0,27.6,11.8,49.1,12.1c0,0,28.4,0.2,30.8-6.6l0.1-2.6C298.2,876.7,268.9,882,243.5,873.8z"/>
		</g>
		<g>
			<path class="st3" d="M244.6,816.5c0,0,0.2,6.6,0.7,9.6l12-3.5v-8.1C257.3,814.5,251.3,817.1,244.6,816.5z"/>
		</g>
		<g>
			<g>
				<path class="st2" d="M207.5,694.8l1.6,31.8c0,0,33.3-1.4,48.7,1.9l-0.5-25.5C257.4,703,219.9,704.7,207.5,694.8z"/>
			</g>
			<g>
				<path class="st3" d="M207.6,699.6c0,0,15.8,5.9,29.4,8.5c2.8,0.5,4.9,2.9,5,5.7l0.6,12.2c0,0,14.6,2.2,15.2,3l-0.5-26
					c0,0-35,2.2-49.9-8.2L207.6,699.6z"/>
			</g>
		</g>
		<g>
			<path class="st3" d="M249,839.2c0,0,1,5.4,4.5,5.7l8.5-7.9C262,837.1,257.3,834.9,249,839.2z"/>
		</g>
		<g>
			<path class="st4" d="M257.4,728.5c-8.2-0.9-16.3-1.4-24.5-1.6c-8.2-0.2-16.3-0.2-24.5-0.3c4.1-0.6,8.2-1,12.3-1.2
				c4.1-0.2,8.2-0.2,12.3-0.2C241.1,725.6,249.4,726.4,257.4,728.5z"/>
		</g>
		<g>
			<g>
				<path class="st4" d="M207.7,699c1.7,21.7,2.8,43.5,3.4,65.3c0.6,21.8,1,43.6,0.1,65.4c-0.3,10.9-1,21.8-1.8,32.6
					c-0.1,2.6,0.9,5.2,2.6,7.1c0.9,1,1.9,1.8,3,2.4c1.1,0.6,2.5,1,3.7,1.6c5,2,10.2,3.7,15.4,5.3c10.4,3.2,21.1,5.4,31.9,6.2
					c5.4,0.3,10.8,0.2,16.1-0.6c5.3-0.9,10.4-2.4,15-4.9l-0.6,0.8c1-3.9,1.5-8.2,1.4-12.2c-0.1-4.1-0.7-8.2-2.3-11.9
					c-1.5-3.7-4.2-6.8-7.5-9c-3.2-2.4-7.2-3.4-11.2-4.4l0.2,0c-6.8-0.7-12.9-4.3-16.7-9.9c-3.6-5.6-4.8-12.3-4.5-18.6
					c0.3-12.2,0.3-24.5,0.5-36.8c0.1-24.6,0.3-49.2,0.6-73.7l0.3,0c1,24.6,1.7,49.1,1.9,73.7c0.2,12.3,0.3,24.6,0,36.9
					c-0.2,5.9,1,11.9,4,16.6c3.1,4.6,8.5,7.8,14,8.4l0.2,0l0,0c4.3,1.1,8.7,2.3,12.4,5.1c3.7,2.6,6.8,6.2,8.5,10.5
					c1.7,4.2,2.4,8.7,2.4,13.1c0,4.4-0.6,8.7-1.8,13l-0.2,0.5l-0.5,0.2c-5,2.6-10.5,4.1-16,4.8c-5.5,0.6-11.1,0.5-16.5,0.1
					c-10.9-1.1-21.6-3.7-32.1-6.9c-5.2-1.6-10.4-3.5-15.5-5.4c-1.3-0.5-2.5-0.9-3.8-1.5c-1.3-0.6-2.4-1.5-3.4-2.6
					c-1.9-2.1-3-5-3-7.9c0.5-10.9,0.8-21.8,0.8-32.7c0-21.8-0.2-43.5-0.5-65.3l-1.1-65.4L207.7,699z"/>
			</g>
			<g>
				<path class="st4" d="M208.9,859.6c3.3,2.1,6.8,3.9,10.3,5.4c3.5,1.6,7.1,3.1,10.8,4.3c7.3,2.5,14.8,4.4,22.4,5.7
					c3.8,0.5,7.6,1.2,11.5,1.5c1.9,0.2,3.8,0.4,5.8,0.5c1.9,0,3.9,0.1,5.8,0.2c7.7,0.3,15.5-0.2,23.3-0.7c-3.8,0.8-7.7,1.6-11.5,2.2
					c-3.9,0.3-7.8,1-11.7,1c-7.9,0.5-15.8-0.3-23.6-1.4c-7.8-1.4-15.4-3.5-22.7-6.6C221.9,868.6,214.8,864.8,208.9,859.6z"/>
			</g>
			<g>
				<path class="st4" d="M258.8,821.9c-3.5,2.3-7.5,3.6-11.5,4.5c-4.1,0.9-8.2,1.3-12.4,1.3c-4.1,0-8.3-0.4-12.3-1.2
					c-4.1-0.8-8-1.9-11.8-3.5c2.1,0.1,4.1,0.3,6.1,0.5l6,0.5c4,0.2,8,0.5,12,0.4c4,0,8-0.2,12-0.6
					C250.9,823.5,254.9,823,258.8,821.9z"/>
			</g>
			<g>
				<path class="st4" d="M258.3,814.1c-3.6,2.1-7.5,3.5-11.5,4.6c-4,1.1-8.1,1.6-12.3,1.8c-4.2,0.1-8.4-0.3-12.4-1.3
					c-4.1-0.9-7.9-2.7-11.3-5c4,1,7.8,2.1,11.8,2.5c3.9,0.4,7.9,0.7,11.8,0.5C242.4,817,250.3,815.7,258.3,814.1z"/>
			</g>
			<g>
				<path class="st4" d="M234.9,873.5c-1-8.4-0.1-17.6,4.7-25.2c2.3-3.8,5.6-7,9.4-9.4c3.8-2.4,8.1-3.9,12.4-4.7
					c0.6-0.1,1.1-0.2,1.7-0.3l0.8-0.1l0.2,0c-0.1,0,0.6-0.1,1,0.1c0.9,0.4,1.3,1.3,1.1,2.2c-0.1,0.5-0.4,0.9-0.8,1.1l-0.4,0.2
					l-0.3,0.2l-0.7,0.3c-0.4,0.2-0.9,0.5-1.3,0.7c-1.8,1-3.4,2.2-4.9,3.5c-3.1,2.6-5.7,5.9-7.8,9.4c-4.1,7.2-5.7,15.7-6.3,24.2
					c-0.3-4.3-0.4-8.6,0.2-12.9c0.7-4.3,1.9-8.5,3.8-12.5c1.9-4,4.7-7.6,7.9-10.6c1.7-1.5,3.5-2.8,5.4-4c0.5-0.3,1-0.5,1.5-0.8
					l0.8-0.4l0.4-0.2l0.1,0l0,0c0,0-0.1,0.1-0.2,0.1c-0.3,0.2-0.5,0.5-0.6,0.8c-0.1,0.6,0.1,1.2,0.8,1.6c0.9,0.2,0.5,0.1,0.4,0.1
					l-0.8,0.1c-0.5,0-1,0.2-1.5,0.2c-8,1.4-15.6,5.6-20.3,12.3c-2.3,3.3-4.1,7.1-5,11.2c-0.7,2-0.8,4.1-1.2,6.2
					C235.2,869.2,235.1,871.3,234.9,873.5z"/>
			</g>
		</g>
	</g>
	<g>
		<g>
			<path class="st0" d="M174.2,353.2c0,0,18,7.6,22.5,8l21-8c0,0-2.2,8.3,4.1,11.3c0,0-2.3,12.8-27.3,13.2c0,0-19.6,2.4-23.2-13.2
				C171.3,364.6,176.2,364,174.2,353.2z"/>
			<path class="st1" d="M174.4,354.1c0,0,8.1,10.2,26.5,10c0,0,9.5,8.5-3.2,12.9c0,0,15.5,2.8,23.9-11.3c0,0-7.1-3.3-3.9-12.6l-21,8
				L174.4,354.1z"/>
		</g>
		<g>
			<g>
				<g>
					<path class="st0" d="M195.3,273c0,0-19.1-53.5-74.9-25.5c0,0-4.5,53.9,10.3,76.5c0,0,22.9,26.5,66,37.2
						c0,0,50.9-12.4,79.1-54.5c0,0,17.9-71.3-40.8-68.6C235,238,195,247.5,195.3,273z"/>
				</g>
				<g>
					<path class="st1" d="M261.1,271.2c0,0-12.8-7.6-14.3-16.1c0,0,0.6,12.8,3.1,16.1c0,0-13.7-4.4-18.2-14.4c0,0-1.3,7.3-1.9,10.7
						c0,0-9-2-12.5-7.4c0,0-10.5,14.9-19.1,20.6c0,0-9.7-7.5-16.4-21.5c0,0-5.6-14.9-33.5,4.6c0,0-2.3-2.8-4.4-13.7
						c0,0-7.7,12.2-19.2,13.9l-4.8-1.1l0.6-15.6c0,0,45.4-34.2,74.9,25.5c0,0,4.4-41.3,59.2-32.8c0,0,6.4,2.8,9.5,5.6L261.1,271.2z"
						/>
				</g>
				<g>
					<path class="st1" d="M254.5,260.9c0,0,3.6,28.6-4.5,47.2l6.2-4.8c0,0-7.9,33.4-57.9,54c0,0-21.9-2.4-37.1-11.1
						c0,0,21.3,11.4,35.5,15c0,0,44.9-9.5,75.9-50c0,0,17.3-37.1-6.6-63.8l-5.8-4.4L254.5,260.9z"/>
				</g>
			</g>
			<g>
				<path class="st4" d="M136.9,301.6c3.1,0,6.1,0.1,9.1-0.1c3-0.1,6-0.5,8.9-1c2.9-0.5,5.7-1.3,8.4-2.2c2.7-1,5.2-2.3,7.4-3.8
					l1.6-0.5c-0.4-0.1-1.2,0.2-1.3,0.3l0.3-0.2l0.6-0.4l1.2-0.8c0.8-0.5,1.7-1,2.5-1.4c1.7-0.9,3.5-1.7,5.3-2.4
					c3.6-1.3,7.4-2.2,11.3-2.7c3.9-0.4,7.9-0.2,11.7,0.6c3.9,0.6,7.5,2.2,11,3.9l-0.5-0.2c3.3,1.1,6,2.2,9,3.3c3,1,6,1.8,9,2.5
					c3,0.6,6.1,1.1,9.2,1.1c3.1,0,6.2-0.4,9.1-1.8c-2.4,2.2-5.7,3.5-8.9,4.1c-3.3,0.6-6.7,0.7-10,0.5c-3.3-0.2-6.6-0.8-9.8-1.5
					c-1.6-0.4-3.2-0.7-4.8-1.2c-1.5-0.4-3.2-1-4.5-1.3l-0.1,0l-0.4-0.2c-3.1-1.3-6.3-2.4-9.6-2.9c-1.6-0.4-3.3-0.4-4.9-0.6
					c-1.7,0-3.3,0-5,0.2c-3.3,0.3-6.6,1-9.8,2.1c-1.6,0.6-3.2,1.1-4.7,1.9c-0.8,0.3-1.5,0.7-2.3,1.1l-1.1,0.6l-0.6,0.3l-0.3,0.2
					c-0.2,0.2-1.2,0.6-1.8,0.6l1.6-0.5c-2.9,1.8-6,2.9-9.1,3.7c-3.1,0.8-6.3,1.2-9.5,1.2c-3.2,0.1-6.3-0.1-9.4-0.5
					c-1.5-0.2-3.1-0.5-4.6-0.8L136.9,301.6z"/>
			</g>
			<g>
				<path class="st4" d="M149.4,301.8c0,0,2.7,11.2,10.9,15.8c0,0-4.7-14.8-1.7-16C158.6,301.5,154.4,302.5,149.4,301.8z"/>
			</g>
			<g>
				<path class="st4" d="M158.6,302c0,0,1,10.7,8.1,11.7c0,0-4.7-10.5-1.2-13.3C165.6,300.5,161.5,302.1,158.6,302z"/>
			</g>
			<g>
				<path class="st4" d="M235,298.2c0,0-2.6,10.7-10.4,15.1c0,0,4.5-14.1,1.6-15.3C226.3,297.9,230.3,298.9,235,298.2z"/>
			</g>
			<g>
				<path class="st4" d="M226.3,298.4c0,0-0.9,10.2-7.8,11.2c0,0,4.5-10,1.2-12.7C219.6,297,223.5,298.5,226.3,298.4z"/>
			</g>
			<g>
				<path class="st4" d="M151.9,252.6c1.2-0.8,2.6-1.2,4-1.4c1.4-0.2,2.8,0,4.2,0.3c2.7,0.7,5.5,2.5,6.5,5.3
					c-1.5-0.4-2.6-0.8-3.8-1.1c-1.2-0.3-2.3-0.7-3.5-0.9C157,254.1,154.7,253.6,151.9,252.6z"/>
			</g>
			<g>
				<path class="st4" d="M224.2,256.9c0.7-1.3,1.8-2.3,3-3.1c1.2-0.8,2.5-1.3,3.9-1.7c2.8-0.6,6-0.3,8.2,1.7
					c-1.5,0.3-2.7,0.5-3.9,0.7c-1.2,0.3-2.4,0.4-3.6,0.8C229.4,255.9,227.1,256.6,224.2,256.9z"/>
			</g>
			<g>
				<path class="st4" d="M125.3,246.8c0,0,20.8-7.8,40.7,5.5C166,252.3,171.4,234.7,125.3,246.8z"/>
			</g>
			<g>
				<path class="st4" d="M263.8,247.2c0,0-20.6-8.2-40.8,4.7C223,251.9,217.9,234.2,263.8,247.2z"/>
			</g>
			<g>
				<g>
					<g>
						<g>
							<path class="st4" d="M183.6,276.3c0,0-14.8-29.2-50-14.1c0,0-3.7,5.4,0.6,14.8c0,0-7-3.4-5.2-19.1
								C129,257.8,166.1,242.3,183.6,276.3z"/>
						</g>
						<g>
							<path class="st5" d="M183.6,276.3c0,0,2,7.2-7.6,10.8c0,0-19.3,11.9-35.3-0.8c0,0-11.7-11.1-8.9-24.7c0,0,19.8-9.1,34.5-1.5
								C166.2,260.1,176.2,262.8,183.6,276.3z"/>
						</g>
						<g>
							<path class="st6" d="M183.6,276.3c0,0-18-27.1-49.3-10.7c0,0-1.7,5-0.1,11.3c0,0-4.5-6-2.5-15.3c0.1-0.5-0.4-0.3-0.4-0.3
								S164.6,243.7,183.6,276.3z"/>
						</g>
					</g>
					<g>
						<g>
							<path class="st4" d="M207.6,276.3c0,0,14.8-29.2,50-14.1c0,0,3.7,5.4-0.6,14.8c0,0,7-3.4,5.2-19.1
								C262.2,257.8,225.1,242.3,207.6,276.3z"/>
						</g>
						<g>
							<path class="st5" d="M207.8,276.3c0,0-3.4,7.5,6.3,11.1c0,0,20.7,11.6,36.7-1.1c0,0,11.7-11.1,8.9-24.7
								c0,0-19.8-9.1-34.5-1.5C225.2,260.1,215.2,262.7,207.8,276.3z"/>
						</g>
						<g>
							<path class="st6" d="M207.4,276.1c0,0,18.2-26.8,50-10.6c0,0,1.8,4.9,0.1,11.2c0,0,4.5-5.9,2.5-15.1
								c-0.1-0.5,0.4-0.3,0.4-0.3S226.7,243.8,207.4,276.1z"/>
						</g>
					</g>
				</g>
				<g>
					<g>
						<ellipse class="st7" cx="159.3" cy="271.2" rx="9.8" ry="13.6"/>
					</g>
					<g>
						<path class="st8" d="M161.2,257.8c0,0-6.7-2.3-10.4,6.7c0,0-2.1,3-1.3,11.1c0,0,2.3-1.8,5.7-2.7c0.1,3.1,1.9,5.5,4.1,5.5
							c2.3,0,4.1-2.5,4.2-5.7c1.7,0.4,3.4,1.2,5.1,2.5C168.7,275.2,172.4,262.3,161.2,257.8z"/>
					</g>
					<g>
						<ellipse class="st4" cx="159.3" cy="271.2" rx="3.2" ry="6.1"/>
					</g>
					<g>
						<circle class="st5" cx="155.5" cy="262.9" r="2.9"/>
					</g>
					<g>
						<circle class="st5" cx="164.1" cy="279.4" r="2.1"/>
					</g>
					<g>
						<path class="st4" d="M159.2,285.6c-5.9,0-10.6-6.5-10.6-14.4s4.8-14.4,10.6-14.4c5.9,0,10.6,6.5,10.6,14.4
							S165.1,285.6,159.2,285.6z M159.2,258.4c-5,0-9,5.7-9,12.8s4,12.8,9,12.8c5,0,9-5.7,9-12.8S164.2,258.4,159.2,258.4z"/>
					</g>
				</g>
				<g>
					<g>
						<ellipse class="st7" cx="232.2" cy="271.2" rx="9.8" ry="13.6"/>
					</g>
					<g>
						<path class="st8" d="M230.3,257.9c0,0,6.7-2.3,10.4,6.7c0,0,2.1,3,1.3,11.1c0,0-2.3-1.8-5.7-2.7c-0.1,3.1-1.9,5.5-4.1,5.5
							c-2.3,0-4.1-2.5-4.2-5.7c-1.7,0.4-3.4,1.2-5.1,2.5C222.8,275.3,219.1,262.4,230.3,257.9z"/>
					</g>
					<g>
						<ellipse class="st4" cx="232.5" cy="271.2" rx="3.2" ry="6.1"/>
					</g>
					<g>
						<circle class="st5" cx="228.8" cy="262.9" r="2.9"/>
					</g>
					<g>
						<circle class="st5" cx="236.6" cy="279.4" r="2.1"/>
					</g>
					<g>
						<path class="st4" d="M232.2,285.6c-5.9,0-10.6-6.5-10.6-14.4s4.8-14.4,10.6-14.4s10.6,6.5,10.6,14.4S238.1,285.6,232.2,285.6z
							 M232.2,258.4c-5,0-9,5.7-9,12.8s4,12.8,9,12.8s9-5.7,9-12.8S237.2,258.4,232.2,258.4z"/>
					</g>
				</g>
			</g>
			<g>
				<g>
					<path class="st5" d="M181.8,323.2c0,0,19.2,5.9,35.1-1.5c0,0-5.5,17.2-19.6,15.1C197.2,336.8,187.8,336.9,181.8,323.2z"/>
				</g>
				<g>
					<path class="st6" d="M181.8,323.2c0,0,15.3,7.7,28.3,3.1c0,0,1.3,4.1-4.7,2.3l-2.1,2.8l-1.8-2.2l1.7,3.8c0,0,1.4-1,2.8-2.7
						c0,0,3.8,1.3,5.8-0.1c0,0,4.4-4.9,4.8-8.1C216.7,322.1,193.9,328.7,181.8,323.2z"/>
				</g>
				<g>
					<path class="st4" d="M181.8,323.2c5.9,1.3,11.9,1.3,17.8,0.8c2.9-0.3,5.9-0.7,8.7-1.4c2.9-0.6,5.7-1.5,8.5-2.4l3.5-1.2
						l-1.5,3.4c-1.5,3.4-3.4,6.4-5.8,9.2c-2.4,2.7-5.4,5.2-9.2,6.2c-3.8,1-7.5,0.3-10.9-1.2c-3.3-1.6-6-4.1-7.7-7.2
						c2.3,2.6,5.1,4.6,8.3,5.6c1.6,0.5,3.2,0.8,4.8,0.8c1.6,0,3.2-0.1,4.7-0.6c2.9-1,5.4-3.2,7.5-5.7c2.1-2.5,3.8-5.5,5.2-8.4l2,2.2
						c-2.9,0.9-5.9,1.8-8.9,2.3c-3,0.6-6.1,0.8-9.2,0.9c-3.1,0.1-6.2-0.2-9.2-0.7C187.5,325.3,184.5,324.5,181.8,323.2z"/>
				</g>
				<g>
					<path class="st4" d="M201.6,329.4c0.8,0.7,1.5,1.4,2.2,2.1l-0.9,0c0.6-1,1.3-2.1,2-3l0.3-0.5l0.6,0.2c0.5,0.2,1.2,0.3,1.8,0.3
						c0.7,0,1.3,0.1,2,0c1.4,0,2.8-0.3,4.3-0.6c-1.2,0.9-2.6,1.5-4.1,1.9c-0.8,0.1-1.5,0.3-2.3,0.2c-0.8,0-1.5-0.1-2.4-0.5l1-0.2
						c-0.7,0.9-1.6,1.8-2.4,2.7l-0.5,0.5l-0.3-0.5C202.4,331.3,202,330.3,201.6,329.4z"/>
				</g>
			</g>
			<g>
				<g>
					<path class="st4" d="M161.5,270.1l2.5-20.5L148.2,266l-2.5-22.2l-9.6,17v-14.2c-2.5,5.4-7.5,15.3-12.5,18.7l-0.9-1.4
						c6.5-4.4,13.4-21.4,13.4-21.6l1.6-4v16.2l9-16l2.7,23.8l16.8-17.5l-2.4,20.2l12.3-13.9l1.2,1.1L161.5,270.1z"/>
				</g>
				<g>
					<path class="st4" d="M229.3,269.1l-15.8-17.9l1.2-1.1L227,264l-2.4-20.2l16.8,17.5l2.7-23.8l9,16v-16.2l1.6,4
						c0.1,0.2,7,17.3,13.4,21.6l-0.9,1.4c-5-3.4-10-13.3-12.5-18.7v14.2l-9.6-17l-2.5,22.2l-15.8-16.5L229.3,269.1z"/>
				</g>
				<g>
					<polygon class="st4" points="232.4,366.6 217.2,353.9 218.2,352.6 232.3,364.4 251.7,346.1 251.7,354.9 274.9,321.6 
						276.3,322.6 250,360.2 250,349.9 					"/>
				</g>
				<g>
					<g>
						<path class="st4" d="M178.8,249.7l-16.2,17.8l2.5-20.4l-16.3,17l-2.6-23l-9.3,16.5v-15.1c0,0-6.3,16-12.6,21.1
							c0,0,4.1,37.1,11.7,44.5c0,0-11.6-9.3-12.5-10.9c0,0,7.4,25.2,8.3,28c0,0,30.4,26.9,42.8,28.3l0,3.1l-10.4,8.9L145.7,348v9.6
							l-17.2-21.7l2.9,10.3c0,0-14.8-9.2-19.6-29.7l-1.5,9.9c0,0-10-19.5-13-41.5c0,0-1.8-19.2,1-29.4c2.8-10.2,10-19.9,10-19.9
							S166.3,227.6,178.8,249.7z"/>
					</g>
					<g>
						<path class="st4" d="M289.1,266.7c0,0,15.9-41.4-36-36.5c0,0-34.7,3.6-42,16.9l17,19.4l-2.5-20.4l16.3,17l2.6-23l9.3,16.5
							v-15.1c0,0,3.1,9.2,8.7,16.6c0,0-2.6,35.1-11.7,49.3l12.3-10.5l-11,35c0,0-22.5,18.5-34.6,21.4l14.3,12l18.9-17.2v9.6
							c0,0,20-28.1,24.7-36.1l0.5,4.3c0,0,8.8-16.9,11-29c2.2-12.1,3.1-13.4,2.6-21.7"/>
					</g>
				</g>
			</g>
			<g>
				<g>
					<g>
						<path class="st9" d="M98.1,234.4c0,0-10,6.2-32.8,4.9c0,0-16.2-0.7-22.6,17.5c0,0,4.2-35.8,35.3-51.9c0,0-47.5-0.6-69.7-29.2
							c0,0,14.1,6.8,31.8-3.5c0,0,25.9-9.4,50.8-8.4c0,0-13.9-0.9-28.1-35.5c0,0-1-10.1-28.5-21.3c0,0,30.7-2.3,62.6,13.6
							c0,0-15.6-12.5-15.6-26.6c0,0-2.1-24.6-26.6-35.3c0,0,28.5,1.5,59.7,27.3c0,0,17.1,13,33.2,36.7c0,0-12.8-31.4-15-50.5
							c0,0-1.5-23.3-19-38.5c0,0,27.6,9.8,43.7,28.4c0,0,13.7,13.5,16.8,30.4c0,0,3.8-24.8,17.7-44.2c0,0,18.8-18.1,15.3-39.5
							c0,0,10.1,11.3,12.1,36.6c2,25.3-1.4,42.2-1.4,42.2s7.4-34.6,58.2-53.9c0,0-16.7,17.2-17.5,34.7
							c-0.8,17.5-13.2,48.8-17.9,57.2c0,0,27.3-39.6,57.5-54.5c0,0,16.4-9.6,37.9-12.5c0,0-22.8,7.5-26.6,35.3c0,0,0.3,13.8-15.8,26
							c0,0,24.4-13.1,64-13.7c0,0-24.3,8.9-28.3,18.7s-12.1,31.9-28.5,38.7c0,0,21.2-1.1,48.2,7.8c0,0,19.2,12.3,33.6,3.3
							c0,0-15,26.7-69,30.3c0,0,27.7,15.9,32.9,48.6c0,0-7-15.7-22.7-14.2c-15.7,1.5-28.6-3.4-28.6-3.4L98.1,234.4z"/>
					</g>
					<g>
						<g>
							<path class="st10" d="M204.2,4.9c0,0,18.9,26-4,65.5s-4.8,55-4.8,55l12.7,1.3C208.1,126.6,237.9,43.2,204.2,4.9z"/>
						</g>
						<g>
							<path class="st10" d="M208.1,126.6c0,0,17.4-63.6,69.9-93.8c0,0-16.1,13.5-18.7,31s0.3,33.3-27.5,74.8L208.1,126.6z"/>
						</g>
						<g>
							<path class="st10" d="M337.3,58.7c0,0-71.3,25-105.5,79.8l22.7,15.7c0,0,18.9-24.6,39-34.4c0,0,15-11.9,15.8-24
								C310.1,83.7,318.1,64.7,337.3,58.7z"/>
						</g>
						<g>
							<path class="st10" d="M284.5,235.7c0,0,25.4,5.2,42.2,3.5c0,0,17.5,0.6,22.1,20.9c0,0-7-42.7-36.3-55.2
								c0,0,52.3-1.7,71.3-31.4c0,0-8.3,11.1-33.8-1.6s-49.7-7.9-49.7-7.9s14.6-4.3,26-32.1c0,0,0.9-15.9,32-25.7
								c0,0-32.1-2.2-64.8,13.7s-39,34.4-39,34.4S288.2,180.6,284.5,235.7z"/>
						</g>
						<g>
							<path class="st10" d="M113.6,33.5c0,0,54.6,14.1,53.5,96.9l10.3-5.2c0,0-4.2-12.4-3.3-32.8C174,92.4,169.3,54.5,113.6,33.5z"
								/>
						</g>
						<g>
							<path class="st10" d="M42.7,256.8c0,0,1.3-30.7,54.3-33.7l-0.8,12.4c0,0-6,4.3-30.9,3.8C65.3,239.3,48.7,238.5,42.7,256.8z"
								/>
						</g>
						<g>
							<path class="st10" d="M8.3,175.7c0,0,17.7,28.4,69.7,29.2c0,0,11.1-5.3,23.8-4.3c0,0-4.3-15.8-45.2-4.9
								C56.7,195.7,26.3,194.6,8.3,175.7z"/>
						</g>
						<g>
							<path class="st10" d="M32.3,106.1c0,0,32.5-0.7,49,28.2s45.1,29.5,45.1,29.5l-10,9.9c0,0-15.5-10.4-27.7-9.9
								c0,0-15-4.2-26.8-37.7C62,126,60.4,116.9,32.3,106.1z"/>
						</g>
						<g>
							<path class="st10" d="M56,58.7c0,0,24.7,3.5,39.8,39.5s53.2,28.3,53.2,28.3l-20.3,20.7c0,0-14.8-19.9-31.8-26.9
								c0,0-16.7-14.5-15.8-27.6C81,92.9,80.9,72.6,56,58.7z"/>
						</g>
					</g>
					<g>
						<g>
							<path class="st4" d="M347.2,260.4c-0.2-0.8-4.8-20.4-23.5-19.5c-20.7,0.9-29.8-3.8-30.2-4l1.6-2.9c0.1,0,8.8,4.5,28.5,3.6
								c9.4-0.4,15.7,3.6,19.8,8.4c-16.3-48.8-52.7-44.1-54.4-43.9l-0.5-3.3c0.5-0.1,47.9-6.4,61.9,60.8L347.2,260.4z"/>
						</g>
						<g>
							<path class="st4" d="M312.6,206.6l-0.2-3.3c37.2-1.8,56.6-16.1,64.9-24.5c-12.3,3.3-27.2-4.9-29.1-6
								c-53.1-16.3-66.9-0.6-67-0.5l-2.6-2.1c0.6-0.7,14.9-17.7,70.7-0.5l0.3,0.2c0.2,0.1,21.8,12.5,33,2.4l7.9-7.1l-5.4,9.1
								C384.5,175.5,367.2,203.9,312.6,206.6z"/>
						</g>
						<g>
							<path class="st4" d="M300.1,165.3l-0.8-3.2c12.5-3.1,23.9-25.7,27.5-36.1c2.6-7.5,14.1-14,22.4-17.9
								c-68,4.5-87.1,42.1-87.3,42.4l-3-1.4c0.9-1.8,21.8-43.1,99.4-44.7l10-0.2l-9.4,3.4c-7.1,2.6-26,11-28.9,19.4
								C326.9,135.9,315,161.6,300.1,165.3z"/>
						</g>
						<g>
							<path class="st4" d="M176.4,127.2c-0.2-0.4-15.4-37.2,14-80c0.4-0.4,21.3-22,13.7-39.7L200.8,0l6,5.8
								c1.3,1.2,30.6,31,2.9,121.3l-3.2-1C226.4,61.2,216,28.1,209,15c0.7,17.1-15.4,33.6-16.1,34.4c-28.3,41.1-13.7,76.2-13.5,76.6
								L176.4,127.2z"/>
						</g>
						<g>
							<path class="st4" d="M236,137.5l-2.8-1.7c0.2-0.3,20.6-35.3,23.1-62.9c1.5-17.3,8.5-28.7,14-35c-46.7,21.6-52,54.4-52,54.7
								l-3.3-0.5c0.2-1.6,6.2-38.9,62.5-60.9l13.5-5.3l-12,8.2c-0.2,0.1-17,11.9-19.4,39.1C257,101.6,236.8,136.1,236,137.5z"/>
						</g>
						<g>
							<path class="st4" d="M234.8,139.3l-3-1.5c0.4-0.8,38.1-75.5,109.3-81.5l0,0c0,0,0,0,0,0l0.2,3.3c-0.1,0-0.2,0-0.3,0
								C338.5,59.9,317.5,63,311,94c0,2-0.7,15.8-19.3,29.4l-1.9-2.7c18.2-13.2,18-26.7,18-26.8l0-0.2l0-0.2
								c3.6-17.4,11.8-26.7,19.2-31.6C266.9,75.6,235.1,138.6,234.8,139.3z"/>
						</g>
						<g>
							<path class="st4" d="M43.3,260.4l-3.2-0.7c14-67.2,61.5-60.9,61.9-60.8l-0.5,3.3c-1.7-0.2-38.1-5-54.4,43.9
								c4.1-4.8,10.5-8.8,19.8-8.4c19.6,0.9,28.4-3.5,28.5-3.6L97,237c-0.4,0.2-9.4,4.9-30.2,4c-0.4,0-0.8,0-1.2,0
								C47.8,240.9,43.4,260.2,43.3,260.4z"/>
						</g>
						<g>
							<path class="st4" d="M78,206.6c-54.6-2.6-71.9-31-72.6-32.2L0,165.2l7.9,7.1c11.2,10.1,32.8-2.3,33-2.4l0.3-0.2
								c55.8-17.1,70.1-0.2,70.7,0.5l-2.6,2.1l1.3-1l-1.3,1c-0.1-0.2-13.9-15.8-67,0.5c-1.9,1.1-16.8,9.2-29.1,6
								c8.3,8.4,27.8,22.7,64.8,24.5L78,206.6z"/>
						</g>
						<g>
							<path class="st4" d="M90.4,165.3c-14.9-3.7-26.8-29.5-29.8-38.2c-2.9-8.4-21.8-16.9-28.9-19.4l-9.4-3.4l10,0.2
								c77.6,1.6,98.5,42.9,99.4,44.7l-3,1.4c-0.2-0.4-19.4-38-87.3-42.4c8.2,3.9,19.8,10.4,22.4,17.9c3.6,10.4,15,33,27.5,36.1
								L90.4,165.3z"/>
						</g>
						<g>
							<path class="st4" d="M154.6,137.5c-0.9-1.5-21-35.9-23.5-64.3c-2.4-27.2-19.3-39-19.4-39.1l-12-8.2l13.5,5.3
								c56.3,22,62.3,59.3,62.5,60.9l-3.3,0.5c-0.1-0.3-5.4-33.2-52-54.7c5.5,6.4,12.5,17.7,14,35c2.5,27.6,22.9,62.6,23.1,62.9
								L154.6,137.5z"/>
						</g>
						<g>
							<path class="st4" d="M155.8,139.3c-0.3-0.7-32.1-63.7-92.1-77.4c7.4,4.9,15.6,14.2,19.2,31.6l0,0.2l0,0.2
								c0,0.1-0.3,13.6,18,26.8l-1.9,2.7C80.3,109.8,79.6,96,79.6,94C73.1,63,52,59.9,49.4,59.6c-0.1,0-0.2,0-0.3,0l0.2-3.3
								c0,0,0,0,0,0l0,0c71.3,6,109,80.8,109.3,81.5L155.8,139.3z"/>
						</g>
					</g>
					<g>
						<g>
							<path class="st11" d="M138.4,150.6"/>
						</g>
						<g>
							<path class="st12" d="M133.3,133.8c0,0,47.1-23.3,62.8-20.5c0,0,47,9.5,61.7,21.1c0,0,4.9,18.6,14.8,27.8
								c0,0,42.2,25.2,29.5,75.7c0,0-81.6-14.9-106.8,35.1c0,0-15.2-48.9-106.5-35.4c0,0-16.6-39.6,26.1-72.4
								C114.8,165.2,129.7,153.1,133.3,133.8z"/>
						</g>
						<g>
							<path class="st13" d="M88.8,237.6c0,0,71.6-16.9,107.9,19.8c0,0,33.3-36.2,77.7-35.8c0,0,7.9-47.4-43-55.6
								c0,0,10.8-39.7-35.3-52.6c0,0,44.1,8.2,61.7,21.1l-2,0.4c0,0,12.7,29.4,23.5,33.6c0,0,34.2,21.9,22.8,69.4
								c0,0-82.9-15.3-106.8,35.1C195.3,273,178.2,225.7,88.8,237.6z"/>
						</g>
						<g>
							<path class="st5" d="M133.3,133.8c0,0,25.5-0.8,38.2,44.4c0,0-27.5-20.1-50.7-19.2C120.8,159,129.1,147.7,133.3,133.8z"/>
						</g>
						<g>
							<path class="st5" d="M257.2,133.8c0,0,9.5,21.5,12.6,25.2c0,0-31.5,2.3-51.7,20.2C218.1,179.2,227.3,139.5,257.2,133.8z"/>
						</g>
						<g>
							<path class="st6" d="M170.5,178.2c0,0-10.3-39.6-39.4-39.7l2.3-4.6C133.3,133.8,163.7,138.7,170.5,178.2z"/>
						</g>
						<g>
							<path class="st8" d="M132.5,134.3c0,0-5.4,21.4,5.1,22.4c0,0,9.3-3.6,5.2-19.3l6.9,3.8c0,0,2.2,22.4-12.4,20.1
								C137.3,161.3,123.2,152.9,132.5,134.3z"/>
						</g>
						<g>
							<path class="st6" d="M257.8,134.4c0,0-31.8,4.9-38.9,44.4c0,0,10.8-39.6,41.3-39.7"/>
						</g>
						<g>
							<path class="st8" d="M240.8,141.3c0,0-1.7,25.2,14.1,18.5c0,0,8.2-4,6-16.9l-1.9-4.9c0,0,3.4,17.8-5.1,18.4
								c0,0-7.1,0.5-6.9-11.9l0.2-7.2L240.8,141.3z"/>
						</g>
						<g>
							<g>
								<path class="st4" d="M196.7,273.7l-2.9-1.5c24.2-47.1,95.5-38.2,106.8-36.5c6.5-24.7-0.9-47.7-20.9-64.8
									c-0.6-0.5-0.9-0.8-1.1-1c-10.6-7.7-17.8-19-21.4-33.7c-0.1-0.2-0.1-0.4-0.1-0.6c-18-10.4-40-17.8-62-20.8l0.4-3.3
									c22.7,3.1,45.3,10.7,63.8,21.5l0.4,0.3c0.4,0.4,0.5,0.7,0.8,2c3.4,14,10.3,24.7,20.3,31.9l0.4,0.4c0.2,0.1,0.4,0.3,0.7,0.6
									c21.4,18.4,29.1,43.1,21.6,69.6l-0.4,1.4l-1.5-0.3C300.7,239,221.8,225,196.7,273.7z"/>
							</g>
							<g>
								<path class="st4" d="M216.4,183.3l0.8-4.4c0.1-0.4,7.8-39.7,39.7-46.7l1.4-0.3l0.5,1.3c0.1,0.2,6.9,18.2,12.3,24.7l0.4,0.5
									l0,0.6c0,1.6-1.5,1.7-2.9,1.8c-21.2,1-38.2,11.3-48.7,19.7L216.4,183.3z M256.2,135.7c-22.5,5.8-31.7,29.3-34.6,39.3
									c10.7-7.8,26.2-16.1,45.1-17.4C262.3,150.9,257.8,139.6,256.2,135.7z"/>
							</g>
							<g>
								<path class="st4" d="M250.9,162.9c-0.3,0-0.6,0-0.8-0.1c-3-0.4-5.5-1.7-7.3-4.1c-5-6.4-3.3-17.8-3.3-18.3l3.3,0.5
									c0,0.1-1.5,10.5,2.6,15.8c1.3,1.7,3.1,2.7,5.4,2.9l0.4,0c1-0.2,3.6-1.3,5.6-3.7c2.5-3.1,3.2-7.3,2.3-12.5l3.2-0.6
									c1.9,10.4-2.7,15.6-5.6,17.8C254.9,161.8,252.5,162.9,250.9,162.9z"/>
							</g>
							<g>
								<path class="st4" d="M253.2,158.2c-0.4,0-0.8-0.1-1.2-0.2l0,0c-8.8-2.6-6.5-18.9-6.2-20.7l3.3,0.5c-0.7,4.2-1.3,15.4,3.8,17
									c0.2,0,1.5,0.1,2.6-1c1.4-1.3,3.4-5.3,1.6-16.7l3.3-0.5c1.8,11.2,0.5,18.2-4,20.6C255.4,157.9,254.2,158.2,253.2,158.2z"/>
							</g>
							<g>
								<path class="st4" d="M193.8,273.7c-25-48.8-104-34.7-104.8-34.5l-1.5,0.3l-0.4-1.4c-7.5-26.5,0.1-51.3,21.6-69.6
									c0.3-0.3,0.6-0.5,0.7-0.6l0.1-0.2l0.3-0.3c10-7.2,16.9-18,20.3-31.9c0.3-1.3,0.4-1.6,0.8-2l0.4-0.3
									c18.5-10.8,41.1-18.5,63.8-21.5l0.4,3.3c-22,3-44,10.4-62,20.8c0,0.2-0.1,0.4-0.1,0.6c-3.6,14.7-10.8,26-21.4,33.7
									c-0.2,0.2-0.5,0.5-1.1,1c-20,17.2-27.4,40.2-20.9,64.8c11.3-1.7,82.6-10.6,106.8,36.5L193.8,273.7z"/>
							</g>
							<g>
								<path class="st4" d="M174.1,183.3l-3.5-2.8c-10.5-8.4-27.4-18.7-48.7-19.7c-1.3-0.1-2.8-0.1-2.9-1.7l0-0.6l0.4-0.5
									c5.4-6.5,12.2-24.5,12.3-24.7l0.5-1.3l1.4,0.3c31.9,7,39.6,46.3,39.7,46.7L174.1,183.3z M123.8,157.6
									c18.9,1.3,34.5,9.6,45.1,17.4c-2.9-10-12.1-33.5-34.6-39.2C132.8,139.6,128.2,150.9,123.8,157.6z"/>
							</g>
							<g>
								<path class="st4" d="M139.6,162.9c-1.6,0-4-1.1-5.8-2.4c-2.9-2.2-7.5-7.4-5.6-17.8l3.2,0.6c-1,5.2-0.2,9.4,2.3,12.5
									c2,2.5,4.6,3.5,5.6,3.7l0.4,0c2.3-0.2,4.1-1.2,5.4-2.9c4.1-5.3,2.6-15.7,2.6-15.8l3.3-0.5c0.1,0.5,1.7,11.9-3.3,18.3
									c-1.8,2.3-4.3,3.7-7.3,4.1C140.2,162.9,139.9,162.9,139.6,162.9z"/>
							</g>
							<g>
								<path class="st4" d="M137.3,158.2c-1,0-2.1-0.3-3.2-0.8c-4.5-2.5-5.8-9.4-4-20.6l3.3,0.5c-1.8,11.4,0.2,15.3,1.6,16.7
									c1.1,1.1,2.4,1,2.6,1c5.1-1.6,4.4-13.1,3.8-17l3.3-0.5c0.3,1.8,2.6,18.1-6.2,20.7l0,0C138.2,158.1,137.8,158.2,137.3,158.2z
									"/>
							</g>
						</g>
					</g>
				</g>
				<g>
					<g>
						<path class="st14" d="M92.9,231.9c0,0,12.2,0.3,16.4,7.7l7,10.3c0,0,5.9,14.5,5.7,20.5c0,0,3.9,49.8-24.1,43.6
							c0,0,3.6,19.7,24.5,45.8c0,0,2.1,10.9-16.3,10.3c0,0-8.9-1.7-16.5-27.8c0,0-3.3-25.7-0.9-33.3l-1.1-1c0,0-5,21.4,0.5,65.6
							c0,0-9.2,8.5-28.6-11.7c0,0-5.3-13.2,2.5-27.2c7.8-14,15.7-35.7,18.6-35.9l-0.4-0.9c0,0-12.4,3.1-35.3,40.1
							c0,0-13.3-1.3-14.3-29.2c0,0,2.1-22,44.8-24.8C75.4,283.7,64.1,238.4,92.9,231.9z"/>
					</g>
					<g>
						<path class="st15" d="M79.5,295.1c0,0-26.4,10.9-40.1,38c0,0,3.4,4.1,5.6,4.6c0,0,26.3-40.2,35.3-40.1L79.5,295.1z"/>
					</g>
					<g>
						<path class="st15" d="M85.3,305.1c0,0-22.4,61.7-7.3,69.4c0,0,6.8,2.6,9.2-0.4l1,0.1c0,0-6.7-60.9-0.5-66.4L85.3,305.1z"/>
					</g>
					<g>
						<path class="st15" d="M98.1,314.9l-8-5c0,0-2.2,51.4,30.5,55.2l2.5-4.6C123.1,360.6,100,327.2,98.1,314.9z"/>
					</g>
					<g>
						<path class="st15" d="M91.5,232.2c0,0,19.4,28.7,18.2,49.6c0,0,0,44.7-29.5,15.1c0,0,5.4,18.2,23.2,17.9c0,0,14.7,3.5,19.7-29
							c0,0,0.5-47-25.7-53.9L91.5,232.2z"/>
					</g>
					<g>
						<g>
							<path class="st4" d="M45.2,339.4c-0.2,0-0.4,0-0.6-0.1c-13.4-5.8-15-22.5-15.5-28c0-0.3-0.1-0.6-0.1-0.8l-0.2-0.2l0.1-0.8
								c3.8-27.1,45-27.3,46.9-27.4l0,3.3l0,0c-0.4,0-39.8,0.3-43.6,24.2c0.1,0.3,0.1,0.8,0.2,1.4c0.5,4.8,1.9,19.1,12.1,24.6
								c0.1-0.2,0.3-0.4,0.5-0.7c15.6-24.2,27.1-37,35-38.9l0.8,3.2c-4.8,1.2-14.4,8.6-33,37.4C46.3,338.8,45.9,339.4,45.2,339.4z"
								/>
						</g>
						<g>
							<path class="st4" d="M83.2,376.9c-10.7,0-22.8-11.3-23-11.4c-15.1-15.6,17.5-65.7,18.9-67.8l2.8,1.8
								c-9.1,13.9-30.3,52.3-19.3,63.7c1.8,1.9,15.4,13.1,23.9,9.9c-0.1-1-0.2-2.7-0.4-4.6c-2.4-24.8-4.6-54.1,0.2-61.6l2.8,1.8
								c-4.8,7.5-1,46.7,0.3,59.5c0.7,6.7,0.7,6.7-0.2,7.3C87.3,376.5,85.2,376.9,83.2,376.9z"/>
						</g>
						<g>
							<path class="st4" d="M108.6,371.9c-2.4,0-4.9-0.9-7.1-2.6c0,0-2.5-1.9-3.4-3.5l0,0c-16.2-21-11.5-56.5-11.3-58l3.3,0.5
								c0,0.4-4.8,35.7,10.6,55.6l0.3,0.5c0.9,1.1,4.7,5.4,9.7,3.9c2.8-0.7,9.7-3.3,10.7-7.4c-0.1-0.1-0.2-0.2-0.3-0.4
								c-11.3-15.7-24.8-36.5-24.7-46.7l3.3,0c-0.1,7.2,8.7,23.5,24.1,44.8c0.6,0.9,1.2,1.7,0.9,2.5c-1.1,7.2-12.6,10.2-13.1,10.4
								C110.6,371.8,109.6,371.9,108.6,371.9z"/>
						</g>
					</g>
					<g>
						<g>
							<path class="st4" d="M87.3,267.8C87.4,267.8,87.4,267.8,87.3,267.8c0.1,0.3,0,0.5,0,0.5l-1.3,0.2c-0.2,0-0.4,0.1-0.4,0.4
								c-0.2,2.6-0.2,5.5-0.1,9c0.1,5.3,1.6,7.9,3.9,7.8c2.6-0.1,3.4-2.1,3.2-8.1c-0.1-3.1-0.2-6.8-0.5-8.8c0-0.3-0.2-0.4-0.4-0.4
								l-1.4-0.2c-0.1,0-0.2-0.2-0.2-0.4c0-0.1,0-0.1,0.1-0.1l7.1-0.2c0.1,0,0.1,0,0.1,0.1c0,0.2-0.1,0.4-0.2,0.4l-0.9,0.2
								c-0.2,0.1-0.3,0.2-0.3,0.4c0.2,2.2,0.6,4.9,0.7,8.7c0.1,5.9-3,8.8-8.1,8.9c-4.4,0.1-7.6-1.4-7.8-8.3
								c-0.1-3.8,0.4-7.9,0.4-8.9c0.1-0.3-0.1-0.4-0.4-0.5l-1-0.2c-0.1,0-0.2-0.2-0.2-0.4c0-0.1,0-0.1,0.1-0.1L87.3,267.8z"/>
						</g>
						<g>
							<path class="st4" d="M99.8,277.8c-0.1-3.9,1.4-6.7,3.3-8.3c1.8-1.6,4.2-2.5,7-2.6c1.5,0,2.6,0.1,3.3,0.5
								c0.1,0.1,0.2,0.1,0.2,0.3l0.4,4.1c0,0.1-0.3,0.3-0.4,0.3c0,0-0.1,0-0.1-0.1c-0.6-1.2-1.3-2.7-1.8-3.6
								c-0.1-0.2-0.3-0.4-0.5-0.6c-0.2-0.2-0.6-0.4-1.2-0.4c-1.2,0-2.4,0.7-3.4,1.9c-1.5,1.9-2.2,4.5-2.2,7.9c0.1,5.1,3,7.1,5.7,7
								c0.6,0,1.3-0.1,1.7-0.2c0.8-0.2,1.6-0.5,2.6-0.9c0.1,0,0.2,0.1,0.2,0.4c0,0.1,0,0.1-0.1,0.2c-0.7,0.4-2.2,1.1-3.3,1.5
								c-0.5,0.2-1.6,0.4-2.5,0.4C104,285.9,99.9,283.8,99.8,277.8L99.8,277.8z"/>
						</g>
					</g>
					<g>
						<path class="st4" d="M102.2,317.5c-13.4,0-26.3-17.4-29.5-40.3c-3.3-24.1,5.4-45.3,19.5-47.2c7-1,14.2,2.8,20.1,10.6
							c5.8,7.5,9.9,18,11.4,29.5c3.3,24.1-5.4,45.3-19.5,47.2C103.6,317.4,102.9,317.5,102.2,317.5z M94.3,233.1
							c-0.6,0-1.1,0-1.7,0.1c-12.3,1.7-19.8,21.2-16.7,43.5c3.1,22.3,15.6,39,27.9,37.3c12.3-1.7,19.8-21.2,16.7-43.5
							c-1.5-10.9-5.4-20.9-10.8-28C105,236.4,99.6,233.1,94.3,233.1z"/>
					</g>
					<g>
						<path class="st14" d="M294.2,231.9c0,0-12.2,0.3-16.4,7.7l-7,10.3c0,0-5.9,14.5-5.7,20.5c0,0-3.9,49.8,24.1,43.6
							c0,0-3.6,19.7-24.5,45.8c0,0-2.1,10.9,16.3,10.3c0,0,8.9-1.7,16.5-27.8c0,0,3.3-25.7,0.9-33.3l1.1-1c0,0,5,21.4-0.5,65.6
							c0,0,9.2,8.5,28.6-11.7c0,0,5.3-13.2-2.5-27.2c-7.8-14-15.7-35.7-18.6-35.9l0.4-0.9c0,0,12.4,3.1,35.3,40.1
							c0,0,13.3-1.3,14.3-29.2c0,0-2.1-22-44.8-24.8C311.7,283.7,323.1,238.4,294.2,231.9z"/>
					</g>
					<g>
						<path class="st15" d="M312.2,283.7c0,0,38.8,0,44.5,25.9c0,0-0.2,22.4-14.5,28c0,0,14.5-33.2-30.8-51.4L312.2,283.7z"/>
					</g>
					<g>
						<path class="st15" d="M306.5,298.6c0,0,33,55.9,19.4,65.9c0,0-5.1,8.4-7.9,5.8l-2.4,1.4c0,0-2.7-67.1-9.7-71.6L306.5,298.6z"
							/>
					</g>
					<g>
						<path class="st15" d="M291.9,316.5l7.4-5.8c0,0,1.1,63-23.4,59.2l-3.4-1.2C272.6,368.7,291.3,329,291.9,316.5z"/>
					</g>
					<g>
						<path class="st15" d="M293.2,232.9c0,0,11.3,32.7,4.9,52.6c0,0-11.5,43.2-32.3,7c0,0,0.6,19,17.9,23.2c0,0,13.3,7.1,26.5-23
							c0,0,12.5-45.3-11-58.7L293.2,232.9z"/>
					</g>
					<g>
						<g>
							<path class="st4" d="M342.1,339.4c-0.8,0-1.3-0.7-2.5-2.7c-18.6-28.9-28.2-36.3-33-37.5l0.8-3.2c7.9,1.9,19.4,14.6,35,38.9
								c0.2,0.3,0.3,0.5,0.5,0.7c10.3-5.4,11.6-19.8,12.1-24.6c0.1-0.6,0.1-1.1,0.2-1.4c-3.7-23.9-43.1-24.2-43.6-24.2l0,0l0-3.3
								c0,0,0,0,0,0c2,0,43,0.4,46.9,27.4l0.1,0.8l-0.2,0.2c0,0.2,0,0.5-0.1,0.8c-1.4,14.7-6.6,24.1-15.3,27.9
								C342.5,339.3,342.3,339.4,342.1,339.4z"/>
						</g>
						<g>
							<path class="st4" d="M304,377c-2,0-3.9-0.4-5.8-1.4c-1-0.7-1-0.7-0.4-7.4c1.3-12.9,5.1-52,0.3-59.5l2.8-1.8
								c4.8,7.5,2.6,36.9,0.2,61.6c-0.2,1.9-0.4,3.6-0.4,4.6c8.4,3.2,22-8,23.9-9.9c11-11.4-10.2-49.8-19.3-63.7l2.8-1.8
								c1.4,2.1,34,52.2,18.9,67.8C326.8,365.7,314.6,377,304,377z"/>
						</g>
						<g>
							<path class="st4" d="M278.6,371.9c-1,0-2.1-0.2-3.1-0.5c-0.4-0.1-11.9-3.1-13-10.3c-0.3-0.8,0.3-1.6,0.9-2.5
								c15.4-21.3,24.2-37.6,24.1-44.8l3.3,0c0.1,10.2-13.4,31.1-24.7,46.7c-0.1,0.1-0.2,0.3-0.3,0.4c0.9,4,7.9,6.7,10.6,7.3
								c5.1,1.5,8.9-2.8,9.8-3.9l0,0l0.3-0.4c15.4-19.9,10.7-55.2,10.6-55.6l3.3-0.5c0.2,1.5,5,37-11.3,58l0,0
								c-0.9,1.4-3,3.2-3.5,3.6C283.3,371.1,281,371.9,278.6,371.9z"/>
						</g>
					</g>
					<g>
						<g>
							<path class="st4" d="M280.1,267.8C280.2,267.8,280.2,267.8,280.1,267.8c0.1,0.3,0,0.5,0,0.5l-1.3,0.2c-0.2,0-0.4,0.1-0.4,0.4
								c-0.2,2.6-0.2,5.5-0.1,9c0.1,5.3,1.6,7.9,3.9,7.8c2.6-0.1,3.4-2.1,3.2-8.1c-0.1-3.1-0.2-6.8-0.5-8.8c0-0.3-0.2-0.4-0.4-0.4
								l-1.4-0.2c-0.1,0-0.2-0.2-0.2-0.4c0-0.1,0-0.1,0.1-0.1l7.1-0.2c0.1,0,0.1,0,0.1,0.1c0,0.2-0.1,0.4-0.2,0.4l-0.9,0.2
								c-0.2,0.1-0.3,0.2-0.3,0.4c0.2,2.2,0.6,4.9,0.7,8.7c0.1,5.9-3,8.8-8.1,8.9c-4.4,0.1-7.6-1.4-7.8-8.3
								c-0.1-3.8,0.4-7.9,0.4-8.9c0.1-0.3-0.1-0.4-0.4-0.5l-1-0.2c-0.1,0-0.2-0.2-0.2-0.4c0-0.1,0-0.1,0.1-0.1L280.1,267.8z"/>
						</g>
						<g>
							<path class="st4" d="M292.6,277.8c-0.1-3.9,1.4-6.7,3.3-8.3c1.8-1.6,4.2-2.5,7-2.6c1.5,0,2.6,0.1,3.3,0.5
								c0.1,0.1,0.2,0.1,0.2,0.3l0.4,4.1c0,0.1-0.3,0.3-0.4,0.3c0,0-0.1,0-0.1-0.1c-0.6-1.2-1.3-2.7-1.8-3.6
								c-0.1-0.2-0.3-0.4-0.5-0.6c-0.2-0.2-0.6-0.4-1.2-0.4c-1.2,0-2.4,0.7-3.4,1.9c-1.5,1.9-2.2,4.5-2.2,7.9c0.1,5.1,3,7.1,5.7,7
								c0.6,0,1.3-0.1,1.7-0.2c0.8-0.2,1.6-0.5,2.6-0.9c0.1,0,0.2,0.1,0.2,0.4c0,0.1,0,0.1-0.1,0.2c-0.7,0.4-2.2,1.1-3.3,1.5
								c-0.5,0.2-1.6,0.4-2.5,0.4C296.8,285.9,292.7,283.8,292.6,277.8L292.6,277.8z"/>
						</g>
					</g>
					<g>
						<path class="st4" d="M285,317.5c-0.7,0-1.4,0-2.1-0.1c-14.1-2-22.8-23.1-19.5-47.2l0,0C266.8,246,280.9,228,295,230
							c14.1,2,22.8,23.1,19.5,47.2C311.3,300.1,298.4,317.5,285,317.5z M266.7,270.6c-3.1,22.3,4.4,41.8,16.7,43.5
							c12.3,1.7,24.8-15,27.9-37.3c3.1-22.3-4.4-41.8-16.7-43.5C282.3,231.6,269.8,248.3,266.7,270.6L266.7,270.6z"/>
					</g>
				</g>
			</g>
			<g>
				<path class="st4" d="M196.7,362.9l-0.4-0.1c-56.3-15.3-81.5-54.8-81.8-55.2l2.8-1.7c0.2,0.4,24.7,38.7,79.4,53.7
					c4.8-1.4,49.9-15.2,75-50.7l2.7,1.9c-27.1,38.3-76.8,51.9-77.3,52.1L196.7,362.9z"/>
			</g>
		</g>
	</g>
	<g>
		<g>
			<path class="st0" d="M174.5,352.6c-0.5,0,10,23.1-47.8,22.5c0,0-31.1-27.1-55.9-64.7c0,0,7.7-33.2,37.5-67.4l12.4-8.6
				c0,0,32.5-13.2,5.6-23.6c0,0,11.3-11.9-8.7-13.5c0,0,6.5-6.5-2.5-12s-17,1.8-17,1.8l5.3-9c0,0,3.7-4.8-6-8.8s-18.5,12-18.5,12
				s-3.7,9.1-0.8,16.4c0,0-23,15-37.9,43.3c0,0-24.4,48.3-23.3,68.4c0,0,8.8,34.2,32.7,60.7s38.8,44.6,85.1,76.5l127.7-4.8
				c0,0,48.3-32.8,72.6-62.8c24.3-29.9,41.8-59.5,40.2-73.7c-1.7-14.2-21.4-48.6-21.4-48.6s-27.6-46.2-41.3-61.1
				c0,0,7.8-18.7-11.9-27.3c0,0-12.8-5.4-12.9,7.5l4.8,8.4c0,0-9.5-7-18.4-1.3c0,0-4.3,5.3-1.4,11.3c0,0-16,0.9-9.2,13.2l1,1.6
				c0,0-6.4,0.3-10.1,5.5s11.3,14.6,11.3,14.6s15.3,6,22.4,17.9c7.1,12,33.3,63.4,33.3,63.4l-52.7,61.9c0,0-0.8,5.9-27.4,0.9
				c-26.6-4.9-23.7-14.1-22.9-21.7l-21.7,9.5L174.5,352.6z"/>
		</g>
		<g>
			<path class="st1" d="M174.5,352.6c0,0,1,9.8,23.7,17.7c0,0,19.7-9.7,20.1-18.5l-20.6,9L174.5,352.6z"/>
		</g>
		<g>
			<path class="st1" d="M274.1,183.1c0,0,13.4-9.6,33.3,31.4c19.9,40.9,43.6,79.1,44.4,82.5c0.8,3.4,35,37.8-87.1,120.3l-2.1,24.8
				c0,0,74-43.8,107.5-116.3c0,0,14.3-17.9-5-47.8c0,0-30.8-60.4-52.4-81.9c0,0,8.1-18.2-14.7-28.9c0,0-14.7,0.2-9.3,11.9l4.6,6.9
				C293.3,185.7,284.4,175.9,274.1,183.1z"/>
		</g>
		<g>
			<path class="st1" d="M127.4,200.4c0,0-50.1,23.2-62.3,103.2c0,0,8.6,38.5,55.7,74.3c0,0,29.6,3.5,38.5-6.1c0,0-22.3,6.5-34.2,3.3
				l-54.5-64.2c0,0,27.9-58.1,33.3-63.4c5.4-5.3,13.3-12.9,17.5-14.1c4.2-1.2,29.5-12.1,4.9-22.4
				C126.4,210.9,133.6,202.9,127.4,200.4z"/>
		</g>
		<g>
			<path class="st12" d="M59.9,213.8c0,0,7.4,35,39.9,40.4l-11.2,20.4c0,0-35.9,2.2-45.9-38.7C42.7,236,55.9,217.3,59.9,213.8z"/>
		</g>
		<g>
			<path class="st12" d="M291.4,252.9l11.3,20.7c0,0,33.8,2.5,44.1-30.3l-17-25.8C329.9,217.5,328.6,247.2,291.4,252.9z"/>
		</g>
		<g>
			<path class="st2" d="M66.5,207.1c0,0,4.5,36.1,37.4,40.3l-4.2,6.8c0,0-30.8-5.1-39.9-40.4L66.5,207.1z"/>
		</g>
		<g>
			<path class="st2" d="M42.7,236c0,0,7.9,40.6,45.9,38.7l-3.5,6.8c0,0-39.1,5.6-47.2-35.3L42.7,236z"/>
		</g>
		<g>
			<path class="st2" d="M287.8,246.2c0,0,34.3-4.7,36.7-36.2l5.3,7.4c0,0-2.6,30.9-38.4,35.5L287.8,246.2z"/>
		</g>
		<g>
			<path class="st2" d="M303.1,273.4l4.2,6.7c0,0,38.3,5.2,44.7-28.2l-5.1-8.6C346.9,243.3,339.2,272.9,303.1,273.4z"/>
		</g>
		<g>
			<path class="st3" d="M320.6,237.9l-5.3-7.7c0,0,8.4-9.1,9.2-20.2l5.6,8C330.1,218.1,328.4,230.8,320.6,237.9z"/>
		</g>
		<g>
			<path class="st13" d="M320.6,237.9c-0.9,0.9,10.1,13.6,13.4,26.2c0,0,12.6-13.3,12.8-20.8L330.1,218
				C330.1,218,327.7,231.1,320.6,237.9z"/>
		</g>
		<g>
			<path class="st3" d="M334,264.2l5,9.5c0,0,13.6-12.4,12.6-22.5l-4.7-7.9C346.9,243.3,341,258.1,334,264.2z"/>
		</g>
		<g>
			<path class="st13" d="M82.8,248.1c0,0-10.3,12.5-11,23.5c0,0,11,3.4,16.8,3.1l11.4-20.4C100,254.3,88.5,253.6,82.8,248.1z"/>
		</g>
		<g>
			<path class="st3" d="M82.8,248.1l4.4-7.7c0,0,8.1,5.9,16.8,7l-3.9,6.9C100,254.3,89.4,254.4,82.8,248.1z"/>
		</g>
		<g>
			<path class="st3" d="M71.8,271.6c0,0,10.5,3.3,16.8,3.1l-3.5,6.8c0,0-13.2,0.9-14.9-0.8C70.2,280.7,70.6,274.7,71.8,271.6z"/>
		</g>
		<g>
			<g>
				<path class="st4" d="M262.2,442.1c10.7-7.3,20.9-15.2,30.7-23.5c9.9-8.3,19.4-17,28.3-26.2c17.9-18.4,34.1-38.8,45.3-61.8
					c2.8-5.7,5.3-11.7,7.2-17.6c0.8-2.9,1.1-6,0.7-9c-0.2-3-1.3-5.9-2.5-8.9c-4.7-11.9-10.5-23.4-16.6-34.8
					c-12.3-22.6-26.5-44.2-42.1-64.8c16.5,19.9,31.3,41.2,44.1,63.7c6.4,11.3,12.4,22.7,17.3,34.8c1.2,3,2.4,6.2,2.7,9.7
					c0.4,3.4,0.1,6.9-0.8,10.2c-2,6.4-4.4,12.3-7.3,18.2c-5.5,11.8-12.7,22.8-20.5,33.1c-7.9,10.3-16.5,20.1-25.7,29.2
					C304.6,412.3,284.2,428.6,262.2,442.1z"/>
			</g>
			<g>
				<path class="st4" d="M327.2,303.4c-3.7,5.3-7.6,10.4-11.4,15.6l-11.9,15.2c-8,10.1-16.4,19.8-24.7,29.6l-6.4,7.2
					c-1.1,1.2-2,2.3-3.4,3.7c-1.5,1.3-3.6,2-5.5,1.9c-6.5-0.1-13-0.3-19.4-1.4c-6.4-1-12.9-2.5-18.7-5.7c-2.8-1.7-5.5-3.9-7-6.9
					c-1.6-3-1.2-8.3-0.4-11.3c-0.5,3.2-0.6,8.3,1.1,10.9c1.6,2.7,4.3,4.5,7,5.9c5.6,2.8,12,3.9,18.3,4.6c6.3,0.6,12.7,0.9,19.1,0.9
					c1.4,0,2.5-0.4,3.4-1.2c0.9-0.9,2.1-2.3,3.1-3.5l6.3-7.3c8.5-9.6,16.8-19.4,25.2-29.1L327.2,303.4z"/>
			</g>
			<g>
				<path class="st4" d="M321.5,310.6c-6.5-10.6-12.3-21.4-18.1-32.3c-5.7-10.9-11.4-21.9-16.4-33.2c7.3,10,13.5,20.8,19.3,31.7
					C312,287.7,317.3,298.9,321.5,310.6z"/>
			</g>
			<g>
				<g>
					<path class="st4" d="M296.5,195.9c-0.5-3.1-1.8-6-3.4-8.7c-1.5-2.8-3.3-5.2-5.1-7.8c-0.9-1.4-1.9-3-2-5c-0.2-2,0.7-4.2,2.2-5.4
						c3-2.5,6.3-3.2,9.7-3.6l0.4-0.1l0.4,0.2c2.9,1.5,5.4,3.3,7.7,5.3c1.2,1,2.3,2.1,3.3,3.2c1.1,1.1,2.1,2.3,3,3.7
						c1.7,2.9,2.2,6.2,2,9.2c-0.2,3.1-0.9,6.1-2.1,8.9c0.5-3,0.8-5.9,0.5-8.8c-0.2-2.9-1-5.7-2.6-7.9c-0.8-1.1-1.8-2.1-2.9-3.1
						c-1-1-2.2-2-3.3-2.9c-2.2-1.8-4.7-3.5-7.1-4.7l0.8,0.1c-2.8,0.3-6,1.1-7.8,2.7c-0.9,0.8-1.4,1.8-1.4,2.9l0.1,0.9l0.3,1
						c0.1,0.7,0.6,1.3,0.9,1.9c1.6,2.7,3.2,5.5,4.4,8.5C295.7,189.5,296.7,192.7,296.5,195.9z"/>
				</g>
				<g>
					<path class="st4" d="M293.4,186c-2.3-1.6-4.8-2.9-7.4-3.7c-2.5-0.7-5.1-0.7-7.2,0.4c-2,1.1-4.1,3.1-5.1,5.1
						c-1.2,2-0.8,4.4,0.5,6l-0.6-0.4c1.5,0.5,2.8,1,4.1,1.8c1.3,0.7,2.6,1.5,3.7,2.5c2.3,1.9,4,4.7,3.9,7.6c-0.5-1.3-1.1-2.5-2-3.5
						c-0.9-1-2-1.8-3.1-2.5c-1.1-0.7-2.3-1.3-3.6-1.8c-1.2-0.5-2.5-0.9-3.7-1.2l-0.4-0.1l-0.3-0.3c-1.3-1.3-2.1-2.8-2.4-4.6
						c-0.2-1.8,0.2-3.6,0.9-5c0.8-1.5,1.8-2.7,2.9-3.7c0.6-0.5,1.1-1,1.8-1.5c0.6-0.5,1.4-0.9,2.1-1.2c3-1.4,6.5-0.8,9.2,0.5
						C289.5,181.8,291.7,183.8,293.4,186z"/>
				</g>
				<g>
					<path class="st4" d="M279,197.4c-3.6-0.9-7.4-1.4-10.6-0.6c-1.6,0.4-3,1.2-3.9,2.3c-1,1.1-1.8,2.6-1.7,3.8c0,1.2,0.8,2.5,2,3.6
						c1.2,1.2,2.7,2.3,4.1,3.5c2.8,2.3,6.1,5,7,8.8c-2.2-3.1-5.4-4.7-8.5-6.7c-1.6-1-3.2-2-4.7-3.3c-1.5-1.3-3.1-3.2-3.2-5.8
						c0-2.6,1.3-4.5,2.7-6.1c1.5-1.6,3.7-2.5,5.7-2.7C272.2,193.8,275.9,195.3,279,197.4z"/>
				</g>
				<g>
					<path class="st4" d="M287.8,246.2c-3-2.8-5.7-5.2-9-7.5c-3.3-2.3-6.7-4.6-10.1-6.6l0.3,0.1c-3.1-1.2-6.1-2.5-9-4.2
						c-2.8-1.8-5.7-3.8-7.3-7.4l-0.4-1.5c0-0.5,0-1.1,0.1-1.6c0-0.5,0.3-1,0.5-1.5c0.2-0.5,0.4-0.9,0.7-1.2c0.9-1.4,2.1-2.7,3.4-3.8
						c1.3-1.1,3-1.8,4.6-2.2c0.8-0.1,1.7-0.2,2.5-0.1c0.4,0,0.8,0.1,1.2,0.2c0.2,0.1,0.4,0.1,0.6,0.2c0.1,0.1,0.6,0.2,0.3,0.4
						c0.2-0.1-0.2-0.2-0.3-0.2c-0.2,0-0.4-0.1-0.6-0.1c-0.4,0-0.8,0-1.2,0c-0.8,0.1-1.5,0.3-2.2,0.5c-1.4,0.6-2.6,1.5-3.7,2.5
						c-1,1.1-1.9,2.3-2.6,3.7c-0.6,1.3-0.8,2.3-0.2,3.4c1.1,2.2,3.8,4.1,6.4,5.7c2.7,1.5,5.5,3,8.4,4.1l0.2,0.1l0.1,0.1
						c3.5,2.3,6.7,4.8,9.8,7.6C283.2,239.8,285.6,242.8,287.8,246.2z"/>
				</g>
			</g>
		</g>
		<g>
			<g>
				<path class="st4" d="M134.9,446.7c-22.2-13.9-42.8-30.3-61.7-48.6c-18.7-18.4-35.8-38.8-48-62.3c-2.9-5.9-5.7-12-7.8-18.2
					c-2.6-6.2-2.7-13.8-0.3-20.1c1.9-6.2,3.6-12.5,5.7-18.8c2.1-6.2,4.4-12.4,6.9-18.5c5.1-12.1,11.4-23.8,19.3-34.3
					c7.8-10.5,17.1-20.1,27.9-27.5c-20.9,16-35.4,38.7-45,62.8c-4.9,12.1-8.3,24.6-12,37.2c-2.2,6-2.1,12.4,0.4,18.2
					c2.1,6.1,4.9,12,7.8,17.8c12,23,28.6,43.5,47,61.9c9.1,9.3,18.8,18.1,28.8,26.5C113.8,431.2,124.2,439.2,134.9,446.7z"/>
			</g>
			<g>
				<path class="st4" d="M65.2,303.6l25.3,29.1c8.4,9.7,16.7,19.5,25.2,29.1l6.3,7.3c1,1.1,2.2,2.6,3.1,3.5c0.9,0.8,2,1.2,3.4,1.2
					c6.4,0.1,12.8-0.3,19.1-0.9c6.3-0.7,12.6-1.8,18.3-4.6c2.8-1.4,5.4-3.2,7-5.9c1.7-2.6,2.1-7.2,1.6-10.3
					c0.9,3.1,0.8,7.8-0.8,10.8c-1.5,3-4.2,5.2-7,6.9c-5.8,3.2-12.3,4.6-18.7,5.7c-6.4,1.1-12.9,1.3-19.4,1.4c-1.8,0.1-4-0.5-5.5-1.9
					c-1.4-1.4-2.2-2.5-3.4-3.7l-6.4-7.2c-8.3-9.8-16.7-19.6-24.7-29.6l-11.9-15.2C72.7,314,68.8,308.9,65.2,303.6z"/>
			</g>
			<g>
				<path class="st16" d="M105.4,245.2"/>
			</g>
			<g>
				<g>
					<path class="st4" d="M94.5,198.4c-0.3-3.2,0.8-6.4,1.9-9.4c1.2-3,2.8-5.9,4.4-8.5c0.3-0.6,0.7-1.3,0.9-1.9l0.3-1l0.1-0.9
						c0-1.2-0.4-2.1-1.4-2.9c-1.9-1.6-5-2.4-7.8-2.7l0.8-0.1c-2.4,1.2-4.9,2.9-7.1,4.7c-1.1,0.9-2.2,1.8-3.3,2.9
						c-1.1,1-2.1,2-2.9,3.1c-1.5,2.2-2.3,5-2.6,7.9c-0.3,2.9,0,5.9,0.5,8.8c-1.2-2.8-1.9-5.8-2.1-8.9c-0.2-3.1,0.3-6.4,2-9.2
						c0.9-1.5,1.9-2.7,3-3.7c1.1-1.1,2.2-2.2,3.3-3.2c2.4-2,4.8-3.8,7.7-5.3l0.4-0.2l0.4,0.1c3.4,0.4,6.7,1.1,9.7,3.6
						c1.4,1.3,2.4,3.5,2.2,5.4c-0.1,2-1.1,3.6-2,5c-1.8,2.6-3.6,5.1-5.1,7.8C96.3,192.4,95,195.3,94.5,198.4z"/>
				</g>
				<g>
					<path class="st4" d="M97.5,188.5c1.7-2.3,4-4.2,6.6-5.5c2.6-1.3,6.1-1.8,9.2-0.5c0.8,0.3,1.5,0.7,2.1,1.2
						c0.7,0.4,1.2,1,1.8,1.5c1.1,1,2.2,2.2,2.9,3.7c0.8,1.5,1.2,3.3,0.9,5c-0.2,1.8-1,3.3-2.4,4.6l-0.3,0.3l-0.4,0.1
						c-1.2,0.3-2.5,0.7-3.7,1.2c-1.2,0.5-2.4,1.1-3.6,1.8c-1.1,0.7-2.2,1.5-3.1,2.5c-0.9,1-1.5,2.2-2,3.5c0-2.9,1.7-5.7,3.9-7.6
						c1.1-1,2.4-1.8,3.7-2.5c1.3-0.7,2.6-1.3,4.1-1.8l-0.6,0.4c1.3-1.6,1.7-4,0.5-6c-1-2.1-3.1-4-5.1-5.1c-2.1-1.1-4.7-1.1-7.2-0.4
						C102.4,185.6,99.8,186.9,97.5,188.5z"/>
				</g>
				<g>
					<path class="st4" d="M111.9,199.9c3.1-2.1,6.9-3.5,11-3.1c2.1,0.2,4.2,1.2,5.7,2.7c1.4,1.6,2.7,3.5,2.7,6.1
						c-0.1,2.6-1.7,4.5-3.2,5.8c-1.5,1.3-3.1,2.4-4.7,3.3c-3.1,2-6.4,3.6-8.5,6.7c0.9-3.8,4.2-6.5,7-8.8c1.4-1.2,2.9-2.3,4.1-3.5
						c1.2-1.2,2-2.5,2-3.6c0.1-1.2-0.7-2.7-1.7-3.8c-1-1.2-2.3-1.9-3.9-2.3C119.3,198.5,115.5,199,111.9,199.9z"/>
				</g>
				<g>
					<path class="st4" d="M102.6,248.7c2.3-3.4,5.1-6.5,8.2-9.2c3.1-2.8,6.3-5.2,9.8-7.6l0.1-0.1l0.2-0.1c2.9-1.1,5.7-2.5,8.4-4.1
						c2.6-1.5,5.2-3.4,6.4-5.7c0.5-1.2,0.4-2.1-0.2-3.4c-0.7-1.3-1.5-2.6-2.6-3.7c-1-1.1-2.2-2-3.7-2.5c-0.7-0.3-1.5-0.5-2.2-0.5
						c-0.4,0-0.8-0.1-1.2,0c-0.2,0-0.4,0-0.6,0.1c-0.1,0-0.6,0.1-0.3,0.2c-0.3-0.1,0.2-0.3,0.3-0.4c0.2-0.1,0.4-0.2,0.6-0.2
						c0.4-0.1,0.8-0.2,1.2-0.2c0.8-0.1,1.7,0,2.5,0.1c1.7,0.3,3.3,1.1,4.6,2.2c1.4,1.1,2.5,2.4,3.4,3.8c0.2,0.3,0.5,0.7,0.7,1.2
						c0.2,0.5,0.5,0.9,0.5,1.5c0,0.5,0.1,1.1,0.1,1.6l-0.4,1.5c-1.6,3.6-4.5,5.6-7.3,7.4c-2.8,1.8-5.8,3.1-9,4.2l0.3-0.1
						c-3.4,2-6.8,4.3-10.1,6.6C108.9,243.6,105.7,246,102.6,248.7z"/>
				</g>
			</g>
			<g>
				<path class="st4" d="M70.4,311.2c4.2-11.7,9.5-22.9,15.2-33.8c5.8-10.9,12-21.6,19.3-31.7c-5,11.3-10.7,22.3-16.4,33.2
					C82.7,289.8,76.9,300.7,70.4,311.2z"/>
			</g>
		</g>
		<g>
			<path class="st4" d="M66.7,207.1c0.6,2.4,1.3,4.7,2.2,7c0.8,2.3,1.8,4.5,2.8,6.7c2.1,4.3,4.7,8.4,7.8,12.1
				c3,3.7,6.8,6.7,10.9,9.2c4.1,2.6,8.8,3.9,13.5,5.4c-4.9-0.4-9.9-1.3-14.4-3.7c-4.5-2.2-8.7-5.4-11.9-9.2
				c-3.3-3.9-5.9-8.2-7.7-12.9C68.2,216.9,66.9,212,66.7,207.1z"/>
		</g>
		<g>
			<path class="st4" d="M59.8,213.8c0.9,2.4,1.7,4.8,2.8,7c1,2.3,2.1,4.5,3.4,6.7c2.5,4.3,5.3,8.4,8.7,12c3.2,3.7,7.2,6.7,11.4,9.3
				l3.3,1.8l3.5,1.4c2.3,1.1,4.8,1.4,7.2,2.3c-5-0.4-10.2-1.3-14.8-3.8c-4.6-2.3-8.9-5.4-12.4-9.3c-3.5-3.9-6.4-8.2-8.5-12.9
				C62.2,223.8,60.5,218.9,59.8,213.8z"/>
		</g>
		<g>
			<path class="st4" d="M42.7,236.7c1,2.5,2,5,3.3,7.3c1.2,2.4,2.5,4.7,3.9,6.9c2.9,4.4,6.3,8.5,10.2,11.9c3.8,3.5,8.4,6.2,13.3,8.2
				c4.8,2.2,10.1,2.8,15.5,3.6c-1.3,0.1-2.7,0.1-4,0.1c-1.4,0-2.7,0.1-4.1-0.2l-4-0.6c-1.4-0.2-2.6-0.7-4-1.1
				c-1.3-0.4-2.6-0.8-3.9-1.4c-1.2-0.6-2.5-1.1-3.7-1.8c-2.3-1.5-4.6-3-6.7-4.9c-4.1-3.7-7.6-8-10.2-12.8
				C45.7,247.2,43.7,242.1,42.7,236.7z"/>
		</g>
		<g>
			<path class="st4" d="M37.8,246.3c0.8,2.6,1.6,5.2,2.8,7.6c1.1,2.5,2.3,4.8,3.7,7.1c2.9,4.5,6.4,8.5,10.6,11.6
				c4.2,3.1,9,5.6,14.1,6.8c2.5,0.9,5.2,1,7.9,1.5c2.7,0.4,5.4,0.3,8.1,0.6c-2.7,0.3-5.4,0.6-8.2,0.6c-2.7-0.3-5.5-0.2-8.2-0.9
				c-5.5-0.9-10.7-3.4-15.2-6.7c-4.5-3.4-8.2-7.7-10.8-12.6C40.2,257,38.4,251.7,37.8,246.3z"/>
		</g>
		<g>
			<path class="st4" d="M324.5,211.2c-0.2,4.5-1.4,9-3.3,13.2c-1.8,4.2-4.6,8.1-7.9,11.3c-3.4,3.2-7.3,5.9-11.6,7.5
				c-2.1,1-4.4,1.4-6.6,2c-2.2,0.4-4.5,0.6-6.8,0.8c4.4-1.3,8.7-2.5,12.6-4.6c4-1.9,7.5-4.5,10.7-7.5c3.2-3,5.8-6.6,8-10.4
				c1.1-1.9,2-3.9,2.8-6C323.3,215.5,324,213.4,324.5,211.2z"/>
		</g>
		<g>
			<path class="st4" d="M329.9,218.9c-0.4,4.5-1.9,9-4,13.1c-2.1,4.1-5,7.9-8.4,11c-3.5,3.1-7.4,5.7-11.8,7.3
				c-2.1,0.9-4.4,1.4-6.6,2c-2.3,0.4-4.5,0.6-6.8,0.8c4.4-1.3,8.7-2.4,12.6-4.5c4-1.9,7.6-4.4,10.9-7.3c3.3-2.9,6.1-6.4,8.4-10.1
				c1.2-1.9,2.2-3.8,3.1-5.9C328.4,223.1,329.2,221,329.9,218.9z"/>
		</g>
		<g>
			<path class="st4" d="M346.9,243c-0.7,4.8-2.7,9.3-5.3,13.4c-2.7,4.1-6.1,7.7-10.2,10.4c-4.1,2.6-8.6,4.8-13.5,5.7
				c-1.2,0.3-2.4,0.5-3.6,0.6l-3.6,0.4c-2.4,0-4.8-0.1-7.2-0.2c2.4-0.4,4.7-0.6,7.1-1c2.3-0.6,4.7-0.8,6.8-1.6
				c1.1-0.4,2.2-0.7,3.3-1.1l3.2-1.4c1.1-0.4,2.1-1,3.1-1.6c1-0.6,2.1-1.1,3-1.8c3.9-2.5,7.2-5.8,10.1-9.5
				C342.9,251.6,345.2,247.5,346.9,243z"/>
		</g>
		<g>
			<path class="st4" d="M351.6,252.9c0,2.4-0.7,4.8-1.4,7.2c-0.9,2.3-1.9,4.5-3.3,6.6c-2.7,4.2-6.6,7.5-11,9.9
				c-4.4,2.4-9.3,3.5-14.1,4.1c-2.4,0.2-4.9,0.2-7.3,0.2c-2.4-0.3-4.8-0.5-7.2-0.8c2.4-0.2,4.8-0.3,7.2-0.4c2.4-0.3,4.7-0.5,7.1-0.9
				c4.6-1,9.2-2.2,13.2-4.4C343,270.1,349.2,262.3,351.6,252.9z"/>
		</g>
	</g>
	<g>
		<path class="st0" d="M130.9,417.2c0,0,51.2,38.8,133.7,1.8c0,0-7.9,65.2-5.5,112.6c0,0-0.9,42.1,1.8,56.2c0,0-39.2,13.4-125.1,3.6
			C135.8,591.4,144.8,513.1,130.9,417.2z"/>
		<path class="st1" d="M264.7,417.2c0,0-7.2,118-3.1,172.5c0,0-47.5,8.5-70.4,5.3c0,0,50.8,3,43.7-27.1c-7.1-30-1.2-124.9-1.2-124.9
			S236.3,428.5,264.7,417.2z"/>
		<g>
			<g>
				<path class="st4" d="M135.8,591.4c0.5-7.4,0.9-14.9,1.1-22.3c0.3-7.4,0.5-14.9,0.5-22.3c0.1-14.9,0.1-29.7-0.5-44.6
					c-0.4-14.9-1.2-29.7-2.2-44.6c-0.9-14.9-2.4-29.7-3.6-44.5c1.3,7.3,2.5,14.7,3.5,22.1c0.9,7.4,1.9,14.8,2.6,22.2
					c1.6,14.8,2.3,29.8,3,44.7c0.3,14.9,0.4,29.9-0.3,44.8C139.2,561.7,138.1,576.6,135.8,591.4z"/>
			</g>
			<g>
				<path class="st4" d="M260.8,587.8c-1.4-15.3-1.9-30.7-2.3-46.1c-0.3-15.4-0.1-30.8,0.1-46.1c0.5-15.4,1.1-30.7,2.2-46.1
					c1.2-15.3,2.7-30.7,5.5-45.8l-1,11.5l-0.7,11.5c-0.5,7.7-0.9,15.3-1.2,23c-0.6,15.3-1.2,30.7-1.5,46
					c-0.5,15.3-0.6,30.7-0.9,46.1c-0.1,7.7-0.2,15.4-0.2,23C260.7,572.4,260.8,580.1,260.8,587.8z"/>
			</g>
		</g>
	</g>
	<g>
		<g>
			<path class="st5" d="M135.8,591.4c0,0,90.3,9.3,125.5-4.1c0,0,20.8,42.1,21.3,62.4c0.5,20.3,31.2,38.1,31.2,38.1
				s-54.1,31.1-116.9,8c-62.8-23.1-105.2,18-105.2,18s21.4-25.9,23.2-56.5C116.7,626.6,135.8,591.4,135.8,591.4z"/>
		</g>
		<g>
			<path class="st6" d="M226.7,595.1c0,0,38.3,26.4,38,65.2c0,0,8.1,24.3,29.9,26.4c0,0-19.8,15.5-64.7,3.6c0,0-11.9-5.3-10.4-26.1
				c0,0-4.3,16.2-0.1,23.1c0,0-17.4-10.9-54.6-7.9c0,0-2.8-9.1,0-23.1c0,0-5.1,19.5-4.8,22.1c0,0-38.9,1.4-66.4,33.7
				c0,0,28.6-28.8,71.9-24c0,0,26.6,4.7,39,10.5c12.4,5.8,61.2,14.3,109.1-10.6c0,0-24.5-9.5-30.8-34.2c0,0-10.1-50.4-22.8-65.7
				C260.2,587.8,237.6,594.6,226.7,595.1z"/>
		</g>
		<g>
			<path class="st4" d="M89.7,716.1c6.5-7.9,14.5-13.6,23.2-18.4c8.7-4.7,18.3-7.9,28.1-9.6c9.8-1.7,19.9-1.4,29.8-0.3l7.3,1.4
				c2.4,0.5,4.9,0.9,7.3,1.7l14.2,4.3c18.5,6,38.2,8.7,57.7,7.4c19.4-1.2,39-6,56.2-15.2l0.1,1c-8.9-4.3-16.9-10.4-22.9-18.3
				c-3-3.9-5.4-8.4-6.9-13.1c-1.7-4.7-2.2-9.7-3.3-14.3c-2.2-9.5-5.3-18.7-8.8-27.8c-3.5-9.1-7.3-18.1-11.5-26.8l1.8,0.6
				c-5,2.3-10.2,3.8-15.5,4.7c-5.3,1-10.5,1.5-15.8,2c-10.6,0.8-21.1,1-31.7,1c-21.1-0.1-42.2-1.3-63.3-3.1l1.6-0.9
				c-5,9.8-9.2,20.1-12.7,30.6c-3.5,10.5-6.3,21.3-8.2,32.2l-1.5,8.3c-0.6,2.8-1.3,5.5-2,8.2c-1.5,5.4-3.3,10.7-5.4,15.9
				c-2.2,5.2-4.7,10.2-7.6,15c-1.4,2.4-3,4.8-4.6,7c-0.8,1.1-1.7,2.3-2.5,3.4l-1.3,1.6l-0.7,0.8C90.3,715.6,90.3,715.9,89.7,716.1z
				 M89.9,715.9c-0.2-0.3,0.3-0.5,0.4-0.8l0.6-0.8l1.3-1.7c0.8-1.1,1.6-2.3,2.4-3.4c1.5-2.3,3-4.7,4.3-7.1c2.7-4.9,5-9.9,7-15.1
				c2-5.2,3.7-10.5,5.1-15.8c0.6-2.7,1.3-5.4,1.8-8.1l1.4-8.2c1.7-11.1,4.3-22,7.6-32.8c3.4-10.7,7.3-21.2,12.5-31.3l0.5-1l1.1,0.1
				c20.9,1.8,42,2.7,63,3.1c10.5,0.1,21,0,31.5-0.8c5.2-0.5,10.4-0.9,15.5-1.8c5.1-0.8,10.1-2.1,14.8-4.1l1.3-0.6l0.5,1.2
				c4.1,9,7.8,18,11.1,27.3c3.3,9.2,6.3,18.6,8.3,28.2c1.1,4.8,1.5,9.7,3,14.3c1.4,4.6,3.7,8.9,6.6,12.8c5.8,7.7,13.7,14,22.4,18
				l1,0.5l-0.9,0.5c-8.7,4.8-18,8.3-27.5,11.1c-9.5,2.8-19.3,4.5-29.2,5.3c-19.8,1.9-39.9-0.7-58.7-6.8l-14-4.4
				c-2.3-0.8-4.7-1.3-7.1-1.7l-7.1-1.4c-9.6-1.1-19.4-1.5-29.1-0.1c-9.6,1.5-19,4.4-27.7,8.8c-4.4,2.1-8.6,4.7-12.6,7.5
				c-1.9,1.5-3.9,2.9-5.8,4.5C93.3,712.5,91.6,714.6,89.9,715.9z"/>
		</g>
	</g>
</g>
</svg>
