<?xml version="1.0" encoding="utf-8"?>
<!-- Generator: Adobe Illustrator 16.0.0, SVG Export Plug-In . SVG Version: 6.00 Build 0)  -->
<!DOCTYPE svg PUBLIC "-//W3C//DTD SVG 1.1//EN" "http://www.w3.org/Graphics/SVG/1.1/DTD/svg11.dtd">
<svg version="1.1" id="Layer_1" xmlns="http://www.w3.org/2000/svg" xmlns:xlink="http://www.w3.org/1999/xlink" x="0px" y="0px"
	 width="314.605px" height="314.607px" viewBox="0 0 314.605 314.607" enable-background="new 0 0 314.605 314.607"
	 xml:space="preserve">
<path fill="#A5A7A8" d="M157.303,0c86.88,0,157.302,70.431,157.302,157.304c0,86.878-70.422,157.304-157.302,157.304
	C70.428,314.607,0,244.182,0,157.304C0,70.431,70.428,0,157.303,0z"/>
<path fill="#FFFFFF" d="M206.999,255.233h-100.85c-12.24,0-22.29-10.05-22.29-22.292V83.311c0-12.238,10.05-22.288,22.29-22.288
	h100.85c12.238,0,22.292,10.05,22.292,22.288v149.63C229.291,245.184,219.237,255.233,206.999,255.233z"/>
<path fill="#A5A7A8" d="M209.371,174.115H100.12c-1.645,0-2.923-1.28-2.923-2.924v-4.749c0-1.644,1.278-2.924,2.923-2.924h109.251
	c1.645,0,2.929,1.28,2.929,2.924v4.749C212.299,172.834,211.015,174.115,209.371,174.115z"/>
<path fill="#A5A7A8" d="M209.371,191.47H100.12c-1.645,0-2.923-1.28-2.923-2.924v-4.749c0-1.644,1.278-2.924,2.923-2.924h109.251
	c1.645,0,2.929,1.28,2.929,2.924v4.749C212.299,190.189,211.015,191.47,209.371,191.47z"/>
<path fill="#A5A7A8" d="M154.381,209.009H100.12c-1.645,0-2.923-1.28-2.923-2.924v-4.749c0-1.644,1.278-2.924,2.923-2.924h54.262
	c1.645,0,2.922,1.28,2.922,2.924v4.749C157.303,207.729,156.026,209.009,154.381,209.009z"/>
<path fill="#A5A7A8" d="M205.534,145.066H104.138c-3.652,0-6.759-3.109-6.759-6.761V78.926c0-3.652,3.106-6.757,6.759-6.757h101.396
	c3.657,0,6.766,3.104,6.766,6.757v59.379C212.299,142.141,209.191,145.066,205.534,145.066z"/>
</svg>
