<?xml version="1.0" encoding="utf-8"?>
<!-- Generator: Adobe Illustrator 21.0.2, SVG Export Plug-In . SVG Version: 6.00 Build 0)  -->
<svg version="1.1" id="Capa_1" xmlns="http://www.w3.org/2000/svg" xmlns:xlink="http://www.w3.org/1999/xlink" x="0px" y="0px"
	 viewBox="0 0 36.7 36.7" style="enable-background:new 0 0 36.7 36.7;" xml:space="preserve">
<style type="text/css">
	.st0{opacity:0.7;fill:#FFFFFF;}
</style>
<path class="st0" d="M18.3,36.7C8.2,36.7,0,28.5,0,18.3C0,8.2,8.2,0,18.3,0s18.3,8.2,18.3,18.3C36.7,28.5,28.5,36.7,18.3,36.7z
	 M18.3,1.5C9,1.5,1.5,9,1.5,18.3c0,9.3,7.6,16.9,16.9,16.9s16.9-7.6,16.9-16.9C35.2,9,27.6,1.5,18.3,1.5z"/>
<path class="st0" d="M18.7,3.2c-8.3,0-15,6.7-15,15c0,8.3,6.7,15,15,15s15-6.7,15-15C33.7,9.9,27,3.2,18.7,3.2z M24.2,8h1.6
	l-7.2,7.2l-0.8-0.8L24.2,8z M10.3,8l9.2,9.2l-0.8,0.8L8.7,8H10.3z M8.7,9.2l9.4,9.4l-0.8,0.8l-8.6-8.6V9.2z M8.7,12l8,8l-0.8,0.8
	l-7.2-7.2V12z M8.7,14.8l6.6,6.6l-0.8,0.8l-5.8-5.8V14.8z M13.9,22.9l-0.8,0.8l-1.4-1.4v-1.6L13.9,22.9z M8.7,29.2L23.8,14l0,0l0,0
	l3.6,3.6l-0.8,0.8l1,1l0,0L26,21.1l-0.8-0.8l0.8-0.8l-1-1l0.8-0.8l-2-2L10.3,29.2H8.7z M11.5,29.2l12.1-12.1l0.8,0.8L13.1,29.2H11.5
	z M15.9,29.2h-1.6l9.9-9.9l0.8,0.8L15.9,29.2z M24.2,29.2l-3.5-3.5l0.8-0.8l4.3,4.4H24.2z M27,29.2L22,24.3l0.8-0.8l5.7,5.8H27z
	 M20.1,16.7l-0.8-0.8L27,8h1.6L20.1,16.7z"/>
</svg>
