<?xml version="1.0" encoding="utf-8"?>
<!-- Generator: Adobe Illustrator 16.0.0, SVG Export Plug-In . SVG Version: 6.00 Build 0)  -->
<!DOCTYPE svg PUBLIC "-//W3C//DTD SVG 1.1//EN" "http://www.w3.org/Graphics/SVG/1.1/DTD/svg11.dtd">
<svg version="1.1" id="Layer_1" xmlns="http://www.w3.org/2000/svg" xmlns:xlink="http://www.w3.org/1999/xlink" x="0px" y="0px"
	 width="314.372px" height="314.367px" viewBox="0 0 314.372 314.367" enable-background="new 0 0 314.372 314.367"
	 xml:space="preserve">
<path fill="#A5A7A8" d="M157.185,0c86.81,0,157.187,70.377,157.187,157.185c0,86.814-70.377,157.183-157.187,157.183
	C70.377,314.367,0,243.999,0,157.185C0,70.377,70.377,0,157.185,0z"/>
<g>
	<g>
		<g>
			<path fill="#FFFFFF" d="M173.25,189.496c-0.728-0.728-1.644-1.455-2.551-1.823c-2.011-1.095-4.381-1.643-6.571-2.371v17.338
				c3.646-0.36,7.847-1.643,9.67-5.109l0,0c0.915-1.644,1.096-3.654,0.735-5.477C174.344,191.139,173.986,190.231,173.25,189.496z"
				/>
		</g>
		<g>
			<path fill="#FFFFFF" d="M173.797,197.531L173.797,197.531L173.797,197.531L173.797,197.531z"/>
		</g>
		<g>
			<path fill="#FFFFFF" d="M147.147,161.932c-0.548,0.916-1.096,2.011-1.096,3.106c-0.184,1.096,0,2.37,0.364,3.286
				c0.363,0.907,1.279,1.643,2.007,2.371c0.915,0.727,2.011,1.095,3.105,1.643c0.912,0.368,2.007,0.728,3.103,1.096v-15.701
				C151.892,158.1,148.79,159.373,147.147,161.932z"/>
		</g>
		<g>
			<path fill="#FFFFFF" d="M173.986,197.351C173.797,197.531,173.797,197.531,173.986,197.351L173.986,197.351
				C173.797,197.531,173.797,197.531,173.986,197.351z"/>
		</g>
		<g>
			<path fill="#FFFFFF" d="M173.986,197.163L173.986,197.163L173.986,197.163z"/>
		</g>
		<g>
			<path fill="#FFFFFF" d="M170.152,103.148c14.787-12.413,24.646-40.165,18.433-41.44c-8.027-1.643-25.553,5.477-33.954,6.752
				c-12.049,1.463-25.01-12.96-32.313-4.929c-6.024,6.572,4.198,30.307,20.265,40.712c-47.648,23.366-114.83,141.116,2.19,149.699
				C306.704,265.623,225.647,125.966,170.152,103.148z M184.203,195.888c-0.548,4.562-2.918,8.763-6.572,11.502
				c-3.833,2.918-8.574,4.381-13.503,4.749v5.109c0,1.275-0.548,2.739-1.644,3.654c-1.466,1.275-3.472,1.455-5.115,0.728
				s-2.738-2.559-2.738-4.381v-5.477c-0.731-0.179-1.643-0.368-2.374-0.547c-4.383-1.275-8.58-3.654-11.682-7.12
				c-1.464-1.823-2.738-3.834-3.654-5.845c-0.18-0.547-0.363-1.095-0.547-1.643c-0.181-0.547-0.364-1.095-0.364-1.643
				c-0.185-0.907,0-1.823,0.548-2.739c0.911-1.643,2.738-2.738,4.565-2.55c1.822,0.179,3.466,1.455,4.013,3.286
				c0.185,0.548,0.368,1.096,0.548,1.644c0.185,0.547,0.368,1.095,0.732,1.643c0.547,0.907,1.279,1.823,2.007,2.739
				c1.643,1.643,3.834,2.738,6.024,3.286v-18.809c-4.382-1.095-8.943-2.55-12.413-5.477c-1.827-1.275-3.286-3.098-4.197-5.109
				c-1.096-2.19-1.463-4.561-1.463-6.751c0-2.379,0.363-4.75,1.463-6.94c0.911-2.009,2.19-3.832,3.833-5.295
				c3.466-3.286,8.216-5.109,12.777-5.656v-0.368v-4.929c0-1.275,0.547-2.738,1.643-3.65c1.463-1.279,3.47-1.459,5.111-0.732
				c1.643,0.732,2.738,2.559,2.738,4.382v4.929v0.368c0.547,0,1.283,0.179,1.831,0.363c4.562,0.911,9.123,2.738,12.408,6.024
				c1.644,1.643,2.927,3.47,3.834,5.479c0.188,0.547,0.548,1.095,0.736,1.822c0.18,0.548,0.359,1.096,0.359,1.643
				c0.188,0.916,0,1.823-0.359,2.738c-0.736,1.643-2.559,2.739-4.57,2.739c-1.822,0-3.646-1.275-4.192-3.106
				c-0.188-0.548-0.368-1.096-0.548-1.643c-0.188-0.548-0.548-1.096-0.736-1.455c-0.548-0.916-1.274-1.643-2.19-2.378
				c-1.823-1.457-4.193-2.189-6.572-2.553v18.076c2.738,0.728,5.477,1.455,8.215,2.371c4.022,1.643,7.668,4.014,9.858,7.847
				c-0.359-0.548-0.728-1.095,0,0c0.736,1.095,0.368,0.547,0,0C184.023,188.768,184.571,192.422,184.203,195.888z"/>
		</g>
		<g>
			<path fill="#FFFFFF" d="M173.797,197.711C173.797,197.711,173.618,197.711,173.797,197.711
				C173.618,197.711,173.797,197.711,173.797,197.711z"/>
		</g>
	</g>
</g>
</svg>
