<?xml version="1.0" encoding="utf-8"?>
<!-- Generator: Adobe Illustrator 21.0.2, SVG Export Plug-In . SVG Version: 6.00 Build 0)  -->
<svg version="1.1" id="Capa_1" xmlns="http://www.w3.org/2000/svg" xmlns:xlink="http://www.w3.org/1999/xlink" x="0px" y="0px"
	 viewBox="0 0 1080.3 509.4" style="enable-background:new 0 0 1080.3 509.4;" xml:space="preserve">
<style type="text/css">
	.st0{fill:#EEEEED;}
	.st1{fill:#CECECE;}
	.st2{opacity:0.17;fill:#56ABDD;}
	.st3{fill:#AFAEB4;}
	.st4{fill:#9B999F;}
	.st5{fill:#633E00;}
	.st6{fill:#00135B;}
	.st7{fill:#A5A7A8;}
	.st8{fill:#FFFFFF;}
	.st9{fill:#003056;}
	.st10{fill:#83B93A;}
	.st11{fill:#282E55;}
	.st12{fill:#242740;}
	.st13{fill:none;stroke:#1C1C1B;stroke-miterlimit:10;}
	.st14{fill:#F8B454;}
	.st15{fill:#DD9239;}
	.st16{fill:#BF8D36;}
	.st17{fill:#A16F2A;}
	.st18{fill:#1C1C1B;}
	.st19{fill:#8F8F90;}
	.st20{fill:#0A567D;}
	.st21{fill:#293766;}
	.st22{fill:#EBE221;}
	.st23{fill:#EBC518;}
	.st24{fill:#AAC312;}
	.st25{fill:#9CAB21;}
	.st26{fill:#C1BFBE;}
	.st27{fill:#A7A7A7;}
</style>
<rect x="0.2" y="0.3" class="st0" width="1080" height="508.8"/>
<polygon class="st1" points="1080.2,122.3 0.2,122.3 0.2,145.9 1043.5,145.9 1043.5,509.1 1080.1,509.1 1080.1,145.9 1080.2,145.9 
	"/>
<rect x="385.2" y="143" class="st1" width="41.1" height="190.4"/>
<rect x="703.7" y="143" class="st1" width="41.1" height="189.8"/>
<rect x="86.8" y="145.9" class="st2" width="298.4" height="186.3"/>
<rect x="144.6" y="483.9" class="st3" width="898.6" height="25.3"/>
<rect x="144.6" y="458.7" class="st4" width="898.6" height="25.3"/>
<rect x="144.6" y="433.4" class="st3" width="898.6" height="25.3"/>
<rect x="144.6" y="408.2" class="st4" width="898.6" height="25.3"/>
<rect x="144.6" y="382.8" class="st3" width="898.6" height="25.3"/>
<rect x="144.6" y="332.3" class="st3" width="898.6" height="25.3"/>
<rect x="144.6" y="357.6" class="st4" width="898.6" height="25.3"/>
<rect x="744.8" y="145.9" class="st2" width="298.4" height="186.3"/>
<rect x="426.3" y="145.9" class="st2" width="277.4" height="186.4"/>
<polygon class="st5" points="87.7,306.6 87.7,145.9 0.2,145.9 0.2,509.1 57.1,509.1 57.1,509.2 144.6,509.2 144.6,306.6 "/>
<path class="st1" d="M488.6,492.9h-3.4c-0.6,0-1.1-0.5-1.1-1.1V366.5c0-0.6,0.5-1.1,1.1-1.1h3.4c0.6,0,1.1,0.5,1.1,1.1v125.4
	C489.7,492.4,489.2,492.9,488.6,492.9z"/>
<path class="st1" d="M498.8,492.9h-3.4c-0.6,0-1.1-0.5-1.1-1.1V366.5c0-0.6,0.5-1.1,1.1-1.1h3.4c0.6,0,1.1,0.5,1.1,1.1v125.4
	C499.8,492.4,499.3,492.9,498.8,492.9z"/>
<g>
	<rect x="614.1" y="433.4" class="st6" width="5.4" height="75.8"/>
	<rect x="581" y="433.5" class="st6" width="2.9" height="75.8"/>
	<rect x="589.3" y="433.5" class="st6" width="2.9" height="75.8"/>
	<rect x="597.5" y="433.5" class="st6" width="2.9" height="75.8"/>
	<rect x="605.8" y="433.5" class="st6" width="2.9" height="75.8"/>
	<rect x="657.9" y="433.4" class="st6" width="5.4" height="75.8"/>
	<rect x="624.9" y="433.5" class="st6" width="2.9" height="75.8"/>
	<rect x="633.1" y="433.5" class="st6" width="2.9" height="75.8"/>
	<rect x="641.4" y="433.5" class="st6" width="2.9" height="75.8"/>
	<rect x="649.6" y="433.5" class="st6" width="2.9" height="75.8"/>
	<rect x="701.7" y="433.4" class="st6" width="5.4" height="75.8"/>
	<rect x="668.7" y="433.5" class="st6" width="2.9" height="75.8"/>
	<rect x="677" y="433.5" class="st6" width="2.9" height="75.8"/>
	<rect x="685.2" y="433.5" class="st6" width="2.9" height="75.8"/>
	<rect x="693.5" y="433.5" class="st6" width="2.9" height="75.8"/>
	<rect x="745.6" y="433.4" class="st6" width="5.4" height="75.8"/>
	<rect x="712.6" y="433.4" class="st6" width="2.9" height="75.8"/>
	<rect x="720.8" y="433.4" class="st6" width="2.9" height="75.8"/>
	<rect x="729.1" y="433.4" class="st6" width="2.9" height="75.8"/>
	<rect x="737.3" y="433.4" class="st6" width="2.9" height="75.8"/>
	<rect x="789.4" y="433.4" class="st6" width="5.4" height="75.8"/>
	<rect x="756.4" y="433.4" class="st6" width="2.9" height="75.8"/>
	<rect x="764.7" y="433.4" class="st6" width="2.9" height="75.8"/>
	<rect x="800.2" y="433.4" class="st6" width="2.9" height="75.8"/>
	<rect x="772.9" y="433.4" class="st6" width="2.9" height="75.8"/>
	<rect x="781.2" y="433.4" class="st6" width="2.9" height="75.8"/>
	
		<rect x="537.2" y="433.4" transform="matrix(-1 -6.126623e-11 6.126623e-11 -1 1079.765 942.6379)" class="st6" width="5.4" height="75.8"/>
	
		<rect x="564.5" y="433.4" transform="matrix(-1 -6.637636e-11 6.637636e-11 -1 1131.8707 942.6499)" class="st6" width="2.9" height="75.8"/>
	
		<rect x="556.3" y="433.4" transform="matrix(-1 -5.616497e-11 5.616497e-11 -1 1115.3644 942.6499)" class="st6" width="2.9" height="75.8"/>
	
		<rect x="548" y="433.4" transform="matrix(-1 -6.637636e-11 6.637636e-11 -1 1098.858 942.6499)" class="st6" width="2.9" height="75.8"/>
	
		<rect x="671.4" y="306.6" transform="matrix(1.620109e-10 -1 1 1.620109e-10 231.502 1115.3442)" class="st6" width="4" height="270.6"/>
	
		<rect x="671.4" y="365.5" transform="matrix(1.620109e-10 -1 1 1.620109e-10 172.6341 1174.2122)" class="st6" width="4" height="270.6"/>
</g>
<g>
	<rect x="885.1" y="433.4" class="st6" width="5.4" height="75.8"/>
	<rect x="852" y="433.5" class="st6" width="2.9" height="75.8"/>
	<rect x="860.3" y="433.5" class="st6" width="2.9" height="75.8"/>
	<rect x="868.5" y="433.5" class="st6" width="2.9" height="75.8"/>
	<rect x="876.8" y="433.5" class="st6" width="2.9" height="75.8"/>
	<rect x="928.9" y="433.4" class="st6" width="5.4" height="75.8"/>
	<rect x="895.9" y="433.5" class="st6" width="2.9" height="75.8"/>
	<rect x="904.1" y="433.5" class="st6" width="2.9" height="75.8"/>
	<rect x="912.4" y="433.5" class="st6" width="2.9" height="75.8"/>
	<rect x="920.6" y="433.5" class="st6" width="2.9" height="75.8"/>
	<rect x="972.7" y="433.4" class="st6" width="5.4" height="75.8"/>
	<rect x="939.7" y="433.5" class="st6" width="2.9" height="75.8"/>
	<rect x="948" y="433.5" class="st6" width="2.9" height="75.8"/>
	<rect x="956.2" y="433.5" class="st6" width="2.9" height="75.8"/>
	<rect x="964.5" y="433.5" class="st6" width="2.9" height="75.8"/>
	<rect x="1016.6" y="433.4" class="st6" width="5.4" height="75.8"/>
	<rect x="983.6" y="433.4" class="st6" width="2.9" height="75.8"/>
	<rect x="991.8" y="433.4" class="st6" width="2.9" height="75.8"/>
	<rect x="1000.1" y="433.4" class="st6" width="2.9" height="75.8"/>
	<rect x="1008.3" y="433.4" class="st6" width="2.9" height="75.8"/>
	<rect x="1060.4" y="433.4" class="st6" width="5.4" height="75.8"/>
	<rect x="1027.4" y="433.4" class="st6" width="2.9" height="75.8"/>
	<rect x="1035.7" y="433.4" class="st6" width="2.9" height="75.8"/>
	<rect x="1071.2" y="433.4" class="st6" width="2.9" height="75.8"/>
	<rect x="1043.9" y="433.4" class="st6" width="2.9" height="75.8"/>
	<rect x="1052.2" y="433.4" class="st6" width="2.9" height="75.8"/>
	
		<rect x="808.2" y="433.4" transform="matrix(-1 -6.126623e-11 6.126623e-11 -1 1621.765 942.6379)" class="st6" width="5.4" height="75.8"/>
	
		<rect x="835.5" y="433.4" transform="matrix(-1 -6.637636e-11 6.637636e-11 -1 1673.8707 942.6499)" class="st6" width="2.9" height="75.8"/>
	
		<rect x="827.3" y="433.4" transform="matrix(-1 -5.616497e-11 5.616497e-11 -1 1657.3644 942.6499)" class="st6" width="2.9" height="75.8"/>
	
		<rect x="819" y="433.4" transform="matrix(-1 -6.637636e-11 6.637636e-11 -1 1640.858 942.6499)" class="st6" width="2.9" height="75.8"/>
	
		<rect x="942.4" y="306.6" transform="matrix(1.617853e-10 -1 1 1.617853e-10 502.502 1386.3442)" class="st6" width="4" height="270.6"/>
	
		<rect x="942.4" y="365.5" transform="matrix(1.617853e-10 -1 1 1.617853e-10 443.6341 1445.2122)" class="st6" width="4" height="270.6"/>
</g>
<g>
	
		<rect x="232.3" y="433.6" transform="matrix(-1 -6.294933e-11 6.294933e-11 -1 469.9343 942.8905)" class="st6" width="5.4" height="75.8"/>
	
		<rect x="188.4" y="433.5" transform="matrix(-1 -6.294933e-11 6.294933e-11 -1 382.252 942.7173)" class="st6" width="5.4" height="75.8"/>
	
		<rect x="224" y="433.5" transform="matrix(-1 -5.935576e-11 5.935576e-11 -1 450.8739 942.7292)" class="st6" width="2.9" height="75.8"/>
	
		<rect x="215.8" y="433.5" transform="matrix(-1 -6.254698e-11 6.254698e-11 -1 434.3577 942.7292)" class="st6" width="2.9" height="75.8"/>
	
		<rect x="207.5" y="433.5" transform="matrix(-1 -5.616497e-11 5.616497e-11 -1 417.8514 942.7292)" class="st6" width="2.9" height="75.8"/>
	
		<rect x="199.2" y="433.5" transform="matrix(-1 -7.339697e-11 7.339697e-11 -1 401.345 942.7292)" class="st6" width="2.9" height="75.8"/>
	
		<rect x="144.6" y="433.5" transform="matrix(-1 -5.890989e-11 5.890989e-11 -1 294.5608 942.7173)" class="st6" width="5.4" height="75.8"/>
	
		<rect x="180.2" y="433.5" transform="matrix(-1 -6.318514e-11 6.318514e-11 -1 363.1827 942.7292)" class="st6" width="2.9" height="75.8"/>
	
		<rect x="171.9" y="433.5" transform="matrix(-1 -5.935576e-11 5.935576e-11 -1 346.6665 942.7292)" class="st6" width="2.9" height="75.8"/>
	
		<rect x="163.7" y="433.5" transform="matrix(-1 -6.318514e-11 6.318514e-11 -1 330.1602 942.7292)" class="st6" width="2.9" height="75.8"/>
	
		<rect x="189.1" y="395.4" transform="matrix(5.483442e-11 -1 1 5.483442e-11 -250.7958 633.0465)" class="st6" width="4" height="93.1"/>
	
		<rect x="189.1" y="454.3" transform="matrix(5.483442e-11 -1 1 5.483442e-11 -309.6814 691.9321)" class="st6" width="4" height="93.1"/>
	
		<rect x="155.4" y="433.5" transform="matrix(-1 -6.637636e-11 6.637636e-11 -1 313.6538 942.7292)" class="st6" width="2.9" height="75.8"/>
</g>
<g>
	
		<rect x="325.3" y="433.6" transform="matrix(-1 -6.294933e-11 6.294933e-11 -1 655.9343 942.8905)" class="st6" width="5.4" height="75.8"/>
	
		<rect x="281.4" y="433.5" transform="matrix(-1 -6.294933e-11 6.294933e-11 -1 568.252 942.7173)" class="st6" width="5.4" height="75.8"/>
	
		<rect x="317" y="433.5" transform="matrix(-1 -5.935576e-11 5.935576e-11 -1 636.874 942.7292)" class="st6" width="2.9" height="75.8"/>
	
		<rect x="308.8" y="433.5" transform="matrix(-1 -6.254698e-11 6.254698e-11 -1 620.3577 942.7292)" class="st6" width="2.9" height="75.8"/>
	
		<rect x="300.5" y="433.5" transform="matrix(-1 -5.616497e-11 5.616497e-11 -1 603.8514 942.7292)" class="st6" width="2.9" height="75.8"/>
	
		<rect x="292.2" y="433.5" transform="matrix(-1 -7.339697e-11 7.339697e-11 -1 587.345 942.7292)" class="st6" width="2.9" height="75.8"/>
	
		<rect x="237.6" y="433.5" transform="matrix(-1 -5.890989e-11 5.890989e-11 -1 480.5608 942.7173)" class="st6" width="5.4" height="75.8"/>
	
		<rect x="273.2" y="433.5" transform="matrix(-1 -6.318514e-11 6.318514e-11 -1 549.1827 942.7292)" class="st6" width="2.9" height="75.8"/>
	
		<rect x="264.9" y="433.5" transform="matrix(-1 -5.935576e-11 5.935576e-11 -1 532.6665 942.7292)" class="st6" width="2.9" height="75.8"/>
	
		<rect x="256.7" y="433.5" transform="matrix(-1 -6.318514e-11 6.318514e-11 -1 516.1602 942.7292)" class="st6" width="2.9" height="75.8"/>
	
		<rect x="282.1" y="395.4" transform="matrix(5.483442e-11 -1 1 5.483442e-11 -157.7958 726.0465)" class="st6" width="4" height="93.1"/>
	
		<rect x="282.1" y="454.3" transform="matrix(5.483442e-11 -1 1 5.483442e-11 -216.6814 784.9321)" class="st6" width="4" height="93.1"/>
	
		<rect x="248.4" y="433.5" transform="matrix(-1 -6.637636e-11 6.637636e-11 -1 499.6538 942.7292)" class="st6" width="2.9" height="75.8"/>
</g>
<g>
	<rect x="83.5" y="32.5" class="st7" width="232.1" height="57.8"/>
	<rect x="85.6" y="34.7" class="st8" width="227.8" height="53.5"/>
	<rect x="137.2" y="39" class="st9" width="171.9" height="44.9"/>
	<rect x="89.9" y="39" class="st10" width="43" height="44.9"/>
	<g>
		<polygon class="st8" points="99.4,64.9 99.4,67.7 101.8,70.1 103.2,68.7 		"/>
		<polygon class="st8" points="116.2,72.1 114.8,73.5 120.9,79.6 123.7,79.6 		"/>
		<polygon class="st8" points="118.6,69.7 117.2,71.1 125.7,79.6 128.5,79.6 		"/>
		<polygon class="st8" points="126.9,62.9 126.9,62.9 125.2,61.2 126.6,59.8 120.3,53.6 120.3,53.6 120.3,53.6 94.3,79.6 97.1,79.6 
			120.3,56.4 123.8,59.8 122.4,61.2 124.1,62.9 122.7,64.3 124.1,65.7 126.9,62.9 		"/>
		<polygon class="st8" points="99.1,79.6 101.9,79.6 121.4,60.2 120,58.8 		"/>
		<polygon class="st8" points="103.9,79.6 106.7,79.6 122.4,64 121,62.6 		"/>
		<polygon class="st8" points="94.2,57.7 104.2,67.7 105.6,66.3 94.2,54.9 		"/>
		<polygon class="st8" points="94.2,52.9 106.6,65.3 108,63.9 94.2,50.1 		"/>
		<polygon class="st8" points="94.2,48.1 109,62.9 110.4,61.5 94.2,45.3 		"/>
		<polygon class="st8" points="94.2,43.3 111.4,60.5 112.8,59.1 97,43.3 94.2,43.3 		"/>
		<polygon class="st8" points="121,43.3 110,54.2 111.4,55.6 123.8,43.3 		"/>
		<polygon class="st8" points="125.8,43.3 112.4,56.7 113.8,58.1 128.6,43.3 		"/>
	</g>
	<g>
		<polygon class="st8" points="252.2,59.6 240.8,60.3 252.2,60.3 		"/>
		<path class="st8" d="M290,68.2c0-0.4,0-0.9-0.1-1.3l0,0c-0.3-1.4-0.9-2.7-2-3.8c-1-1-2.3-1.6-3.6-1.9c-0.1,0-0.1,0-0.2,0h0h0
			c-0.1,0-0.3,0-0.4-0.1c-0.4,0-0.7-0.1-1.1-0.1c-4.1,0-7.4,3.2-7.4,7.2c0,4,3.3,7.2,7.4,7.2c0.2,0,0.5,0,0.7,0c0.1,0,0.1,0,0.2,0
			c0.2,0,0.3,0,0.5-0.1c0.1,0,0.2-0.1,0.3-0.1c0.1,0,0.2,0,0.3-0.1c0.2,0,0.3-0.1,0.4-0.1c0.1,0,0.1,0,0.1,0
			c0.2-0.1,0.4-0.1,0.5-0.2c0,0,0,0,0,0c0.8-0.3,1.5-0.8,2.1-1.4c1.3-1.2,2-2.8,2.1-4.4h0C289.9,68.7,290,68.5,290,68.2z
			 M286.1,70.3c-0.2,0.3-0.4,0.5-0.6,0.7c-0.3,0.3-0.6,0.5-1,0.7v0c-0.3,0.1-0.5,0.2-0.8,0.3c0,0-0.1,0-0.1,0c-0.1,0-0.2,0-0.4,0.1
			c-0.2,0-0.3,0-0.5,0c0,0-0.1,0-0.1,0c-1,0-2-0.4-2.8-1.1c-1.6-1.5-1.6-4,0-5.5c0.8-0.8,1.8-1.1,2.8-1.1h0c0.2,0,0.4,0,0.6,0.1
			c0.1,0,0.2,0,0.3,0.1c0.1,0,0.2,0,0.2,0.1c1.6,0.5,2.7,2,2.7,3.7C286.6,69,286.4,69.6,286.1,70.3L286.1,70.3z"/>
		<path class="st8" d="M301.6,61.3c-1.3,0-2.4-0.1-3.7,0.3c-3,0.9-5.2,3.4-5.2,6.6c0,3.3,2.3,5.9,5.4,6.7c1.1,0.3,2.2,0.2,3.4,0.2
			c1.5,0,3.3,0,3.4,0V75v-0.8v-1.3v-0.4v-0.5c0,0-1.9,0-3.3,0c-1.3,0-2.5,0.1-3.7-0.5c-1.1-0.6-1.9-1.8-1.9-3.2
			c0-1.4,0.8-2.6,1.9-3.2c1.2-0.7,2.3-0.5,3.6-0.5c1.5,0,3.3,0,3.4,0v-0.6v-0.4v-1.3v-0.9v-0.1C304.9,61.3,303.1,61.3,301.6,61.3"/>
		<polygon class="st8" points="264.1,66.5 259.2,61.3 256.4,61.3 256.4,75.1 259.4,75.1 259.4,66.6 264.1,71.2 268.9,66.4 
			268.9,75.1 272,75.1 272,61.3 269.2,61.3 		"/>
		<path class="st8" d="M240.8,64c0,3.1,0,10.1,0,10.1v1l0,0h1l0,0h2c3.1,0,8.5,0,8.5,0v-0.2v-0.8v-1.2v-0.5v-0.3c0,0-5.9,0-8.2,0
			c0-0.6,0-1.6,0-2.3c1.8,0,6.2,0,6.2,0v-2.9c0,0-4.4,0-6.2,0v-2.6c2.7,0,8.1,0,8.1,0v-2.9c0,0-8.7,0-11.4,0L240.8,64z"/>
		<path class="st8" d="M224.7,61.4v0.8v1.3v0.4v0.6h4.5c0,2.7,0,10.5,0,10.6h0.4h0.6h1.3h0.6h0.3V64.5c2.3,0,4.7,0,4.7,0v-0.4v-0.6
			v-1.3v-0.6v-0.3c0,0-10.4,0-12.5,0V61.4z"/>
		<path class="st8" d="M220.4,61.3h-1.3h-1c0,0.8,0,3,0,5.3c-1.3,0-5.7,0-7.1,0c0-2.4,0-4.6,0-5.3h-1h-1.3h-1c0,2.1,0,13.7,0,13.8
			h0.4h0.6h1.3h0.7h0.3v-5.2h7.1c0,2.8,0,5.2,0,5.2h0.4h0.6h1.3h0.7h0.3c0,0,0-11.8,0-13.8H220.4z"/>
		<path class="st8" d="M202.4,61.3h-1.3h-0.6h-0.3c0,0,0,4.1,0,6.1c0,0.9,0,1.7-0.4,2.6c-0.5,1.2-1.6,2.1-3.1,2.1
			c-1.5,0-2.6-0.8-3.1-2.1c-0.4-0.9-0.4-1.7-0.4-2.6c0-2,0-6.1,0-6.1h-0.5h-0.5h-1.3h-0.8h-0.3c0,0,0,2.8,0,4.9c0,1.5-0.1,3,0.4,4.4
			c0.9,2.8,3.2,4.8,6.4,4.8c3.4,0,5.8-2.3,6.5-5.3c0.2-0.9,0.2-1.7,0.2-2.6v-6.2H203H202.4z"/>
		<polygon class="st8" points="182.4,61.3 179.1,61.3 173.1,75.1 173.6,75.1 176.2,75.1 176.4,75.1 180.7,65.4 184.9,75.1 
			185.3,75.1 187.8,75.1 188.4,75.1 		"/>
		<path class="st8" d="M167.9,61.3c0,0,0,4.1,0,6.2c0,0.9,0,1.7-0.4,2.6c-0.5,1.2-1.6,2.1-3.1,2.1c-1.5,0-2.6-0.8-3.1-2.1
			c-0.4-0.9-0.4-1.7-0.4-2.6c0-2,0-6.1,0-6.2h-3.3c0,0,0,2.8,0,4.9c0,1.5-0.1,3,0.4,4.4c0.2,0.6,0.4,1.1,0.7,1.6v0l0,0
			c1.1,1.9,3.1,3.2,5.7,3.2c3.4,0,5.8-2.3,6.5-5.3c0.2-0.9,0.2-1.7,0.2-2.6c0-2.1,0-6.1,0-6.2H167.9z"/>
		<path class="st8" d="M146.9,61.6c-3,0.8-5.2,3.4-5.2,6.6c0,3.3,2.3,5.9,5.4,6.7c1.1,0.3,2.2,0.2,3.4,0.2c1.5,0,3.3,0,3.4,0v-0.2
			v-0.8v-1.3v-0.4v-0.5c0,0-1.9,0-3.4,0c-1.3,0-2.5,0.1-3.7-0.5c-1.1-0.6-1.9-1.7-1.9-3.2c0-1.4,0.8-2.5,1.9-3.2
			c1.2-0.6,2.3-0.5,3.6-0.5c1.5,0,3.3,0,3.4,0v-0.6v-0.4v-1.3v-0.9v-0.1c0,0-1.9,0-3.4,0C149.3,61.3,148.1,61.3,146.9,61.6"/>
		<path class="st8" d="M284.6,48.2h-1.2l-3.5,8.2h1.5l0.7-1.9h3.8l0.7,1.9h1.6L284.6,48.2z M282.5,53.5l1.5-3.7l1.5,3.7H282.5z"/>
		<path class="st8" d="M148.4,48.2h-1.4v5c0,1.2-0.9,2.2-2,2.2c-1.2,0-2-0.9-2-2.2v-5h-1.4v5.1c0,2.1,1.3,3.3,3.4,3.3
			c2.1,0,3.4-1.2,3.4-3.3V48.2z"/>
		<polygon class="st8" points="160.8,50.3 164.5,56.4 166.6,56.4 166.6,48.2 165.3,48.2 165.3,54.3 164.8,54.3 164.7,54.2 
			161.1,48.2 158.9,48.2 158.9,56.4 160.3,56.4 160.3,50.2 160.7,50.2 		"/>
		<rect x="176.8" y="48.2" class="st8" width="1.4" height="8.2"/>
		<polygon class="st8" points="194.3,48.2 192.1,54 191.7,54 191.6,53.8 189.5,48.2 187.9,48.2 191.2,56.4 192.4,56.4 195.8,48.2 		
			"/>
		<polygon class="st8" points="210.5,52.9 210.5,51.6 206.7,51.6 206.7,49.5 210.7,49.5 210.7,48.2 205.3,48.2 205.3,56.4 
			210.9,56.4 210.9,55.2 206.7,55.2 206.7,52.9 		"/>
		<path class="st8" d="M225,52.8l0.4-0.1c1-0.2,1.7-1,1.7-2.1c0-1.6-1-2.4-3-2.4h-3.1v8.2h1.4v-3.5h1.4l1.8,3.5h1.7L225,52.8z
			 M222.3,51.8v-2.5h1.5c1.2,0,1.8,0.4,1.8,1.3c0,1.2-1.3,1.2-1.9,1.2H222.3z"/>
		<path class="st8" d="M241.7,54c0-1.6-1.2-1.9-2.3-2.3c-0.8-0.2-1.7-0.5-1.7-1.4c0-1.2,1.9-1.6,3-0.7l0.9-1
			c-0.6-0.4-1.4-0.7-2.3-0.7c-1.5,0-3.1,0.8-3.1,2.6c0,1.5,1.2,1.8,2.3,2.2c0.9,0.3,1.8,0.6,1.8,1.4c0,0.8-0.8,1.2-1.6,1.2
			c-0.6,0-1.2-0.3-1.7-0.7l-1,1.1c0.7,0.6,1.5,0.9,2.5,0.9C240.1,56.7,241.7,56,241.7,54"/>
		<rect x="251.8" y="48.2" class="st8" width="1.4" height="8.2"/>
		<path class="st8" d="M266.5,48.2h-2.6v8.2h2.9c2.3,0,4.6-1.3,4.6-4.1C271.4,48.8,268.3,48.2,266.5,48.2z M266.5,55.2h-1.3v-5.7
			h1.4c2,0,3.3,1.1,3.3,2.8C269.9,54.2,268.7,55.2,266.5,55.2z"/>
		<path class="st8" d="M300,48.2h-2.6v8.2h2.9c2.3,0,4.6-1.3,4.6-4.1C304.9,48.8,301.9,48.2,300,48.2z M300.1,55.2h-1.3v-5.7h1.4
			c2,0,3.3,1.1,3.3,2.8C303.5,54.2,302.3,55.2,300.1,55.2z"/>
	</g>
</g>
<g>
	<g>
		<g>
			<path class="st11" d="M574.7,269.2c0,0,3.2,8.8-3.2,21.6c0,0-4.2,8.2-9.3,12.8c-5,4.7-17.2,17.1-14.2,30.8c0,0,4.6-11.6,23.2-7.9
				c0,0,7.7,1.8,12.1,3.6s16.1,1.7,26.3-1.5s22.8-4.3,20.8,2.9c0,0,5.2-4.1,3.2-13.1c-2-9-6.4-12.8-6.4-12.8s-7.5-9.6-10.5-21.8
				s-3.3-15.2-3.3-15.2L574.7,269.2z"/>
			<path class="st12" d="M600.9,273.5c0,0,6.3,3,5.2,18.2s4.2,21.8,4.2,21.8s0.9,21.1-36.2,13.3c0,0,14.3,6.9,26.8,3.8
				c12.5-3.1,21.5-6,27.6-3.9c0,0,3.7,0.7,1.7,5.6c0,0,8.9-7.4,0.2-22.2c0,0-14.1-16.6-16.8-41.4L600.9,273.5z"/>
			<path class="st13" d="M613.4,268.6c0,0,3.4,24,13.7,36.7s7.2,23.2,3.1,26.9c0,0,6.1-11-20.5-3.7c-26.6,7.2-27.9-2.2-43.8-2.7
				c-15.9-0.5-17.6,9-17.6,9s-5.7-11.4,13.1-30.5c18.8-19.1,13.3-35.3,13.3-35.3"/>
		</g>
		<g>
			<path class="st14" d="M583.9,321c0,0,5.7-0.8,9.1,0.7l-0.3,8.1l-0.4,14.1l0.4,8.7c0,0,0.1,1.9-2.1,2.3s-8.9,3.9-14.2,1.1
				c0,0-1.9-6.5,4.5-7.4c0,0,2.9-0.8,2.9-4.8C583.7,340,583.9,321,583.9,321z"/>
			<path class="st15" d="M583.9,321v1.4c0,0,1.6,0.6,5.5,1.2c0.8,0.1,1.4,0.9,1.4,1.7c-0.2,3.4-0.8,11.7-0.6,15.1
				c0.2,4.3,0.4,8.5,0.4,10.2s-14.3,4.3-14.3,4.3l0.2,1.3c0,0,5.1,3,15.5-1.7c0,0,1.4-0.6,0.7-3.3l-0.1-15c0,0,0.2-13.2,0.4-14.6
				C593,321.7,588.3,320,583.9,321z"/>
			<path class="st16" d="M583.9,344c0,0,4.2,1.7,8.6,0l-0.1,1.7c0,0-5.6,1.1-8.8-0.2L583.9,344z"/>
			<path class="st16" d="M582.3,347.9c0,0,5.4-0.1,5.5,6.7c0,0,3.3-0.9,4.9-1.9c0,0,0.3,1.2-1,1.9c-1.3,0.7-11.8,4.2-15.3,1.6v-1.1
				c0,0,5.2,1.5,9.9,0.1C586.3,355.2,586.7,350,582.3,347.9z"/>
			<path class="st17" d="M590.3,344.5v1.5l2.1-0.4l0.1-1.9C592.5,343.7,592.5,344.3,590.3,344.5z"/>
			<path class="st17" d="M586,352.7c0,0,1.3-0.1,1.7-0.5c0,0,0.3,1.5,0.2,2.6l4.8-2.1c0,0,0.3,1.8-1.7,2.1c0,0-9.4,4.1-14.7,1.3
				v-1.1c0,0,5,1.5,9.9,0.1C586.3,355.2,586.2,353.6,586,352.7z"/>
			<g>
				<g>
					<path class="st18" d="M593,321.5l-0.2,12.3c-0.1,4.1-0.1,8.2-0.1,12.3c0,2.1,0,4.1,0.1,6.1c0,0.3,0,0.5,0,0.8
						c0,0.3-0.1,0.5-0.3,0.8c-0.3,0.5-0.7,0.8-1.2,1c-1,0.4-1.9,0.7-2.9,1c-2,0.6-4,1.1-6,1.3c-2,0.2-4.2,0.1-6.1-0.9l-0.1,0l0-0.1
						c-0.2-0.8-0.3-1.6-0.3-2.4c0-0.8,0.1-1.6,0.4-2.4c0.3-0.8,0.9-1.4,1.6-1.9c0.7-0.5,1.5-0.7,2.3-0.9l0,0l0,0
						c1.1-0.1,2.2-0.8,2.7-1.8c0.3-0.5,0.5-1.1,0.5-1.6c0.1-0.6,0.1-1.2,0.1-1.8c0-2.5,0-5,0-7.4c0.1-5,0.2-9.9,0.4-14.9l0.1,0
						c0.1,5,0.1,9.9,0.1,14.9c0,2.5,0,5,0.1,7.4c0,1.2,0,2.6-0.6,3.8c-0.6,1.2-1.9,2-3.2,2.1l0,0c-0.7,0.2-1.5,0.4-2,0.8
						c-0.6,0.4-1.1,1-1.4,1.7c-0.3,0.7-0.4,1.4-0.4,2.2c0,0.8,0.1,1.5,0.3,2.2l-0.1-0.1c0.9,0.5,1.8,0.8,2.8,0.9c1,0.2,2,0.1,3,0.1
						c1-0.1,2-0.2,3-0.4c1-0.2,2-0.5,3-0.8c1-0.3,1.9-0.6,2.9-1c0.5-0.2,0.9-0.5,1.1-0.9c0.1-0.2,0.2-0.4,0.2-0.7c0-0.2,0-0.5,0-0.7
						c-0.2-2.1-0.2-4.1-0.3-6.2c-0.1-4.1-0.1-8.2,0.1-12.3C592.5,329.7,592.7,325.6,593,321.5L593,321.5z"/>
				</g>
				<g>
					<path class="st18" d="M576.2,355c1.4,0.3,2.8,0.5,4.2,0.5c1.4,0,2.8,0,4.2-0.3c0.4,0,0.7-0.1,1-0.2c0.3-0.1,0.7-0.1,1-0.2
						l1-0.3l1-0.3c1.4-0.4,2.7-1,4-1.6c-0.6,0.4-1.2,0.8-1.8,1.1c-0.7,0.3-1.3,0.7-2,0.9c-1.3,0.6-2.8,0.9-4.2,1.1
						c-1.4,0.2-2.9,0.3-4.3,0.1c-0.7-0.1-1.4-0.2-2.1-0.3C577.5,355.5,576.8,355.3,576.2,355z"/>
				</g>
				<g>
					<path class="st18" d="M583.7,345.4c0.7,0.2,1.5,0.3,2.2,0.4c0.7,0.1,1.5,0.1,2.2,0.1c0.7,0,1.5,0,2.2-0.1l1.1-0.1
						c0.4,0,0.7-0.1,1.1-0.1c-0.7,0.3-1.4,0.5-2.2,0.6c-0.7,0.1-1.5,0.2-2.3,0.2c-0.8,0-1.5-0.1-2.3-0.2
						C585.1,346,584.3,345.8,583.7,345.4z"/>
				</g>
				<g>
					<path class="st18" d="M583.8,344c1.5,0.3,2.9,0.5,4.4,0.6c0.7,0,1.4,0,2.2-0.1c0.7-0.1,1.4-0.3,2.2-0.5
						c-0.6,0.4-1.3,0.7-2.1,0.9c-0.7,0.2-1.5,0.3-2.3,0.2c-0.8,0-1.5-0.1-2.3-0.3C585.1,344.6,584.4,344.3,583.8,344z"/>
				</g>
				<g>
					<path class="st18" d="M587.9,354.8c0-0.4-0.1-0.8-0.1-1.2c-0.1-0.4-0.1-0.8-0.2-1.1c-0.2-0.8-0.5-1.5-0.9-2.1
						c-0.9-1.2-2.3-2-3.7-2.3c-0.1,0-0.2,0-0.3,0l-0.1,0c0,0-0.1,0,0.1,0c0.1-0.1,0.2-0.2,0.1-0.3c0-0.1-0.1-0.1-0.1-0.2
						c0,0,0,0,0,0l0,0l0,0l0.1,0l0.1,0.1c0.1,0.1,0.2,0.1,0.3,0.1c0.4,0.2,0.7,0.5,1,0.7c0.6,0.6,1.1,1.2,1.5,1.9
						c0.4,0.7,0.6,1.5,0.7,2.3c0.1,0.8,0.1,1.6,0,2.4c-0.1-1.6-0.4-3.1-1.1-4.4c-0.4-0.7-0.9-1.3-1.4-1.7c-0.3-0.2-0.6-0.5-0.9-0.6
						c-0.1,0-0.2-0.1-0.2-0.1l-0.1-0.1l-0.1,0l-0.1,0c-0.1,0-0.1-0.1-0.2-0.2c0-0.2,0-0.3,0.2-0.4c0.1,0,0.2,0,0.2,0l0,0l0.2,0
						c0.1,0,0.2,0,0.3,0c0.8,0.2,1.6,0.4,2.3,0.9c0.7,0.4,1.3,1,1.7,1.7C587.9,351.6,588.1,353.3,587.9,354.8z"/>
				</g>
			</g>
		</g>
		<g>
			<g>
				<path class="st14" d="M596.7,322.4c0,0,0.8,24.6,0.3,29.2c0,0-1.1,2.9,2,3.4c0,0,9.1,3.9,14.3,1.1c0,0,2.2-6.8-4.6-7.5
					c0,0-3.1-0.9-2.7-5c0.3-4.1-0.1-20-0.1-20S599.2,324.1,596.7,322.4z"/>
			</g>
			<g>
				<path class="st15" d="M596.7,322.9l0.1,2.3c0,0,2.3,1,4.6,1.3c1.1,0.2,1.9,1,1.9,2.1c0.1,1.4,0.1,3.7,0.2,7.3
					c0.1,7.8-1,12.7,2.6,14.2c3.5,1.5,4.3-0.4,7.2,5.2c0,0,1.7-5.9-4.7-6.7c0,0-3.4-0.9-2.8-7.1l-0.1-17.9
					C605.8,323.7,601.9,324.5,596.7,322.9z"/>
			</g>
			<g>
				<path class="st16" d="M605.8,345.5V344c-4.5,1.8-8.6-0.1-8.6-0.1l0.1,1.7C597.3,345.6,601.7,346.9,605.8,345.5z"/>
			</g>
			<g>
				<path class="st16" d="M603.3,354.9c0,0,0-6.1,4.1-6.9c0,0-5.6-0.5-5.7,6.4c0,0-3.2-0.8-4.7-2.1c0,0-0.5,2,1.7,2.6
					c0,0,5.1,2.2,9,2.2c0,0,5.2,0,5.6-1.2l0-0.5C613.3,355.4,608,356.4,603.3,354.9z"/>
			</g>
			<g>
				<path class="st17" d="M603.5,344.4c0,0,0,1.2,0.1,1.8l2.2-0.6V344C605.8,344,604.7,344.5,603.5,344.4z"/>
			</g>
			<g>
				<g>
					<path class="st16" d="M596.7,322.1l0.3,5.8c0,0,6.1-0.3,8.9,0.4l-0.1-4.7C605.8,323.6,598.9,323.9,596.7,322.1z"/>
				</g>
				<g>
					<path class="st17" d="M596.7,322.9c0,0,2.9,1.1,5.4,1.6c0.5,0.1,0.9,0.5,0.9,1.1l0.1,2.2c0,0,2.7,0.4,2.8,0.5l-0.1-4.8
						c0,0-6.4,0.4-9.2-1.5L596.7,322.9z"/>
				</g>
			</g>
			<g>
				<path class="st17" d="M604.3,348.6c0,0,0.2,1,0.8,1.1l1.6-1.4C606.7,348.2,605.8,347.8,604.3,348.6z"/>
			</g>
			<g>
				<path class="st18" d="M605.8,328.2c-1.5-0.2-3-0.2-4.5-0.3c-1.5,0-3,0-4.5-0.1c0.7-0.1,1.5-0.2,2.3-0.2c0.8,0,1.5,0,2.3,0
					C602.9,327.7,604.4,327.9,605.8,328.2z"/>
			</g>
			<g>
				<g>
					<path class="st18" d="M596.7,322.8c0.3,4,0.5,8,0.6,12c0.1,4,0.2,8,0,12c-0.1,2-0.2,4-0.3,6c0,0.5,0.2,0.9,0.5,1.3
						c0.2,0.2,0.3,0.3,0.6,0.4c0.2,0.1,0.5,0.2,0.7,0.3c0.9,0.4,1.9,0.7,2.8,1c1.9,0.6,3.9,1,5.8,1.1c1,0,2,0,3-0.1
						c1-0.2,1.9-0.4,2.8-0.9l-0.1,0.1c0.2-0.7,0.3-1.5,0.3-2.2c0-0.8-0.1-1.5-0.4-2.2c-0.3-0.7-0.8-1.3-1.4-1.7
						c-0.6-0.4-1.3-0.6-2-0.8l0,0c-1.2-0.1-2.4-0.8-3.1-1.8c-0.7-1-0.9-2.3-0.8-3.4c0.1-2.2,0.1-4.5,0.1-6.8c0-4.5,0.1-9,0.1-13.5
						l0.1,0c0.2,4.5,0.3,9,0.4,13.5c0,2.3,0.1,4.5,0,6.8c0,1.1,0.2,2.2,0.7,3.1c0.6,0.9,1.6,1.4,2.6,1.5l0,0l0,0
						c0.8,0.2,1.6,0.4,2.3,0.9c0.7,0.5,1.3,1.1,1.6,1.9c0.3,0.8,0.4,1.6,0.4,2.4c0,0.8-0.1,1.6-0.3,2.4l0,0.1l-0.1,0
						c-0.9,0.5-1.9,0.8-2.9,0.9c-1,0.1-2,0.1-3,0c-2-0.2-4-0.7-5.9-1.3c-1-0.3-1.9-0.6-2.8-1c-0.2-0.1-0.5-0.2-0.7-0.3
						c-0.2-0.1-0.4-0.3-0.6-0.5c-0.4-0.4-0.6-0.9-0.5-1.4c0.1-2,0.1-4,0.1-6c0-4,0-8-0.1-12L596.7,322.8L596.7,322.8z"/>
				</g>
				<g>
					<path class="st18" d="M596.9,352.3c0.6,0.4,1.2,0.7,1.9,1c0.6,0.3,1.3,0.6,2,0.8c1.3,0.5,2.7,0.8,4.1,1
						c0.7,0.1,1.4,0.2,2.1,0.3c0.4,0,0.7,0.1,1.1,0.1c0.4,0,0.7,0,1.1,0c1.4,0.1,2.8,0,4.3-0.1c-0.7,0.2-1.4,0.3-2.1,0.4
						c-0.7,0.1-1.4,0.2-2.2,0.2c-1.4,0.1-2.9-0.1-4.3-0.3c-1.4-0.3-2.8-0.6-4.2-1.2C599.3,354,598,353.3,596.9,352.3z"/>
				</g>
				<g>
					<path class="st18" d="M606.1,345.4c-0.6,0.4-1.4,0.7-2.1,0.8c-0.7,0.2-1.5,0.2-2.3,0.2c-0.8,0-1.5-0.1-2.3-0.2
						c-0.7-0.1-1.5-0.4-2.2-0.6c0.4,0,0.8,0.1,1.1,0.1l1.1,0.1c0.7,0,1.5,0.1,2.2,0.1c0.7,0,1.5,0,2.2-0.1
						C604.6,345.7,605.4,345.6,606.1,345.4z"/>
				</g>
				<g>
					<path class="st18" d="M606,344c-0.7,0.4-1.4,0.6-2.1,0.8c-0.7,0.2-1.5,0.3-2.3,0.3c-0.8,0-1.5-0.1-2.3-0.2
						c-0.7-0.2-1.5-0.5-2.1-0.9c0.7,0.2,1.4,0.4,2.2,0.5c0.7,0.1,1.4,0.1,2.2,0.1C603.1,344.5,604.5,344.2,606,344z"/>
				</g>
				<g>
					<path class="st18" d="M601.7,354.8c-0.2-1.5,0-3.2,0.9-4.6c0.4-0.7,1-1.3,1.7-1.7c0.7-0.4,1.5-0.7,2.3-0.9c0.1,0,0.2,0,0.3,0
						l0.2,0l0,0c0,0,0.1,0,0.2,0c0.2,0.1,0.2,0.2,0.2,0.4c0,0.1-0.1,0.2-0.2,0.2l-0.1,0l-0.1,0l-0.1,0.1c-0.1,0-0.2,0.1-0.2,0.1
						c-0.3,0.2-0.6,0.4-0.9,0.6c-0.6,0.5-1,1.1-1.4,1.7c-0.8,1.3-1,2.9-1.1,4.4c-0.1-0.8-0.1-1.6,0-2.4c0.1-0.8,0.3-1.6,0.7-2.3
						c0.3-0.7,0.9-1.4,1.5-1.9c0.3-0.3,0.6-0.5,1-0.7c0.1-0.1,0.2-0.1,0.3-0.1l0.1-0.1l0.1,0l0,0l0,0c0,0,0,0,0,0
						c0,0-0.1,0.1-0.1,0.2c0,0.1,0,0.2,0.1,0.3c0.2,0,0.1,0,0.1,0l-0.1,0c-0.1,0-0.2,0-0.3,0c-1.5,0.3-2.9,1-3.7,2.3
						c-0.4,0.6-0.8,1.3-0.9,2.1c-0.1,0.4-0.2,0.8-0.2,1.1C601.8,354.1,601.7,354.4,601.7,354.8z"/>
				</g>
			</g>
		</g>
		<g>
			<g>
				<path class="st14" d="M590.6,259.4c0,0,3.3,1.4,4.1,1.5l3.9-1.5c0,0-0.4,1.5,0.7,2.1c0,0-0.4,2.4-5,2.4c0,0-3.6,0.4-4.3-2.4
					C590,261.5,590.9,261.4,590.6,259.4z"/>
				<path class="st15" d="M590.6,259.6c0,0,1.5,1.9,4.9,1.8c0,0,1.7,1.6-0.6,2.4c0,0,3,0.3,4.5-2.3c0,0-1.4-0.4-0.9-2.1l-3.9,1.5
					L590.6,259.6z"/>
			</g>
			<path class="st13" d="M590,261.5c0,0,0.9,0.1,0.5-2.2"/>
			<g>
				<g>
					<g>
						<path class="st14" d="M594.4,244.7c0,0-3.5-9.8-13.7-4.7c0,0-0.8,9.9,1.9,14c0,0,4.2,4.9,12.1,6.8c0,0,9.3-2.3,14.5-10
							c0,0,3.3-13.1-7.5-12.6C601.7,238.3,594.4,240,594.4,244.7z"/>
					</g>
					<g>
						<path class="st15" d="M606.5,244.3c0,0-2.3-1.4-2.6-2.9c0,0,0.1,2.3,0.6,2.9c0,0-2.5-0.8-3.3-2.6c0,0-0.2,1.3-0.3,2
							c0,0-1.7-0.4-2.3-1.4c0,0-1.9,2.7-3.5,3.8c0,0-1.8-1.4-3-3.9c0,0-1-2.7-6.1,0.9c0,0-0.4-0.5-0.8-2.5c0,0-1.4,2.2-3.5,2.6
							l-0.9-0.2l0.1-2.9c0,0,8.3-6.3,13.7,4.7c0,0,0.8-7.6,10.9-6c0,0,1.2,0.5,1.8,1L606.5,244.3z"/>
					</g>
					<g>
						<path class="st15" d="M605.3,242.5c0,0,0.7,5.2-0.8,8.7l1.1-0.9c0,0-1.4,6.1-10.6,9.9c0,0-4-0.4-6.8-2c0,0,3.9,2.1,6.5,2.8
							c0,0,8.2-1.7,13.9-9.2c0,0,3.2-6.8-1.2-11.7l-1.1-0.8L605.3,242.5z"/>
					</g>
				</g>
				<g>
					<path class="st18" d="M583.7,249.9c0.6,0,1.1,0,1.7,0c0.6,0,1.1-0.1,1.6-0.2c0.5-0.1,1.1-0.2,1.5-0.4c0.5-0.2,1-0.4,1.4-0.7
						l0.3-0.1c-0.1,0-0.2,0-0.2,0l0.1,0l0.1-0.1l0.2-0.1c0.2-0.1,0.3-0.2,0.5-0.3c0.3-0.2,0.6-0.3,1-0.4c0.7-0.2,1.4-0.4,2.1-0.5
						c0.7-0.1,1.4,0,2.1,0.1c0.7,0.1,1.4,0.4,2,0.7l-0.1,0c0.6,0.2,1.1,0.4,1.7,0.6c0.5,0.2,1.1,0.3,1.7,0.5
						c0.6,0.1,1.1,0.2,1.7,0.2c0.6,0,1.1-0.1,1.7-0.3c-0.4,0.4-1,0.6-1.6,0.8c-0.6,0.1-1.2,0.1-1.8,0.1c-0.6,0-1.2-0.1-1.8-0.3
						c-0.3-0.1-0.6-0.1-0.9-0.2c-0.3-0.1-0.6-0.2-0.8-0.2l0,0l-0.1,0c-0.6-0.2-1.2-0.4-1.8-0.5c-0.3-0.1-0.6-0.1-0.9-0.1
						c-0.3,0-0.6,0-0.9,0c-0.6,0.1-1.2,0.2-1.8,0.4c-0.3,0.1-0.6,0.2-0.9,0.3c-0.1,0.1-0.3,0.1-0.4,0.2l-0.2,0.1l-0.1,0.1l-0.1,0
						c0,0-0.2,0.1-0.3,0.1l0.3-0.1c-0.5,0.3-1.1,0.5-1.7,0.7c-0.6,0.1-1.2,0.2-1.7,0.2c-0.6,0-1.2,0-1.7-0.1c-0.3,0-0.6-0.1-0.8-0.2
						L583.7,249.9z"/>
				</g>
				<g>
					<path class="st18" d="M586,249.9c0,0,0.5,2.1,2,2.9c0,0-0.9-2.7-0.3-2.9C587.7,249.9,586.9,250.1,586,249.9z"/>
				</g>
				<g>
					<path class="st18" d="M587.7,250c0,0,0.2,2,1.5,2.2c0,0-0.9-1.9-0.2-2.4C589,249.7,588.2,250,587.7,250z"/>
				</g>
				<g>
					<path class="st18" d="M601.7,249.3c0,0-0.5,2-1.9,2.8c0,0,0.8-2.6,0.3-2.8C600.1,249.2,600.9,249.4,601.7,249.3z"/>
				</g>
				<g>
					<path class="st18" d="M600.1,249.3c0,0-0.2,1.9-1.4,2.1c0,0,0.8-1.8,0.2-2.3C598.9,249.1,599.6,249.3,600.1,249.3z"/>
				</g>
				<g>
					<path class="st18" d="M594.7,261.2L594.7,261.2c-10.4-2.8-15-10.1-15.1-10.2l0.5-0.3c0,0.1,4.5,7.1,14.6,9.9
						c0.9-0.3,9.2-2.8,13.8-9.3l0.5,0.3C604,258.6,594.9,261.1,594.7,261.2L594.7,261.2z"/>
				</g>
				<g>
					<path class="st18" d="M586.5,240.9c0.2-0.2,0.5-0.2,0.7-0.2c0.3,0,0.5,0,0.8,0.1c0.5,0.1,1,0.5,1.2,1c-0.3-0.1-0.5-0.1-0.7-0.2
						c-0.2-0.1-0.4-0.1-0.6-0.2C587.4,241.2,587,241.1,586.5,240.9z"/>
				</g>
				<g>
					<path class="st18" d="M599.7,241.7c0.1-0.2,0.3-0.4,0.5-0.6c0.2-0.1,0.5-0.2,0.7-0.3c0.5-0.1,1.1-0.1,1.5,0.3
						c-0.3,0.1-0.5,0.1-0.7,0.1c-0.2,0-0.4,0.1-0.7,0.1C600.7,241.5,600.3,241.7,599.7,241.7z"/>
				</g>
				<g>
					<path class="st18" d="M581.6,239.9c0,0,3.8-1.4,7.5,1C589.1,240.9,590.1,237.6,581.6,239.9z"/>
				</g>
				<g>
					<path class="st18" d="M607,239.9c0,0-3.8-1.5-7.5,0.9C599.5,240.8,598.6,237.5,607,239.9z"/>
				</g>
				<g>
					<g>
						<g>
							<g>
								<path class="st18" d="M592.3,245.3c0,0-2.7-5.3-9.2-2.6c0,0-0.7,1,0.1,2.7c0,0-1.3-0.6-0.9-3.5
									C582.3,241.9,589.1,239,592.3,245.3z"/>
							</g>
							<g>
								<path class="st8" d="M592.3,245.3c0,0,0.4,1.3-1.4,2c0,0-3.5,2.2-6.5-0.1c0,0-2.1-2-1.6-4.5c0,0,3.6-1.7,6.3-0.3
									C589.1,242.3,590.9,242.8,592.3,245.3z"/>
							</g>
							<g>
								<path class="st19" d="M592.3,245.3c0,0-3.3-5-9-2c0,0-0.3,0.9,0,2.1c0,0-0.8-1.1-0.5-2.8c0-0.1-0.1-0.1-0.1-0.1
									S588.8,239.3,592.3,245.3z"/>
							</g>
						</g>
						<g>
							<g>
								<path class="st18" d="M596.7,245.3c0,0,2.7-5.3,9.2-2.6c0,0,0.7,1-0.1,2.7c0,0,1.3-0.6,0.9-3.5
									C606.7,241.9,599.9,239,596.7,245.3z"/>
							</g>
							<g>
								<path class="st8" d="M596.7,245.3c0,0-0.6,1.4,1.2,2c0,0,3.8,2.1,6.7-0.2c0,0,2.1-2,1.6-4.5c0,0-3.6-1.7-6.3-0.3
									C599.9,242.3,598.1,242.8,596.7,245.3z"/>
							</g>
							<g>
								<path class="st19" d="M596.7,245.2c0,0,3.3-4.9,9.2-1.9c0,0,0.3,0.9,0,2.1c0,0,0.8-1.1,0.5-2.8c0-0.1,0.1-0.1,0.1-0.1
									S600.2,239.3,596.7,245.2z"/>
							</g>
						</g>
					</g>
					<g>
						<g>
							<ellipse class="st20" cx="587.8" cy="244.3" rx="1.8" ry="2.5"/>
						</g>
						<g>
							<path class="st21" d="M588.2,241.9c0,0-1.2-0.4-1.9,1.2c0,0-0.4,0.5-0.2,2c0,0,0.4-0.3,1.1-0.5c0,0.6,0.4,1,0.8,1
								c0.4,0,0.8-0.5,0.8-1c0.3,0.1,0.6,0.2,0.9,0.5C589.6,245.1,590.2,242.7,588.2,241.9z"/>
						</g>
						<g>
							<ellipse class="st18" cx="587.8" cy="244.3" rx="0.6" ry="1.1"/>
						</g>
						<g>
							<circle class="st8" cx="587.1" cy="242.8" r="0.5"/>
						</g>
						<g>
							<circle class="st8" cx="588.7" cy="245.8" r="0.4"/>
						</g>
						<g>
							<path class="st18" d="M587.8,247c-1.1,0-2-1.2-2-2.6c0-1.5,0.9-2.6,2-2.6c1.1,0,2,1.2,2,2.6C589.8,245.8,588.9,247,587.8,247
								z M587.8,242c-0.9,0-1.6,1.1-1.6,2.3s0.7,2.3,1.6,2.3c0.9,0,1.6-1.1,1.6-2.3S588.7,242,587.8,242z"/>
						</g>
					</g>
					<g>
						<g>
							<ellipse class="st20" cx="601.2" cy="244.3" rx="1.8" ry="2.5"/>
						</g>
						<g>
							<path class="st21" d="M600.9,241.9c0,0,1.2-0.4,1.9,1.2c0,0,0.4,0.5,0.2,2c0,0-0.4-0.3-1.1-0.5c0,0.6-0.4,1-0.8,1
								c-0.4,0-0.8-0.5-0.8-1c-0.3,0.1-0.6,0.2-0.9,0.5C599.5,245.1,598.8,242.7,600.9,241.9z"/>
						</g>
						<g>
							<ellipse class="st18" cx="601.3" cy="244.3" rx="0.6" ry="1.1"/>
						</g>
						<g>
							<circle class="st8" cx="600.6" cy="242.8" r="0.5"/>
						</g>
						<g>
							<circle class="st8" cx="602" cy="245.8" r="0.4"/>
						</g>
						<g>
							<path class="st18" d="M601.2,247c-1.1,0-2-1.2-2-2.6c0-1.5,0.9-2.6,2-2.6s2,1.2,2,2.6C603.2,245.8,602.3,247,601.2,247z
								 M601.2,242c-0.9,0-1.6,1.1-1.6,2.3s0.7,2.3,1.6,2.3c0.9,0,1.6-1.1,1.6-2.3S602.1,242,601.2,242z"/>
						</g>
					</g>
				</g>
				<g>
					<g>
						<path class="st8" d="M592,253.9c0,0,3.5,1.1,6.4-0.3c0,0-1,3.1-3.6,2.8C594.8,256.4,593.1,256.4,592,253.9z"/>
					</g>
					<g>
						<path class="st19" d="M592,253.9c0,0,2.8,1.4,5.2,0.6c0,0,0.2,0.8-0.9,0.4l-0.4,0.5l-0.3-0.4l0.3,0.7c0,0,0.3-0.2,0.5-0.5
							c0,0,0.7,0.2,1.1,0c0,0,0.8-0.9,0.9-1.5C598.4,253.7,594.2,254.9,592,253.9z"/>
					</g>
					<g>
						<path class="st18" d="M592,253.9c1.1,0.2,2.2,0.2,3.3,0.2c0.5-0.1,1.1-0.1,1.6-0.3c0.5-0.1,1-0.3,1.6-0.4l0.6-0.2l-0.3,0.6
							c-0.3,0.6-0.6,1.2-1.1,1.7c-0.4,0.5-1,1-1.7,1.1c-0.7,0.2-1.4,0.1-2-0.2c-0.6-0.3-1.1-0.8-1.4-1.3c0.4,0.5,0.9,0.8,1.5,1
							c0.3,0.1,0.6,0.2,0.9,0.2c0.3,0,0.6,0,0.9-0.1c0.5-0.2,1-0.6,1.4-1c0.4-0.5,0.7-1,1-1.5l0.4,0.4c-0.5,0.2-1.1,0.3-1.6,0.4
							c-0.6,0.1-1.1,0.2-1.7,0.2c-0.6,0-1.1,0-1.7-0.1C593,254.3,592.5,254.1,592,253.9z"/>
					</g>
					<g>
						<path class="st18" d="M595.6,255c0.1,0.1,0.3,0.2,0.4,0.4l-0.2,0c0.1-0.2,0.2-0.4,0.4-0.6l0.1-0.1l0.1,0
							c0.1,0,0.2,0.1,0.3,0.1c0.1,0,0.2,0,0.4,0c0.3,0,0.5-0.1,0.8-0.1c-0.2,0.2-0.5,0.3-0.7,0.4c-0.1,0-0.3,0-0.4,0
							c-0.1,0-0.3,0-0.4-0.1l0.2,0c-0.1,0.2-0.3,0.3-0.4,0.5l-0.1,0.1l-0.1-0.1C595.7,255.4,595.7,255.2,595.6,255z"/>
					</g>
				</g>
				<g>
					<g>
						<path class="st18" d="M588.2,244.1l0.5-3.8l-2.9,3l-0.5-4.1l-1.8,3.1v-2.6c-0.5,1-1.4,2.8-2.3,3.4l-0.2-0.3
							c1.2-0.8,2.5-3.9,2.5-4l0.3-0.7v3l1.7-2.9l0.5,4.4l3.1-3.2l-0.4,3.7l2.3-2.6l0.2,0.2L588.2,244.1z"/>
					</g>
					<g>
						<path class="st18" d="M600.7,244l-2.9-3.3l0.2-0.2l2.3,2.6l-0.4-3.7l3.1,3.2l0.5-4.4l1.7,2.9v-3l0.3,0.7c0,0,1.3,3.2,2.5,4
							l-0.2,0.3c-0.9-0.6-1.8-2.4-2.3-3.4v2.6l-1.8-3.1l-0.5,4.1l-2.9-3L600.7,244z"/>
					</g>
					<g>
						<polygon class="st18" points="588.7,261.9 585.5,258.8 585.5,260.6 582.1,256.3 582.3,256.1 585.2,259.8 585.2,258.1 
							588.7,261.4 590.6,259.9 590.8,260.1 						"/>
					</g>
					<g>
						<polygon class="st18" points="601.2,261.9 598.5,259.5 598.6,259.3 601.2,261.4 604.8,258.1 604.8,259.7 609,253.6 
							609.3,253.8 604.5,260.7 604.5,258.8 						"/>
					</g>
					<g>
						<g>
							<path class="st18" d="M591.4,240.4l-3,3.3l0.5-3.7l-3,3.1l-0.5-4.2l-1.7,3v-2.8c0,0-1.2,2.9-2.3,3.9c0,0,0.8,6.8,2.1,8.2
								c0,0-2.1-1.7-2.3-2c0,0,1.4,4.6,1.5,5.1c0,0,5.5,4.9,7.8,5.1l0,0.7l-1.9,1.6l-3.4-3.2v1.8l-3.2-4l0.5,1.9
								c0,0-2.7-1.7-3.6-5.5l-0.3,1.8c0,0-1.8-3.6-2.4-7.6c0,0-0.3-3.5,0.2-5.4c0.5-1.9,1.8-3.7,1.8-3.7S589.1,236.3,591.4,240.4z"
								/>
						</g>
						<g>
							<path class="st18" d="M611.7,243.5c0,0,2.9-7.6-6.6-6.7c0,0-6.4,0.7-7.7,3.1l3.1,3.6l-0.5-3.7l3,3.1l0.5-4.2l1.7,3v-2.8
								c0,0,0.6,1.7,1.6,3c0,0-0.5,6.4-2.1,9l2.3-1.9l-2,6.4c0,0-4.1,3.4-6.3,3.9l2.6,2.2l3.5-3.2v1.8c0,0,3.7-5.2,4.5-6.6l0.1,0.8
								c0,0,1.6-3.1,2-5.3c0.4-2.2,0.6-2.5,0.5-4"/>
						</g>
					</g>
				</g>
				<g>
					<g>
						<g>
							<path class="st11" d="M576.6,237.6c0,0-1.8,1.1-6,0.9c0,0-3-0.1-4.1,3.2c0,0,0.8-6.6,6.5-9.5c0,0-8.7-0.1-12.8-5.4
								c0,0,2.6,1.3,5.8-0.6c0,0,4.8-1.7,9.3-1.5c0,0-2.5-0.2-5.1-6.5c0,0-0.2-1.8-5.2-3.9c0,0,5.6-0.4,11.5,2.5
								c0,0-2.9-2.3-2.9-4.9c0,0-0.4-4.5-4.9-6.5c0,0,5.2,0.3,11,5c0,0,3.1,2.4,6.1,6.7c0,0-2.4-5.8-2.8-9.3c0,0-0.3-4.3-3.5-7.1
								c0,0,5.1,1.8,8,5.2c0,0,2.5,2.5,3.1,5.6c0,0,0.7-4.5,3.2-8.1c0,0,3.5-3.3,2.8-7.2c0,0,1.9,2.1,2.2,6.7s-0.3,7.7-0.3,7.7
								s1.4-6.4,10.7-9.9c0,0-3.1,3.2-3.2,6.4c-0.2,3.2-2.4,9-3.3,10.5c0,0,5-7.3,10.6-10c0,0,3-1.8,6.9-2.3c0,0-4.2,1.4-4.9,6.5
								c0,0,0.1,2.5-2.9,4.8c0,0,4.5-2.4,11.8-2.5c0,0-4.5,1.6-5.2,3.4s-2.2,5.8-5.2,7.1c0,0,3.9-0.2,8.8,1.4c0,0,3.5,2.3,6.2,0.6
								c0,0-2.7,4.9-12.7,5.6c0,0,5.1,2.9,6,8.9c0,0-1.3-2.9-4.2-2.6c-2.9,0.3-5.2-0.6-5.2-0.6L576.6,237.6z"/>
						</g>
						<g>
							<g>
								<path class="st12" d="M596.1,195.5c0,0,3.5,4.8-0.7,12c-4.2,7.3-0.9,10.1-0.9,10.1l2.3,0.2
									C596.8,217.8,602.3,202.5,596.1,195.5z"/>
							</g>
							<g>
								<path class="st12" d="M596.8,217.8c0,0,3.2-11.7,12.8-17.2c0,0-2.9,2.5-3.4,5.7s0.1,6.1-5,13.7L596.8,217.8z"/>
							</g>
							<g>
								<path class="st12" d="M620.5,205.4c0,0-13.1,4.6-19.4,14.6l4.2,2.9c0,0,3.5-4.5,7.2-6.3c0,0,2.8-2.2,2.9-4.4
									C615.5,209.9,617,206.4,620.5,205.4z"/>
							</g>
							<g>
								<path class="st12" d="M610.8,237.8c0,0,4.7,1,7.7,0.6c0,0,3.2,0.1,4.1,3.8c0,0-1.3-7.8-6.7-10.1c0,0,9.6-0.3,13.1-5.8
									c0,0-1.5,2-6.2-0.3c-4.7-2.3-9.1-1.5-9.1-1.5s2.7-0.8,4.8-5.9c0,0,0.2-2.9,5.9-4.7c0,0-5.9-0.4-11.9,2.5
									c-6,2.9-7.2,6.3-7.2,6.3S611.5,227.7,610.8,237.8z"/>
							</g>
							<g>
								<path class="st12" d="M579.4,200.7c0,0,10,2.6,9.8,17.8l1.9-1c0,0-0.8-2.3-0.6-6C590.5,211.5,589.7,204.6,579.4,200.7z"/>
							</g>
							<g>
								<path class="st12" d="M566.5,241.7c0,0,0.2-5.6,10-6.2l-0.1,2.3c0,0-1.1,0.8-5.7,0.7C570.6,238.5,567.6,238.3,566.5,241.7z"
									/>
							</g>
							<g>
								<path class="st12" d="M560.1,226.8c0,0,3.3,5.2,12.8,5.4c0,0,2-1,4.4-0.8c0,0-0.8-2.9-8.3-0.9
									C569,230.5,563.4,230.3,560.1,226.8z"/>
							</g>
							<g>
								<path class="st12" d="M564.5,214.1c0,0,6-0.1,9,5.2s8.3,5.4,8.3,5.4l-1.8,1.8c0,0-2.8-1.9-5.1-1.8c0,0-2.7-0.8-4.9-6.9
									C570,217.7,569.7,216,564.5,214.1z"/>
							</g>
							<g>
								<path class="st12" d="M568.9,205.4c0,0,4.5,0.6,7.3,7.3c2.8,6.6,9.8,5.2,9.8,5.2l-3.7,3.8c0,0-2.7-3.7-5.8-4.9
									c0,0-3.1-2.7-2.9-5.1C573.5,211.6,573.4,207.9,568.9,205.4z"/>
							</g>
						</g>
						<g>
							<g>
								<path class="st18" d="M622.3,242.4c0-0.1-0.8-3.6-4.1-3.6c-0.1,0-0.1,0-0.2,0c-3.8,0.2-5.5-0.7-5.5-0.7l0.3-0.5
									c0,0,1.6,0.8,5.2,0.7c1.7-0.1,2.9,0.7,3.6,1.5c-3-9-9.7-8.1-10-8l-0.1-0.6c0.1,0,8.8-1.2,11.4,11.2L622.3,242.4z"/>
							</g>
							<g>
								<path class="st18" d="M616,232.5l0-0.6c6.8-0.3,10.4-2.9,11.9-4.5c-2.3,0.6-5-0.9-5.3-1.1c-9.8-3-12.3-0.1-12.3-0.1
									l-0.5-0.4c0.1-0.1,2.7-3.2,13-0.1l0.1,0c0,0,4,2.3,6.1,0.4l1.4-1.3l-1,1.7C629.2,226.8,626,232,616,232.5z"/>
							</g>
							<g>
								<path class="st18" d="M613.7,224.9l-0.1-0.6c2.3-0.6,4.4-4.7,5-6.6c0.5-1.4,2.6-2.6,4.1-3.3c-12.5,0.8-16,7.7-16,7.8
									l-0.5-0.3c0.2-0.3,4-7.9,18.2-8.2l1.8,0l-1.7,0.6c-1.3,0.5-4.8,2-5.3,3.6C618.6,219.5,616.4,224.2,613.7,224.9z"/>
							</g>
							<g>
								<path class="st18" d="M591,217.9c0-0.1-2.8-6.8,2.6-14.7c0.1-0.1,3.9-4,2.5-7.3l-0.6-1.4l1.1,1.1c0.2,0.2,5.6,5.7,0.5,22.3
									l-0.6-0.2c3.7-11.9,1.7-18,0.5-20.4c0.1,3.1-2.8,6.2-3,6.3c-5.2,7.5-2.5,14-2.5,14.1L591,217.9z"/>
							</g>
							<g>
								<path class="st18" d="M601.9,219.8l-0.5-0.3c0-0.1,3.8-6.5,4.2-11.5c0.3-3.2,1.6-5.3,2.6-6.4c-8.6,4-9.5,10-9.5,10l-0.6-0.1
									c0-0.3,1.1-7.1,11.5-11.2l2.5-1l-2.2,1.5c0,0-3.1,2.2-3.6,7.2C605.8,213.2,602.1,219.5,601.9,219.8z"/>
							</g>
							<g>
								<path class="st18" d="M601.7,220.1l-0.5-0.3c0.1-0.1,7-13.9,20.1-15l0,0c0,0,0,0,0,0l0,0.6c0,0,0,0,0,0
									c-0.5,0-4.3,0.6-5.5,6.3c0,0.4-0.1,2.9-3.5,5.4l-0.4-0.5c3.4-2.4,3.3-4.9,3.3-4.9l0,0l0,0c0.7-3.2,2.2-4.9,3.5-5.8
									C607.6,208.5,601.7,220,601.7,220.1z"/>
							</g>
							<g>
								<path class="st18" d="M566.6,242.4l-0.6-0.1c2.6-12.3,11.3-11.2,11.4-11.2l-0.1,0.6c-0.3,0-7-0.9-10,8
									c0.8-0.9,1.9-1.6,3.6-1.5c3.6,0.2,5.2-0.7,5.2-0.7l0.3,0.5c-0.1,0-1.7,0.9-5.5,0.7c-0.1,0-0.1,0-0.2,0
									C567.4,238.8,566.6,242.3,566.6,242.4z"/>
							</g>
							<g>
								<path class="st18" d="M572.9,232.5c-10-0.5-13.2-5.7-13.3-5.9l-1-1.7l1.4,1.3c2.1,1.9,6-0.4,6.1-0.4l0.1,0
									c10.2-3.1,12.9,0,13,0.1l-0.5,0.4c0,0-2.5-2.9-12.3,0.1c-0.3,0.2-3.1,1.7-5.3,1.1c1.5,1.5,5.1,4.2,11.9,4.5L572.9,232.5z"/>
							</g>
							<g>
								<path class="st18" d="M575.2,224.9c-2.7-0.7-4.9-5.4-5.5-7c-0.5-1.5-4-3.1-5.3-3.6l-1.7-0.6l1.8,0
									c14.2,0.3,18.1,7.9,18.2,8.2l-0.5,0.3c0-0.1-3.6-7-16-7.8c1.5,0.7,3.6,1.9,4.1,3.3c0.7,1.9,2.8,6,5,6.6L575.2,224.9z"/>
							</g>
							<g>
								<path class="st18" d="M587,219.8c-0.2-0.3-3.9-6.6-4.3-11.8c-0.4-5-3.5-7.1-3.6-7.2l-2.2-1.5l2.5,1
									c10.3,4,11.4,10.9,11.5,11.2l-0.6,0.1c0-0.1-1-6.1-9.5-10c1,1.2,2.3,3.2,2.6,6.4c0.5,5.1,4.2,11.5,4.2,11.5L587,219.8z"/>
							</g>
							<g>
								<path class="st18" d="M587.2,220.1c-0.1-0.1-5.9-11.7-16.9-14.2c1.4,0.9,2.9,2.6,3.5,5.8l0,0l0,0c0,0,0,2.5,3.3,4.9
									l-0.4,0.5c-3.4-2.5-3.6-5-3.6-5.4c-1.2-5.7-5.1-6.3-5.5-6.3c0,0,0,0,0,0l0-0.6c0,0,0,0,0,0l0,0c13.1,1.1,20,14.8,20.1,15
									L587.2,220.1z"/>
							</g>
						</g>
						<g>
							<g>
								<path class="st13" d="M584,222.2"/>
							</g>
							<g>
								<path class="st22" d="M583.1,219.1c0,0,8.6-4.3,11.5-3.8c0,0,8.6,1.7,11.3,3.9c0,0,0.9,3.4,2.7,5.1c0,0,7.7,4.6,5.4,13.9
									c0,0-15-2.7-19.6,6.4c0,0-2.8-9-19.5-6.5c0,0-3-7.3,4.8-13.3C579.7,224.9,582.4,222.7,583.1,219.1z"/>
							</g>
							<g>
								<path class="st23" d="M574.9,238.2c0,0,13.1-3.1,19.8,3.6c0,0,6.1-6.6,14.3-6.6c0,0,1.4-8.7-7.9-10.2c0,0,2-7.3-6.5-9.7
									c0,0,8.1,1.5,11.3,3.9l-0.4,0.1c0,0,2.3,5.4,4.3,6.2c0,0,6.3,4,4.2,12.7c0,0-15.2-2.8-19.6,6.4
									C594.4,244.7,591.3,236,574.9,238.2z"/>
							</g>
							<g>
								<path class="st8" d="M583.1,219.1c0,0,4.7-0.2,7,8.1c0,0-5.1-3.7-9.3-3.5C580.8,223.8,582.3,221.7,583.1,219.1z"/>
							</g>
							<g>
								<path class="st8" d="M605.8,219.1c0,0,1.7,3.9,2.3,4.6c0,0-5.8,0.4-9.5,3.7C598.6,227.5,600.3,220.2,605.8,219.1z"/>
							</g>
							<g>
								<path class="st19" d="M589.9,227.3c0,0-1.9-7.3-7.2-7.3l0.4-0.9C583.1,219.1,588.6,220,589.9,227.3z"/>
							</g>
							<g>
								<path class="st21" d="M582.9,219.2c0,0-1,3.9,0.9,4.1c0,0,1.7-0.7,1-3.5l1.3,0.7c0,0,0.4,4.1-2.3,3.7
									C583.8,224.2,581.2,222.6,582.9,219.2z"/>
							</g>
							<g>
								<path class="st19" d="M605.9,219.2c0,0-5.8,0.9-7.1,8.1c0,0,2-7.3,7.6-7.3"/>
							</g>
							<g>
								<path class="st21" d="M602.8,220.5c0,0-0.3,4.6,2.6,3.4c0,0,1.5-0.7,1.1-3.1l-0.3-0.9c0,0,0.6,3.3-0.9,3.4
									c0,0-1.3,0.1-1.3-2.2l0-1.3L602.8,220.5z"/>
							</g>
							<g>
								<g>
									<path class="st18" d="M594.7,244.8l-0.5-0.3c4.4-8.6,17.5-7,19.6-6.7c1.2-4.5-0.2-8.7-3.8-11.9c-0.1-0.1-0.2-0.1-0.2-0.2
										c-1.9-1.4-3.3-3.5-3.9-6.2c0,0,0-0.1,0-0.1c-3.3-1.9-7.3-3.3-11.4-3.8l0.1-0.6c4.2,0.6,8.3,2,11.7,3.9l0.1,0.1
										c0.1,0.1,0.1,0.1,0.1,0.4c0.6,2.6,1.9,4.5,3.7,5.9l0.1,0.1c0,0,0.1,0.1,0.1,0.1c3.9,3.4,5.3,7.9,4,12.8l-0.1,0.3l-0.3-0.1
										C613.8,238.4,599.3,235.9,594.7,244.8z"/>
								</g>
								<g>
									<path class="st18" d="M598.3,228.2l0.2-0.8c0-0.1,1.4-7.3,7.3-8.6l0.3-0.1l0.1,0.2c0,0,1.3,3.3,2.3,4.5l0.1,0.1l0,0.1
										c0,0.3-0.3,0.3-0.5,0.3c-3.9,0.2-7,2.1-8.9,3.6L598.3,228.2z M605.6,219.5c-4.1,1.1-5.8,5.4-6.3,7.2c2-1.4,4.8-2.9,8.3-3.2
										C606.7,222.3,605.9,220.2,605.6,219.5z"/>
								</g>
								<g>
									<path class="st18" d="M604.6,224.5c-0.1,0-0.1,0-0.1,0c-0.6-0.1-1-0.3-1.3-0.7c-0.9-1.2-0.6-3.3-0.6-3.4l0.6,0.1
										c0,0-0.3,1.9,0.5,2.9c0.2,0.3,0.6,0.5,1,0.5l0.1,0c0.2,0,0.7-0.2,1-0.7c0.5-0.6,0.6-1.3,0.4-2.3l0.6-0.1
										c0.4,1.9-0.5,2.9-1,3.3C605.4,224.3,604.9,224.5,604.6,224.5z"/>
								</g>
								<g>
									<path class="st18" d="M605.1,223.6c-0.1,0-0.2,0-0.2,0l0,0c-1.6-0.5-1.2-3.5-1.1-3.8l0.6,0.1c-0.1,0.7-0.2,2.8,0.7,3.1
										c0,0,0.3,0,0.5-0.2c0.3-0.2,0.6-1,0.3-3.1l0.6-0.1c0.3,2.1,0.1,3.3-0.7,3.8C605.5,223.6,605.2,223.6,605.1,223.6z"/>
								</g>
								<g>
									<path class="st18" d="M594.2,244.8c-4.6-8.9-19.1-6.4-19.2-6.3l-0.3,0.1l-0.1-0.3c-1.4-4.9,0-9.4,4-12.8
										c0.1,0,0.1-0.1,0.1-0.1l0,0l0.1,0c1.8-1.3,3.1-3.3,3.7-5.9c0.1-0.2,0.1-0.3,0.1-0.4l0.1-0.1c3.4-2,7.5-3.4,11.7-3.9
										l0.1,0.6c-4,0.5-8.1,1.9-11.4,3.8c0,0,0,0.1,0,0.1c-0.7,2.7-2,4.8-3.9,6.2c0,0-0.1,0.1-0.2,0.2c-3.7,3.2-5,7.4-3.8,11.9
										c2.1-0.3,15.2-1.9,19.6,6.7L594.2,244.8z"/>
								</g>
								<g>
									<path class="st18" d="M590.6,228.2l-0.6-0.5c-1.9-1.5-5-3.4-8.9-3.6c-0.2,0-0.5,0-0.5-0.3l0-0.1l0.1-0.1
										c1-1.2,2.2-4.5,2.3-4.5l0.1-0.2l0.3,0.1c5.9,1.3,7.3,8.5,7.3,8.6L590.6,228.2z M581.3,223.5c3.5,0.2,6.3,1.8,8.3,3.2
										c-0.5-1.8-2.2-6.1-6.3-7.2C583,220.2,582.1,222.3,581.3,223.5z"/>
								</g>
								<g>
									<path class="st18" d="M584.2,224.5c-0.3,0-0.7-0.2-1.1-0.4c-0.5-0.4-1.4-1.4-1-3.3l0.6,0.1c-0.2,1,0,1.7,0.4,2.3
										c0.4,0.5,0.8,0.6,1,0.7l0.1,0c0.4,0,0.7-0.2,1-0.5c0.8-1,0.5-2.9,0.5-2.9l0.6-0.1c0,0.1,0.3,2.2-0.6,3.4
										c-0.3,0.4-0.8,0.7-1.3,0.7C584.3,224.5,584.3,224.5,584.2,224.5z"/>
								</g>
								<g>
									<path class="st18" d="M583.8,223.6c-0.2,0-0.4,0-0.6-0.2c-0.8-0.5-1.1-1.7-0.7-3.8l0.6,0.1c-0.3,2.1,0,2.8,0.3,3.1
										c0.2,0.2,0.4,0.2,0.5,0.2c0.9-0.3,0.8-2.4,0.7-3.1l0.6-0.1c0.1,0.3,0.5,3.3-1.1,3.8l0,0C584,223.6,583.9,223.6,583.8,223.6
										z"/>
								</g>
							</g>
						</g>
					</g>
					<g>
						<g>
							<path class="st24" d="M575.7,237.1c0,0,2.2,0,3,1.4l1.3,1.9c0,0,1.1,2.7,1.1,3.8c0,0,0.7,9.1-4.4,8c0,0,0.7,3.6,4.5,8.4
								c0,0,0.4,2-3,1.9c0,0-1.6-0.3-3-5.1c0,0-0.6-4.7-0.2-6.1l-0.2-0.2c0,0-0.9,3.9,0.1,12c0,0-1.7,1.6-5.3-2.1c0,0-1-2.4,0.5-5
								c1.4-2.6,2.9-6.6,3.4-6.6l-0.1-0.2c0,0-2.3,0.6-6.5,7.4c0,0-2.4-0.2-2.6-5.4c0,0,0.4-4,8.2-4.5
								C572.5,246.6,570.4,238.3,575.7,237.1z"/>
						</g>
						<g>
							<path class="st25" d="M573.2,248.7c0,0-4.8,2-7.4,7c0,0,0.6,0.7,1,0.8c0,0,4.8-7.4,6.5-7.4L573.2,248.7z"/>
						</g>
						<g>
							<path class="st25" d="M574.3,250.6c0,0-4.1,11.3-1.3,12.7c0,0,1.2,0.5,1.7-0.1l0.2,0c0,0-1.2-11.2-0.1-12.2L574.3,250.6z"/>
						</g>
						<g>
							<path class="st25" d="M576.6,252.4l-1.5-0.9c0,0-0.4,9.4,5.6,10.1l0.5-0.8C581.2,260.7,577,254.6,576.6,252.4z"/>
						</g>
						<g>
							<path class="st25" d="M575.4,237.2c0,0,3.6,5.3,3.3,9.1c0,0,0,8.2-5.4,2.8c0,0,1,3.3,4.3,3.3c0,0,2.7,0.6,3.6-5.3
								c0,0,0.1-8.6-4.7-9.9L575.4,237.2z"/>
						</g>
						<g>
							<g>
								<path class="st18" d="M566.9,256.9c0,0-0.1,0-0.1,0c-2.5-1.1-2.7-4.1-2.8-5.1c0-0.1,0-0.1,0-0.2l0,0l0-0.2
									c0.7-5,8.2-5,8.6-5c0,0,0,0,0,0l0,0.6l0,0c-0.1,0-7.3,0-8,4.4c0,0.1,0,0.1,0,0.3c0.1,0.9,0.3,3.5,2.2,4.5
									c0,0,0.1-0.1,0.1-0.1c2.9-4.4,5-6.8,6.4-7.1l0.1,0.6c-0.9,0.2-2.6,1.6-6.1,6.9C567.1,256.7,567,256.9,566.9,256.9z"/>
							</g>
							<g>
								<path class="st18" d="M573.9,263.7c-2,0-4.2-2.1-4.2-2.1c-2.8-2.9,3.2-12.1,3.5-12.4l0.5,0.3c-1.7,2.5-5.6,9.6-3.5,11.7
									c0.3,0.3,2.8,2.4,4.4,1.8c0-0.2,0-0.5-0.1-0.8c-0.4-4.5-0.8-9.9,0-11.3l0.5,0.3c-0.9,1.4-0.2,8.6,0.1,10.9
									c0.1,1.2,0.1,1.2,0,1.3C574.6,263.7,574.3,263.7,573.9,263.7z"/>
							</g>
							<g>
								<path class="st18" d="M578.5,262.8c-0.4,0-0.9-0.2-1.3-0.5c0,0-0.5-0.4-0.6-0.6l0,0c-3-3.9-2.1-10.4-2.1-10.6l0.6,0.1
									c0,0.1-0.9,6.5,2,10.2l0.1,0.1c0.2,0.2,0.9,1,1.8,0.7c0.5-0.1,1.8-0.6,2-1.4c0,0,0,0,0-0.1c-2.1-2.9-4.6-6.7-4.5-8.6l0.6,0
									c0,1.3,1.6,4.3,4.4,8.2c0.1,0.2,0.2,0.3,0.2,0.5c-0.2,1.3-2.3,1.9-2.4,1.9C578.9,262.8,578.7,262.8,578.5,262.8z"/>
							</g>
						</g>
						<g>
							<g>
								<path class="st18" d="M574.6,243.7C574.6,243.7,574.6,243.7,574.6,243.7C574.6,243.8,574.6,243.8,574.6,243.7l-0.3,0.1
									c0,0-0.1,0-0.1,0.1c0,0.5,0,1,0,1.7c0,1,0.3,1.4,0.7,1.4c0.5,0,0.6-0.4,0.6-1.5c0-0.6,0-1.2-0.1-1.6c0-0.1,0-0.1-0.1-0.1
									l-0.3,0c0,0,0,0,0-0.1c0,0,0,0,0,0l1.3,0c0,0,0,0,0,0c0,0,0,0.1,0,0.1l-0.2,0c0,0-0.1,0-0.1,0.1c0,0.4,0.1,0.9,0.1,1.6
									c0,1.1-0.6,1.6-1.5,1.6c-0.8,0-1.4-0.3-1.4-1.5c0-0.7,0.1-1.4,0.1-1.6c0-0.1,0-0.1-0.1-0.1l-0.2,0c0,0,0,0,0-0.1
									c0,0,0,0,0,0L574.6,243.7z"/>
							</g>
							<g>
								<path class="st18" d="M576.9,245.6c0-0.7,0.3-1.2,0.6-1.5c0.3-0.3,0.8-0.5,1.3-0.5c0.3,0,0.5,0,0.6,0.1c0,0,0,0,0,0.1
									l0.1,0.8c0,0,0,0.1-0.1,0.1c0,0,0,0,0,0c-0.1-0.2-0.2-0.5-0.3-0.7c0,0-0.1-0.1-0.1-0.1c0,0-0.1-0.1-0.2-0.1
									c-0.2,0-0.4,0.1-0.6,0.3c-0.3,0.4-0.4,0.8-0.4,1.4c0,0.9,0.6,1.3,1,1.3c0.1,0,0.2,0,0.3,0c0.2,0,0.3-0.1,0.5-0.2
									c0,0,0,0,0,0.1c0,0,0,0,0,0c-0.1,0.1-0.4,0.2-0.6,0.3c-0.1,0-0.3,0.1-0.5,0.1C577.7,247,576.9,246.7,576.9,245.6
									L576.9,245.6z"/>
							</g>
						</g>
						<g>
							<path class="st18" d="M577.3,252.8c-1.2,0-2.3-0.7-3.3-2c-1.1-1.4-1.8-3.3-2.1-5.4c-0.6-4.4,1-8.3,3.6-8.7
								c2.6-0.4,5.2,2.9,5.8,7.4l0,0c0.6,4.4-1,8.3-3.6,8.7C577.6,252.8,577.5,252.8,577.3,252.8z M575.9,237.4c-0.1,0-0.2,0-0.3,0
								c-2.3,0.3-3.6,3.9-3.1,8c0.3,2,1,3.8,2,5.1c1,1.3,2.1,1.9,3.1,1.7c2.3-0.3,3.6-3.9,3.1-8l0,0
								C580.2,240.3,578.1,237.4,575.9,237.4z"/>
						</g>
						<g>
							<path class="st24" d="M612.6,237.1c0,0-2.2,0-3,1.4l-1.3,1.9c0,0-1.1,2.7-1.1,3.8c0,0-0.7,9.1,4.4,8c0,0-0.7,3.6-4.5,8.4
								c0,0-0.4,2,3,1.9c0,0,1.6-0.3,3-5.1c0,0,0.6-4.7,0.2-6.1l0.2-0.2c0,0,0.9,3.9-0.1,12c0,0,1.7,1.6,5.3-2.1c0,0,1-2.4-0.5-5
								c-1.4-2.6-2.9-6.6-3.4-6.6l0.1-0.2c0,0,2.3,0.6,6.5,7.4c0,0,2.4-0.2,2.6-5.4c0,0-0.4-4-8.2-4.5
								C615.8,246.6,617.9,238.3,612.6,237.1z"/>
						</g>
						<g>
							<path class="st25" d="M615.9,246.6c0,0,7.1,0,8.2,4.8c0,0,0,4.1-2.7,5.1c0,0,2.7-6.1-5.7-9.4L615.9,246.6z"/>
						</g>
						<g>
							<path class="st25" d="M614.9,249.4c0,0,6.1,10.3,3.6,12.1c0,0-0.9,1.5-1.5,1.1l-0.4,0.3c0,0-0.5-12.3-1.8-13.1L614.9,249.4z"
								/>
						</g>
						<g>
							<path class="st25" d="M612.2,252.7l1.4-1.1c0,0,0.2,11.6-4.3,10.9l-0.6-0.2C608.6,262.2,612,254.9,612.2,252.7z"/>
						</g>
						<g>
							<path class="st25" d="M612.4,237.3c0,0,2.1,6,0.9,9.6c0,0-2.1,7.9-5.9,1.3c0,0,0.1,3.5,3.3,4.3c0,0,2.4,1.3,4.9-4.2
								c0,0,2.3-8.3-2-10.8L612.4,237.3z"/>
						</g>
						<g>
							<g>
								<path class="st18" d="M621.4,256.9c-0.2,0-0.2-0.1-0.5-0.5c-3.4-5.3-5.2-6.7-6.1-6.9l0.1-0.6c1.5,0.4,3.6,2.7,6.4,7.1
									c0,0,0.1,0.1,0.1,0.1c1.9-1,2.1-3.6,2.2-4.5c0-0.1,0-0.2,0-0.3c-0.7-4.4-7.9-4.4-8-4.4l0,0l0-0.6c0,0,0,0,0,0
									c0.4,0,7.9,0.1,8.6,5l0,0.2l0,0c0,0,0,0.1,0,0.2c-0.3,2.7-1.2,4.4-2.8,5.1C621.5,256.8,621.4,256.9,621.4,256.9z"/>
							</g>
							<g>
								<path class="st18" d="M614.4,263.7c-0.4,0-0.7-0.1-1.1-0.2c-0.2-0.1-0.2-0.1-0.1-1.4c0.2-2.4,0.9-9.5,0.1-10.9l0.5-0.3
									c0.9,1.4,0.5,6.8,0,11.3c0,0.3-0.1,0.7-0.1,0.8c1.5,0.6,4-1.5,4.4-1.8c2-2.1-1.9-9.1-3.5-11.7l0.5-0.3
									c0.3,0.4,6.2,9.6,3.5,12.4C618.6,261.7,616.3,263.7,614.4,263.7z"/>
							</g>
							<g>
								<path class="st18" d="M609.7,262.8c-0.2,0-0.4,0-0.6-0.1c-0.1,0-2.2-0.6-2.4-1.9c-0.1-0.1,0.1-0.3,0.2-0.5
									c2.8-3.9,4.4-6.9,4.4-8.2l0.6,0c0,1.9-2.5,5.7-4.5,8.6c0,0,0,0,0,0.1c0.2,0.7,1.4,1.2,1.9,1.3c0.9,0.3,1.6-0.5,1.8-0.7v0
									l0.1-0.1c2.8-3.7,2-10.1,2-10.2l0.6-0.1c0,0.3,0.9,6.8-2.1,10.6l0,0c-0.2,0.3-0.6,0.6-0.6,0.6
									C610.6,262.7,610.2,262.8,609.7,262.8z"/>
							</g>
						</g>
						<g>
							<g>
								<path class="st18" d="M610,243.7C610,243.7,610,243.7,610,243.7C610,243.8,610,243.8,610,243.7l-0.3,0.1c0,0-0.1,0-0.1,0.1
									c0,0.5,0,1,0,1.7c0,1,0.3,1.4,0.7,1.4c0.5,0,0.6-0.4,0.6-1.5c0-0.6,0-1.2-0.1-1.6c0-0.1,0-0.1-0.1-0.1l-0.3,0c0,0,0,0,0-0.1
									c0,0,0,0,0,0l1.3,0c0,0,0,0,0,0c0,0,0,0.1,0,0.1l-0.2,0c0,0-0.1,0-0.1,0.1c0,0.4,0.1,0.9,0.1,1.6c0,1.1-0.6,1.6-1.5,1.6
									c-0.8,0-1.4-0.3-1.4-1.5c0-0.7,0.1-1.4,0.1-1.6c0-0.1,0-0.1-0.1-0.1l-0.2,0c0,0,0,0,0-0.1c0,0,0,0,0,0L610,243.7z"/>
							</g>
							<g>
								<path class="st18" d="M612.3,245.6c0-0.7,0.3-1.2,0.6-1.5c0.3-0.3,0.8-0.5,1.3-0.5c0.3,0,0.5,0,0.6,0.1c0,0,0,0,0,0.1
									l0.1,0.8c0,0,0,0.1-0.1,0.1c0,0,0,0,0,0c-0.1-0.2-0.2-0.5-0.3-0.7c0,0-0.1-0.1-0.1-0.1c0,0-0.1-0.1-0.2-0.1
									c-0.2,0-0.4,0.1-0.6,0.3c-0.3,0.4-0.4,0.8-0.4,1.4c0,0.9,0.6,1.3,1,1.3c0.1,0,0.2,0,0.3,0c0.2,0,0.3-0.1,0.5-0.2
									c0,0,0,0,0,0.1c0,0,0,0,0,0c-0.1,0.1-0.4,0.2-0.6,0.3c-0.1,0-0.3,0.1-0.5,0.1C613.1,247,612.3,246.7,612.3,245.6
									L612.3,245.6z"/>
							</g>
						</g>
						<g>
							<path class="st18" d="M610.9,252.8c-0.1,0-0.3,0-0.4,0c-2.6-0.4-4.2-4.2-3.6-8.7l0,0c0.6-4.4,3.2-7.7,5.8-7.4
								c2.6,0.4,4.2,4.2,3.6,8.7C615.7,249.6,613.4,252.8,610.9,252.8z M607.5,244.2c-0.6,4.1,0.8,7.7,3.1,8
								c2.2,0.3,4.5-2.8,5.1-6.8c0.6-4.1-0.8-7.7-3.1-8C610.4,237.1,608.1,240.1,607.5,244.2L607.5,244.2z"/>
						</g>
					</g>
				</g>
			</g>
		</g>
		<g>
			<path class="st14" d="M582.6,271.1c0,0,9.4,7.1,24.5,0.3c0,0-1.4,12-1,20.7c0,0-0.2,7.7,0.3,10.3c0,0-7.2,2.5-22.9,0.7
				C583.5,303.1,585.2,288.7,582.6,271.1z"/>
			<path class="st15" d="M582.6,271.1c0,0,0.4,3.9,6.9,5.9c5.2,1.6,9.9,0.9,11.6,0.5c0.3-0.1,0.8-0.3,0.7,0
				c-0.5,3.3-1.7,15.8-1.6,26.2c0,0,5.4-0.4,6.3-1.3c0,0-0.9-25.5,0.7-31C607.2,271.5,592.8,278.3,582.6,271.1z"/>
			<g>
				<g>
					<path class="st18" d="M583.5,303.1c0.1-1.4,0.2-2.7,0.2-4.1c0-1.4,0.1-2.7,0.1-4.1c0-2.7,0-5.5-0.1-8.2
						c-0.1-2.7-0.2-5.5-0.4-8.2c-0.2-2.7-0.4-5.4-0.7-8.2c0.2,1.3,0.5,2.7,0.6,4.1c0.2,1.4,0.4,2.7,0.5,4.1c0.3,2.7,0.4,5.5,0.6,8.2
						c0.1,2.7,0.1,5.5,0,8.2C584.1,297.6,583.9,300.4,583.5,303.1z"/>
				</g>
				<g>
					<path class="st18" d="M606.1,291.6c-0.1-1.9-0.2-3.8-0.2-5.8c0-1.9,0-3.9,0.1-5.8c0.1-1.9,0.3-3.8,0.5-5.8
						c0.1-1,0.2-1.9,0.4-2.9c0.2-0.9,0.3-1.9,0.5-2.8l-0.4,5.7c-0.1,1.9-0.3,3.8-0.4,5.7c-0.1,1.9-0.2,3.8-0.3,5.7
						C606.3,287.8,606.3,289.7,606.1,291.6z"/>
				</g>
			</g>
		</g>
		<g>
			<g>
				<path class="st14" d="M607,272.7l0.1-1l8.5-3.4c0,0,3.3,5.1,4.7,8c1.4,2.9,3.8,8.4,3.8,8.4s1.7,3.2-4.2,8.8l-5.7,5.7
					c0,0-3.3,1.3-4.5,2.5c-1.2,1.1-3.6,2.3-3.3-1.1c0,0-2.4,0.7-1.4-2.2c0,0-2.1,0.3-1.7-1.8c0,0,0.2-1.3,1.7-1.9
					c0,0-3.2,1.2-2.8-1.6c0,0,2.5-3.2,5.5-0.7c0,0,2.6-0.1,6.3-4.5l1.7-2.1c0,0-0.8-3.6-4.2-7.6C608.2,274.4,607.8,273.3,607,272.7z
					"/>
			</g>
			<g>
				<path class="st15" d="M607,272.7c0,0,1.9-0.1,5.8-1c0,0,2.1-0.6,8.4,11.3c0,0,4.5,4.8-7.9,15.5c0,0-6.3,5.2-7,2.5
					c0,0-0.2,2.7,1.9,1.8c2.1-0.9,1.9-1.4,1.9-1.4s2.8-1.6,3.6-1.7c0.8-0.1,5.7-5.4,5.8-5.9c0,0,5.5-4.4,4.6-8.6
					c-0.9-4.3-8.7-17-8.7-17s-6.5,3.5-8.5,3.6L607,272.7z"/>
			</g>
			<g>
				<path class="st18" d="M607.2,272.8c1,0.9,1.8,1.9,2.7,2.9c0.9,1,1.7,2.1,2.4,3.1c0.8,1.1,1.5,2.2,2.1,3.4
					c0.6,1.2,1.2,2.4,1.4,3.7c-0.1-0.3-0.2-0.6-0.3-0.9c-0.1-0.3-0.3-0.6-0.4-0.9l-0.5-0.9l-0.5-0.8c-0.7-1.1-1.4-2.2-2.2-3.3
					c-0.8-1.1-1.5-2.1-2.3-3.2C608.7,275,607.9,273.9,607.2,272.8z"/>
			</g>
			<g>
				<path class="st22" d="M613.1,289.2c0,0,5.1,2.4,5.7,5.6l-3.9,3.9c0,0-0.9-3.8-4.3-7.3L613.1,289.2z"/>
			</g>
			<g>
				<path class="st16" d="M609.5,292.2c0,0,3,3.1,4.1,7.2l1.2-0.7c0,0-1.4-4.4-4.2-7.2L609.5,292.2z"/>
			</g>
			<g>
				<path class="st16" d="M613.2,289.2c0,0,5.3,2.6,5.6,5.6l1-1.2c0,0-0.7-3.4-5.9-5.4L613.2,289.2z"/>
			</g>
			<g>
				<path class="st17" d="M613.4,298.5c0,0,5.1-4.8,5.9-6.2l0.5,1.3c0,0-4.8,5.4-6.1,5.9L613.4,298.5z"/>
			</g>
			<g>
				<path class="st23" d="M618.3,293.6l0.5,1l-3.9,4.1l-0.4-1.2C614.5,297.5,617,295.1,618.3,293.6z"/>
			</g>
			<g>
				<g>
					<path class="st18" d="M606.7,295c-0.5-0.2-1-0.2-1.5-0.1c-0.5,0-1,0.1-1.5,0.2c-0.3,0-0.6,0.1-0.8,0c-0.3-0.1-0.5-0.4-0.6-0.6
						c-0.2-0.6-0.1-1.1,0.1-1.7l0-0.1l0,0c0.4-0.3,0.8-0.6,1.3-0.9c0.2-0.1,0.5-0.2,0.7-0.3c0.2-0.1,0.5-0.2,0.8-0.2
						c0.6-0.1,1.1,0,1.6,0.2c0.5,0.2,0.9,0.5,1.3,0.8l-0.1-0.1c0.2,0,0.5,0,0.7-0.1c0.3-0.1,0.5-0.2,0.7-0.3c0.5-0.2,1-0.6,1.4-0.9
						c0.9-0.7,1.7-1.5,2.5-2.3c0.8-0.8,1.5-1.7,2.3-2.6c0.7-0.9,1.4-1.8,2.1-2.7c-0.6,1-1.2,1.9-1.9,2.9c-0.7,0.9-1.4,1.8-2.2,2.7
						c-0.8,0.9-1.6,1.7-2.5,2.4c-0.5,0.4-1,0.7-1.5,1c-0.3,0.1-0.5,0.3-0.8,0.4c-0.1,0-0.3,0.1-0.5,0.1c-0.2,0-0.3,0-0.5,0l-0.1,0
						l-0.1-0.1c-0.7-0.6-1.6-1.1-2.5-1c-0.2,0-0.4,0.1-0.7,0.2c-0.2,0.1-0.4,0.2-0.7,0.3c-0.4,0.2-0.9,0.4-1.2,0.7l0.1-0.1
						c-0.2,0.4-0.3,1-0.1,1.4c0.1,0.2,0.2,0.4,0.4,0.4c0.2,0.1,0.5,0.1,0.7,0.1c0.5-0.1,1-0.1,1.6-0.1
						C605.7,294.7,606.3,294.8,606.7,295z"/>
				</g>
				<g>
					<path class="st18" d="M605,294.8c-0.4,0.3-0.8,0.5-1,0.9c-0.3,0.3-0.4,0.7-0.4,1.1c0,0.4,0.2,0.8,0.4,1.1
						c0.2,0.3,0.6,0.4,0.9,0.3l-0.1,0.1c0.2-0.2,0.3-0.4,0.5-0.5c0.2-0.1,0.4-0.3,0.6-0.4c0.2-0.1,0.5-0.2,0.7-0.2
						c0.2,0,0.5,0,0.7,0.1c-0.5,0-0.9,0.1-1.2,0.4c-0.2,0.1-0.3,0.3-0.5,0.4c-0.1,0.2-0.3,0.3-0.4,0.5l0,0.1l-0.1,0
						c-0.3,0.1-0.6,0.1-0.9,0.1c-0.3-0.1-0.5-0.3-0.7-0.5c-0.2-0.2-0.3-0.5-0.4-0.7c-0.1-0.2-0.2-0.5-0.1-0.8c0-0.6,0.3-1,0.7-1.4
						C604.1,295.1,604.6,294.9,605,294.8z"/>
				</g>
				<g>
					<path class="st18" d="M605.8,297.7c-0.4,0.5-0.7,1-0.8,1.6c0,0.3,0,0.5,0.1,0.7c0.1,0.2,0.3,0.4,0.5,0.5
						c0.3,0.2,0.9-0.2,1.5-0.4c0.5-0.3,1.2-0.6,1.8-0.5c-0.6,0.1-1.1,0.5-1.6,0.9c-0.2,0.2-0.5,0.4-0.8,0.5
						c-0.3,0.1-0.7,0.3-1.1,0.1c-0.4-0.2-0.6-0.5-0.8-0.8c-0.1-0.3-0.1-0.7,0-1.1C604.8,298.5,605.3,298.1,605.8,297.7z"/>
				</g>
				<g>
					<path class="st18" d="M612.1,265.4c0.5,0,0.9,0.3,1.3,0.5c0.4,0.3,0.8,0.6,1.1,0.9c0.7,0.7,1.3,1.5,1.9,2.2
						c1.1,1.6,2.1,3.2,3,4.9c0.9,1.7,1.7,3.5,2.5,5.2c0.8,1.8,1.6,3.5,2.3,5.3c0.3,0.9,0.4,1.9,0.2,2.9c-0.1,0.5-0.3,1-0.5,1.4
						c-0.2,0.5-0.5,0.8-0.8,1.2c-1.1,1.6-2.4,3-3.6,4.5c-1.3,1.5-2.6,2.9-4,4.2c-0.4,0.3-0.7,0.6-1.2,0.9c-0.1,0.1-0.3,0.1-0.4,0.2
						c-0.1,0-0.2,0.1-0.3,0.1c-0.2,0.1-0.4,0.2-0.7,0.3c-0.9,0.4-1.7,0.8-2.5,1.3l0,0c-0.4,0.4-0.8,0.7-1.3,1
						c-0.5,0.3-0.9,0.6-1.6,0.6c-0.3,0-0.6-0.2-0.8-0.5c-0.2-0.2-0.3-0.5-0.4-0.7c-0.1-0.3-0.1-0.5-0.1-0.8c0-0.1,0.1-0.3,0.1-0.4
						c0-0.1,0.1-0.1,0.1-0.2c0,0,0-0.1,0.1-0.1c0,0,0,0,0,0c0,0,0,0,0,0c0,0,0,0,0,0c0,0,0,0,0,0l-0.1,0c0.1,0,0,0,0,0.1
						c0,0,0,0.1-0.1,0.1c0,0.1-0.1,0.1-0.1,0.2c0,0.1-0.1,0.2-0.1,0.4c0,0.3,0,0.5,0.1,0.7c0.1,0.2,0.2,0.5,0.4,0.7
						c0.2,0.2,0.3,0.3,0.6,0.3c0.5,0,0.9-0.3,1.3-0.6c0.4-0.3,0.8-0.7,1.1-1l0,0l0,0c0.8-0.6,1.6-1.1,2.5-1.5
						c0.2-0.1,0.5-0.2,0.7-0.3c0.1,0,0.2-0.1,0.4-0.1c0.1,0,0.2-0.1,0.3-0.1c0.4-0.2,0.7-0.5,1.1-0.9c1.4-1.3,2.7-2.7,4-4.1
						c1.3-1.4,2.5-2.9,3.7-4.4c0.3-0.4,0.6-0.7,0.8-1.1c0.2-0.4,0.4-0.8,0.5-1.3c0.2-0.9,0.2-1.9-0.1-2.8c-1.4-3.6-3.2-7-5-10.3
						c-0.9-1.7-1.8-3.4-2.9-4.9c-0.5-0.8-1.1-1.6-1.7-2.3c-0.3-0.4-0.6-0.7-1-1C612.9,265.8,612.5,265.6,612.1,265.4L612.1,265.4z"
						/>
				</g>
				<g>
					<path class="st18" d="M609.4,292.1c0.6,0.4,1.1,1,1.5,1.6c0.5,0.6,0.8,1.2,1.2,1.8c0.4,0.6,0.7,1.3,0.9,2l0.4,1
						c0.1,0.4,0.2,0.7,0.3,1.1l-0.9-2c-0.3-0.7-0.6-1.3-1-1.9c-0.3-0.6-0.7-1.3-1.1-1.9C610.4,293.2,609.9,292.6,609.4,292.1z"/>
				</g>
				<g>
					<path class="st18" d="M610.5,291.4c0.5,0.5,1,1,1.5,1.6c0.5,0.6,0.9,1.2,1.3,1.8c0.8,1.3,1.3,2.6,1.6,4.1
						c-0.2-0.7-0.5-1.4-0.8-2c-0.3-0.6-0.6-1.3-1-1.9C612.3,293.7,611.4,292.6,610.5,291.4z"/>
				</g>
				<g>
					<path class="st18" d="M613,289.2c0.7,0.2,1.3,0.6,1.9,0.9c0.6,0.4,1.2,0.8,1.7,1.2c0.5,0.5,1,1,1.4,1.6
						c0.4,0.6,0.7,1.2,0.8,1.9c-0.5-1.3-1.4-2.3-2.4-3.2c-0.5-0.5-1.1-0.9-1.6-1.3C614.2,289.9,613.6,289.5,613,289.2z"/>
				</g>
				<g>
					<path class="st18" d="M613.9,288.2c0.7,0.2,1.3,0.5,2,0.8c0.6,0.3,1.2,0.7,1.8,1.2c0.5,0.5,1,1,1.4,1.6c0.4,0.6,0.6,1.3,0.7,2
						c-0.2-0.7-0.5-1.3-0.9-1.9c-0.4-0.5-0.9-1-1.4-1.5c-0.5-0.4-1.1-0.8-1.7-1.2C615.2,288.8,614.6,288.5,613.9,288.2z"/>
				</g>
			</g>
		</g>
		<path class="st26" d="M542.9,248.6c0,0-2.2-0.3-3,1.7l-2.9,0.8l-1.3,3.1l3.7,0.2l1.7-2.4c0,0,2.4,0.6,2.7-2.3l28.8-20.1l16.1-11.3
			l22.7-16l0.5,0.7l7.1-5.2l5.6,0.3l10.8-13.7l-16.7,6.1l-1.3,5l-7.3,5.1l0.5,0.6l-19,13.4l-21.1,14.8L542.9,248.6z"/>
		<path class="st27" d="M634.6,184.6l-11,11.2c-0.2,0.2-0.5,0.3-0.7,0.3l-5,0.2l-7.3,5.2l0.2,0.4l-15.8,11l-16.4,11.4l-12.5,8.8
			l-22.6,16.1c0,0-1,2.6-3.4,2.2c0,0-1.8,2.9-4.4,2.7l3.4,0.3l1.7-2.4c0,0,1.8,0.5,2.7-2l11.9-8.6l20.6-14.4l20.5-14.5l14.6-10
			l0.4,0.6l7.1-5.2l5.6,0.3l10.8-13.7L634.6,184.6z"/>
		<g>
			<polygon class="st13" points="635.2,184.3 618.5,190.4 617.2,195.4 618.8,197.8 624.5,198.1 			"/>
			<polyline class="st13" points="617.2,195.4 609.9,200.5 611.7,203 618.8,197.8 			"/>
			<polyline class="st13" points="573.9,228.6 543.8,249.6 543,248.4 573.1,227.4 			"/>
			<polyline class="st13" points="578.7,223.4 610.4,201.2 611.2,202.4 579.1,224.9 			"/>
			<ellipse transform="matrix(0.8188 -0.574 0.574 0.8188 -45.4733 356.314)" class="st13" cx="541.7" cy="250.2" rx="2" ry="1.6"/>
			<polyline class="st13" points="539.9,250.1 536.9,251 535.6,254.1 539.3,254.3 541,251.9 			"/>
		</g>
		<g>
			<g>
				<path class="st14" d="M573.9,229.2c0,0-2.8-4.9-2.4-5.8c0,0-1.8-3,0.7-3.3c0,0,1.9-0.9,2.5,1.5c0,0,0.2,0.1,0-1.6
					c0,0-0.4-0.9,1.2-1.3c1.6-0.3,2.2,0.3,2.4,1.2c0,0,0.2-1.3,0.2-1.4s0.1-1.3,2-1s1.7,2.7,1.7,2.7s1.4-0.6,1.7,1.2
					c0,0,0.6,1.7-1.9,3.9c0,0-2.4,4.3-2.4,5.7c-0.1,1.4-0.7,8.4-0.7,8.4l-1.6,12.1l-1.3,6.4c0,0,3.3,4.4,4.6,5.1
					c0,0,16.2,15.3,2.7,13.3c0,0-6.2-3.1-10.8-8.4s-4.3-8.5-4.3-13s2.9-16.5,2.9-16.5L573.9,229.2z"/>
			</g>
			<g>
				<path class="st15" d="M578.9,222.2c0,0,1.4,1.6-1.1,8.4c0,0-2.3,12.8-2.6,16.5s-1.1,11.4,0.1,13.8c1.2,2.4,0.2,10.6,12.2,15.3
					c0,0,1.8-0.6,1.1-2.6c-0.6-1.6-7.6-10-12.5-15.8c0,0,1.6-6.6,2-10.8c0.4-4.2,1.5-16,1.5-16s1-3.4,2.3-5.5c0,0,2.5-2.1,2.1-4.5
					c0,0-0.3-1.4-1.8-1C582.2,220.1,581.7,227.3,578.9,222.2z"/>
			</g>
			<g>
				<path class="st18" d="M583.5,276.4c-3.8-2.1-7.9-4.7-11-8.2c-1.5-1.7-2.9-3.6-3.7-5.7c-0.8-2.2-0.9-4.5-0.8-6.8
					c0.1-2.3,0.3-4.5,0.7-6.8c0.4-2.2,0.8-4.5,1.3-6.7c0.5-2.2,1.1-4.4,1.7-6.6c0.6-2.2,1.3-4.3,2-6.5l0,0.1c-0.5-1-1-2-1.4-3
					c-0.4-1-0.8-2.1-1-3.2c0.2,1.1,0.6,2.1,1.1,3.1c0.4,1,1,2,1.5,3l0,0l0,0.1c-1.3,4.3-2.4,8.7-3.4,13.1c-1,4.4-1.7,8.9-2,13.4
					c-0.1,2.2,0,4.5,0.7,6.6c0.8,2.1,2.1,3.9,3.6,5.6c1.5,1.7,3.2,3.2,4.9,4.6C579.5,274,581.6,275.2,583.5,276.4z"/>
			</g>
			<g>
				<path class="st18" d="M590,261.5c-1.1,0.9-2.4,1.6-3.7,2.1c-1.4,0.5-2.8,0.8-4.3,0.4c-1.5-0.5-2.6-1.5-3.5-2.6
					c-0.9-1.1-1.7-2.3-2.3-3.6c0.8,1.2,1.7,2.3,2.7,3.3c1,1,2.1,1.9,3.3,2.4c0.6,0.2,1.3,0.2,2,0.2c0.7,0,1.4-0.2,2-0.4
					C587.5,262.9,588.8,262.3,590,261.5z"/>
			</g>
			<g>
				<g>
					<path class="st22" d="M573.4,230.9c0,0,2.1,2,6.1,1.5l-0.4,3.7c0,0-3.7,0.9-6.9-1.3L573.4,230.9z"/>
				</g>
				<g>
					<path class="st16" d="M573.9,229.3c0,0,2.5,1.8,5.8,1.3l-0.2,1.8c0,0-3.7,0.6-6.2-1.3L573.9,229.3z"/>
				</g>
				<g>
					<path class="st16" d="M572.2,234.8c0,0,3.4,2,6.9,1.3l-0.1,1.1c0,0-4.8,0.6-7.1-1.2L572.2,234.8z"/>
				</g>
				<g>
					<path class="st23" d="M577.5,232.4c0,0-0.7,3.3-0.7,3.8c0,0,1.7,0.2,2.2-0.1l0.4-3.7C579.4,232.4,578,232.7,577.5,232.4z"/>
				</g>
				<g>
					<path class="st17" d="M577.5,232.4c0,0,0.1-1.1,0.3-1.8c0,0,1.1,0.1,1.8,0l-0.2,1.8C579.4,232.4,578.1,232.9,577.5,232.4z"/>
				</g>
				<g>
					<path class="st17" d="M576.6,237.4l0.2-1.2c0,0,1.5,0.2,2.2-0.1l-0.1,1.2C578.9,237.3,577.3,237.6,576.6,237.4z"/>
				</g>
			</g>
			<g>
				<path class="st18" d="M575.2,260.8c0.6-2.4,1.1-4.9,1.6-7.4c0.4-2.5,0.8-5,1.1-7.4c0.3-2.5,0.6-5,0.8-7.5
					c0.1-1.2,0.2-2.5,0.3-3.7l0.3-3.8l0,0l0,0c0.3-1.1,0.7-2.1,1.2-3.1c0.5-1,1-2,1.8-2.8c0.7-0.8,1.3-1.8,1.5-2.8
					c0.1-0.5,0.2-1.1-0.1-1.6c-0.3-0.5-0.8-0.7-1.4-0.7c0.5,0,1.1,0.2,1.5,0.7c0.3,0.5,0.3,1.1,0.2,1.6c-0.2,1.1-0.8,2.1-1.5,3
					c-0.8,0.8-1.2,1.8-1.6,2.8c-0.4,1-0.8,2-1.1,3.1l0-0.1l-0.2,3.8c-0.1,1.3-0.2,2.5-0.3,3.8c-0.2,2.5-0.5,5-0.9,7.5
					c-0.4,2.5-0.8,5-1.3,7.4c-0.3,1.2-0.5,2.5-0.9,3.7C575.9,258.4,575.6,259.6,575.2,260.8z"/>
			</g>
			<g>
				<path class="st13" d="M581.2,263.3"/>
			</g>
			<g>
				<g>
					<path class="st18" d="M573.8,226.2c-0.4-0.2-0.8-0.6-1.1-0.9c-0.3-0.3-0.7-0.7-0.9-1.1c-0.3-0.4-0.5-0.8-0.7-1.3
						c-0.2-0.5-0.3-0.9-0.4-1.4l0,0.1c-0.2-0.3,0-0.6,0.1-0.8c0.1-0.2,0.3-0.3,0.5-0.4c0.4-0.2,0.7-0.4,1.1-0.5
						c0.2-0.1,0.4-0.1,0.6-0.2c0.2,0,0.5,0,0.7,0.1c0.4,0.2,0.7,0.6,0.9,0.9c0.4,0.7,0.6,1.5,0.7,2.3c0.1,0.8,0.1,1.6,0,2.4l0,0
						c0,0.2-0.1,0.3-0.2,0.5c-0.1,0.1-0.2,0.3-0.4,0.3c-0.2,0.1-0.3,0.1-0.5,0.1C574.1,226.3,574,226.2,573.8,226.2z M573.8,226.1
						c0.1,0,0.3,0.1,0.4,0.1c0.2,0,0.3,0,0.4-0.1c0.2-0.2,0.3-0.5,0.4-0.7l0,0c-0.1-0.8-0.2-1.5-0.3-2.3c-0.1-0.7-0.3-1.5-0.6-2.1
						c-0.2-0.3-0.4-0.6-0.6-0.7c-0.1-0.1-0.3-0.1-0.4-0.1c-0.1,0-0.3,0.1-0.5,0.1c-0.4,0.1-0.7,0.2-1,0.4c-0.2,0.1-0.3,0.2-0.4,0.3
						c-0.1,0.1-0.1,0.3-0.1,0.3l0,0l0,0c0.1,0.5,0.2,0.9,0.3,1.4c0.1,0.5,0.3,0.9,0.6,1.3C572.4,224.9,573,225.6,573.8,226.1z"/>
				</g>
			</g>
			<g>
				<g>
					<path class="st18" d="M577.1,224.9c-0.4-0.3-0.7-0.7-1-1c-0.3-0.4-0.6-0.8-0.8-1.2c-0.2-0.4-0.4-0.9-0.5-1.4
						c-0.1-0.5-0.2-1-0.3-1.4l0,0.1c-0.1-0.3,0-0.6,0.2-0.7c0.2-0.2,0.4-0.3,0.5-0.4c0.4-0.2,0.8-0.3,1.2-0.3c0.2,0,0.4-0.1,0.6-0.1
						c0.2,0,0.5,0.1,0.7,0.2c0.4,0.2,0.7,0.6,0.8,1c0.3,0.8,0.4,1.6,0.4,2.4c0,0.8-0.1,1.6-0.2,2.3l0,0c-0.1,0.2-0.1,0.3-0.3,0.5
						c-0.1,0.1-0.3,0.2-0.4,0.3c-0.2,0.1-0.3,0.1-0.5,0C577.4,225,577.2,224.9,577.1,224.9z M577.1,224.8c0.1,0.1,0.3,0.1,0.4,0.1
						c0.1,0,0.3,0,0.4-0.1c0.3-0.1,0.4-0.4,0.4-0.7l0,0c0-0.8,0-1.5-0.1-2.3c-0.1-0.7-0.1-1.5-0.4-2.2c-0.1-0.3-0.3-0.6-0.6-0.8
						c-0.1-0.1-0.3-0.1-0.4-0.1c-0.1,0-0.3,0-0.5,0c-0.4,0.1-0.7,0.1-1.1,0.3c-0.2,0.1-0.3,0.2-0.4,0.3c-0.1,0.1-0.2,0.2-0.1,0.3
						l0,0l0,0c0,0.5,0.1,0.9,0.2,1.4c0.1,0.5,0.2,0.9,0.4,1.4C575.8,223.4,576.4,224.2,577.1,224.8z"/>
				</g>
			</g>
			<g>
				<g>
					<path class="st18" d="M580,223.8c-0.3-0.4-0.6-0.8-0.8-1.2c-0.2-0.4-0.4-0.9-0.5-1.4c-0.1-0.5-0.2-1-0.2-1.4c0-0.5,0-1,0-1.5
						l0,0.1c-0.1-0.3,0.1-0.6,0.3-0.7c0.2-0.1,0.4-0.2,0.6-0.2c0.4-0.1,0.8-0.1,1.2-0.1c0.2,0,0.4,0,0.6,0c0.2,0.1,0.4,0.2,0.6,0.3
						c0.4,0.3,0.5,0.8,0.6,1.2c0.2,0.8,0.1,1.6-0.1,2.4c-0.2,0.8-0.4,1.5-0.7,2.2l0,0c-0.1,0.2-0.2,0.3-0.3,0.4
						c-0.1,0.1-0.3,0.2-0.5,0.2c-0.2,0-0.3,0-0.5-0.1C580.2,224,580.1,223.9,580,223.8z M580,223.7c0.1,0.1,0.3,0.2,0.4,0.2
						c0.1,0.1,0.3,0.1,0.4,0c0.3-0.1,0.5-0.3,0.6-0.6l0,0c0.2-0.7,0.3-1.5,0.4-2.2c0.1-0.7,0.2-1.5,0.1-2.2c0-0.3-0.2-0.7-0.4-0.9
						c-0.1-0.1-0.2-0.2-0.4-0.2c-0.1,0-0.3,0-0.5-0.1c-0.4,0-0.8,0-1.1,0c-0.2,0-0.3,0.1-0.5,0.2c-0.1,0.1-0.2,0.2-0.2,0.3l0,0l0,0
						c-0.1,0.5-0.1,0.9-0.1,1.4c0,0.5,0,0.9,0.1,1.4C579,222.1,579.4,223,580,223.7z"/>
				</g>
			</g>
			<g>
				<path class="st18" d="M573.8,229.2c0.9,0.5,1.8,0.8,2.8,1.1c0.5,0.1,1,0.2,1.5,0.3c0.5,0.1,1,0,1.5,0c-1,0.3-2.1,0.2-3.1,0
					c-0.5-0.1-1-0.3-1.4-0.5C574.7,229.8,574.2,229.6,573.8,229.2z"/>
			</g>
			<g>
				<path class="st18" d="M573.4,231.1c0.5,0.3,0.9,0.5,1.4,0.7c0.5,0.2,1,0.3,1.5,0.4c0.5,0.1,1,0.2,1.6,0.2c0.5,0,1.1,0,1.6,0.1
					c-0.3,0.1-0.5,0.1-0.8,0.1c-0.3,0-0.5,0-0.8,0c-0.5,0-1.1,0-1.6-0.1c-0.5-0.1-1.1-0.3-1.5-0.5
					C574.2,231.7,573.7,231.4,573.4,231.1z"/>
			</g>
			<g>
				<path class="st18" d="M572.2,234.8c1.1,0.5,2.2,0.8,3.4,1.1c0.6,0.1,1.1,0.2,1.7,0.3c0.6,0.1,1.2,0,1.8,0
					c-1.2,0.3-2.4,0.2-3.5,0c-0.6-0.1-1.2-0.3-1.7-0.5C573.3,235.4,572.7,235.1,572.2,234.8z"/>
			</g>
			<g>
				<path class="st18" d="M571.9,235.9c0.5,0.3,1.1,0.5,1.7,0.7c0.6,0.2,1.2,0.3,1.8,0.4c0.6,0.1,1.2,0.2,1.8,0.2
					c0.6,0,1.2,0,1.9,0.1c-0.3,0.1-0.6,0.1-0.9,0.1c-0.3,0-0.6,0-0.9,0c-0.6,0-1.2,0-1.9-0.1c-0.6-0.1-1.2-0.3-1.8-0.5
					C572.9,236.6,572.3,236.3,571.9,235.9z"/>
			</g>
		</g>
		<g>
			<path class="st8" d="M589.8,274c0,0-0.9,2.3,0.9,4.5c0,0-0.7-2.9,1.6-4.2L589.8,274z"/>
			<polygon class="st8" points="593.3,274.3 594.8,278.3 596.3,274.2 			"/>
			<path class="st8" d="M598.1,274c0,0,2.1,1.9,1.5,4.4c0,0,2.3-2.9,0.8-4.8L598.1,274z"/>
			<path class="st13" d="M599.4,261.5c0,0-1.2-0.3-0.9-2.1"/>
			<g>
				<path class="st11" d="M590,261.5c0,0-4.9,1.6-10.4,0.8c0,0-1.3,8.4,5.6,10.4c6.9,2.1,8.4,2,15.6,0.8s14.7-5.3,14.7-5.3
					s-1.7-3.8-16-6.5C599.6,261.6,594.3,266.9,590,261.5z"/>
				<path class="st12" d="M595.6,263.8c0,0,15.1,13.1-9.8,9.1c0,0,5.5,4.1,21-1l8.8-3.7c0,0-1.2-3.6-16-6.5
					C599.6,261.6,596.9,263.8,595.6,263.8z"/>
				<path class="st13" d="M590,261.5c0,0,4,5.6,9.4,0c0,0,14.4,2.8,16.2,6.6c0,0-23.1,12.6-34.4,1.8c0,0-1.7-2.3-1.6-7.7
					C579.6,262.2,583.6,263.4,590,261.5z"/>
			</g>
			<polyline class="st13" points="593.3,274.3 594.9,278.5 596.3,274.2 			"/>
			<path class="st13" d="M592.3,274.3c0,0-2.4,1.4-1.6,4.4c0,0-2-2.1-0.9-4.7"/>
			<path class="st13" d="M597.8,274c0,0,2.6,1.5,1.7,4.7c0,0,2.1-2.3,0.9-5"/>
		</g>
		<g>
			<g>
				<path class="st8" d="M583.5,303.1c0,0,16.6,1.7,23-0.8c0,0,3.6,7.7,3.9,11.5c0.4,4.5,5.7,7,5.7,7s-9.9,5.7-21.5,1.5
					c-12-4.4-19.3,3.3-19.3,3.3s3.9-4.8,4.3-10.4S583.5,303.1,583.5,303.1z"/>
			</g>
			<g>
				<path class="st19" d="M600.2,303.8c0,0,7,4.8,7,12c0,0,1.5,4.5,5.5,4.8c0,0-3.6,2.8-11.9,0.7c0,0-2.2-1-1.9-4.8c0,0-0.8,3,0,4.2
					c0,0-3.2-2-10-1.4c0,0-0.5-1.7,0-4.2c0,0-0.9,3.6-0.9,4c0,0-7.1,0.3-12.2,6.2c0,0,5.2-5.3,13.2-4.4c0,0,4.9,0.9,7.2,1.9
					c2.3,1.1,11.2,2.6,20-2c0,0-4.5-1.7-5.6-6.3c0,0-1.9-9.3-4.2-12.1C606.3,302.4,602.2,303.7,600.2,303.8z"/>
			</g>
			<g>
				<path class="st18" d="M575.1,325.9c1.2-1.4,2.7-2.5,4.3-3.4c1.6-0.9,3.4-1.4,5.2-1.8c1.8-0.3,3.6-0.3,5.5-0.1l1.3,0.3
					c0.4,0.1,0.9,0.2,1.3,0.3l2.6,0.8c3.4,1.1,7,1.6,10.6,1.4c3.6-0.2,7.2-1.1,10.3-2.8l0,0.2c-1.6-0.8-3.1-1.9-4.2-3.4
					c-0.6-0.7-1-1.5-1.3-2.4c-0.3-0.9-0.4-1.8-0.6-2.6c-0.4-1.7-1-3.4-1.6-5.1c-0.6-1.7-1.3-3.3-2.1-4.9l0.3,0.1
					c-0.9,0.4-1.9,0.7-2.8,0.9c-1,0.2-1.9,0.3-2.9,0.4c-1.9,0.1-3.9,0.2-5.8,0.2c-3.9,0-7.7-0.2-11.6-0.6l0.3-0.2
					c-0.9,1.8-1.7,3.7-2.3,5.6c-0.6,1.9-1.1,3.9-1.5,5.9l-0.3,1.5c-0.1,0.5-0.2,1-0.4,1.5c-0.3,1-0.6,2-1,2.9
					c-0.4,0.9-0.9,1.9-1.4,2.7c-0.3,0.4-0.5,0.9-0.8,1.3c-0.1,0.2-0.3,0.4-0.5,0.6l-0.2,0.3l-0.1,0.1
					C575.2,325.8,575.2,325.9,575.1,325.9z M575.1,325.9c0-0.1,0.1-0.1,0.1-0.1l0.1-0.1l0.2-0.3c0.2-0.2,0.3-0.4,0.4-0.6
					c0.3-0.4,0.5-0.9,0.8-1.3c0.5-0.9,0.9-1.8,1.3-2.8c0.4-0.9,0.7-1.9,0.9-2.9c0.1-0.5,0.2-1,0.3-1.5l0.3-1.5c0.3-2,0.8-4,1.4-6
					c0.6-2,1.3-3.9,2.3-5.7l0.1-0.2l0.2,0c3.8,0.3,7.7,0.5,11.6,0.6c1.9,0,3.9,0,5.8-0.1c1-0.1,1.9-0.2,2.9-0.3
					c0.9-0.1,1.9-0.4,2.7-0.8l0.2-0.1l0.1,0.2c0.8,1.6,1.4,3.3,2,5c0.6,1.7,1.2,3.4,1.5,5.2c0.2,0.9,0.3,1.8,0.6,2.6
					c0.3,0.8,0.7,1.6,1.2,2.3c1.1,1.4,2.5,2.6,4.1,3.3l0.2,0.1l-0.2,0.1c-1.6,0.9-3.3,1.5-5,2c-1.7,0.5-3.5,0.8-5.3,1
					c-3.6,0.4-7.3-0.1-10.8-1.3l-2.6-0.8c-0.4-0.1-0.9-0.2-1.3-0.3l-1.3-0.3c-1.8-0.2-3.6-0.3-5.3,0c-1.8,0.3-3.5,0.8-5.1,1.6
					c-0.8,0.4-1.6,0.9-2.3,1.4c-0.4,0.3-0.7,0.5-1.1,0.8C575.7,325.3,575.4,325.7,575.1,325.9z"/>
			</g>
		</g>
	</g>
	<path class="st18" d="M583.9,246.5c1,1,2.4,1.5,3.8,1.4c0.7,0,1.4-0.2,2.1-0.4c0.3-0.1,0.7-0.2,1-0.4c0.3-0.1,0.6-0.3,1-0.4
		c-0.3,0.2-0.6,0.4-0.9,0.6c-0.3,0.2-0.6,0.3-1,0.4c-0.7,0.2-1.4,0.4-2.1,0.4c-0.7,0-1.5-0.1-2.1-0.4
		C584.9,247.6,584.3,247.1,583.9,246.5z"/>
	<path class="st18" d="M605.2,246.6c-0.4,0.6-1,1.1-1.7,1.4c-0.7,0.3-1.4,0.5-2.1,0.5c-0.7,0-1.5-0.2-2.1-0.4
		c-0.3-0.1-0.7-0.3-1-0.4c-0.3-0.2-0.6-0.4-0.9-0.6c0.3,0.1,0.7,0.3,1,0.4c0.3,0.1,0.7,0.3,1,0.4c0.7,0.2,1.4,0.3,2.1,0.3
		C602.8,248.1,604.2,247.6,605.2,246.6z"/>
	<path class="st18" d="M594.8,248.2c0.1,0,0.3,0,0.4,0.1c0.1,0.1,0.2,0.2,0.3,0.3c0.1,0.1,0.1,0.3,0,0.5c-0.1,0.2-0.2,0.2-0.3,0.3
		c0-0.1,0.1-0.3,0.1-0.4c0-0.1,0-0.2-0.1-0.3C595.1,248.5,594.9,248.4,594.8,248.2z"/>
</g>
</svg>
