<?xml version="1.0" encoding="utf-8"?>
<!-- Generator: Adobe Illustrator 21.0.2, SVG Export Plug-In . SVG Version: 6.00 Build 0)  -->
<svg version="1.1" id="Capa_4" xmlns="http://www.w3.org/2000/svg" xmlns:xlink="http://www.w3.org/1999/xlink" x="0px" y="0px"
	 viewBox="0 0 439.1 866.9" style="enable-background:new 0 0 439.1 866.9;" xml:space="preserve">
<style type="text/css">
	.st0{fill:#282E55;}
	.st1{fill:#F8B454;}
	.st2{fill:#DD9239;}
	.st3{fill:#1C1C1B;}
	.st4{fill:#C8C6C5;}
	.st5{fill:#FFFFFF;}
	.st6{fill:#0A567D;}
	.st7{fill:#293766;}
	.st8{fill:none;stroke:#1C1C1B;stroke-miterlimit:10;}
	.st9{fill:#BF8D36;}
	.st10{fill:#A4A4A4;}
	.st11{fill:#A16F2A;}
	.st12{fill:#242740;}
</style>
<g>
	<path class="st0" d="M107.7,521.9c0,0-12.9,17.8,18.1,89.8c0,0,10.5,21.2,6.6,48.1c-3.9,26.9,1,43.7-14.4,147.4
		c0,0,28,18.4,59.3-4.3c0,0,17.7-162.1,10.7-199.8c0,0,10.4,1.7,11.6-1.6c-1.8-1.7,31.8,82.2,111.1,190.6c0,0,43.8,10.7,60-26.4
		L268.5,600.3c0,0-22.3-38.8-18.4-79.9C250,520.4,171.6,533.3,107.7,521.9z"/>
	<g>
		<path class="st1" d="M155.3,249.7c0,0,9.2,51.5-30.6,53.5c0,0-46.5,86.4,63.3,73.4c109.8-13.1,53.8-60,53.8-60
			s-36.8,3.4-32.5-47.8C209.3,268.7,199.7,271.7,155.3,249.7z"/>
		<g>
			<path class="st1" d="M99.5,342.8c0,0,60.4,43.4,156.4,1.3c0,0-9.2,74.3-6.4,128.2c0,0-1,48,2,64c0,0-45.6,15.3-145.7,4.1
				C105.8,540.4,115.7,452,99.5,342.8z"/>
			<path class="st2" d="M253.7,371.1c-2.2,43-5.4,123.4-2,167.5c0,0-55.3,9.7-82,6c0,0,59.2,3.4,50.9-30.8s-1.3-142.3-1.3-142.3
				s1-5.4,8-12.4C237.2,349,254.4,356.9,253.7,371.1z"/>
			<g>
				<g>
					<path class="st3" d="M102,357.3l2.1,20.5l1.8,20.5c1.1,13.7,2.1,27.4,2.8,41.1c0.8,13.7,1.2,27.5,1.3,41.2
						c0,13.8-0.1,27.5-1.4,41.3l-0.7-1.1c11.6,2.4,23.4,3.8,35.3,4.5c11.9,0.7,23.8,0.8,35.6,0.4c11.9-0.4,23.8-1.1,35.6-2.3
						c11.8-1.1,23.7-2.6,35.4-4.5l0.8-0.1l0.7,1.5c-0.8,11.3,0.3,23,2.3,34.2c2.1,11.3,5.5,22.4,10.1,32.9
						c2.3,5.2,4.9,10.4,7.9,15.3l9.2,14.7l18.4,29.5l73.1,118.4l0.3,0.5l-0.2,0.5c-2.1,6-5.7,11.1-10.1,15.5
						c-4.4,4.3-9.8,7.6-15.6,9.7c-11.7,4.2-24.4,3.7-36.3,1.3L310,793l-0.2-0.3c-10.5-15.2-20.7-30.5-30.8-46
						c-10-15.5-19.9-31.1-29.4-46.9c-9.5-15.8-18.6-31.9-27.3-48.2c-8.5-16.4-16.8-32.9-23-50.3c6.5,17.3,14.9,33.7,23.7,49.9
						c8.8,16.2,18.2,32.1,27.9,47.8c19.3,31.4,39.5,62.3,60.6,92.5l-0.6-0.4c11.6,2.3,24,2.7,35.1-1.4c5.5-2,10.6-5.2,14.8-9.3
						c4.1-4.1,7.6-9.2,9.4-14.5l0.1,1l-73.6-118l-18.3-29.6l-9.1-14.8c-3-5-5.7-10.3-8-15.6c-4.7-10.7-8.1-22-10.2-33.5
						c-2.1-11.5-3.1-23.2-2.2-35l1.5,1.4c-11.8,1.9-23.7,3.3-35.6,4.4c-11.9,1.1-23.8,1.8-35.8,2.1c-11.9,0.3-23.9,0.1-35.8-0.6
						c-11.9-0.8-23.8-2.2-35.6-4.7l-0.1-0.1l-0.3-0.8c1.4-13.6,1.3-27.5,1.3-41.2c0-13.7-0.4-27.5-0.9-41.2
						c-0.5-13.7-1.3-27.4-2.2-41.1l-1.5-20.5L102,357.3z"/>
				</g>
				<g>
					<path class="st3" d="M250.7,536.4c-1.4-15.4-2.1-30.8-2.5-46.3c-0.4-15.5-0.3-30.9,0-46.4c0.5-15.5,1.1-30.9,2.4-46.3
						c1.3-15.4,3-30.8,5.8-46l-1.1,11.5l-0.9,11.5c-0.6,7.7-1.1,15.4-1.4,23.1c-0.8,15.4-1.4,30.8-1.7,46.2
						c-0.5,15.4-0.6,30.8-0.7,46.3c-0.1,7.7-0.1,15.4,0,23.2C250.5,520.9,250.7,528.7,250.7,536.4z"/>
				</g>
			</g>
		</g>
	</g>
	<path class="st4" d="M107.6,522.8c0,0-3.6,9-2.3,19.2c0,0,113.4,10.4,144-4.1l0.7-17.4C250,520.4,177.9,535,107.6,522.8z"/>
	<g>
		<g>
			<path class="st1" d="M137.9,121c0,0,115-59.4,173.8,0c0,0-15.5,54.5-13.2,73c2.3,18.5-3.5,23.5-27.1,43.6s-61.3,30.2-61.3,30.2
				s-61.9-5.8-94.3-54C115.8,213.9,103.2,135.1,137.9,121z"/>
		</g>
		<g>
			<path class="st2" d="M282.3,115.7c0,0,13.7,50.8,3,85.2S209.3,262,209.3,262s-52-7.4-62.5-21.6c0,0,3.1,18.5,62.5,29.9
				c0,0,88-34,89.2-66.3s9.2-64.1,9.2-64.1S301.8,116,282.3,115.7z"/>
		</g>
		<g>
			<path class="st5" d="M260.1,153.1c0,0-9.3,18.4,3.2,32.7c0,0,20.4,8.8,30.6,0c10.2-8.8,9.7-33.5,9.7-33.5
				S286.8,129.5,260.1,153.1z"/>
		</g>
		<g>
			
				<ellipse transform="matrix(0.1958 -0.9806 0.9806 0.1958 59.9425 421.4043)" class="st6" cx="286.9" cy="174.2" rx="14.4" ry="7.2"/>
		</g>
		<g>
			<path class="st7" d="M279.1,179.2c0,0,9.8-6.8,14.3,1.2c0,0,4.7-15.4-3.6-20.3C289.7,160.1,279.7,158,279.1,179.2z"/>
		</g>
		<g>
			<path class="st7" d="M286.9,175.8c0,0,1.5,10.9,7.1,1.4C294.1,177.2,293.7,174.4,286.9,175.8z"/>
		</g>
		<g>
			<path class="st3" d="M145.7,142c0,0,27.1-4.7,38.3-30.8l-5.9,29.4l40-30.8l-17.9,25c0,0,18.1,0.9,56.2-33.5
				c0,0,13.3,27.2,31.6,31l-4.9-16.3l19.1,32.9v-16.7l4.5,7c0,0-9.5,36.2-7.7,57.9c0,0,6.8,35.3-88.9,70.6c0,0-3.4,12,0.4,12.2
				c0,0,16.6,2.2,43.5-24.5c0,0,1.8,17.6-3.5,27.6c0,0,44.5-14.7,53.7-64.6l-1.1,27.5c0,0,45-63.3,22.7-130l11,8.4
				c0,0-12.6-105.3-118.7-122.2S61.2,67.3,50.2,109.8l19.2-11c0,0-46.5,64.9,16.4,140.9l-2.7-19.9c0,0,20.9,44.4,56.9,49.8
				c0,0-8.4-7.2-5.7-19.7l24,28.3l-2.4-28.2l-6.7-5.3c0,0-7.6-19-14.6-61.2l15.5,13.2C150.1,196.8,138.2,155.7,145.7,142z"/>
		</g>
		<g>
			<circle class="st5" cx="290.5" cy="166.3" r="1.6"/>
		</g>
		<g>
			<path class="st2" d="M154.7,250.4c0,0,1.9,20.1,35.3,30.5c0,0,19.1,2.8,20.6,11.8c0,0-1.4-14.6-2.1-22.9
				C208.4,269.8,169.6,260.9,154.7,250.4z"/>
		</g>
		<g>
			<path class="st3" d="M113,214.6c6.8,7.1,14.1,13.6,21.7,19.6c7.7,6,15.7,11.6,24.1,16.5c8.4,4.9,17.3,8.8,26.4,12
				c9.2,3.1,18.7,4.9,28.3,5.5l-0.6,0.1c13.6-5.5,26.9-12.2,39.6-19.7c12.6-7.6,24.7-16.3,34.6-27.1c1.3-1.3,2.3-2.8,3.5-4.2
				c1.2-1.4,2.3-2.8,3.2-4.3c1.8-3,3-6.5,3.5-10c0.2-1.8,0.3-3.6,0.2-5.3c-0.1-1.9-0.2-3.8-0.2-5.6c0-3.8,0.2-7.5,0.6-11.2
				c1.5-14.9,5.3-29.4,10-43.4c-4,14.3-7.2,28.8-8.3,43.6c-0.3,3.7-0.4,7.4-0.3,11c0,1.8,0.2,3.7,0.3,5.5c0.2,1.9,0.1,3.9-0.1,5.8
				c-0.4,3.8-1.7,7.6-3.6,11c-0.9,1.7-2.1,3.2-3.3,4.7c-1.2,1.5-2.3,3-3.6,4.4c-10.1,11.2-22.3,20.1-35.1,27.9
				c-12.8,7.8-26.2,14.3-40.1,19.8l-0.3,0.1l-0.3,0c-9.9-0.7-19.7-2.6-29.1-5.9c-9.3-3.4-18.2-7.7-26.6-12.8
				c-8.4-5.2-16.4-10.9-23.8-17.3C126.5,228.8,119.4,222,113,214.6z"/>
		</g>
		<g>
			<path class="st3" d="M244.1,182c0.9,0.5,1.6,1.1,2.2,1.9c0.6,0.8,1.1,1.7,1.3,2.8c0.2,1.1-0.1,2.3-0.8,3.1
				c-0.7,0.9-1.7,1.2-2.7,1.3c0.7-0.7,1.4-1.3,1.7-2c0.3-0.7,0.4-1.4,0.3-2.2C245.8,185.3,244.9,183.7,244.1,182z"/>
		</g>
		<g>
			<path class="st3" d="M260.1,152.3c2-3.7,5.2-6.7,8.9-9c3.8-2.1,8.2-3.5,12.7-3.5c4.5,0.1,9,1.1,12.9,3.2c2,0.9,3.7,2.3,5.5,3.4
				c1.6,1.4,3.2,2.8,4.7,4.3l0.8,0.7l0,0.7c0,1.1-0.2,2.1-0.3,3.1c-0.1,1-0.4,2-0.7,2.9c-0.6,1.9-1.6,3.8-2.9,5.2
				c0.4-1.9,0.5-3.7,0.5-5.6c0-0.9-0.1-1.8-0.2-2.7c-0.1-0.9-0.2-1.8-0.4-2.6l0.7,1.4l-5-3c-1.7-0.8-3.4-1.8-5.1-2.4
				c-3.4-1.5-6.9-2.3-10.5-2.6c-3.6-0.3-7.2,0.2-10.8,1.3C267.1,148.3,263.6,150.1,260.1,152.3z"/>
		</g>
		<g>
			<path class="st3" d="M263.3,185.7c5.2,2.1,10.6,3.5,16.1,3.6c2.7,0.2,5.4-0.2,8.1-0.7c2.7-0.5,5.2-1.7,7.8-2.9
				c-2.2,1.7-4.7,3.3-7.4,4.1c-2.7,0.9-5.6,1.3-8.5,1.1c-2.9-0.1-5.7-0.6-8.4-1.5C268.2,188.5,265.6,187.4,263.3,185.7z"/>
		</g>
		<g>
			<path class="st3" d="M285.1,189.5c-0.2,0-0.5,0-0.7-0.1c-4.5-0.7-7.1-7.8-5.8-16.1c0.6-3.9,2-7.4,3.8-10c2-2.7,4.3-4,6.6-3.6
				c2.3,0.3,4.1,2.3,5.1,5.5c1,3,1.2,6.8,0.6,10.7c-0.6,3.9-2,7.4-3.8,10C289.2,188.2,287.1,189.5,285.1,189.5z M288.3,161.2
				c-1.5,0-3.1,1.1-4.6,3.1c-1.7,2.3-3,5.6-3.5,9.3c-1.1,7.2,0.9,13.8,4.5,14.3c1.7,0.3,3.4-0.8,5-3c1.7-2.3,3-5.6,3.5-9.3
				c0.6-3.6,0.4-7.2-0.6-9.9c-0.9-2.6-2.2-4.1-3.9-4.4C288.6,161.2,288.4,161.2,288.3,161.2z"/>
		</g>
		<g>
			<path class="st8" d="M88.6,245"/>
		</g>
		<g>
			
				<ellipse transform="matrix(0.1139 -0.9935 0.9935 0.1139 83.5906 443.4197)" class="st3" cx="290.4" cy="174.8" rx="5" ry="2.2"/>
		</g>
		<g>
			<g>
				<path class="st5" d="M234.4,152.1c0,0-23.8-34.8-69.6-2.1c0,0-2,17.1,2.8,31.3c1.5,4.4,7.3,7.8,11.6,9.5
					c10.7,4.2,32.7,10.3,48.5-2.8C227.7,187.9,246.8,169,234.4,152.1z"/>
			</g>
			<g>
				<ellipse class="st6" cx="216.5" cy="176" rx="10.9" ry="17.1"/>
			</g>
			<g>
				<path class="st7" d="M206.3,182.2c0,0,10.4-8.9,20.4,0c0,0,5.3-19.8-9.5-23.9C217.2,158.3,202.7,158,206.3,182.2z"/>
			</g>
			<g>
				<path class="st7" d="M215.4,177.1c0,0,3.3,12.2,10.9,1.5C226.3,178.5,221.1,174.2,215.4,177.1z"/>
			</g>
			<g>
				<circle class="st5" cx="223.7" cy="184.2" r="2.2"/>
			</g>
			<g>
				<path class="st3" d="M234.4,152.1c-5.2-4-10.7-7.1-16.6-9.2c-5.8-2.1-11.9-3.2-17.9-2.8c-1.5,0-3,0.3-4.5,0.5
					c-0.7,0.1-1.5,0.2-2.2,0.3l-2.2,0.6c-1.5,0.4-3,0.6-4.4,1.2l-4.2,1.7c-1.5,0.5-2.8,1.2-4.2,2l-4.1,2.2l-7.9,5.1l0.7-1.4
					c-0.2,1.3-0.4,2.8-0.5,4.3c-0.1,1.5-0.1,2.9-0.1,4.4c0.1,2.9,0.5,5.9,1.5,8.8c-1.9-2.4-3.1-5.4-3.9-8.4
					c-0.4-1.5-0.7-3.1-0.9-4.6c-0.2-1.6-0.3-3.1-0.3-4.8l0-0.8l0.7-0.6c2.5-2.2,5-4.4,7.6-6.4l4.3-2.7c1.4-0.9,2.8-1.9,4.4-2.5
					c6.1-3.1,13-4.7,19.9-4.9c7-0.2,13.8,1.8,19.8,4.9C225.5,142.2,230.7,146.6,234.4,152.1z"/>
			</g>
			<g>
				<path class="st3" d="M172.9,187.9c4.4,2,8.9,3.6,13.5,4.8c4.6,1.2,9.3,1.9,14.1,2.1c4.7,0.3,9.5-0.3,14.1-1.4l3.4-0.9l3.3-1.3
					c2.3-0.7,4.2-2.2,6.4-3.2c-3.9,2.8-8.1,5.3-12.9,6.6c-4.7,1.4-9.6,2-14.4,1.8c-4.9-0.3-9.7-1-14.3-2.5
					C181.4,192.4,176.9,190.5,172.9,187.9z"/>
			</g>
			<g>
				<path class="st3" d="M216.5,193.9c-6.5,0-11.7-8.3-11.7-18.5c0-10.2,5.3-18.5,11.7-18.5c6.5,0,11.7,8.3,11.7,18.5
					C228.2,185.6,222.9,193.9,216.5,193.9z M216.5,158.4c-5.6,0-10.2,7.6-10.2,17c0,9.4,4.6,17,10.2,17s10.2-7.6,10.2-17
					C226.6,166,222.1,158.4,216.5,158.4z"/>
			</g>
			<g>
				<ellipse class="st3" cx="220.8" cy="175.3" rx="2.9" ry="6.4"/>
			</g>
			<g>
				<circle class="st5" cx="211.9" cy="167.7" r="3.4"/>
			</g>
		</g>
		<g>
			<circle class="st5" cx="286.9" cy="166.7" r="2.6"/>
		</g>
		<g>
			<path class="st3" d="M241.9,223c-2.2,0.9-4.6,1.4-7,1.7c-2.4,0.3-4.8,0.3-7.2,0c-2.4-0.3-4.8-0.9-7-2.1c-2.2-1.2-4.1-2.8-5.4-4.8
				c1.8,1.6,3.8,2.8,5.9,3.7c2.2,0.8,4.4,1.3,6.7,1.6C232.5,223.8,237.1,223.5,241.9,223z"/>
		</g>
		<g>
			<path class="st3" d="M195.2,131.5c0,0,29.4-8.7,36.8,0.8C232,132.3,243.9,114.8,195.2,131.5z"/>
		</g>
		<g>
			<path class="st3" d="M302.8,139.8c0,0-26.4-15.6-35.9-8.2C266.9,131.6,259.7,111.8,302.8,139.8z"/>
		</g>
	</g>
	<g>
		<path class="st1" d="M232.5,314.7c0,0,43.3-7.2,53.1,18.3c8.8,23,8.5,10.8,19.3,79.2s17.1,103.6,26.1,125.6c0,0,13.2,12.8,26,17.5
			c0,0,6.9,25.6-33.6,9.5c0,0,8.9,18.7-12.7-2c0,0-13.5-27.6-29.7-87.8c-16.3-60.1-36.8-121.8-36.8-121.8S230.7,348.3,232.5,314.7z"
			/>
		<path class="st2" d="M243.8,355.8c0,0,14.7,2,29.4,50.8c0,0,25.3,89.9,34.2,116.9c9,27,30.4,41.2,49.1,35.4c0,0-0.3,20.8-32.5,5.5
			c0,0,9.7,16-8.6,1.5c0,0-12.2-19.6-19.6-45.1C288.4,495.4,244.9,359.1,243.8,355.8z"/>
		<g>
			<g>
				<path class="st3" d="M209.9,268.5c-0.6,6.2-0.8,10.8,0.2,16.9c1,6.1,2.9,12,6.3,17.1c3.4,5.1,8.6,8.6,14.4,10.1
					c5.9,1.4,12,1,18-0.1l0.1,0l0,0c14.5-0.6,28.1,7.2,36.4,18.6c8.4,11.4,12.4,25.2,14.3,38.9l5.8,40.8c2.1,13.6,4,27.2,6.1,40.7
					c1.1,6.8,2.1,13.6,3.3,20.3c1.2,6.7,2.6,13.5,4.1,20.2c3.1,13.3,6.4,26.7,11.3,39.4c0.6,1.5,1.4,3.1,2.2,4.4
					c0.8,1.2,2,2.6,3.2,3.7c2.3,2.4,4.9,4.5,7.7,6.4c2.8,1.9,5.7,3.6,8.7,5.2c1.5,0.8,3,1.6,4.6,2.5c0.4,0.2,0.8,0.5,1.2,0.8
					c0.2,0.2,0.5,0.4,0.7,0.7c0.4,0.6,0.4,1,0.4,1.2c0.2,1.1,0.1,2,0.1,2.9c-0.3,3.7-2.1,7.7-5.5,9.8c-3.4,2.1-7.3,2.5-10.9,2.2
					c-7.2-0.5-13.8-3.1-20.2-5.8l1.8-2.7c1,1,1.8,1.9,2.5,3c0.7,1.1,1.5,2.2,1.8,4c0.1,0.8,0,2-0.7,3c-0.7,0.9-1.5,1.3-2.6,1.5
					c-1.9,0.2-3.3-0.4-4.5-1.1c-4.6-2.7-7.8-6.7-10.6-10.7c-2.8-4-5.1-8.6-6.8-13.1l-5.5-13.3l0-0.1l0-0.1l-22.7-79.5l-11.3-39.8
					l-11.9-33.6l0.2-1l13.1,34.2l11.9,39.6l23.8,79.2l-0.1-0.2l5.5,13.3c1.7,4.5,3.9,8.6,6.5,12.4c2.7,3.8,5.8,7.5,9.5,9.6
					c0.9,0.5,1.9,0.8,2.4,0.7c0.2,0,0.4-0.2,0.5-0.3c0-0.1,0.1-0.1,0-0.5c-0.2-1.5-1.9-3.5-3.3-5l-5.9-6.1l7.8,3.4
					c6.2,2.7,12.6,5.2,19.1,5.7c3.2,0.3,6.5-0.1,9-1.6c2.5-1.5,4-4.4,4.2-7.5c0.1-0.7,0.1-1.6,0-2.2c0-0.2-0.1-0.2,0,0
					c0,0-0.1-0.1-0.2-0.2c-0.2-0.2-0.6-0.4-0.9-0.6c-1.4-0.8-2.9-1.6-4.4-2.5c-3-1.7-6-3.5-8.9-5.5c-2.8-2-5.5-4.3-7.9-6.9
					c-1.2-1.3-2.3-2.5-3.4-4.2c-0.9-1.6-1.6-3.2-2.3-4.8c-4.8-13-7.8-26.5-10.7-39.9c-1.4-6.7-2.6-13.5-3.8-20.3
					c-1.1-6.8-2.1-13.6-3.1-20.4c-4.1-27.2-8.6-54.3-13.1-81.3c-2.3-13.4-6.3-26.7-14.4-37.5c-4-5.4-9-10-14.9-13.1
					c-5.8-3.1-12.6-4.9-19.1-4.7l0.1,0c-6.2,1.2-12.7,1.3-19-0.3c-6.2-1.7-11.8-5.7-15.2-11.2c-3.5-5.4-5.2-11.6-6-17.8
					c-0.8-6.2-0.7-11.1,0.1-17.3L209.9,268.5z"/>
			</g>
		</g>
	</g>
	<g>
		<path class="st1" d="M132,301.7c0,0-41.4-5.5-53.1,17.3c-11.7,22.8-11,10.9-22.2,82.2S38.9,509.2,29.4,532.1
			c0,0-14.4,17-27.8,21.9c0,0-6.4,24.9,35.8,8.1c0,0-9.6,21.8,13.1-4c0,0,14-28.8,31-91.4s38.3-126.8,38.3-126.8
			S134,336.7,132,301.7z"/>
		<path class="st2" d="M118,345.1c0,0-12.3,1.8-27.7,52.6c0,0-26.3,93.6-35.6,121.8c-9.3,28.2-33.5,45.7-52.9,39.7
			c0,0,2.1,18.9,35.6,3c0,0-15,20.2,8.9,1.6c0,0,12.7-20.4,20.4-46.9C74.5,490.3,116.9,348.6,118,345.1z"/>
		<g>
			<g>
				<path class="st3" d="M155.9,250.9c0.9,6.4,1,14.9,0.2,21.3c-0.8,6.4-2.6,12.9-6.2,18.6c-3.6,5.6-9.4,9.8-15.9,11.6
					c-6.5,1.7-13.3,1.5-19.8,0.3l0.1,0c-6.8-0.2-13.8,1.6-19.9,4.9c-6.1,3.3-11.4,8.1-15.5,13.7c-8.4,11.2-12.6,25.2-15,39.1
					c-4.7,28.2-9.3,56.4-13.6,84.7c-1.1,7.1-2.1,14.1-3.2,21.2c-1.2,7.1-2.5,14.1-4,21.1c-2.9,14-6.1,28-11.1,41.6
					c-0.7,1.7-1.4,3.4-2.4,5c-1.1,1.7-2.3,3-3.5,4.4c-2.5,2.7-5.3,5.1-8.3,7.2c-3,2.1-6.1,4-9.2,5.7c-1.6,0.9-3.2,1.7-4.6,2.6
					c-0.4,0.2-0.7,0.4-0.9,0.6L3,554.6c0.1-0.2,0.1-0.2,0,0c-0.1,0.7-0.1,1.5,0,2.3c0.3,3.2,1.8,6.3,4.4,7.8c2.6,1.6,6.1,2,9.4,1.7
					c6.8-0.6,13.5-3.1,19.9-5.9l7.7-3.4l-5.9,6.1c-1.5,1.6-3.2,3.7-3.5,5.3c0,0.4,0,0.5,0.1,0.5c0.1,0.1,0.4,0.3,0.6,0.3
					c0.5,0.1,1.6-0.2,2.5-0.7c3.9-2.2,7.2-6.1,10-10c2.8-4,5-8.3,6.8-12.9l5.7-13.9l-0.1,0.2l24.8-82.5l12.4-41.3l12.6-41.2l0.3,0.1
					l-11.6,41.5L87.4,450l-23.7,82.8l0,0.1l0,0.1l-5.7,13.9c-1.8,4.7-4.2,9.4-7.1,13.6c-3,4.2-6.2,8.2-11.1,11.1
					c-1.3,0.6-2.6,1.3-4.6,1.1c-1-0.2-1.9-0.7-2.6-1.5c-0.7-0.9-0.9-2.2-0.7-3c0.3-1.8,1.1-3,1.9-4.1c0.8-1.1,1.6-2.1,2.6-3.1
					l1.8,2.7c-6.7,2.8-13.5,5.5-21.1,6c-3.7,0.3-7.8-0.1-11.3-2.3c-3.6-2.2-5.5-6.3-5.7-10.2c-0.1-1-0.1-1.9,0.1-3
					c0-0.2,0.1-0.7,0.4-1.2c0.3-0.4,0.5-0.6,0.7-0.8c0.4-0.4,0.9-0.6,1.3-0.9c1.6-1,3.2-1.8,4.8-2.6c3.1-1.7,6.2-3.4,9.1-5.4
					c2.9-2,5.6-4.2,8-6.7c1.2-1.2,2.5-2.6,3.3-3.9c0.9-1.4,1.6-3,2.3-4.6c5.1-13.2,8.5-27.1,11.7-41c1.6-7,3-14,4.3-21
					c1.2-7,2.3-14.1,3.4-21.2c2.3-14.1,4.3-28.3,6.4-42.4l6.1-42.5c1.9-14.2,6.2-28.6,14.9-40.4c8.6-11.8,22.8-19.9,37.9-19.3l0,0
					l0.1,0c6.2,1.2,12.7,1.5,18.8,0.1c6.1-1.5,11.5-5.2,15-10.5c3.5-5.2,5.5-11.5,6.6-17.8c1-6.3,0.3-15.2-0.3-21.6L155.9,250.9z"/>
			</g>
		</g>
	</g>
	<path class="st1" d="M118,807.2l-0.8,31.2c0,0,53.1,34.6,97.5,18.2c0,0,5.6-22.8-31.6-35c0,0-5.6-3.9-5.7-18.8
		C177.3,802.8,145.6,823.4,118,807.2z"/>
	<path class="st1" d="M313,792.5l21.4,40.2c0,0,79.8-12.3,102-33.8c0,0-4.9-22.1-38.6-11.8c0,0-16,3.8-28-17.2
		C369.7,769.9,356.1,801.1,313,792.5z"/>
	<path class="st2" d="M369.7,769.9c0,0-5.1,23.6-36.5,36.3c0,0,7.7,23.2,41.3,17c0,0-16.7,7-40.1,9.5l-21-40
		C313.3,792.7,350.7,801.2,369.7,769.9z"/>
	<path class="st9" d="M117.2,838.4c0,0,21.6,11.2,27.8,13c0,0,9.2-24.8,37.5-29.3c0,0-23.2,15.9-20,34.1c0,0,38,7.8,52.2,0.4
		l-2.5,6.8c0,0-22.1,8.3-58.4-2.4S118,847.8,118,847.8L117.2,838.4z"/>
	<path class="st9" d="M334.4,832.7l40.3-8.9c0,0-6.8-24.6,7.1-39.4c0,0-3.4,23.7,8.3,34.9c0,0,43.8-15.8,46.3-20.4l1.1,6.5
		c0,0-43.7,31.3-99.7,33.8L334.4,832.7z"/>
	<path class="st10" d="M218.5,525.2c0,0,1.1,20.2-35.9,19.1c0,0,47.3,0.7,66.7-6.4l0.7-17.4C250,520.4,224.7,524.6,218.5,525.2z"/>
	<path class="st2" d="M177.3,803.7c0,0-14.5,18.6-51.4,17.7c0,0-3.7,20,9.4,25.9l-18-8.2l0.8-31.9C118,807.2,144.8,824,177.3,803.7z
		"/>
	<path class="st11" d="M131.1,845.1c0,0,19.6,18.2,67.8,20.4c0,0-35.5,1.8-81.7-17.6v-8.8L131.1,845.1z"/>
	<path class="st11" d="M369.5,825c0,0,30.3,2.1,66.9-20.4c0,0-35.1,28.9-99.2,34.7l-2.8-6.6C334.4,832.7,356.7,828.7,369.5,825z"/>
	<g>
		<g>
			<path class="st3" d="M187,593.1c2.6,17.4,3.4,35,3.5,52.5c0.1,17.6-0.6,35.1-1.6,52.6c-1.1,17.5-2.6,35-4.5,52.4
				c-1.9,17.4-4.2,34.8-6.5,52.2l0,0.2l-0.2,0.1c-4.4,2.9-9.1,5.3-14,7.1c-4.9,1.9-10.1,3.1-15.3,3.5c-5.2,0.5-10.6,0.2-15.7-0.8
				c-5.2-1-10.2-2.6-14.9-5.3l-0.4-0.2l0.1-0.5c3.2-22.4,6-44.8,8.3-67.3c2.4-22.5,4.2-45,5-67.6c0.4-11.3,0.4-22.6-0.4-33.7
				c-0.4-5.6-1.1-11.2-2.3-16.6c-0.6-2.7-1.4-5.3-2.5-7.8c-1.1-2.6-2.3-5.2-3.3-7.9c-4.2-10.6-7.8-21.4-10.6-32.4
				c-2.9-11-5.3-22.1-6.8-33.3l0,0l0,0c0.1-3.2,0.3-6.3,0.8-9.4c0.4-3.1,1-6.3,2.3-9.2l0.3,0.1c-1.1,2.9-1.6,6-1.9,9.1
				c-0.3,3.1-0.4,6.2-0.4,9.4l0-0.1c4,22.2,10.1,44.1,18.9,64.8c1.1,2.6,2.3,5.1,3.4,7.7c1.3,2.6,2.2,5.5,2.9,8.3
				c1.4,5.6,2.1,11.3,2.5,17c0.9,11.4,0.8,22.8,0.5,34.1c-0.7,22.7-2.9,45.3-5.5,67.8c-2.7,22.5-5.9,44.9-9.6,67.3l-0.3-0.8
				c4.3,2.6,9.3,4.3,14.3,5.4c5,1.1,10.3,1.4,15.4,1c10.3-0.8,20.3-4.7,28.8-10.5l-0.2,0.4c2.3-17.4,3.9-34.8,5.4-52.3
				c1.5-17.5,2.9-34.9,4-52.4c1.2-17.5,1.9-35,2.3-52.5c0.2-8.7,0.1-17.5-0.1-26.2c-0.2-8.7-0.7-17.5-1.6-26.2L187,593.1z"/>
		</g>
		<g>
			<path class="st3" d="M188,603c2.8-0.1,5.4-0.7,7.9-1.5c2.5-0.9,4.9-2.1,7.1-3.5c2.2-1.4,4.2-3.2,6.2-5c1-0.9,1.9-2,2.8-2.9
				c0.9-1,1.8-2.1,2.8-3.1c-0.5,1.3-1.2,2.5-1.8,3.8c-0.8,1.2-1.5,2.4-2.4,3.5c-1.8,2.2-3.9,4.2-6.2,5.8c-2.4,1.5-5.1,2.8-7.9,3.3
				C193.6,603.9,190.6,603.9,188,603z"/>
		</g>
		<g>
			<path class="st3" d="M186.5,546.7c-39,0-78.9-4.4-81.6-4.7l0.3-3.1c1.1,0.1,108.5,12,144.3-2.8l1.2,2.9
				C236.4,544.9,211.6,546.7,186.5,546.7z"/>
		</g>
		<g>
			<rect x="192" y="526.6" class="st3" width="3.1" height="17.9"/>
		</g>
		<g>
			<rect x="215.4" y="524.3" class="st3" width="3.1" height="19.1"/>
		</g>
		<g>
			<path class="st3" d="M177.4,802.8c0.2,1.9,0.3,3.8,0.6,5.7c0.3,1.9,0.7,3.7,1.3,5.4c0.6,1.7,1.4,3.4,2.6,4.7
				c1.1,1.3,2.8,2.3,4.1,2.3l0.3,0l0.2,0.1c2.1,1,4.2,2,6.3,3c2.1,1,4.1,2.4,6.1,3.5c2,1.2,3.8,2.8,5.8,4.2l2.6,2.5l1.3,1.3l1.1,1.4
				c3.1,3.6,5.4,8.2,5.9,13c0.6,4.8-0.5,9.7-3,13.9l-0.1,0.2l-0.2,0.1c-7.9,2-16.1,2.8-24.2,2.9c-8.2,0-16.3-0.9-24.4-2.4
				c-8-1.5-15.9-3.7-23.7-6.2c-7.7-2.6-15.3-5.6-22.7-9.2l-0.6-0.3l-0.1-0.6c-0.5-2-0.5-3.7-0.6-5.4c-0.1-1.7-0.1-3.4-0.1-5.2
				c0-3.4,0.1-6.8,0.3-10.2c0.3-6.8,0.9-13.6,1.6-20.3l0.3,0l0.1,20.3l0.2,10.1c0.1,3.3,0.3,6.9,1,9.6l-0.8-0.9
				c7.3,3.3,14.9,6.1,22.4,8.8c7.6,2.6,15.3,5,23.2,6.7c7.8,1.7,15.8,3.2,23.8,3.6c8,0.3,16.2-0.3,23.9-2.6l-0.3,0.2
				c2.3-3.8,2.8-8.6,2-12.9c-0.8-4.4-3.2-8.3-6.1-11.6l-1.1-1.3l-1.2-1.1l-2.5-2.3c-1.8-1.3-3.5-2.8-5.4-4.1
				c-1.9-1.2-3.8-2.5-5.8-3.6c-2-1.1-4.1-2.1-6.1-3.2l0.5,0.1c-2.6-0.2-4.3-1.7-5.6-3.3c-1.3-1.7-2-3.5-2.6-5.4
				c-0.5-1.9-0.7-3.9-0.9-5.8c-0.1-1.9-0.1-3.9,0-5.8L177.4,802.8z"/>
		</g>
		<g>
			<path class="st3" d="M117.2,838.4c3.8,1.9,7.7,3.7,11.6,5.3c3.9,1.7,7.8,3.3,11.8,4.7c7.9,2.9,16,5.4,24.1,7.3
				c8.2,1.9,16.5,3,24.9,3.5c4.2-0.1,8.4,0.1,12.6-0.5c4.2-0.1,8.3-1.4,12.5-2.1c-4,1.4-8,2.9-12.3,3.6c-4.2,1-8.5,1-12.8,1.4
				c-8.6,0.1-17.2-1-25.6-2.9c-8.3-2-16.5-4.7-24.3-8.2C131.8,847.2,124.2,843.2,117.2,838.4z"/>
		</g>
		<g>
			<path class="st3" d="M160.9,857c-1.9-15,7.7-26,14.8-32c-8.9,3.1-22.6,10.5-29.3,27l-2.9-1.2c10-24.5,34.3-30.1,39.1-30.9
				l1.3-0.2l1.1,2.6l-1.2,0.8c-3.7,2.2-22.2,14.4-19.8,33.6L160.9,857z"/>
		</g>
		<g>
			<path class="st3" d="M313.1,792.5c4.6,7.5,9,15.2,13.3,22.9l6.4,11.6c2.1,3.9,4.3,7.7,6.3,11.6l-1.3-0.7c8.7-0.9,17.5-2,26.2-3.5
				c8.7-1.5,17.3-3.6,25.7-6.4c8.4-2.7,16.6-6.2,24.5-10.1c7.9-4,15.4-8.5,22.4-13.7l-0.6,1.2c-0.3-6.6-3.8-13.3-9.7-16.2
				c-5.9-3.2-13.2-3.1-20.1-2.3l-5.2,1l-1.3,0.2c-0.4,0.1-1.1,0.2-1.5,0.2c-1,0.1-1.9,0.1-2.9,0.1c-3.8-0.1-7.5-1.2-10.8-2.8
				c-6.7-3.4-11.6-9.3-14.9-15.6l0.3-0.2c3.9,6,9.1,11.2,15.5,14c3.2,1.4,6.6,2.1,10,2.1c0.8,0,1.7,0,2.5-0.2
				c0.5-0.1,0.7-0.1,1.2-0.2l1.3-0.3l5.4-1.2c7.2-1.2,15.1-1.4,22.1,2.3c3.4,1.8,6.4,4.6,8.3,8c1.8,3.5,2.8,7.1,2.9,11.1l0,0.8
				l-0.6,0.4c-7.3,5.2-15.2,9.6-23.3,13.2c-8.2,3.5-16.6,6.4-25.1,9c-8.5,2.5-17.1,4.8-25.7,6.9c-8.7,2-17.4,3.8-26.3,4.7l-0.9,0.1
				l-0.5-0.8c-2.1-3.9-4.1-7.8-6.2-11.7l-6.1-11.8c-3.9-7.9-7.9-15.8-11.6-23.8L313.1,792.5z"/>
		</g>
		<g>
			<path class="st3" d="M334.4,832.7c4.4-1,8.8-1.9,13.2-3.1c4.4-1,8.7-2.1,13.1-3.3c8.7-2.3,17.3-4.8,25.8-7.5
				c8.6-2.6,17-5.8,25.3-9c4.2-1.6,8.3-3.3,12.4-5.2c4.2-1.7,8.1-3.9,12.3-5.7c-7.5,5-15.4,9.4-23.7,13.1c-8.2,3.8-16.7,7-25.3,9.7
				c-8.6,2.7-17.4,5.1-26.2,6.9C352.3,830.5,343.4,832,334.4,832.7z"/>
		</g>
		<g>
			<path class="st3" d="M373.8,824.4c-8.1-21.7,3.2-36.8,6.9-40.8c0.6-0.7,1.5-0.8,2.3-0.5c0.8,0.4,1.2,1.3,1.1,2.1
				c-1,5.4-3.5,23.7,7.1,32.9l-2.1,2.4c-9.6-8.4-9.7-23-8.8-31.3c-4.1,6.1-9.5,18.1-3.6,34.1L373.8,824.4z M383,785.6
				C383,785.6,383,785.6,383,785.6C383,785.6,383,785.6,383,785.6z"/>
		</g>
	</g>
	<path class="st12" d="M187.3,595.1c0,0,23.3-4.4,33.5-17.1c0,0-12.6,24.7-32.5,24.9L187.3,595.1z"/>
	<path class="st12" d="M185.5,583.1c0,0,4.4,38.2,3.9,62.3c-0.5,24.3-1.1,47.2-3.1,70.3s-9.6,86.8-9.6,86.8s-29.9,21-57.8,4.4
		c0,0,42.8,2.9,42.8-37.1c0-40,4.9-108.2,4.9-108.2S166.3,605.5,185.5,583.1z"/>
	<path class="st12" d="M215.2,587.2c0,0,64.9,230.1,153.2,176.6l2.1,2.3c0,0-11.8,34.1-58.8,25.2c-0.3,0.7-99.6-144.4-111.9-189.1
		C199.8,602.3,211.5,597.5,215.2,587.2z"/>
</g>
</svg>
