<?xml version="1.0" encoding="utf-8"?>
<!-- Generator: Adobe Illustrator 21.0.2, SVG Export Plug-In . SVG Version: 6.00 Build 0)  -->
<svg version="1.1" id="Capa_8" xmlns="http://www.w3.org/2000/svg" xmlns:xlink="http://www.w3.org/1999/xlink" x="0px" y="0px"
	 viewBox="0 0 326.2 872.1" style="enable-background:new 0 0 326.2 872.1;" xml:space="preserve">
<style type="text/css">
	.st0{fill:#F8B454;}
	.st1{fill:#DD9239;}
	.st2{fill:#BF8D36;}
	.st3{fill:#A16F2A;}
	.st4{fill:#1C1C1B;}
	.st5{fill:#FFFFFF;}
	.st6{fill:#8F8F90;}
	.st7{fill:#EBE221;}
	.st8{fill:#EBC518;}
	.st9{fill:#0A567D;}
	.st10{fill:#293766;}
	.st11{fill:none;stroke:#1C1C1B;stroke-miterlimit:10;}
</style>
<g>
	<g>
		<g>
			<path class="st0" d="M76.7,646.4c0,0,35.4-4.8,56.6,4.2l-1.9,50.6l-2.3,87.8l2.7,54.3c0,0,0.5,11.8-13.2,14.6
				c-13.8,2.8-55.5,24.1-88.2,6.9c0,0-11.7-40.2,28-46.1c0,0,18-4.8,17.7-29.7C75.8,764.2,76.7,646.4,76.7,646.4z"/>
			<path class="st1" d="M76.7,646.4v8.7c0,0,9.8,3.5,34.3,7.4c5.1,0.8,8.8,5.4,8.4,10.6c-1.4,21.1-4.7,72.6-3.9,93.8
				c1,26.9,2.5,52.8,2.5,63.4c0,10.6-89.1,26.5-89.1,26.5l1.4,8c0,0,31.8,18.9,96.2-10.4c0,0,8.7-3.7,4.6-20.2l-0.5-92.9
				c0,0,1.1-81.9,2.7-90.7C133.3,650.6,104.1,640.5,76.7,646.4z"/>
			<path class="st2" d="M76.8,789c0,0,26.2,10.3,53.4,0l-0.5,10.4c0,0-35,7.1-54.4-1.5L76.8,789z"/>
			<path class="st2" d="M67.2,813.2c0,0,33.3-0.8,34.4,41.9c0,0,20.5-5.7,30.2-11.8c0,0,1.6,7.2-6.3,11.8s-73.3,26-95.2,9.7V858
				c0,0,32.3,9.5,61.2,0.6C91.6,858.6,94,826.5,67.2,813.2z"/>
			<path class="st3" d="M116.7,792.6v9.6l13.1-2.8l0.5-11.7C130.2,787.8,130.6,791.2,116.7,792.6z"/>
			<path class="st3" d="M89.9,843.3c0,0,7.9-0.5,10.4-3.1c0,0,1.6,9.6,1.5,16.4l30-13.3c0,0,1.6,11.1-10.4,13.3
				c0,0-58.4,25.7-91.1,8.1V858c0,0,31.2,9.5,61.2,0.6C91.6,858.6,91.4,849.1,89.9,843.3z"/>
			<g>
				<g>
					<path class="st4" d="M133.5,649.7l-1.2,76.5c-0.3,25.5-0.5,51-0.6,76.5c0.1,12.7,0.1,25.5,0.8,38.2c0,1.6,0.3,3.2,0,4.9
						c-0.2,1.7-0.7,3.3-1.6,4.8c-1.6,3-4.5,5.2-7.6,6.2c-6,2.3-12,4.5-18.1,6.5c-12.2,3.8-24.7,6.9-37.5,8.3
						c-12.7,1.2-26.2,0.7-38.1-5.4l-0.5-0.3l-0.2-0.6c-1.4-4.9-2-9.8-2.1-14.9c0-5,0.7-10.1,2.7-14.9c1.9-4.8,5.4-9,9.6-11.9
						c4.2-3.2,9.2-4.6,14.1-5.8l0,0l0.2,0c6.9-0.8,13.6-5.1,16.9-11.3c1.7-3.1,2.8-6.6,3.2-10.2c0.6-3.6,0.4-7.3,0.3-11.2
						c-0.2-15.4-0.1-30.8,0.1-46.2c0.4-30.8,1.2-61.6,2.4-92.4l0.4,0c0.4,30.8,0.5,61.6,0.6,92.4c0.1,15.4,0.1,30.8,0.3,46.1
						c0.2,7.5,0.2,16.2-4,23.5c-4,7.4-11.7,12.3-20.2,13.2l0.2,0c-4.5,1.1-9.1,2.3-12.7,5c-3.7,2.5-6.8,6.1-8.5,10.3
						c-1.8,4.2-2.6,8.9-2.7,13.6c-0.1,4.7,0.5,9.5,1.7,14l-0.7-0.9c5.4,3,11.4,4.7,17.6,5.7c6.2,0.9,12.6,0.8,18.9,0.5
						c6.3-0.5,12.6-1.5,18.8-2.7c6.2-1.4,12.4-3,18.4-4.9c6.1-1.9,12.1-4,18-6.5c3-1,5.4-3,6.9-5.7c0.7-1.3,1.2-2.8,1.4-4.3
						c0.2-1.5,0-3-0.1-4.6c-1-12.7-1.5-25.5-2-38.3c-0.8-25.5-0.4-51.1,0.3-76.6c0.7-25.5,2-51,3.8-76.5L133.5,649.7z"/>
				</g>
				<g>
					<path class="st4" d="M28.9,857.5c8.7,2.1,17.5,3.1,26.3,3.4c8.8,0.2,17.6-0.2,26.3-1.6c2.2-0.2,4.3-0.8,6.5-1.1
						c2.2-0.4,4.3-0.8,6.4-1.4l6.4-1.6l6.3-2c8.4-2.6,16.5-6.3,24.7-9.9c-3.7,2.4-7.5,4.9-11.5,7c-4,1.9-8,4.1-12.2,5.6
						c-8.3,3.6-17.2,5.6-26.1,7.1c-8.9,1.4-18,1.6-27,0.7c-4.5-0.4-8.9-1.2-13.3-2.1C37.3,860.6,33,859.4,28.9,857.5z"/>
				</g>
				<g>
					<path class="st4" d="M75.5,797.9c4.5,1.2,9.1,1.8,13.6,2.3c4.5,0.4,9.1,0.6,13.6,0.6c4.6,0,9.1-0.2,13.7-0.5l6.9-0.5
						c2.3-0.2,4.6-0.5,7-0.5c-4.3,1.8-8.9,3.1-13.5,4c-4.6,0.9-9.3,1.3-14.1,1.3c-4.7-0.1-9.5-0.5-14.1-1.5
						C84,802.1,79.4,800.6,75.5,797.9z"/>
				</g>
				<g>
					<path class="st4" d="M76,789c9.2,1.8,18.1,3.2,27.2,3.5c4.5,0.2,9-0.1,13.5-0.6c4.5-0.5,8.9-1.7,13.4-2.8
						c-3.9,2.6-8.3,4.7-12.9,5.7c-4.6,1.1-9.4,1.6-14.1,1.5c-4.7-0.2-9.5-0.8-14-2C84.6,793,80.1,791.4,76,789z"/>
				</g>
				<g>
					<path class="st4" d="M101.7,856.7c-0.2-2.4-0.3-4.9-0.6-7.3c-0.5-2.4-0.6-4.8-1.4-7.1c-1-4.7-3.1-9-5.7-12.8
						c-5.4-7.7-14-12.4-23.2-14c-0.6-0.1-1.1-0.2-1.7-0.3l-0.9-0.1c-0.1-0.1-0.6,0.1,0.5-0.2c0.7-0.4,1-1,0.9-1.8
						c-0.1-0.4-0.4-0.8-0.7-0.9c-0.1,0-0.2-0.1-0.2-0.1l0.1,0l0.1,0.1l0.4,0.2l0.9,0.4c0.6,0.3,1.1,0.6,1.7,0.9
						c2.2,1.3,4.3,2.8,6.2,4.5c3.7,3.5,6.9,7.5,9,12.1c2.2,4.5,3.6,9.4,4.3,14.3c0.7,4.9,0.6,9.8,0.3,14.7
						c-0.6-9.7-2.5-19.4-7.1-27.6c-2.4-4.1-5.3-7.8-8.8-10.8c-1.8-1.5-3.6-2.9-5.6-4c-0.5-0.3-1-0.5-1.5-0.8l-0.8-0.4l-0.4-0.2
						l-0.4-0.2c-0.4-0.3-0.8-0.8-0.9-1.3c-0.2-1,0.2-2.1,1.2-2.5c0.4-0.2,1.3-0.2,1.1-0.2l0.2,0l1,0.1c0.6,0.1,1.3,0.2,1.9,0.3
						c5,0.9,9.8,2.7,14.2,5.4c4.3,2.7,8.1,6.4,10.7,10.7C101.8,836.6,102.8,847.1,101.7,856.7z"/>
				</g>
			</g>
		</g>
		<g>
			<g>
				<path class="st0" d="M156.3,655.1c0,0,4.9,152.7,1.9,181.2c0,0-6.8,18.2,12.2,21.4c0,0,56.4,24.3,88.8,7.1
					c0,0,13.4-42.4-28.7-46.3c0,0-19.2-5.4-17-30.9C215.7,762,213,663,213,663S172.2,665.5,156.3,655.1z"/>
			</g>
			<g>
				<path class="st1" d="M156.3,658l0.6,14.5c0,0,14.5,6.2,28.7,8.3c6.6,1,11.7,6.4,12,13.1c0.4,8.6,0.9,22.8,1.2,45.5
					c0.8,48.7-6,78.9,15.9,88.5c21.9,9.6,26.6-2.4,44.9,32.4c0,0,10.5-36.9-29.2-41.9c0,0-21.3-5.5-17.1-44.3L213,663
					C213,663,188.8,668,156.3,658z"/>
			</g>
			<g>
				<path class="st2" d="M213.1,798.7v-9.2c-28.3,11.5-53.7-0.4-53.7-0.4l0.6,10.3C160,799.3,187.2,807.3,213.1,798.7z"/>
			</g>
			<g>
				<path class="st2" d="M197.4,857c0,0,0.2-37.7,25.5-42.8c0,0-34.6-2.8-35.5,39.6c0,0-20.1-4.7-29.5-13c0,0-2.9,12.7,10.7,16.1
					c0,0,31.5,13.5,56,13.8c0,0,32.4,0.2,35.1-7.6l0.1-2.9C259.7,860.3,226.3,866.4,197.4,857z"/>
			</g>
			<g>
				<path class="st3" d="M198.6,791.7c0,0,0.3,7.5,0.8,11l13.7-4v-9.2C213.1,789.5,206.3,792.4,198.6,791.7z"/>
			</g>
			<g>
				<g>
					<path class="st2" d="M156.3,653l1.9,36.3c0,0,38-1.6,55.6,2.2l-0.6-29.1C213.1,662.3,170.3,664.3,156.3,653z"/>
				</g>
				<g>
					<path class="st3" d="M156.4,658.5c0,0,18.1,6.7,33.5,9.7c3.2,0.6,5.5,3.3,5.7,6.5l0.7,13.9c0,0,16.6,2.5,17.4,3.4l-0.6-29.7
						c0,0-39.9,2.5-56.9-9.3L156.4,658.5z"/>
				</g>
			</g>
			<g>
				<path class="st3" d="M203.6,817.6c0,0,1.1,6.1,5.2,6.5l9.7-9C218.4,815.2,213.1,812.8,203.6,817.6z"/>
			</g>
			<g>
				<path class="st4" d="M213.1,691.4c-9.3-1-18.6-1.5-27.9-1.8c-9.3-0.3-18.6-0.3-28-0.3c4.6-0.7,9.3-1.1,14-1.4
					c4.7-0.3,9.4-0.3,14.1-0.2C194.6,688.1,204.1,689,213.1,691.4z"/>
			</g>
			<g>
				<g>
					<path class="st4" d="M156.4,657.7c1.9,24.8,3.2,49.6,3.9,74.5c0.7,24.8,1.1,49.7,0.2,74.6c-0.3,12.4-1.2,24.9-2,37.2
						c-0.1,2.9,1,5.9,2.9,8.1c1,1.1,2.2,2,3.5,2.7c1.3,0.6,2.8,1.2,4.2,1.8c5.7,2.3,11.6,4.3,17.6,6.1c11.8,3.6,24,6.2,36.3,7
						c6.1,0.3,12.3,0.3,18.3-0.6c6-1,11.9-2.7,17.1-5.6l-0.7,0.9c1.2-4.5,1.7-9.3,1.6-14c-0.1-4.7-0.8-9.3-2.6-13.5
						c-1.7-4.3-4.8-7.8-8.5-10.3c-3.7-2.7-8.2-3.9-12.7-5l0.2,0c-7.7-0.8-14.7-4.9-19-11.3c-4.1-6.4-5.4-14.1-5.2-21.3
						c0.3-14,0.4-28,0.5-42c0.1-28,0.3-56,0.7-84.1l0.4,0c1.1,28,1.9,56,2.2,84.1c0.2,14,0.3,28,0,42.1c-0.2,6.7,1.1,13.5,4.6,19
						c3.6,5.3,9.7,8.9,16,9.6l0.2,0l0,0c4.9,1.2,9.9,2.6,14.1,5.8c4.2,2.9,7.8,7.1,9.6,11.9c2,4.8,2.7,9.9,2.7,14.9
						c0,5-0.7,10-2.1,14.9l-0.2,0.6l-0.5,0.3c-5.7,3-12,4.7-18.3,5.5c-6.3,0.7-12.6,0.6-18.9,0.1c-12.5-1.3-24.7-4.2-36.5-7.9
						c-6-1.8-11.8-4-17.6-6.2c-1.5-0.6-2.9-1.1-4.4-1.8c-1.5-0.7-2.8-1.7-3.9-2.9c-2.2-2.4-3.5-5.7-3.4-9
						c0.6-12.5,0.9-24.8,0.9-37.2c0-24.8-0.2-49.6-0.6-74.5l-1.3-74.5L156.4,657.7z"/>
				</g>
				<g>
					<path class="st4" d="M157.9,840.9c3.8,2.4,7.7,4.4,11.7,6.2c4,1.8,8.1,3.6,12.3,4.9c8.3,2.8,16.8,5,25.5,6.5
						c4.3,0.6,8.7,1.4,13.1,1.7c2.2,0.2,4.4,0.4,6.6,0.6c2.2,0,4.4,0.1,6.6,0.2c8.8,0.3,17.7-0.3,26.6-0.7
						c-4.3,0.9-8.7,1.8-13.2,2.5c-4.5,0.4-8.9,1.1-13.4,1.1c-9,0.5-18-0.4-26.9-1.6c-8.9-1.6-17.6-4-25.9-7.5
						C172.6,851.2,164.6,846.9,157.9,840.9z"/>
				</g>
				<g>
					<path class="st4" d="M214.8,797.9c-3.9,2.6-8.5,4.1-13.1,5.2c-4.6,1.1-9.4,1.4-14.1,1.5c-4.7,0-9.4-0.5-14.1-1.3
						c-4.6-0.9-9.1-2.2-13.5-4c2.4,0.1,4.7,0.3,7,0.5l6.9,0.5c4.6,0.3,9.1,0.5,13.7,0.5c4.5,0,9.1-0.2,13.6-0.6
						C205.7,799.7,210.3,799.1,214.8,797.9z"/>
				</g>
				<g>
					<path class="st4" d="M214.2,789c-4.1,2.4-8.5,4-13.1,5.2c-4.6,1.2-9.3,1.8-14,2c-4.7,0.2-9.5-0.4-14.1-1.5
						c-4.6-1.1-9-3.1-12.9-5.7c4.6,1.2,8.9,2.4,13.4,2.8c4.5,0.5,9,0.8,13.5,0.6C196.1,792.2,205.1,790.9,214.2,789z"/>
				</g>
				<g>
					<path class="st4" d="M187.5,856.7c-1.1-9.6-0.1-20.1,5.3-28.7c2.6-4.4,6.4-8,10.7-10.7c4.3-2.7,9.2-4.5,14.2-5.4
						c0.6-0.1,1.3-0.2,1.9-0.3l1-0.1l0.2,0c-0.1,0,0.7-0.1,1.1,0.2c1,0.5,1.5,1.5,1.2,2.5c-0.1,0.5-0.5,1-0.9,1.3l-0.4,0.2l-0.4,0.2
						l-0.8,0.4c-0.5,0.3-1,0.5-1.5,0.8c-2,1.1-3.9,2.5-5.6,4c-3.6,3-6.5,6.7-8.8,10.8c-4.7,8.2-6.5,17.9-7.1,27.6
						c-0.4-4.9-0.5-9.8,0.3-14.7c0.8-4.9,2.1-9.7,4.3-14.3c2.1-4.6,5.3-8.6,9-12.1c1.9-1.7,3.9-3.2,6.2-4.5c0.5-0.3,1.1-0.6,1.7-0.9
						l0.9-0.4l0.4-0.2l0.1-0.1l0.1,0c0,0-0.1,0.1-0.2,0.1c-0.3,0.2-0.6,0.6-0.7,0.9c-0.2,0.7,0.1,1.4,0.9,1.8
						c1.1,0.2,0.6,0.1,0.5,0.2l-0.9,0.1c-0.6,0.1-1.1,0.2-1.7,0.3c-9.1,1.6-17.8,6.4-23.2,14c-2.7,3.8-4.7,8.2-5.7,12.8
						c-0.8,2.3-0.9,4.7-1.4,7.1C187.8,851.8,187.7,854.3,187.5,856.7z"/>
				</g>
			</g>
		</g>
		<g>
			<g>
				<path class="st0" d="M69,336.4c0,0,58.4,44.2,152.4,2.1c0,0-9,74.4-6.3,128.3c0,0-1,48,2,64.1c0,0-44.6,15.3-142.6,4.1
					C74.5,535,84.8,445.8,69,336.4z"/>
				<path class="st1" d="M221.5,336.4c0,0-8.2,134.6-3.6,196.7c0,0-54.2,9.7-80.2,6c0,0,58,3.4,49.8-30.9
					c-8.1-34.2-1.3-142.4-1.3-142.4S189.1,349.3,221.5,336.4z"/>
				<g>
					<g>
						<path class="st4" d="M74.5,535c1-7.6,1.7-15.2,2.1-22.9c0.6-7.6,0.9-15.3,1.1-22.9c0.4-15.3,0.4-30.6-0.2-45.9
							c-0.3-15.3-1.3-30.6-2.3-45.8c-1-15.3-2.5-30.5-3.7-45.8c1.4,7.5,2.6,15.1,3.8,22.7c0.9,7.6,2,15.2,2.8,22.9
							c0.8,7.6,1.5,15.3,1.9,23c0.6,7.7,0.9,15.3,1.2,23c0.2,15.4,0.3,30.7-0.7,46.1C79.4,504.7,77.9,520.1,74.5,535z"/>
					</g>
					<g>
						<path class="st4" d="M217.1,531c-1.5-15.4-2.3-30.9-2.7-46.3c-0.5-15.5-0.3-31-0.1-46.4c0.5-15.5,1.1-30.9,2.4-46.4
							c1.3-15.4,3.1-30.8,5.9-46.1c-0.3,3.9-0.6,7.7-1,11.6l-0.8,11.6c-0.5,7.7-1,15.4-1.3,23.1c-0.7,15.4-1.4,30.8-1.6,46.3
							c-0.5,15.4-0.6,30.9-0.8,46.3c-0.1,7.7-0.1,15.4-0.1,23.2L217.1,531z"/>
					</g>
				</g>
			</g>
			<path class="st0" d="M123.3,244.5c0,0,7.8,56-30.6,53.4c0,0-40.7,80.1,66.8,67.1c107.5-13.1,48.6-55.3,48.6-55.3
				s-35.9,3.6-31.7-47.7C176.4,262,166.8,266.5,123.3,244.5z"/>
		</g>
		<g>
			<g>
				<path class="st5" d="M74.5,535c0,0,103,10.6,143.1-4.7c0,0,23.7,48,24.2,71.2c0.5,23.2,35.6,43.4,35.6,43.4
					s-61.7,35.5-133.3,9.2c-71.7-26.3-119.9,20.5-119.9,20.5s24.3-29.6,26.5-64.4C52.8,575.2,74.5,535,74.5,535z"/>
			</g>
			<g>
				<path class="st6" d="M178.2,539.3c0,0,43.7,30.1,43.4,74.3c0,0,9.3,27.8,34.1,30.1c0,0-22.6,17.6-73.7,4c0,0-13.6-6.1-11.9-29.8
					c0,0-4.9,18.5-0.2,26.3c0,0-19.8-12.4-62.3-9c0,0-3.2-10.4,0-26.3c0,0-5.8,22.3-5.5,25.2c0,0-44.3,1.6-75.7,38.4
					c0,0,32.6-32.9,82-27.4c0,0,30.3,5.3,44.5,11.9c14.2,6.6,69.8,16.3,124.4-12.1c0,0-27.9-10.9-35.1-39c0,0-11.5-57.5-26-74.9
					C216.3,531,190.6,538.7,178.2,539.3z"/>
			</g>
			<g>
				<path class="st4" d="M22.1,677.2c7.4-9,16.6-15.5,26.5-21c10-5.3,20.8-9,32-11c11.2-2,22.7-1.6,33.9-0.4l8.4,1.6
					c2.8,0.5,5.6,1,8.3,1.9l16.2,4.9c21.1,6.8,43.5,9.9,65.8,8.4c22.2-1.3,44.4-6.8,64.1-17.3l0.1,1.1
					c-10.2-4.8-19.3-11.9-26.1-20.9c-3.4-4.5-6.1-9.5-7.9-14.9c-1.9-5.4-2.5-11-3.8-16.3c-2.5-10.8-6.1-21.4-10-31.7
					c-4-10.4-8.4-20.6-13.1-30.6l2.1,0.7c-5.7,2.6-11.7,4.3-17.7,5.3c-6,1.1-12,1.7-18,2.3c-12.1,0.9-24.1,1.2-36.2,1.2
					c-24.1-0.1-48.1-1.5-72.1-3.6l1.8-1c-5.7,11.1-10.5,22.9-14.5,34.9c-4,12-7.1,24.3-9.3,36.8l-1.8,9.4c-0.6,3.1-1.4,6.2-2.2,9.3
					c-1.7,6.2-3.8,12.2-6.2,18.2c-2.5,5.9-5.4,11.6-8.7,17.1c-1.6,2.7-3.4,5.4-5.2,8c-0.9,1.3-1.9,2.6-2.9,3.8l-1.5,1.9l-0.8,0.9
					C22.8,676.6,22.8,677,22.1,677.2z M22.4,676.9c-0.2-0.3,0.3-0.6,0.5-0.9l0.7-0.9l1.4-1.9c0.9-1.3,1.8-2.6,2.7-3.9
					c1.8-2.6,3.4-5.4,4.9-8.1c3.1-5.5,5.7-11.3,8-17.2c2.3-5.9,4.2-11.9,5.8-18c0.7-3.1,1.4-6.2,2-9.3l1.6-9.4
					c2-12.6,4.9-25.1,8.7-37.3c3.8-12.2,8.3-24.2,14.2-35.7l0.6-1.1l1.3,0.1c23.9,2.1,47.9,3.1,71.8,3.5c12,0.1,24-0.1,35.9-0.9
					c5.9-0.5,11.9-1,17.7-2.1c5.9-0.9,11.6-2.4,16.8-4.7l1.5-0.6l0.6,1.3c4.7,10.2,8.9,20.6,12.7,31.1c3.8,10.5,7.2,21.2,9.5,32.2
					c1.2,5.5,1.7,11.1,3.4,16.3c1.7,5.2,4.2,10.2,7.6,14.6c6.6,8.8,15.6,16,25.6,20.5l1.1,0.5l-1.1,0.6c-9.9,5.5-20.5,9.5-31.3,12.6
					c-10.8,3.2-22,5.1-33.2,6.1c-22.5,2.2-45.4-0.9-67-7.8l-16-5c-2.6-0.9-5.3-1.4-8.1-2l-8.2-1.6c-11-1.3-22.1-1.7-33.1-0.1
					c-11,1.7-21.7,5-31.6,10c-5,2.4-9.8,5.4-14.4,8.5c-2.2,1.7-4.5,3.3-6.6,5.2C26.3,673.1,24.3,675.4,22.4,676.9z"/>
			</g>
		</g>
		<g>
			<path class="st0" d="M199.1,309.1c0,0,39.8-5.3,51,16.6s10.6,10.5,21.4,78.9c10.8,68.5,17.1,103.7,26.1,125.7
				c0,0,13.8,16.3,26.7,21c0,0,6.1,23.9-34.3,7.8c0,0,9.2,20.9-12.5-3.8c0,0-13.5-27.6-29.7-87.8s-36.8-121.8-36.8-121.8
				S197.2,342.7,199.1,309.1z"/>
			<path class="st1" d="M212.5,350.8c0,0,11.8,1.7,26.6,50.5c0,0,25.3,89.9,34.2,116.9c9,27,32.2,43.8,50.8,38.1
				c0,0-2,18.2-34.2,2.9c0,0,14.4,19.4-8.6,1.5c0,0-12.2-19.6-19.6-45.1C254.3,490.2,213.6,354.2,212.5,350.8z"/>
			<path class="st7" d="M261.2,512.5l4.7,15.4c0,0,13.6-15.1,26.1-12.9l-4.5-16.9C287.5,498.1,274.4,495.8,261.2,512.5z"/>
			<path class="st2" d="M261.2,512.5c0,0,11.7-16.3,26.3-14.4l-1.6-6.9c0,0-11.4-1.8-27,14.5L261.2,512.5z"/>
			<path class="st2" d="M265.8,527.9l2.4,7c0,0,12.8-15.1,25.1-13.9L292,515C292,515,281.1,512.3,265.8,527.9z"/>
			<path class="st8" d="M269,504.3c0,0,1.2,8,5.4,17c0,0-2.8,0.7-8.6,6.6l-4.1-15.4C261.8,512.5,267.5,504.1,269,504.3z"/>
			<path class="st3" d="M269,504.3l-2.2-6.9l-7.4,8.3l2.3,6.8C261.8,512.5,266,505.7,269,504.3z"/>
			<path class="st3" d="M265.8,527.9c0,0,3.7-4.1,8.6-6.6l2.7,6.2c0,0-7,4-8.6,7.3L265.8,527.9z"/>
			<g>
				<g>
					<path class="st4" d="M268.3,534.9c1.4-2.2,3.2-4.1,5-5.9c1.8-1.8,3.9-3.4,6.1-4.9c2.2-1.4,4.6-2.6,7.2-3.2
						c2.6-0.6,5.4-0.6,7.8,0.5c-2.6-0.4-5.1,0.1-7.4,0.9c-2.3,0.8-4.5,2-6.6,3.4C276.2,528.3,272.3,531.6,268.3,534.9z"/>
				</g>
				<g>
					<path class="st4" d="M266.7,527.3c1.4-2.1,3.2-3.9,5-5.6c1.8-1.7,3.9-3.2,6.1-4.5c2.2-1.2,4.6-2.3,7.1-2.8
						c2.5-0.5,5.2-0.4,7.5,0.6c-5-0.5-9.5,1.3-13.7,3.7C274.6,521.3,270.7,524.3,266.7,527.3z"/>
				</g>
				<g>
					<path class="st4" d="M261.4,513c1.1-2.5,2.6-4.7,4.4-6.7c1.7-2.1,3.8-3.8,6.1-5.3c2.3-1.5,4.9-2.5,7.6-3.1
						c2.7-0.6,5.5-0.4,8,0.2c-2.7,0.2-5.2,0.4-7.7,1.2c-2.4,0.8-4.8,1.8-6.9,3.2C268.6,505.3,264.9,509,261.4,513z"/>
				</g>
				<g>
					<path class="st4" d="M259.5,505.7c1.5-2.3,3.3-4.4,5.2-6.4c1.9-2,4.1-3.7,6.5-5.2c2.4-1.4,5-2.7,7.8-3.1
						c2.8-0.5,5.7-0.4,8.3,0.7c-5.5-0.7-10.6,1.2-15.1,4C267.6,498.5,263.5,502.1,259.5,505.7z"/>
				</g>
				<g>
					<path class="st4" d="M176.4,262.1c-0.6,6.2-0.3,12.4,0.7,18.5c1,6,3,12,6.3,17c3.4,5,8.5,8.5,14.3,10c5.8,1.3,12,1,17.9-0.1
						l0.1,0l0,0c14.6-0.6,28.3,7.2,36.7,18.6c8.4,11.5,12.5,25.3,14.3,39c3.8,27.2,7.6,54.4,11.8,81.5c1.1,6.8,2.1,13.6,3.3,20.3
						c1.2,6.7,2.6,13.5,4.2,20.1c3.1,13.3,6.4,26.7,11.3,39.3c0.6,1.5,1.4,3.1,2.2,4.4c0.8,1.2,2,2.5,3.1,3.7
						c2.3,2.4,4.9,4.5,7.7,6.4c2.8,1.9,5.7,3.6,8.7,5.2c1.5,0.8,3,1.6,4.6,2.5c0.4,0.2,0.8,0.5,1.3,0.9c0.2,0.2,0.5,0.4,0.8,0.8
						c0.4,0.6,0.4,1.1,0.5,1.3c0.2,1.1,0.2,2,0.1,3c-0.3,3.8-2.1,7.9-5.7,10c-3.5,2.2-7.4,2.5-11,2.3c-7.3-0.5-13.9-3.1-20.4-5.8
						l2.2-3.2c1,1,1.8,1.9,2.6,3c0.7,1.1,1.5,2.3,1.8,4.1c0.2,0.9,0,2.2-0.8,3.2c-0.8,0.9-1.7,1.4-2.8,1.6c-2.1,0.3-3.5-0.5-4.7-1.1
						c-4.7-2.8-7.8-6.7-10.7-10.8c-2.8-4.1-5.1-8.6-6.9-13.1l-5.5-13.3l0-0.1l0-0.1l-22.6-79.6L230,412l-11-39.9l-0.2-0.6l13.2,39.9
						l12,39.6l23.9,79.2l-0.1-0.2l5.5,13.3c1.7,4.5,3.8,8.5,6.5,12.4c2.6,3.7,5.8,7.4,9.4,9.5c0.9,0.5,1.8,0.7,2.2,0.7
						c0.1,0,0.3-0.1,0.3-0.1c0,0,0,0.1,0-0.2c-0.2-1.3-1.8-3.4-3.3-4.8l-7.2-7.4l9.4,4.1c6.1,2.7,12.5,5.2,19,5.7
						c3.2,0.3,6.4-0.1,8.8-1.6c2.5-1.4,3.8-4.2,4.1-7.2c0.1-0.7,0.1-1.5,0-2.1c0-0.2-0.1-0.2,0.1,0.1c0,0,0,0-0.1-0.1
						c-0.2-0.2-0.5-0.4-0.9-0.6c-1.4-0.8-2.9-1.6-4.4-2.5c-3-1.7-6-3.5-8.9-5.5c-2.9-2.1-5.6-4.4-8-7c-1.2-1.4-2.3-2.5-3.4-4.2
						c-1-1.6-1.7-3.2-2.3-4.9c-4.8-13.1-7.8-26.5-10.6-40c-2.8-13.5-4.9-27.1-6.9-40.7c-4.1-27.2-8.6-54.3-13.2-81.3
						c-2.3-13.3-6.4-26.7-14.4-37.4c-3.9-5.4-8.9-9.9-14.8-13.1c-5.8-3.1-12.5-4.9-18.9-4.7l0.1,0c-6.2,1.2-12.8,1.3-19.1-0.3
						c-6.3-1.7-11.9-5.8-15.3-11.3c-3.5-5.4-5.2-11.7-5.9-17.9c-0.7-6.2-0.7-12.5,0.2-18.7L176.4,262.1z"/>
				</g>
			</g>
		</g>
		<g>
			<g>
				<path class="st0" d="M105.5,118.4c0,0,112.5-58.2,170.1,0c0,0-15.1,53.3-12.9,71.5c2.3,18.1-3.4,23-26.5,42.7s-60,29.5-60,29.5
					s-60.6-5.7-92.3-52.8C83.9,209.3,71.6,132.2,105.5,118.4z"/>
			</g>
			<g>
				<path class="st1" d="M250.1,127.7c0,0,10.5,34.7,0.1,68.4s-74.5,59.8-74.5,59.8s-50.9-7.2-61.2-21.2c0,0,3,18.1,61.2,29.3
					c0,0,86.1-33.3,87.3-64.9s9-62.7,9-62.7S269.1,128,250.1,127.7z"/>
			</g>
			<g>
				<path class="st5" d="M224.9,134.7c0,0-9.1,18,3.1,32c0,0,19.9,8.6,30,0c10-8.6,9.4-32.8,9.4-32.8S251,111.6,224.9,134.7z"/>
			</g>
			<g>
				
					<ellipse transform="matrix(0.1958 -0.9806 0.9806 0.1958 61.1662 365.2192)" class="st9" cx="253.3" cy="145.3" rx="17.2" ry="8.7"/>
			</g>
			<g>
				<path class="st10" d="M243.9,151.4c0,0,11.8-8.2,17.1,1.4c0,0,6.4-19.1-3.6-25C257.4,127.7,244.6,125.9,243.9,151.4z"/>
			</g>
			<g>
				<path class="st5" d="M199.9,133.2c0,0-23.3-34-68.1-2.1c0,0-2,16.7,2.7,30.6c1.5,4.3,7.2,7.6,11.4,9.3
					c10.4,4.1,32,10.1,47.5-2.8C193.4,168.2,212.1,149.8,199.9,133.2z"/>
			</g>
			<g>
				<path class="st10" d="M253,147.1c0,0,1.8,13.1,8.6,1.7C261.6,148.8,261.2,145.4,253,147.1z"/>
			</g>
			<g>
				<ellipse class="st9" cx="181.9" cy="143.1" rx="12.9" ry="20.1"/>
			</g>
			<g>
				<path class="st10" d="M170,150.4c0,0,12.3-10.5,23.9,0c0,0,6.2-23.2-11.1-28.1C182.8,122.4,164.6,124.1,170,150.4z"/>
			</g>
			<g>
				<path class="st10" d="M180.7,144.4c0,0,3.8,14.4,12.8,1.7C193.4,146.1,187.3,141,180.7,144.4z"/>
			</g>
			<g>
				<path class="st4" d="M113.2,139c0,0,26.6-4.6,37.5-30.2l-5.8,28.8l39.2-30.2L166.6,132c0,0,17.8,0.9,55-32.8
					c0,0,13,26.6,30.9,30.3l-4.8-15.9l18.7,32.2v-16.3l4.4,6.8c0,0-9.3,35.4-7.5,56.7c0,0,6.1,34.7-87.6,69.2c0,0-2.7,11.7,1,11.9
					c0,0,16.2,2.2,42.5-23.9c0,0,1.8,17.3-3.5,27c0,0,43.5-14.4,52.6-63.2l-1.1,26.9c0,0,44-62,22.2-127.3l10.8,8.2
					c0,0-12.3-103.1-116.1-119.6S30.5,65.8,19.7,107.5l18.8-10.7c0,0-45.5,63.5,16.1,137.9l-2.7-19.5c0,0,20.5,43.4,55.6,48.7
					c0,0-8.3-7.1-5.6-19.3l23.5,27.7l-2.1-27.6l-6.8-5.2c0,0-7.4-18.6-14.3-59.9l15.2,12.9C117.6,192.5,106.4,152.1,113.2,139z"/>
			</g>
			<g>
				<circle class="st5" cx="257.6" cy="154.7" r="1.9"/>
			</g>
			<g>
				<path class="st1" d="M123.1,245c0,0,1.9,19.7,34.5,29.9c0,0,17.5,2.1,18.9,10.9c0,0-2.1-14.1-1.3-21.7
					C175.3,264.1,137.8,255.4,123.1,245z"/>
			</g>
			<g>
				<circle class="st5" cx="190.4" cy="152.8" r="2.6"/>
			</g>
			<g>
				<path class="st3" d="M97.2,137.7l5.5-10c0,0,7,2,14.5,1.6l-4,8.7C113.2,138.1,109.9,139.9,97.2,137.7z"/>
			</g>
			<g>
				<path class="st4" d="M82.1,113.6c1.5,3.2,4,5.9,6.7,8c2.8,2.1,5.9,3.6,9.2,4.7c3.3,1.2,6.7,1.7,10.2,2.3c3.5,0.4,7,0.6,10.6,0.8
					c-1.8,0.3-3.5,0.4-5.3,0.6c-1.8,0.1-3.6,0-5.4,0c-3.6-0.3-7.2-0.7-10.7-2c-3.4-1.2-6.8-2.9-9.5-5.4
					C85.2,120.2,82.9,117.1,82.1,113.6z"/>
			</g>
			<g>
				<g>
					<path class="st4" d="M81.2,210c6.7,6.9,13.9,13.2,21.4,19.1c7.6,5.8,15.4,11.3,23.6,16c8.2,4.7,16.9,8.6,25.9,11.7
						c9,3,18.3,4.7,27.6,5.3l-0.7,0.1c13.3-5.4,26.3-12,38.7-19.3c12.4-7.4,24.2-15.9,33.8-26.4c1.2-1.3,2.3-2.7,3.4-4.1
						c1.1-1.4,2.3-2.7,3.1-4.2c1.8-2.9,3-6.2,3.4-9.7c0.2-1.7,0.3-3.4,0.2-5.2c-0.1-1.8-0.2-3.7-0.2-5.5c0-3.7,0.2-7.3,0.6-11
						c1.6-14.6,5.3-28.7,10-42.5c-3.8,14-6.9,28.3-7.9,42.6c-0.3,3.6-0.4,7.2-0.3,10.8c0,1.8,0.2,3.6,0.3,5.4
						c0.2,1.9,0.1,3.8-0.1,5.7c-0.4,3.8-1.6,7.5-3.5,10.8c-0.9,1.7-2.1,3.2-3.2,4.6c-1.2,1.4-2.2,3-3.5,4.3
						c-9.9,11-21.9,19.8-34.4,27.4c-12.5,7.7-25.7,14-39.3,19.4l-0.3,0.1l-0.3,0c-9.7-0.7-19.4-2.6-28.5-5.8
						c-9.1-3.3-17.8-7.6-26.1-12.6c-8.2-5.1-16-10.7-23.3-17C94.3,223.9,87.4,217.3,81.2,210z"/>
				</g>
				<g>
					<path class="st4" d="M209.5,178.1c0.9,0.4,1.6,1,2.3,1.8c0.7,0.7,1.1,1.7,1.3,2.7c0.2,1.1-0.1,2.4-0.9,3.2
						c-0.7,0.9-1.8,1.2-2.7,1.2c0.6-0.8,1.3-1.3,1.6-2.1c0.3-0.7,0.3-1.3,0.2-2C211,181.4,210.1,179.9,209.5,178.1z"/>
				</g>
				<g>
					<path class="st4" d="M199.9,133.2c-5.2-3.7-10.7-6.7-16.4-8.6c-5.7-1.9-11.5-2.9-17.3-2.5c-5.7,0.5-11.4,1.7-16.9,4.1
						c-2.8,1-5.3,2.6-8.1,3.9l-7.8,4.9l0.9-1.7c-0.3,1.2-0.4,2.7-0.5,4.1c-0.1,1.4-0.2,2.8-0.2,4.3c0.1,2.9,0.3,5.7,1.2,8.6
						c-1.9-2.3-3.3-5.2-4.1-8.2c-0.4-1.5-0.8-3-1-4.5c-0.2-1.6-0.4-3-0.4-4.7l0-0.9l0.9-0.8c2.4-2.2,4.9-4.4,7.5-6.4l4.2-2.7
						c1.4-0.9,2.8-1.9,4.4-2.5c6-3.1,12.8-4.7,19.7-4.8c6.9-0.1,13.7,1.9,19.6,5C191.5,123.2,196.5,127.7,199.9,133.2z"/>
				</g>
				<g>
					<path class="st4" d="M225.1,133.7c1.8-3.8,4.9-6.9,8.5-9.2c3.7-2.2,8.2-3.6,12.7-3.6c4.5,0,9,1.1,12.9,3.2
						c2,0.9,3.6,2.3,5.4,3.5c1.6,1.4,3.1,2.9,4.6,4.3l0.9,0.9l0,0.8c-0.1,1.1-0.2,2.1-0.4,3.1c-0.2,1-0.5,2-0.8,2.9
						c-0.6,1.9-1.7,3.7-3.1,5c0.3-1.9,0.3-3.7,0.2-5.5c-0.1-0.9-0.2-1.8-0.3-2.6c-0.1-0.8-0.3-1.8-0.5-2.5l0.9,1.7l-4.9-2.8
						c-1.7-0.7-3.3-1.7-4.9-2.2c-3.3-1.4-6.6-2.1-10-2.5c-3.4-0.4-6.9,0.1-10.4,1.1C232.2,130.1,228.7,131.7,225.1,133.7z"/>
				</g>
				<g>
					<path class="st4" d="M139.8,168.2c4.3,1.9,8.8,3.4,13.3,4.5c4.5,1.1,9.1,1.9,13.7,2c4.6,0.3,9.2-0.3,13.7-1.3l3.4-0.9l3.2-1.3
						c2.2-0.7,4.2-2.1,6.3-3c-3.8,2.8-7.9,5.3-12.6,6.6c-4.6,1.4-9.4,2-14.2,1.8c-4.8-0.3-9.5-1-14.1-2.5
						C148.1,172.7,143.7,170.8,139.8,168.2z"/>
				</g>
				<g>
					<path class="st4" d="M228.2,166.4c5.2,1.9,10.4,3.2,15.7,3.4c2.7,0.2,5.3-0.2,7.9-0.7c2.6-0.5,5.1-1.6,7.6-2.7
						c-2.1,1.8-4.5,3.3-7.2,4.1c-2.7,0.9-5.5,1.3-8.3,1.2c-2.8-0.1-5.6-0.6-8.3-1.5C233,169.3,230.5,168.1,228.2,166.4z"/>
				</g>
				<g>
					<path class="st4" d="M181.9,164.1c-7.6,0-13.8-9.8-13.8-21.8s6.2-21.8,13.8-21.8s13.8,9.8,13.8,21.8S189.5,164.1,181.9,164.1z
						 M181.9,122.5c-6.6,0-11.9,8.9-11.9,19.9c0,11,5.3,19.9,11.9,19.9s11.9-8.9,11.9-19.9C193.8,131.4,188.5,122.5,181.9,122.5z"/>
				</g>
				<g>
					<path class="st4" d="M251.1,163.7c-0.3,0-0.6,0-0.9-0.1c-5.4-0.8-8.5-9.3-6.9-19.3c0.7-4.7,2.4-8.9,4.6-12
						c2.4-3.2,5.1-4.8,7.9-4.4c2.7,0.4,4.9,2.7,6.2,6.5c1.2,3.6,1.5,8.1,0.7,12.8v0c-0.7,4.7-2.3,8.9-4.6,12
						C256,162.1,253.5,163.7,251.1,163.7z M254.9,129.8c-1.8,0-3.7,1.3-5.5,3.7c-2.1,2.8-3.6,6.8-4.2,11.1
						c-1.3,8.7,1.1,16.5,5.3,17.2c2,0.3,4.1-1,6.1-3.6c2.1-2.8,3.6-6.8,4.2-11.1v0c0.7-4.4,0.4-8.6-0.7-11.9c-1-3.1-2.7-5-4.7-5.3
						C255.3,129.8,255.1,129.8,254.9,129.8z"/>
				</g>
			</g>
			<g>
				<path class="st4" d="M113.1,138.8c3.5-1.4,6.9-2.8,10.1-4.7c3.2-1.8,6.3-3.8,9.2-6.1c2.9-2.2,5.6-4.7,8.3-7.3
					c2.6-2.6,5.1-5.3,7.2-8.2l3.9-5.2l-1,6.4c-0.6,3.9-1.2,7.9-1.9,11.8l-2.1,11.8l-2.5-1.5c3.2-2.5,6.6-4.8,9.9-7.2l9.9-7.2
					c6.6-4.8,13.2-9.6,19.8-14.5l3.5-2.7l-2.6,3.6c-3.1,4.2-6.2,8.4-9.2,12.7l-9,12.8l-0.7-1.2c5.2-0.6,10.1-3.3,14.8-5.8
					c4.7-2.7,9.2-5.7,13.7-8.8c8.9-6.2,17.6-12.9,26-19.8l1.7-1.4l1.1,1.9c3.5,6.3,7.6,12.4,12.3,17.7c2.4,2.7,4.9,5.2,7.6,7.4
					c2.7,2.1,5.8,3.9,9,4.6l-2.3,2.3c-1.7-7.2-3.5-14.3-5.1-21.5l-3-13.4l6.3,12.1c6.3,12.1,12.6,24.1,18.8,36.3l-2,0.4
					c0.8-9.5,1.8-19.1,2.8-28.6l0.4,0c-0.3,9.6-0.6,19.1-1,28.7l-0.2,3.7l-1.9-3.2c-6.8-11.8-13.4-23.7-20-35.6l3.3-1.3
					c1.9,7.1,3.5,14.3,5.3,21.5l0.8,3.1l-3.1-0.7c-4-0.9-7.5-3-10.5-5.3c-3.1-2.4-5.8-5-8.2-7.9c-4.9-5.8-8.9-12-12.5-18.7l2.7,0.6
					c-8.6,6.9-17.5,13.4-26.7,19.4c-4.6,3-9.4,5.8-14.3,8.3c-4.9,2.4-10,4.9-15.8,5.5l-1.6,0.1l1-1.3l9.3-12.6
					c3.1-4.2,6.1-8.5,9.1-12.7l0.9,0.9c-6.5,5-12.9,10.1-19.3,15.2l-9.6,7.6c-3.2,2.5-6.4,5.1-9.6,7.6l-3.1,2.4l0.6-3.9l1.9-11.8
					c0.7-3.9,1.4-7.9,2.1-11.8l2.8,1.2c-2.4,3.1-5,5.8-7.8,8.4c-2.7,2.6-5.8,4.9-8.9,7c-3.1,2.1-6.4,4.1-9.9,5.6
					c-3.4,1.6-7,2.7-10.7,3.7L113.1,138.8z"/>
			</g>
			<g>
				<path class="st4" d="M112.3,140.1c0.1,9.4,0.5,18.7,1.6,27.9c1,9.2,2.9,18.3,6.3,26.7l3.4,8.6l-6.1-6.8
					c-5.5-6.1-10.8-12.4-16.2-18.6l1.4-0.7c1.4,13,4,25.9,7.4,38.5c1.8,6.3,3.7,12.5,6,18.6c2.3,6,4.9,12.1,8.9,16.6l6.7,7.5
					l-8.9-4.5c-4.7-2.4-9-5.2-13.2-8.3c-4.2-3.1-8-6.6-11.7-10.3c-3.6-3.8-6.7-8-9.4-12.4c-2.7-4.5-4.6-9.4-6-14.4l2,0
					c-1.7,5.7-3.6,11.3-5.5,17l-0.4-0.1c1.2-5.8,2.4-11.6,3.8-17.4l0.8-3.5l1.2,3.5c1.7,4.7,3.8,9.2,6.5,13.4c2.8,4.1,6,8,9.5,11.5
					c3.5,3.5,7.4,6.7,11.4,9.8c4,3,8.2,5.8,12.5,8.2l-2.2,3c-4.6-5.5-7-11.8-9.1-18.1c-2.1-6.3-3.6-12.7-5-19.2
					c-1.3-6.4-2.5-12.9-3.6-19.4l-3.3-19.4l-0.4-2.5l1.8,1.8c5.8,5.8,11.7,11.6,17.4,17.5l-2.7,1.8c-3.9-8.9-5.3-18.4-6.1-27.8
					c-0.6-9.4-0.4-18.9,0.8-28.2L112.3,140.1z"/>
			</g>
			<g>
				<path class="st11" d="M57.3,239.8"/>
			</g>
			<g>
				<path class="st4" d="M207.9,213.3c-2.7,1.3-5.8,1.2-8.8,1.2c-2.9,0.1-6-0.5-8.7-0.4c-2.6,0.1-5.5,1.4-5.7,3.9
					c-0.1,1.2,0.6,2.4,1.7,3.2c1.1,0.8,2.5,1.1,4,1.2c-1.4,0.3-3,0.2-4.5-0.4c-1.4-0.7-2.6-2.2-2.7-4c-0.1-1.8,1-3.4,2.4-4.4
					c1.4-0.9,3-1.4,4.6-1.4c3.2-0.1,6,0.5,8.9,0.8c1.4,0.2,2.9,0.3,4.3,0.4C205,213.6,206.5,213.7,207.9,213.3z"/>
			</g>
			<g>
				<ellipse class="st4" cx="187.1" cy="142.4" rx="3.4" ry="7.5"/>
			</g>
			<g>
				
					<ellipse transform="matrix(0.1139 -0.9935 0.9935 0.1139 82.9041 385.2482)" class="st4" cx="257.4" cy="146.1" rx="6" ry="2.7"/>
			</g>
			<g>
				<circle class="st5" cx="176.6" cy="133.5" r="4"/>
			</g>
			<g>
				<circle class="st5" cx="253.3" cy="136.4" r="3.1"/>
			</g>
		</g>
		<g>
			<g>
				<path class="st0" d="M63,273.7c0,0,27.1-97.4,62.6-157.9c0,0,46.5-11.3,50.1-30.3c0,0,20.1-17.6,0.9-19.5
					c-19.2-2-71.1,13.4-84.1,32.4S36.8,187,36.8,187s-50.4,83.4-31.2,115.4s24.8,47.1,75.5,90c0,0,55.5-48.4,20.8-95.1
					C102,297.4,68.8,301.7,63,273.7z"/>
			</g>
			<g>
				<path class="st1" d="M176.6,85.5c0,0-19.7,15.7-61.2,23.4c0,0-31,39.9-57.2,126.6s47.6,61,47.6,61s-41.6,9.7-40.1-28.2
					s47.2-127,47.2-127l13.6-25.5C126.4,115.8,169.3,106.7,176.6,85.5z"/>
			</g>
			<g>
				<path class="st2" d="M82.8,115.2c0,0,6.6,16.3,34.4,14.1l-4,8.7c0,0-28.7,4.7-36.1-15.7L82.8,115.2z"/>
			</g>
			<g>
				<path class="st2" d="M63,144.7c0,0,3.3,19.1,39.7,17l-4.7,8.6c0,0-28.2,5.4-40.7-16.6L63,144.7z"/>
			</g>
			<g>
				<path class="st7" d="M77.1,122.4L63,144.7c0,0,5,20,39.7,17l10.5-23.7C113.2,138.1,86.3,143.9,77.1,122.4z"/>
			</g>
			<g>
				<path class="st8" d="M97.2,137.7c0,0-9.2,17.5-11.9,23.4c0,0,12.8,1.4,17.4,0.6l10.5-23.7C113.2,138.1,106.9,139.9,97.2,137.7z"
					/>
			</g>
			<g>
				<path class="st3" d="M85.6,160.9c0,0,12.3,1.2,16.5,0.6l-3.7,8.7c0,0-13.3,1.5-16.8-0.5L85.6,160.9z"/>
			</g>
			<g>
				<path class="st4" d="M77.5,389.1c-10.7-8.9-20.9-18.4-30.6-28.4C37.2,350.6,28,340,19.9,328.6c-8-11.5-15.2-23.6-19.1-37.4
					c-1.5-7.1-0.8-14.3,0.4-21.2c1.3-6.9,3.2-13.7,5.4-20.4c9.1-26.6,22.2-51.4,36-75.7c13.9-24.2,28.9-47.8,44.8-70.8l-0.2,0.4
					c1.3-3,3-5,4.9-7c1.8-2,3.9-3.8,6-5.5c4.2-3.3,8.8-6.1,13.5-8.7c9.5-4.9,19.4-8.6,29.6-11.7c10.2-2.8,20.3-5.8,31.2-6.5
					c2.7-0.1,5.5-0.1,8.4,0.7c1.4,0.4,3,1.2,4.2,2.6c1.2,1.5,1.4,3.5,1.2,5.1c-0.5,3.2-2.1,5.6-3.6,7.8c-1.6,2.3-3.3,4.3-5.3,6.3
					l0.5-1c-0.7,3.3-2.3,5.3-3.9,7.5c-1.7,2.1-3.6,4-5.6,5.6c-4.1,3.3-8.5,6-13.1,8.3c-4.6,2.3-9.4,4.2-14.2,5.9
					c-4.8,1.7-9.7,3.1-14.7,4.4l1.1-0.8c-10.8,20.8-20.8,42.1-30.4,63.5c-9.5,21.5-18.3,43.3-25.2,65.7c-1.5,5.6-3.3,11.2-4.4,17
					c-0.6,2.9-1.4,5.7-1.6,8.5c-0.2,2.8,0.2,5.7,1,8.4c1.7,5.4,5.5,10.1,10.5,12.9c5,2.8,10.7,4.6,16.5,5c5.7,0.4,11.7-0.9,16.5-4.2
					c4.8-3.3,8.1-8.4,10.1-13.8c4-11.1,4-23.1,3.1-34.8c1.1,11.6,1.4,23.7-2.5,35c-2,5.5-5.3,10.8-10.2,14.4c-4.9,3.5-11.1,5-17,4.7
					c-6-0.3-11.8-2-17.1-4.9c-5.3-2.8-9.6-7.8-11.5-13.6c-1-2.9-1.4-6-1.3-9c0.1-3.1,1-5.9,1.5-8.8c1.1-5.8,2.8-11.5,4.3-17.2
					c6.8-22.6,15.3-44.6,24.7-66.2c9.3-21.6,19.4-42.9,30.1-63.9l0.3-0.6l0.7-0.2c4.8-1.3,9.7-2.7,14.4-4.4
					c4.7-1.6,9.3-3.6,13.8-5.7c4.4-2.2,8.7-4.8,12.4-7.9c1.9-1.5,3.6-3.2,5.1-5.1c1.4-1.8,2.8-4.1,3.1-5.8l0.1-0.7l0.4-0.4
					c1.7-1.8,3.4-3.7,4.8-5.8c1.4-2,2.7-4.3,3-6.3c1-3.9-5.3-4.6-10.1-4.3c-10.1,0.7-20.3,3.6-30.3,6.4c-10,3-19.7,6.6-28.9,11.3
					c-4.5,2.5-9,5.1-13,8.2c-2,1.6-3.9,3.3-5.6,5.1c-1.7,1.8-3.3,3.9-4.1,5.8l-0.1,0.3l-0.1,0.1c-15.9,22.8-30.9,46.3-44.9,70.4
					C31.7,199.7,18.3,224.3,9,250.4c-2.3,6.5-4.2,13.2-5.5,20c-1.3,6.7-1.9,13.7-0.6,20.3c3.6,13.2,10.6,25.5,18.3,37
					c7.8,11.5,16.7,22.2,26.2,32.4C56.9,370.4,68.6,380.2,77.5,389.1z"/>
			</g>
			<g>
				<path class="st4" d="M76.8,121.5c3.4,6.7,9.4,11.3,16.2,13.8c3.4,1.3,7,1.8,10.6,2.3c1.8,0.2,3.7,0.2,5.5,0.3
					c1.8,0,3.7-0.1,5.6,0c-1.8,0.4-3.7,0.6-5.5,1c-1.9,0.1-3.7,0.2-5.6,0.2c-3.8-0.2-7.6-0.7-11.1-2c-3.6-1.3-6.9-3.3-9.7-6
					C79.9,128.4,77.7,125.2,76.8,121.5z"/>
			</g>
			<g>
				<path class="st4" d="M63,145.8c1.7,3.4,4.3,6,7.3,8.1c3,2.1,6.3,3.6,9.8,4.6c3.5,1.2,7.1,1.7,10.8,2.2c3.7,0.4,7.4,0.5,11.1,0.8
					c-1.9,0.3-3.7,0.4-5.6,0.6c-1.9,0.1-3.8,0-5.6,0c-3.8-0.2-7.6-0.7-11.2-1.9c-3.6-1.1-7.2-2.8-10.1-5.3
					C66.5,152.6,63.9,149.5,63,145.8z"/>
			</g>
			<g>
				<path class="st4" d="M57.3,153.8c2,3.6,4.9,6.5,8.2,8.8c3.3,2.3,7,4,10.8,5.1c3.8,1.3,7.9,1.7,11.9,2.2l6.1,0.3
					c2,0,4.1-0.1,6.2,0c-2,0.4-4.1,0.6-6.1,0.9c-2.1,0.1-4.1,0.2-6.2,0.3c-4.1-0.2-8.3-0.5-12.3-1.8c-4-1.2-7.9-3-11.1-5.7
					C61.4,161.1,58.6,157.7,57.3,153.8z"/>
			</g>
		</g>
	</g>
	<g>
		<path class="st4" d="M82.8,115c3.8,6.4,10.1,10.7,17,12.7c3.4,1.1,7.1,1.4,10.7,1.7c1.8,0.1,3.7,0,5.5,0c1.8-0.1,3.7-0.3,5.5-0.4
			c-1.8,0.5-3.6,0.9-5.4,1.3c-1.9,0.2-3.7,0.5-5.6,0.6c-3.8,0.1-7.6-0.2-11.2-1.3c-3.6-1.1-7.1-2.8-10-5.4
			C86.4,121.7,84,118.6,82.8,115z"/>
	</g>
</g>
</svg>
