<?xml version="1.0" encoding="utf-8"?>
<!-- Generator: Adobe Illustrator 21.0.2, SVG Export Plug-In . SVG Version: 6.00 Build 0)  -->
<svg version="1.1" id="Capa_1" xmlns="http://www.w3.org/2000/svg" xmlns:xlink="http://www.w3.org/1999/xlink" x="0px" y="0px"
	 viewBox="0 0 633.2 894" style="enable-background:new 0 0 633.2 894;" xml:space="preserve">
<style type="text/css">
	.st0{fill:#EEEEED;}
	.st1{fill:#CECECE;}
	.st2{fill:#A1E5E4;}
	.st3{fill:#80C4C2;}
	.st4{fill:#1E120D;}
	.st5{fill:#A0A0A0;}
	.st6{fill:#737373;}
</style>
<g>
	<g>
		<g>
			<rect class="st0" width="633.2" height="894"/>
		</g>
		<g>
			<rect x="316.6" class="st1" width="316.6" height="893.8"/>
		</g>
		<g>
			<g>
				<rect x="229.2" y="703.2" class="st2" width="175.6" height="190.6"/>
			</g>
		</g>
		<g>
			<g>
				<rect x="316.4" y="703.4" class="st3" width="88.5" height="190.5"/>
			</g>
		</g>
		<g>
			<line class="st4" x1="315.4" y1="893.9" x2="315.4" y2="778"/>
		</g>
		<g>
			<rect x="37.5" y="43.3" class="st2" width="96.9" height="119.2"/>
		</g>
		<g>
			<rect x="182.1" y="43.4" class="st2" width="96.9" height="119.2"/>
		</g>
		<g>
			<rect x="37.5" y="205.9" class="st2" width="96.9" height="119.2"/>
		</g>
		<g>
			<rect x="182.1" y="205.9" class="st2" width="96.9" height="119.2"/>
		</g>
		<g>
			<rect x="37.5" y="368.5" class="st2" width="96.9" height="119.2"/>
		</g>
		<g>
			<rect x="182.1" y="368.5" class="st2" width="96.9" height="119.2"/>
		</g>
		<g>
			<rect x="37.5" y="531.1" class="st2" width="96.9" height="119.2"/>
		</g>
		<g>
			<rect x="182.1" y="531.1" class="st2" width="96.9" height="119.2"/>
		</g>
		<g>
			<rect x="37.5" y="693.6" class="st2" width="96.9" height="119.2"/>
		</g>
		<g>
			
				<rect x="498.7" y="43.3" transform="matrix(-1 -4.499702e-11 4.499702e-11 -1 1094.3402 205.8665)" class="st3" width="96.9" height="119.2"/>
		</g>
		<g>
			
				<rect x="354.1" y="43.4" transform="matrix(-1 -4.498769e-11 4.498769e-11 -1 805.1546 205.9045)" class="st3" width="96.9" height="119.2"/>
		</g>
		<g>
			
				<rect x="498.7" y="205.9" transform="matrix(-1 -4.499702e-11 4.499702e-11 -1 1094.3402 531.0048)" class="st3" width="96.9" height="119.2"/>
		</g>
		<g>
			
				<rect x="354.1" y="205.9" transform="matrix(-1 -4.500679e-11 4.500679e-11 -1 805.1546 531.0428)" class="st3" width="96.9" height="119.2"/>
		</g>
		<g>
			
				<rect x="498.7" y="368.5" transform="matrix(-1 -4.500679e-11 4.500679e-11 -1 1094.3402 856.1486)" class="st3" width="96.9" height="119.2"/>
		</g>
		<g>
			
				<rect x="354.1" y="368.5" transform="matrix(-1 -4.498769e-11 4.498769e-11 -1 805.1546 856.1865)" class="st3" width="96.9" height="119.2"/>
		</g>
		<g>
			
				<rect x="498.7" y="531.1" transform="matrix(-1 -4.500679e-11 4.500679e-11 -1 1094.3402 1181.2988)" class="st3" width="96.9" height="119.2"/>
		</g>
		<g>
			
				<rect x="354.1" y="531.1" transform="matrix(-1 -4.498769e-11 4.498769e-11 -1 805.1546 1181.3368)" class="st3" width="96.9" height="119.2"/>
		</g>
		<g>
			
				<rect x="498.7" y="693.6" transform="matrix(-1 -4.495039e-11 4.495039e-11 -1 1094.3402 1506.4374)" class="st3" width="96.9" height="119.2"/>
		</g>
		<g>
			<rect x="37.5" y="43.3" class="st5" width="96.9" height="17.3"/>
		</g>
		<g>
			<rect x="182.1" y="43.3" class="st5" width="96.9" height="17.3"/>
		</g>
		<g>
			<rect x="37.5" y="205.9" class="st5" width="96.9" height="17.3"/>
		</g>
		<g>
			<rect x="182.1" y="205.9" class="st5" width="96.9" height="17.3"/>
		</g>
		<g>
			<rect x="37.5" y="368.5" class="st5" width="96.9" height="17.3"/>
		</g>
		<g>
			<rect x="182.1" y="368.5" class="st5" width="96.9" height="17.3"/>
		</g>
		<g>
			<rect x="37.5" y="531.1" class="st5" width="96.9" height="17.3"/>
		</g>
		<g>
			<rect x="37.5" y="693.6" class="st5" width="96.9" height="17.3"/>
		</g>
		<g>
			<rect x="182.1" y="531.1" class="st5" width="96.9" height="17.3"/>
		</g>
		<g>
			
				<rect x="498.8" y="43.3" transform="matrix(-1 -4.499258e-11 4.499258e-11 -1 1094.4658 103.9461)" class="st6" width="96.9" height="17.3"/>
		</g>
		<g>
			
				<rect x="354.1" y="43.3" transform="matrix(-1 -4.495483e-11 4.495483e-11 -1 805.206 103.9461)" class="st6" width="96.9" height="17.3"/>
		</g>
		<g>
			
				<rect x="498.8" y="205.9" transform="matrix(-1 -4.494550e-11 4.494550e-11 -1 1094.4658 429.0927)" class="st6" width="96.9" height="17.3"/>
		</g>
		<g>
			
				<rect x="354.1" y="205.9" transform="matrix(-1 -4.501123e-11 4.501123e-11 -1 805.206 429.0927)" class="st6" width="96.9" height="17.3"/>
		</g>
		<g>
			
				<rect x="498.8" y="368.5" transform="matrix(-1 -4.500190e-11 4.500190e-11 -1 1094.4658 754.2937)" class="st6" width="96.9" height="17.3"/>
		</g>
		<g>
			
				<rect x="354.1" y="368.5" transform="matrix(-1 -4.468260e-11 4.468260e-11 -1 805.206 754.2937)" class="st6" width="96.9" height="17.3"/>
		</g>
		<g>
			
				<rect x="498.8" y="531.1" transform="matrix(-1 -4.469193e-11 4.469193e-11 -1 1094.4658 1079.4402)" class="st6" width="96.9" height="17.3"/>
		</g>
		<g>
			
				<rect x="498.8" y="693.6" transform="matrix(-1 -4.499258e-11 4.499258e-11 -1 1094.4658 1404.5371)" class="st6" width="96.9" height="17.3"/>
		</g>
		<g>
			
				<rect x="354.1" y="531.1" transform="matrix(-1 -4.495483e-11 4.495483e-11 -1 805.206 1079.4402)" class="st6" width="96.9" height="17.3"/>
		</g>
	</g>
	<g>
		<g>
			<g>
				<polygon points="230.7,847.7 230.7,841.5 276.4,790.5 300.5,811.8 331.9,775.7 357,775.9 381.7,760.1 384.3,763.2 358.4,779.9 
					333.7,779.7 300.9,817.5 276.8,796.2 				"/>
				<path d="M229.2,851.7v-10.7l47.1-52.6l24.1,21.3l30.8-35.5l25.4,0.2l25.5-16.2l4.6,5.4l-27.7,17.9l-24.5-0.2L301,819.7
					l-24.1-21.3L229.2,851.7z M232.3,842.1v1.6l44.4-49.6l24.1,21.3l32.3-37.2l25,0.2l24-15.5l-0.6-0.8l-24,15.3l-24.8-0.2
					l-31.9,36.8l-24.1-21.3L232.3,842.1z"/>
			</g>
		</g>
		<g>
			<g>
				<polygon points="385.6,775.6 381.5,775.5 381.9,761.6 367.6,762.5 367.4,758.4 386,757.3 				"/>
				<path d="M387.1,777.1L380,777l0.3-13.7l-14.1,0.8l-0.4-7.1l21.7-1.3L387.1,777.1z M383.1,774l1,0l0.3-15.1l-15.4,0.9l0.1,1
					l14.3-0.8L383.1,774z"/>
			</g>
		</g>
	</g>
</g>
</svg>
