<?xml version="1.0" encoding="utf-8"?>
<!-- Generator: Adobe Illustrator 21.0.2, SVG Export Plug-In . SVG Version: 6.00 Build 0)  -->
<svg version="1.1" id="Capa_1" xmlns="http://www.w3.org/2000/svg" xmlns:xlink="http://www.w3.org/1999/xlink" x="0px" y="0px"
	 viewBox="0 0 887.2 785" style="enable-background:new 0 0 887.2 785;" xml:space="preserve">
<style type="text/css">
	.st0{fill:#EEEEED;}
	.st1{fill:#CECECE;}
	.st2{fill:#A0A0A0;}
	.st3{fill:#A1E5E4;}
	.st4{fill:#80C4C2;}
	.st5{fill:none;stroke:#1E120D;stroke-miterlimit:10;}
	.st6{fill:#FFFFFF;stroke:#1E120D;stroke-miterlimit:10;}
	.st7{fill:none;}
	.st8{fill:#1E120D;}
	.st9{fill:#FFFFFF;}
	.st10{fill:#EEEEEE;}
	.st11{fill:#737373;}
</style>
<g>
	<g>
		<g>
			<path class="st0" d="M736.3,149.8V43.5c0-23.9-10.1-43.3-22.5-43.3H165.5c-9.4,0-16.9,14.6-16.9,32.6v249.1H0V785h148.5h0.5H736
				h0.3H885V257L736.3,149.8z"/>
			<path class="st1" d="M738.4,146.4V31.8C738.4,14.2,731,0,721.9,0H444.6v782.7h293.6h0.3h148.8v-527L738.4,146.4z"/>
			<rect y="319.6" class="st2" width="148.6" height="53.3"/>
			<rect x="20.9" y="521.1" class="st3" width="64.2" height="262.7"/>
			<rect x="67.7" y="382.7" class="st3" width="64.2" height="115.4"/>
			<rect x="757.9" y="589.7" class="st4" width="110.6" height="194.1"/>
			<rect x="489.9" y="503.5" class="st4" width="203.1" height="280.3"/>
			<rect x="757.1" y="261.3" class="st4" width="111.3" height="194.1"/>
			<rect x="595.5" y="261.3" class="st4" width="111.3" height="194.1"/>
			<rect x="476" y="261.3" class="st4" width="111.3" height="194.1"/>
			<rect x="595.5" y="34.4" class="st4" width="111.3" height="194.1"/>
			<rect x="476" y="34.4" class="st4" width="111.3" height="194.1"/>
			<rect x="196.1" y="503.5" class="st3" width="203.1" height="280.3"/>
			<rect x="301.7" y="261.3" class="st3" width="111.3" height="194.1"/>
			<rect x="182.2" y="261.3" class="st3" width="111.3" height="194.1"/>
			<rect x="301.7" y="34.4" class="st3" width="111.3" height="194.1"/>
			<rect x="182.2" y="34.4" class="st3" width="111.3" height="194.1"/>
		</g>
		<g>
			<line class="st5" x1="293.5" y1="96" x2="182.2" y2="96"/>
			<line class="st5" x1="295.3" y1="34.5" x2="180.4" y2="34.5"/>
			<line class="st5" x1="295.3" y1="228.9" x2="180.4" y2="228.9"/>
			<line class="st6" x1="237.8" y1="34.6" x2="237.8" y2="228.7"/>
			<line class="st6" x1="293.6" y1="34.6" x2="293.6" y2="228.7"/>
			<line class="st6" x1="182.1" y1="34.6" x2="182.1" y2="228.7"/>
			<line class="st7" x1="182.9" y1="38.2" x2="292.2" y2="38.2"/>
		</g>
		<g>
			<line class="st5" x1="412.8" y1="96" x2="301.5" y2="96"/>
			<line class="st5" x1="414.5" y1="34.5" x2="299.7" y2="34.5"/>
			<line class="st5" x1="414.5" y1="228.9" x2="299.7" y2="228.9"/>
			<line class="st6" x1="357" y1="34.6" x2="357" y2="228.7"/>
			<line class="st6" x1="412.9" y1="34.6" x2="412.9" y2="228.7"/>
			<line class="st6" x1="301.4" y1="34.6" x2="301.4" y2="228.7"/>
			<line class="st7" x1="302.2" y1="38.2" x2="411.5" y2="38.2"/>
		</g>
		<g>
			<line class="st5" x1="293.5" y1="324.1" x2="182.2" y2="324.1"/>
			<line class="st5" x1="295.3" y1="262.6" x2="180.4" y2="262.6"/>
			<line class="st5" x1="295.3" y1="457" x2="180.4" y2="457"/>
			<line class="st6" x1="237.8" y1="262.7" x2="237.8" y2="456.8"/>
			<line class="st6" x1="293.6" y1="262.7" x2="293.6" y2="456.8"/>
			<line class="st6" x1="182.1" y1="262.7" x2="182.1" y2="456.8"/>
			<line class="st7" x1="182.9" y1="266.3" x2="292.2" y2="266.3"/>
		</g>
		<g>
			<line class="st5" x1="412.8" y1="324.1" x2="301.5" y2="324.1"/>
			<line class="st5" x1="414.5" y1="262.6" x2="299.7" y2="262.6"/>
			<line class="st5" x1="414.5" y1="457" x2="299.7" y2="457"/>
			<line class="st6" x1="357" y1="262.7" x2="357" y2="456.8"/>
			<line class="st6" x1="412.9" y1="262.7" x2="412.9" y2="456.8"/>
			<line class="st6" x1="301.4" y1="262.7" x2="301.4" y2="456.8"/>
			<line class="st7" x1="302.2" y1="266.3" x2="411.5" y2="266.3"/>
		</g>
		<g>
			<line class="st5" x1="588" y1="96" x2="476.6" y2="96"/>
			<line class="st5" x1="589.7" y1="34.5" x2="474.9" y2="34.5"/>
			<line class="st5" x1="589.7" y1="228.9" x2="474.8" y2="228.9"/>
			<line class="st6" x1="532.2" y1="34.6" x2="532.2" y2="228.7"/>
			<line class="st6" x1="588" y1="34.6" x2="588" y2="228.7"/>
			<line class="st6" x1="476.5" y1="34.6" x2="476.5" y2="228.7"/>
			<line class="st7" x1="477.3" y1="38.2" x2="586.6" y2="38.2"/>
		</g>
		<g>
			<line class="st5" x1="707.2" y1="96" x2="595.9" y2="96"/>
			<line class="st5" x1="708.9" y1="34.5" x2="594.1" y2="34.5"/>
			<line class="st5" x1="708.9" y1="228.9" x2="594.1" y2="228.9"/>
			<line class="st6" x1="651.4" y1="34.6" x2="651.4" y2="228.7"/>
			<line class="st6" x1="707.3" y1="34.6" x2="707.3" y2="228.7"/>
			<line class="st6" x1="595.8" y1="34.6" x2="595.8" y2="228.7"/>
			<line class="st7" x1="596.6" y1="38.2" x2="705.9" y2="38.2"/>
		</g>
		<g>
			<line class="st5" x1="588" y1="324.1" x2="476.6" y2="324.1"/>
			<line class="st5" x1="589.7" y1="262.6" x2="474.9" y2="262.6"/>
			<line class="st5" x1="589.7" y1="457" x2="474.8" y2="457"/>
			<line class="st6" x1="532.2" y1="262.7" x2="532.2" y2="456.8"/>
			<line class="st6" x1="588" y1="262.7" x2="588" y2="456.8"/>
			<line class="st6" x1="476.5" y1="262.7" x2="476.5" y2="456.8"/>
			<line class="st7" x1="477.3" y1="266.3" x2="586.6" y2="266.3"/>
		</g>
		<g>
			<line class="st5" x1="693.3" y1="591.6" x2="491.5" y2="591.6"/>
			<line class="st5" x1="695" y1="503.5" x2="489.6" y2="503.7"/>
			<line class="st5" x1="695" y1="782" x2="489.6" y2="782"/>
			<line class="st6" x1="592.2" y1="503.6" x2="592.2" y2="781.7"/>
			<line class="st6" x1="693.4" y1="503.6" x2="693.4" y2="781.7"/>
			<line class="st6" x1="491.3" y1="503.6" x2="491.3" y2="781.7"/>
			<line class="st7" x1="492.7" y1="508.8" x2="690.8" y2="508.8"/>
		</g>
		<g>
			<line class="st5" x1="398.6" y1="591.6" x2="196.7" y2="591.6"/>
			<line class="st5" x1="400.3" y1="503.5" x2="194.9" y2="503.7"/>
			<line class="st5" x1="400.3" y1="782" x2="194.8" y2="782"/>
			<line class="st6" x1="297.4" y1="503.6" x2="297.4" y2="781.7"/>
			<line class="st6" x1="398.6" y1="503.6" x2="398.6" y2="781.7"/>
			<line class="st6" x1="196.5" y1="503.6" x2="196.5" y2="781.7"/>
			<line class="st7" x1="197.9" y1="508.8" x2="396.1" y2="508.8"/>
		</g>
		<g>
			<line class="st5" x1="707.2" y1="324.1" x2="595.9" y2="324.1"/>
			<line class="st5" x1="708.9" y1="262.6" x2="594.1" y2="262.6"/>
			<line class="st5" x1="708.9" y1="457" x2="594.1" y2="457"/>
			<line class="st6" x1="651.4" y1="262.7" x2="651.4" y2="456.8"/>
			<line class="st6" x1="707.3" y1="262.7" x2="707.3" y2="456.8"/>
			<line class="st6" x1="595.8" y1="262.7" x2="595.8" y2="456.8"/>
			<line class="st7" x1="596.6" y1="266.3" x2="705.9" y2="266.3"/>
		</g>
		<g>
			<line class="st5" x1="868.5" y1="324.1" x2="757.2" y2="324.1"/>
			<line class="st5" x1="870.2" y1="262.6" x2="755.4" y2="262.6"/>
			<line class="st5" x1="870.2" y1="457" x2="755.4" y2="457"/>
			<line class="st6" x1="812.7" y1="262.7" x2="812.7" y2="456.8"/>
			<line class="st6" x1="868.6" y1="262.7" x2="868.6" y2="456.8"/>
			<line class="st6" x1="757.1" y1="262.7" x2="757.1" y2="456.8"/>
			<line class="st7" x1="757.9" y1="266.3" x2="867.1" y2="266.3"/>
		</g>
		<g>
			<line class="st5" x1="868.5" y1="648.9" x2="757.2" y2="648.9"/>
			<line class="st5" x1="870.2" y1="587.4" x2="755.4" y2="587.4"/>
			<line class="st5" x1="870.2" y1="781.7" x2="755.4" y2="781.7"/>
			<line class="st6" x1="812.7" y1="587.5" x2="812.7" y2="781.5"/>
			<line class="st6" x1="868.6" y1="587.5" x2="868.6" y2="781.5"/>
			<line class="st6" x1="757.1" y1="587.5" x2="757.1" y2="781.5"/>
			<line class="st7" x1="757.9" y1="591.1" x2="867.1" y2="591.1"/>
		</g>
		<g>
			<g>
				<rect x="68.8" y="418.6" class="st8" width="64.2" height="3.7"/>
			</g>
			<g>
				<rect x="67.8" y="383.2" class="st8" width="66.2" height="3.7"/>
			</g>
			<g>
				<rect x="67.8" y="495.2" class="st8" width="66.2" height="3.7"/>
			</g>
			<g>
				<line class="st9" x1="100.8" y1="385.1" x2="100.8" y2="497"/>
				<rect x="99.9" y="385.1" class="st8" width="1.9" height="111.9"/>
			</g>
			<g>
				<line class="st9" x1="133" y1="385.1" x2="133" y2="497"/>
				<rect x="132.1" y="385.1" class="st8" width="1.9" height="111.9"/>
			</g>
			<g>
				<line class="st9" x1="68.7" y1="385.1" x2="68.7" y2="497"/>
				<rect x="67.8" y="385.1" class="st8" width="1.9" height="111.9"/>
			</g>
			<g>
				<line class="st7" x1="69.2" y1="387.1" x2="132.2" y2="387.1"/>
			</g>
		</g>
	</g>
	<g>
		<rect x="25.5" y="321.2" class="st9" width="97" height="50.3"/>
	</g>
	<g>
		<rect x="74" y="321.2" class="st10" width="48.5" height="50.3"/>
	</g>
	<g>
		<path d="M30.6,347.8l-1.2,7.3h-1.6l4.1-23.2h1.9l4.1,23.2h-1.7l-1.3-7.3H30.6z M34.5,345.4l-1.2-6.7c-0.3-1.5-0.4-2.9-0.6-4.2h0
			c-0.2,1.4-0.4,2.8-0.6,4.2l-1.2,6.7H34.5z"/>
		<path d="M39.4,343.6c0-2,0-3.6-0.1-5.2h1.4l0.1,3.3h0.1c0.4-2.2,1.3-3.6,2.4-3.6c0.2,0,0.3,0,0.4,0.1v2.9
			c-0.2-0.1-0.3-0.1-0.5-0.1c-1.1,0-1.9,1.6-2.1,3.9c0,0.4-0.1,0.9-0.1,1.4v8.9h-1.6V343.6z"/>
		<path d="M51,352.5L51,352.5c-0.5,1.6-1.5,3-2.9,3c-2,0-3.7-3.4-3.7-8.4c0-6.2,2.1-9,3.9-9c1.3,0,2.2,1.3,2.7,2.9h0l0.1-2.5h1.5
			c0,1.4-0.1,2.8-0.1,4.6v18.9H51V352.5z M51,345.1c0-0.4,0-0.9-0.1-1.3c-0.2-1.9-1.1-3.4-2.2-3.4c-1.6,0-2.6,2.6-2.6,6.4
			c0,3.3,0.8,6.2,2.6,6.2c1,0,1.9-1.2,2.3-3.3c0.1-0.4,0.1-1,0.1-1.4V345.1z"/>
		<path d="M62.4,350.5c0,1.7,0,3.2,0.1,4.5h-1.4l-0.1-2.7h0c-0.4,1.3-1.3,3.1-2.9,3.1c-1.4,0-3-1.4-3-7.3v-9.7h1.6v9.2
			c0,3.2,0.5,5.3,1.9,5.3c1.1,0,1.8-1.4,2.1-2.7c0.1-0.5,0.1-1,0.1-1.6v-10.2h1.6V350.5z"/>
		<path d="M66.8,333.7c0,1-0.4,1.9-1,1.9c-0.6,0-0.9-0.8-0.9-1.9c0-1.1,0.4-1.9,1-1.9C66.4,331.8,66.8,332.6,66.8,333.7z M65,355
			v-16.7h1.6V355H65z"/>
		<path d="M71.1,333.6v4.8h2.3v2.3h-2.3v9c0,2.1,0.3,3.2,1.2,3.2c0.4,0,0.7-0.1,0.9-0.2l0.1,2.3c-0.3,0.2-0.8,0.4-1.4,0.4
			c-0.7,0-1.3-0.4-1.7-1.3c-0.4-0.9-0.6-2.4-0.6-4.3v-9.1h-1.3v-2.3h1.3v-4L71.1,333.6z"/>
		<path d="M75.9,347.3c0,4.1,1.4,5.8,3,5.8c1.1,0,1.8-0.4,2.4-0.9l0.3,2.2c-0.6,0.5-1.5,1-2.9,1c-2.7,0-4.3-3.4-4.3-8.4s1.5-9,4.1-9
			c2.8,0,3.6,4.8,3.6,7.8c0,0.6,0,1.1-0.1,1.4H75.9z M80.5,345.1c0-1.9-0.4-4.9-2.2-4.9c-1.6,0-2.3,2.8-2.4,4.9H80.5z"/>
		<path d="M90.1,354.4c-0.4,0.4-1.3,1-2.5,1c-2.6,0-4.3-3.4-4.3-8.5c0-5.1,1.8-8.8,4.6-8.8c0.9,0,1.7,0.4,2.2,0.9l-0.4,2.3
			c-0.4-0.4-1-0.8-1.8-0.8c-2,0-3.1,2.8-3.1,6.3c0,3.9,1.3,6.2,3,6.2c0.9,0,1.5-0.4,1.9-0.8L90.1,354.4z"/>
		<path d="M94.1,333.6v4.8h2.3v2.3h-2.3v9c0,2.1,0.3,3.2,1.2,3.2c0.4,0,0.7-0.1,0.9-0.2l0.1,2.3c-0.3,0.2-0.8,0.4-1.4,0.4
			c-0.7,0-1.3-0.4-1.7-1.3c-0.4-0.9-0.6-2.4-0.6-4.3v-9.1h-1.3v-2.3h1.3v-4L94.1,333.6z"/>
		<path d="M105.3,350.5c0,1.7,0,3.2,0.1,4.5H104l-0.1-2.7h0c-0.4,1.3-1.3,3.1-2.9,3.1c-1.4,0-3-1.4-3-7.3v-9.7h1.6v9.2
			c0,3.2,0.5,5.3,1.9,5.3c1.1,0,1.8-1.4,2.1-2.7c0.1-0.5,0.1-1,0.1-1.6v-10.2h1.6V350.5z"/>
		<path d="M108,343.6c0-2,0-3.6-0.1-5.2h1.4l0.1,3.3h0.1c0.4-2.2,1.3-3.6,2.4-3.6c0.2,0,0.3,0,0.4,0.1v2.9c-0.2-0.1-0.3-0.1-0.5-0.1
			c-1.1,0-1.9,1.6-2.1,3.9c0,0.4-0.1,0.9-0.1,1.4v8.9H108V343.6z"/>
		<path d="M118.5,355l-0.1-2.1h-0.1c-0.5,1.3-1.4,2.5-2.6,2.5c-1.7,0-2.6-2.4-2.6-4.8c0-4,1.9-6.2,5.2-6.2v-0.3c0-1.4-0.2-3.8-2-3.8
			c-0.8,0-1.6,0.5-2.3,1.2l-0.4-2c0.7-0.9,1.7-1.5,2.8-1.5c2.6,0,3.3,3.5,3.3,6.8v6.2c0,1.4,0,2.9,0.1,4H118.5z M118.3,346.6
			c-1.7-0.1-3.7,0.5-3.7,3.7c0,2,0.7,2.9,1.5,2.9c1.1,0,1.8-1.4,2.1-2.8c0.1-0.3,0.1-0.6,0.1-1V346.6z"/>
	</g>
	<path class="st2" d="M419.5,542.9c-2.7,0-4.9-4.2-4.9-9.4v-33.3h0.1v-40.1H148.6v0h0v60.9H21v26.6h141.7v0h0.6v-38.8
		c0-4.8,2-8.6,4.5-8.6h232.6v70.2H414v0h30.6v-27.5H419.5z"/>
	<path class="st11" d="M738.7,544v-56l0,0v-27.9l-263.8,0v28.5h0v44.9c0,5.2-2.2,9.4-4.9,9.4h-25.3v27.5h30.2h0.4h14.4v-70.2h229.8
		c2.6,0,4.7,4.1,4.7,9.1V544H724v33.3h146.3V544H738.7z"/>
</g>
</svg>
