<?xml version="1.0" encoding="utf-8"?>
<!-- Generator: Adobe Illustrator 21.0.2, SVG Export Plug-In . SVG Version: 6.00 Build 0)  -->
<svg version="1.1" id="Capa_1" xmlns="http://www.w3.org/2000/svg" xmlns:xlink="http://www.w3.org/1999/xlink" x="0px" y="0px"
	 viewBox="0 0 877.1 774.4" style="enable-background:new 0 0 877.1 774.4;" xml:space="preserve">
<style type="text/css">
	.st0{fill:#EEEEED;}
	.st1{fill:#CECECE;}
	.st2{fill:#A1E5E4;}
	.st3{fill:#80C4C2;}
	.st4{fill:#1E120D;}
	.st5{fill:#737373;}
	.st6{fill:#FFFFFF;}
	.st7{fill:#D8D8D8;}
</style>
<g>
	<g>
		<g>
			<g>
				<g>
					<g>
						<rect y="57.9" class="st0" width="877.1" height="716.2"/>
					</g>
					<g>
						<rect x="438.6" class="st1" width="438.5" height="774.2"/>
					</g>
					<g>
						<rect x="332.4" y="591" class="st2" width="214" height="183.3"/>
					</g>
					<g>
						<rect x="438.6" y="591.2" class="st3" width="107.8" height="183.2"/>
					</g>
					<g>
						<rect x="437.4" y="591.2" class="st4" width="2.5" height="183.2"/>
					</g>
				</g>
				<g>
					<rect x="0" class="st5" width="877.1" height="58"/>
				</g>
				<g>
					<rect x="170.4" y="274.6" class="st2" width="42.5" height="55.2"/>
				</g>
				<g>
					<rect x="85.3" y="274.5" class="st2" width="42.5" height="55.2"/>
				</g>
				<g>
					<rect x="297.9" y="275" class="st2" width="42.5" height="55.2"/>
				</g>
				<g>
					<rect x="383.6" y="275" class="st2" width="42.5" height="55.2"/>
				</g>
				<g>
					<rect x="536.1" y="274.8" class="st3" width="42.5" height="55.2"/>
				</g>
				<g>
					<rect x="451.2" y="274.8" class="st3" width="42.5" height="55.2"/>
				</g>
				<g>
					<rect x="664.4" y="274.2" class="st3" width="42.5" height="55.2"/>
				</g>
				<g>
					<rect x="749.5" y="274.3" class="st3" width="42.5" height="55.2"/>
				</g>
				<g>
					<rect x="170.4" y="184.3" class="st2" width="42.5" height="55.2"/>
				</g>
				<g>
					<rect x="85.3" y="184.3" class="st2" width="42.5" height="55.2"/>
				</g>
				<g>
					<rect x="297.9" y="184.8" class="st2" width="42.5" height="55.2"/>
				</g>
				<g>
					<rect x="383.6" y="184.8" class="st2" width="42.5" height="55.2"/>
				</g>
				<g>
					<rect x="536.1" y="184.5" class="st3" width="42.5" height="55.2"/>
				</g>
				<g>
					<rect x="451.2" y="184.5" class="st3" width="42.5" height="55.2"/>
				</g>
				<g>
					<rect x="664.4" y="184" class="st3" width="42.5" height="55.2"/>
				</g>
				<g>
					<rect x="749.5" y="184" class="st3" width="42.5" height="55.2"/>
				</g>
			</g>
		</g>
		<g>
			<rect x="170.3" y="365" class="st2" width="42.5" height="55.2"/>
		</g>
		<g>
			<rect x="85.2" y="364.9" class="st2" width="42.5" height="55.2"/>
		</g>
		<g>
			<rect x="297.8" y="365.4" class="st2" width="42.5" height="55.2"/>
		</g>
		<g>
			<rect x="383.5" y="365.4" class="st2" width="42.5" height="55.2"/>
		</g>
		<g>
			<rect x="536.1" y="365.2" class="st3" width="42.5" height="55.2"/>
		</g>
		<g>
			<rect x="451.1" y="365.2" class="st3" width="42.5" height="55.2"/>
		</g>
		<g>
			<rect x="664.4" y="364.7" class="st3" width="42.5" height="55.2"/>
		</g>
		<g>
			<rect x="749.5" y="364.7" class="st3" width="42.5" height="55.2"/>
		</g>
		<g>
			<rect x="170.3" y="454.8" class="st2" width="42.5" height="55.2"/>
		</g>
		<g>
			<rect x="85.2" y="454.8" class="st2" width="42.5" height="55.2"/>
		</g>
		<g>
			<rect x="297.8" y="455.3" class="st2" width="42.5" height="55.2"/>
		</g>
		<g>
			<rect x="383.5" y="455.3" class="st2" width="42.5" height="55.2"/>
		</g>
		<g>
			<rect x="536.1" y="455" class="st3" width="42.5" height="55.2"/>
		</g>
		<g>
			<rect x="451.1" y="455" class="st3" width="42.5" height="55.2"/>
		</g>
		<g>
			<rect x="664.4" y="454.5" class="st3" width="42.5" height="55.2"/>
		</g>
		<g>
			<rect x="749.5" y="454.5" class="st3" width="42.5" height="55.2"/>
		</g>
		<g>
			<rect x="85.3" y="545.1" class="st2" width="212.6" height="124.3"/>
		</g>
		<g>
			<rect x="579.4" y="546" class="st3" width="212.6" height="124.3"/>
		</g>
		<g>
			<rect x="137.1" y="544.7" class="st4" width="4.9" height="124.3"/>
		</g>
		<g>
			<rect x="243.3" y="544.7" class="st4" width="4.9" height="124.3"/>
		</g>
		<g>
			<rect x="630.2" y="546" class="st4" width="4.9" height="124.3"/>
		</g>
		<g>
			<rect x="736.3" y="546" class="st4" width="4.9" height="124.3"/>
		</g>
	</g>
	<g>
		<g>
			<path class="st6" d="M385.8,624.7c-11.6,0-21,12.2-21,27.2c0,15,9.4,27.2,21,27.2c11.6,0,21-12.2,21-27.2
				C406.8,636.9,397.4,624.7,385.8,624.7z M385.8,672.5c-8.7,0-15.8-9.2-15.8-20.5c0-11.3,7.1-20.5,15.8-20.5
				c8.7,0,15.8,9.2,15.8,20.5C401.6,663.3,394.6,672.5,385.8,672.5z"/>
		</g>
		<g>
			<path class="st7" d="M385.8,624.7L385.8,624.7l0,6.7h0c8.7,0,15.8,9.2,15.8,20.5c0,11.3-7.1,20.5-15.8,20.5h0v6.7h0
				c11.6,0,21-12.2,21-27.2C406.8,636.9,397.4,624.7,385.8,624.7z"/>
		</g>
		<path class="st6" d="M397.9,656.9c-1.3,0.5-2.9,1-4.6,1.4c-0.2-2.9-1.1-5.6-3.1-7.6c-1.4-1.4-2.9-2-4.7-2c-0.4,0-0.9,0.1-1.5,0.2
			c0.3-1.1,0.5-2.1,0.4-3c-0.3-3.5-2.5-4.1-5-3.8c0.2-0.9,0.5-1.6,0.6-2.2c0.4-1.5-2.1-1.6-2.5-0.2c-0.3,1-0.5,2-0.7,3.1
			c-1,0.3-2,0.6-2.7,0.8c-0.9,0.2-2.3,2.8-0.8,2.4c0.8-0.2,1.9-0.6,3.1-0.9c-0.3,3.2,0.3,6,3.5,6.4c0.5,0.1,1,0.1,1.6,0.1
			c-0.8,2-1.8,3.9-0.9,6.3c1.5,4,6,4.1,10.2,3.3c-0.1,2.2-0.7,4.3-1.3,6.3c-0.5,1.5,2.1,1.6,2.5,0.2c0.7-2.3,1.2-4.7,1.3-7.2
			c1.7-0.5,3.2-1,4.3-1.4C398.6,658.8,399.5,656.4,397.9,656.9z M379,646.8c-0.1-0.6-0.1-1.4,0-2.2c1.8-0.1,3.3,0.8,3.2,4
			c0,0.3,0,0.5-0.1,0.8C380.8,649.5,379.5,649.1,379,646.8z M384.7,658c-2.6-1.4-2.1-3.9-1.3-6.5c2.5-0.2,4.9-0.2,6.5,3.4
			c0.6,1.3,0.9,2.7,1,4C388.6,659.2,386.4,659,384.7,658z"/>
		<path class="st7" d="M397.9,656.9c-1.3,0.5-2.9,1-4.6,1.4c-0.2-2.9-1.1-5.6-3.1-7.6c-1.3-1.3-2.8-2-4.5-2v2.7
			c1.6,0.2,3.1,0.9,4.2,3.3c0.6,1.3,0.9,2.7,1,4c-1.8,0.3-3.6,0.1-5.2-0.4v3.1c1.6,0.2,3.4,0,5.2-0.3c-0.1,2.2-0.7,4.3-1.3,6.3
			c-0.5,1.5,2.1,1.6,2.5,0.2c0.7-2.3,1.2-4.7,1.3-7.2c1.7-0.5,3.2-1,4.3-1.4C398.6,658.8,399.5,656.4,397.9,656.9z"/>
	</g>
	<g>
		<g>
			<path class="st6" d="M492.9,624.7c-11.6,0-21,12.2-21,27.2c0,15,9.4,27.2,21,27.2c11.6,0,21-12.2,21-27.2
				C513.9,636.9,504.5,624.7,492.9,624.7z M492.9,672.5c-8.7,0-15.8-9.2-15.8-20.5c0-11.3,7.1-20.5,15.8-20.5
				c8.7,0,15.8,9.2,15.8,20.5C508.7,663.3,501.6,672.5,492.9,672.5z"/>
		</g>
		<g>
			<path class="st7" d="M492.9,624.7L492.9,624.7l0,6.7h0c8.7,0,15.8,9.2,15.8,20.5c0,11.3-7.1,20.5-15.8,20.5h0v6.7h0
				c11.6,0,21-12.2,21-27.2C513.9,636.9,504.5,624.7,492.9,624.7z"/>
		</g>
		<path class="st6" d="M505,656.9c-1.3,0.5-2.9,1-4.6,1.4c-0.2-2.9-1.1-5.6-3.1-7.6c-1.4-1.4-2.9-2-4.7-2c-0.4,0-0.9,0.1-1.5,0.2
			c0.3-1.1,0.5-2.1,0.4-3c-0.3-3.5-2.5-4.1-5-3.8c0.2-0.9,0.5-1.6,0.6-2.2c0.4-1.5-2.1-1.6-2.5-0.2c-0.3,1-0.5,2-0.7,3.1
			c-1,0.3-2,0.6-2.7,0.8c-0.9,0.2-2.3,2.8-0.8,2.4c0.8-0.2,1.9-0.6,3.1-0.9c-0.3,3.2,0.3,6,3.5,6.4c0.5,0.1,1,0.1,1.6,0.1
			c-0.8,2-1.8,3.9-0.9,6.3c1.5,4,6,4.1,10.2,3.3c-0.1,2.2-0.7,4.3-1.3,6.3c-0.5,1.5,2.1,1.6,2.5,0.2c0.7-2.3,1.2-4.7,1.3-7.2
			c1.7-0.5,3.2-1,4.3-1.4C505.7,658.8,506.6,656.4,505,656.9z M486.1,646.8c-0.1-0.6-0.1-1.4,0-2.2c1.8-0.1,3.3,0.8,3.2,4
			c0,0.3,0,0.5-0.1,0.8C487.9,649.5,486.6,649.1,486.1,646.8z M491.8,658c-2.6-1.4-2.1-3.9-1.3-6.5c2.5-0.2,4.9-0.2,6.5,3.4
			c0.6,1.3,0.9,2.7,1,4C495.7,659.2,493.5,659,491.8,658z"/>
		<path class="st7" d="M505,656.9c-1.3,0.5-2.9,1-4.6,1.4c-0.2-2.9-1.1-5.6-3.1-7.6c-1.3-1.3-2.8-2-4.5-2v2.7
			c1.6,0.2,3.1,0.9,4.2,3.3c0.6,1.3,0.9,2.7,1,4c-1.8,0.3-3.6,0.1-5.2-0.4v3.1c1.6,0.2,3.4,0,5.2-0.3c-0.1,2.2-0.7,4.3-1.3,6.3
			c-0.5,1.5,2.1,1.6,2.5,0.2c0.7-2.3,1.2-4.7,1.3-7.2c1.7-0.5,3.2-1,4.3-1.4C505.7,658.8,506.6,656.4,505,656.9z"/>
	</g>
</g>
</svg>
