<?xml version="1.0" encoding="utf-8"?>
<!-- Generator: Adobe Illustrator 21.0.2, SVG Export Plug-In . SVG Version: 6.00 Build 0)  -->
<svg version="1.1" id="Capa_1" xmlns="http://www.w3.org/2000/svg" xmlns:xlink="http://www.w3.org/1999/xlink" x="0px" y="0px"
	 viewBox="0 0 878 756" style="enable-background:new 0 0 878 756;" xml:space="preserve">
<style type="text/css">
	.st0{fill:#EEEEED;}
	.st1{fill:#A1E5E4;}
	.st2{fill:#CECECE;}
	.st3{fill:#80C4C2;}
	.st4{fill:none;stroke:#1E120D;stroke-miterlimit:10;}
	.st5{fill:#FFFFFF;}
	.st6{fill:#B2B2B2;}
	.st7{fill:#1E120D;}
	.st8{fill:#C57305;}
	.st9{fill:#995302;}
</style>
<g>
	<g>
		<g>
			<g>
				
					<rect x="0" y="1" transform="matrix(-1 -4.490553e-11 4.490553e-11 -1 861.0225 755.366)" class="st0" width="861" height="753.3"/>
			</g>
			<g>
				
					<rect x="697.5" y="30.6" transform="matrix(-1 -4.500990e-11 4.500990e-11 -1 1476.9941 214.0706)" class="st1" width="82" height="152.9"/>
			</g>
			<g>
				
					<rect x="0" y="0" transform="matrix(-1 -4.492507e-11 4.492507e-11 -1 434.6136 754.3317)" class="st2" width="434.6" height="754.3"/>
			</g>
			<g>
				
					<rect x="575.9" y="30.6" transform="matrix(-1 -4.497659e-11 4.497659e-11 -1 1233.76 214.0706)" class="st1" width="82" height="152.9"/>
			</g>
			<g>
				
					<rect x="454.3" y="30.6" transform="matrix(-1 -4.471013e-11 4.471013e-11 -1 990.5618 214.0706)" class="st1" width="82" height="152.9"/>
			</g>
			<g>
				
					<rect x="211" y="30.6" transform="matrix(-1 -4.471013e-11 4.471013e-11 -1 503.9934 214.0706)" class="st3" width="82" height="152.9"/>
			</g>
			<g>
				
					<rect x="89.4" y="30.6" transform="matrix(-1 -4.474344e-11 4.474344e-11 -1 260.7593 214.0706)" class="st3" width="82" height="152.9"/>
			</g>
			<g>
				
					<rect x="332.7" y="30.6" transform="matrix(-1 -4.471013e-11 4.471013e-11 -1 747.3277 214.0706)" class="st3" width="82" height="152.9"/>
			</g>
			<g>
				
					<rect x="697.5" y="212" transform="matrix(-1 -4.503210e-11 4.503210e-11 -1 1476.9941 576.8521)" class="st1" width="82" height="152.9"/>
			</g>
			<g>
				
					<rect x="575.9" y="212" transform="matrix(-1 -4.497659e-11 4.497659e-11 -1 1233.76 576.8521)" class="st1" width="82" height="152.9"/>
			</g>
			<g>
				
					<rect x="454.3" y="212" transform="matrix(-1 -4.502100e-11 4.502100e-11 -1 990.5618 576.8521)" class="st1" width="82" height="152.9"/>
			</g>
			<g>
				
					<rect x="211" y="212" transform="matrix(-1 -4.471013e-11 4.471013e-11 -1 503.9934 576.8521)" class="st3" width="82" height="152.9"/>
			</g>
			<g>
				
					<rect x="89.4" y="212" transform="matrix(-1 -4.471013e-11 4.471013e-11 -1 260.7593 576.8521)" class="st3" width="82" height="152.9"/>
			</g>
			<g>
				
					<rect x="332.7" y="212" transform="matrix(-1 -4.475454e-11 4.475454e-11 -1 747.3277 576.8521)" class="st3" width="82" height="152.9"/>
			</g>
			<g>
				
					<rect x="697.5" y="393.3" transform="matrix(-1 -4.497659e-11 4.497659e-11 -1 1476.9941 939.5426)" class="st1" width="82" height="152.9"/>
			</g>
			<g>
				
					<rect x="575.9" y="393.3" transform="matrix(-1 -4.502100e-11 4.502100e-11 -1 1233.76 939.5426)" class="st1" width="82" height="152.9"/>
			</g>
			<g>
				
					<rect x="454.3" y="393.3" transform="matrix(-1 -4.471013e-11 4.471013e-11 -1 990.5618 939.5426)" class="st1" width="82" height="152.9"/>
			</g>
			<g>
				
					<rect x="211" y="393.3" transform="matrix(-1 -4.475454e-11 4.475454e-11 -1 503.9934 939.5426)" class="st3" width="82" height="152.9"/>
			</g>
			<g>
				
					<rect x="89.4" y="393.3" transform="matrix(-1 -4.471013e-11 4.471013e-11 -1 260.7593 939.5426)" class="st3" width="82" height="152.9"/>
			</g>
			<g>
				
					<rect x="332.7" y="393.3" transform="matrix(-1 -4.471013e-11 4.471013e-11 -1 747.3277 939.5426)" class="st3" width="82" height="152.9"/>
			</g>
			<g>
				
					<rect x="697.5" y="574.8" transform="matrix(-1 -4.502100e-11 4.502100e-11 -1 1476.9941 1302.5883)" class="st1" width="82" height="152.9"/>
			</g>
			<g>
				
					<rect x="575.9" y="574.8" transform="matrix(-1 -4.497659e-11 4.497659e-11 -1 1233.76 1302.5883)" class="st1" width="82" height="152.9"/>
			</g>
			<g>
				
					<rect x="454.3" y="574.8" transform="matrix(-1 -4.504320e-11 4.504320e-11 -1 990.5618 1302.5883)" class="st1" width="82" height="152.9"/>
			</g>
			<g>
				
					<rect x="211" y="574.8" transform="matrix(-1 -4.466573e-11 4.466573e-11 -1 503.9934 1302.5883)" class="st3" width="82" height="152.9"/>
			</g>
			<g>
				
					<rect x="89.4" y="574.8" transform="matrix(-1 -4.471013e-11 4.471013e-11 -1 260.7593 1302.5883)" class="st3" width="82" height="152.9"/>
			</g>
			<g>
				
					<rect x="332.7" y="574.8" transform="matrix(-1 -4.475454e-11 4.475454e-11 -1 747.3277 1302.5883)" class="st3" width="82" height="152.9"/>
			</g>
		</g>
		<g>
			<g>
				<g>
					<path class="st4" d="M629.2,650.8"/>
				</g>
				<g>
					<path class="st5" d="M629.2,650.8l-598.9-0.7c-1,0-2.1-0.2-3.1-0.7c-4.1-1.9-13.4-11.7-15.2-19.3c-2.2-9.4-11.5-41.7,4.9-62.4
						c11.8-14.8,29.3-34.2,33.3-36.5c1-0.5,9.1-11,9.1-11c20.4-24.7,38.5-39.7,50.4-48c8.3-5.9,17.5-8.9,26.8-9l562.4-5.2
						c2.6,0,40.4-1.5,41.3-4.5c23.9-79.8,38.5-118.8,41.3-118.8c2.9,0,26.3-1.1,26.3-1.1l-5.3,214.4l12.9,0.3l0,47.3
						c0,0-42.2,34.4-109.9,53.1L629.2,650.8z"/>
					<path class="st6" d="M30.3,652.8c-1.3,0-2.5-0.3-3.7-0.8c-4.5-2.1-14.4-12.3-16.4-21.1l-0.5-2.1c-2.8-11.7-10.4-42.6,6-63.2
						c11.8-14.8,29.5-34.6,33.8-36.9c0.8-0.6,5-5.9,8.7-10.6c20.6-25,39-40.1,50.8-48.4c8.5-6,18-9.2,27.7-9.2l562.4-5.2
						c5.2,0,35.2-1.5,39.7-3.6c16.4-54.8,37.1-119.7,42.8-119.7c0,0,0,0,0,0c2.9,0,26-1.1,26.3-1.1l2.1-0.1l-5.3,214.6l12.8,0.3
						l0,51.6l-1,0.8c-0.4,0.3-43.3,34.9-110.8,53.5l-76.4,1.9h0L30.3,652.8z M813.6,551.1l-13-0.3l5.3-214.3
						c-5.6,0.3-20.4,0.9-23.9,1c-3.1,3.7-16,37.3-39.9,117.1c-1.7,5.8-41.4,6.2-43.1,6.2L136.7,466c-9,0.1-18,3.1-26,8.7
						c-11.6,8.1-29.7,23-50,47.6c-8.4,10.8-9.4,11.3-9.7,11.5c-3.5,1.9-20.4,20.4-32.7,36c-14.4,18.1-7.7,45.6-4.9,57.3l0.5,2.2
						c1.5,6.7,10.3,15.9,14,17.6c0.8,0.4,1.6,0.5,2.5,0.5l598.9,0.7l76-1.8c61-16.8,101.6-46.9,108.3-52.1L813.6,551.1z
						 M739.1,451.5"/>
				</g>
				<g>
					<path class="st7" d="M114.5,546.9c11.4,0,20.1-1.6,23.2-2.2c2.7-0.6,4.6-3.7,4.7-7.5l0.6-29.9c0.1-3.9-2.1-7.2-4.9-7.4
						c-42.9-3.3-49.2-7.6-49.4-7.7l-2.1,4.6c0.9,0.8,7.5,5.2,51.3,8.6c0.7,0.1,1.2,0.9,1.2,1.8l-0.6,29.9c0,1.2-0.6,2.1-1.4,2.2
						c-7.5,1.6-46.7,8.3-79.4-14.2l-1.7,4.9C76,543.7,98.1,546.9,114.5,546.9z"/>
				</g>
				<g>
					
						<rect x="676.5" y="531.3" transform="matrix(-1 -1.127593e-03 1.127593e-03 -1 1368.668 1086.2388)" class="st7" width="16.3" height="23"/>
				</g>
				<g>
					
						<rect x="643.9" y="531.2" transform="matrix(-1 -1.127593e-03 1.127593e-03 -1 1303.4271 1086.1051)" class="st7" width="16.3" height="23"/>
				</g>
				<g>
					
						<rect x="611.2" y="531.2" transform="matrix(-1 -1.127593e-03 1.127593e-03 -1 1238.1704 1085.9948)" class="st7" width="16.3" height="23"/>
				</g>
				<g>
					
						<rect x="578.6" y="531.1" transform="matrix(-1 -1.127593e-03 1.127593e-03 -1 1172.879 1085.8843)" class="st7" width="16.3" height="23"/>
				</g>
				<g>
					
						<rect x="545.9" y="531.1" transform="matrix(-1 -1.127593e-03 1.127593e-03 -1 1107.605 1085.7739)" class="st7" width="16.3" height="23"/>
				</g>
				<g>
					
						<rect x="513.3" y="531" transform="matrix(-1 -1.127593e-03 1.127593e-03 -1 1042.3152 1085.6403)" class="st7" width="16.3" height="23"/>
				</g>
				<g>
					
						<rect x="480.7" y="531" transform="matrix(-1 -1.127593e-03 1.127593e-03 -1 977.0267 1085.5763)" class="st7" width="16.3" height="23"/>
				</g>
				<g>
					
						<rect x="448" y="531" transform="matrix(-1 -1.127593e-03 1.127593e-03 -1 911.7692 1085.4659)" class="st7" width="16.3" height="23"/>
				</g>
				<g>
					
						<rect x="415.4" y="531" transform="matrix(-1 -1.127593e-03 1.127593e-03 -1 846.5124 1085.3556)" class="st7" width="16.3" height="23"/>
				</g>
				<g>
					
						<rect x="382.8" y="530.9" transform="matrix(-1 -1.127593e-03 1.127593e-03 -1 781.2376 1085.2219)" class="st7" width="16.3" height="23"/>
				</g>
				<g>
					
						<rect x="350.1" y="530.9" transform="matrix(-1 -1.127593e-03 1.127593e-03 -1 715.947 1085.1115)" class="st7" width="16.3" height="23"/>
				</g>
				<g>
					
						<rect x="317.5" y="530.8" transform="matrix(-1 -1.127593e-03 1.127593e-03 -1 650.6572 1085.001)" class="st7" width="16.3" height="23"/>
				</g>
				<g>
					
						<rect x="284.8" y="530.8" transform="matrix(-1 -1.127593e-03 1.127593e-03 -1 585.3813 1084.9105)" class="st7" width="16.3" height="23"/>
				</g>
				<g>
					
						<rect x="252.2" y="530.8" transform="matrix(-1 -1.127593e-03 1.127593e-03 -1 520.1404 1084.777)" class="st7" width="16.3" height="23"/>
				</g>
				<g>
					
						<rect x="219.6" y="530.7" transform="matrix(-1 -1.127593e-03 1.127593e-03 -1 454.8836 1084.6665)" class="st7" width="16.3" height="23"/>
				</g>
				<g>
					
						<rect x="186.9" y="530.7" transform="matrix(-1 -1.127593e-03 1.127593e-03 -1 389.5923 1084.5562)" class="st7" width="16.3" height="23"/>
				</g>
				<g>
					<path class="st5" d="M875.5,627.8l-24.4,14.5c-1.5,0.9-3.1,1.1-4.7,0.6l-161.5-49.6c-0.8-0.2-1-2.4-0.3-3.3
						c5.5-6.9,20.9-25.1,28-22c8,3.5,141.1,49.5,163,57C876.2,625.2,876.2,627.3,875.5,627.8z"/>
					<path class="st6" d="M846,645.6l-161.5-49.6c-1-0.3-1.9-1.5-2.2-3.1c-0.3-1.8,0-3.8,0.9-4.9c7.9-9.9,22.2-25.9,29.8-22.6
						c8.4,3.6,156.5,54.8,162.9,57c1.1,0.4,1.9,1.8,2,3.7c0.1,1.9-0.6,3.7-1.7,4.3l-24.4,14.5c-1.2,0.7-2.5,1.1-3.9,1.1
						C847.3,645.9,846.6,645.8,846,645.6z M711.9,570.5c-4-1.6-13.9,6.3-25.3,20.5l160.2,49.2c1.2,0.3,2.4,0.2,3.6-0.5l22-13.1
						C851.1,619.4,719.9,574,711.9,570.5z M685.3,590.6C685.3,590.6,685.3,590.6,685.3,590.6L685.3,590.6z"/>
				</g>
				<g>
					<path class="st5" d="M345.7,615.9c-17.4,0-26.9,18.1-26.9,42.6v0c0,24.5,14.2,44.6,31.7,44.6l46.3,0.1
						c17.4,0,31.7-20,31.7-44.6v0"/>
					<path class="st6" d="M396.7,706c8.9,0,17.4-4.9,23.7-13.9c6.4-9,9.9-20.8,9.9-33.4h-3.9c0,11.1-3.1,21.6-8.8,29.6
						c-5.6,7.9-13.1,12.3-21,12.3c0,0,0,0,0,0l-46.3-0.1c-7.9,0-15.4-4.4-21-12.3c-5.6-7.9-8.7-18.4-8.7-29.6
						c0-11.8,2.2-21.7,6.5-28.8c4.4-7.3,10.8-11.1,18.5-11.1c0,0,0,0,0,0v-5.5c0,0,0,0,0,0c-8.9,0-16.3,4.5-21.5,13.1
						c-4.8,8.1-7.4,19.2-7.4,32.3c0,12.6,3.5,24.5,9.9,33.4c6.4,9,14.8,13.9,23.8,13.9L396.7,706C396.7,706,396.7,706,396.7,706z"/>
				</g>
				<g>
					<path class="st5" d="M309.2,597l285,145c0,0,20.6-0.1,25.1-17.4c4.2-16.3,14.7-45,18.1-53.9c0.4-1.2,0.1-3-0.5-3.2l-12.2-3.4
						c-1.1-0.3-2.2,0.6-2.9,2.5l-15.1,36.8c-1,2.4-2.4,3.3-3.7,2.6L406.6,595.4c0,0-83.1-12.3-86-10.6S309.2,597,309.2,597z"/>
					<path class="st6" d="M305.4,598l2.5-3.1c0.9-1.1,8.9-10.8,12-12.6c2.9-1.8,55.7,5.7,86.9,10.3l0.3,0l196.5,110.7
						c0.6,0.3,1.2-1.2,1.3-1.4l15.1-36.8c1.2-2.9,3.1-4.3,5-3.8l12.2,3.4c0.8,0.2,1.5,1,1.9,2.2c0.5,1.5,0.5,3.5-0.1,4.9
						c-3.2,8.5-13.8,37.4-18,53.6c-4.9,18.8-26,19.2-26.9,19.2h-0.3L305.4,598z M624.2,666.8c-0.1,0-0.5,0.3-0.9,1.2l-15.1,36.8
						c-1.5,3.5-3.9,5-6.1,3.8L406.1,598.1c-32.3-4.8-81.3-11.5-84.7-10.7c-1.5,0.9-5.3,5-8.4,8.7l281.5,143.2
						c2.6-0.1,19.3-1.4,22.9-15.6c4.1-15.7,13.8-42.3,17.9-53.8L624.2,666.8z"/>
				</g>
			</g>
			<g>
				<g>
					<ellipse class="st5" cx="126.5" cy="719.1" rx="24.3" ry="34.2"/>
					<path class="st7" d="M100.3,719.1c0-20.3,11.8-36.9,26.2-36.9s26.2,16.6,26.2,36.9c0,20.3-11.8,36.9-26.2,36.9
						S100.3,739.4,100.3,719.1z M104.2,719.1c0,17.3,10,31.4,22.3,31.4s22.3-14.1,22.3-31.4c0-17.3-10-31.4-22.3-31.4
						S104.2,701.8,104.2,719.1z"/>
				</g>
				<g>
					
						<rect x="118" y="650.8" transform="matrix(-1 -4.505519e-11 4.505519e-11 -1 252.9895 1339.1792)" class="st7" width="17" height="37.6"/>
				</g>
			</g>
			<g>
				<g>
					<ellipse class="st5" cx="666.8" cy="719.1" rx="24.3" ry="34.2"/>
				</g>
			</g>
		</g>
		<g>
			<path class="st6" d="M875.5,625c0,0-24.1,12.9-82.2-8.5c-58-21.4-93.4-43.4-93.4-43.4s-14.4,14.4-14.4,17.5c0,3.2,5,5.3,5,5.3
				l78.5,23.8l78.7,24.5C847.6,644.1,874.9,630.6,875.5,625z"/>
		</g>
		<g>
			<path class="st6" d="M620.2,724.8c0,0-8.9,19.4-26,17.2L524,707l-112.9-58.3L310.7,597l10.4-14.3l85.5,12.7l28,15.5
				C434.6,610.9,515.5,732.4,620.2,724.8z"/>
		</g>
		<g>
			<path class="st6" d="M329.4,607c0,0-230.9,13.9-254-3.7c-23.1-17.6-35.6-47.3-25.7-68.7c0,0-35.6,34.3-37.6,44.5
				s-12.1,45,15.1,70.3l291.6,1.2c0,0-4-30.6,29.7-34.3s2.6-0.9,2.6-0.9L329.4,607z"/>
		</g>
	</g>
	
		<rect x="640.7" y="653.8" transform="matrix(-1 -4.490909e-11 4.490909e-11 -1 1367.2292 1408.1238)" class="st8" width="85.8" height="100.5"/>
	
		<rect x="729.4" y="681.3" transform="matrix(-1 -4.496948e-11 4.496948e-11 -1 1521.2197 1435.6317)" class="st8" width="62.3" height="73"/>
	
		<rect x="744.6" y="637.2" transform="matrix(-1 -4.441615e-11 4.441615e-11 -1 1526.8816 1318.5914)" class="st8" width="37.7" height="44.2"/>
	
		<rect x="792.3" y="710.1" transform="matrix(-1 -4.518797e-11 4.518797e-11 -1 1622.3604 1464.4506)" class="st8" width="37.7" height="44.2"/>
	
		<rect x="670.7" y="653.8" transform="matrix(-1 -4.543222e-11 4.543222e-11 -1 1367.2292 1330.2556)" class="st9" width="25.8" height="22.6"/>
	
		<rect x="747.7" y="681.3" transform="matrix(-1 -4.458535e-11 4.458535e-11 -1 1521.2197 1385.2452)" class="st9" width="25.8" height="22.6"/>
	
		<rect x="756.1" y="637.3" transform="matrix(-1 -4.570978e-11 4.570978e-11 -1 1526.8816 1287.4537)" class="st9" width="14.7" height="12.9"/>
	
		<rect x="803.8" y="710.1" transform="matrix(-1 -4.385660e-11 4.385660e-11 -1 1622.3604 1433.21)" class="st9" width="14.7" height="12.9"/>
	<g>
		<rect x="803.5" y="737.9" class="st5" width="14.7" height="11.9"/>
		
			<rect x="807.5" y="739.2" transform="matrix(-1 -4.408797e-11 4.408797e-11 -1 1624.7651 1479.7413)" class="st6" width="9.7" height="1.4"/>
		
			<rect x="804.7" y="741.8" transform="matrix(-1 -4.557211e-11 4.557211e-11 -1 1621.929 1484.9436)" class="st6" width="12.6" height="1.4"/>
		
			<rect x="804.7" y="747.6" transform="matrix(-1 -4.403290e-11 4.403290e-11 -1 1612.6194 1496.6742)" class="st6" width="3.3" height="1.4"/>
		
			<rect x="804.7" y="743.6" transform="matrix(-1 -4.557211e-11 4.557211e-11 -1 1621.929 1488.5138)" class="st6" width="12.6" height="1.4"/>
	</g>
	<g>
		<rect x="766.3" y="666.2" class="st5" width="14.7" height="11.9"/>
		
			<rect x="770.3" y="667.5" transform="matrix(-1 -4.483537e-11 4.483537e-11 -1 1550.3816 1336.3501)" class="st6" width="9.7" height="1.4"/>
		
			<rect x="767.5" y="670.1" transform="matrix(-1 -4.398050e-11 4.398050e-11 -1 1547.5454 1341.5524)" class="st6" width="12.6" height="1.4"/>
		
			<rect x="767.5" y="675.9" transform="matrix(-1 -4.403290e-11 4.403290e-11 -1 1538.2357 1353.2831)" class="st6" width="3.3" height="1.4"/>
		
			<rect x="767.5" y="671.9" transform="matrix(-1 -4.398050e-11 4.398050e-11 -1 1547.5454 1345.1226)" class="st6" width="12.6" height="1.4"/>
	</g>
	<g>
		<rect x="702.7" y="663.1" class="st5" width="14.7" height="11.9"/>
		
			<rect x="706.7" y="664.4" transform="matrix(-1 -4.427493e-11 4.427493e-11 -1 1423.1989 1330.2782)" class="st6" width="9.7" height="1.4"/>
		
			<rect x="703.9" y="667" transform="matrix(-1 -4.557211e-11 4.557211e-11 -1 1420.3627 1335.4805)" class="st6" width="12.6" height="1.4"/>
		
			<rect x="703.9" y="672.9" transform="matrix(-1 -5.127866e-11 5.127866e-11 -1 1411.0531 1347.2111)" class="st6" width="3.3" height="1.4"/>
		
			<rect x="703.9" y="668.8" transform="matrix(-1 -4.586121e-11 4.586121e-11 -1 1420.3627 1339.0507)" class="st6" width="12.6" height="1.4"/>
	</g>
	<g>
		<rect x="733.2" y="706.1" class="st5" width="14.7" height="11.9"/>
		
			<rect x="737.3" y="707.4" transform="matrix(-1 -4.427493e-11 4.427493e-11 -1 1484.2997 1416.2195)" class="st6" width="9.7" height="1.4"/>
		
			<rect x="734.4" y="710" transform="matrix(-1 -4.398050e-11 4.398050e-11 -1 1481.4635 1421.4218)" class="st6" width="12.6" height="1.4"/>
		
			<rect x="734.4" y="715.9" transform="matrix(-1 -4.403290e-11 4.403290e-11 -1 1472.1539 1433.1523)" class="st6" width="3.3" height="1.4"/>
		
			<rect x="734.4" y="711.8" transform="matrix(-1 -4.354662e-11 4.354662e-11 -1 1481.4635 1424.9919)" class="st6" width="12.6" height="1.4"/>
	</g>
</g>
</svg>
