<?xml version="1.0" encoding="utf-8"?>
<!-- Generator: Adobe Illustrator 21.0.2, SVG Export Plug-In . SVG Version: 6.00 Build 0)  -->
<svg version="1.1" id="Capa_1" xmlns="http://www.w3.org/2000/svg" xmlns:xlink="http://www.w3.org/1999/xlink" x="0px" y="0px"
	 viewBox="0 0 863.2 866" style="enable-background:new 0 0 863.2 866;" xml:space="preserve">
<style type="text/css">
	.st0{fill:#B2B2B2;}
	.st1{fill:#D8D8D8;}
	.st2{fill:#FFFFFF;}
	.st3{fill:#A1E5E4;}
	.st4{fill:#1E120D;}
	.st5{fill:#FFFFFF;stroke:#1E120D;stroke-width:0.25;stroke-miterlimit:10;}
	.st6{fill:none;stroke:#1E120D;stroke-width:0.25;stroke-miterlimit:10;}
	.st7{fill:#A0A0A0;}
	.st8{fill:#80C4C2;}
	.st9{fill:#EEEEEE;}
</style>
<g>
	<g>
		<g>
			<g>
				<rect x="1" y="1.6" class="st0" width="862.2" height="862.2"/>
			</g>
			<g>
				<rect x="0.8" y="1.3" class="st1" width="92.1" height="862.4"/>
			</g>
			<g>
				<rect x="770.2" y="1.3" class="st1" width="92.1" height="862.4"/>
			</g>
			<g>
				
					<rect x="385.2" y="-384.7" transform="matrix(-1.836970e-16 1 -1 -1.836970e-16 477.729 -384.6814)" class="st1" width="92.1" height="862.4"/>
			</g>
			<g>
				<rect x="259.6" y="243.5" class="st2" width="343.2" height="139.6"/>
			</g>
			<g>
				<rect x="250.4" y="502.4" class="st3" width="361.5" height="361.5"/>
			</g>
			<g>
				<rect x="213.4" y="501.8" class="st1" width="37.1" height="362.1"/>
			</g>
			<g>
				<rect x="611.4" y="501.8" class="st1" width="37.1" height="362.1"/>
			</g>
			<g>
				
					<rect x="412.2" y="266.6" transform="matrix(-1.836970e-16 1 -1 -1.836970e-16 914.9537 53.5041)" class="st1" width="37.1" height="435.3"/>
			</g>
			<g>
				<line class="st2" x1="431.2" y1="502.8" x2="431.2" y2="863.9"/>
				<rect x="427.7" y="502.8" class="st4" width="7.1" height="361.1"/>
			</g>
			<g>
				<g>
					<path d="M394,277.5V365h-9.3v-87.5h-18.4v-8.1h46.2v8.1H394z"/>
				</g>
				<g>
					<path d="M468.5,365h-12.3l-23.6-95.6h10.3l19.7,84.9h0.3l19.7-84.9h10L468.5,365z"/>
				</g>
			</g>
		</g>
		<g>
			<rect x="192.8" y="94.2" class="st4" width="1.8" height="771.8"/>
		</g>
		<g>
			<rect x="669.3" y="92.4" class="st4" width="1.8" height="771.8"/>
		</g>
		<g>
			<rect x="95.5" y="181.4" class="st4" width="677" height="1.8"/>
		</g>
		<g>
			<path class="st5" d="M303.5,864.5"/>
		</g>
		<g>
			<path class="st5" d="M303.5,465.7"/>
		</g>
		<g>
			<line class="st2" x1="303.5" y1="383.1" x2="303.5" y2="465.7"/>
			<rect x="302.6" y="383.1" class="st4" width="1.8" height="82.6"/>
		</g>
		<g>
			<line class="st2" x1="303.5" y1="93.1" x2="303.5" y2="243.1"/>
			<rect x="302.6" y="93.1" class="st4" width="1.8" height="150.1"/>
		</g>
		<g>
			<rect x="602.6" y="272.9" class="st4" width="170.1" height="1.8"/>
		</g>
		<g>
			<path class="st6" d="M602.6,273.8"/>
		</g>
		<g>
			<path class="st6" d="M259.2,273.8"/>
		</g>
		<g>
			<rect x="95.7" y="272.9" class="st4" width="163.5" height="1.8"/>
		</g>
		<g>
			<line class="st2" x1="602.6" y1="365.8" x2="772.1" y2="365.8"/>
			<rect x="602.6" y="364.9" class="st4" width="169.4" height="1.8"/>
		</g>
		<g>
			<path class="st5" d="M602.6,365.8"/>
		</g>
		<g>
			<path class="st5" d="M259.5,365.8"/>
		</g>
		<g>
			<line class="st2" x1="95.8" y1="365.8" x2="259.5" y2="365.8"/>
			<rect x="95.8" y="364.9" class="st4" width="163.7" height="1.8"/>
		</g>
		<g>
			<line class="st2" x1="648.4" y1="641" x2="772.1" y2="641"/>
			<rect x="648.4" y="640.1" class="st4" width="123.6" height="1.8"/>
		</g>
		<g>
			<path class="st5" d="M648.4,641"/>
		</g>
		<g>
			<path class="st5" d="M211.9,641"/>
		</g>
		<g>
			<line class="st2" x1="95.8" y1="641" x2="211.9" y2="641"/>
			<rect x="95.8" y="640.1" class="st4" width="116.1" height="1.8"/>
		</g>
		<g>
			<line class="st2" x1="648.3" y1="550.6" x2="771.3" y2="550.6"/>
			<rect x="648.3" y="549.7" class="st4" width="122.9" height="1.8"/>
		</g>
		<g>
			<path class="st5" d="M648.3,550.6"/>
		</g>
		<g>
			<path class="st5" d="M211.6,550.6"/>
		</g>
		<g>
			<line class="st2" x1="95" y1="550.6" x2="211.6" y2="550.6"/>
			<rect x="95" y="549.7" class="st4" width="116.6" height="1.8"/>
		</g>
		<g>
			<line class="st2" x1="95.8" y1="457.5" x2="772.1" y2="457.5"/>
			<rect x="95.8" y="456.6" class="st4" width="676.2" height="1.8"/>
		</g>
		<g>
			<line class="st2" x1="648.4" y1="733.3" x2="772.1" y2="733.3"/>
			<rect x="648.4" y="732.4" class="st4" width="123.6" height="1.8"/>
		</g>
		<g>
			<path class="st5" d="M648.4,733.3"/>
		</g>
		<g>
			<path class="st5" d="M211.4,733.3"/>
		</g>
		<g>
			<line class="st2" x1="95.8" y1="733.3" x2="211.4" y2="733.3"/>
			<rect x="95.8" y="732.4" class="st4" width="115.6" height="1.8"/>
		</g>
		<g>
			<line class="st2" x1="648.4" y1="825.2" x2="772.1" y2="825.2"/>
			<rect x="648.4" y="824.3" class="st4" width="123.6" height="1.8"/>
		</g>
		<g>
			<path class="st5" d="M648.4,825.2"/>
		</g>
		<g>
			<path class="st5" d="M211.9,825.2"/>
		</g>
		<g>
			<line class="st2" x1="95.8" y1="825.2" x2="211.9" y2="825.2"/>
			<rect x="95.8" y="824.3" class="st4" width="116.1" height="1.8"/>
		</g>
		<g>
			<path class="st6" d="M395.5,828.1"/>
		</g>
		<g>
			<path class="st6" d="M395.5,465.7"/>
		</g>
		<g>
			<rect x="394.6" y="383.4" class="st4" width="1.8" height="82.3"/>
		</g>
		<g>
			<rect x="394.6" y="93.4" class="st4" width="1.8" height="149.8"/>
		</g>
		<g>
			<rect x="485.7" y="383.4" class="st4" width="1.8" height="82.3"/>
		</g>
		<g>
			<rect x="485.7" y="93.4" class="st4" width="1.8" height="150.1"/>
		</g>
		<g>
			<rect x="577.3" y="383.1" class="st4" width="1.8" height="82.6"/>
		</g>
		<g>
			<rect x="577.3" y="93.4" class="st4" width="1.8" height="149.8"/>
		</g>
	</g>
	<g>
		<g>
			<rect x="428.8" class="st7" width="434.2" height="862.5"/>
		</g>
		<g>
			<rect x="770.2" y="1.3" class="st0" width="92.1" height="862.4"/>
		</g>
		<g>
			<rect x="427.5" y="502.6" class="st8" width="184.5" height="361.3"/>
		</g>
		<g>
			<rect x="611.4" y="501.8" class="st0" width="37.1" height="362.1"/>
		</g>
		<g>
			<line class="st2" x1="431.2" y1="502.8" x2="431.2" y2="863.9"/>
			<rect x="427.6" y="502.8" class="st4" width="7.1" height="361.1"/>
		</g>
		<g>
			<rect x="669.3" y="92.3" class="st4" width="1.8" height="771.9"/>
		</g>
		<g>
			<rect x="428.8" y="181.4" class="st4" width="343.7" height="1.8"/>
		</g>
		<g>
			<rect x="602.6" y="272.9" class="st4" width="170.1" height="1.8"/>
		</g>
		<g>
			<path class="st6" d="M602.6,273.8"/>
		</g>
		<g>
			<line class="st2" x1="602.6" y1="365.7" x2="772" y2="365.7"/>
			<rect x="602.6" y="364.9" class="st4" width="169.4" height="1.8"/>
		</g>
		<g>
			<path class="st5" d="M602.6,365.7"/>
		</g>
		<g>
			<line class="st2" x1="648.4" y1="641" x2="772" y2="641"/>
			<rect x="648.4" y="640.1" class="st4" width="123.6" height="1.8"/>
		</g>
		<g>
			<path class="st5" d="M648.4,641"/>
		</g>
		<g>
			<rect x="428.8" y="243.5" class="st9" width="174" height="139.6"/>
		</g>
		<g>
			<line class="st2" x1="648.3" y1="550.6" x2="771.3" y2="550.6"/>
			<rect x="648.3" y="549.7" class="st4" width="122.9" height="1.8"/>
		</g>
		<g>
			<path class="st5" d="M648.3,550.6"/>
		</g>
		<g>
			<line class="st2" x1="429" y1="457.5" x2="772.3" y2="457.5"/>
			<rect x="429" y="456.6" class="st4" width="343.3" height="1.8"/>
		</g>
		<g>
			<line class="st2" x1="648.4" y1="733.3" x2="772" y2="733.3"/>
			<rect x="648.4" y="732.4" class="st4" width="123.6" height="1.8"/>
		</g>
		<g>
			<path class="st5" d="M648.4,733.3"/>
		</g>
		<g>
			<line class="st2" x1="648.4" y1="825.2" x2="772" y2="825.2"/>
			<rect x="648.4" y="824.3" class="st4" width="123.6" height="1.8"/>
		</g>
		<g>
			<path class="st5" d="M648.4,825.2"/>
		</g>
		<g>
			<path class="st6" d="M395.5,828.1"/>
		</g>
		<g>
			<path class="st6" d="M395.5,465.7"/>
		</g>
		<g>
			<rect x="485.6" y="383.4" class="st4" width="1.8" height="82.3"/>
		</g>
		<g>
			<rect x="485.6" y="93.3" class="st4" width="1.8" height="150.1"/>
		</g>
		<g>
			<rect x="577.2" y="383.1" class="st4" width="1.8" height="82.6"/>
		</g>
		<g>
			<rect x="577.2" y="93.3" class="st4" width="1.8" height="149.8"/>
		</g>
		<g>
			<rect x="428.9" y="0.5" class="st0" width="433.4" height="92.1"/>
		</g>
		<g>
			<rect x="428.7" y="465.7" class="st0" width="219.7" height="37.1"/>
		</g>
		<g>
			<g>
				<path d="M394,277.5V365h-9.3v-87.5h-18.4v-8.1h46.2v8.1H394z"/>
			</g>
			<g>
				<path d="M468.5,365h-12.3l-23.6-95.6h10.3l19.7,84.9h0.3l19.7-84.9h10L468.5,365z"/>
			</g>
		</g>
	</g>
</g>
</svg>
