<?xml version="1.0" encoding="utf-8"?>
<!-- Generator: Adobe Illustrator 21.0.2, SVG Export Plug-In . SVG Version: 6.00 Build 0)  -->
<svg version="1.1" id="Capa_1" xmlns="http://www.w3.org/2000/svg" xmlns:xlink="http://www.w3.org/1999/xlink" x="0px" y="0px"
	 viewBox="0 0 623.4 880.2" style="enable-background:new 0 0 623.4 880.2;" xml:space="preserve">
<style type="text/css">
	.st0{fill:#EEEEED;}
	.st1{fill:#CECECE;}
	.st2{fill:#A1E5E4;}
	.st3{fill:#80C4C2;}
	.st4{fill:#FFFFFF;}
	.st5{fill:#B2B2B2;}
	.st6{fill:#EEEEEE;}
	.st7{fill:#D8D8D8;}
	.st8{fill:#737277;}
</style>
<g>
	<g>
		<rect class="st0" width="623.4" height="880.2"/>
	</g>
	<rect x="311.7" class="st1" width="311.6" height="880.2"/>
	<rect x="206.6" y="643.7" class="st2" width="105.2" height="236.5"/>
	<rect x="311.4" y="643.7" class="st3" width="105.2" height="236.5"/>
	<rect x="36.7" y="489.6" class="st2" width="238.4" height="94.6"/>
	<rect x="36.7" y="333.8" class="st2" width="238.4" height="94.6"/>
	<rect x="348.4" y="489.6" class="st3" width="238.4" height="94.6"/>
	<rect x="348.4" y="333.8" class="st3" width="238.4" height="94.6"/>
	<rect x="36.6" y="54.9" class="st2" width="76.9" height="76.9"/>
	<rect x="198.3" y="54.9" class="st2" width="76.9" height="76.9"/>
	<rect x="348.4" y="54.9" class="st3" width="76.9" height="76.9"/>
	<rect x="510" y="54.9" class="st3" width="76.9" height="76.9"/>
	<rect x="190.6" y="166.7" class="st4" width="242.8" height="131.3"/>
	<path class="st1" d="M187.5,695.4v10.4h-2.2v-10.4h-11.8v10.4h-11.9v-10.4h-11.8v10.4h-11.9v-10.4H126v10.4h-11.9v-10.4h-11.8v10.4
		H90.3v-10.4H78.5v10.4H66.6v-10.4H54.8v10.4H42.8v-10.4H31v10.4H19.1v-10.4h-19v184.7h19v-10.3H31v10.3h11.8v-10.3h11.9v10.3h11.8
		v-10.3h11.9v10.3h11.8v-10.3h11.9v10.3h11.8v-10.3H126v10.3h11.8v-10.3h11.9v10.3h11.8v-10.3h11.9v10.3h11.8v-10.3h2.2v10.3h19
		V695.4H187.5z M19.1,753.3H31v68.9H19.1V753.3z M42.8,753.3h11.9v68.9H42.8V753.3z M66.6,753.3h11.9v68.9H66.6V753.3z M90.3,753.3
		h11.9v68.9H90.3V753.3z M114.1,753.3H126v68.9h-11.9V753.3z M137.8,753.3h11.9v68.9h-11.9V753.3z M161.6,753.3h11.9v68.9h-11.9
		V753.3z M185.3,753.3h2.2v68.9h-2.2V753.3z M187.5,717.7v23.8h-2.2v-23.8H187.5z M173.5,717.7v23.8h-11.9v-23.8H173.5z
		 M149.8,717.7v23.8h-11.9v-23.8H149.8z M126,717.7v23.8h-11.9v-23.8H126z M102.2,717.7v23.8H90.3v-23.8H102.2z M78.5,717.7v23.8
		H66.6v-23.8H78.5z M54.8,717.7v23.8H42.8v-23.8H54.8z M31,717.7v23.8H19.1v-23.8H31z M19.1,858v-23.9H31V858H19.1z M42.8,858v-23.9
		h11.9V858H42.8z M66.6,858v-23.9h11.9V858H66.6z M90.3,858v-23.9h11.9V858H90.3z M114.1,858v-23.9H126V858H114.1z M137.8,858v-23.9
		h11.9V858H137.8z M161.6,858v-23.9h11.9V858H161.6z M185.3,858v-23.9h2.2V858H185.3z"/>
	<path class="st5" d="M604.1,695.5v10.4h-11.8v-10.4h-11.8v10.4h-11.8v-10.4h-11.8v10.4H545v-10.4h-11.8v10.4h-11.8v-10.4h-11.8
		v10.4h-11.8v-10.4h-11.8v10.4H474v-10.4h-11.8v10.4h-11.9v-10.4h-11.8v10.4h-2.9v-10.4h-19v184.7h19v-10.3h2.9v10.3h11.8v-10.3
		h11.9v10.3H474v-10.3h11.8v10.3h11.8v-10.3h11.8v10.3h11.8v-10.3h11.8v10.3H545v-10.3h11.9v10.3h11.8v-10.3h11.8v10.3h11.8v-10.3
		h11.8v10.3h19V695.5H604.1z M435.6,753.3h2.9v68.9h-2.9V753.3z M450.3,753.3h11.9v68.9h-11.9V753.3z M474,753.3h11.8v68.9H474
		V753.3z M497.6,753.3h11.8v68.9h-11.8V753.3z M521.3,753.3h11.8v68.9h-11.8V753.3z M545,753.3h11.9v68.9H545V753.3z M568.6,753.3
		h11.8v68.9h-11.8V753.3z M592.3,753.3h11.8v68.9h-11.8V753.3z M604.1,717.7v23.8h-11.8v-23.8H604.1z M580.5,717.7v23.8h-11.8v-23.8
		H580.5z M556.8,717.7v23.8H545v-23.8H556.8z M533.1,717.7v23.8h-11.8v-23.8H533.1z M509.5,717.7v23.8h-11.8v-23.8H509.5z
		 M485.8,717.7v23.8H474v-23.8H485.8z M462.2,717.7v23.8h-11.9v-23.8H462.2z M438.5,717.7v23.8h-2.9v-23.8H438.5z M435.6,858v-23.9
		h2.9V858H435.6z M450.3,858v-23.9h11.9V858H450.3z M474,858v-23.9h11.8V858H474z M497.6,858v-23.9h11.8V858H497.6z M521.3,858
		v-23.9h11.8V858H521.3z M545,858v-23.9h11.9V858H545z M568.6,858v-23.9h11.8V858H568.6z M592.3,858v-23.9h11.8V858H592.3z"/>
	<g>
		<g>
			<path class="st5" d="M242.7,246.4c2.4-0.6,4.7-1.7,6.5-3.5c0.8-0.9,1.5-2.5,2.4-3.1c1.5-1,0.3-3.2-1.2-2.3
				c-1.1,0.7-1.8,1.7-2.6,2.7c-1.5,1.9-3.5,2.9-5.8,3.5C240.3,244.2,241,246.9,242.7,246.4L242.7,246.4z"/>
		</g>
		<g>
			<path class="st5" d="M242.5,242.2c9.7-5.5,19.5-15.3,31.7-9.8c17,7.7,6.3,25.5-3.6,33.8c-1.4,1.2,0.6,3.1,2,2
				c9.8-8.3,20.1-23.7,8.5-35.3c-4.1-4.2-12.2-5.1-17.8-4.4c-9,1-14.7,7-22.2,11.3C239.5,240.7,240.9,243.1,242.5,242.2L242.5,242.2
				z"/>
		</g>
		<g>
			<path class="st5" d="M241.2,238.5c3.1-1.5,6.2-3.1,8.7-5.6c1.1-1.1,1.9-3.1,3.1-3.9c2.8-2,5.6-0.6,8.6-0.8c1.8-0.1,1.8-2.9,0-2.8
				c-4.3,0.3-7.1-2-10.6,1.6c-1.4,1.5-2.4,3.4-4,4.8c-2.1,1.9-4.7,3.1-7.2,4.4C238.2,236.9,239.6,239.3,241.2,238.5L241.2,238.5z"/>
		</g>
		<g>
			<path class="st5" d="M267.4,229.8c3.4-4.8,9.4-2.2,12.9,0.7c1.4,1.1,3.2-0.4,1.8-1.6c-2.9-2.4-6-5.1-9.9-4.7
				c-2.7,0.3-5.7,1.9-7.2,4.1C263.9,229.9,266.3,231.3,267.4,229.8L267.4,229.8z"/>
		</g>
		<g>
			<path class="st5" d="M246.4,229.6c7-5.8,13.1-8.5,22.2-6.9c4.7,0.8,9,1.9,13.3,4.4c13.6,8.1,9.4,27.5,2.5,38.3
				c-1,1.5,1.4,2.9,2.4,1.4c7.4-11.6,11.3-30.5-1.3-40.6c-5.7-4.6-15.2-5.6-22.1-6.4c-7.7-0.9-13.2,3-19,7.7
				C243,228.7,245,230.7,246.4,229.6L246.4,229.6z"/>
		</g>
		<g>
			<path class="st5" d="M282.2,265.7c7.3-9,11.7-24.7,2.7-34.2c-1.2-1.3-3.2,0.7-2,2c7.8,8.3,3.6,22.5-2.7,30.2
				C279.1,265.1,281.1,267.1,282.2,265.7L282.2,265.7z"/>
		</g>
		<g>
			<path class="st5" d="M292,264.8c4.1-9.7,7.7-21.4,3.3-31.5c-4.6-10.4-13.1-16.7-24.8-16.1c-1.8,0.1-1.8,2.9,0,2.8
				c10.4-0.5,18.6,5.2,22.4,14.7c3.7,9.4,0.5,19.8-3.3,28.7C288.9,265,291.3,266.4,292,264.8L292,264.8z"/>
		</g>
		<g>
			<path class="st5" d="M276.5,214.4c-2.1-0.2-4.1,0-6.1,0.2c-2.9,0.3-5.4,1.6-8.2,2.3c-4.4,1.2-8.7,0-12.3,3.1
				c-1.4,1.2,0.6,3.1,2,2c3.1-2.6,8.6-2,12.5-3.4c1.2-0.4,4.4-1.4,5.2-1.6c2.2-0.5,4.8-0.1,7,0.2
				C278.3,217.3,278.3,214.5,276.5,214.4L276.5,214.4z"/>
		</g>
		<g>
			<path class="st5" d="M258.5,216.8c1.5-1.5,4-1.6,6-1.6c1.8-0.1,1.8-2.8,0-2.8c-2.8,0.1-5.8,0.4-8,2.5
				C255.3,216.1,257.2,218.1,258.5,216.8L258.5,216.8z"/>
		</g>
		<g>
			<path class="st5" d="M264.8,211.8c2.5-0.2,5.2-0.7,7.7-0.6c1.8,0,1.7-2.3-0.1-2.3c-2.5-0.1-5.1,0-7.6,0.1
				C263.1,209.1,263,211.9,264.8,211.8L264.8,211.8z"/>
		</g>
		<g>
			<path class="st5" d="M271.3,214.1c2.7,0.2,5.1-0.3,7.6,0.8c2.4,1.1,3.5,3,5.5,4.6c4.3,3.4,8.4,5.2,9.9,11c0.4,1.7,3.1,1,2.7-0.7
				c-0.6-2.6-1.7-5-3.5-7.1c-2.3-2.7-5.7-3.8-8.3-6.2c-1.7-1.6-2.9-3.6-5.1-4.6c-2.8-1.2-5.9-0.4-8.8-0.6
				C269.6,211.2,269.6,213.9,271.3,214.1L271.3,214.1z"/>
		</g>
		<g>
			<path class="st5" d="M281.4,212c1.9,0.4,3.8,1.1,5.6,2c1.6,0.8,3-1.6,1.4-2.4c-2-1-4-1.8-6.2-2.3
				C280.4,208.9,279.6,211.6,281.4,212L281.4,212z"/>
		</g>
		<g>
			<path class="st5" d="M289.2,216.3c7.2,3,8.9,11.7,9,18.5c0,4.1,0.9,8.2-0.2,12.2c-0.4,1.7,2.3,2.5,2.7,0.7
				c0.7-2.9,0.6-5.3,0.5-8.3c-0.2-4.8,0.5-8.2-1-12.8c-1.9-5.7-4.5-10.6-10.2-13.1C288.3,212.9,287.6,215.6,289.2,216.3L289.2,216.3
				z"/>
		</g>
		<g>
			<path class="st5" d="M250.1,257.2c2.3-0.3,4.6-0.6,6.6-1.9c2-1.3,3.2-3.5,5.2-4.8c0.4-0.3,4-2.2,4.5-1.8
				c-0.8-0.6-1.9,1.5-2.3,1.9c-1.7,1.8-3.7,5.3-6.1,6.1c-1.7,0.6-1,3.3,0.7,2.7c3.3-1.1,5-4.4,7.3-6.8c1.2-1.3,4-4.3,2.5-6.3
				c-1.5-1.9-5.5,0.5-7.2,1.3c-1.5,0.8-2.7,1.8-3.9,3c-2.2,2.4-4.1,3.4-7.4,3.8C248.3,254.6,248.3,257.4,250.1,257.2L250.1,257.2z"
				/>
		</g>
		<g>
			<path class="st5" d="M257.2,263.6c5.7-1.5,8.9-5.8,12.7-9.9c2.2-2.4,5.3-5,3.3-8.5c-5.3-9-21.1,3.8-26.1,6.8
				c-1.5,0.9-0.1,3.3,1.4,2.4c2.7-1.6,5.5-3.3,8.2-4.9c2.1-1.3,8.2-5.3,10.8-4.7c1.5,0.5,3.9,1,2.5,4.7c-0.5,0.5-1,1-1.4,1.5
				c-1,1.1-1.9,2.2-2.9,3.3c-2.6,2.9-5.2,5.5-9.2,6.6C254.7,261.3,255.4,264,257.2,263.6L257.2,263.6z"/>
		</g>
		<g>
			<path class="st5" d="M246.4,250.2c6.9-3.8,9.5-12.2,16.9-14.6c6.2-2,14.2,1.1,15.4,8.1c0.8,4.8-4.1,11.4-6.3,15.5
				c-0.8,1.6,1.6,3,2.4,1.4c2.5-4.7,7.2-10.5,6.8-16.1c-0.3-4.4-3.4-8.8-7.2-10.8c-5.1-2.7-11.3-1.6-16.2,0.8
				c-1.9,0.9-3.2,1.8-4.4,3.6c-2.9,4.2-3.8,7-8.8,9.7C243.5,248.6,244.9,251,246.4,250.2L246.4,250.2z"/>
		</g>
		<g>
			<path class="st5" d="M268.2,262c-1.1,1-2.1,2-3.2,3c-1.3,1.2,0.7,3.2,2,2c1.1-1,2.1-2,3.2-3C271.5,262.7,269.5,260.8,268.2,262
				L268.2,262z"/>
		</g>
		<g>
			<path class="st5" d="M261.9,241.1c1.1-1,2.4-1.8,3.8-1.8c0.7,0,3.6,0,3.9,0.7c0.7,1.6,3.1,0.2,2.4-1.4c-1.1-2.5-3.8-2-5.9-1.8
				c-2.5,0.2-4.4,0.6-6.3,2.4C258.6,240.4,260.6,242.4,261.9,241.1L261.9,241.1z"/>
		</g>
		<g>
			<path class="st5" d="M273.3,243.3c0.5,1.1,0.7,2.3,0.8,3.5c0.1,1.8,2.9,1.8,2.8,0c-0.1-1.7-0.5-3.3-1.2-4.9
				c-0.3-0.7-1.3-0.8-1.9-0.5C273.1,241.8,273,242.6,273.3,243.3L273.3,243.3z"/>
		</g>
	</g>
	<path class="st1" d="M312.6,174c-28.4-16.5-65-6.1-80.3,23.5c-13.7,26.4-4.5,59.7,20.7,75.4c25,15.6,56.9,9.7,75-12.1l66.1,38.4
		c3,1.7,6.8,0.7,8.5-2.3l3.4-5.8c1.7-3,0.7-6.8-2.3-8.5l-66.1-38.4C347.4,218.3,337.3,188.4,312.6,174z M320.2,245.2
		c-11.6,20-37.2,26.8-57.2,15.2c-20-11.6-26.8-37.2-15.2-57.2c11.6-20,37.2-26.8,57.2-15.2C325,199.6,331.8,225.2,320.2,245.2z"/>
	<rect x="312" y="166.8" class="st6" width="121.3" height="131.3"/>
	<path class="st5" d="M403.7,282.6l-66.1-38.4c9.8-25.9-0.2-55.8-25-70.2c-0.2-0.1-0.4-0.2-0.6-0.3V193c14.4,13,18.3,34.7,8.2,52.1
		c-2.2,3.9-5,7.2-8.2,10.1v18.9c6-3.4,11.4-7.9,16-13.4l66.1,38.4c3,1.7,6.8,0.7,8.5-2.3l3.4-5.8
		C407.7,288.1,406.7,284.3,403.7,282.6z"/>
	<g>
		<g>
			<path class="st5" d="M235.9,713.5c1.6-0.4,3.2-1.1,4.3-2.4c0.5-0.6,1-1.7,1.6-2.1c1-0.7,0.2-2.2-0.8-1.5
				c-0.7,0.5-1.2,1.2-1.7,1.8c-1,1.3-2.4,1.9-3.9,2.3C234.2,712,234.7,713.8,235.9,713.5L235.9,713.5z"/>
		</g>
		<g>
			<path class="st5" d="M235.7,710.6c6.5-3.7,13.1-10.3,21.3-6.5c11.4,5.2,4.3,17.1-2.4,22.7c-0.9,0.8,0.4,2.1,1.3,1.3
				c6.6-5.5,13.5-15.9,5.7-23.7c-2.8-2.8-8.2-3.4-12-3c-6,0.7-9.9,4.7-14.9,7.6C233.7,709.6,234.6,711.2,235.7,710.6L235.7,710.6z"
				/>
		</g>
		<g>
			<path class="st5" d="M234.8,708.2c2.1-1,4.2-2.1,5.8-3.8c0.7-0.8,1.3-2.1,2.1-2.6c1.9-1.3,3.8-0.4,5.8-0.5c1.2-0.1,1.2-1.9,0-1.9
				c-2.9,0.2-4.8-1.3-7.1,1.1c-1,1-1.6,2.3-2.7,3.2c-1.4,1.2-3.2,2.1-4.8,2.9C232.8,707.1,233.7,708.7,234.8,708.2L234.8,708.2z"/>
		</g>
		<g>
			<path class="st5" d="M252.4,702.3c2.3-3.3,6.3-1.5,8.7,0.5c0.9,0.8,2.2-0.3,1.2-1.1c-1.9-1.6-4-3.4-6.6-3.1
				c-1.8,0.2-3.8,1.3-4.9,2.8C250.1,702.4,251.7,703.3,252.4,702.3L252.4,702.3z"/>
		</g>
		<g>
			<path class="st5" d="M238.3,702.2c4.7-3.9,8.8-5.7,14.9-4.6c3.2,0.6,6,1.3,8.9,3c9.2,5.4,6.3,18.5,1.7,25.7c-0.7,1,1,2,1.6,0.9
				c5-7.8,7.6-20.5-0.9-27.2c-3.8-3.1-10.2-3.8-14.9-4.3c-5.2-0.6-8.9,2-12.7,5.2C236,701.6,237.4,702.9,238.3,702.2L238.3,702.2z"
				/>
		</g>
		<g>
			<path class="st5" d="M262.4,726.4c4.9-6.1,7.8-16.6,1.8-23c-0.8-0.9-2.2,0.4-1.3,1.3c5.3,5.6,2.4,15.1-1.8,20.3
				C260.3,726,261.6,727.3,262.4,726.4L262.4,726.4z"/>
		</g>
		<g>
			<path class="st5" d="M268.9,725.8c2.8-6.5,5.2-14.3,2.2-21.1c-3.1-7-8.8-11.2-16.6-10.8c-1.2,0.1-1.2,1.9,0,1.9
				c7-0.4,12.5,3.5,15,9.9c2.5,6.3,0.3,13.3-2.2,19.2C266.8,726,268.5,726.9,268.9,725.8L268.9,725.8z"/>
		</g>
		<g>
			<path class="st5" d="M258.5,692c-1.4-0.1-2.7,0-4.1,0.1c-1.9,0.2-3.7,1-5.5,1.5c-3,0.8-5.8,0-8.3,2.1c-0.9,0.8,0.4,2.1,1.3,1.3
				c2.1-1.8,5.8-1.4,8.4-2.3c0.8-0.3,2.9-0.9,3.5-1.1c1.5-0.3,3.2,0,4.7,0.1C259.7,693.9,259.7,692.1,258.5,692L258.5,692z"/>
		</g>
		<g>
			<path class="st5" d="M246.5,693.6c1-1,2.7-1.1,4-1.1c1.2,0,1.2-1.9,0-1.9c-1.9,0.1-3.9,0.3-5.3,1.7
				C244.3,693.1,245.6,694.4,246.5,693.6L246.5,693.6z"/>
		</g>
		<g>
			<path class="st5" d="M250.7,690.2c1.7-0.1,3.5-0.4,5.2-0.4c1.2,0,1.1-1.5-0.1-1.6c-1.7,0-3.4,0-5.1,0.1
				C249.5,688.4,249.5,690.3,250.7,690.2L250.7,690.2z"/>
		</g>
		<g>
			<path class="st5" d="M255.1,691.8c1.8,0.1,3.4-0.2,5.1,0.6c1.6,0.7,2.3,2,3.7,3.1c2.9,2.3,5.7,3.5,6.6,7.4
				c0.3,1.2,2.1,0.7,1.8-0.5c-0.4-1.8-1.1-3.4-2.3-4.7c-1.6-1.8-3.8-2.6-5.5-4.1c-1.2-1.1-1.9-2.4-3.4-3.1c-1.8-0.8-4-0.3-5.9-0.4
				C253.9,689.8,253.9,691.7,255.1,691.8L255.1,691.8z"/>
		</g>
		<g>
			<path class="st5" d="M261.8,690.4c1.3,0.3,2.5,0.7,3.7,1.4c1.1,0.6,2-1.1,0.9-1.6c-1.3-0.7-2.7-1.2-4.2-1.5
				C261.1,688.3,260.6,690.1,261.8,690.4L261.8,690.4z"/>
		</g>
		<g>
			<path class="st5" d="M267.1,693.3c4.8,2,6,7.8,6,12.4c0,2.8,0.6,5.5-0.1,8.2c-0.3,1.2,1.5,1.7,1.8,0.5c0.5-1.9,0.4-3.5,0.3-5.6
				c-0.2-3.3,0.3-5.5-0.7-8.6c-1.3-3.8-3-7.1-6.9-8.8C266.5,691,266,692.8,267.1,693.3L267.1,693.3z"/>
		</g>
		<g>
			<path class="st5" d="M240.8,720.7c1.5-0.2,3.1-0.4,4.4-1.3c1.3-0.9,2.1-2.4,3.5-3.2c0.3-0.2,2.7-1.5,3-1.2
				c-0.5-0.4-1.3,1-1.5,1.3c-1.1,1.2-2.5,3.6-4.1,4.1c-1.1,0.4-0.7,2.2,0.5,1.8c2.2-0.7,3.4-2.9,4.9-4.6c0.8-0.9,2.7-2.9,1.7-4.2
				c-1-1.3-3.7,0.3-4.8,0.9c-1,0.5-1.8,1.2-2.6,2c-1.5,1.6-2.8,2.3-5,2.5C239.6,719,239.6,720.8,240.8,720.7L240.8,720.7z"/>
		</g>
		<g>
			<path class="st5" d="M245.6,725c3.8-1,6-3.9,8.5-6.7c1.4-1.6,3.6-3.4,2.2-5.7c-3.6-6.1-14.1,2.6-17.6,4.6c-1,0.6-0.1,2.2,0.9,1.6
				c1.8-1.1,3.7-2.2,5.5-3.3c1.4-0.9,5.5-3.6,7.3-3.2c1,0.3,2.7,0.7,1.7,3.2c-0.3,0.3-0.6,0.7-1,1c-0.7,0.7-1.3,1.5-1.9,2.2
				c-1.8,2-3.5,3.7-6.2,4.4C243.9,723.5,244.4,725.3,245.6,725L245.6,725z"/>
		</g>
		<g>
			<path class="st5" d="M238.4,716c4.6-2.5,6.4-8.2,11.4-9.8c4.1-1.3,9.6,0.7,10.3,5.4c0.5,3.2-2.8,7.7-4.2,10.4
				c-0.6,1.1,1.1,2,1.6,0.9c1.7-3.1,4.8-7.1,4.6-10.8c-0.2-2.9-2.3-5.9-4.9-7.3c-3.4-1.8-7.6-1.1-10.9,0.5c-1.3,0.6-2.2,1.2-3,2.4
				c-1.9,2.8-2.6,4.7-5.9,6.5C236.4,715,237.3,716.6,238.4,716L238.4,716z"/>
		</g>
		<g>
			<path class="st5" d="M253,723.9c-0.7,0.7-1.4,1.3-2.2,2c-0.9,0.8,0.4,2.1,1.3,1.3c0.7-0.7,1.4-1.3,2.2-2
				C255.2,724.4,253.9,723.1,253,723.9L253,723.9z"/>
		</g>
		<g>
			<path class="st5" d="M248.7,709.9c0.7-0.7,1.6-1.2,2.6-1.2c0.5,0,2.4,0,2.6,0.5c0.5,1.1,2.1,0.2,1.6-0.9c-0.7-1.7-2.5-1.3-4-1.2
				c-1.7,0.1-2.9,0.4-4.2,1.6C246.5,709.4,247.8,710.8,248.7,709.9L248.7,709.9z"/>
		</g>
		<g>
			<path class="st5" d="M256.4,711.4c0.3,0.7,0.5,1.5,0.5,2.4c0.1,1.2,1.9,1.2,1.9,0c-0.1-1.2-0.3-2.2-0.8-3.3
				c-0.2-0.5-0.9-0.6-1.3-0.3C256.2,710.4,256.2,710.9,256.4,711.4L256.4,711.4z"/>
		</g>
	</g>
	<g>
		<path class="st4" d="M259.3,670.2c-17.8,0-32.2,14.4-32.2,32.2c0,17.8,14.4,32.2,32.2,32.2c17.8,0,32.2-14.4,32.2-32.2
			C291.4,684.6,277,670.2,259.3,670.2z M259.3,726.6c-13.4,0-24.2-10.9-24.2-24.2c0-13.4,10.9-24.2,24.2-24.2
			c13.4,0,24.2,10.9,24.2,24.2C283.5,715.7,272.7,726.6,259.3,726.6z"/>
	</g>
	<g>
		<path class="st7" d="M259.2,670.2L259.2,670.2l0,7.9h0c13.4,0,24.2,10.9,24.2,24.2c0,13.4-10.9,24.2-24.2,24.2h0v7.9h0
			c17.8,0,32.2-14.4,32.2-32.2C291.4,684.6,277,670.2,259.2,670.2z"/>
	</g>
	<g>
		<g>
			<path class="st8" d="M340.8,713.5c1.6-0.4,3.2-1.1,4.3-2.4c0.5-0.6,1-1.7,1.6-2.1c1-0.7,0.2-2.2-0.8-1.5
				c-0.7,0.5-1.2,1.2-1.7,1.8c-1,1.3-2.4,1.9-3.9,2.3C339.1,712,339.6,713.8,340.8,713.5L340.8,713.5z"/>
		</g>
		<g>
			<path class="st8" d="M340.6,710.6c6.5-3.7,13.1-10.3,21.3-6.5c11.4,5.2,4.3,17.1-2.4,22.7c-0.9,0.8,0.4,2.1,1.3,1.3
				c6.6-5.5,13.5-15.9,5.7-23.7c-2.8-2.8-8.2-3.4-12-3c-6,0.7-9.9,4.7-14.9,7.6C338.6,709.6,339.6,711.2,340.6,710.6L340.6,710.6z"
				/>
		</g>
		<g>
			<path class="st8" d="M339.7,708.2c2.1-1,4.2-2.1,5.8-3.8c0.7-0.8,1.3-2.1,2.1-2.6c1.9-1.3,3.8-0.4,5.8-0.5c1.2-0.1,1.2-1.9,0-1.9
				c-2.9,0.2-4.8-1.3-7.1,1.1c-1,1-1.6,2.3-2.7,3.2c-1.4,1.2-3.2,2.1-4.8,2.9C337.7,707.1,338.7,708.7,339.7,708.2L339.7,708.2z"/>
		</g>
		<g>
			<path class="st8" d="M357.3,702.3c2.3-3.3,6.3-1.5,8.7,0.5c0.9,0.8,2.2-0.3,1.2-1.1c-1.9-1.6-4-3.4-6.6-3.1
				c-1.8,0.2-3.8,1.3-4.9,2.8C355,702.4,356.6,703.3,357.3,702.3L357.3,702.3z"/>
		</g>
		<g>
			<path class="st8" d="M343.2,702.2c4.7-3.9,8.8-5.7,14.9-4.6c3.2,0.6,6,1.3,8.9,3c9.2,5.4,6.3,18.5,1.7,25.7c-0.7,1,1,2,1.6,0.9
				c5-7.8,7.6-20.5-0.9-27.2c-3.8-3.1-10.2-3.8-14.9-4.3c-5.2-0.6-8.9,2-12.7,5.2C341,701.6,342.3,702.9,343.2,702.2L343.2,702.2z"
				/>
		</g>
		<g>
			<path class="st8" d="M367.3,726.4c4.9-6.1,7.8-16.6,1.8-23c-0.8-0.9-2.2,0.4-1.3,1.3c5.3,5.6,2.4,15.1-1.8,20.3
				C365.2,726,366.5,727.3,367.3,726.4L367.3,726.4z"/>
		</g>
		<g>
			<path class="st8" d="M373.9,725.8c2.8-6.5,5.2-14.3,2.2-21.1c-3.1-7-8.8-11.2-16.6-10.8c-1.2,0.1-1.2,1.9,0,1.9
				c7-0.4,12.5,3.5,15,9.9c2.5,6.3,0.3,13.3-2.2,19.2C371.8,726,373.4,726.9,373.9,725.8L373.9,725.8z"/>
		</g>
		<g>
			<path class="st8" d="M363.5,692c-1.4-0.1-2.7,0-4.1,0.1c-1.9,0.2-3.7,1-5.5,1.5c-3,0.8-5.8,0-8.3,2.1c-0.9,0.8,0.4,2.1,1.3,1.3
				c2.1-1.8,5.8-1.4,8.4-2.3c0.8-0.3,2.9-0.9,3.5-1.1c1.5-0.3,3.2,0,4.7,0.1C364.7,693.9,364.7,692.1,363.5,692L363.5,692z"/>
		</g>
		<g>
			<path class="st8" d="M351.4,693.6c1-1,2.7-1.1,4-1.1c1.2,0,1.2-1.9,0-1.9c-1.9,0.1-3.9,0.3-5.3,1.7
				C349.2,693.1,350.5,694.4,351.4,693.6L351.4,693.6z"/>
		</g>
		<g>
			<path class="st8" d="M355.6,690.2c1.7-0.1,3.5-0.4,5.2-0.4c1.2,0,1.1-1.5-0.1-1.6c-1.7,0-3.4,0-5.1,0.1
				C354.4,688.4,354.4,690.3,355.6,690.2L355.6,690.2z"/>
		</g>
		<g>
			<path class="st8" d="M360,691.8c1.8,0.1,3.4-0.2,5.1,0.6c1.6,0.7,2.3,2,3.7,3.1c2.9,2.3,5.7,3.5,6.6,7.4c0.3,1.2,2.1,0.7,1.8-0.5
				c-0.4-1.8-1.1-3.4-2.3-4.7c-1.6-1.8-3.8-2.6-5.5-4.1c-1.2-1.1-1.9-2.4-3.4-3.1c-1.8-0.8-4-0.3-5.9-0.4
				C358.8,689.8,358.8,691.7,360,691.8L360,691.8z"/>
		</g>
		<g>
			<path class="st8" d="M366.7,690.4c1.3,0.3,2.5,0.7,3.7,1.4c1.1,0.6,2-1.1,0.9-1.6c-1.3-0.7-2.7-1.2-4.2-1.5
				C366.1,688.3,365.6,690.1,366.7,690.4L366.7,690.4z"/>
		</g>
		<g>
			<path class="st8" d="M372,693.3c4.8,2,6,7.8,6,12.4c0,2.8,0.6,5.5-0.1,8.2c-0.3,1.2,1.5,1.7,1.8,0.5c0.5-1.9,0.4-3.5,0.3-5.6
				c-0.2-3.3,0.3-5.5-0.7-8.6c-1.3-3.8-3-7.1-6.9-8.8C371.4,691,370.9,692.8,372,693.3L372,693.3z"/>
		</g>
		<g>
			<path class="st8" d="M345.7,720.7c1.5-0.2,3.1-0.4,4.4-1.3c1.3-0.9,2.1-2.4,3.5-3.2c0.3-0.2,2.7-1.5,3-1.2
				c-0.5-0.4-1.3,1-1.5,1.3c-1.1,1.2-2.5,3.6-4.1,4.1c-1.1,0.4-0.7,2.2,0.5,1.8c2.2-0.7,3.4-2.9,4.9-4.6c0.8-0.9,2.7-2.9,1.7-4.2
				c-1-1.3-3.7,0.3-4.8,0.9c-1,0.5-1.8,1.2-2.6,2c-1.5,1.6-2.8,2.3-5,2.5C344.5,719,344.5,720.8,345.7,720.7L345.7,720.7z"/>
		</g>
		<g>
			<path class="st8" d="M350.5,725c3.8-1,6-3.9,8.5-6.7c1.4-1.6,3.6-3.4,2.2-5.7c-3.6-6.1-14.1,2.6-17.6,4.6c-1,0.6-0.1,2.2,0.9,1.6
				c1.8-1.1,3.7-2.2,5.5-3.3c1.4-0.9,5.5-3.6,7.3-3.2c1,0.3,2.7,0.7,1.7,3.2c-0.3,0.3-0.6,0.7-1,1c-0.7,0.7-1.3,1.5-1.9,2.2
				c-1.8,2-3.5,3.7-6.2,4.4C348.8,723.5,349.3,725.3,350.5,725L350.5,725z"/>
		</g>
		<g>
			<path class="st8" d="M343.3,716c4.6-2.5,6.4-8.2,11.4-9.8c4.1-1.3,9.6,0.7,10.3,5.4c0.5,3.2-2.8,7.7-4.2,10.4
				c-0.6,1.1,1.1,2,1.6,0.9c1.7-3.1,4.8-7.1,4.6-10.8c-0.2-2.9-2.3-5.9-4.9-7.3c-3.4-1.8-7.6-1.1-10.9,0.5c-1.3,0.6-2.2,1.2-3,2.4
				c-1.9,2.8-2.6,4.7-5.9,6.5C341.3,715,342.2,716.6,343.3,716L343.3,716z"/>
		</g>
		<g>
			<path class="st8" d="M357.9,723.9c-0.7,0.7-1.4,1.3-2.2,2c-0.9,0.8,0.4,2.1,1.3,1.3c0.7-0.7,1.4-1.3,2.2-2
				C360.1,724.4,358.8,723.1,357.9,723.9L357.9,723.9z"/>
		</g>
		<g>
			<path class="st8" d="M353.6,709.9c0.7-0.7,1.6-1.2,2.6-1.2c0.5,0,2.4,0,2.6,0.5c0.5,1.1,2.1,0.2,1.6-0.9c-0.7-1.7-2.5-1.3-4-1.2
				c-1.7,0.1-2.9,0.4-4.2,1.6C351.4,709.4,352.8,710.8,353.6,709.9L353.6,709.9z"/>
		</g>
		<g>
			<path class="st8" d="M361.3,711.4c0.3,0.7,0.5,1.5,0.5,2.4c0.1,1.2,1.9,1.2,1.9,0c-0.1-1.2-0.3-2.2-0.8-3.3
				c-0.2-0.5-0.9-0.6-1.3-0.3C361.2,710.4,361.1,710.9,361.3,711.4L361.3,711.4z"/>
		</g>
	</g>
	<g>
		<path class="st4" d="M364.2,670.2c-17.8,0-32.2,14.4-32.2,32.2c0,17.8,14.4,32.2,32.2,32.2c17.8,0,32.2-14.4,32.2-32.2
			C396.4,684.6,382,670.2,364.2,670.2z M364.2,726.6c-13.4,0-24.2-10.9-24.2-24.2c0-13.4,10.9-24.2,24.2-24.2
			c13.4,0,24.2,10.9,24.2,24.2C388.4,715.7,377.6,726.6,364.2,726.6z"/>
	</g>
	<g>
		<path class="st7" d="M364.2,670.2L364.2,670.2l0,7.9h0c13.4,0,24.2,10.9,24.2,24.2c0,13.4-10.9,24.2-24.2,24.2h0v7.9h0
			c17.8,0,32.2-14.4,32.2-32.2C396.3,684.6,381.9,670.2,364.2,670.2z"/>
	</g>
</g>
</svg>
