<?xml version="1.0" encoding="utf-8"?>
<!-- Generator: Adobe Illustrator 21.0.2, SVG Export Plug-In . SVG Version: 6.00 Build 0)  -->
<svg version="1.1" id="Capa_1" xmlns="http://www.w3.org/2000/svg" xmlns:xlink="http://www.w3.org/1999/xlink" x="0px" y="0px"
	 viewBox="0 0 843.3 739" style="enable-background:new 0 0 843.3 739;" xml:space="preserve">
<style type="text/css">
	.st0{fill:#EEEEED;}
	.st1{fill:#CECECE;}
	.st2{fill:#98BD11;}
	.st3{fill:#00135B;}
	.st4{opacity:0.17;fill:#56ABDD;}
	.st5{fill:#AFAEB4;}
	.st6{fill:#9B999F;}
	.st7{fill:#633E00;}
</style>
<g>
	<rect x="0" class="st0" width="843.2" height="738.7"/>
	<polygon class="st1" points="717.3,177.1 0,177.1 0,211.4 693,211.4 693,738.7 717.3,738.7 717.3,211.4 717.3,211.4 	"/>
	<rect x="123" y="47" class="st2" width="59.1" height="83.2"/>
	<rect x="186.5" y="47" class="st3" width="214.5" height="83.2"/>
	<rect x="303.1" y="207.2" class="st1" width="24.3" height="276.4"/>
	<rect x="491.8" y="207.2" class="st1" width="24.3" height="275.6"/>
	<rect x="126.2" y="211.4" class="st4" width="176.8" height="270.5"/>
	<rect x="210.1" y="702.1" class="st5" width="482.9" height="36.7"/>
	<rect x="210.1" y="665.5" class="st6" width="482.9" height="36.7"/>
	<rect x="210.1" y="628.7" class="st5" width="482.9" height="36.7"/>
	<rect x="210.1" y="592.1" class="st6" width="482.9" height="36.7"/>
	<rect x="210.1" y="555.4" class="st5" width="482.9" height="36.7"/>
	<rect x="210.1" y="482" class="st5" width="482.9" height="36.7"/>
	<rect x="210.1" y="518.8" class="st6" width="482.9" height="36.7"/>
	<rect x="516.1" y="211.4" class="st4" width="176.8" height="270.5"/>
	<rect x="327.4" y="211.4" class="st4" width="164.4" height="270.6"/>
	<polygon class="st7" points="127.3,444.6 127.3,211.4 0,211.4 0,738.7 82.8,738.7 82.8,738.8 210.1,738.8 210.1,444.6 	"/>
	<path class="st1" d="M405.2,715.1h-5.9c-0.6,0-1.1-0.5-1.1-1.1V531.1c0-0.6,0.5-1.1,1.1-1.1h5.9c0.6,0,1.1,0.5,1.1,1.1v182.9
		C406.2,714.7,405.7,715.1,405.2,715.1z"/>
	<path class="st1" d="M419.8,715.1h-5.9c-0.6,0-1.1-0.5-1.1-1.1V531.1c0-0.6,0.5-1.1,1.1-1.1h5.9c0.6,0,1.1,0.5,1.1,1.1v182.9
		C420.9,714.7,420.4,715.1,419.8,715.1z"/>
	<rect x="491.8" y="482" class="st3" width="13" height="256.8"/>
	<g>
		<rect x="560.6" y="628.8" class="st3" width="7.8" height="110"/>
		<rect x="512.7" y="628.9" class="st3" width="4.1" height="110"/>
		<rect x="524.7" y="628.9" class="st3" width="4.1" height="110"/>
		<rect x="536.7" y="628.9" class="st3" width="4.1" height="110"/>
		<rect x="548.6" y="628.9" class="st3" width="4.1" height="110"/>
		<rect x="624.3" y="628.8" class="st3" width="7.8" height="110"/>
		<rect x="576.3" y="628.9" class="st3" width="4.1" height="110"/>
		<rect x="588.3" y="628.9" class="st3" width="4.1" height="110"/>
		<rect x="600.3" y="628.9" class="st3" width="4.1" height="110"/>
		<rect x="612.3" y="628.9" class="st3" width="4.1" height="110"/>
		<rect x="688" y="628.8" class="st3" width="7.8" height="110"/>
		<rect x="640" y="628.9" class="st3" width="4.1" height="110"/>
		<rect x="652" y="628.9" class="st3" width="4.1" height="110"/>
		<rect x="664" y="628.9" class="st3" width="4.1" height="110"/>
		<rect x="675.9" y="628.9" class="st3" width="4.1" height="110"/>
		<rect x="751.6" y="628.7" class="st3" width="7.8" height="110"/>
		<rect x="703.6" y="628.7" class="st3" width="4.1" height="110"/>
		<rect x="715.6" y="628.7" class="st3" width="4.1" height="110"/>
		<rect x="727.6" y="628.7" class="st3" width="4.1" height="110"/>
		<rect x="739.6" y="628.7" class="st3" width="4.1" height="110"/>
		<rect x="815.3" y="628.7" class="st3" width="7.8" height="110"/>
		<rect x="767.3" y="628.7" class="st3" width="4.1" height="110"/>
		<rect x="779.3" y="628.7" class="st3" width="4.1" height="110"/>
		<rect x="830.9" y="628.7" class="st3" width="4.1" height="110"/>
		<rect x="791.3" y="628.7" class="st3" width="4.1" height="110"/>
		<rect x="803.3" y="628.7" class="st3" width="4.1" height="110"/>
		
			<rect x="449" y="628.8" transform="matrix(-1 -6.236979e-11 6.236979e-11 -1 905.8932 1367.6469)" class="st3" width="7.8" height="110"/>
		
			<rect x="488.7" y="628.8" transform="matrix(-1 -6.725832e-11 6.725832e-11 -1 981.5439 1367.6642)" class="st3" width="4.1" height="110"/>
		
			<rect x="476.7" y="628.8" transform="matrix(-1 -6.110414e-11 6.110414e-11 -1 957.5789 1367.6642)" class="st3" width="4.1" height="110"/>
		
			<rect x="464.7" y="628.8" transform="matrix(-1 -6.681868e-11 6.681868e-11 -1 933.6138 1367.6642)" class="st3" width="4.1" height="110"/>
		
			<rect x="643.9" y="444.7" transform="matrix(1.591892e-10 -1 1 1.591892e-10 5.6881 1287.9716)" class="st3" width="5.8" height="392.8"/>
		
			<rect x="643.9" y="530.2" transform="matrix(1.591892e-10 -1 1 1.591892e-10 -79.7802 1373.4398)" class="st3" width="5.8" height="392.8"/>
	</g>
	<g>
		
			<rect x="337.4" y="629" transform="matrix(-1 -6.236979e-11 6.236979e-11 -1 682.5516 1368.0135)" class="st3" width="7.8" height="110"/>
		
			<rect x="273.7" y="628.9" transform="matrix(-1 -6.167435e-11 6.167435e-11 -1 555.2487 1367.7621)" class="st3" width="7.8" height="110"/>
		
			<rect x="325.4" y="628.9" transform="matrix(-1 -6.198299e-11 6.198299e-11 -1 654.8786 1367.7794)" class="st3" width="4.1" height="110"/>
		
			<rect x="313.4" y="628.9" transform="matrix(-1 -6.110414e-11 6.110414e-11 -1 630.8993 1367.7794)" class="st3" width="4.1" height="110"/>
		
			<rect x="301.4" y="628.9" transform="matrix(-1 -6.110414e-11 6.110414e-11 -1 606.9343 1367.7794)" class="st3" width="4.1" height="110"/>
		
			<rect x="289.4" y="628.9" transform="matrix(-1 -6.725832e-11 6.725832e-11 -1 582.9692 1367.7794)" class="st3" width="4.1" height="110"/>
		
			<rect x="210" y="628.9" transform="matrix(-1 -5.889213e-11 5.889213e-11 -1 427.9327 1367.7621)" class="st3" width="7.8" height="110"/>
		
			<rect x="261.7" y="628.9" transform="matrix(-1 -6.198299e-11 6.198299e-11 -1 527.5627 1367.7794)" class="st3" width="4.1" height="110"/>
		
			<rect x="249.7" y="628.9" transform="matrix(-1 -6.198299e-11 6.198299e-11 -1 503.5833 1367.7794)" class="st3" width="4.1" height="110"/>
		
			<rect x="237.7" y="628.9" transform="matrix(-1 -6.725832e-11 6.725832e-11 -1 479.6183 1367.7794)" class="st3" width="4.1" height="110"/>
		
			<rect x="274.7" y="573.6" transform="matrix(5.415585e-11 -1 1 5.415585e-11 -363.5182 918.7652)" class="st3" width="5.8" height="135.2"/>
		
			<rect x="274.7" y="659.1" transform="matrix(5.415585e-11 -1 1 5.415585e-11 -449.0123 1004.2592)" class="st3" width="5.8" height="135.2"/>
		
			<rect x="225.8" y="628.9" transform="matrix(-1 -6.725832e-11 6.725832e-11 -1 455.6533 1367.7794)" class="st3" width="4.1" height="110"/>
	</g>
</g>
</svg>
