<?xml version="1.0" encoding="utf-8"?>
<!-- Generator: Adobe Illustrator 21.0.2, SVG Export Plug-In . SVG Version: 6.00 Build 0)  -->
<svg version="1.1" id="Capa_1" xmlns="http://www.w3.org/2000/svg" xmlns:xlink="http://www.w3.org/1999/xlink" x="0px" y="0px"
	 viewBox="0 0 933.3 654" style="enable-background:new 0 0 933.3 654;" xml:space="preserve">
<style type="text/css">
	.st0{fill:#005698;}
	.st1{fill:#FFFFFF;}
	.st2{fill:#00CC5E;}
	.st3{fill:#FF9963;}
	.st4{fill:#CECECE;}
	.st5{fill:#EEEEED;}
	.st6{fill:#737373;}
	.st7{fill:#003157;}
	.st8{fill:#1E120D;}
	.st9{fill:#FFFFFF;stroke:#1E120D;stroke-miterlimit:10;}
	.st10{fill:#B2B2B2;}
	.st11{fill:#004677;}
	.st12{fill:#D8D8D8;}
	.st13{fill:#4E4E4E;}
	.st14{fill:#E4774D;}
	.st15{fill:#00B049;}
</style>
<g>
	<g>
		<g>
			<g>
				<path class="st0" d="M933.3,228.9c-0.2-24-0.3-48-0.3-72c0-12.4,0-24.9,0.1-37.3L822.2,55L647.7,24.5l-233.8-7.2L169.6,83.7
					l-82.9,87.8l219,193.6l224.2-14.3l323.7-50.2l79.2-57.8C932.9,237.3,933.1,232,933.3,228.9z"/>
			</g>
			<g>
				<polyline class="st1" points="627.1,189.3 615.4,27.9 670.1,33.4 657.8,192 				"/>
			</g>
			<g>
				<polygon class="st1" points="185.7,230.2 126.4,156.2 141.2,130.3 199.9,215.2 201.5,217.3 				"/>
			</g>
			<g>
				<g>
					<path class="st2" d="M354.6,300.6l263.1-88.3l131.8,79C749.5,291.4,635.8,337.8,354.6,300.6z"/>
				</g>
				<g>
					<path class="st3" d="M354.6,300.6l263.1-88.3l131.8,79c0,0,45.3-9.3,65.1-15.1c0,0-15.8-54.6-139.8-80.2s-251.2,2.3-275.5,15.1
						c-24.3,12.8-59.4,11.6-131.3,69.7C268,280.9,335.4,297.2,354.6,300.6z"/>
				</g>
				<g>
					<g>
						<path class="st3" d="M263.7,281.8c0,0,148.3-120.4,357.6-91.4c0,0,155.6,16.6,203.5,99.5"/>
					</g>
					<g>
						<path class="st2" d="M346.4,301.6c1.8,0,271-90.5,271-90.5l145.3,87"/>
					</g>
				</g>
			</g>
			<g>
				<g>
					<path class="st4" d="M931.9,485.6c0-28.1,0-56.3,0.3-84.4c0,3.4,0-11.4,0.2-22.8c0-10.9,0-21.8,0-32.8c0-7.6,0-15.1,0-22.7
						C422.4,607.6,2.9,250.7,2.9,250.7L48.2,447C113.2,648.4,488.2,651,488.2,651c230.6,17.2,368.4-52.3,444.2-115.3
						C932.1,511.4,931.9,489.3,931.9,485.6z"/>
				</g>
				<g>
					<path class="st5" d="M932.5,345.6c0-28.1,0-56.3,0.3-84.4c0,4.4-0.1-23.3,0.4-32.2c-0.1-7.8-0.1-15.5-0.2-23.3
						c-18.8,27.2-59.6,51.4-115.6,70.1c-73.3,24.5-172.5,39.5-281.7,39.5c-101.9,0-195.2-13.1-266.8-34.8
						c-87-26.3-142.1-65.3-142.1-108.9C127,92.3,310.1,28,535.9,28C728.1,28,889.3,74.6,933,137.4c0-19.5,0.1-39,0.3-58.5
						C836.1,30.6,691.4,0,529.7,0C237.2,0,0,100.3,0,223.9c0,123.7,237.2,223.9,529.7,223.9c161.3,0,305.6-30.5,402.8-78.5
						C932.5,361.4,932.5,353.5,932.5,345.6z"/>
				</g>
			</g>
			<g>
				<g>
					<g>
						<g>
							<polygon class="st6" points="505.4,652.1 505,447.6 508.9,447.7 509.3,652.3 							"/>
						</g>
					</g>
					<g>
						<g>
							<polygon class="st6" points="551.5,653.6 551.1,447.7 555,447.6 555.5,653.6 							"/>
						</g>
					</g>
					<g>
						<g>
							<polygon class="st6" points="594.8,652.8 590.9,653 601.6,445.8 605.5,445.6 							"/>
						</g>
					</g>
					<g>
						<g>
							<polygon class="st6" points="638.7,649.7 634.8,650.1 648.5,442.3 652.4,441.9 							"/>
						</g>
					</g>
					<g>
						<g>
							<polygon class="st6" points="678.1,644.5 674.1,645.1 693.3,437 697.3,436.5 							"/>
						</g>
					</g>
					<g>
						<g>
							<polygon class="st6" points="720.1,636.5 716,637.4 736.5,430.2 740.5,429.5 							"/>
						</g>
					</g>
					<g>
						<g>
							<polygon class="st6" points="762.2,625.5 758.1,626.6 776.6,422.1 780.7,421.3 							"/>
						</g>
					</g>
					<g>
						<g>
							<polygon class="st6" points="797,613.4 792.8,615 816.5,412.3 820.7,411.1 							"/>
						</g>
					</g>
					<g>
						<g>
							<polygon class="st6" points="829.6,599.8 825.3,601.7 852,401.7 856.2,400.3 							"/>
						</g>
					</g>
					<g>
						<g>
							<polygon class="st6" points="857.7,585.8 853.3,588.1 884.3,390.3 888.6,388.7 							"/>
						</g>
					</g>
					<g>
						<g>
							<polygon class="st6" points="884.4,570.3 879.8,573.1 913.7,378.2 918.2,376.2 							"/>
						</g>
					</g>
					<g>
						<g>
							<path class="st6" d="M932.1,422.3L908.8,554l4.8-3.5L932,446.6C932,438.5,932.1,430.4,932.1,422.3z"/>
						</g>
					</g>
					<g>
						<g>
							<polygon class="st6" points="460.1,649.8 455.5,445.7 459.4,445.9 464,650.1 							"/>
						</g>
					</g>
					<g>
						<g>
							<polygon class="st6" points="417,646.3 406.7,441.8 410.7,442.2 420.9,646.7 							"/>
						</g>
					</g>
					<g>
						<g>
							<polygon class="st6" points="374.8,640.9 360.6,436.3 364.5,436.7 378.8,641.5 							"/>
						</g>
					</g>
					<g>
						<g>
							<polygon class="st6" points="334,633.9 315.2,428.8 319.2,429.5 338,634.6 							"/>
						</g>
					</g>
					<g>
						<g>
							<polygon class="st6" points="294.2,625 272.1,419.6 276.2,420.6 298.3,626 							"/>
						</g>
					</g>
					<g>
						<g>
							<polygon class="st6" points="252.2,613.1 228.8,408.3 232.9,409.4 256.3,614.4 							"/>
						</g>
					</g>
					<g>
						<g>
							<polygon class="st6" points="217.8,600.9 188.5,395.3 192.8,396.8 222.1,602.5 							"/>
						</g>
					</g>
					<g>
						<g>
							<polygon class="st6" points="179.7,584 154.4,382 158.7,383.8 184,586.1 							"/>
						</g>
					</g>
					<g>
						<g>
							<polygon class="st6" points="151.2,568.2 119.5,365.7 124,367.9 155.8,571 							"/>
						</g>
					</g>
					<g>
						<g>
							<path class="st7" d="M179.4,241.9l-5.2-3.2c1.1-1.4,112.8-137.1,401.5-123.5C865,129,889.2,238.7,890,243.3l-4.4,2.7
								c-0.2-1-25.3-109.2-310.1-122.8C288.3,109.5,180.5,240.6,179.4,241.9z"/>
						</g>
					</g>
					<g>
						<g>
							<polygon class="st6" points="123.3,549.1 91,349.6 95.6,352.4 128,552.6 							"/>
						</g>
					</g>
					<g>
						<g>
							<polygon class="st6" points="100.5,529.4 66.9,332.9 71.6,336.5 105.4,534 							"/>
						</g>
					</g>
					<g>
						<g>
							<polygon class="st6" points="82.2,509.5 46.8,316.1 51.8,320.7 87.6,515.8 							"/>
						</g>
					</g>
					<g>
						<g>
							<polygon class="st6" points="67.8,489.3 30.1,298.5 35.4,304.7 73.8,498.3 							"/>
						</g>
					</g>
					<g>
						<g>
							<polygon class="st6" points="50.3,453.1 15.3,277.7 21.4,287.1 58.4,472.4 							"/>
						</g>
					</g>
					<g>
						<g>
							<polygon class="st6" points="594.5,614 551.6,495.8 554.7,491 594.7,601.3 647.1,478.2 680.3,588.7 732.4,466.2 735.3,471.5 
								679.8,602.1 646.6,491.7 							"/>
						</g>
					</g>
					<g>
						<g>
							<polygon class="st6" points="798.4,580.1 771.7,480.8 775.1,476.9 799.1,566.2 844.5,458.3 861.7,540.4 900.7,447.1 
								903.7,452.3 860.6,555.3 843.4,473.3 							"/>
						</g>
					</g>
					<g>
						<g>
							<path class="st6" d="M932,438l-2.4,3.1l2.3,7.6C932,445.2,932,441.6,932,438z"/>
						</g>
					</g>
					<g>
						<g>
							<polygon class="st6" points="462.5,616 411.5,507.2 376,603 321.5,492.4 324.2,486.7 375.6,590.9 411.1,494.9 462.3,604 
								505.7,497 508.7,502.1 							"/>
						</g>
					</g>
					<g>
						<g>
							<polygon class="st6" points="249.5,572.1 200.1,465.2 176.8,552.9 131.4,442.9 134.4,437.8 176.1,538.8 199.3,451.7 
								249.3,560 279.3,483.5 282.4,488.6 							"/>
						</g>
					</g>
					<g>
						<g>
							<polygon class="st6" points="94.9,484.9 66.6,414.3 62.2,455.4 36.5,381.5 39.6,376.8 60.3,436.1 64.5,396.5 94.4,471 
								105.4,432.9 108.8,437 							"/>
						</g>
					</g>
				</g>
				<g>
					<path class="st8" d="M508.9,447.7c0,0,35.4,1,42.3,0l1,206.1c0,0-41.9-0.4-43.2-1.5s-0.8-125.4-0.8-125.4L508.9,447.7z"/>
				</g>
			</g>
			<g>
				<path class="st9" d="M657.8,192"/>
			</g>
		</g>
		<g>
			<g>
				<path class="st10" d="M931.9,485.6c0-28.1,0-56.3,0.3-84.4c0,3.4,0-11.4,0.2-22.8c0-10.9,0-21.8,0-32.8c0-7.5,0-14.9,0-22.4
					c-143.9,80.3-280.6,109.7-402.8,110.2v220.1C735.5,660,861.2,595.1,932.3,536C932.1,511.6,931.9,489.3,931.9,485.6z"/>
			</g>
			<g>
				<path class="st11" d="M933.3,228.9c-0.2-24-0.3-48-0.3-72c0-12.3,0-24.7,0.1-37L822.2,55.3L647.7,24.9l-118-3.6v329.8l0.2,0
					l323.7-50.2l79.2-57.7C932.9,237.6,933,232.1,933.3,228.9z"/>
			</g>
			<g>
				<polyline class="st12" points="627.1,189.6 615.4,28.2 670.1,33.8 657.8,192.4 				"/>
			</g>
			<g>
				<g>
					<polygon class="st13" points="551.5,654 551.1,448.1 555,448 555.5,654 					"/>
				</g>
			</g>
			<g>
				<g>
					<polygon class="st13" points="594.8,653.2 590.9,653.3 601.6,446.2 605.5,446 					"/>
				</g>
			</g>
			<g>
				<g>
					<polygon class="st13" points="638.7,650.1 634.8,650.4 648.5,442.6 652.4,442.2 					"/>
				</g>
			</g>
			<g>
				<g>
					<polygon class="st13" points="678.1,644.9 674.1,645.5 693.3,437.4 697.3,436.8 					"/>
				</g>
			</g>
			<g>
				<g>
					<polygon class="st13" points="720.1,636.9 716,637.8 736.5,430.5 740.5,429.8 					"/>
				</g>
			</g>
			<g>
				<g>
					<polygon class="st13" points="762.2,625.8 758.1,627 776.6,422.4 780.7,421.6 					"/>
				</g>
			</g>
			<g>
				<g>
					<polygon class="st13" points="797,613.7 792.8,615.3 816.5,412.6 820.7,411.5 					"/>
				</g>
			</g>
			<g>
				<g>
					<polygon class="st13" points="829.6,600.1 825.3,602.1 852,402.1 856.2,400.7 					"/>
				</g>
			</g>
			<g>
				<g>
					<polygon class="st13" points="857.7,586.1 853.3,588.5 884.3,390.7 888.6,389 					"/>
				</g>
			</g>
			<g>
				<g>
					<polygon class="st13" points="884.4,570.7 879.8,573.5 913.7,378.6 918.2,376.6 					"/>
				</g>
			</g>
			<g>
				<g>
					<path class="st13" d="M932.1,422.7l-23.3,131.7l4.8-3.5L932,446.9C932,438.8,932.1,430.8,932.1,422.7z"/>
				</g>
			</g>
			<g>
				<g>
					<polygon class="st13" points="594.5,614.4 551.6,496.2 554.7,491.4 594.7,601.7 647.1,478.6 680.3,589 732.4,466.6 
						735.3,471.9 679.8,602.5 646.6,492 					"/>
				</g>
			</g>
			<g>
				<g>
					<polygon class="st13" points="798.4,580.5 771.7,481.1 775.1,477.2 799.1,566.5 844.5,458.7 861.7,540.7 900.7,447.4 
						903.7,452.7 860.6,555.7 843.4,473.6 					"/>
				</g>
			</g>
			<g>
				<g>
					<path class="st13" d="M932,438.4l-2.4,3.1l2.3,7.6C932,445.5,932,441.9,932,438.4z"/>
				</g>
			</g>
			<g>
				<path class="st9" d="M657.8,192.4"/>
			</g>
			<g>
				<path class="st14" d="M529.7,242.2c48.5-16.3,87.7-30.7,87.7-30.7l134.9,81.2l72.5-2.5c-48.6-98.2-203.5-99.5-203.5-99.5
					c-32.1-4.4-62.7-6.5-91.5-4.9V242.2z"/>
			</g>
			<g>
				<path class="st7" d="M575.6,115.6c-15.8-0.7-31.1-1-45.9-0.9v8c14.7-0.1,30,0.2,45.8,1c284.8,13.6,309.9,121.8,310.1,122.8
					l4.4-2.7C889.2,239.1,865,129.4,575.6,115.6z"/>
			</g>
			<g>
				<path class="st14" d="M675.1,195.9c-50.2-10.4-99-12.5-143.3-9.9l0.1,55.6l86-29.5l131.8,79c0,0,45.3-9.3,65.1-15.1
					C814.9,276,799,221.4,675.1,195.9z"/>
			</g>
			<g>
				<path class="st15" d="M617.7,212.7l-88,29.5v73.5c155.6,4.5,228.2-22.3,228.2-22.3L617.7,212.7z"/>
			</g>
			<g>
				<path class="st4" d="M932.5,345.6c0-28.1,0-56.3,0.3-84.4c0,4.4-0.1-23.2,0.4-32.2c-0.1-7.6-0.1-15.3-0.2-22.9
					c-18.8,27.2-59.6,51.4-115.6,70.1c-73.3,24.5-172.5,39.5-281.7,39.5c-2.1,0-4.1,0-6.1,0v132.7c161.3,0,305.6-30.5,402.8-78.5
					C932.5,361.6,932.5,353.6,932.5,345.6z"/>
				<path class="st4" d="M933.3,79.3C836.1,31,691.4,0.4,529.7,0.4v28c2,0,4.1,0,6.1,0c192.2,0,353.5,46.6,397.2,109.4
					C933,118.3,933.1,98.8,933.3,79.3z"/>
			</g>
		</g>
	</g>
	<g>
		<path class="st8" d="M529.7,653.5c0,0,18.4,1,21.8,0.1l-0.2-76.2l-0.1-77.2l-0.1-52.2l-21.4,0.1V653.5z"/>
	</g>
</g>
</svg>
