<?xml version="1.0" encoding="utf-8"?>
<!-- Generator: Adobe Illustrator 21.0.2, SVG Export Plug-In . SVG Version: 6.00 Build 0)  -->
<svg version="1.1" id="Capa_1" xmlns="http://www.w3.org/2000/svg" xmlns:xlink="http://www.w3.org/1999/xlink" x="0px" y="0px"
	 viewBox="0 0 815.9 888.9" style="enable-background:new 0 0 815.9 888.9;" xml:space="preserve">
<style type="text/css">
	.st0{fill:#ECE477;}
	.st1{fill:none;}
	.st2{fill:#CCC263;}
	.st3{fill:#807640;}
	.st4{fill:#1E120D;}
	.st5{fill:#FFFFFF;}
</style>
<g>
	<g>
		<rect x="68.7" y="335.1" class="st0" width="85" height="447.4"/>
		<path class="st1" d="M156.7,785.4H65.8V332.1h90.9V785.4z M71.7,779.5h79.1V338H71.7V779.5z"/>
	</g>
	<g>
		<rect x="216.4" y="335.1" class="st0" width="85" height="447.4"/>
		<path class="st1" d="M304.3,785.4h-90.9V332.1h90.9V785.4z M219.3,779.5h79.1V338h-79.1V779.5z"/>
	</g>
	<g>
		<rect x="363.9" y="335.1" class="st0" width="85" height="447.4"/>
		<path class="st1" d="M451.9,785.4h-90.9V332.1h90.9V785.4z M366.9,779.5H446V338h-79.1V779.5z"/>
	</g>
	<g>
		<rect x="659.2" y="340.1" class="st0" width="85" height="439.4"/>
	</g>
	<g>
		<rect x="511.7" y="340" class="st0" width="85" height="439.5"/>
	</g>
	<g>
		<rect x="11" y="233.5" class="st0" width="793.9" height="103.5"/>
		<path class="st1" d="M807.9,340H8L7.8,232l800.1-1.4V340z M13.9,334.1h788v-97.6h-788V334.1z"/>
	</g>
	<g>
		<polygon class="st0" points="406.8,3.4 406.8,3.4 11,233.5 804.9,233.5 		"/>
		<path class="st1" d="M7.6,232.1L406.8,0l409.1,236.5H7.7 M7.7,236.5H0l7.6-4.4 M21.9,230.6h771.9L406.8,6.8L21.9,230.6z"/>
	</g>
	<g>
		<rect x="659.3" y="336.4" class="st2" width="85" height="448.3"/>
		<path class="st1" d="M747.3,787.6h-90.9V333.3h90.9V787.6z M662.3,781.6h79.1V339.4h-79.1V781.6z"/>
	</g>
	<rect x="511.7" y="336.6" class="st2" width="85" height="446"/>
	<path class="st1" d="M599.7,782.5h-90.9V334.9h90.9V782.5z M514.7,776.6h79.1V340.8h-79.1V776.6z"/>
	<g>
		<rect x="406.6" y="234.3" class="st2" width="398.1" height="102.9"/>
	</g>
	<g>
		<polyline class="st2" points="406.6,233.9 804.6,233.1 406.8,3.4 		"/>
	</g>
	<g>
		<rect x="406.8" y="334.6" class="st2" width="42.2" height="447.6"/>
	</g>
	<g>
		<rect x="10.9" y="233.5" class="st3" width="793.9" height="3"/>
	</g>
	<g>
		<path class="st3" d="M708,207.6H107.2L406.8,33.5l0.7,0.4L708,207.6z M118.2,204.7H697L406.8,36.9L118.2,204.7z"/>
	</g>
	<g>
		<rect x="11" y="782.5" class="st0" width="792.7" height="103.5"/>
		<path class="st1" d="M806.6,888.9H8V779.5h798.6V888.9z M13.9,883h786.8v-97.6H13.9V883z"/>
	</g>
	<g>
		<rect x="406.8" y="782.1" class="st2" width="396.9" height="103.9"/>
	</g>
	<g>
		<rect x="111.8" y="337.1" class="st2" width="42" height="445.3"/>
	</g>
	<g>
		<rect x="259.3" y="337" class="st2" width="42" height="445.4"/>
	</g>
	<g>
		<g>
			<path class="st4" d="M460.8,176.7h-36.5c-5.1,0-9.3-4-9.6-9.1l-4.6-82.4h-6.9l-4.6,82.4c-0.3,5.1-4.5,9.1-9.6,9.1h-36.5
				c-2.7,0-5.2,1.8-5.7,4.5c-0.8,3.6,2,6.9,5.5,6.9H461c3.5,0,6.3-3.2,5.5-6.9C466,178.5,463.5,176.7,460.8,176.7z"/>
		</g>
		<g>
			<line class="st5" x1="350" y1="84.5" x2="463.3" y2="84.5"/>
			<rect x="350" y="82.8" class="st4" width="113.4" height="3.4"/>
		</g>
		<g>
			<g>
				<path class="st4" d="M380.9,136.4h-61.9L350,82.8L380.9,136.4z M322,134.7H378l-28-48.4L322,134.7z"/>
			</g>
			<g>
				<path class="st4" d="M319.1,136.4c0,0.1,0,0.1,0,0.2c0,6,13.9,10.8,31,10.8s31-4.8,31-10.8c0-0.1,0-0.1,0-0.2H319.1z"/>
			</g>
		</g>
		<g>
			<g>
				<path class="st4" d="M494.3,136.4h-61.9l30.9-53.6L494.3,136.4z M435.4,134.7h55.9l-28-48.4L435.4,134.7z"/>
			</g>
			<g>
				<path class="st4" d="M432.4,136.5c0,0.1,0,0.1,0,0.2c0,6,13.9,10.8,31,10.8c17.1,0,31-4.8,31-10.8c0-0.1,0-0.1,0-0.2H432.4z"/>
			</g>
		</g>
	</g>
</g>
</svg>
