<?xml version="1.0" encoding="utf-8"?>
<!-- Generator: Adobe Illustrator 21.0.2, SVG Export Plug-In . SVG Version: 6.00 Build 0)  -->
<svg version="1.1" id="Capa_1" xmlns="http://www.w3.org/2000/svg" xmlns:xlink="http://www.w3.org/1999/xlink" x="0px" y="0px"
	 viewBox="0 0 785.1 826.9" style="enable-background:new 0 0 785.1 826.9;" xml:space="preserve">
<style type="text/css">
	.st0{fill:#EEEEED;}
	.st1{fill:#D6D6D6;}
	.st2{fill:#CECECE;}
	.st3{fill:#80C4C2;}
	.st4{fill:#A1E5E4;}
	.st5{fill:#B2B2B2;}
	.st6{fill:#606060;}
	.st7{fill:#424242;}
</style>
<g>
	<g>
		<rect x="197.2" y="1.2" class="st0" width="587.7" height="825.5"/>
		<rect x="451.6" y="1.2" class="st1" width="333.3" height="825.5"/>
		<polygon class="st2" points="706.5,0.8 706.5,0.6 197,0.6 197,62.9 704.1,62.9 704.1,826.7 785.1,826.7 785.1,0.8 		"/>
		<rect x="197" y="174.9" class="st2" width="512" height="17.2"/>
		<rect x="197.2" y="307.5" class="st2" width="507.3" height="17.9"/>
		<rect x="197.2" y="439.1" class="st2" width="507.3" height="17.9"/>
		<rect x="603.2" y="63" class="st3" width="73.2" height="113.5"/>
		<rect x="509.2" y="63" class="st3" width="73.2" height="113.5"/>
		<rect x="415.1" y="63" class="st4" width="73.2" height="112"/>
		<rect x="197.2" y="571" class="st2" width="507.3" height="17.9"/>
		<rect x="197.2" y="703" class="st2" width="507.3" height="17.9"/>
		<rect x="321.1" y="63" class="st4" width="73.2" height="111.9"/>
		<rect x="227" y="63" class="st4" width="73.2" height="111.9"/>
		<rect x="603.2" y="192.1" class="st3" width="73.2" height="115.4"/>
		<rect x="509.2" y="192.1" class="st3" width="73.2" height="115.4"/>
		<rect x="415.1" y="192.1" class="st4" width="73.2" height="115.4"/>
		<rect x="321.1" y="192.1" class="st4" width="73.2" height="115.4"/>
		<rect x="227" y="192.1" class="st4" width="73.2" height="115.4"/>
		<rect x="603.2" y="325.3" class="st3" width="73.2" height="114"/>
		<rect x="509.2" y="325.4" class="st3" width="73.2" height="114"/>
		<rect x="415.1" y="325.3" class="st4" width="73.2" height="114"/>
		<rect x="321.1" y="325.3" class="st4" width="73.2" height="114"/>
		<rect x="227" y="325.6" class="st4" width="73.2" height="113.8"/>
		<rect x="603.2" y="456.9" class="st3" width="73.2" height="114"/>
		<rect x="509.1" y="456.9" class="st3" width="73.2" height="114"/>
		<rect x="415.1" y="456.9" class="st4" width="73.2" height="114.1"/>
		<rect x="603.2" y="588.9" class="st3" width="73.2" height="114.1"/>
		<rect x="509.1" y="588.9" class="st3" width="73.2" height="114"/>
		<rect x="415.1" y="589" class="st4" width="73.2" height="114.1"/>
		<rect x="603.2" y="720.6" class="st3" width="73.2" height="106.1"/>
		<rect x="509.1" y="720.5" class="st3" width="73.2" height="106.2"/>
		<rect x="415.1" y="720.1" class="st4" width="73.2" height="106.6"/>
		<rect x="321.1" y="457" class="st4" width="73.2" height="115.4"/>
		<rect x="227" y="457" class="st4" width="73.2" height="115.4"/>
		<rect x="451.6" class="st5" width="333.1" height="63.5"/>
		
			<rect x="363.4" y="405.1" transform="matrix(-1.836970e-16 1 -1 -1.836970e-16 1190.1272 -299.1496)" class="st5" width="762.4" height="80.8"/>
		<rect x="451.6" y="174.9" class="st5" width="252.5" height="17"/>
		<rect x="451.6" y="307.6" class="st5" width="253.4" height="17.7"/>
		<rect x="451.6" y="439" class="st5" width="253.4" height="17.9"/>
		<rect x="451.6" y="570.8" class="st5" width="253.4" height="17.9"/>
		<rect x="451.6" y="702.9" class="st5" width="253.4" height="17.9"/>
		<rect x="451.8" y="63" class="st3" width="36.4" height="112"/>
		<rect x="451.7" y="191.8" class="st3" width="36.5" height="115.8"/>
		<rect x="451.8" y="323.6" class="st3" width="36.4" height="115.5"/>
		<rect x="451.6" y="456.8" class="st3" width="36.6" height="114"/>
		<rect x="451.8" y="588.8" class="st3" width="36.4" height="114.2"/>
		<rect x="451.6" y="720.7" class="st3" width="36.6" height="106.1"/>
	</g>
	<rect y="532.8" class="st2" width="451.6" height="293.9"/>
	<polygon class="st6" points="115.4,677.7 115.4,641.7 83.2,641.7 83.2,677.7 47.3,677.7 47.3,709.8 83.2,709.8 83.2,745.8 
		115.4,745.8 115.4,709.8 151.3,709.8 151.3,677.7 	"/>
	<path class="st6" d="M202.5,628.2h-35.2c-0.8,0-1.4-0.6-1.4-1.4V619c0-0.8,0.6-1.4,1.4-1.4h35.2c0.8,0,1.4,0.6,1.4,1.4v7.7
		C203.9,627.5,203.2,628.2,202.5,628.2z"/>
	<rect x="227.3" y="532.8" class="st5" width="224.4" height="293.9"/>
	<path class="st7" d="M275.2,628.2H240c-0.8,0-1.4-0.6-1.4-1.4V619c0-0.8,0.6-1.4,1.4-1.4h35.2c0.8,0,1.4,0.6,1.4,1.4v7.7
		C276.6,627.5,276,628.2,275.2,628.2z"/>
	<circle class="st7" cx="314.4" cy="685.6" r="18.2"/>
	<circle class="st7" cx="392.8" cy="685.6" r="18.2"/>
	<circle class="st7" cx="353.6" cy="645.6" r="18.2"/>
	<circle class="st7" cx="353.6" cy="724" r="18.2"/>
</g>
</svg>
