<?xml version="1.0" encoding="utf-8"?>
<!-- Generator: Adobe Illustrator 21.0.2, SVG Export Plug-In . SVG Version: 6.00 Build 0)  -->
<svg version="1.1" id="Capa_1" xmlns="http://www.w3.org/2000/svg" xmlns:xlink="http://www.w3.org/1999/xlink" x="0px" y="0px"
	 viewBox="0 0 942.1 826.1" style="enable-background:new 0 0 942.1 826.1;" xml:space="preserve">
<style type="text/css">
	.st0{fill:#EEEEED;}
	.st1{fill:#CECECE;}
	.st2{fill:#A1E5E4;}
	.st3{fill:#80C4C2;}
	.st4{fill:#A0A0A0;}
	.st5{fill:#737373;}
	.st6{fill:#FFFFFF;stroke:#1E120D;stroke-miterlimit:10;}
	.st7{fill:none;stroke:#3F280E;stroke-miterlimit:10;}
	.st8{fill:#FFFFFF;}
	.st9{fill:#EEEEEE;}
</style>
<g>
	<rect class="st0" width="942.1" height="825.1"/>
	<rect x="471.1" class="st1" width="471.1" height="825.1"/>
	<rect x="58.5" y="165.1" class="st2" width="249.2" height="197.9"/>
	<rect x="539.6" y="165.4" class="st3" width="111.2" height="112.2"/>
	<rect x="719.6" y="165.4" class="st3" width="111.2" height="112.2"/>
	<rect x="58.5" y="440.8" class="st2" width="249.2" height="197.9"/>
	<rect x="601.8" y="441.7" class="st3" width="262.8" height="384.2"/>
	<rect x="341.6" y="355.4" class="st4" width="412" height="65.1"/>
	<rect x="360.2" y="165.4" class="st2" width="111.2" height="112.2"/>
	<rect x="471.1" y="356" class="st5" width="282.5" height="64.4"/>
	<rect x="471.1" y="441.7" class="st3" width="113.9" height="383.3"/>
	<rect x="357.1" y="441.7" class="st2" width="113.9" height="383.3"/>
	<g>
		<line class="st6" x1="602" y1="486.3" x2="864.8" y2="486.3"/>
		<line class="st6" x1="602" y1="531.8" x2="864.8" y2="531.8"/>
		<line class="st6" x1="602" y1="734.4" x2="864.8" y2="734.4"/>
		<line class="st6" x1="602" y1="779.6" x2="864.8" y2="779.6"/>
		<line class="st6" x1="638.4" y1="441.8" x2="638.4" y2="826.1"/>
		<line class="st6" x1="674.7" y1="441.8" x2="674.7" y2="826.1"/>
		<line class="st6" x1="711.1" y1="441.8" x2="711.1" y2="826.1"/>
		<line class="st6" x1="831" y1="441.7" x2="831" y2="826"/>
		<line class="st6" x1="758.5" y1="441.7" x2="758.5" y2="826"/>
		<line class="st6" x1="794.7" y1="441.7" x2="794.7" y2="826"/>
	</g>
	<line class="st6" x1="183.1" y1="165.1" x2="183.1" y2="363.1"/>
	<line class="st6" x1="183.1" y1="440.8" x2="183.1" y2="638.7"/>
	<line class="st6" x1="58.5" y1="476.9" x2="307.7" y2="476.9"/>
	<line class="st6" x1="58.5" y1="496.1" x2="307.7" y2="496.1"/>
	<line class="st7" x1="58.5" y1="602.6" x2="307.7" y2="602.6"/>
	<line class="st6" x1="58.5" y1="583.5" x2="307.7" y2="583.5"/>
	<line class="st6" x1="58.5" y1="201.2" x2="307.7" y2="201.2"/>
	<line class="st6" x1="58.5" y1="220.4" x2="307.7" y2="220.4"/>
	<line class="st7" x1="58.5" y1="326.9" x2="307.7" y2="326.9"/>
	<line class="st6" x1="58.5" y1="307.8" x2="307.7" y2="307.8"/>
	<g>
		<rect x="375.4" y="355.4" class="st8" width="191.3" height="65"/>
	</g>
	<g>
		<rect x="471" y="355.3" class="st9" width="95.7" height="65.1"/>
	</g>
	<g>
		<path class="st5" d="M432.2,383.3c0,3.5-0.3,6.6-0.9,9.3c-0.6,2.7-1.4,4.9-2.5,6.7c-1.1,1.8-2.4,3.1-3.9,4.1
			c-1.5,0.9-3.2,1.4-5.1,1.4h-7.3v-42.8h7.3c1.9,0,3.5,0.5,5.1,1.4c1.5,0.9,2.8,2.3,3.9,4.1c1.1,1.8,1.9,4.1,2.5,6.7
			C431.9,376.7,432.2,379.8,432.2,383.3z M428.9,383.3c0-3-0.2-5.7-0.7-7.9c-0.5-2.2-1.1-4.1-1.9-5.6c-0.8-1.5-1.8-2.6-2.9-3.3
			s-2.3-1.1-3.6-1.1h-3.9v35.6h3.9c1.3,0,2.5-0.4,3.6-1.1s2.1-1.8,2.9-3.3c0.8-1.5,1.5-3.3,1.9-5.5
			C428.6,388.9,428.9,386.3,428.9,383.3z"/>
		<path class="st5" d="M442,365.5c0,0.8-0.2,1.5-0.6,2.1c-0.4,0.5-0.9,0.8-1.5,0.8c-0.6,0-1.1-0.3-1.5-0.8c-0.4-0.5-0.6-1.2-0.6-2.1
			c0-0.8,0.2-1.5,0.6-2.1c0.4-0.6,0.9-0.8,1.5-0.8c0.6,0,1.1,0.3,1.5,0.8C441.8,364,442,364.7,442,365.5z M438.3,404.7v-30h3.2v30
			H438.3z"/>
		<path class="st5" d="M457.9,379.9c-0.4-0.9-1-1.6-1.6-2.1c-0.7-0.5-1.4-0.8-2.4-0.8c-1,0-1.9,0.5-2.5,1.4c-0.7,0.9-1,2.2-1,3.7
			c0,1.6,0.3,2.8,1,3.5c0.6,0.7,1.6,1.4,2.9,2c0.6,0.3,1.3,0.7,1.9,1.2c0.6,0.5,1.2,1,1.7,1.7c0.5,0.7,0.9,1.5,1.2,2.5
			c0.3,0.9,0.5,2.1,0.5,3.4c0,2.9-0.6,5.2-1.9,6.9c-1.3,1.6-2.9,2.5-4.9,2.5c-1.3,0-2.6-0.4-3.7-1.2c-1.1-0.8-2-1.8-2.8-3.2l1.9-2.6
			c0.5,1.1,1.2,1.9,1.9,2.6c0.8,0.7,1.6,1,2.7,1c1.1,0,2-0.5,2.7-1.5c0.7-1,1-2.4,1-4.1c0-1-0.1-1.8-0.4-2.5c-0.3-0.7-0.6-1.2-1-1.7
			c-0.4-0.4-0.9-0.8-1.4-1.1c-0.5-0.3-1.1-0.6-1.7-0.9c-0.6-0.3-1.2-0.6-1.7-1s-1.1-0.9-1.5-1.6c-0.4-0.6-0.8-1.4-1.1-2.3
			c-0.3-0.9-0.4-2-0.4-3.3c0-1.3,0.2-2.4,0.5-3.4c0.3-1,0.8-1.9,1.4-2.7c0.6-0.7,1.3-1.3,2.1-1.8c0.8-0.4,1.6-0.6,2.6-0.6
			c1.3,0,2.5,0.3,3.5,1c1,0.7,1.8,1.5,2.4,2.6L457.9,379.9z"/>
		<path class="st5" d="M466.8,390.5c0,1.7,0.1,3.2,0.3,4.6c0.2,1.4,0.6,2.6,1,3.6c0.4,1,1,1.8,1.6,2.4c0.7,0.6,1.4,0.9,2.3,0.9
			c1.2,0,2.1-0.4,2.8-1.3c0.7-0.9,1.2-2,1.6-3.2l2.4,1.8c-0.6,1.8-1.4,3.3-2.6,4.6c-1.1,1.2-2.6,1.8-4.3,1.8c-2.7,0-4.7-1.4-6.2-4.2
			c-1.5-2.8-2.2-6.7-2.2-11.7c0-2.3,0.2-4.5,0.6-6.5c0.4-2,0.9-3.7,1.6-5.1c0.7-1.4,1.6-2.5,2.6-3.3c1-0.8,2.2-1.2,3.5-1.2
			c1.4,0,2.6,0.4,3.6,1.1c1,0.8,1.8,1.8,2.4,3.1c0.6,1.3,1,2.9,1.3,4.7c0.3,1.8,0.4,3.7,0.4,5.7v2.2H466.8z M476.5,387.2
			c0-3-0.4-5.5-1.1-7.3c-0.7-1.8-1.9-2.8-3.5-2.8c-0.9,0-1.7,0.4-2.3,1.1c-0.6,0.7-1.1,1.6-1.5,2.6c-0.4,1-0.7,2.1-0.9,3.3
			c-0.2,1.2-0.3,2.2-0.3,3.1H476.5z"/>
		<path class="st5" d="M497.5,404.7v-19.4c0-0.9,0-1.9-0.1-2.8c-0.1-0.9-0.3-1.8-0.5-2.6s-0.7-1.4-1.1-1.9c-0.5-0.5-1.1-0.8-1.9-0.8
			s-1.5,0.3-2.1,0.8s-1.1,1.3-1.6,2.2c-0.4,0.9-0.8,2-1,3.3c-0.2,1.2-0.4,2.5-0.4,3.8v17.3h-3.2v-22.4c0-0.6,0-1.3,0-2.1
			c0-0.7,0-1.5,0-2.2c0-0.7,0-1.3,0-1.9c0-0.6,0-1-0.1-1.4h3.1c0.1,0.8,0.1,1.7,0.1,2.8c0,1.1,0,2.1,0,3.1h0.1
			c0.4-2,1.2-3.7,2.2-4.9c1-1.3,2.3-1.9,3.8-1.9c1.3,0,2.3,0.3,3.1,1c0.8,0.7,1.4,1.6,1.8,2.7c0.4,1.1,0.7,2.4,0.8,3.8
			c0.1,1.4,0.2,2.8,0.2,4.1v19.4H497.5z M499.1,363.2c-0.1,2-0.4,3.5-1,4.4c-0.6,1-1.4,1.5-2.3,1.5c-0.5,0-1-0.1-1.4-0.3
			c-0.4-0.2-1-0.6-1.6-1.1c-0.7-0.6-1.3-1-1.6-1.2c-0.3-0.2-0.6-0.3-1-0.3c-0.5,0-0.9,0.3-1.1,0.8c-0.2,0.5-0.4,1.3-0.5,2.2h-1.8
			c0.1-1.8,0.4-3.3,1-4.4c0.6-1.1,1.3-1.7,2.3-1.7c0.6,0,1.1,0.1,1.5,0.3c0.4,0.2,0.9,0.6,1.6,1.1c0.7,0.6,1.3,1,1.6,1.2
			c0.3,0.2,0.7,0.3,1,0.3c0.5,0,0.9-0.2,1.1-0.6c0.2-0.4,0.4-1.1,0.5-2.1H499.1z"/>
		<path class="st5" d="M523,389.7c0,2.4-0.2,4.5-0.6,6.5c-0.4,1.9-0.9,3.6-1.6,5c-0.7,1.4-1.6,2.5-2.6,3.3c-1,0.8-2.2,1.1-3.5,1.1
			c-1.3,0-2.4-0.4-3.5-1.1c-1-0.8-1.9-1.9-2.6-3.3c-0.7-1.4-1.3-3.1-1.7-5c-0.4-1.9-0.6-4.1-0.6-6.5c0-2.4,0.2-4.6,0.6-6.5
			c0.4-2,0.9-3.7,1.6-5.1c0.7-1.4,1.6-2.5,2.6-3.3c1-0.8,2.2-1.1,3.5-1.1c1.3,0,2.4,0.4,3.5,1.1c1,0.8,1.9,1.9,2.6,3.3
			c0.7,1.4,1.2,3.1,1.6,5.1C522.8,385.2,523,387.4,523,389.7z M519.8,389.7c0-1.8-0.1-3.4-0.3-4.9c-0.2-1.5-0.5-2.8-0.9-4
			c-0.4-1.1-0.9-2-1.6-2.6s-1.4-1-2.2-1c-0.9,0-1.6,0.3-2.3,1c-0.6,0.6-1.2,1.5-1.6,2.6s-0.7,2.4-0.9,4c-0.2,1.5-0.3,3.2-0.3,4.9
			c0,1.8,0.1,3.4,0.3,4.9c0.2,1.5,0.5,2.8,0.9,3.9c0.4,1.1,0.9,2,1.6,2.6c0.6,0.6,1.4,0.9,2.3,0.9c0.9,0,1.6-0.3,2.3-0.9
			s1.2-1.5,1.6-2.6c0.4-1.1,0.7-2.4,0.9-3.9C519.6,393.1,519.8,391.4,519.8,389.7z"/>
	</g>
	<g>
		<path d="M429.7,383.3c0,3.5-0.3,6.6-0.9,9.3c-0.6,2.7-1.4,4.9-2.5,6.7c-1.1,1.8-2.4,3.1-3.9,4.1c-1.5,0.9-3.2,1.4-5.1,1.4h-7.3
			v-42.8h7.3c1.9,0,3.5,0.5,5.1,1.4c1.5,0.9,2.8,2.3,3.9,4.1c1.1,1.8,1.9,4.1,2.5,6.7C429.4,376.7,429.7,379.8,429.7,383.3z
			 M426.4,383.3c0-3-0.2-5.7-0.7-7.9c-0.5-2.2-1.1-4.1-1.9-5.6c-0.8-1.5-1.8-2.6-2.9-3.3s-2.3-1.1-3.6-1.1h-3.9V401h3.9
			c1.3,0,2.5-0.4,3.6-1.1s2.1-1.8,2.9-3.3c0.8-1.5,1.5-3.3,1.9-5.5C426.2,388.9,426.4,386.3,426.4,383.3z"/>
		<path d="M439.5,365.5c0,0.8-0.2,1.5-0.6,2.1c-0.4,0.5-0.9,0.8-1.5,0.8c-0.6,0-1.1-0.3-1.5-0.8c-0.4-0.5-0.6-1.2-0.6-2.1
			c0-0.8,0.2-1.5,0.6-2.1c0.4-0.6,0.9-0.8,1.5-0.8c0.6,0,1.1,0.3,1.5,0.8C439.3,364,439.5,364.7,439.5,365.5z M435.8,404.7v-30h3.2
			v30H435.8z"/>
		<path d="M455.4,379.9c-0.4-0.9-1-1.6-1.6-2.1c-0.7-0.5-1.4-0.8-2.4-0.8c-1,0-1.9,0.5-2.5,1.4c-0.7,0.9-1,2.2-1,3.7
			c0,1.6,0.3,2.8,1,3.5c0.6,0.7,1.6,1.4,2.9,2c0.6,0.3,1.3,0.7,1.9,1.2c0.6,0.5,1.2,1,1.7,1.7c0.5,0.7,0.9,1.5,1.2,2.5
			c0.3,0.9,0.5,2.1,0.5,3.4c0,2.9-0.6,5.2-1.9,6.9c-1.3,1.6-2.9,2.5-4.9,2.5c-1.3,0-2.6-0.4-3.7-1.2c-1.1-0.8-2-1.8-2.8-3.2l1.9-2.6
			c0.5,1.1,1.2,1.9,1.9,2.6c0.8,0.7,1.6,1,2.7,1c1.1,0,2-0.5,2.7-1.5c0.7-1,1-2.4,1-4.1c0-1-0.1-1.8-0.4-2.5c-0.3-0.7-0.6-1.2-1-1.7
			c-0.4-0.4-0.9-0.8-1.4-1.1c-0.5-0.3-1.1-0.6-1.7-0.9c-0.6-0.3-1.2-0.6-1.7-1s-1.1-0.9-1.5-1.6c-0.4-0.6-0.8-1.4-1.1-2.3
			c-0.3-0.9-0.4-2-0.4-3.3c0-1.3,0.2-2.4,0.5-3.4c0.3-1,0.8-1.9,1.4-2.7c0.6-0.7,1.3-1.3,2.1-1.8c0.8-0.4,1.6-0.6,2.6-0.6
			c1.3,0,2.5,0.3,3.5,1s1.8,1.5,2.4,2.6L455.4,379.9z"/>
		<path d="M464.4,390.5c0,1.7,0.1,3.2,0.3,4.6c0.2,1.4,0.6,2.6,1,3.6c0.4,1,1,1.8,1.6,2.4c0.7,0.6,1.4,0.9,2.3,0.9
			c1.2,0,2.1-0.4,2.8-1.3c0.7-0.9,1.2-2,1.6-3.2l2.4,1.8c-0.6,1.8-1.4,3.3-2.6,4.6c-1.1,1.2-2.6,1.8-4.3,1.8c-2.7,0-4.7-1.4-6.2-4.2
			c-1.5-2.8-2.2-6.7-2.2-11.7c0-2.3,0.2-4.5,0.6-6.5c0.4-2,0.9-3.7,1.6-5.1c0.7-1.4,1.6-2.5,2.6-3.3c1-0.8,2.2-1.2,3.5-1.2
			c1.4,0,2.6,0.4,3.6,1.1c1,0.8,1.8,1.8,2.4,3.1c0.6,1.3,1,2.9,1.3,4.7s0.4,3.7,0.4,5.7v2.2H464.4z M474,387.2c0-3-0.4-5.5-1.1-7.3
			s-1.9-2.8-3.5-2.8c-0.9,0-1.7,0.4-2.3,1.1c-0.6,0.7-1.1,1.6-1.5,2.6c-0.4,1-0.7,2.1-0.9,3.3c-0.2,1.2-0.3,2.2-0.3,3.1H474z"/>
		<path d="M495.1,404.7v-19.4c0-0.9,0-1.9-0.1-2.8c-0.1-0.9-0.3-1.8-0.5-2.6s-0.7-1.4-1.1-1.9c-0.5-0.5-1.1-0.8-1.9-0.8
			s-1.5,0.3-2.1,0.8c-0.6,0.5-1.1,1.3-1.6,2.2c-0.4,0.9-0.8,2-1,3.3c-0.2,1.2-0.4,2.5-0.4,3.8v17.3h-3.2v-22.4c0-0.6,0-1.3,0-2.1
			c0-0.7,0-1.5,0-2.2c0-0.7,0-1.3,0-1.9c0-0.6,0-1-0.1-1.4h3.1c0.1,0.8,0.1,1.7,0.1,2.8c0,1.1,0,2.1,0,3.1h0.1
			c0.4-2,1.2-3.7,2.2-4.9c1-1.3,2.3-1.9,3.8-1.9c1.3,0,2.3,0.3,3.1,1c0.8,0.7,1.4,1.6,1.8,2.7c0.4,1.1,0.7,2.4,0.8,3.8
			c0.1,1.4,0.2,2.8,0.2,4.1v19.4H495.1z M496.6,363.2c-0.1,2-0.4,3.5-1,4.4c-0.6,1-1.4,1.5-2.3,1.5c-0.5,0-1-0.1-1.4-0.3
			c-0.4-0.2-1-0.6-1.6-1.1c-0.7-0.6-1.3-1-1.6-1.2c-0.3-0.2-0.6-0.3-1-0.3c-0.5,0-0.9,0.3-1.1,0.8c-0.2,0.5-0.4,1.3-0.5,2.2h-1.8
			c0.1-1.8,0.4-3.3,1-4.4c0.6-1.1,1.3-1.7,2.3-1.7c0.6,0,1.1,0.1,1.5,0.3c0.4,0.2,0.9,0.6,1.6,1.1c0.7,0.6,1.3,1,1.6,1.2
			c0.3,0.2,0.7,0.3,1,0.3c0.5,0,0.9-0.2,1.1-0.6c0.2-0.4,0.4-1.1,0.5-2.1H496.6z"/>
		<path d="M520.5,389.7c0,2.4-0.2,4.5-0.6,6.5c-0.4,1.9-0.9,3.6-1.6,5c-0.7,1.4-1.6,2.5-2.6,3.3c-1,0.8-2.2,1.1-3.5,1.1
			c-1.3,0-2.4-0.4-3.5-1.1c-1-0.8-1.9-1.9-2.6-3.3c-0.7-1.4-1.3-3.1-1.7-5c-0.4-1.9-0.6-4.1-0.6-6.5c0-2.4,0.2-4.6,0.6-6.5
			c0.4-2,0.9-3.7,1.6-5.1c0.7-1.4,1.6-2.5,2.6-3.3c1-0.8,2.2-1.1,3.5-1.1c1.3,0,2.4,0.4,3.5,1.1c1,0.8,1.9,1.9,2.6,3.3
			c0.7,1.4,1.2,3.1,1.6,5.1C520.4,385.2,520.5,387.4,520.5,389.7z M517.3,389.6c0-1.8-0.1-3.4-0.3-4.9c-0.2-1.5-0.5-2.8-0.9-4
			c-0.4-1.1-0.9-2-1.6-2.6c-0.6-0.6-1.4-1-2.2-1c-0.9,0-1.6,0.3-2.3,1c-0.6,0.6-1.2,1.5-1.6,2.6s-0.7,2.4-0.9,4
			c-0.2,1.5-0.3,3.2-0.3,4.9s0.1,3.4,0.3,4.9c0.2,1.5,0.5,2.8,0.9,3.9c0.4,1.1,0.9,2,1.6,2.6c0.6,0.6,1.4,0.9,2.3,0.9
			c0.9,0,1.6-0.3,2.3-0.9c0.6-0.6,1.2-1.5,1.6-2.6c0.4-1.1,0.7-2.4,0.9-3.9C517.2,393,517.3,391.4,517.3,389.6z"/>
	</g>
	<path d="M445.3,413.9c8.2-1.3,16.4-2.2,24.6-2.8c4.1-0.4,8.2-0.5,12.4-0.5c2.1,0,4.1,0,6.4,0.4c0.3,0,1.6,0.4,2.2,1.3
		c0.2,0.4,0.5,1.1,0.5,1.9c0,0.9-0.4,1.5-0.6,1.8l-0.2,0.3c0.1-0.2,0.1,0,0.2-0.7c0-0.9-0.3-1.1-0.4-1.2c-0.4-0.3,0-0.1,0.1-0.1
		l1.4,0.1c8.1,0.7,16.3,0.6,24.5,0.7c4.1,0,8.2,0,12.3-0.2c4-0.3,8.3,0,12.1-1.9c-1.7,1.5-3.9,1.9-5.9,2.4c-2,0.5-4.1,0.8-6.1,1.1
		c-4.1,0.5-8.2,0.9-12.3,1.1c-8.2,0.4-16.4,0.5-24.7,0.1l-1.6-0.2c-0.3-0.1-0.5,0.1-1.3-0.6c-0.2-0.2-0.6-0.5-0.6-1.6
		c0.1-0.8,0.2-0.7,0.3-1.1l0.3-0.4c-0.1,0,0.4,0.6-0.6,0.2c-1.8-0.4-3.9-0.4-5.9-0.5l-12.3,0L445.3,413.9z"/>
</g>
</svg>
