<?xml version="1.0" encoding="utf-8"?>
<!-- Generator: Adobe Illustrator 21.0.2, SVG Export Plug-In . SVG Version: 6.00 Build 0)  -->
<svg version="1.1" id="Capa_1" xmlns="http://www.w3.org/2000/svg" xmlns:xlink="http://www.w3.org/1999/xlink" x="0px" y="0px"
	 viewBox="0 0 855.2 805" style="enable-background:new 0 0 855.2 805;" xml:space="preserve">
<style type="text/css">
	.st0{fill:#EEEEED;}
	.st1{fill:#CECECE;}
	.st2{fill:#A1E5E4;}
	.st3{fill:#80C4C2;}
	.st4{fill:#1E120D;}
	.st5{fill:#737373;}
	.st6{fill:#555555;}
	.st7{fill:#FFFFFF;}
	.st8{fill:#EEEEEE;}
</style>
<g>
	<g>
		<g>
			<g>
				<rect x="0.3" y="60.4" class="st0" width="854.5" height="744.4"/>
			</g>
			<g>
				<rect x="427.6" y="0.2" class="st1" width="427.2" height="804.6"/>
			</g>
			<g>
				<rect x="324.2" y="614.5" class="st2" width="208.4" height="190.6"/>
			</g>
			<g>
				<rect x="427.6" y="614.6" class="st3" width="105" height="190.4"/>
			</g>
			<g>
				<rect x="426.4" y="614.6" class="st4" width="2.4" height="190.4"/>
			</g>
		</g>
		<g>
			<rect x="0.3" y="0.2" class="st5" width="854.5" height="60.3"/>
		</g>
		<g>
			<rect x="0.3" y="196.3" class="st5" width="854.5" height="60.3"/>
		</g>
		<g>
			<rect x="0.3" y="520.1" class="st5" width="854.5" height="60.3"/>
		</g>
		<g>
			<rect y="438.8" class="st4" width="855.2" height="3.3"/>
		</g>
		<g>
			<rect x="166.3" y="285.6" class="st2" width="41.4" height="57.4"/>
		</g>
		<g>
			<rect x="83.4" y="285.5" class="st2" width="41.4" height="57.4"/>
		</g>
		<g>
			<rect x="290.5" y="286" class="st2" width="41.4" height="57.4"/>
		</g>
		<g>
			<rect x="374" y="286" class="st2" width="41.4" height="57.4"/>
		</g>
		<g>
			<rect x="522.6" y="285.8" class="st3" width="41.4" height="57.4"/>
		</g>
		<g>
			<rect x="439.8" y="285.8" class="st3" width="41.4" height="57.4"/>
		</g>
		<g>
			<rect x="647.6" y="285.2" class="st3" width="41.4" height="57.4"/>
		</g>
		<g>
			<rect x="730.5" y="285.3" class="st3" width="41.4" height="57.4"/>
		</g>
		<g>
			<rect x="427.6" y="519.8" class="st6" width="427.2" height="60.5"/>
		</g>
		<g>
			<rect x="427.7" y="196.2" class="st6" width="427.2" height="60.5"/>
		</g>
		<g>
			<rect x="427.6" class="st6" width="427.2" height="60.5"/>
		</g>
		<g>
			<rect x="275.9" y="362.8" class="st7" width="303.3" height="183.2"/>
		</g>
		<g>
			<rect x="427.6" y="362.9" class="st8" width="151.7" height="183.1"/>
		</g>
	</g>
	<g>
		<path d="M308,480.1l-6.8-24h-4.8v24h-3.6v-51.8h9c1.2,0,2.4,0.2,3.6,0.7c1.1,0.5,2.2,1.2,3.1,2.3c0.9,1.1,1.6,2.5,2.2,4.2
			c0.5,1.8,0.8,3.9,0.8,6.4c0,2.2-0.2,4.1-0.6,5.7c-0.4,1.6-0.9,2.9-1.6,4c-0.7,1.1-1.4,1.9-2.2,2.5c-0.8,0.6-1.6,0.9-2.3,1.1
			l7.3,24.9H308z M307.8,442.2c0-1.8-0.2-3.4-0.6-4.6c-0.4-1.2-0.9-2.2-1.5-3c-0.6-0.7-1.3-1.2-2.1-1.5c-0.8-0.3-1.6-0.4-2.5-0.4
			h-4.8v19.4h4.9c2,0,3.6-0.9,4.7-2.6C307.2,447.7,307.8,445.3,307.8,442.2z"/>
		<path d="M319.3,462.9c0,2,0.1,3.8,0.4,5.5c0.2,1.7,0.6,3.1,1.1,4.4s1.1,2.2,1.8,2.9c0.7,0.7,1.6,1.1,2.6,1.1
			c1.3,0,2.3-0.5,3.1-1.6c0.8-1.1,1.4-2.4,1.8-3.9l2.6,2.1c-0.6,2.2-1.6,4-2.8,5.5c-1.2,1.5-2.8,2.2-4.8,2.2c-2.9,0-5.2-1.7-6.8-5.1
			c-1.6-3.4-2.4-8.1-2.4-14.1c0-2.8,0.2-5.4,0.6-7.8c0.4-2.4,1-4.4,1.8-6.1c0.8-1.7,1.8-3,2.9-4c1.1-1,2.4-1.4,3.8-1.4
			c1.5,0,2.9,0.5,3.9,1.4s1.9,2.2,2.6,3.8c0.7,1.6,1.1,3.5,1.4,5.6c0.3,2.1,0.4,4.4,0.4,6.9v2.6H319.3z M329.9,458.9
			c0-3.7-0.4-6.6-1.2-8.8c-0.8-2.2-2.1-3.3-3.8-3.3c-1,0-1.9,0.4-2.6,1.3c-0.7,0.9-1.3,1.9-1.7,3.1c-0.4,1.2-0.8,2.6-1,4
			c-0.2,1.4-0.3,2.7-0.3,3.7H329.9z"/>
		<path d="M352.9,480.1v-23.4c0-1.1,0-2.3-0.1-3.4c-0.1-1.1-0.3-2.2-0.6-3.1c-0.3-1-0.7-1.7-1.2-2.3s-1.3-0.9-2.1-0.9
			c-0.9,0-1.7,0.3-2.3,1c-0.7,0.7-1.3,1.6-1.8,2.7c-0.5,1.1-0.9,2.5-1.1,3.9c-0.3,1.5-0.4,3-0.4,4.6v20.9h-3.5v-55.3h3.5v25.9h0.1
			c0.5-2.3,1.2-4.3,2.4-5.8c1.1-1.5,2.5-2.3,4.2-2.3c1.4,0,2.5,0.4,3.4,1.2c0.9,0.8,1.5,1.9,2,3.3c0.5,1.3,0.8,2.9,0.9,4.5
			c0.2,1.7,0.2,3.4,0.2,5v23.4H352.9z"/>
		<path d="M375.4,480.1c0-0.4-0.1-0.9-0.1-1.5c0-0.6,0-1.2-0.1-1.9c0-0.7,0-1.3,0-1.9c0-0.6,0-1.1,0-1.6h-0.1
			c-0.9,5.2-3,7.7-6.3,7.7c-0.7,0-1.5-0.2-2.2-0.6c-0.7-0.4-1.4-1-2-1.9s-1.1-2-1.5-3.3c-0.4-1.3-0.6-3-0.6-4.9c0-2.6,0.3-4.8,1-6.4
			c0.7-1.6,1.5-2.9,2.5-3.8c1-0.9,2.1-1.5,3.4-1.9c1.2-0.3,2.4-0.5,3.5-0.5h2.1v-1.9c0-3.2-0.4-5.5-1.3-6.9c-0.8-1.5-2-2.2-3.4-2.2
			c-1,0-1.9,0.4-2.7,1.1c-0.8,0.7-1.6,1.7-2.2,2.8l-1.8-3c0.8-1.6,1.9-2.8,3.2-3.7c1.3-0.9,2.6-1.3,3.9-1.3c2.7,0,4.7,1.2,5.9,3.7
			c1.2,2.5,1.7,6.1,1.7,10.9v15.1c0,0.5,0,1.1,0,1.8c0,0.7,0,1.5,0.1,2.2c0,0.8,0,1.5,0.1,2.1c0,0.7,0.1,1.2,0.1,1.6H375.4z
			 M375,461.6h-2.1c-0.8,0-1.7,0.1-2.5,0.3c-0.8,0.2-1.6,0.6-2.2,1.2c-0.7,0.6-1.2,1.5-1.6,2.5c-0.4,1.1-0.6,2.5-0.6,4.2
			c0,2.5,0.4,4.4,1.2,5.5c0.8,1.1,1.7,1.7,2.6,1.7c1,0,1.8-0.4,2.5-1.2c0.7-0.8,1.2-1.9,1.6-3.1c0.4-1.3,0.7-2.7,0.9-4.2
			c0.2-1.5,0.3-3,0.3-4.4V461.6z"/>
		<path d="M403.8,461.8c0,2.8-0.2,5.4-0.6,7.8c-0.4,2.4-0.9,4.4-1.6,6.1c-0.7,1.7-1.6,3.1-2.6,4.1c-1,1-2.2,1.5-3.5,1.5
			c-1.8,0-3.2-0.7-4.2-2.2c-1-1.4-1.7-3.3-2.1-5.5h-0.1v6.5h-3.4v-55.3h3.5V450h0.1c0.4-2.2,1.2-4,2.2-5.3c1.1-1.4,2.4-2,4-2
			c1.3,0,2.5,0.5,3.6,1.4c1,1,1.9,2.3,2.6,3.9c0.7,1.7,1.2,3.7,1.6,6C403.6,456.4,403.8,458.9,403.8,461.8z M400.2,461.9
			c0-2.1-0.1-4.1-0.3-5.9c-0.2-1.8-0.5-3.5-1-4.8c-0.5-1.4-1-2.4-1.7-3.2c-0.7-0.8-1.5-1.2-2.5-1.2c-0.9,0-1.7,0.4-2.4,1.2
			c-0.7,0.8-1.3,1.9-1.8,3.2c-0.5,1.4-0.8,3-1.1,4.8c-0.2,1.9-0.3,3.8-0.3,5.9c0,2.1,0.1,4.1,0.3,6c0.2,1.8,0.6,3.4,1.1,4.8
			c0.5,1.3,1.1,2.4,1.7,3.2c0.7,0.8,1.5,1.2,2.5,1.2c1,0,1.8-0.4,2.5-1.2c0.7-0.8,1.3-1.8,1.7-3.2c0.5-1.3,0.8-2.9,1-4.8
			C400.1,466.1,400.2,464.1,400.2,461.9z"/>
		<path d="M414.4,432.7c0,1-0.2,1.9-0.7,2.5c-0.5,0.7-1,1-1.6,1c-0.7,0-1.2-0.3-1.7-1s-0.7-1.5-0.7-2.5c0-1,0.2-1.8,0.7-2.5
			c0.4-0.7,1-1,1.7-1c0.7,0,1.2,0.3,1.7,1C414.2,430.9,414.4,431.7,414.4,432.7z M410.3,480.1v-36.3h3.5v36.3H410.3z"/>
		<path d="M422,480.1v-55.3h3.5v55.3H422z"/>
		<path d="M437.6,432.7c0,1-0.2,1.9-0.7,2.5c-0.5,0.7-1,1-1.6,1c-0.7,0-1.2-0.3-1.7-1s-0.7-1.5-0.7-2.5c0-1,0.2-1.8,0.7-2.5
			c0.4-0.7,1-1,1.7-1c0.7,0,1.2,0.3,1.7,1C437.4,430.9,437.6,431.7,437.6,432.7z M433.6,480.1v-36.3h3.5v36.3H433.6z"/>
		<path d="M452.3,480.7c-0.6,0.2-1.1,0.3-1.7,0.3c-1.8,0-3.1-0.9-3.9-2.6c-0.8-1.8-1.1-4.1-1.1-7v-23.6h-3.4v-3.9h3.4v-10h3.4v10
			h4.6v3.9h-4.6v22.7c0,2.2,0.2,3.8,0.7,4.8c0.5,1,1.1,1.5,2.1,1.5c0.3,0,0.7-0.1,1-0.2c0.4-0.1,0.7-0.3,0.9-0.4l0.2,3.9
			C453.3,480.3,452.8,480.5,452.3,480.7z"/>
		<path d="M469.4,480.1c0-0.4-0.1-0.9-0.1-1.5c0-0.6,0-1.2-0.1-1.9c0-0.7,0-1.3,0-1.9c0-0.6,0-1.1,0-1.6h-0.1
			c-0.9,5.2-3,7.7-6.3,7.7c-0.7,0-1.5-0.2-2.2-0.6c-0.7-0.4-1.4-1-2-1.9c-0.6-0.9-1.1-2-1.5-3.3c-0.4-1.3-0.6-3-0.6-4.9
			c0-2.6,0.3-4.8,1-6.4c0.7-1.6,1.5-2.9,2.5-3.8c1-0.9,2.1-1.5,3.4-1.9c1.2-0.3,2.4-0.5,3.5-0.5h2.1v-1.9c0-3.2-0.4-5.5-1.3-6.9
			c-0.8-1.5-2-2.2-3.4-2.2c-1,0-1.9,0.4-2.7,1.1c-0.8,0.7-1.6,1.7-2.2,2.8l-1.8-3c0.8-1.6,1.9-2.8,3.2-3.7c1.3-0.9,2.6-1.3,3.9-1.3
			c2.7,0,4.7,1.2,5.9,3.7c1.2,2.5,1.7,6.1,1.7,10.9v15.1c0,0.5,0,1.1,0,1.8c0,0.7,0,1.5,0.1,2.2c0,0.8,0,1.5,0.1,2.1
			c0,0.7,0.1,1.2,0.1,1.6H469.4z M468.9,461.6h-2.1c-0.8,0-1.7,0.1-2.5,0.3c-0.8,0.2-1.6,0.6-2.2,1.2c-0.7,0.6-1.2,1.5-1.6,2.5
			c-0.4,1.1-0.6,2.5-0.6,4.2c0,2.5,0.4,4.4,1.2,5.5c0.8,1.1,1.7,1.7,2.6,1.7c1,0,1.8-0.4,2.5-1.2c0.7-0.8,1.2-1.9,1.6-3.1
			c0.4-1.3,0.7-2.7,0.9-4.2c0.2-1.5,0.3-3,0.3-4.4V461.6z"/>
		<path d="M487.2,481.2c-1.5,0-2.8-0.5-3.9-1.4s-2.1-2.3-2.8-3.9c-0.8-1.7-1.3-3.7-1.7-6.1c-0.4-2.4-0.6-5-0.6-7.9s0.2-5.5,0.6-7.9
			c0.4-2.4,1-4.4,1.7-6.1c0.8-1.7,1.7-3,2.9-3.9c1.1-0.9,2.4-1.4,3.9-1.4c1.3,0,2.5,0.3,3.4,1c0.9,0.7,1.7,1.5,2.3,2.4l-1.8,3.5
			c-0.4-0.8-0.9-1.5-1.6-2c-0.6-0.5-1.4-0.7-2.2-0.7c-0.9,0-1.8,0.4-2.5,1.1c-0.7,0.8-1.3,1.8-1.7,3.1c-0.5,1.3-0.8,2.9-1,4.8
			c-0.2,1.8-0.3,3.8-0.3,6c0,2.1,0.1,4.1,0.3,5.9c0.2,1.8,0.6,3.4,1,4.7c0.5,1.3,1,2.3,1.8,3.1c0.7,0.7,1.6,1.1,2.6,1.1
			c0.9,0,1.6-0.3,2.3-0.8c0.6-0.5,1.2-1.2,1.7-2.2l1.6,3.7C491.6,480,489.6,481.2,487.2,481.2z"/>
		<path d="M501.5,432.7c0,1-0.2,1.9-0.7,2.5c-0.5,0.7-1,1-1.6,1c-0.7,0-1.2-0.3-1.7-1s-0.7-1.5-0.7-2.5c0-1,0.2-1.8,0.7-2.5
			c0.4-0.7,1-1,1.7-1s1.2,0.3,1.7,1C501.3,430.9,501.5,431.7,501.5,432.7z M497.5,480.1v-36.3h3.5v36.3H497.5z"/>
		<path d="M525.8,462c0,2.9-0.2,5.5-0.6,7.8c-0.4,2.3-1,4.4-1.8,6.1c-0.8,1.7-1.7,3-2.9,3.9c-1.1,0.9-2.4,1.4-3.8,1.4
			s-2.7-0.5-3.8-1.4c-1.1-0.9-2.1-2.2-2.9-3.9c-0.8-1.7-1.4-3.7-1.8-6.1c-0.4-2.3-0.6-4.9-0.6-7.8c0-2.9,0.2-5.5,0.6-7.9
			c0.4-2.4,1-4.4,1.8-6.1c0.8-1.7,1.7-3,2.9-3.9c1.1-0.9,2.4-1.4,3.9-1.4c1.4,0,2.7,0.5,3.8,1.4s2.1,2.2,2.9,3.9
			c0.8,1.7,1.4,3.8,1.8,6.1C525.6,456.5,525.8,459.1,525.8,462z M522.2,461.9c0-2.1-0.1-4.1-0.3-6c-0.2-1.8-0.6-3.4-1-4.8
			c-0.5-1.3-1-2.4-1.7-3.2c-0.7-0.8-1.5-1.2-2.5-1.2c-0.9,0-1.8,0.4-2.5,1.2c-0.7,0.8-1.3,1.8-1.7,3.2c-0.4,1.3-0.8,2.9-1,4.8
			c-0.2,1.8-0.3,3.8-0.3,6s0.1,4.1,0.3,5.9c0.2,1.8,0.6,3.4,1,4.7c0.4,1.4,1,2.4,1.7,3.2c0.7,0.8,1.5,1.1,2.5,1.1
			c1,0,1.8-0.4,2.5-1.1c0.7-0.8,1.3-1.8,1.7-3.2c0.4-1.4,0.8-2.9,1-4.7C522.1,466,522.2,464,522.2,461.9z M517.6,438.5h-3l4.8-10.5
			h3.8L517.6,438.5z"/>
		<path d="M545.7,480.1v-23.4c0-1.1,0-2.3-0.1-3.4c-0.1-1.1-0.3-2.2-0.6-3.1c-0.3-1-0.7-1.7-1.3-2.3s-1.3-0.9-2.1-0.9
			c-0.9,0-1.7,0.3-2.4,1c-0.7,0.7-1.3,1.6-1.7,2.7c-0.5,1.1-0.8,2.5-1.1,3.9c-0.3,1.5-0.4,3-0.4,4.6v20.9h-3.5v-27.1
			c0-0.8,0-1.6,0-2.5c0-0.9,0-1.8-0.1-2.6c0-0.9,0-1.6-0.1-2.3c0-0.7,0-1.3-0.1-1.6h3.4c0.1,0.9,0.1,2,0.2,3.4
			c0,1.3,0.1,2.6,0.1,3.7h0.1c0.5-2.4,1.3-4.4,2.4-6c1.1-1.5,2.5-2.3,4.2-2.3c1.4,0,2.5,0.4,3.4,1.2c0.9,0.8,1.5,1.9,2,3.3
			c0.5,1.3,0.8,2.9,0.9,4.5c0.2,1.7,0.2,3.4,0.2,5v23.4H545.7z"/>
	</g>
</g>
</svg>
