<?xml version="1.0" encoding="utf-8"?>
<!-- Generator: Adobe Illustrator 21.0.2, SVG Export Plug-In . SVG Version: 6.00 Build 0)  -->
<svg version="1.1" id="Capa_1" xmlns="http://www.w3.org/2000/svg" xmlns:xlink="http://www.w3.org/1999/xlink" x="0px" y="0px"
	 viewBox="0 0 907 801.5" style="enable-background:new 0 0 907 801.5;" xml:space="preserve">
<style type="text/css">
	.st0{fill:#EEEEED;}
	.st1{fill:#CECECE;}
	.st2{fill:#A1E5E4;}
	.st3{fill:#80C4C2;}
	.st4{fill:#1E120D;}
	.st5{fill:#737373;}
	.st6{fill:#FFFFFF;}
	.st7{fill:#EEEEEE;}
</style>
<g>
	<g>
		<g>
			<g>
				<g>
					<rect y="123" class="st0" width="907" height="678.3"/>
				</g>
				<g>
					<rect x="453.5" y="68.1" class="st1" width="453.5" height="733.2"/>
				</g>
				<g>
					<rect x="343.8" y="627.8" class="st2" width="221.3" height="173.6"/>
				</g>
				<g>
					<rect x="453.5" y="628" class="st3" width="111.5" height="173.5"/>
				</g>
				<g>
					<rect x="452.3" y="628" class="st4" width="2.5" height="173.5"/>
				</g>
			</g>
			<g>
				<rect x="0" y="68.1" class="st5" width="907" height="54.9"/>
			</g>
			<g>
				<rect x="176.2" y="328.2" class="st2" width="44" height="52.3"/>
			</g>
			<g>
				<rect x="88.2" y="328.1" class="st2" width="44" height="52.3"/>
			</g>
			<g>
				<rect x="308" y="328.6" class="st2" width="44" height="52.3"/>
			</g>
			<g>
				<rect x="396.6" y="328.6" class="st2" width="44" height="52.3"/>
			</g>
			<g>
				<rect x="554.4" y="328.4" class="st3" width="44" height="52.3"/>
			</g>
			<g>
				<rect x="466.5" y="328.4" class="st3" width="44" height="52.3"/>
			</g>
			<g>
				<rect x="687.1" y="327.8" class="st3" width="44" height="52.3"/>
			</g>
			<g>
				<rect x="775.1" y="327.9" class="st3" width="44" height="52.3"/>
			</g>
			<g>
				<rect x="176.2" y="242.7" class="st2" width="44" height="52.3"/>
			</g>
			<g>
				<rect x="88.2" y="242.6" class="st2" width="44" height="52.3"/>
			</g>
			<g>
				<rect x="308" y="243.1" class="st2" width="44" height="52.3"/>
			</g>
			<g>
				<rect x="396.6" y="243.1" class="st2" width="44" height="52.3"/>
			</g>
			<g>
				<rect x="554.4" y="242.9" class="st3" width="44" height="52.3"/>
			</g>
			<g>
				<rect x="466.5" y="242.9" class="st3" width="44" height="52.3"/>
			</g>
			<g>
				<rect x="687.1" y="242.4" class="st3" width="44" height="52.3"/>
			</g>
			<g>
				<rect x="775.1" y="242.4" class="st3" width="44" height="52.3"/>
			</g>
			<g>
				<rect x="292.6" class="st6" width="322" height="166.9"/>
			</g>
			<g>
				<rect x="453.5" y="0.1" class="st7" width="161" height="166.8"/>
			</g>
		</g>
	</g>
	<g>
		<rect x="176.1" y="413.8" class="st2" width="44" height="52.3"/>
	</g>
	<g>
		<rect x="88.1" y="413.7" class="st2" width="44" height="52.3"/>
	</g>
	<g>
		<rect x="308" y="414.2" class="st2" width="44" height="52.3"/>
	</g>
	<g>
		<rect x="396.6" y="414.2" class="st2" width="44" height="52.3"/>
	</g>
	<g>
		<rect x="554.4" y="414" class="st3" width="44" height="52.3"/>
	</g>
	<g>
		<rect x="466.5" y="414" class="st3" width="44" height="52.3"/>
	</g>
	<g>
		<rect x="687" y="413.5" class="st3" width="44" height="52.3"/>
	</g>
	<g>
		<rect x="775" y="413.5" class="st3" width="44" height="52.3"/>
	</g>
	<g>
		<rect x="176.1" y="498.9" class="st2" width="44" height="52.3"/>
	</g>
	<g>
		<rect x="88.1" y="498.8" class="st2" width="44" height="52.3"/>
	</g>
	<g>
		<rect x="308" y="499.3" class="st2" width="44" height="52.3"/>
	</g>
	<g>
		<rect x="396.6" y="499.3" class="st2" width="44" height="52.3"/>
	</g>
	<g>
		<rect x="554.4" y="499.1" class="st3" width="44" height="52.3"/>
	</g>
	<g>
		<rect x="466.5" y="499.1" class="st3" width="44" height="52.3"/>
	</g>
	<g>
		<rect x="687" y="498.6" class="st3" width="44" height="52.3"/>
	</g>
	<g>
		<rect x="775" y="498.6" class="st3" width="44" height="52.3"/>
	</g>
	<g>
		<rect x="88.2" y="584.3" class="st2" width="219.8" height="117.7"/>
	</g>
	<g>
		<rect x="599.2" y="585.2" class="st3" width="219.8" height="117.7"/>
	</g>
	<g>
		<rect x="141.8" y="584" class="st4" width="5.1" height="117.7"/>
	</g>
	<g>
		<rect x="251.6" y="584" class="st4" width="5.1" height="117.7"/>
	</g>
	<g>
		<rect x="651.7" y="585.2" class="st4" width="5.1" height="117.7"/>
	</g>
	<g>
		<rect x="761.4" y="585.2" class="st4" width="5.1" height="117.7"/>
	</g>
	<g>
		<path d="M346.9,115.8V75.1h-27.6v40.7h-7.1V30.1h7.1v37.5h27.6V30.1h7.1v85.8H346.9z"/>
		<path d="M402.4,85.9c0,4.8-0.4,9.1-1.2,13c-0.8,3.9-2,7.2-3.5,10.1c-1.5,2.8-3.3,5-5.6,6.5c-2.2,1.5-4.7,2.3-7.4,2.3
			s-5.2-0.8-7.3-2.3c-2.2-1.5-4-3.7-5.6-6.5c-1.5-2.8-2.7-6.2-3.5-10.1c-0.8-3.9-1.2-8.2-1.2-13s0.4-9.1,1.2-13.1
			c0.8-4,1.9-7.3,3.4-10.2c1.5-2.8,3.3-5,5.6-6.5c2.2-1.5,4.7-2.3,7.5-2.3c2.7,0,5.2,0.8,7.4,2.3c2.2,1.5,4.1,3.7,5.6,6.5
			c1.5,2.8,2.6,6.2,3.5,10.2C401.9,76.8,402.4,81.2,402.4,85.9z M395.4,85.7c0-3.5-0.2-6.8-0.7-9.9c-0.4-3.1-1.1-5.7-2-7.9
			c-0.9-2.2-2-4-3.3-5.3c-1.3-1.3-2.9-1.9-4.7-1.9c-1.8,0-3.4,0.6-4.8,1.9s-2.5,3-3.3,5.3c-0.9,2.2-1.5,4.9-1.9,7.9
			c-0.4,3.1-0.7,6.4-0.7,9.9c0,3.5,0.2,6.8,0.7,9.8c0.4,3,1.1,5.6,1.9,7.9c0.8,2.3,2,4,3.3,5.3c1.4,1.2,3,1.9,4.8,1.9
			c1.8,0,3.4-0.6,4.8-1.9c1.4-1.3,2.5-3,3.3-5.3c0.8-2.3,1.5-4.9,1.9-7.9C395.2,92.5,395.4,89.3,395.4,85.7z"/>
		<path d="M434.3,66.2c-0.9-1.8-2-3.2-3.4-4.3c-1.4-1.1-3.1-1.6-5-1.6c-2.2,0-4,1-5.4,2.8c-1.4,1.9-2.1,4.4-2.1,7.4
			c0,3.2,0.7,5.6,2,7c1.4,1.5,3.4,2.8,6.1,4c1.4,0.6,2.7,1.4,4.1,2.4c1.4,0.9,2.6,2.1,3.6,3.5c1.1,1.4,1.9,3,2.6,4.9
			c0.7,1.9,1,4.2,1,6.8c0,5.9-1.3,10.5-4,13.7c-2.7,3.3-6.2,4.9-10.4,4.9c-2.9,0-5.5-0.8-7.8-2.4c-2.4-1.6-4.3-3.7-5.9-6.4l4.1-5.2
			c1.2,2.1,2.5,3.8,4.1,5.1c1.6,1.3,3.5,2,5.7,2c2.4,0,4.3-1,5.8-3.1c1.5-2.1,2.2-4.8,2.2-8.2c0-1.9-0.3-3.6-0.8-4.9
			c-0.5-1.3-1.3-2.4-2.1-3.3c-0.9-0.9-1.9-1.7-3-2.3c-1.1-0.6-2.3-1.3-3.5-1.8c-1.3-0.6-2.5-1.3-3.7-2.1c-1.2-0.8-2.3-1.9-3.2-3.1
			c-1-1.3-1.7-2.8-2.3-4.7c-0.6-1.8-0.9-4-0.9-6.6c0-2.5,0.4-4.8,1.1-6.9c0.7-2.1,1.7-3.9,3-5.4c1.3-1.5,2.8-2.7,4.4-3.5
			c1.7-0.8,3.5-1.3,5.5-1.3c2.9,0,5.3,0.7,7.4,2c2.1,1.3,3.8,3,5,5.1L434.3,66.2z"/>
		<path d="M484.5,85.9c0,4.7-0.3,9-1,12.8c-0.7,3.9-1.7,7.2-3.1,10.1c-1.4,2.8-3,5-5,6.6c-2,1.6-4.3,2.4-6.9,2.4
			c-3.1,0-5.6-1.1-7.7-3.4c-2.1-2.3-3.5-5.2-4.3-8.8h-0.1v39.4h-6.7V55.8h6.5v10.8h0.2c0.8-3.7,2.2-6.8,4.1-9.1
			c1.9-2.4,4.6-3.6,8.1-3.6c2.5,0,4.8,0.8,6.8,2.4c2,1.6,3.7,3.8,5,6.7c1.4,2.8,2.4,6.2,3.1,10.1C484.1,76.9,484.5,81.2,484.5,85.9z
			 M477.6,85.7c0-3.5-0.2-6.7-0.6-9.7c-0.4-3-1.1-5.7-1.9-7.9c-0.9-2.3-2-4-3.3-5.3c-1.3-1.3-2.9-1.9-4.7-1.9s-3.4,0.6-4.7,1.9
			c-1.3,1.3-2.4,3.1-3.4,5.3c-0.9,2.3-1.6,4.9-2,7.9c-0.4,3-0.7,6.3-0.7,9.7c0,3.6,0.2,6.9,0.7,9.9c0.4,3.1,1.1,5.7,2,7.9
			c0.9,2.2,2.1,4,3.4,5.3c1.4,1.3,2.9,1.9,4.7,1.9c1.8,0,3.4-0.6,4.7-1.9c1.3-1.3,2.4-3,3.3-5.3c0.9-2.2,1.5-4.9,1.9-7.9
			C477.4,92.5,477.6,89.2,477.6,85.7z"/>
		<path d="M505,37.3c0,1.7-0.4,3.1-1.3,4.2c-0.9,1.1-1.9,1.6-3.2,1.6c-1.3,0-2.4-0.5-3.2-1.6S496,39,496,37.3c0-1.6,0.4-3,1.3-4.1
			c0.8-1.1,1.9-1.7,3.2-1.7c1.3,0,2.4,0.6,3.2,1.7C504.5,34.4,505,35.7,505,37.3z M497.1,115.8V55.8h6.7v60.1H497.1z"/>
		<path d="M533.2,116.9c-1.1,0.3-2.2,0.5-3.4,0.5c-3.5,0-6-1.5-7.5-4.4c-1.5-2.9-2.2-6.8-2.2-11.6V62.3h-6.6v-6.5h6.5V39.2h6.6v16.6
			h9v6.5h-9V100c0,3.6,0.4,6.3,1.3,7.9c0.9,1.7,2.2,2.5,4,2.5c0.6,0,1.3-0.1,1.9-0.3c0.7-0.2,1.3-0.4,1.7-0.7l0.3,6.4
			C535.2,116.2,534.3,116.6,533.2,116.9z"/>
		<path d="M566.2,115.8c-0.1-0.6-0.1-1.5-0.2-2.4c0-1-0.1-2-0.1-3.1c0-1.1,0-2.1,0-3.1c0-1,0-1.9,0-2.6h-0.2
			c-1.7,8.6-5.8,12.8-12.2,12.8c-1.4,0-2.9-0.3-4.3-1c-1.4-0.6-2.7-1.7-3.9-3.1c-1.2-1.5-2.1-3.3-2.9-5.5c-0.7-2.2-1.1-4.9-1.1-8.1
			c0-4.4,0.6-7.9,1.9-10.5c1.3-2.7,2.9-4.8,4.9-6.3c2-1.5,4.1-2.6,6.5-3.1c2.3-0.5,4.6-0.8,6.7-0.8h4v-3.1c0-5.2-0.8-9.1-2.4-11.5
			c-1.6-2.4-3.8-3.6-6.6-3.6c-1.9,0-3.7,0.6-5.3,1.8c-1.6,1.2-3,2.7-4.2,4.6l-3.6-5c1.6-2.7,3.6-4.7,6.1-6.2c2.5-1.5,5-2.2,7.5-2.2
			c5.3,0,9.1,2.1,11.3,6.2c2.2,4.1,3.4,10.1,3.4,18v25c0,0.8,0,1.8,0,3c0,1.2,0.1,2.4,0.1,3.7c0,1.3,0.1,2.4,0.2,3.5
			c0.1,1.1,0.1,2,0.2,2.6H566.2z M565.4,85.3h-4.1c-1.6,0-3.3,0.2-4.9,0.5c-1.6,0.4-3.1,1.1-4.3,2.1c-1.3,1-2.3,2.4-3.1,4.2
			c-0.8,1.8-1.2,4.1-1.2,6.9c0,4.2,0.8,7.2,2.3,9.1c1.6,1.9,3.3,2.8,5.1,2.8c1.9,0,3.5-0.7,4.8-2.1c1.3-1.4,2.4-3.1,3.2-5.2
			c0.8-2.1,1.3-4.4,1.7-6.9c0.3-2.5,0.5-4.9,0.5-7.3V85.3z"/>
		<path d="M586.2,115.8V24.3h6.7v91.6H586.2z"/>
	</g>
</g>
</svg>
