<?xml version="1.0" encoding="utf-8"?>
<!-- Generator: Adobe Illustrator 21.0.2, SVG Export Plug-In . SVG Version: 6.00 Build 0)  -->
<svg version="1.1" id="Capa_1" xmlns="http://www.w3.org/2000/svg" xmlns:xlink="http://www.w3.org/1999/xlink" x="0px" y="0px"
	 viewBox="0 0 834.7 734.2" style="enable-background:new 0 0 834.7 734.2;" xml:space="preserve">
<style type="text/css">
	.st0{fill:#EEEEED;}
	.st1{fill:#CECECE;}
	.st2{fill:#A0A0A0;}
	.st3{fill:#A1E5E4;}
	.st4{fill:#80C4C2;}
	.st5{fill:#FFFFFF;}
	.st6{fill:#1E120D;}
	.st7{fill:#737373;}
	.st8{fill:#D8D8D8;}
	.st9{fill:#DE0209;}
	.st10{fill:#B5020F;}
	.st11{fill:#D37D32;}
	.st12{fill:#AB5B16;}
	.st13{fill:#00CC5E;}
	.st14{fill:#009922;}
	.st15{fill:#EEEEEE;}
</style>
<g>
	<g>
		<g>
			<rect y="0" class="st0" width="834.6" height="733.9"/>
		</g>
		<g>
			<rect x="414.1" class="st1" width="420.5" height="734"/>
		</g>
		<g>
			<rect x="34.1" y="11.1" class="st2" width="760" height="91.4"/>
		</g>
		<g>
			<rect x="317.8" y="294.3" class="st3" width="192.8" height="439.3"/>
		</g>
		<g>
			<rect x="63.7" y="182.5" class="st3" width="203.8" height="371.6"/>
		</g>
		<g>
			<rect x="560.5" y="182.4" class="st4" width="203.8" height="371.6"/>
		</g>
		<g>
			<line class="st5" x1="63.6" y1="368.3" x2="267.4" y2="368.3"/>
			<rect x="63.6" y="365.3" class="st6" width="203.7" height="6"/>
		</g>
		<g>
			<line class="st5" x1="560.7" y1="368.3" x2="764.3" y2="368.3"/>
			<rect x="560.7" y="365.3" class="st6" width="203.7" height="6"/>
		</g>
		<g>
			<rect x="414.1" y="294.1" class="st4" width="96.2" height="440.1"/>
		</g>
		<g>
			<path class="st5" d="M414.2,324.1c-39.1,0-70.7,40.2-70.7,89.7c0,49.5,31.7,89.7,70.7,89.7c39.1,0,70.7-40.2,70.7-89.7
				C485,364.3,453.3,324.1,414.2,324.1z M414.2,481.4c-29.4,0-53.3-30.3-53.3-67.6c0-37.3,23.9-67.6,53.3-67.6
				c29.4,0,53.3,30.3,53.3,67.6C467.6,451.2,443.7,481.4,414.2,481.4z"/>
		</g>
		<g>
			<rect x="414.1" y="11" class="st7" width="380.1" height="91.4"/>
		</g>
		<g>
			<path class="st8" d="M414.1,324.2L414.1,324.2l0,22.1h0c29.4,0,53.3,30.3,53.3,67.6c0,37.3-23.9,67.6-53.3,67.6h0v22.1h0
				c39.1,0,70.7-40.2,70.7-89.7C484.9,364.4,453.2,324.2,414.1,324.2z"/>
		</g>
		<g>
			<g>
				<path class="st9" d="M451.7,408.2c0-16.2-10.4-29.3-23.1-29.3c-5.5,0-10.5,2.4-14.4,6.4c-4-4-9-6.4-14.4-6.4
					c-12.8,0-23.1,13.1-23.1,29.3c0,6.2,1.5,11.9,4.1,16.6c2.6,6.2,6.9,14.1,13.5,21c6.5,6.9,9.7,10.6,11.1,12.5
					c1.8,2.4,4.6,3.2,7,1.8c0,0,0.1,0,0.1-0.1c0.6-0.4,1.5-0.9,1.8-1.5l0,0.1l0.1,0.1c2.5,3.4,6.3,3.2,8.8-0.1
					c1.6-2,4.7-5.7,10.9-12.3c7.2-7.6,11.6-16.4,14.2-22.8C450.4,419.3,451.7,414,451.7,408.2z"/>
			</g>
			<g>
				<path class="st10" d="M428.6,378.9c-5.5,0-10.5,2.4-14.4,6.4v73.3l0,0.1l0.1,0.1c2.5,3.4,6.3,3.2,8.8-0.1
					c1.6-2,4.7-5.7,10.9-12.3c7.2-7.6,11.6-16.4,14.2-22.8c2.2-4.5,3.5-9.8,3.5-15.6C451.7,392.1,441.4,378.9,428.6,378.9z"/>
			</g>
			<g>
				<path class="st11" d="M412.1,392.4c0,0,2.6-19.8,13.7-30.6l6.7,0.8c0,0-15.1,15.9-16.3,30.2L412.1,392.4z"/>
			</g>
			<g>
				<path class="st12" d="M414,392.6c0,0,5.1-24.5,16.2-30.2l2.3,0.3c0,0-14.7,15.1-16.3,30.2L414,392.6z"/>
			</g>
			<g>
				<path class="st13" d="M420.3,380.5c0,0,6.4-12.7,26.9-6c0,0-2.7,23-31.5,18.3C415.8,392.8,416.6,385.9,420.3,380.5z"/>
			</g>
			<g>
				<path class="st14" d="M415.8,392.8c0,0,14.9-23.5,31.5-18.3C447.3,374.5,444,398,415.8,392.8z"/>
			</g>
		</g>
	</g>
	<g>
		<g>
			<rect x="329.5" y="211" class="st5" width="169.5" height="84.4"/>
		</g>
	</g>
	<g>
		<g>
			<rect x="414.3" y="211.1" class="st15" width="84.8" height="84.4"/>
		</g>
	</g>
	<g>
		<g>
			<path d="M350.4,270.4l-10.5-31.7h-0.1v31.7H337v-38.1h3.7l10.4,31.7h0.1v-31.7h2.7v38.1H350.4z"/>
		</g>
		<g>
			<path d="M363.3,243.7V261c0,0.8,0,1.7,0.1,2.5c0.1,0.8,0.2,1.6,0.5,2.3c0.2,0.7,0.6,1.3,1,1.7c0.4,0.4,1,0.7,1.7,0.7
				c0.7,0,1.3-0.2,1.9-0.7c0.6-0.5,1-1.1,1.4-2c0.4-0.8,0.7-1.8,0.9-2.9s0.3-2.2,0.3-3.4v-15.4h2.8v20c0,0.6,0,1.2,0,1.9
				c0,0.7,0,1.3,0,1.9c0,0.6,0,1.2,0,1.7c0,0.5,0,0.9,0.1,1.2h-2.7c-0.1-0.7-0.1-1.5-0.1-2.5s0-1.9,0-2.7h-0.1c-0.4,1.8-1,3.3-2,4.4
				c-0.9,1.1-2,1.7-3.4,1.7c-1.1,0-2-0.3-2.7-0.9c-0.7-0.6-1.2-1.4-1.6-2.4c-0.4-1-0.6-2.1-0.7-3.3c-0.1-1.2-0.2-2.5-0.2-3.7v-17.2
				H363.3z"/>
		</g>
		<g>
			<path d="M386.3,270.9c-0.5,0.1-0.9,0.2-1.4,0.2c-1.5,0-2.5-0.6-3.1-1.9s-0.9-3-0.9-5.2v-17.4h-2.8v-2.9h2.7v-7.4h2.8v7.4h3.7v2.9
				h-3.7v16.7c0,1.6,0.2,2.8,0.6,3.5c0.4,0.7,0.9,1.1,1.7,1.1c0.3,0,0.5,0,0.8-0.1c0.3-0.1,0.5-0.2,0.7-0.3l0.1,2.9
				C387.1,270.6,386.7,270.8,386.3,270.9z"/>
		</g>
		<g>
			<path d="M396,244.5c0.8-1,1.8-1.6,2.8-1.6c0.2,0,0.4,0,0.5,0.1l-0.1,3.7c-0.1,0-0.2-0.1-0.3-0.1c-0.1,0-0.2,0-0.4,0
				c-0.7,0-1.3,0.3-1.9,0.9c-0.6,0.6-1,1.4-1.4,2.4c-0.4,1-0.6,2.1-0.8,3.3c-0.2,1.2-0.3,2.5-0.3,3.7v13.6h-2.8v-20
				c0-0.6,0-1.2,0-1.9c0-0.7,0-1.3,0-1.9c0-0.6,0-1.2,0-1.7c0-0.5,0-0.9-0.1-1.2h2.7c0.1,0.7,0.1,1.5,0.1,2.6c0,1,0,2.1,0,3.3h0.1
				C394.5,247.2,395.2,245.5,396,244.5z"/>
		</g>
		<g>
			<path d="M406.1,235.6c0,0.8-0.2,1.4-0.6,1.9c-0.4,0.5-0.8,0.7-1.3,0.7c-0.5,0-1-0.2-1.3-0.7c-0.3-0.5-0.5-1.1-0.5-1.9
				c0-0.7,0.2-1.3,0.5-1.8c0.4-0.5,0.8-0.8,1.3-0.8c0.5,0,1,0.3,1.3,0.8C405.9,234.2,406.1,234.8,406.1,235.6z M402.8,270.4v-26.7
				h2.8v26.7H402.8z"/>
		</g>
		<g>
			<path d="M425.5,257.1c0,2.1-0.2,4-0.5,5.8c-0.3,1.7-0.8,3.2-1.4,4.5c-0.6,1.3-1.4,2.2-2.3,2.9c-0.9,0.7-1.9,1-3.1,1
				c-1.1,0-2.2-0.3-3.1-1c-0.9-0.7-1.7-1.6-2.3-2.9c-0.6-1.3-1.1-2.7-1.5-4.5c-0.3-1.7-0.5-3.6-0.5-5.8c0-2.1,0.2-4.1,0.5-5.8
				c0.3-1.8,0.8-3.3,1.4-4.5c0.6-1.3,1.4-2.2,2.3-2.9c0.9-0.7,2-1,3.1-1c1.1,0,2.2,0.3,3.1,1c0.9,0.7,1.7,1.6,2.3,2.9
				c0.6,1.3,1.1,2.8,1.4,4.5C425.4,253.1,425.5,255,425.5,257.1z M422.7,257.1c0-1.6-0.1-3-0.3-4.4c-0.2-1.4-0.5-2.5-0.8-3.5
				c-0.4-1-0.8-1.8-1.4-2.3s-1.2-0.9-2-0.9c-0.8,0-1.4,0.3-2,0.9c-0.6,0.6-1,1.4-1.4,2.3s-0.6,2.2-0.8,3.5c-0.2,1.4-0.3,2.8-0.3,4.4
				c0,1.6,0.1,3,0.3,4.3c0.2,1.3,0.5,2.5,0.8,3.5c0.4,1,0.8,1.8,1.4,2.3c0.6,0.6,1.2,0.8,2,0.8c0.8,0,1.4-0.3,2-0.8
				c0.6-0.6,1-1.3,1.4-2.3c0.4-1,0.6-2.2,0.8-3.5C422.6,260.1,422.7,258.6,422.7,257.1z M419,239.8h-2.4l3.8-7.7h3.1L419,239.8z"/>
		</g>
		<g>
			<path d="M430.8,270.4v-40.7h2.8v40.7H430.8z"/>
		</g>
		<g>
			<path d="M453.5,257.1c0,2.1-0.2,4-0.5,5.8c-0.3,1.7-0.8,3.2-1.4,4.5c-0.6,1.3-1.4,2.2-2.3,2.9c-0.9,0.7-1.9,1-3.1,1
				c-1.1,0-2.2-0.3-3.1-1c-0.9-0.7-1.7-1.6-2.3-2.9c-0.6-1.3-1.1-2.7-1.5-4.5c-0.3-1.7-0.5-3.6-0.5-5.8c0-2.1,0.2-4.1,0.5-5.8
				c0.3-1.8,0.8-3.3,1.4-4.5c0.6-1.3,1.4-2.2,2.3-2.9c0.9-0.7,2-1,3.1-1c1.1,0,2.2,0.3,3.1,1c0.9,0.7,1.7,1.6,2.3,2.9
				c0.6,1.3,1.1,2.8,1.4,4.5C453.4,253.1,453.5,255,453.5,257.1z M450.7,257.1c0-1.6-0.1-3-0.3-4.4c-0.2-1.4-0.5-2.5-0.8-3.5
				c-0.4-1-0.8-1.8-1.4-2.3s-1.2-0.9-2-0.9c-0.8,0-1.4,0.3-2,0.9c-0.6,0.6-1,1.4-1.4,2.3c-0.4,1-0.6,2.2-0.8,3.5
				c-0.2,1.4-0.3,2.8-0.3,4.4c0,1.6,0.1,3,0.3,4.3c0.2,1.3,0.5,2.5,0.8,3.5c0.4,1,0.8,1.8,1.4,2.3c0.6,0.6,1.2,0.8,2,0.8
				c0.8,0,1.4-0.3,2-0.8c0.6-0.6,1-1.3,1.4-2.3c0.4-1,0.6-2.2,0.8-3.5C450.6,260.1,450.7,258.6,450.7,257.1z"/>
		</g>
		<g>
			<path d="M472,270.1c0,1.9-0.1,3.7-0.4,5.3c-0.2,1.6-0.6,3-1.2,4.2c-0.6,1.2-1.3,2.1-2.3,2.8c-1,0.7-2.2,1-3.6,1
				c-1.4,0-2.7-0.4-3.9-1.2c-1.2-0.8-2.2-1.9-2.9-3.3l1.8-2.5c0.6,1.1,1.3,2,2.1,2.7c0.9,0.7,1.8,1,2.9,1c0.9,0,1.7-0.3,2.3-0.8
				c0.6-0.5,1.1-1.2,1.4-2.1c0.3-0.9,0.6-2,0.7-3.2c0.1-1.2,0.2-2.6,0.2-4v-4.4h-0.1c-0.3,1.6-0.9,3-1.7,4c-0.8,1.1-1.9,1.6-3.4,1.6
				c-1.1,0-2-0.4-2.8-1.1c-0.8-0.7-1.5-1.7-2.1-3c-0.6-1.3-1-2.8-1.3-4.5c-0.3-1.7-0.4-3.6-0.4-5.7c0-2.1,0.1-4,0.4-5.7
				c0.3-1.7,0.7-3.2,1.3-4.4c0.6-1.2,1.2-2.2,2.1-2.9c0.8-0.7,1.8-1,2.9-1c1.3,0,2.4,0.5,3.2,1.5c0.9,1,1.5,2.3,1.8,3.9h0.1v-4.5
				h2.7V270.1z M469.3,257.1c0-1.5-0.1-3-0.3-4.4c-0.2-1.4-0.5-2.5-0.8-3.6c-0.4-1-0.9-1.8-1.4-2.4c-0.6-0.6-1.2-0.9-2-0.9
				c-0.8,0-1.4,0.3-2,0.9c-0.6,0.6-1,1.4-1.4,2.3c-0.4,1-0.6,2.2-0.8,3.5c-0.2,1.4-0.3,2.8-0.3,4.4c0,1.5,0.1,3,0.3,4.3
				c0.2,1.3,0.4,2.5,0.8,3.5c0.4,1,0.8,1.8,1.4,2.4c0.6,0.6,1.2,0.9,2,0.9c0.8,0,1.4-0.3,2-0.9c0.6-0.6,1-1.4,1.4-2.3
				c0.4-1,0.7-2.2,0.8-3.5C469.2,260.1,469.3,258.7,469.3,257.1z"/>
		</g>
		<g>
			<path d="M492,257.1c0,2.1-0.2,4-0.5,5.8c-0.3,1.7-0.8,3.2-1.4,4.5c-0.6,1.3-1.4,2.2-2.3,2.9c-0.9,0.7-1.9,1-3.1,1
				c-1.1,0-2.2-0.3-3.1-1c-0.9-0.7-1.7-1.6-2.3-2.9c-0.6-1.3-1.1-2.7-1.5-4.5c-0.3-1.7-0.5-3.6-0.5-5.8c0-2.1,0.2-4.1,0.5-5.8
				c0.3-1.8,0.8-3.3,1.4-4.5c0.6-1.3,1.4-2.2,2.3-2.9c0.9-0.7,2-1,3.1-1c1.1,0,2.2,0.3,3.1,1c0.9,0.7,1.7,1.6,2.3,2.9
				c0.6,1.3,1.1,2.8,1.4,4.5C491.8,253.1,492,255,492,257.1z M489.1,257.1c0-1.6-0.1-3-0.3-4.4c-0.2-1.4-0.5-2.5-0.8-3.5
				c-0.4-1-0.8-1.8-1.4-2.3s-1.2-0.9-2-0.9c-0.8,0-1.4,0.3-2,0.9c-0.6,0.6-1,1.4-1.4,2.3c-0.4,1-0.6,2.2-0.8,3.5
				c-0.2,1.4-0.3,2.8-0.3,4.4c0,1.6,0.1,3,0.3,4.3c0.2,1.3,0.5,2.5,0.8,3.5c0.4,1,0.8,1.8,1.4,2.3c0.6,0.6,1.2,0.8,2,0.8
				c0.8,0,1.4-0.3,2-0.8c0.6-0.6,1-1.3,1.4-2.3c0.4-1,0.6-2.2,0.8-3.5C489,260.1,489.1,258.6,489.1,257.1z"/>
		</g>
	</g>
</g>
</svg>
