<?xml version="1.0" encoding="utf-8"?>
<!-- Generator: Adobe Illustrator 21.0.2, SVG Export Plug-In . SVG Version: 6.00 Build 0)  -->
<svg version="1.1" id="Capa_1" xmlns="http://www.w3.org/2000/svg" xmlns:xlink="http://www.w3.org/1999/xlink" x="0px" y="0px"
	 viewBox="0 0 919.9 813.2" style="enable-background:new 0 0 919.9 813.2;" xml:space="preserve">
<style type="text/css">
	.st0{fill:#EEEEED;}
	.st1{fill:#CECECE;}
	.st2{fill:#A0A0A0;}
	.st3{fill:#A1E5E4;}
	.st4{fill:#80C4C2;}
	.st5{fill:#FFFFFF;stroke:#1E120D;stroke-miterlimit:10;}
	.st6{fill:#FFFFFF;}
	.st7{fill:#737373;}
	.st8{fill:#D8D8D8;}
	.st9{fill:#EEEEEE;}
</style>
<g>
	<g>
		<rect y="0" class="st0" width="919.9" height="813"/>
		<rect x="456.4" class="st1" width="463.5" height="813.2"/>
		<rect x="37.6" y="12.3" class="st2" width="837.6" height="101.3"/>
		<rect x="350.2" y="326" class="st3" width="212.4" height="487"/>
		<rect x="70.2" y="202.2" class="st3" width="224.6" height="411.7"/>
		<rect x="617.8" y="202.1" class="st4" width="224.6" height="411.7"/>
		<line class="st5" x1="70.1" y1="408" x2="294.7" y2="408"/>
		<line class="st5" x1="617.9" y1="408" x2="842.4" y2="408"/>
		<rect x="456.4" y="325.8" class="st4" width="106" height="487.4"/>
		<path class="st6" d="M456.5,359.1c-43,0-77.9,44.5-77.9,99.4c0,54.9,34.9,99.4,77.9,99.4c43,0,77.9-44.5,77.9-99.4
			C534.5,403.6,499.6,359.1,456.5,359.1z M456.5,533.3c-32.5,0-58.8-33.5-58.8-74.9c0-41.4,26.3-74.9,58.8-74.9
			c32.5,0,58.8,33.5,58.8,74.9C515.3,499.8,489,533.3,456.5,533.3z"/>
		<path class="st2" d="M70.2,202.2v202.5h224.6V202.2H70.2z M275,382.5H90v-158h185V382.5z"/>
		<path class="st2" d="M70.2,411.4v202.5h224.6V411.4H70.2z M275,591.6H90v-158h185V591.6z"/>
		<path class="st7" d="M617.8,202.1v202.5h224.6V202.1H617.8z M822.6,382.4h-185v-158h185V382.4z"/>
		<path class="st7" d="M617.8,411.3v202.5h224.6V411.3H617.8z M822.6,591.6h-185v-158h185V591.6z"/>
		<path class="st6" d="M489.9,436.9c0-12.2-7.8-22.1-17.3-22.1c-7.4,0-13.7,5.9-16.1,14.2c-2.5-8.3-8.7-14.2-16.1-14.2
			c-9.6,0-17.3,9.9-17.3,22.1c0,7.5,2.9,14,7.4,18l-0.1,0c0,0,3.6,3.4,2,12.9c-1.6,9.5,2,43,12.7,35.5c0,0-5-37.3,11.2-39.9h1.8
			c16.2,2.6,9.4,39.9,9.4,39.9c10.8,7.4,14.5-26.1,12.9-35.5c-1.4-8.3,1.1-11.8,1.8-12.6C486.8,451.3,489.9,444.6,489.9,436.9z"/>
		<rect x="456.4" y="12.2" class="st7" width="418.9" height="101.2"/>
		<path class="st8" d="M456.4,359.2L456.4,359.2l0,24.5h0c32.5,0,58.8,33.5,58.8,74.9c0,41.4-26.3,74.9-58.8,74.9h0v24.5h0
			c43,0,77.9-44.5,77.9-99.4C534.4,403.7,499.5,359.2,456.4,359.2z"/>
		<path class="st8" d="M472.6,414.9c-7.4,0-13.7,5.9-16.1,14.2l0,0v34.4h1.6c16.2,2.6,9.4,39.9,9.4,39.9
			c10.8,7.4,14.5-26.1,12.9-35.5c-1.4-8.3,1.1-11.8,1.8-12.6c4.7-4,7.8-10.7,7.8-18.4C489.9,424.8,482.1,414.9,472.6,414.9z"/>
	</g>
	<g>
		<rect x="363.1" y="232.5" class="st6" width="186.8" height="93.5"/>
	</g>
	<g>
		<rect x="456.5" y="232.5" class="st9" width="93.4" height="93.5"/>
	</g>
	<g>
		<path d="M411.1,278.2c0,3.5-0.3,6.5-0.8,9.1c-0.6,2.6-1.4,4.8-2.4,6.6c-1.1,1.8-2.3,3.1-3.8,4c-1.5,0.9-3.1,1.3-4.9,1.3H392V257
			h7.2c1.8,0,3.5,0.4,4.9,1.3c1.5,0.9,2.7,2.2,3.8,4c1,1.8,1.8,4,2.4,6.6C410.9,271.7,411.1,274.7,411.1,278.2z M407.9,278.2
			c0-3-0.2-5.6-0.7-7.8c-0.5-2.2-1.1-4-1.9-5.5c-0.8-1.4-1.7-2.5-2.8-3.2c-1.1-0.7-2.2-1.1-3.5-1.1h-3.8v35h3.8
			c1.2,0,2.4-0.4,3.5-1.1c1.1-0.7,2-1.8,2.8-3.2c0.8-1.4,1.4-3.2,1.9-5.4C407.7,283.7,407.9,281.1,407.9,278.2z"/>
		<path d="M418.8,285.3c0,1.6,0.1,3.1,0.3,4.5c0.2,1.4,0.5,2.6,1,3.6c0.4,1,1,1.8,1.6,2.4s1.4,0.9,2.3,0.9c1.1,0,2-0.4,2.7-1.3
			c0.7-0.9,1.2-1.9,1.6-3.2l2.3,1.7c-0.6,1.8-1.4,3.3-2.5,4.5c-1.1,1.2-2.5,1.8-4.2,1.8c-2.6,0-4.6-1.4-6-4.2
			c-1.4-2.8-2.2-6.6-2.2-11.5c0-2.3,0.2-4.4,0.6-6.4c0.4-1.9,0.9-3.6,1.6-5c0.7-1.4,1.6-2.5,2.6-3.2c1-0.8,2.1-1.2,3.4-1.2
			c1.4,0,2.5,0.4,3.5,1.1c0.9,0.8,1.7,1.8,2.3,3.1c0.6,1.3,1,2.8,1.3,4.6c0.3,1.8,0.4,3.6,0.4,5.6v2.1H418.8z M428.2,282
			c0-3-0.4-5.4-1.1-7.2c-0.7-1.8-1.8-2.7-3.4-2.7c-0.9,0-1.7,0.3-2.3,1c-0.6,0.7-1.1,1.6-1.5,2.6c-0.4,1-0.7,2.1-0.8,3.3
			c-0.2,1.2-0.3,2.2-0.3,3H428.2z"/>
		<path d="M448.8,299.2v-19.1c0-0.9,0-1.8-0.1-2.8c-0.1-0.9-0.3-1.8-0.5-2.6c-0.3-0.8-0.6-1.4-1.1-1.9c-0.5-0.5-1.1-0.7-1.9-0.7
			s-1.5,0.3-2.1,0.8c-0.6,0.5-1.1,1.3-1.5,2.2c-0.4,0.9-0.7,2-1,3.2c-0.2,1.2-0.4,2.5-0.4,3.8v17h-3.1v-22.1c0-0.6,0-1.3,0-2.1
			c0-0.7,0-1.4,0-2.1c0-0.7,0-1.3,0-1.9c0-0.6,0-1-0.1-1.3h3c0.1,0.8,0.1,1.7,0.1,2.7c0,1.1,0,2.1,0,3h0.1c0.4-2,1.2-3.6,2.1-4.9
			c1-1.3,2.2-1.9,3.7-1.9c1.2,0,2.3,0.3,3,1c0.8,0.7,1.3,1.6,1.8,2.7c0.4,1.1,0.7,2.3,0.8,3.7c0.1,1.4,0.2,2.7,0.2,4.1v19.1H448.8z"
			/>
		<path d="M465.2,299.8c-0.5,0.2-1,0.2-1.5,0.2c-1.6,0-2.8-0.7-3.4-2.1c-0.7-1.4-1-3.3-1-5.7v-19.2h-3v-3.2h3v-8.2h3v8.2h4.1v3.2
			h-4.1v18.5c0,1.8,0.2,3.1,0.6,3.9c0.4,0.8,1,1.2,1.8,1.2c0.3,0,0.6,0,0.9-0.1c0.3-0.1,0.6-0.2,0.8-0.3l0.1,3.2
			C466.1,299.4,465.7,299.6,465.2,299.8z"/>
		<path d="M474.2,260.6c0,0.8-0.2,1.5-0.6,2.1c-0.4,0.5-0.9,0.8-1.4,0.8c-0.6,0-1.1-0.3-1.5-0.8c-0.4-0.5-0.6-1.2-0.6-2.1
			c0-0.8,0.2-1.5,0.6-2c0.4-0.6,0.9-0.8,1.5-0.8c0.6,0,1.1,0.3,1.5,0.8C474,259.1,474.2,259.8,474.2,260.6z M470.6,299.2v-29.6h3.1
			v29.6H470.6z"/>
		<path d="M489.7,274.8c-0.4-0.9-0.9-1.6-1.6-2.1s-1.4-0.8-2.3-0.8c-1,0-1.8,0.5-2.5,1.4c-0.6,0.9-1,2.2-1,3.7
			c0,1.6,0.3,2.7,0.9,3.5c0.6,0.7,1.6,1.4,2.8,2c0.6,0.3,1.2,0.7,1.9,1.2c0.6,0.5,1.2,1,1.7,1.7c0.5,0.7,0.9,1.5,1.2,2.4
			c0.3,0.9,0.5,2.1,0.5,3.4c0,2.9-0.6,5.2-1.8,6.8c-1.2,1.6-2.8,2.4-4.8,2.4c-1.3,0-2.5-0.4-3.6-1.2c-1.1-0.8-2-1.8-2.7-3.1l1.9-2.6
			c0.5,1,1.2,1.9,1.9,2.5c0.7,0.7,1.6,1,2.6,1c1.1,0,2-0.5,2.6-1.5c0.7-1,1-2.4,1-4c0-1-0.1-1.8-0.4-2.4c-0.2-0.7-0.6-1.2-1-1.6
			c-0.4-0.4-0.9-0.8-1.4-1.1c-0.5-0.3-1.1-0.6-1.6-0.9c-0.6-0.3-1.2-0.6-1.7-1c-0.5-0.4-1-0.9-1.5-1.6s-0.8-1.4-1.1-2.3
			c-0.3-0.9-0.4-2-0.4-3.2c0-1.2,0.2-2.4,0.5-3.4c0.3-1,0.8-1.9,1.4-2.7c0.6-0.7,1.3-1.3,2-1.7c0.8-0.4,1.6-0.6,2.5-0.6
			c1.3,0,2.4,0.3,3.4,1c1,0.7,1.7,1.5,2.3,2.5L489.7,274.8z"/>
		<path d="M503,299.8c-0.5,0.2-1,0.2-1.5,0.2c-1.6,0-2.8-0.7-3.4-2.1c-0.7-1.4-1-3.3-1-5.7v-19.2h-3v-3.2h3v-8.2h3v8.2h4.1v3.2H500
			v18.5c0,1.8,0.2,3.1,0.6,3.9c0.4,0.8,1,1.2,1.8,1.2c0.3,0,0.6,0,0.9-0.1c0.3-0.1,0.6-0.2,0.8-0.3l0.1,3.2
			C503.9,299.4,503.5,299.6,503,299.8z"/>
		<path d="M518.2,299.2c0-0.3-0.1-0.7-0.1-1.2c0-0.5,0-1,0-1.5c0-0.5,0-1.1,0-1.6s0-0.9,0-1.3h-0.1c-0.8,4.2-2.7,6.3-5.6,6.3
			c-0.7,0-1.3-0.2-2-0.5s-1.2-0.8-1.8-1.6c-0.5-0.7-1-1.6-1.3-2.7c-0.3-1.1-0.5-2.4-0.5-4c0-2.1,0.3-3.9,0.9-5.2
			c0.6-1.3,1.3-2.3,2.2-3.1c0.9-0.8,1.9-1.3,3-1.5c1.1-0.3,2.1-0.4,3.1-0.4h1.8v-1.5c0-2.6-0.4-4.5-1.1-5.7c-0.7-1.2-1.8-1.8-3-1.8
			c-0.9,0-1.7,0.3-2.4,0.9c-0.7,0.6-1.4,1.4-1.9,2.3l-1.6-2.4c0.7-1.3,1.7-2.3,2.8-3c1.2-0.7,2.3-1.1,3.5-1.1c2.4,0,4.2,1,5.2,3
			c1,2,1.5,5,1.5,8.9v12.3c0,0.4,0,0.9,0,1.5c0,0.6,0,1.2,0,1.8c0,0.6,0,1.2,0.1,1.7c0,0.5,0.1,1,0.1,1.3H518.2z M517.8,284.2h-1.9
			c-0.7,0-1.5,0.1-2.2,0.3s-1.4,0.5-2,1c-0.6,0.5-1.1,1.2-1.4,2.1c-0.4,0.9-0.6,2-0.6,3.4c0,2.1,0.4,3.6,1.1,4.5
			c0.7,0.9,1.5,1.4,2.3,1.4c0.9,0,1.6-0.3,2.2-1c0.6-0.7,1.1-1.5,1.4-2.6c0.4-1,0.6-2.2,0.8-3.4c0.2-1.2,0.2-2.4,0.2-3.6V284.2z"/>
	</g>
</g>
</svg>
