<?xml version="1.0" encoding="utf-8"?>
<!-- Generator: Adobe Illustrator 21.0.2, SVG Export Plug-In . SVG Version: 6.00 Build 0)  -->
<svg version="1.1" id="Capa_1" xmlns="http://www.w3.org/2000/svg" xmlns:xlink="http://www.w3.org/1999/xlink" x="0px" y="0px"
	 viewBox="0 0 879 768.4" style="enable-background:new 0 0 879 768.4;" xml:space="preserve">
<style type="text/css">
	.st0{fill:#EEEEED;}
	.st1{fill:#CECECE;}
	.st2{fill:#A0A0A0;}
	.st3{fill:#A1E5E4;}
	.st4{fill:#80C4C2;}
	.st5{fill:#FFFFFF;stroke:#1E120D;stroke-miterlimit:10;}
	.st6{fill:#FFFFFF;}
	.st7{fill:#737373;}
	.st8{fill:#D8D8D8;}
	.st9{fill:#EEEEEE;}
</style>
<g>
	<g>
		<rect y="0" class="st0" width="878.9" height="768.2"/>
		<rect x="436.1" class="st1" width="442.9" height="768.4"/>
		<rect x="36" y="11.6" class="st2" width="800.3" height="95.7"/>
		<rect x="334.6" y="308" class="st3" width="203" height="460.1"/>
		<rect x="67.1" y="191.1" class="st3" width="214.6" height="389"/>
		<rect x="590.3" y="191" class="st4" width="214.6" height="389"/>
		<line class="st5" x1="67" y1="385.5" x2="281.5" y2="385.5"/>
		<line class="st5" x1="590.4" y1="385.5" x2="804.9" y2="385.5"/>
		<rect x="436.1" y="307.8" class="st4" width="101.3" height="460.5"/>
		<path class="st6" d="M436.2,339.3c-41.1,0-74.5,42-74.5,93.9c0,51.8,33.3,93.9,74.5,93.9c41.1,0,74.5-42,74.5-93.9
			C510.7,381.3,477.4,339.3,436.2,339.3z M436.2,503.9c-31,0-56.1-31.7-56.1-70.8c0-39.1,25.1-70.8,56.1-70.8
			c31,0,56.1,31.7,56.1,70.8C492.4,472.3,467.2,503.9,436.2,503.9z"/>
		<path class="st2" d="M67,191.1v191.3h214.6V191.1H67z M262.7,361.4H86V212.1h176.8V361.4z"/>
		<path class="st2" d="M67,388.7V580h214.6V388.7H67z M262.7,559H86V409.7h176.8V559z"/>
		<path class="st7" d="M590.3,191v191.3h214.6V191H590.3z M786,361.3H609.2V212H786V361.3z"/>
		<path class="st7" d="M590.3,388.6v191.3h214.6V388.6H590.3z M786,558.9H609.2V409.6H786V558.9z"/>
		<path class="st6" d="M468.1,412.8c0-11.5-7.4-20.9-16.5-20.9c-7.1,0-13.1,5.6-15.4,13.5c-2.4-7.9-8.4-13.5-15.4-13.5
			c-9.1,0-16.5,9.3-16.5,20.9c0,7,2.8,13.2,7,17l-0.1,0c0,0,3.4,3.2,1.9,12.2c-1.5,8.9,1.9,40.6,12.2,33.6c0,0-4.7-35.2,10.7-37.7
			h1.7c15.5,2.4,9,37.7,9,37.7c10.3,7,13.8-24.6,12.3-33.6c-1.3-7.9,1.1-11.2,1.7-11.9C465.1,426.5,468.1,420.1,468.1,412.8z"/>
		<rect x="436.1" y="11.5" class="st7" width="400.3" height="95.7"/>
		<path class="st8" d="M436.1,339.4L436.1,339.4l0,23.1h0c31,0,56.1,31.7,56.1,70.8c0,39.1-25.1,70.8-56.1,70.8h0v23.1h0
			c41.1,0,74.5-42,74.5-93.9C510.6,381.4,477.3,339.4,436.1,339.4z"/>
		<path class="st8" d="M451.5,392.1c-7.1,0-13.1,5.6-15.4,13.5l0,0v32.5h1.5c15.5,2.4,9,37.7,9,37.7c10.3,7,13.8-24.6,12.3-33.6
			c-1.3-7.9,1.1-11.2,1.7-11.9c4.5-3.7,7.4-10.1,7.4-17.4C468.1,401.4,460.7,392.1,451.5,392.1z"/>
	</g>
	<g>
		<rect x="346.9" y="219.7" class="st6" width="178.5" height="88.4"/>
	</g>
	<g>
		<rect x="436.2" y="219.7" class="st9" width="89.3" height="88.3"/>
	</g>
</g>
</svg>
