<?xml version="1.0" encoding="utf-8"?>
<!-- Generator: Adobe Illustrator 21.0.2, SVG Export Plug-In . SVG Version: 6.00 Build 0)  -->
<svg version="1.1" id="Capa_1" xmlns="http://www.w3.org/2000/svg" xmlns:xlink="http://www.w3.org/1999/xlink" x="0px" y="0px"
	 viewBox="0 0 892.5 761.4" style="enable-background:new 0 0 892.5 761.4;" xml:space="preserve">
<style type="text/css">
	.st0{fill:#F9DD5A;}
	.st1{fill:#DE0209;}
	.st2{fill:#8ED8D6;}
	.st3{fill:#1E120D;}
	.st4{fill:#FF6666;}
	.st5{fill:#E9C52B;}
	.st6{fill:#B5020F;}
	.st7{fill:#80C4C2;}
	.st8{fill:#E66666;}
	.st9{fill:#A1E5E4;}
	.st10{fill:#EEEEED;}
	.st11{fill:#D6D6D6;}
	.st12{fill:#FFFFFF;}
	.st13{fill:#EEEEEE;}
</style>
<g>
	<g>
		<rect x="32.5" y="332.8" class="st0" width="266.6" height="428.6"/>
	</g>
	<g>
		<path class="st1" d="M331.6,357.9H0L32.2,201c1.5-7.2,4.6-11.8,7.9-11.8H293c3.4,0,6.6,4.7,8,12.2L331.6,357.9z"/>
	</g>
	<g>
		<rect x="79" y="382.2" class="st2" width="68.6" height="88.1"/>
	</g>
	<g>
		<rect x="178.7" y="382.2" class="st2" width="68.6" height="88.1"/>
	</g>
	<g>
		<rect x="79" y="500.4" class="st2" width="68.6" height="148.7"/>
	</g>
	<g>
		<rect x="178.7" y="500.2" class="st2" width="68.6" height="147.9"/>
	</g>
	<g>
		<rect x="79" y="520.1" class="st3" width="68.6" height="9.5"/>
	</g>
	<g>
		<rect x="178.7" y="520.1" class="st3" width="68.6" height="9.5"/>
	</g>
	<g>
		<rect x="79" y="402.2" class="st3" width="68.6" height="9.5"/>
	</g>
	<g>
		<rect x="178.7" y="402.2" class="st3" width="68.6" height="9.5"/>
	</g>
	<g>
		<rect x="79" y="500.3" class="st4" width="68.6" height="21.1"/>
	</g>
	<g>
		<rect x="178.7" y="500.2" class="st4" width="68.6" height="21.1"/>
	</g>
	<g>
		<rect x="79" y="382.3" class="st4" width="68.6" height="21.1"/>
	</g>
	<g>
		<rect x="178.7" y="382.2" class="st4" width="68.6" height="21.1"/>
	</g>
	<g>
		<rect x="269.7" y="191" class="st0" width="618.5" height="570.4"/>
	</g>
	<g>
		<polyline class="st5" points="578.9,191 888.2,191 888.2,761.4 578.9,761.4 		"/>
	</g>
	<g>
		<path class="st1" d="M889.5,224.8l-695.2-0.3l74.7-208.8C272.4,6.1,279.5,0,287.3,0H874c8,0,15.2,6.3,18.6,16.2L889.5,224.8z"/>
	</g>
	<g>
		<path class="st6" d="M578.9,0.3h295c8,0,15.2,6.3,18.6,16.2l-3.1,208.3l-310.6,0"/>
	</g>
	<g>
		<rect x="299.4" y="256.9" class="st2" width="91.3" height="117.2"/>
	</g>
	<g>
		<rect x="432" y="256.9" class="st2" width="91.3" height="117.2"/>
	</g>
	<g>
		<rect x="299.4" y="414" class="st2" width="91.3" height="197.9"/>
	</g>
	<g>
		<rect x="299.4" y="441.8" class="st3" width="91.3" height="9.5"/>
	</g>
	<g>
		<rect x="299.4" y="285.1" class="st3" width="91.3" height="9.5"/>
	</g>
	<g>
		<rect x="432" y="285.1" class="st3" width="91.3" height="9.5"/>
	</g>
	<g>
		<rect x="299.3" y="414" class="st4" width="91.3" height="28.1"/>
	</g>
	<g>
		<rect x="299.4" y="256.9" class="st4" width="91.3" height="28.1"/>
	</g>
	<g>
		<rect x="432.1" y="256.8" class="st4" width="91.3" height="28.1"/>
	</g>
	<g>
		<rect x="635.7" y="256.9" class="st7" width="91.3" height="117.2"/>
	</g>
	<g>
		<rect x="767.2" y="256.9" class="st7" width="91.3" height="117.2"/>
	</g>
	<g>
		<rect x="768.1" y="413.9" class="st7" width="91.3" height="196.8"/>
	</g>
	<g>
		<rect x="768.1" y="441.8" class="st3" width="91.3" height="9.5"/>
	</g>
	<g>
		<rect x="635.7" y="285.1" class="st3" width="91.3" height="9.5"/>
	</g>
	<g>
		<rect x="767.3" y="285.1" class="st3" width="91.3" height="9.5"/>
	</g>
	<g>
		<rect x="768.1" y="413.9" class="st8" width="91.3" height="28.1"/>
	</g>
	<g>
		<rect x="635.7" y="256.9" class="st8" width="91.3" height="28.1"/>
	</g>
	<g>
		<rect x="767.2" y="256.8" class="st8" width="91.3" height="28.1"/>
	</g>
	<g>
		<rect x="432" y="433.2" class="st9" width="295" height="328.2"/>
	</g>
	<g>
		<rect x="578.9" y="433.2" class="st7" width="148" height="328.3"/>
	</g>
	<g>
		<rect x="432" y="433.2" class="st10" width="33.7" height="328.2"/>
	</g>
	<g>
		
			<rect x="484.2" y="384.5" transform="matrix(-1.836970e-16 1 -1 -1.836970e-16 963.4232 -51.0357)" class="st10" width="46.1" height="143.3"/>
	</g>
	<g>
		
			<rect x="627.5" y="384.5" transform="matrix(-1.836970e-16 1 -1 -1.836970e-16 1106.7914 -194.404)" class="st11" width="46.1" height="143.3"/>
	</g>
	<g>
		<rect x="693.4" y="433.2" class="st11" width="33.7" height="328.2"/>
	</g>
	<g>
		<g>
			<g>
				<rect x="513.2" y="400.7" class="st12" width="131.5" height="78.5"/>
			</g>
		</g>
		<g>
			<g>
				<rect x="578.9" y="400.8" class="st13" width="65.8" height="78.5"/>
			</g>
		</g>
		<g>
			<g>
				<path d="M550.3,440.9h-6.5v8.3h7.3v2.5h-9.5v-23h9.1v2.5h-6.9v7.3h6.5V440.9z"/>
			</g>
			<g>
				<path d="M553.5,448.6c0.6,0.6,1.8,1.2,2.9,1.2c1.6,0,2.3-1.1,2.3-2.5c0-1.4-0.6-2.2-2.2-3c-2.2-1.1-3.2-2.7-3.2-4.7
					c0-2.7,1.6-4.9,4.2-4.9c1.2,0,2.3,0.5,3,1l-0.5,2.2c-0.5-0.4-1.3-1-2.5-1c-1.3,0-2,1-2,2.3c0,1.4,0.7,2,2.3,2.8
					c2.1,1.1,3.2,2.5,3.2,5c0,2.9-1.6,5-4.5,5c-1.3,0-2.5-0.4-3.4-1.1L553.5,448.6z"/>
			</g>
			<g>
				<path d="M572.3,451.1c-0.6,0.4-1.8,1-3.5,1c-3.6,0-6-3.4-6-8.4c0-5.1,2.5-8.8,6.5-8.8c1.3,0,2.4,0.4,3,0.9l-0.5,2.3
					c-0.5-0.4-1.3-0.8-2.5-0.8c-2.8,0-4.3,2.8-4.3,6.3c0,3.8,1.8,6.2,4.2,6.2c1.2,0,2.1-0.4,2.7-0.8L572.3,451.1z"/>
			</g>
			<g>
				<path d="M585,447.2c0,1.7,0,3.2,0.1,4.5h-1.9L583,449h0c-0.6,1.3-1.8,3.1-4,3.1c-1.9,0-4.2-1.4-4.2-7.2v-9.7h2.2v9.2
					c0,3.1,0.7,5.3,2.7,5.3c1.5,0,2.5-1.4,2.9-2.7c0.1-0.4,0.2-1,0.2-1.5v-10.2h2.2V447.2z"/>
			</g>
			<g>
				<path d="M589.9,444c0,4.1,1.9,5.7,4.1,5.7c1.6,0,2.5-0.4,3.3-0.9l0.4,2.2c-0.8,0.5-2.1,1-4,1c-3.7,0-5.9-3.4-5.9-8.3
					s2.1-8.9,5.7-8.9c3.9,0,5,4.8,5,7.8c0,0.6-0.1,1.1-0.1,1.4H589.9z M596.3,441.8c0-1.9-0.6-4.9-3-4.9c-2.2,0-3.2,2.8-3.4,4.9
					H596.3z"/>
			</g>
			<g>
				<path d="M601.2,427.5h2.2v24.3h-2.2V427.5z"/>
			</g>
			<g>
				<path d="M613.8,451.7l-0.2-2.1h-0.1c-0.7,1.3-2,2.5-3.7,2.5c-2.4,0-3.7-2.4-3.7-4.8c0-4,2.6-6.2,7.3-6.2v-0.3
					c0-1.4-0.3-3.8-2.7-3.8c-1.1,0-2.3,0.5-3.1,1.2l-0.5-2c1-0.9,2.4-1.5,4-1.5c3.7,0,4.6,3.5,4.6,6.8v6.2c0,1.4,0,2.8,0.2,4H613.8z
					 M613.4,443.3c-2.4-0.1-5.1,0.5-5.1,3.7c0,1.9,0.9,2.9,2.1,2.9c1.6,0,2.6-1.4,2.9-2.8c0.1-0.3,0.1-0.6,0.1-1V443.3z"/>
			</g>
		</g>
	</g>
</g>
</svg>
