<?xml version="1.0" encoding="utf-8"?>
<!-- Generator: Adobe Illustrator 21.0.2, SVG Export Plug-In . SVG Version: 6.00 Build 0)  -->
<svg version="1.1" id="Capa_1" xmlns="http://www.w3.org/2000/svg" xmlns:xlink="http://www.w3.org/1999/xlink" x="0px" y="0px"
	 viewBox="0 0 825.7 728.2" style="enable-background:new 0 0 825.7 728.2;" xml:space="preserve">
<style type="text/css">
	.st0{fill:#EEEEED;}
	.st1{fill:#CECECE;}
	.st2{fill:#A0A0A0;}
	.st3{fill:#A1E5E4;}
	.st4{fill:#80C4C2;}
	.st5{fill:#737373;}
	.st6{fill:#DE0209;}
	.st7{fill:#B5020F;}
	.st8{fill:#FFFFFF;}
	.st9{fill:#D8D8D8;}
	.st10{fill:#EEEEEE;}
</style>
<g>
	<rect class="st0" width="825.7" height="728"/>
	<rect x="409.7" class="st1" width="416" height="728.1"/>
	<rect x="33.8" y="11.1" class="st2" width="751.8" height="90.7"/>
	<rect x="522.8" y="221.3" class="st3" width="221.6" height="506.9"/>
	<rect x="37.7" y="181.1" class="st3" width="359.8" height="300.9"/>
	<rect x="633.6" y="221.1" class="st4" width="110.6" height="507.1"/>
	<rect x="409.7" y="10.9" class="st5" width="376" height="90.7"/>
	<path class="st6" d="M217.6,181.1c0,0-19.1,144.6-146.9,218.9c0,0,38.3,61.8,38.9,82.1l-71.9-0.6V181.1H217.6z"/>
	<path class="st7" d="M217.6,181.1c0,0,19.1,144.6,146.9,218.9c0,0-38.3,61.8-38.9,82.1l71.9-0.6V181.2L217.6,181.1z"/>
	<g>
		<path class="st8" d="M633.7,265c-43.1,0-78,44.4-78,99.1c0,54.8,34.9,99.1,78,99.1s78-44.4,78-99.1S676.8,265,633.7,265z
			 M633.7,438.8c-32.5,0-58.8-33.5-58.8-74.7c0-41.3,26.3-74.7,58.8-74.7s58.8,33.5,58.8,74.7C692.5,405.4,666.2,438.8,633.7,438.8z
			"/>
		<path class="st9" d="M633.6,265.1L633.6,265.1v24.4l0,0c32.5,0,58.8,33.5,58.8,74.7c0,41.3-26.3,74.7-58.8,74.7l0,0v24.4l0,0
			c43.1,0,78-44.4,78-99.1S676.7,265.1,633.6,265.1z"/>
	</g>
	<g>
		<path class="st8" d="M659.7,325.7c0,0-2,5.4-2.4,20.7c-0.3,15.3-8.8,20.5-18.2,20.3v-38.2c0,0-1-11.7,11.5-10.3v-2.1h-34v2.2
			c0,0,11.2-1.5,11.4,8.2v40.3c-9.4,0.2-17.8-5.1-18.1-20.3c-0.3-15.3-2.4-20.7-2.4-20.7c-3.4-11.9-14.9-10.5-14.9-10.5v2.6
			c6.6,0.8,5.4,11.6,5.4,11.6c-0.3,19.5,2.2,24.8,2.2,24.8C605.9,372.4,626,372,628,372v28.1c0,0,1.5,12.5-11.5,11v2.3h34l0.1-2
			c0,0-11.9,1.9-11.6-10.6v-28.7c1.2,0.1,22,0.9,27.9-17.7c0,0,2.5-5.3,2.2-24.8c0,0-1.2-10.9,5.4-11.6v-2.6
			C674.6,315.2,663.1,313.8,659.7,325.7z"/>
		<path class="st9" d="M659.8,325.7c0,0-2,5.4-2.4,20.7c-0.3,15.3-8.8,20.5-18.2,20.3v-38.2c0,0-1-11.7,11.5-10.3v-2.1h-17v97h16.9
			l0.1-2c0,0-11.9,1.9-11.6-10.6v-28.7c1.2,0.1,22,0.9,27.9-17.7c0,0,2.5-5.3,2.2-24.8c0,0-1.2-10.9,5.4-11.6v-2.6
			C674.7,315.2,663.1,313.8,659.8,325.7z"/>
	</g>
	<g>
		<rect x="549.8" y="137.5" class="st8" width="167.7" height="83.7"/>
	</g>
	<g>
		<rect x="633.6" y="137.6" class="st10" width="83.8" height="83.7"/>
	</g>
	<g>
		<path d="M580.5,169c0,1.7-0.2,3.3-0.6,4.6c-0.4,1.3-0.9,2.4-1.6,3.3c-0.7,0.9-1.4,1.6-2.3,2c-0.9,0.5-1.8,0.7-2.8,0.7h-4.4v16.9
			h-2.9v-37.8h7c0.9,0,1.7,0.2,2.6,0.5c0.9,0.3,1.7,0.9,2.4,1.7c0.7,0.8,1.3,1.9,1.8,3.2C580.3,165.4,580.5,167.1,580.5,169z
			 M577.6,169.1c0-1.2-0.1-2.3-0.4-3.2c-0.3-0.9-0.6-1.6-1.1-2.2c-0.4-0.6-1-1-1.5-1.2c-0.6-0.3-1.2-0.4-1.9-0.4h-3.9v14.5h4
			c1.3,0,2.4-0.6,3.4-1.8C577.1,173.4,577.6,171.6,577.6,169.1z"/>
		<path d="M592.3,174.7c-0.4-0.8-0.8-1.4-1.4-1.9c-0.6-0.5-1.3-0.7-2.1-0.7c-0.9,0-1.6,0.4-2.2,1.3c-0.6,0.8-0.9,1.9-0.9,3.3
			s0.3,2.5,0.8,3.1c0.6,0.6,1.4,1.2,2.5,1.8c0.6,0.3,1.1,0.6,1.7,1c0.6,0.4,1.1,0.9,1.5,1.5s0.8,1.3,1.1,2.2c0.3,0.8,0.4,1.8,0.4,3
			c0,2.6-0.6,4.6-1.7,6.1c-1.1,1.4-2.5,2.2-4.3,2.2c-1.2,0-2.2-0.3-3.2-1s-1.8-1.6-2.4-2.8l1.7-2.3c0.5,0.9,1,1.7,1.7,2.3
			c0.7,0.6,1.4,0.9,2.3,0.9c1,0,1.8-0.5,2.4-1.4c0.6-0.9,0.9-2.1,0.9-3.6c0-0.9-0.1-1.6-0.3-2.2s-0.5-1.1-0.9-1.5s-0.8-0.7-1.2-1
			c-0.5-0.3-0.9-0.6-1.4-0.8c-0.5-0.2-1-0.6-1.5-0.9c-0.5-0.4-0.9-0.8-1.3-1.4c-0.4-0.6-0.7-1.3-0.9-2.1c-0.2-0.8-0.4-1.8-0.4-2.9
			s0.1-2.1,0.4-3c0.3-0.9,0.7-1.7,1.2-2.4c0.5-0.7,1.1-1.2,1.8-1.5c0.7-0.4,1.4-0.6,2.2-0.6c1.2,0,2.2,0.3,3,0.9
			c0.9,0.6,1.5,1.3,2.1,2.3L592.3,174.7z"/>
		<path d="M601.8,162c0,0.7-0.2,1.4-0.5,1.8c-0.4,0.5-0.8,0.7-1.3,0.7s-1-0.2-1.3-0.7s-0.5-1.1-0.5-1.8c0-0.7,0.2-1.3,0.5-1.8
			c0.4-0.5,0.8-0.7,1.3-0.7s1,0.2,1.3,0.7C601.7,160.7,601.8,161.3,601.8,162z M598.6,196.6v-26.5h2.8v26.5H598.6z"/>
		<path d="M613.8,197.4c-1.2,0-2.2-0.3-3.1-1c-0.9-0.7-1.6-1.7-2.2-2.9c-0.6-1.2-1.1-2.7-1.4-4.4c-0.3-1.7-0.5-3.6-0.5-5.7
			s0.2-4,0.5-5.7s0.8-3.2,1.4-4.5c0.6-1.2,1.4-2.2,2.3-2.9c0.9-0.7,1.9-1,3.1-1c1.1,0,2,0.2,2.7,0.7c0.8,0.5,1.4,1.1,1.8,1.8
			l-1.5,2.6c-0.3-0.6-0.8-1.1-1.3-1.4c-0.5-0.4-1.1-0.5-1.8-0.5c-0.8,0-1.4,0.3-2,0.8c-0.5,0.6-1,1.3-1.4,2.3s-0.6,2.1-0.8,3.5
			s-0.3,2.8-0.3,4.4s0.1,3,0.3,4.3s0.5,2.5,0.8,3.4c0.4,1,0.8,1.7,1.4,2.2c0.6,0.5,1.3,0.8,2,0.8s1.3-0.2,1.8-0.6s1-0.9,1.3-1.6
			l1.3,2.7C617.2,196.5,615.7,197.4,613.8,197.4z"/>
		<path d="M635.2,183.4c0,2.1-0.2,4-0.5,5.7s-0.8,3.2-1.4,4.4c-0.6,1.2-1.4,2.2-2.3,2.9c-0.9,0.7-1.9,1-3,1s-2.1-0.3-3-1
			s-1.7-1.6-2.3-2.9c-0.6-1.2-1.1-2.7-1.4-4.4c-0.3-1.7-0.5-3.6-0.5-5.7s0.2-4,0.5-5.8c0.3-1.7,0.8-3.2,1.4-4.5
			c0.6-1.2,1.4-2.2,2.3-2.9c0.9-0.7,1.9-1,3.1-1c1.1,0,2.1,0.3,3,1s1.7,1.6,2.3,2.9c0.6,1.2,1.1,2.7,1.4,4.5
			C635,179.4,635.2,181.3,635.2,183.4z M632.3,183.3c0-1.6-0.1-3-0.3-4.4c-0.2-1.3-0.5-2.5-0.8-3.5c-0.4-1-0.8-1.7-1.4-2.3
			s-1.2-0.9-1.9-0.9c-0.8,0-1.4,0.3-2,0.9s-1,1.3-1.4,2.3s-0.6,2.1-0.8,3.5c-0.2,1.3-0.3,2.8-0.3,4.4s0.1,3,0.3,4.3s0.4,2.5,0.8,3.5
			c0.4,1,0.8,1.8,1.4,2.3c0.6,0.6,1.2,0.8,2,0.8s1.4-0.3,2-0.8c0.6-0.6,1-1.3,1.4-2.3s0.6-2.1,0.8-3.5
			C632.3,186.3,632.3,184.9,632.3,183.3z M628.7,166.2h-2.4l3.8-7.7h3L628.7,166.2z"/>
		<path d="M640.4,196.6v-40.4h2.8v40.4H640.4z"/>
		<path d="M662.9,183.4c0,2.1-0.2,4-0.5,5.7s-0.8,3.2-1.4,4.4c-0.6,1.2-1.4,2.2-2.3,2.9c-0.9,0.7-1.9,1-3,1s-2.1-0.3-3-1
			s-1.7-1.6-2.3-2.9c-0.6-1.2-1.1-2.7-1.4-4.4c-0.3-1.7-0.5-3.6-0.5-5.7s0.2-4,0.5-5.8s0.8-3.2,1.4-4.5c0.6-1.2,1.4-2.2,2.3-2.9
			c0.9-0.7,1.9-1,3.1-1c1.1,0,2.1,0.3,3,1s1.7,1.6,2.3,2.9c0.6,1.2,1.1,2.7,1.4,4.5C662.7,179.4,662.9,181.3,662.9,183.4z
			 M660,183.3c0-1.6-0.1-3-0.3-4.4c-0.2-1.3-0.5-2.5-0.8-3.5c-0.4-1-0.8-1.7-1.4-2.3c-0.5-0.6-1.2-0.9-1.9-0.9c-0.8,0-1.4,0.3-2,0.9
			s-1,1.3-1.4,2.3s-0.6,2.1-0.8,3.5c-0.2,1.3-0.3,2.8-0.3,4.4s0.1,3,0.3,4.3s0.4,2.5,0.8,3.5c0.4,1,0.8,1.8,1.4,2.3
			c0.6,0.6,1.2,0.8,2,0.8s1.4-0.3,2-0.8c0.6-0.6,1-1.3,1.4-2.3s0.6-2.1,0.8-3.5C660,186.3,660,184.9,660,183.3z"/>
		<path d="M681.2,196.2c0,1.9-0.1,3.6-0.4,5.2c-0.2,1.6-0.6,3-1.2,4.2c-0.6,1.2-1.3,2.1-2.3,2.8c-1,0.7-2.1,1-3.6,1
			c-1.4,0-2.7-0.4-3.8-1.2c-1.2-0.8-2.1-1.9-2.9-3.2l1.8-2.5c0.6,1.1,1.3,2,2.1,2.7c0.9,0.7,1.8,1,2.9,1c0.9,0,1.7-0.2,2.3-0.7
			s1.1-1.2,1.4-2.1c0.3-0.9,0.6-1.9,0.7-3.2c0.1-1.2,0.2-2.5,0.2-4v-4.4h-0.1c-0.3,1.6-0.9,2.9-1.7,4s-1.9,1.6-3.3,1.6
			c-1.1,0-2-0.4-2.8-1.1s-1.5-1.7-2.1-3s-1-2.8-1.3-4.5s-0.4-3.6-0.4-5.7s0.1-3.9,0.4-5.7c0.3-1.7,0.7-3.2,1.2-4.4
			c0.5-1.2,1.2-2.2,2.1-2.9c0.8-0.7,1.8-1,2.8-1c1.3,0,2.3,0.5,3.2,1.5s1.5,2.3,1.8,3.9h0.1v-4.4h2.7v26.1H681.2z M678.5,183.3
			c0-1.5-0.1-3-0.3-4.3c-0.2-1.4-0.5-2.5-0.8-3.5c-0.4-1-0.8-1.8-1.4-2.3c-0.6-0.6-1.2-0.9-1.9-0.9c-0.8,0-1.4,0.3-1.9,0.9
			s-1,1.3-1.4,2.3s-0.6,2.1-0.8,3.5s-0.3,2.8-0.3,4.4c0,1.5,0.1,3,0.3,4.3s0.4,2.5,0.8,3.5s0.8,1.8,1.4,2.3c0.5,0.6,1.2,0.9,1.9,0.9
			c0.8,0,1.4-0.3,2-0.9c0.5-0.6,1-1.3,1.4-2.3s0.7-2.1,0.8-3.5C678.4,186.3,678.5,184.9,678.5,183.3z"/>
		<path d="M700.9,183.4c0,2.1-0.2,4-0.5,5.7s-0.8,3.2-1.4,4.4c-0.6,1.2-1.4,2.2-2.3,2.9c-0.9,0.7-1.9,1-3,1s-2.1-0.3-3-1
			s-1.7-1.6-2.3-2.9c-0.6-1.2-1.1-2.7-1.4-4.4c-0.3-1.7-0.5-3.6-0.5-5.7s0.2-4,0.5-5.8s0.8-3.2,1.4-4.5c0.6-1.2,1.4-2.2,2.3-2.9
			c0.9-0.7,1.9-1,3.1-1c1.1,0,2.1,0.3,3,1s1.7,1.6,2.3,2.9c0.6,1.2,1.1,2.7,1.4,4.5S700.9,181.3,700.9,183.4z M698.1,183.3
			c0-1.6-0.1-3-0.3-4.4c-0.2-1.3-0.5-2.5-0.8-3.5c-0.4-1-0.8-1.7-1.4-2.3c-0.5-0.6-1.2-0.9-1.9-0.9c-0.8,0-1.4,0.3-2,0.9
			s-1,1.3-1.4,2.3s-0.6,2.1-0.8,3.5c-0.2,1.3-0.3,2.8-0.3,4.4s0.1,3,0.3,4.3s0.4,2.5,0.8,3.5c0.4,1,0.8,1.8,1.4,2.3
			c0.6,0.6,1.2,0.8,2,0.8s1.4-0.3,2-0.8c0.6-0.6,1-1.3,1.4-2.3s0.6-2.1,0.8-3.5C698,186.3,698.1,184.9,698.1,183.3z"/>
	</g>
</g>
</svg>
