<?xml version="1.0" encoding="utf-8"?>
<!-- Generator: Adobe Illustrator 21.0.2, SVG Export Plug-In . SVG Version: 6.00 Build 0)  -->
<svg version="1.1" id="Capa_1" xmlns="http://www.w3.org/2000/svg" xmlns:xlink="http://www.w3.org/1999/xlink" x="0px" y="0px"
	 viewBox="0 0 863.7 758" style="enable-background:new 0 0 863.7 758;" xml:space="preserve">
<style type="text/css">
	.st0{fill:#EEEEED;}
	.st1{fill:#A1E5E4;}
	.st2{fill:#CECECE;}
	.st3{fill:#80C4C2;}
	.st4{fill:none;stroke:#1E120D;stroke-miterlimit:10;}
	.st5{fill:#FFFFFF;stroke:#B2B2B2;stroke-miterlimit:10;}
	.st6{fill:#1E120D;}
	.st7{fill:#B2B2B2;}
</style>
<g>
	<g>
		<rect y="1" class="st0" width="775.6" height="757"/>
		<rect x="73.4" y="30.7" class="st1" width="73.8" height="153.7"/>
		<rect x="384.1" class="st2" width="391.5" height="758"/>
		<rect x="183" y="30.7" class="st1" width="73.8" height="153.7"/>
		<rect x="292.5" y="30.7" class="st1" width="73.8" height="153.7"/>
		<rect x="511.7" y="30.7" class="st3" width="73.8" height="153.7"/>
		<rect x="621.2" y="30.7" class="st3" width="73.8" height="153.7"/>
		<rect x="402.1" y="30.7" class="st3" width="73.8" height="153.7"/>
		<rect x="73.4" y="213" class="st1" width="73.8" height="153.7"/>
		<rect x="183" y="213" class="st1" width="73.8" height="153.7"/>
		<rect x="292.5" y="213" class="st1" width="73.8" height="153.7"/>
		<rect x="511.7" y="213" class="st3" width="73.8" height="153.7"/>
		<rect x="621.2" y="213" class="st3" width="73.8" height="153.7"/>
		<rect x="402.1" y="213" class="st3" width="73.8" height="153.7"/>
		<rect x="73.4" y="395.2" class="st1" width="73.8" height="153.7"/>
		<rect x="183" y="395.2" class="st1" width="73.8" height="153.7"/>
		<rect x="292.5" y="395.2" class="st1" width="73.8" height="153.7"/>
		<rect x="511.7" y="395.2" class="st3" width="73.8" height="153.7"/>
		<rect x="621.2" y="395.2" class="st3" width="73.8" height="153.7"/>
		<rect x="402.1" y="395.2" class="st3" width="73.8" height="153.7"/>
		<rect x="73.4" y="577.7" class="st1" width="73.8" height="153.7"/>
		<rect x="183" y="577.7" class="st1" width="73.8" height="153.7"/>
		<rect x="292.5" y="577.7" class="st1" width="73.8" height="153.7"/>
		<rect x="511.7" y="577.7" class="st3" width="73.8" height="153.7"/>
		<rect x="621.2" y="577.7" class="st3" width="73.8" height="153.7"/>
		<rect x="402.1" y="577.7" class="st3" width="73.8" height="153.7"/>
	</g>
	<g>
		<g>
			<g>
				<path class="st4" d="M360.6,558.5"/>
				<path class="st5" d="M360.6,558.5l491.8-175.4c0.9-0.3,1.7-0.7,2.4-1.3c3-2.3,8.6-10.7,8.5-15.7c-0.2-6.1,0.8-27.7-17-35
					c-12.8-5.2-31.1-11.5-35-11.6c-0.9,0-9.8-3.7-9.8-3.7c-21.9-8.5-39.9-11.9-51.4-13.3c-8.1-1-16.2-0.1-23.9,2.6l-463,161.3
					c-2.2,0.8-33.5,10.9-34.8,9.4c-36.2-39.6-56.3-58.1-58.6-57.3c-2.4,0.8-21.9,7.1-21.9,7.1l48.9,123.7l-10.5,3.9l9.8,27.6
					c0,0,41.8,7.8,101.3-1.1L360.6,558.5z"/>
				<path class="st4" d="M772.8,309.1c0,0-3,4.1-39.6,19.4c-1.4,0.6-2.1,2.2-1.6,3.6l6.7,17.3c0.6,1.4,2,2.2,3.5,2
					c9.3-1.8,41.5-9.7,63.2-32"/>
				
					<rect x="285.5" y="504.5" transform="matrix(0.9419 -0.3359 0.3359 0.9419 -154.8445 127.9982)" class="st6" width="14.2" height="14.2"/>
				
					<rect x="312.3" y="495" transform="matrix(0.9419 -0.3359 0.3359 0.9419 -150.0783 136.439)" class="st6" width="14.2" height="14.2"/>
				
					<rect x="339.1" y="485.4" transform="matrix(0.9419 -0.3359 0.3359 0.9419 -145.313 144.8831)" class="st6" width="14.2" height="14.2"/>
				
					<rect x="365.9" y="475.9" transform="matrix(0.9419 -0.3359 0.3359 0.9419 -140.5452 153.3316)" class="st6" width="14.2" height="14.2"/>
				
					<rect x="392.7" y="466.3" transform="matrix(0.9419 -0.3359 0.3359 0.9419 -135.7787 161.778)" class="st6" width="14.2" height="14.2"/>
				
					<rect x="419.5" y="456.7" transform="matrix(0.9419 -0.3359 0.3359 0.9419 -131.0089 170.2251)" class="st6" width="14.2" height="14.2"/>
				
					<rect x="446.3" y="447.2" transform="matrix(0.9419 -0.3359 0.3359 0.9419 -126.2456 178.6757)" class="st6" width="14.2" height="14.2"/>
				
					<rect x="473.1" y="437.6" transform="matrix(0.9419 -0.3359 0.3359 0.9419 -121.4803 187.1199)" class="st6" width="14.2" height="14.2"/>
				
					<rect x="499.9" y="428.1" transform="matrix(0.9419 -0.3359 0.3359 0.9419 -116.715 195.5639)" class="st6" width="14.2" height="14.2"/>
				
					<rect x="526.7" y="418.5" transform="matrix(0.9419 -0.3359 0.3359 0.9419 -111.9463 204.0091)" class="st6" width="14.2" height="14.2"/>
				
					<rect x="553.5" y="409" transform="matrix(0.9419 -0.3359 0.3359 0.9419 -107.1786 212.4576)" class="st6" width="14.2" height="14.2"/>
				
					<rect x="580.3" y="399.4" transform="matrix(0.9419 -0.3359 0.3359 0.9419 -102.4109 220.9059)" class="st6" width="14.2" height="14.2"/>
				
					<rect x="607.1" y="389.9" transform="matrix(0.9419 -0.3359 0.3359 0.9419 -97.6461 229.3535)" class="st6" width="14.2" height="14.2"/>
				
					<rect x="633.9" y="380.3" transform="matrix(0.9419 -0.3359 0.3359 0.9419 -92.8799 237.7943)" class="st6" width="14.2" height="14.2"/>
				
					<rect x="660.7" y="370.7" transform="matrix(0.9419 -0.3359 0.3359 0.9419 -88.1146 246.2384)" class="st6" width="14.2" height="14.2"/>
				
					<rect x="687.5" y="361.2" transform="matrix(0.9419 -0.3359 0.3359 0.9419 -83.3468 254.687)" class="st6" width="14.2" height="14.2"/>
				<path class="st5" d="M153.5,617.1l23.1,1.3c1.5,0.1,2.8-0.3,4-1l122.3-76.2c0.6-0.4,0.3-1.7-0.4-2c-6-2.4-22.4-8.5-27.5-4.7
					c-5.8,4.4-105.6,70.1-122,80.9C152.4,615.8,152.8,617,153.5,617.1z"/>
				<path class="st5" d="M586.3,455.4c14.3-5.1,25.9,2.7,31,17v0c5.1,14.3-2.4,30.2-16.8,35.3l-38,13.6
					c-14.3,5.1-30.2-2.4-35.3-16.8v0"/>
				<path class="st5" d="M612.3,433.7l-204,167.9c0,0-17,5.9-24.2-2.8c-6.9-8.3-21.4-21.9-26-26.2c-0.6-0.5-0.7-1.7-0.3-2l9.3-5.6
					c0.8-0.5,1.9-0.3,2.9,0.6l20.1,17.1c1.3,1.1,2.6,1.3,3.6,0.4L532,461.2c0,0,65.7-31.5,68.4-31.3
					C603.1,430.1,612.3,433.7,612.3,433.7z"/>
			</g>
		</g>
		<path class="st7" d="M152.9,615.4c0,0,22.5,0.5,65.7-29c43.2-29.4,67.7-52.7,67.7-52.7s14.9,4.2,15.5,6c0.7,1.8-3,4.5-3,4.5
			l-59.5,36.8l-59.6,37.3C179.8,618.5,154.6,618.6,152.9,615.4z"/>
		<path class="st7" d="M383.4,599.2c0,0,11.3,8.7,25,2.4l50.4-41l80.6-67l71.8-59.5l-11.5-5.3L532,461.2l-19.8,17.2
			C512.1,478.4,470.9,573,383.4,599.2z"/>
		<path class="st7" d="M597.7,445.4c0,0,192.5-59.3,207.8-76.4c15.3-17,19.4-38,6.9-47.6c0,0,36.4,9.6,40.1,15s19.3,22.7,2.2,45.4
			l-239.3,85.9c0,0-3.1-19-31.5-11.4c-28.4,7.7-2.4,0.2-2.4,0.2L597.7,445.4z"/>
	</g>
</g>
</svg>
